<svg id="Layer_1" data-name="Layer 1" xmlns="http://www.w3.org/2000/svg" viewBox="0 0 818.96 520.08"><defs><style>.cls-1{fill:#fff;}</style></defs><path d="M606.44,202.88c3.16-10,5.39-18.44,8.45-26.54,8-21.26,21.05-37.43,43.13-45.4,16.58-6,32.48-13.85,48.92-20.25,12.63-4.92,16.59-2.73,16,10.35-.8,16.82-2.11,33.93-6.1,50.17-5,20.43-21.13,31.07-39.72,38.64-13.18,5.36-26.31,11.34-38.44,18.77-16.87,10.33-25,27.15-29.1,46.35-3.1,14.55-6.85,28.94-10.61,44.64,26.56-1.17,52-3.95,74.66-17.88,17.59-10.81,35.86-13.78,56.23-10.87,19.27,2.76,38.89,2.83,58.36,4.11,5.92.39,11.84.89,17.86,1.35-6.39,37-56.71,68.28-99.22,62.72-30.05-3.93-58.46-13.41-87.61-20.45-24.81-6-50.69-7.38-76.09-10.81L542,331.63c2.45,1.27,4.91,2.51,7.34,3.83,17.64,9.55,36,18,52.71,29,17.65,11.65,27.07,29.08,28.49,51.23.73,11.37,4.85,22.54,7.63,33.76,1.69,6.83,3.74,13.58,5.81,21-49.84-8-89-28.29-107.48-77.83a183.13,183.13,0,0,0-12.86-27.55c-2.73-4.7-7.34-8.83-12-11.72-20.16-12.48-42.72-16.81-65.85-17.18-31.51-.49-63.05-.46-94.54.49-30.93.93-61.81,4-92.74,4.77-17.86.45-35.81-1.48-53.68-2.95-2.64-.22-6.16-3.35-7.35-6-17-37.94-30.91-87.32-16.23-129.78,5.36-15.52,12.76-20.4,28.73-19.65,12.19.57,24.46-1.06,36.69-1.19,17.14-.19,34.32-.57,51.42.35,29,1.58,57.49,3.4,86.9-.16,54.45-6.59,109.48-8.59,164.32-11.52,16.82-.89,33.21,3.22,46.73,15C598.87,188,602.49,200.51,606.44,202.88Zm-372.84,115c31.94,1,63.41,3.77,94.72,2.56,83.06-3.2,166.06-8.18,249.09-12.26,6.12-.3,9.16-2.18,11.06-8.56,7.2-24.15,6.93-59.75,5.51-84.49-.54-9.55-5.06-13.21-14.9-12.46-20,1.51-40.07,2.48-60.12,2.57-27.19.12-54.4-1.09-81.6-1.2-63-.23-126-.15-189-.19l-22.64,0C221.36,240.39,223,284.82,233.6,317.85ZM710.53,121.37c-16.8,7.93-31.95,16-47.77,22.34-23.75,9.54-42.57,37.38-42,66.07,10.54-11.43,19.88-22.28,30-32.33s19.44-21.37,35.21-23c-5.86,9.64-13.57,17.05-20.76,24.94s-14,16.46-22.38,26.35C691.61,190.42,708.16,181.73,710.53,121.37ZM593.57,400l-3.31,3.2c-7.63-6.21-15-12.87-23-18.52-7.76-5.46-16.22-9.89-24.38-14.77,22.57,55.32,44.44,75.26,79.9,82-.4-51.59-31-93.5-74.8-99.95C566.49,366.4,587.93,376.15,593.57,400Zm136.12-78.85c-7.31,14.23-19.15,13-28.34,15.92-9.43,3-19.66,3.54-32,5.55,58.51,12.28,103.58-7.57,116.82-32.12-23.4-1.33-47.44-2.9-71.5-3.92-5.58-.23-11.67.33-16.75,2.43-14.38,5.94-28.36,12.87-42.5,19.41.17.71.33,1.41.49,2.11ZM568.51,189.36c-14.17-9.89-84.85-8.87-112.78-.52ZM202,242.86c-8.68-13.43-7.88-27.4,3.87-36.52,2-1.54,2-5.69,3.46-10.22-19.35,6.62-27.94,43.81-19.44,64.4l11.35-2.17-8.54-10.8Zm-8.05,23.06-3,.82c3.47,13.29,6.95,26.59,10.76,41.17C212.08,290,196.85,279.37,193.92,265.92Zm246-78.59-.09-1.13-16.58,1.09.1,1.12Z"/><path class="cls-1" d="M233.6,317.85c-10.57-33-12.24-77.46-7.92-114l22.64,0c63,0,126,0,189,.19,27.2.11,54.41,1.32,81.6,1.2,20-.09,40.13-1.06,60.12-2.57,9.84-.75,14.36,2.91,14.9,12.46,1.42,24.74,1.69,60.34-5.51,84.49-1.9,6.38-4.94,8.26-11.06,8.56-83,4.08-166,9.06-249.09,12.26C297,321.62,265.54,318.84,233.6,317.85Z"/><path class="cls-1" d="M710.53,121.37c-2.37,60.36-18.92,69-67.7,84.33,8.35-9.89,15.11-18.36,22.38-26.35s14.9-15.3,20.76-24.94c-15.77,1.67-25.17,13.08-35.21,23s-19.45,20.9-30,32.33c-.58-28.69,18.24-56.53,42-66.07C678.58,137.35,693.73,129.3,710.53,121.37Z"/><path class="cls-1" d="M593.57,400C587.93,376.15,566.49,366.4,548,352c43.78,6.45,74.4,48.36,74.8,99.95-35.46-6.71-57.33-26.65-79.9-82,8.16,4.88,16.62,9.31,24.38,14.77,8,5.65,15.36,12.31,23,18.52Z"/><path class="cls-1" d="M729.69,321.19l-73.78,9.38c-.16-.7-.32-1.4-.49-2.11,14.14-6.54,28.12-13.47,42.5-19.41,5.08-2.1,11.17-2.66,16.75-2.43,24.06,1,48.1,2.59,71.5,3.92-13.24,24.55-58.31,44.4-116.82,32.12,12.34-2,22.57-2.52,32-5.55C710.54,334.15,722.38,335.42,729.69,321.19Z"/><path class="cls-1" d="M568.51,189.36l-112.78-.52C483.66,180.49,554.34,179.47,568.51,189.36Z"/><path class="cls-1" d="M202,242.86l-9.3,4.69,8.54,10.8-11.35,2.17c-8.5-20.59.09-57.78,19.44-64.4-1.44,4.53-1.47,8.68-3.46,10.22C194.09,215.46,193.29,229.43,202,242.86Z"/><path class="cls-1" d="M193.92,265.92c2.93,13.45,18.16,24.11,7.71,42-3.81-14.58-7.29-27.88-10.76-41.17Z"/><path class="cls-1" d="M439.87,187.33l-16.57,1.08-.1-1.12,16.58-1.09Z"/></svg>