<svg id="Layer_1" data-name="Layer 1" xmlns="http://www.w3.org/2000/svg" viewBox="0 0 818.96 520.08"><defs><style>.cls-1{fill:#fff;}</style></defs><path d="M191.34,220.16c8.17-7.83,15.61-16.48,24.51-23.18,21-15.79,44-25.3,71-18.38a36.21,36.21,0,0,0,8.87,1q85.26.07,170.54-.05c9.47,0,18.94-1.44,28.42-1.52,20.85-.16,30.89-13.09,37.95-30.44,4.12-10.1,9-20,14-29.64,17.6-33.89,49.83-45.83,83.81-54.66,12.6-3.28,25.46-5,33.86-17,1.55-2.21,7.73-3.13,10.52-1.88,2.19,1,3.61,6.32,3.39,9.59-4.2,62.4-41.08,99.21-96.11,121.69-5.41,2.21-10.68,4.73-16,7.11,0,1.08,0,2.16,0,3.24,4.46,1.37,8.9,2.78,13.37,4.09,22.78,6.67,33.5,24.61,26.08,47-5.89,17.78-6.11,34.91-2,52.92a53.56,53.56,0,0,1-.32,23.43C600,327.47,594.5,331,579.9,332l-131.24,9.21c11.55,4.7,21.32,8.51,30.95,12.62,28.38,12.08,53.47,27.66,61.6,60.27,1.79,7.19,3.5,14.73,3.25,22-.49,14,5.11,23.95,16.82,31.05,6,3.66,11.76,7.67,10.91,16.09-44.45,4.51-91.87-3.49-120-46.51-11.29-17.3-19-34.95-17.7-55.9a60,60,0,0,0-.48-9c-2.58-27.71-8-32.32-35.35-31.29-33.3,1.26-66.62,2.84-99.93,2.86-14.3,0-28.63-3.39-42.9-5.5-9.77-1.44-19-4-28.34,3.27-7.45,5.82-12.48-1.48-15.07-7-6.75-14.44-12.72-29.27-18.33-44.19-7.65-20.36-14.27-41.11-22.23-61.34-2.25-5.74-6.86-11.19-11.71-15.15a359.83,359.83,0,0,0-33.73-24.65C91,166.16,76.59,133.13,77.84,92.2a29.79,29.79,0,0,1,2.65-11.59c3.08-6.47,6.78-8.27,14-3.09,16.53,11.9,33.43,23.52,51.21,33.4,15.22,8.46,24.38,20.67,28.56,36.62C180.49,171.44,185.62,195.65,191.34,220.16Zm386.12-10.88c-9.42-1.05-16.32-2.3-23.24-2.51q-103.22-3-206.45-5.71c-26.39-.64-52.81-.73-79.21-.54-18.29.12-29,13.16-30.38,24.25-3.61,29-9.14,58.44-.78,87.59.94,3.28,5.34,6.61,8.86,7.83,4,1.4,8.87.56,13.35.56,61.83,0,123.68-1.24,185.46.46,45.37,1.25,90.24-.76,135.62-7.58ZM455.52,382c-4.17,36.09,36.58,81.15,75.25,87.27-1.77-12.28-3.42-25.21-5.58-38.06a182.57,182.57,0,0,0-4.88-20.29c-6.22-21.52-22.8-32-42.36-39.37a40.12,40.12,0,0,0,6.79,10.85c5.29,6.58,11.08,12.82,15.72,19.82,1.44,2.18,1,7.57-.73,9.32s-6.67,1.7-9.35.52c-4-1.75-7.35-5-10.69-8C471.94,397.15,464.36,390.06,455.52,382ZM578.15,156.26c32.79-18.1,64.17-37.47,73.73-77.61-47.89,6.67-86.44,29.87-93.72,68,14.48-4.35,24-19.7,42-19.24C599.25,143.48,583.18,145.56,578.15,156.26Zm-412.1,20.35c-1.1-7.07-2.05-14.16-3.33-21.2-3-16.64-11-29.5-26.78-37.34-14.52-7.23-28.57-15.4-42.82-23.17-1.16,44.79,16.5,66.19,51.17,81.17-2.92-14.56-18-23.84-17.83-42C148.24,142.46,151.14,164.19,166.05,176.61ZM218.6,308.77l3.44-.67q-3.66-31.56-7.33-63.12c-3.83-11.16,17.3-13,8.24-31.11-5.53,7.83-12.34,13.37-13.58,20C204.48,259.65,209.35,284.64,218.6,308.77Z"/><path class="cls-1" d="M577.46,209.28l3.23,104.35c-45.38,6.82-90.25,8.83-135.62,7.58-61.78-1.7-123.63-.43-185.46-.46-4.48,0-9.32.84-13.35-.56-3.52-1.22-7.92-4.55-8.86-7.83-8.36-29.15-2.83-58.55.78-87.59,1.37-11.09,12.09-24.13,30.38-24.25,26.4-.19,52.82-.1,79.21.54q103.23,2.52,206.45,5.71C561.14,207,568,208.23,577.46,209.28Z"/><path class="cls-1" d="M455.52,382c8.84,8.11,16.42,15.2,24.17,22.09,3.34,3,6.72,6.22,10.69,8,2.68,1.18,7.65,1.18,9.35-.52s2.17-7.14.73-9.32c-4.64-7-10.43-13.24-15.72-19.82A40.12,40.12,0,0,1,478,371.5c19.56,7.38,36.14,17.85,42.36,39.37a182.57,182.57,0,0,1,4.88,20.29c2.16,12.85,3.81,25.78,5.58,38.06C492.1,463.1,451.35,418,455.52,382Z"/><path class="cls-1" d="M578.15,156.26c5-10.7,21.1-12.78,22-28.81-18-.46-27.49,14.89-42,19.24,7.28-38.17,45.83-61.37,93.71-68C642.32,118.79,610.94,138.16,578.15,156.26Z"/><path class="cls-1" d="M166.05,176.61c-14.91-12.42-17.81-34.15-39.59-42.57-.15,18.19,14.91,27.47,17.83,42-34.67-15-52.33-36.38-51.17-81.16,14.25,7.76,28.3,15.93,42.82,23.16,15.75,7.84,23.77,20.7,26.78,37.34C164,162.45,165,169.54,166.05,176.61Z"/><path class="cls-1" d="M218.6,308.77c-9.25-24.13-14.12-49.12-9.23-74.93,1.24-6.6,8-12.14,13.58-20,9.06,18.07-12.07,19.95-8.24,31.11q3.67,31.56,7.33,63.12Z"/></svg>