<svg id="Layer_1" data-name="Layer 1" xmlns="http://www.w3.org/2000/svg" viewBox="0 0 818.96 520.08"><defs><style>.cls-1{fill:#fff;}</style></defs><path d="M778.53,233.22c-22.23,28.7-34.9,38.59-69,42.31-17.53,1.91-21.16,1.61-38.76,3.13-5.64.49-12,2.36-16.41,5.75-24.51,19-52.74,34.75-82.12,43.91-48.52,15.13-97.31,26-148,25.55-49.38-.47-98.48-4.81-146.42-18.43-10.62-3-22.42-8.94-33.68-9.06-14.74-.16-21.25-4.73-21.74-19.74-.8-24-.22-48-.22-71.64-2.83,3-6.5,8.1-11.36,11.59-6.7,4.82-13.88,10.66-21.59,12.06-16.32,3-31.33,7.45-43.48,22.27-5.47-11.67.16-18,6.08-22.06,9.47-6.56,12.53-15.44,15.11-25.87,4.56-18.4,11-36.16,34-42.91-4.13-3.08-6.53-5.14-9.19-6.78-9.69-6-16.07-14-18.19-25.58-1.67-9.13-4.7-18-7.25-27-3.5-12.31-11.56-20.5-24.18-25.64,22.63-5.19,43.61-18.58,66.92-8.52a46.36,46.36,0,0,1,19.49,16.62c12.29,19.13,16.58,40.68,12.46,65.24,10-4.66,11.1-12.07,10.73-19-1.29-24.7,10.39-40.88,31.36-52.39,7.59-4.17,13.73-10.94,20.61-16.42,3.57-2.84,7.31-5.46,11-8.18l3.23,2.37c-1.16,3.22-2.43,6.41-3.46,9.67-3.81,12.1-9.8,24-10.8,36.38-1.56,19.3-2.09,38.31-15.61,55.18,24.37-1,47-2.85,69.52-2.5,45.83.71,91.64,2.65,137.46,4.06,18.22.56,36.46,1.87,54.66,1.37,16.19-.44,31.26,2.88,46,9,15.31,6.33,25.08,17.21,26.75,34.16,1.22,12.46,2.06,24.95,3.23,39.36,10.24-10.4,13.94-21.64,12.1-33.4-1.86-12-4.67-24.56-10.45-35-15.69-28.36-18.79-57.57-11.33-88.61C620,97.37,632.39,86.88,645.2,76.77c2.31-1.82,6.26-1.55,11.47-2.69-9,21.51,3.58,37.35,12.58,51.89,15.94,25.74,15.42,51.09,7,78-2.36,7.5-5.44,14.78-9.12,24.66,14.56-8.84,18.39-20.16,31.53-26.79,9.93-5,18.84-5.93,25.9-8.15,28.44-3.15,31.54-3.61,59.49,5.18C793.18,201.72,784.17,226,778.53,233.22ZM244,203c-1.67,33.71-3.15,65.41-4.87,97.09-.39,7.22.64,13.1,9.37,13.54,23.56,1.19,47.13,9.74,70.68,9.54,17.65-.15,35.24-4.22,52.91-4.73,56.92-1.65,113.86-2.49,170.79-3.6,19.8-.38,36.57-19.16,43.48-37.64,8.42-22.5,6.9-45.19,2.38-70.58-10.86-1.42-21.77-3.83-32.73-4.07-22.06-.48-44.16.81-66.22.33-45.78-1-91.55-3.58-137.32-3.77C317.63,199,282.81,201.5,244,203ZM702.2,263.22c43.55.21,42.14-10.43,67.25-49.38-51.36-20.57-73.45-1.66-102.71,40.95,24.15-3.23,32.51-16.32,56.9-9.78.46,1.66.91,3.33,1.37,5C712.69,254.41,714.52,258.81,702.2,263.22ZM642.12,101.08C622.54,120.89,623.93,166.17,646,199V168.38l3.83-.59c2.5,14.61,5,29.23,7.65,44.6C679,177.42,673.61,139.94,642.12,101.08Zm-414.2,73.24c3-23.91-6-44.63-18-64.27-2-3.23-7.26-4.85-11.34-6.31-10.89-3.89-20.92-.89-28.69,3.1,5.41,14.5,9.82,28.35,15.71,41.56,6.64,14.9,20,27.45,29.76,30.42,1.7-10.94-14-17.23-8.76-30.5C220.85,152.41,220.44,165.93,227.92,174.32Zm34.58,7c13.45-.73,19.8-8.71,21.95-19.42,3.15-15.7,4.79-31.7,7.18-48.35-20.26,9.89-33.77,26.13-27.14,51.36l9.5-8,3.08,2.33Zm-81.72,66.95c8.84-7.65,17.95-12.63,22.44-20.3,3.88-6.63,2.52-16.33,3.47-24.61C190.93,207.47,180.82,223.47,180.78,248.25Zm424.61,18.41c-2,5.44-4.1,10.89-6.73,17.91C613.11,281.91,607.81,273.75,605.39,266.66Zm-200,66.55.17,1.31h18.05c0-.44,0-.88,0-1.31Z"/><path class="cls-1" d="M244,203c38.84-1.5,73.66-4,108.47-3.89,45.77.19,91.54,2.77,137.32,3.77,22.06.48,44.16-.81,66.22-.33,11,.24,21.87,2.65,32.73,4.07,4.52,25.39,6,48.08-2.38,70.58-6.91,18.48-23.68,37.26-43.48,37.64-56.93,1.11-113.87,2-170.79,3.6-17.67.51-35.26,4.58-52.91,4.73-23.55.2-47.12-8.35-70.68-9.54-8.73-.44-9.76-6.32-9.37-13.54C240.82,268.41,242.3,236.71,244,203Z"/><path class="cls-1" d="M702.2,263.22c12.32-4.41,10.49-8.81,22.81-13.22-.46-1.66-.91-3.33-1.37-5-24.39-6.54-32.75,6.55-56.9,9.78,29.26-42.61,51.35-61.52,102.71-40.95C744.34,252.79,745.75,263.43,702.2,263.22Z"/><path class="cls-1" d="M642.12,101.08c31.49,38.86,36.91,76.34,15.35,111.31-2.64-15.37-5.15-30-7.65-44.6l-3.83.59V199C623.93,166.17,622.54,120.89,642.12,101.08Z"/><path class="cls-1" d="M227.92,174.32c-7.48-8.39-7.07-21.91-21.34-26-5.26,13.27,10.46,19.56,8.76,30.5-9.79-3-23.12-15.52-29.76-30.42-5.89-13.21-10.3-27.06-15.71-41.56,7.77-4,17.8-7,28.69-3.1,4.08,1.46,9.37,3.08,11.34,6.31C221.93,129.69,231,150.41,227.92,174.32Z"/><path class="cls-1" d="M262.5,181.3l14.57-22.11L274,156.86l-9.5,8c-6.63-25.23,6.88-41.47,27.14-51.36-2.39,16.65-4,32.65-7.18,48.35C282.3,172.59,276,180.57,262.5,181.3Z"/><path class="cls-1" d="M180.78,248.25c0-24.78,10.15-40.78,25.91-44.91-.95,8.28.41,18-3.47,24.61C198.73,235.62,189.62,240.6,180.78,248.25Z"/><path class="cls-1" d="M605.39,266.66c2.42,7.09,7.72,15.25-6.73,17.91C601.29,277.55,603.34,272.1,605.39,266.66Z"/><path class="cls-1" d="M405.34,333.21h18.24c0,.43,0,.87,0,1.31H405.51Z"/></svg>