<svg id="Layer_1" data-name="Layer 1" xmlns="http://www.w3.org/2000/svg" viewBox="0 0 818.96 520.08"><defs><style>.cls-1{fill:#fff;}</style></defs><path d="M216.64,340.91c-6.09-53.8-3.54-111.58,6.84-147.51-4.44.68-8.2,1.26-11.95,1.82-30.23,4.58-56.76.26-74.56-28.48-4-6.43-11.14-10.94-17-16.19-3.57-3.21-7.4-6.13-11.12-9.18.55-1.41,1.09-2.82,1.63-4.22,5.21.61,11,0,15.52,2.06,15.12,6.81,29.82,5.25,44.68-.24,1-.36,1.93-.84,2.94-1.16,35.84-11.44,49.54-5.27,65.55,31,25.68-36.38,60.81-44.09,102.17-35.11,1.95,9.84-3.95,15.91-10.43,19.74-16.71,9.9-34.08,18.73-51.35,27.67-4.52,2.35-9.64,3.54-14.16,6.55,15.61-1.15,31.35-1.36,46.8-3.59,68.37-9.86,136.85-8,205.41-3.15,9,.63,18-.11,26.91,1,21.89,2.66,43.77,5.55,65.51,9.22s29.69,18.23,23.62,39.06c-4.53,15.51-6.62,31.76-11.66,47.06-5.87,17.89-11.43,36.67-21.71,52-5.57,8.29-20.43,13.42-31.57,14.38C524.52,347.4,480,347,436.15,339.9s-86.19-.49-128.67,8.57c-16,3.41-31.94,7.16-48.1,9.31-8,1.07-16.39-1.13-24.07-1.8-1.54,12.84-1.94,26.06-4.87,38.7-6.23,26.93-23.21,44.71-50.14,51.71a267.14,267.14,0,0,1-39,6.61c-3.69.4-7.82-3.25-11.74-5,2.33-3,4.81-5.82,7-8.9,2.45-3.48,5.5-6.86,6.76-10.78,3.54-11,6.16-22.3,9.4-33.4,8.57-29.41,29.2-45.3,58.33-51.63C213,342.82,214.86,341.67,216.64,340.91Zm20-22.51c3.28-.23,6.57.19,9.39-.77,44.73-15.15,90.19-12.64,136-6.5,36.22,4.85,72.5,9.61,108.9,12.61,25.19,2.07,50.64,1.34,76,1.35,18.61,0,26.5-6.74,25.3-25.35-1.75-27.24-5.26-54.43-9.46-81.42-2.34-15-6.16-16.69-21.94-16.31-10.55.25-21.11,1.35-31.65,1.13-40.54-.84-81.06-2.45-121.6-3-28-.39-56,.2-84,.84-23.1.53-46.17,2.31-69.26,2.45-9.48.05-13.27,4.6-15.37,12.34-3.85,14.17-8.92,28.18-11,42.62C225,278.72,224.78,299.31,236.66,318.4Zm-33.48,44.06c-35.64,13.06-37.62,44.84-48.66,72,37.89.09,62.62-25.15,64.44-67.27l-38,41.16C178.43,386.6,196.2,378.38,203.18,362.46Zm8.62-188.08-24.65-6.75c11.09-11.06,23.47-2.6,35.35-2.91-5.24-13.32-14-18.23-26.66-15.79-14.72,2.85-29.36,6.12-44.13,9.22C159.54,176.89,183.46,184.34,211.8,174.38ZM247.37,344c.44.91.88,1.82,1.31,2.73L347,323.9c-30.22-7.08-58.1,2-85.9,10.74C256,336.22,251.92,340.8,247.37,344Zm28.71-180.64c.41.78.82,1.57,1.22,2.36l40.55-20-1.47-4.11H298.82Zm322.26,42.49c.6,14.11,7.89,10,14,9.25.49-1.36,1-2.72,1.46-4.09Z"/><path class="cls-1" d="M236.66,318.4c-11.88-19.09-11.67-39.68-8.71-60,2.1-14.44,7.17-28.45,11-42.62,2.1-7.74,5.89-12.29,15.37-12.34,23.09-.14,46.16-1.92,69.26-2.45,28-.64,56-1.23,84-.84,40.54.57,81.06,2.18,121.6,3,10.54.22,21.1-.88,31.65-1.13,15.78-.38,19.6,1.34,21.94,16.31,4.2,27,7.71,54.18,9.46,81.42,1.2,18.61-6.69,25.36-25.3,25.35-25.33,0-50.78.72-76-1.35-36.4-3-72.68-7.76-108.9-12.61-45.8-6.14-91.26-8.65-136,6.5C243.23,318.59,239.94,318.17,236.66,318.4Z"/><path class="cls-1" d="M203.18,362.46c-7,15.92-24.75,24.14-22.21,45.87l38-41.16c-1.82,42.12-26.55,67.36-64.44,67.27C165.56,407.3,167.54,375.52,203.18,362.46Z"/><path class="cls-1" d="M211.8,174.38c-28.34,10-52.26,2.51-60.09-16.23,14.77-3.1,29.41-6.37,44.13-9.22,12.62-2.44,21.42,2.47,26.66,15.79-11.88.31-24.26-8.15-35.35,2.91Z"/><path class="cls-1" d="M247.37,344c4.55-3.19,8.66-7.77,13.72-9.35,27.8-8.7,55.68-17.82,85.9-10.74l-98.31,22.82C248.25,345.81,247.81,344.9,247.37,344Z"/><path class="cls-1" d="M276.08,163.35l22.74-21.73h17.56l1.47,4.11-40.55,20C276.9,164.92,276.49,164.13,276.08,163.35Z"/><path class="cls-1" d="M598.34,205.84,613.76,211c-.49,1.37-1,2.73-1.46,4.09C606.23,215.88,598.94,220,598.34,205.84Z"/></svg>