<svg id="Layer_1" data-name="Layer 1" xmlns="http://www.w3.org/2000/svg" viewBox="0 0 818.96 520.08"><defs><style>.cls-1{fill:#fff;}</style></defs><path d="M669,101.77c-2.08,9.48-4,16.11-4.95,22.87-3.85,28.12-11.15,48.74-47.82,48.76-13.21,0-17.7,5.83-13.2,18.6,3.8,10.8,9.46,21,14.42,31.35,3.18,6.65,6.78,13.09,9.83,19.8,22.74,49.91-25.2,94.76-66.49,93.52-64.4-1.93-128.91-.37-193.38-.5-37.78-.08-75.57-.48-113.35-1a57,57,0,0,1-14.9-2.44c-23-6.64-24.91-9.73-26.05-33.24-.78-16.06-5.1-32.34-3.4-48,2.14-19.85,8-39.46,14.08-58.61,1.33-4.2,10-8,15.68-8.57,21.1-2.2,42.34-3,63.53-4.32,2.27-.15,4.53-.53,8.18-1-4.34-7-9.21-8.67-16.23-7.21-34.8,7.2-63.43-3.68-86.51-30.17-11.53-13.25-22.57-26.75-28.31-43.85-1.09-3.28-5.47-5.37-8.05-8.26s-4.61-5.87-6.89-8.83c3.6-2.19,7.11-6,10.83-6.19,5.82-.36,12.38.43,17.59,2.9,26.17,12.41,52.46,24.72,77.79,38.73a70.3,70.3,0,0,1,30.39,33.2c1.28,2.87,4.75,5.12,7.69,6.85,8.24,4.85,16.54,9.68,25.18,13.76,9.05,4.27,18.32,10.25,27.85,11,50.94,4,102,7.39,153,9.44,21.51.87,43.21-1.76,64.77-3.52,3.15-.26,7.22-3.92,8.73-7A189.12,189.12,0,0,0,599.68,153c7.17-23.43,38.32-50.3,62.51-52.91C664.89,99.76,667.8,101.44,669,101.77ZM586.71,203.34c-3.32-.49-4.72-1-6-.85-45,6.09-90.08,5.66-135.27,3.82-55.71-2.26-111.44-4.1-167.15-6.36-14.24-.57-28,.9-39.23,10.15-3.77,3.1-7.14,9-7.33,13.75-1,25.7-1.07,51.44-1.34,77.16-.16,14.78,4.68,19.89,19.51,20.29,9.63.25,19.34.7,28.9-.19,84.12-7.79,168.27-.84,252.4-.84,5.37,0,11.5,2.63,16,.82,15.18-6.15,28.18-15.47,35.18-31.22C594.83,261.73,587.58,232.85,586.71,203.34ZM199.45,101.74c15.31,21.43,26.57,47.09,57.79,52.17l-14.15-21.22,34.82,14.64,1.46-3.19C255.94,124.28,227.45,113.63,199.45,101.74ZM619,159.26c22.41-3.09,31.09-15.85,28.3-40.6-14.2,8-28.26,15-36.45,31.83l12.51-1.87Zm-.19,101.8L608,271.68l10.15,6c-6.72,8.32-12.26,15.19-17.77,22l7.86,3.85C618.53,290.54,628.93,278.67,618.85,261.06Zm-23,53.95c-.51-1.24-1-2.48-1.52-3.72-9.27-3.29-13.43,4.11-17.7,11.5Z"/><path class="cls-1" d="M586.71,203.34c.87,29.51,8.12,58.39-4.38,86.53-7,15.75-20,25.07-35.18,31.22-4.47,1.81-10.6-.82-16-.82-84.13,0-168.28-6.95-252.4.84-9.56.89-19.27.44-28.9.19-14.83-.4-19.67-5.51-19.51-20.29.27-25.72.3-51.46,1.34-77.16.19-4.75,3.56-10.65,7.33-13.75,11.26-9.25,25-10.72,39.23-10.15,55.71,2.26,111.44,4.1,167.15,6.36,45.19,1.84,90.31,2.27,135.27-3.82C582,202.32,583.39,202.85,586.71,203.34Z"/><path class="cls-1" d="M199.45,101.74c28,11.89,56.49,22.54,79.92,42.4l-1.46,3.19-34.82-14.64,14.15,21.22C226,148.83,214.76,123.17,199.45,101.74Z"/><path class="cls-1" d="M619,159.26l4.36-10.64-12.51,1.87c8.19-16.79,22.25-23.86,36.45-31.83C650.13,143.41,641.45,156.17,619,159.26Z"/><path class="cls-1" d="M618.85,261.06c10.08,17.61-.32,29.48-10.64,42.46l-7.86-3.85c5.51-6.81,11-13.68,17.77-22l-10.15-6Z"/><path class="cls-1" d="M595.87,315l-19.22,7.78c4.27-7.39,8.43-14.79,17.7-11.5C594.85,312.53,595.36,313.77,595.87,315Z"/></svg>