<svg width="400" height="220" id="Layer_1" data-name="Layer 1" xmlns="http://www.w3.org/2000/svg" viewBox="0 0 818.96 460"><defs><style>.cls-1{fill:#fff;}</style></defs><path d="M539.06,368.34q-84,0-168,0c-83.18-.13-166.35-.19-249.52-.7-15-.1-30.06-1.71-44.94-3.59-15.6-2-20.15-6.19-21-20.15-2.48-42.73-5.24-85.47-6.15-128.24-.7-33,.92-66.14,2.08-99.2.77-21.92,3.46-24.71,27.9-24.76,93.29-.2,186.57.17,279.86.34,71,.13,142.06-.16,213.08.54,58.81.57,117.61,2.24,176.41,3.58,14,.32,16.58,2.18,17.17,14.6.91,18.81.69,37.66,1,56.49.89,46.72,2.18,93.45,2.56,140.18A243.74,243.74,0,0,1,765.87,350c-2.25,13.23-5,14.62-20.17,15-23.66.65-47.33,1.25-71,1.36-45.21.22-90.42.07-135.63.07ZM77.42,346.44c18.19,0,33.89-.26,49.58.06,18.67.39,37.32,1.76,56,1.84,39.49.17,79,.35,118.47-.56,37.29-.86,74.56-4.88,111.79-4.41,87.6,1.08,175.17,4.18,262.76,6.07,22.72.49,45.49-.45,68.4-.73.65-7.55,1.44-12.69,1.47-17.84.15-25.26-.07-50.51.17-75.77.39-39.63,1.09-79.26,1.52-118.89.07-6.35-.56-12.71-1-21.5L73,109.39c-.57,2.84-1.73,6.54-2,10.29C66.09,191.16,69.57,262.57,73.34,334,73.59,338.74,76.38,343.4,77.42,346.44Z"/><path class="cls-1" d="M77.42,346.44c-1-3-3.83-7.7-4.08-12.48-3.77-71.39-7.25-142.8-2.33-214.28.25-3.75,1.41-7.45,2-10.29l673.58,5.32c.43,8.79,1.06,15.15,1,21.5-.43,39.63-1.13,79.26-1.52,118.89-.24,25.26,0,50.51-.17,75.77,0,5.15-.82,10.29-1.47,17.84-22.91.28-45.68,1.22-68.4.73-87.59-1.89-175.16-5-262.76-6.07-37.23-.47-74.5,3.55-111.79,4.41-39.47.91-79,.73-118.47.56-18.66-.08-37.31-1.45-56-1.84C111.31,346.18,95.61,346.44,77.42,346.44Z"/></svg>