<svg width="400" height="220" id="Layer_1" data-name="Layer 1"
    xmlns="http://www.w3.org/2000/svg" viewBox="0 0 818.96 520.08">
    <defs>
        <style>.cls-1{fill:#fff;}</style>
    </defs>
    <path d="M52.42,251.63c49.6-18,95.67-14.33,142.35,6.79-1.16-13.33-2.09-25.41-3.29-37.47-.89-9,2.27-15.65,10.82-19C224.06,193.58,246,186.36,270,187.3c17.23.68,34.52-.25,51.78-.46l.12-4.07c-21.28-4.65-42.54-9.37-63.84-13.92-17.46-3.73-29.27-14.71-37.58-29.69-9.55-17.21-3.23-29.49,16.24-30.3,44.74-1.88,85.68,6.63,116,43.81,6.5,8,14.79,15.69,23.93,20,11.2,5.22,24.11,9,36.38,9.34,46.22,1.12,92.5-.27,138.71,1,21.5.59,42.88,5.14,65.94,8.11,5.66-9,11.29-19.7,7.52-33.59-4.32-16,2.66-27.89,16.11-36.48,1.79-1.14,3.75-2,5.54-3.13,18.74-11.85,19.74-11,25.85,11.2,6.22,22.6.2,51-28.73,60.92-11.68,4-16.18,20.37-10.67,33.87,16.92,41.5-4.41,88.73-45.12,106.57-21.6,9.46-43.63,8.45-65.5,9.74-60,3.54-120.11,5.06-180.16,7.75-10.56.48-21.35,1.64-31.49,4.45-23.86,6.6-44.82-2.85-66.38-10-4.82-1.59-10.18-3.49-15-2.87-20.63,2.66-40.21-1-59.52-7.75-8-2.79-16-5.95-24.25-7.8-29.4-6.58-48.79-26.62-67.46-48.16C71.4,267.75,62.7,261.1,52.42,251.63ZM289.53,204c-.09-1.27-.18-2.55-.26-3.83-21.07,2.72-42.25,4.72-63.16,8.34-20.29,3.52-23.05,9.55-17.33,30.21,5.37,19.37,10.46,38.82,15.48,58.28s10.67,23.4,30.31,21.71c23.33-2,46.65-4.46,70-5.48,30.85-1.35,61.76-2.29,92.63-1.92,28.65.35,57.32,2.21,85.92,4.24,15.84,1.13,31.66,6.28,47.3,5.58,38.35-1.73,53.38-14.95,64.32-51.95,1.05-3.56,2.12-7.12,3-10.74,5.37-23.33-3.2-47.83-30.91-51.08-7.36-.86-14.51-4.09-21.84-4.42-42.42-1.93-84.88-4.8-127.3-4.52C388.29,198.72,338.91,202,289.53,204Zm-82,104.49,2.06-3.66c-22-37.56-81.35-56.89-125.81-46.65,27.75,39.21,68.24,53.64,113.3,59.72C178.84,305.43,159.61,294.43,144,279l3.39-5.19Zm22.1-187.33c3.77,26.23,47.45,47.9,81.91,42.52-9.07-9.89-25.87-8.63-35-24.78,24.93,3.39,43.17,16.89,64.11,22C311.66,126.41,272.47,120.76,229.61,121.12ZM415.86,324.48l-1.65-4.19c-52.54,2.18-105.25.35-157.9,9.28,9.07,4.09,18.43,7.45,27.8,7.47,19.73,0,39.48-1.49,59.19-2.81,2.72-.18,5.22-2.91,7.93-4.25,1.73-.85,4.11-2.34,5.42-1.77,16.17,7.05,33.12,1.14,49.6,3C409.17,331.5,412.64,326.84,415.86,324.48ZM650.44,154.83c-1.85,6-3.35,10.77-4.84,15.58,15.58-11.8,13.63-26.75,10.39-43.75-11.08,7.27-19.26,13.93-17,26.76ZM444.91,320.61H419.4C428.8,340.41,437.39,319.22,444.91,320.61Zm13.46,1.81c15.24,6,15.24,6,23.91,0Z"/>
    <path class="cls-1" d="M289.53,204c49.38-2,98.76-5.24,148.15-5.58,42.42-.28,84.88,2.59,127.3,4.52,7.33.33,14.48,3.56,21.84,4.42,27.71,3.25,36.28,27.75,30.91,51.08-.84,3.62-1.91,7.18-3,10.74-10.94,37-26,50.22-64.32,51.95-15.64.7-31.46-4.45-47.3-5.58-28.6-2-57.27-3.89-85.92-4.24-30.87-.37-61.78.57-92.63,1.92-23.38,1-46.7,3.48-70,5.48-19.64,1.69-25.32-2.37-30.31-21.71s-10.11-38.91-15.48-58.28c-5.72-20.66-3-26.69,17.33-30.21,20.91-3.62,42.09-5.62,63.16-8.34C289.35,201.41,289.44,202.69,289.53,204Z"/>
    <path class="cls-1" d="M207.51,308.45l-60.12-34.66L144,279c15.61,15.45,34.84,26.45,53.06,38.88-45.06-6.08-85.55-20.51-113.3-59.72,44.46-10.24,103.8,9.09,125.81,46.65Z"/>
    <path class="cls-1" d="M229.61,121.12c42.86-.36,82.05,5.29,111,39.75-20.94-5.12-39.18-18.62-64.11-22,9.12,16.15,25.92,14.89,35,24.78C277.06,169,233.38,147.35,229.61,121.12Z"/>
    <path class="cls-1" d="M415.86,324.48c-3.22,2.36-6.69,7-9.61,6.7-16.48-1.83-33.43,4.08-49.6-3-1.31-.57-3.69.92-5.42,1.77-2.71,1.34-5.21,4.07-7.93,4.25-19.71,1.32-39.46,2.86-59.19,2.81-9.37,0-18.73-3.38-27.8-7.47,52.65-8.93,105.36-7.1,157.9-9.28Z"/>
    <path class="cls-1" d="M650.44,154.83,639,153.42c-2.27-12.83,5.91-19.49,17-26.76,3.24,17,5.19,32-10.39,43.75C647.09,165.6,648.59,160.79,650.44,154.83Z"/>
    <path class="cls-1" d="M444.91,320.61c-7.52-1.39-16.11,19.8-25.51,0Z"/>
    <path class="cls-1" d="M458.37,322.42h23.91C473.61,328.46,473.61,328.46,458.37,322.42Z"/>
</svg>