<svg width="400" height="220" id="Layer_1" data-name="Layer 1" xmlns="http://www.w3.org/2000/svg" viewBox="0 0 818.96 460"><defs><style>.cls-1{fill:#fff;}</style></defs><path d="M772.83,360.78c-35.6,7.84-70.92,10.57-106.75,10.36-90-.51-180-.9-270.05-.48-98.56.46-197.12,1.93-295.68,2.84-10,.09-20-.63-29.95-1s-15.84-5.17-17.31-14C49.8,338.71,44.54,319,44,299.14c-1.44-53.59-.86-107.22-1-160.84a88.6,88.6,0,0,1,.92-11.6c3.09-23.86,5.05-25,30.83-28.06,127.36-14.83,255.14-12.34,383-8.44,68.53,2.09,137.1,3.12,205.64,5.09,22.79.66,45.55,2.62,68.29,4.29a57,57,0,0,1,14.5,3.24c14.16,5,23.62,12.73,23.91,28.32.61,32.94,3,65.86,3.93,98.8,1.11,40,1.53,80.05,2,120.08C776,353.64,773.9,357.29,772.83,360.78Zm-27.57-15.07c8.09-22.89,10.31-42.58,8.42-62.79-1.26-13.5-1.93-27.05-2.3-40.59-.94-34.19-1.45-68.38-2.35-102.57-.34-12.95-4.66-16.95-19.24-17.48-20-.73-40-.85-60-1.36-78.49-2-157-5.09-235.48-5.82-110.67-1-221.35-.38-332-.27-10.53,0-21.06,1.22-33.41,2,1.14,78.71-2.55,155.84,4.22,233.18,10.6,0,18.35.08,26.1,0,32.81-.37,65.62-.95,98.43-1.14,29.24-.17,58.5.44,87.74,0,60.68-.84,121.36-3.27,182-2.91,72.81.43,145.6,3.53,218.41,4.49C705.58,350.73,725.37,347.4,745.26,345.71Z"/><path class="cls-1" d="M745.26,345.71c-19.89,1.69-39.68,5-59.42,4.76-72.81-1-145.6-4.06-218.41-4.49-60.67-.36-121.35,2.07-182,2.91-29.24.4-58.5-.21-87.74,0-32.81.19-65.62.77-98.43,1.14-7.75.09-15.5,0-26.1,0-6.77-77.34-3.08-154.47-4.22-233.18,12.35-.77,22.88-2,33.41-2,110.68-.11,221.36-.76,332,.27,78.51.73,157,3.82,235.48,5.82,20,.51,40,.63,60,1.36,14.58.53,18.9,4.53,19.24,17.48.9,34.19,1.41,68.38,2.35,102.57.37,13.54,1,27.09,2.3,40.59C755.57,303.13,753.35,322.82,745.26,345.71Z"/></svg>