<svg width="400" height="220" id="Layer_1" data-name="Layer 1"
    xmlns="http://www.w3.org/2000/svg" viewBox="0 0 818.96 520.08">
    <defs>
        <style>.cls-1{fill:#fff;}</style>
    </defs>
    <path d="M204.17,268.92c.4-3,1-6,1.19-9,1.35-16.75,7.32-43.55,21.27-54.22,10.15-7.76,18.33-23,28.48-30.77,12.22-9.35,25.95-13.79,41.51-6.82,4.75,2.13,10.42,2.29,15.71,3.06,26,3.74,51.89,9,78,10.67,32.41,2.09,65,1.68,97.54,1.44,29.06-.21,58.13,3.56,87.17,2.28,16.91-.75,20.21,13.87,24.27,30,2.06,8.2,3.86,16.46,8.12,24.93.39-3.91,1.28-7.86,1.09-11.74-.85-17-2.47-34.22,7.91-49.25,15.35-22.22,32.11-43.12,57.66-54.66,9.77-4.42,13.22-2.74,14,7.84a66.74,66.74,0,0,1-1.46,17.22c-5.77,30.23-14.25,59.21-38.21,81-5.61,5.1-10,11.58-15.88,16.31C610,265.43,604.88,289.61,608,319c4.8-4.07,8.88-7.18,12.55-10.72a202.83,202.83,0,0,1,49.11-34.7c21.48-11,43.44-12.82,66.57-9.07,4.78.77,9.64,1,17.1,1.76-2.58,4.48-3.72,8.18-6.18,10.43-12.59,11.43-25.27,22.78-38.39,33.59-11.1,9.15-24.62,12.56-38.72,13.64-6.71.52-13.45.62-20.17.92-21.25,1-41.18,4.58-59,18.4-6.41,5-17.86,5.35-26.83,4.83-46-2.67-91.84-7.61-137.84-9.31-63.43-2.35-126.95-2.52-190.43-3.61-.89,0-1.79,0-2.69,0-25.82-.61-36.74-8.59-44-33.64-2.59-8.93-3.66-18.37-4.7-27.65C183.6,267,181,264,173.69,262.92c-26.45-3.76-53.25-32.44-57.57-59-2-12.18,10.35-25.36,21.67-25.22,20.48.27,39.05,11.67,45.77,31.21,4.63,13.47,6.81,27.76,10.49,41.58,1.65,6.21,4.28,12.17,6.48,18.24Zm370.74,61.92c6.08-3.09,10-7.27,5.49-15.55q-2.62,7.9-5.24,15.82c-10.87-5.9-10.87-5.9-19.67,1Zm-358.32-22c12.27,2.55,24.74,6.71,37.41,7.45,32.59,1.89,65.26,2.19,97.9,3.26,43.37,1.41,86.79,2.1,130.08,4.78,24.15,1.49,47.63,5.72,70.94-5.91,21-10.49,47.18-34.32,39.9-66.82-2.23-10-5.53-32.65-9.63-42-1.25-2.86-7.61-9-11.22-9.07-65.36-1.11-129.89-3.95-195.25-3.59-35.77.19-71.53,3.59-107.28,5.85-11.56.73-21.28,10.39-29.45,19.14C220.69,242.58,213.7,279.7,216.59,308.82ZM638.69,183.3l6.17,3-17.34,41.92c29.84-21.82,50.19-62.77,46.68-91.27-27.94,14.84-57.75,56.43-54.27,77.19Zm-509.52,9.36c3.34,24.28,21.51,48.23,40.16,52.41-4.23-6.06-8.41-11.25-11.59-17-1.23-2.22-.2-5.68-.2-8.58,3.17.48,7.1,0,9.35,1.67,3.86,2.92,6.67,7.22,10.89,12.06C176,200.71,152.12,185,129.17,192.66Zm527.18,115.9c32.85,4.26,50.8-15.27,72.33-33.75-28.65-3.24-50.15,7.31-72.52,21,8.88,1.12,15.65-8.24,25.22.12ZM301.88,185.63c-20.65-11.41-32.28-9.77-44.09,6.09C271.77,184.29,286.24,180.87,301.88,185.63Z"/>
    <path class="cls-1" d="M216.59,308.82c-2.89-29.12,4.1-66.24,23.4-86.91,8.17-8.75,17.89-18.41,29.45-19.14,35.75-2.26,71.51-5.66,107.28-5.85,65.36-.36,130.73,6.09,196.1,7.2,3.61.07,9.12,2.6,10.37,5.46,4.1,9.35,7.4,32,9.63,42,7.28,32.5-18.89,56.33-39.9,66.82-23.31,11.63-46.79,7.4-70.94,5.91-43.29-2.68-86.71-3.37-130.08-4.78-32.64-1.07-65.31-1.37-97.9-3.26C241.33,315.53,228.86,311.37,216.59,308.82Z"/>
    <path class="cls-1" d="M638.69,183.3l-18.76,30.88c-3.48-20.76,26.33-62.35,54.27-77.19,3.51,28.5-16.84,69.45-46.68,91.27l17.34-41.92Z"/>
    <path class="cls-1" d="M129.17,192.66c23-7.71,46.83,8.05,48.61,40.56-4.22-4.84-7-9.14-10.89-12.06-2.25-1.7-6.18-1.19-9.35-1.67,0,2.9-1,6.36.2,8.58,3.18,5.75,7.36,10.94,11.59,17C150.68,240.89,132.51,216.94,129.17,192.66Z"/>
    <path class="cls-1" d="M656.35,308.56l25-12.62c-9.57-8.36-16.34,1-25.22-.12,22.37-13.7,43.87-24.25,72.52-21C707.15,293.29,689.2,312.82,656.35,308.56Z"/>
    <path class="cls-1" d="M301.88,185.63c-15.64-4.76-30.11-1.34-44.09,6.09C269.6,175.86,281.23,174.22,301.88,185.63Z"/>
    <path class="cls-1" d="M575.16,331.11q2.61-7.92,5.24-15.82c4.5,8.28.59,12.46-5.49,15.55Z"/>
    <path class="cls-1" d="M574.91,330.84l-19.42,1.26c8.8-6.89,8.8-6.89,19.67-1Z"/>
</svg>