<svg width="400" height="220" id="Layer_1" data-name="Layer 1"
    xmlns="http://www.w3.org/2000/svg" viewBox="0 0 818.96 520.08">
    <defs>
        <style>.cls-1{fill:#fff;}</style>
    </defs>
    <path d="M800.94,340.25c-32.84,18.76-64.9,28-100.63,21.31-22.91-4.31-43.21-14.16-62.88-26.22a76.27,76.27,0,0,0-25.36-9.66c-4.9-.92-10.84,2.51-16,4.63-7.42,3-14.31,8.58-21.92,9.66-79.71,11.37-159.36,15.75-238.95,5-11-1.49-22.24-1.41-33.34-1.16-20.45.46-40.87,1.81-61.32,2.31a63.41,63.41,0,0,1-17.31-2.22c-27.25-7.12-31.07-11.44-28.89-39.31,2.11-27,5.68-60.9,9.45-87.73,2.1-14.88,11.92-23.06,29.8-25.18,16.33-1.93,32.83-2.43,49.25-3.58a59.81,59.81,0,0,0,12.9-2c-15.42-7-20.81-21.72-28.45-34.57-7.21-12.15-15.68-22.18-32.5-22.56,6.67-12.55,17.5-17.12,27.89-21.58,36.67-15.73,53.62-6.44,60.82,32.59a131.24,131.24,0,0,0,7.39,26.85c13.18-50.91,51.31-65.19,99.85-71.38-22.42,30.76-25.25,70.09-61,88.85l1.72,2.43c4.61.2,9.23.55,13.84.6,45.31.51,90.62,1.36,135.92,1.24a354.14,354.14,0,0,0,49.41-3.95c27.64-4,42.95,10.76,40.9,38.93-1.28,17.61-.24,35.4-.24,56,3.6-4.75,5.79-7.12,7.38-9.84,12.72-21.77,32.2-34.45,55.68-42,28-9.06,56.86-13.14,86.18-14.3,1.33-.05,2.69.88,5,1.67-5.42,37.75-29.33,60.53-65.13,78.14C737.11,305.55,762.75,332.48,800.94,340.25ZM578.08,321c7.68-18,9.17-35.05,7.35-52.73-1.5-14.46-2.38-29-2.58-43.56-.24-17.48-1.1-18.64-19-18.88q-93.36-1.25-186.7-2.66c-36-.48-71.95-1.23-107.91-.89-8.25.08-19.12,1.65-24.15,6.94-12.38,13-22.37,29.19-23.62,47.47-1.8,26.49,3.6,51.06,28.48,54.35,23.52,3.11,46.54,3.84,69.88,8.49,16.14,3.21,32.41-1.43,48.7-1,61.27,1.59,122.57,1.78,183.86,2.47C561.05,321.09,569.72,321,578.08,321Zm54.71-45.06c54-26.63,69.21-30.38,83.83-19.06-23,10.36-47.93,14.38-70.13,31.32,42.55-1.38,85.31-27.78,99-58.9C704.9,223.41,644.65,247.54,632.79,275.94Zm22.62,28.91c-.25,1-.5,2.1-.74,3.15,10.28,3.89,20.7,7.45,30.79,11.78,9.5,4.09,22.07,5.09,24,22.64l-53.73-18.14C683,348.5,740.57,356.56,763,341,728.94,323.07,696.85,299.8,655.41,304.85ZM351.87,174.58c30.46-9.34,41.34-34.83,50.6-62.32-26.55,2.87-57.88,31.68-58.86,54l18.2-11.47,2.66,3.15Zm-92.25-54,26.75,31.16c2.27-3.87,4.6-10.54,6.43-10.41,5.29.38,10.39,3.5,15.56,5.53C307.1,111.65,287.92,105,259.62,120.58Zm20.8,213q.22-3.13.46-6.29c-6.78-.45-13.55-.93-20.33-1.35-4.32-.26-8.7-.11-13-.74-2.21-.32-5.31-3.36-6.18-2.72-8.93,6.61-11.53-1.63-15.8-6.17-.43-.46-1.66-.17-1.9-.18-1.32,2.86-2.54,5.53-5.23,11.35l-9.19-24.08c-5.54,17.47-4.27,18,9.32,24.65C239.17,338,260,329.62,280.42,333.58Z"/>
    <path class="cls-1" d="M578.08,321c-8.36,0-17,.09-25.7,0-61.29-.69-122.59-.88-183.86-2.47-16.29-.42-32.56,2.22-48.7-1-23.34-4.65-46.36-11.38-69.88-14.49-24.88-3.29-30.28-19.86-28.48-46.35,1.25-18.28,11.24-34.46,23.62-47.47,5-5.29,15.9-6.86,24.15-6.94,36-.34,71.94.41,107.91.89q93.35,1.28,186.7,2.66c17.91.24,18.77,1.4,19,18.88.2,14.53,1.08,29.1,2.58,43.56C587.25,286,585.76,303,578.08,321Z"/>
    <path class="cls-1" d="M632.79,275.94c11.86-28.4,72.11-52.53,112.67-46.64-13.66,31.12-56.42,57.52-99,58.9,22.2-16.94,47.18-21,70.13-31.32C702,245.56,686.79,249.31,632.79,275.94Z"/>
    <path class="cls-1" d="M655.41,304.85C696.85,299.8,728.94,323.07,763,341c-22.44,15.55-80,7.49-107.27-16.73l53.73,18.14c-1.94-17.55-14.51-18.55-24-22.64-10.09-4.33-20.51-7.89-30.79-11.78C654.91,307,655.16,305.9,655.41,304.85Z"/>
    <path class="cls-1" d="M351.87,174.58l12.6-16.66-2.66-3.15-18.2,11.47c1-22.3,32.31-51.11,58.86-54C393.21,139.75,382.33,165.24,351.87,174.58Z"/>
    <path class="cls-1" d="M259.62,120.58c28.3-15.59,47.48-8.93,48.74,26.29-5.17-2-10.27-5.16-15.56-5.54-1.83-.13-4.16,6.54-6.43,10.41Z"/>
    <path class="cls-1" d="M280.42,333.58c-20.46-4-41.25,4.46-61.82-5.53-13.59-6.61-14.86-7.18-9.32-24.65l9.19,24.08c2.69-5.82,3.91-8.49,5.23-11.35.24,0,1.47-.28,1.9.18,4.27,4.54,6.87,12.78,15.8,6.17.87-.64,4,2.4,6.18,2.72,4.27.63,8.65.48,13,.74,6.78.42,13.55.9,20.33,1.35Q280.64,330.44,280.42,333.58Z"/>
</svg>