<svg width="400" height="220" id="Layer_1" data-name="Layer 1" xmlns="http://www.w3.org/2000/svg" viewBox="0 0 818.96 460"><defs><style>.cls-1{fill:#fff;}</style></defs><path d="M51,367.2c-1.32-9.74-3.58-18.75-3.62-27.76-.28-76.5-.16-153-.16-230.47,16.89-8.77,36.27-7.66,54.45-8.75,84.33-5,168.72-10,253.17-12.55C406,86.13,457.4,88.84,508.7,90q75.9,1.75,151.78,4.38Q703.79,95.92,747,99c18.62,1.28,25.06,7.53,24.77,23.27-1.37,75.22-2.77,150.44-4.68,225.65-.54,21.3-3.87,24-28.28,24.67-28.19.77-56.43,1.35-84.61.63C570.4,371,486.6,367.1,402.76,366c-66.5-.88-133,1.49-199.58,2.22-47.74.52-95.49.72-143.23,1C57.9,369.21,55.84,368.32,51,367.2Zm697.82-249C701,116.7,657.71,115.57,614.44,114c-66.44-2.35-132.92-7.73-199.3-6.85C305.35,108.63,195.62,114,85.87,117.87c-5.53.2-11,1.83-17.39,3,.77,76.76-1.93,152.29,2.2,230.07,113.17-1.3,224.36-4,335.52-3.42,111.67.62,223.32,4.62,336,7.16,1.38-30.17,2.45-57.58,4-85,1.19-21.51,3-43,4.37-64.49.71-11.08,1.76-22.2,1.44-33.27C751.49,154.46,750,137,748.77,118.15Z"/><path class="cls-1" d="M748.77,118.15C750,137,751.49,154.46,752,171.91c.32,11.07-.73,22.19-1.44,33.27-1.37,21.5-3.18,43-4.37,64.49-1.51,27.39-2.58,54.8-4,85-112.71-2.54-224.36-6.54-336-7.16C295,346.85,183.85,349.6,70.68,350.9c-4.13-77.78-1.43-153.31-2.2-230.07,6.4-1.13,11.86-2.76,17.39-3,109.75-3.87,219.48-9.24,329.27-10.69,66.38-.88,132.86,4.5,199.3,6.85C657.71,115.57,701,116.7,748.77,118.15Z"/></svg>