<svg id="Layer_1" data-name="Layer 1" xmlns="http://www.w3.org/2000/svg" xmlns:xlink="http://www.w3.org/1999/xlink" viewBox="0 0 250 250"><defs><style>.cls-1{fill:none;}.cls-2{clip-path:url(#clip-path);}.cls-3{fill:#fff;}.cls-4{fill:#2b2422;}.cls-5{fill:#dc0d18;}</style><clipPath id="clip-path"><rect id="SVGID" class="cls-1" x="2.83" y="44.63" width="244.17" height="161.41"/></clipPath></defs><g class="cls-2"><g class="cls-2"><path class="cls-3" d="M76.4,53.26a72.08,72.08,0,1,0,0,144.15h97.07a72.08,72.08,0,1,0,0-144.15Z"/><path class="cls-4" d="M173.47,198.88H76.4a73.55,73.55,0,1,1,0-147.09h97.07a73.55,73.55,0,0,1,0,147.09M76.4,53.26a72.08,72.08,0,1,0,0,144.15h97.07a72.08,72.08,0,1,0,0-144.15Z"/><path class="cls-5" d="M190.44,120.93l32.29,38.39a59.73,59.73,0,0,0-1.15-69.57Z"/><path class="cls-5" d="M99,86.51c24.11,0,42.27,6.13,44.14,26.44L168.48,86.5H219a59.77,59.77,0,0,0-45.53-21H76.4a59.76,59.76,0,0,0-45.54,21Z"/><path class="cls-5" d="M59.25,112.11l-8.61,23.67H85.37c10.27,0,13.38-4.25,15.68-12.43s-3.44-11.24-10.46-11.24Z"/><path class="cls-5" d="M168.69,162.55l-26.83-33.91c-5,23.12-21.21,33.91-51.65,33.91H29.53A59.82,59.82,0,0,0,76.4,185.2h97.07a59.8,59.8,0,0,0,46.86-22.65Z"/></g></g></svg>