<svg id="Layer_1" data-name="Layer 1" xmlns="http://www.w3.org/2000/svg" viewBox="0 0 250 250"><defs><style>.cls-1{fill:none;}.cls-2{fill:#231f20;}.cls-3{fill:#ff5f00;}.cls-4{fill:#eb001b;}.cls-5{fill:#f79e1b;}</style></defs><g id="Layer_2" data-name="Layer 2"><g id="Layer_1-2" data-name="Layer 1-2"><rect class="cls-1" x="-0.19" y="23.09" width="250.19" height="205.21"/><path class="cls-2" d="M61.76,202.48V192.26a6.07,6.07,0,0,0-5.63-6.47,6.77,6.77,0,0,0-.78,0,6.29,6.29,0,0,0-5.72,2.9,6,6,0,0,0-5.39-2.9,5.41,5.41,0,0,0-4.77,2.42v-2H35.92v16.29H39.5v-9a3.83,3.83,0,0,1,3.27-4.3,4.34,4.34,0,0,1,.72,0c2.35,0,3.55,1.53,3.55,4.3v9.06h3.57v-9a3.85,3.85,0,0,1,4-4.33c2.42,0,3.58,1.53,3.58,4.3v9.06Zm53-16.29h-5.83v-4.94h-3.57v4.94h-3.24v3.24h3.3v7.5c0,3.78,1.47,6,5.66,6a8.26,8.26,0,0,0,4.43-1.26l-1-3a6.66,6.66,0,0,1-3.14.92c-1.7,0-2.35-1.09-2.35-2.73v-7.43h5.8Zm30.24-.41a4.83,4.83,0,0,0-4.3,2.39v-2h-3.51v16.29h3.55v-9.13c0-2.69,1.16-4.19,3.41-4.19a5.78,5.78,0,0,1,2.21.41l1.09-3.41a7.73,7.73,0,0,0-2.52-.45Zm-45.71,1.71a12.16,12.16,0,0,0-6.65-1.71c-4.12,0-6.82,2-6.82,5.22,0,2.66,2,4.29,5.63,4.8l1.7.24c2,.27,2.87.79,2.87,1.71,0,1.26-1.3,2-3.72,2a8.64,8.64,0,0,1-5.42-1.7l-1.7,2.76a11.73,11.73,0,0,0,7.05,2.11c4.71,0,7.43-2.21,7.43-5.31s-2.14-4.37-5.69-4.88l-1.7-.24c-1.54-.2-2.76-.51-2.76-1.6s1.15-1.91,3.1-1.91a10.46,10.46,0,0,1,5.11,1.4Zm94.94-1.71a4.82,4.82,0,0,0-4.29,2.39v-2h-3.51v16.29h3.54v-9.13c0-2.69,1.16-4.19,3.41-4.19a5.83,5.83,0,0,1,2.22.41l1.09-3.41a7.73,7.73,0,0,0-2.52-.45Zm-45.67,8.52a8.22,8.22,0,0,0,7.92,8.53h.77a8.54,8.54,0,0,0,5.86-2l-1.7-2.86a7.14,7.14,0,0,1-4.26,1.46,5.23,5.23,0,0,1,0-10.43,7.22,7.22,0,0,1,4.26,1.47l1.7-2.86a8.54,8.54,0,0,0-5.86-1.95,8.23,8.23,0,0,0-8.68,7.76,6.57,6.57,0,0,0,0,.77Zm33.2,0v-8.11h-3.55v2a6.19,6.19,0,0,0-5.11-2.39,8.53,8.53,0,0,0,0,17.05,6.19,6.19,0,0,0,5.11-2.39v2h3.55Zm-13.19,0a4.9,4.9,0,1,1,0,.39C168.51,194.56,168.51,194.43,168.52,194.3Zm-42.78-8.52a8.53,8.53,0,0,0,.24,17.05h0a9.93,9.93,0,0,0,6.76-2.22L131,198a7.84,7.84,0,0,1-4.74,1.7,4.52,4.52,0,0,1-4.87-4h12.1v-1.36c0-5.11-3.17-8.52-7.74-8.52Zm0,3.17a4,4,0,0,1,4.12,4h-8.52a4.19,4.19,0,0,1,4.33-4Zm88.81,5.39V179.65h-3.41v8.52a6.19,6.19,0,0,0-5.11-2.39,8.53,8.53,0,0,0,0,17.05,6.19,6.19,0,0,0,5.11-2.39v2h3.41Zm5.91,5.78a1.56,1.56,0,0,1,.65.11,1.58,1.58,0,0,1,.53.35,1.68,1.68,0,0,1,.36.51,1.62,1.62,0,0,1,0,1.26,1.82,1.82,0,0,1-.36.51,1.72,1.72,0,0,1-.53.34,1.58,1.58,0,0,1-.65.14,1.72,1.72,0,0,1-1.53-1,1.62,1.62,0,0,1,0-1.26,1.68,1.68,0,0,1,.36-.51,1.58,1.58,0,0,1,.53-.35,1.84,1.84,0,0,1,.7-.11Zm0,2.88a1.25,1.25,0,0,0,.5-.11,1.05,1.05,0,0,0,.39-.27,1.26,1.26,0,0,0,0-1.7,1.21,1.21,0,0,0-.39-.28,1.44,1.44,0,0,0-.5-.1,1.38,1.38,0,0,0-.49.1,1.42,1.42,0,0,0-.41.28,1.26,1.26,0,0,0,0,1.7,1.22,1.22,0,0,0,.41.27,1.29,1.29,0,0,0,.55.11Zm.11-2a.69.69,0,0,1,.44.13.41.41,0,0,1,.15.36.36.36,0,0,1-.12.31.56.56,0,0,1-.35.15l.49.56h-.39l-.46-.56h-.16v.56h-.32V201Zm-.38.29v.41h.38a.34.34,0,0,0,.2,0,.15.15,0,0,0,0-.16.14.14,0,0,0,0-.15.34.34,0,0,0-.2,0Zm-18.75-6.92a4.89,4.89,0,1,1,0,.38C201.43,194.6,201.44,194.47,201.44,194.34Zm-119.69,0v-8.15H78.21v2a6.21,6.21,0,0,0-5.12-2.39,8.53,8.53,0,0,0,0,17.05,6.21,6.21,0,0,0,5.12-2.39v2h3.54Zm-13.19,0a4.58,4.58,0,1,1,0,.42,3,3,0,0,1,0-.42Z"/><g id="_Group_" data-name=" Group "><rect class="cls-3" x="98.06" y="62.03" width="53.69" height="96.48"/><path id="_Path_" data-name=" Path " class="cls-4" d="M101.47,110.28A61.26,61.26,0,0,1,124.9,62a61.35,61.35,0,1,0,0,96.48A61.27,61.27,0,0,1,101.47,110.28Z"/><path class="cls-5" d="M224.18,110.28a61.35,61.35,0,0,1-99.28,48.23,61.35,61.35,0,0,0,0-96.48,61.36,61.36,0,0,1,99.28,48.24Z"/><path class="cls-5" d="M218.32,148.29v-2h.8v-.41h-2v.41H218v2Zm3.93,0V145.9h-.61l-.72,1.71-.71-1.71h-.55v2.39h.45V146.5l.66,1.55h.46l.67-1.55v1.8Z"/></g></g></g></svg>