<svg id="Layer_1" data-name="Layer 1" xmlns="http://www.w3.org/2000/svg" xmlns:xlink="http://www.w3.org/1999/xlink" viewBox="0 0 250 250"><defs><style>.cls-1{fill:#5a78ff;}.cls-2,.cls-3,.cls-6{opacity:0.7;}.cls-2,.cls-3,.cls-5,.cls-6{isolation:isolate;}.cls-2{fill:url(#linear-gradient);}.cls-3{fill:url(#linear-gradient-2);}.cls-4{opacity:0.4;}.cls-5{opacity:0.9;fill:url(#linear-gradient-3);}.cls-6{fill:url(#linear-gradient-4);}</style><linearGradient id="linear-gradient" x1="-760.97" y1="1900.6" x2="-760.88" y2="1902.52" gradientTransform="matrix(3.14, 0, 0, -20.82, 2521.88, 39673.49)" gradientUnits="userSpaceOnUse"><stop offset="0" stop-color="#504678"/><stop offset="0.3" stop-color="#504678" stop-opacity="0.62"/><stop offset="0.61" stop-color="#504678" stop-opacity="0.28"/><stop offset="0.85" stop-color="#504678" stop-opacity="0.08"/><stop offset="1" stop-color="#504678" stop-opacity="0"/></linearGradient><linearGradient id="linear-gradient-2" x1="-1710.09" y1="1884.68" x2="-1710" y2="1886.61" gradientTransform="matrix(-3.14, 0, 0, 23.57, -5207.07, -44304.8)" xlink:href="#linear-gradient"/><linearGradient id="linear-gradient-3" x1="-1203.79" y1="1913.16" x2="-1202.69" y2="1913.79" gradientTransform="matrix(40.15, 0, 0, -33.83, 48449.01, 64843.5)" gradientUnits="userSpaceOnUse"><stop offset="0" stop-color="#504678"/><stop offset="0.18" stop-color="#504678" stop-opacity="0.87"/><stop offset="0.53" stop-color="#504678" stop-opacity="0.54"/><stop offset="1" stop-color="#504678" stop-opacity="0"/></linearGradient><linearGradient id="linear-gradient-4" x1="-1202.93" y1="1913.95" x2="-1202.99" y2="1914.37" gradientTransform="matrix(40.15, 0, 0, -33.83, 48449.01, 64843.5)" gradientUnits="userSpaceOnUse"><stop offset="0" stop-color="#504678"/><stop offset="0.64" stop-color="#504678" stop-opacity="0.33"/><stop offset="1" stop-color="#504678" stop-opacity="0"/></linearGradient></defs><path class="cls-1" d="M109.15,212.7a14.71,14.71,0,0,1-13.58-9.07L44.88,81.27a14.69,14.69,0,0,1,7.94-19.18l53.1-22A14.67,14.67,0,0,1,125.09,48l50.69,122.38a14.67,14.67,0,0,1-7.95,19.16l-53.09,22A14.49,14.49,0,0,1,109.15,212.7Zm2.38-165.82a6.77,6.77,0,0,0-2.59.52l-53.09,22a6.77,6.77,0,0,0-3.67,8.85l50.69,122.38a6.78,6.78,0,0,0,8.85,3.66l53.09-22h0a6.77,6.77,0,0,0,3.67-8.85L117.79,51.07A6.79,6.79,0,0,0,111.53,46.88Z"/><rect class="cls-2" x="130.87" y="55.63" width="7.9" height="52.45" transform="translate(-21.06 57.82) rotate(-22.5)"/><rect class="cls-3" x="153.44" y="106.68" width="7.9" height="59.37" transform="translate(-40.2 70.61) rotate(-22.5)"/><path class="cls-1" d="M155.89,129c-15.19,6.29-27.87,15-36.17,25.43L98.32,102.7a90.27,90.27,0,0,1,36.16-25.44C149.67,71,165,67.91,178,69.69l21.41,51.69A90.18,90.18,0,0,0,155.89,129Z"/><g class="cls-4"><path class="cls-5" d="M155.89,129c-15.19,6.29-27.87,15-36.17,25.43L98.32,102.7a90.27,90.27,0,0,1,36.16-25.44C149.67,71,165,67.91,178,69.69l21.41,51.69A90.18,90.18,0,0,0,155.89,129Z"/><path class="cls-6" d="M155.89,129c-15.19,6.29-27.87,15-36.17,25.43L98.32,102.7a90.27,90.27,0,0,1,36.16-25.44C149.67,71,165,67.91,178,69.69l21.41,51.69A90.18,90.18,0,0,0,155.89,129Z"/></g><path class="cls-1" d="M162.86,144.71c-16.43,0-31.48,3.17-43.14,9.65V102.1a90.4,90.4,0,0,1,43.14-9.66c16.44,0,31.78,3,43.14,9.67v52.27A90.3,90.3,0,0,0,162.86,144.71Z"/></svg>