<svg id="Layer_1" data-name="Layer 1" xmlns="http://www.w3.org/2000/svg" viewBox="0 0 250 250"><defs><style>.cls-1{fill:#fff;}.cls-2{fill:#fab400;}.cls-3{fill:#1c2f76;}</style></defs><polygon class="cls-1" points="250 203.77 4 203.77 4 47.5 250 47.5 250 203.77 250 203.77"/><polygon class="cls-2" points="8.1 178.38 245.9 178.38 245.9 199.69 8.1 199.69 8.1 178.38 8.1 178.38"/><polygon class="cls-3" points="8.1 72.92 245.9 72.92 245.9 51.6 8.1 51.6 8.1 72.92 8.1 72.92"/><path class="cls-3" d="M125,96.41,112.41,155H97.25l12.54-58.6Zm63.78,37.84,8-22,4.59,22ZM205.65,155h14l-12.25-58.6H194.49A6.91,6.91,0,0,0,188,100.7L165.28,155h15.93l3.16-8.75h19.44l1.84,8.75Zm-39.58-19.13c.07-15.47-21.38-16.33-21.23-23.24,0-2.1,2-4.33,6.43-4.9a28.59,28.59,0,0,1,14.95,2.62l2.65-12.43a40.8,40.8,0,0,0-14.18-2.59c-15,0-25.53,8-25.61,19.37-.1,8.43,7.53,13.14,13.26,16,5.92,2.87,7.9,4.71,7.87,7.28,0,3.93-4.72,5.67-9.07,5.74A31.62,31.62,0,0,1,125.57,140l-2.75,12.85c3.55,1.62,10.09,3,16.85,3.11,15.94,0,26.36-7.87,26.4-20.05M103.28,96.41,78.72,155h-16L50.61,108.24c-.74-2.87-1.38-3.93-3.6-5.15-3.65-2-9.67-3.83-15-5l.36-1.7h25.8a7.06,7.06,0,0,1,7,6l6.39,33.91L87.36,96.41Z"/></svg>