<svg width="1000" height="1000" viewBox="0 0 1000 1000" fill="none" xmlns="http://www.w3.org/2000/svg">
<path d="M626.299 147.199C621.821 148.154 617.97 151.587 616.507 155.976C615.85 158.006 615.492 161.349 615.731 163.379C615.85 164.334 615.85 165.111 615.731 165.111C615.582 165.111 614.716 164.902 613.76 164.663C610.357 163.767 606.297 164.305 602.387 166.185C599.491 167.559 596.028 170.932 594.774 173.559C591.192 181.022 593.64 191.292 600.715 198.367C605.402 203.024 612.089 206.098 620.418 207.412L623.433 207.86L621.224 211.651C607.491 234.877 589.819 254.669 559.19 281.089C545.398 292.97 536.8 301.21 532.531 306.493C525.993 314.673 518.291 327.51 514.47 336.645C512.828 340.526 510.679 346.795 510.679 347.631C510.679 347.899 510.171 348.228 509.425 348.407C508.708 348.586 507.873 348.825 507.544 348.914C506.38 349.243 504.231 350.317 502.529 351.452C495.752 355.9 491.454 362.199 484.02 378.558C481.065 385.096 478.438 390.35 476.438 393.634C470.736 403.008 463.452 409.426 454.496 412.889C445.032 416.561 433.509 415.874 423.24 411.068C412.553 406.082 406.791 399.157 406.761 391.365C406.761 388.768 406.94 388.201 407.925 387.872C408.97 387.544 410.493 387.842 415.09 389.305C424.135 392.171 431.867 392.589 441.331 390.768C449.928 389.126 459.571 384.499 466.497 378.707C475.811 370.916 482.945 358.228 485.722 344.496C486.14 342.496 486.498 340.854 486.558 340.824C486.617 340.794 487.513 340.376 488.588 339.929C493.066 338.048 496.529 335.391 497.932 332.764C498.409 331.838 498.588 331.032 498.588 329.301C498.588 327.331 498.469 326.823 497.603 325.151C496.648 323.301 493.603 319.211 489.453 314.195C486.886 311.091 486.199 309.986 486.199 308.792C486.199 307.24 487.573 303.299 490.439 296.612C494.588 287.029 495.782 282.94 496.648 275.715C497.066 272.252 497.066 263.685 496.648 260.042C494.767 243.773 487.871 228.07 477.214 215.741C464.407 200.874 445.63 191.56 421.568 188.127C414.314 187.082 409.567 186.784 400.671 186.814C385.924 186.814 375.953 187.888 365.445 190.635C347.085 195.411 329.592 205.352 317.471 217.89C311.322 224.279 306.814 230.757 302.515 239.444C297.649 249.266 294.962 257.923 293.47 268.7C292.723 274.014 292.723 286.432 293.44 292.134C295.53 308.434 300.843 324.554 311.352 346.317C317.322 358.766 319.382 364.736 320.636 373.483C321.203 377.424 321.711 387.395 321.711 394.977C321.711 413.605 323.711 428.144 328.577 445.279C343.264 496.895 379.804 542.42 425.449 565.914C447.48 577.258 470.437 582.632 490.976 581.288C509.873 580.035 528.172 574.96 545.457 566.183C575.997 550.659 593.55 526.658 598.715 493.312C600.207 483.73 600.924 469.788 600.267 463.191C599.7 457.519 597.998 450.533 596.386 447.19L595.819 446.025H596.446C596.804 446.025 598.058 446.175 599.192 446.354C602.297 446.802 611.73 446.742 616.746 446.175C619.164 445.936 624.418 445.249 628.388 444.682C640.509 442.98 641.524 442.891 649.345 442.891C658.45 442.891 660.659 443.279 669.466 446.264C675.287 448.264 675.347 448.264 678.601 448.264C681.616 448.264 682.034 448.205 683.676 447.399C686.124 446.205 688.482 443.727 690.034 440.712C690.751 439.368 692.572 434.562 694.094 429.994C695.617 425.427 697.527 420.143 698.304 418.262C701.468 410.62 702.573 406.56 702.841 401.694C703.349 392.171 698.811 384.887 691.139 382.887C687.855 382.051 684.064 382.499 681.735 384.051C679.556 385.484 678.481 387.006 675.854 392.29C673.556 396.977 673.078 397.724 671.287 399.515C668.63 402.112 664.898 403.993 660.689 404.858C658.241 405.366 657.047 405.455 653.972 405.336C647.255 405.038 642.807 403.545 629.493 397.067C616.985 390.977 608.954 387.604 598.595 384.051C589.042 380.767 578.504 377.931 570.802 376.558C566.503 375.812 565.399 375.752 559.19 375.752C553.189 375.752 551.935 375.841 549.219 376.409C542.532 377.871 538.233 380.17 533.815 384.648C529.456 389.036 527.337 393.067 525.336 400.649C522.829 410.172 520.56 425.845 519.873 438.622L519.515 445.1L518.62 445.458C516.56 446.264 513.634 448.563 510.529 451.757C508.738 453.608 505.932 456.534 504.26 458.205C491.722 471.132 472.796 479.938 453.123 482.028C447.749 482.625 437.211 482.446 432.464 481.7C409.388 478.117 388.163 465.967 374.072 448.235C370.968 444.354 365.594 436.144 365.594 435.308C365.594 434.86 364.49 434.084 363.893 434.084C363.236 434.084 362.31 434.95 362.31 435.607C362.34 436.801 367.117 444.384 371.147 449.608C374.192 453.548 382.192 461.698 385.834 464.534C394.163 471.012 402.164 475.699 410.821 479.102C437.659 489.64 466.467 487.312 490.976 472.654C497.812 468.564 501.066 465.878 509.037 457.817C515.395 451.399 518.411 448.712 519.276 448.712C519.426 448.712 519.545 451.309 519.575 454.444C519.754 471.281 521.277 479.162 525.456 484.864C531.277 492.745 543.547 493.641 548.771 486.566C550.353 484.386 550.98 482.506 551.189 479.102C551.607 472.833 549.159 465.43 544.293 458.116C538.531 449.518 531.397 444.533 524.799 444.533C523.814 444.533 522.948 444.473 522.889 444.413C522.829 444.354 522.859 442.145 522.978 439.547C523.635 425.039 526.65 406.112 529.695 397.216C532.68 388.529 537.934 383.155 546.054 380.499C558.264 376.528 575.638 379.006 601.431 388.41C610.865 391.843 617.044 394.499 629.254 400.47C641.792 406.53 646.688 408.083 654.301 408.321C657.973 408.441 659.465 408.381 661.465 407.993C668.958 406.47 674.541 402.381 677.437 396.231C678.183 394.649 679.228 392.47 679.735 391.425C681.556 387.544 684.064 385.693 687.557 385.663C693.079 385.633 697.617 389.454 699.199 395.485C699.737 397.515 699.826 402.231 699.348 404.888C698.841 407.844 697.647 411.456 695.557 416.62C694.482 419.247 692.423 424.89 690.99 429.188C687.258 440.234 685.855 442.742 682.392 444.443C680.989 445.13 680.302 445.279 678.451 445.279C676.481 445.249 675.496 445.01 670.391 443.249C663.495 440.891 660.391 440.204 654.569 439.756C648.211 439.249 643.046 439.637 628.299 441.697C614.984 443.548 612.716 443.727 605.82 443.548C599.759 443.398 598.446 443.249 593.49 442.085C590.505 441.398 589.968 441.458 589.43 442.592C589.102 443.309 589.192 443.458 590.923 445.07C593.55 447.518 594.774 450.503 596.565 458.982C597.192 461.967 597.401 473.938 596.983 480.237C595.043 507.94 587.102 527.524 571.34 543.465C558.175 556.779 541.218 566.541 520.47 572.721C492.26 581.139 467.691 579.945 439.808 568.87C406.522 555.675 375.893 529.285 354.519 495.432C338.727 470.445 328.368 441.01 325.771 413.784C325.203 407.724 325.024 404.411 324.845 393.634C324.367 369.781 323.054 363.423 315.083 346.914C304.157 324.256 298.784 308.344 296.604 292.045C295.768 285.865 295.679 275.387 296.455 269.894C298.963 251.355 306.366 234.966 318.098 221.95C331.323 207.293 353.623 195.441 374.699 191.859C388.969 189.411 409.03 189.291 423.21 191.53C442.555 194.605 459.302 202.337 470.586 213.383C488.2 230.608 497.126 257.535 492.767 280.163C491.692 285.656 490.498 289.119 487.125 296.403C483.214 304.822 482.348 309.091 483.99 312.165C484.408 312.971 485.483 314.434 486.319 315.419C489.095 318.554 493.185 323.838 494.26 325.629C495.155 327.092 495.305 327.599 495.305 329.182C495.305 330.794 495.185 331.182 494.379 332.197C493.215 333.689 489.991 335.779 486.707 337.212C485.274 337.839 483.96 338.585 483.781 338.884C483.632 339.212 483.244 340.884 482.916 342.675C480.736 354.676 474.945 365.99 466.885 373.961C455.033 385.603 436.315 391.186 420.971 387.633C419.986 387.424 417.568 386.678 415.598 385.962C412.433 384.857 411.687 384.708 409.328 384.708C407 384.678 406.522 384.767 405.716 385.335C404.104 386.469 403.656 387.842 403.656 391.395C403.656 395.574 404.671 398.768 407.149 402.5C411.747 409.366 421.717 415.158 433.061 417.576C436.644 418.322 446.197 418.352 449.689 417.576C465.541 414.172 476.199 403.694 485.752 382.14C490.886 370.498 493.693 365.244 496.857 361.243C499.036 358.527 502.171 355.512 504.499 353.989C506.38 352.735 509.097 351.511 509.365 351.78C509.485 351.87 509.335 353.153 509.067 354.586C506.649 368.139 508.529 376.17 514.828 379.095C520.65 381.782 527.277 375.513 528.143 366.468C528.859 359.005 522.351 349.929 515.187 348.377L513.724 348.078L514.41 345.929C517.306 336.884 521.874 327.719 528.471 317.688C535.815 306.583 539.994 302.075 556.025 288.134C575.31 271.357 577.848 269.118 584.893 262.222C594.655 252.699 605.252 240.549 612.745 230.249C617.223 224.07 623.552 214.308 626.06 209.651L626.896 208.099H631.553C656.36 208.069 683.019 198.874 703.558 183.291C706.006 181.44 706.394 180.903 705.916 180.007C705.289 178.873 704.214 178.962 702.393 180.276C701.438 180.962 699.08 182.604 697.109 183.978C680.631 195.292 662.122 202.158 642.061 204.367C636.598 204.964 628.896 205.292 628.896 204.904C628.896 204.755 629.702 203.113 630.717 201.262C635.911 191.56 639.762 181.261 641.315 172.872C642.061 168.872 642.21 160.901 641.613 158.215C640.658 153.946 639.016 151.319 636.031 149.318C633.254 147.468 629.224 146.572 626.299 147.199ZM633.224 151.348C636.568 153.02 638.18 155.856 638.807 161.26C639.523 167.738 637.732 177.022 633.792 187.112C632.448 190.545 626.328 203.203 625.463 204.367C625.015 204.934 624.925 204.934 621.642 204.457C613.074 203.203 606.835 200.217 602.207 195.232C596.804 189.411 594.923 182.366 597.073 176.216C598.834 171.23 604.476 167.499 610.268 167.499C613.074 167.499 615.313 168.335 617.283 170.066C618.955 171.529 619.373 171.648 620.239 170.783C620.985 170.036 620.985 169.559 620.239 168.096C618.268 164.245 618.328 158.573 620.388 155.08C623.075 150.483 628.358 148.96 633.224 151.348ZM516.5 352.288C518.56 353.273 521.575 356.139 523.127 358.587C525.098 361.721 525.516 364.945 524.381 368.587C522.859 373.513 520.232 376.767 517.754 376.767C515.455 376.767 512.679 374.02 511.694 370.767C510.798 367.811 510.947 361.781 511.992 356.019C512.47 353.541 512.888 351.452 512.977 351.302C513.186 350.974 514.5 351.332 516.5 352.288ZM527.038 447.966C535.039 449.847 542.979 458.922 547.039 470.773C548.025 473.669 548.114 474.236 548.114 477.371C548.144 480.535 548.084 480.953 547.308 482.625C545.666 486.177 542.591 488.148 538.621 488.178C535.815 488.178 533.665 487.551 531.367 486.058C527.277 483.401 524.829 478.565 523.665 470.684C522.948 465.669 522.291 448.235 522.829 447.727C523.157 447.399 525.038 447.488 527.038 447.966Z" fill="black" stroke="black" stroke-width="2"/>
</svg>
