<svg width="1000" height="1000" viewBox="0 0 1000 1000" fill="none" xmlns="http://www.w3.org/2000/svg">
<path d="M501.856 107.667C493.59 109.933 481.323 115.933 473.323 121.4C463.856 127.933 454.523 138.867 445.456 154.2C440.79 162.333 434.79 171.133 432.123 173.8C428.923 177 419.59 182.467 405.323 189.4C380.256 201.8 371.856 208.6 365.856 221.267C362.656 228.067 362.256 230.6 362.256 241.667C362.39 256.333 364.79 263.133 373.056 272.333C377.323 277.133 383.856 281.667 386.123 281.667C386.656 281.667 384.79 278.733 382.256 275.133C375.723 266.2 373.323 258.6 373.323 247.667C373.323 228.067 381.323 218.2 411.056 201.667C435.99 187.667 440.656 182.867 448.656 162.333C452.123 153.533 457.056 143.533 459.59 140.067C467.99 128.733 480.523 122.2 500.79 119C513.59 116.867 533.59 117.933 541.59 121C551.456 124.867 565.056 134.6 571.856 142.6C575.323 146.6 578.39 149.267 578.656 148.467C579.59 145.667 570.123 130.2 563.056 123.267C558.39 118.6 552.39 114.333 545.856 111.267C536.923 107 534.656 106.467 522.39 106.067C513.323 105.8 506.656 106.333 501.856 107.667Z" fill="black"/>
<path d="M585.59 157C585.59 157.267 586.523 161 587.59 165.267C591.99 182.333 589.857 192.2 575.457 220.067C567.057 236.2 565.59 240.067 565.59 245.667C565.59 255.133 567.723 259.267 580.123 273.667C599.457 296.2 603.323 303.667 603.057 318.467C602.923 328.2 603.99 328.467 608.523 319.933C610.79 315.667 611.457 311.933 611.59 305C611.59 290.2 606.257 280.467 588.923 263.533C581.19 256.067 574.39 248.467 573.59 246.467C570.123 237.133 573.723 228.6 587.057 214.2C598.523 201.8 600.657 197.133 600.657 185.667C600.657 175.933 597.723 167.8 591.723 160.6C588.523 156.867 585.59 155.133 585.59 157Z" fill="black"/>
<path d="M568.39 170.6C565.056 178.067 558.656 184.333 550.39 188.333C541.59 192.733 536.523 193.533 498.923 196.2C487.99 197 477.456 198.6 472.123 200.333C447.856 207.8 433.19 231.133 444.256 244.6L446.79 247.667L445.323 242.733C441.723 230.467 454.256 216.2 473.19 211.133C476.123 210.333 489.723 208.733 503.19 207.667C530.39 205.533 542.123 203.133 550.39 198.333C558.79 193.4 566.656 183.8 569.056 175.4C571.323 167.533 570.923 164.867 568.39 170.6Z" fill="black"/>
<path d="M568.39 184.467C568.123 190.467 563.59 200.733 557.59 208.867C551.456 217.267 550.923 218.6 550.923 225.533C550.79 238.467 545.056 246.733 529.59 256.067C518.256 262.867 519.19 263.133 501.856 247.8C488.523 236.2 485.59 232.867 483.056 226.867C477.723 213.8 477.456 213.667 478.123 223C478.39 227.8 479.59 233.8 480.923 236.333C486.656 247.4 510.656 268.333 517.456 268.333C522.523 268.333 531.856 261.8 541.856 251.267C550.39 242.2 555.19 234.067 556.656 226.2C557.056 223.8 560.256 217.667 563.59 212.467C570.256 202.2 572.523 192.333 569.856 185.667C569.056 183.8 568.39 183.267 568.39 184.467Z" fill="black"/>
<path d="M494.39 263C493.19 265.933 492.256 271.667 492.256 275.533C492.256 287 496.523 289.933 534.256 305C542.79 308.333 545.19 310.333 561.323 326.6C571.056 336.467 579.323 344.333 579.59 344.067C580.523 343.267 567.99 322.2 560.79 312.733C552.123 301 547.456 298.2 523.323 289.533C513.19 285.933 503.59 282.333 501.856 281.4C498.123 279.4 495.723 271 496.79 263.4C497.19 260.2 497.323 257.667 497.056 257.667C496.79 257.667 495.59 260.067 494.39 263Z" fill="black"/>
<path d="M396.39 281C385.323 283.4 372.656 289.4 367.323 294.867C356.523 305.533 356.256 333 366.39 364.067C369.723 373.667 381.456 398.2 382.523 397.133C382.79 397 381.456 390.467 379.59 382.867C372.79 354.067 369.456 326.333 371.456 313.133C373.323 300.867 384.923 293 415.19 283.8L430.256 279.133H417.59C410.656 279.133 401.056 280.067 396.39 281Z" fill="black"/>
<path d="M416.523 296.6C407.19 313 402.923 330.2 402.923 351.667C402.923 375.533 407.056 390.333 423.59 425.667C428.923 437 434.923 450.2 436.79 455C447.856 481.8 448.39 507.667 438.256 530.333C433.723 540.6 433.99 541 439.723 532.467C450.79 516.2 454.256 503.133 453.323 482.2C452.523 464.6 448.256 450.6 433.456 418.2C422.123 393.133 417.19 379.133 414.39 364.333C410.39 343.533 412.39 314.467 418.923 297.133C420.39 293.533 421.323 290.333 421.056 290.067C420.79 289.667 418.79 292.733 416.523 296.6Z" fill="black"/>
<path d="M449.056 347C452.123 348.333 467.456 354.2 483.056 360.067C527.99 376.867 537.856 381 562.79 393.667C589.59 407.267 608.256 418.333 608.256 420.867C608.256 423.267 601.323 433.933 595.323 440.467C589.59 446.867 583.056 451.267 573.856 455C570.39 456.333 568.79 457.533 570.256 457.533C574.523 457.667 585.723 454.333 592.256 451C599.19 447.533 614.39 432.467 618.256 425.267C620.79 420.333 620.79 420.333 618.256 415.533C614.39 408.333 590.79 391.933 569.323 381.533C565.723 379.8 562.923 378.067 562.923 377.533C562.923 377 564.79 375.133 567.056 373.4C572.39 369.4 578.79 363.133 582.79 357.667C587.59 351.267 593.19 348.333 600.79 348.333C609.456 348.333 617.19 352.2 624.656 360.2C631.723 367.8 633.856 375.533 632.256 387.133C631.056 395.933 629.723 398.733 623.323 405.8C618.39 411.267 619.19 412.333 625.456 409C631.323 406.067 638.523 396.867 640.123 390.333C645.723 367.933 634.523 352.867 607.323 346.333C590.39 342.2 580.123 345.667 574.256 357.133C572.79 360.067 569.323 364.867 566.656 367.933C563.856 371.133 561.59 374.467 561.59 375.533C561.59 377 559.723 376.6 553.056 373.667C532.123 364.067 492.256 352.6 461.056 347C443.456 343.8 441.99 343.8 449.056 347Z" fill="black"/>
<path d="M608.39 447C605.456 458.467 599.456 469 593.723 472.733C584.39 479 572.923 481.933 556.256 482.733L540.923 483.4L548.256 485.8C557.456 488.733 574.79 489 583.856 486.333C593.99 483.267 602.923 476.733 606.656 469.533C610.123 462.733 613.323 443.533 611.323 441.533C610.523 440.733 609.456 443 608.39 447Z" fill="black"/>
<path d="M462.257 494.2C471.99 502.6 492.79 510.467 508.523 511.8C526.39 513.4 551.723 506.867 566.523 497C570.39 494.467 573.59 492.2 573.59 491.933C573.59 491.667 567.057 492.867 558.923 494.467C538.523 498.6 516.39 500.733 505.19 499.667C496.79 498.867 466.523 493.4 460.523 491.533C459.19 491.133 459.99 492.333 462.257 494.2Z" fill="black"/>
</svg>
