<svg width="1000" height="1000" viewBox="0 0 1000 1000" fill="none" xmlns="http://www.w3.org/2000/svg">
<path d="M673.249 625.342C663.909 626.748 650.45 630.062 646.835 631.77C644.525 632.875 643.52 633.477 644.625 633.176C651.153 631.167 660.594 629.46 672.445 628.054C699.965 624.739 717.641 628.757 734.715 642.215C747.571 652.258 759.221 671.241 763.841 689.419C766.855 701.17 767.055 723.065 764.243 733.109C761.933 741.847 756.711 752.493 751.588 759.222L747.37 764.746L752.392 759.523C762.737 748.676 768.562 734.113 769.466 716.838C770.972 685.402 757.815 658.084 732.004 638.901C717.842 628.455 705.79 624.538 687.812 624.739C681.183 624.84 674.655 625.141 673.249 625.342Z" fill="black" stroke="black" stroke-width="2"/>
<path d="M285.067 628.154C257.95 634.18 232.037 654.569 220.186 679.376C215.265 689.62 213.256 697.655 213.457 705.991C213.457 709.607 213.758 710.913 213.959 709.004C215.867 689.319 224.404 672.647 240.374 657.381C267.792 631.167 296.015 624.94 346.835 633.778C371.341 637.997 381.887 641.412 447.27 666.621C490.758 683.293 499.295 686.406 500.099 685.703C500.3 685.402 498.592 684.699 496.282 683.996C493.872 683.293 469.868 673.852 442.75 663.105C387.812 641.211 373.149 635.988 354.87 632.272C328.355 626.748 299.028 625.041 285.067 628.154Z" fill="black" stroke="black" stroke-width="2"/>
<path d="M37.5949 667.223C37.7958 667.424 48.4419 671.944 61.0968 677.267C93.8386 691.026 100.97 694.743 130.397 712.419C154.602 727.083 188.549 745.161 189.654 744.056C190.156 743.454 164.545 727.585 147.973 718.244C141.646 714.629 126.48 706.694 114.327 700.467C102.175 694.24 88.0134 686.909 82.8912 684.096C72.5464 678.472 57.7824 672.145 47.1363 668.931C40.9093 667.022 36.4901 666.219 37.5949 667.223Z" fill="black" stroke="black" stroke-width="2"/>
<path d="M582.455 691.127C581.652 692.433 580.246 695.144 579.242 697.153L577.534 700.869L572.713 698.358C570.002 697.053 567.691 695.948 567.39 695.948C567.189 695.948 569.499 698.459 572.713 701.472C581.351 709.707 584.163 716.035 584.665 728.79C585.368 745.563 581.15 755.707 566.888 771.676C563.574 775.492 560.761 779.008 560.761 779.51C560.761 780.815 569.499 773.383 574.22 768.261C576.228 766.051 577.835 763.741 577.835 763.239C577.835 762.637 578.338 762.235 578.84 762.235C579.442 762.235 579.844 762.938 579.844 763.741C579.844 766.453 584.866 776.698 588.883 781.92C593.805 788.449 601.538 793.571 611.582 796.986C617.909 799.095 621.926 799.798 631.568 800.099C645.027 800.601 646.131 799.095 633.175 797.889C604.149 795.278 589.185 784.833 582.455 762.335L580.849 756.912L584.565 745.764C587.578 736.524 588.18 733.209 588.18 726.078C588.18 716.939 586.875 712.319 582.255 706.293L579.744 703.079L582.857 697.053C584.464 693.738 585.87 690.524 585.87 689.922C585.87 688.114 583.962 688.817 582.455 691.127Z" fill="black" stroke="black" stroke-width="2"/>
<path d="M538.666 695.245C530.531 698.659 524.103 703.279 514.963 712.62C501.605 726.179 492.164 742.047 483.125 766.252C476.798 783.226 474.99 791.562 474.99 804.719C474.89 818.479 476.497 817.073 459.724 817.876C453.597 818.177 447.571 818.78 446.165 819.383C443.956 820.186 444.257 820.286 448.576 820.989C455.807 822.094 468.462 821.09 472.379 819.081C474.689 817.976 475.994 817.776 476.195 818.479C476.396 819.081 478.003 821.492 479.811 823.701C486.138 832.037 502.61 838.264 520.085 838.967C531.334 839.47 574.12 837.762 578.84 836.657C580.949 836.256 568.696 835.653 547.705 835.251C509.64 834.649 503.212 833.845 491.763 828.422C481.619 823.601 476.396 815.064 476.396 803.313C476.396 796.082 479.208 781.82 482.523 771.776C493.068 740.24 522.094 703.681 543.386 695.044C545.998 693.939 547.303 693.035 546.199 693.035C545.094 693.035 541.679 694.039 538.666 695.245Z" fill="black" stroke="black" stroke-width="2"/>
<path d="M73.1491 722.965C82.59 726.681 102.476 735.017 117.341 741.344C164.344 761.432 182.121 766.855 213.256 770.772C231.736 772.982 270.203 774.488 292.6 773.685C317.608 772.781 322.228 773.584 344.826 782.322C360.494 788.449 371.14 791.964 379.075 793.772C380.581 794.073 388.214 794.776 396.149 795.379C412.118 796.483 419.349 798.191 425.275 802.108C433.008 807.23 435.72 815.767 430.598 819.182C428.388 820.588 424.17 820.99 406.694 821.693C395.044 822.094 380.079 823.199 373.45 824.103C366.822 825.007 355.774 826.112 348.844 826.413C336.691 827.016 336.49 827.116 342.315 827.92C346.433 828.522 354.568 828.321 367.926 827.217C378.673 826.212 397.354 825.208 409.406 824.806L431.401 824.003L434.314 820.688C441.947 812.151 433.31 798.593 417.139 793.872C414.126 793.069 404.886 791.863 396.55 791.361C378.874 790.156 369.935 788.147 349.848 780.615C324.237 770.973 325.844 771.174 283.561 771.877C246.4 772.58 231.736 771.877 211.75 768.763C199.697 766.855 184.13 763.239 184.13 762.335C184.13 761.934 187.243 760.628 191.16 759.322C194.977 758.117 198.191 756.811 198.191 756.51C198.191 755.104 183.427 757.414 180.916 759.222L178.204 761.231L166.353 757.113C159.825 754.903 139.637 746.969 121.358 739.637C90.424 727.183 59.8917 715.934 57.2804 716.035C56.5773 716.135 63.8087 719.148 73.1491 722.965Z" fill="black" stroke="black" stroke-width="2"/>
<path d="M320.722 717.742C331.669 718.747 340.708 720.755 352.66 724.672C383.393 734.917 397.755 745.663 419.851 774.99C430.497 789.152 433.812 794.676 436.925 803.413C438.733 808.636 439.235 809.339 439.235 806.828C439.336 795.68 425.676 773.082 407.397 754.1C393.236 739.436 380.681 731.904 358.385 724.572C343.219 719.55 330.866 716.939 322.831 717.24C319.416 717.34 318.613 717.441 320.722 717.742Z" fill="black" stroke="black" stroke-width="2"/>
<path d="M934.883 739.235C924.136 741.545 911.883 744.86 892.198 750.685C872.512 756.51 867.993 757.314 819.884 763.741C796.985 766.855 775.492 769.768 772.077 770.27C768.763 770.772 759.724 771.977 752.091 772.781C744.457 773.685 737.929 774.588 737.628 774.789C736.824 775.693 759.322 775.291 769.767 774.287C775.492 773.685 788.147 772.078 797.789 770.772C813.959 768.462 824.203 766.554 882.656 755.204C899.328 751.991 945.529 739.336 947.336 737.628C948.14 736.724 943.922 737.327 934.883 739.235Z" fill="black" stroke="black" stroke-width="2"/>
<path d="M912.285 764.846C905.957 765.65 893.604 767.357 884.765 768.763C876.028 770.27 858.15 772.479 845.094 773.885C832.037 775.191 816.469 776.999 810.343 777.903C802.107 779.208 787.745 779.811 753.095 780.313C697.856 781.117 702.074 780.313 666.922 796.785C651.555 804.016 640.708 807.431 628.555 809.038C609.674 811.448 604.049 813.055 596.717 818.177C591.294 821.893 586.875 828.924 586.875 833.745C586.875 842.282 590.993 844.893 604.752 844.692C609.975 844.592 614.695 844.29 615.197 843.989C615.7 843.688 631.167 843.085 649.446 842.583C667.825 842.181 683.795 841.478 685 840.976C686.808 840.273 625.442 840.173 600.835 840.876C596.416 841.076 594.608 840.574 593.001 839.168C588.783 835.352 591.294 827.518 598.525 821.994C604.15 817.675 610.879 815.666 625.844 813.457C643.42 810.845 648.441 809.138 672.245 797.889C695.345 786.942 704.585 783.628 716.336 782.322C721.056 781.82 740.741 781.318 759.924 781.318C782.522 781.318 801.002 780.815 812.151 779.811C821.692 779.008 837.762 777.601 848.006 776.798C858.15 775.894 875.525 773.684 886.674 771.776C912.285 767.357 929.057 765.348 947.437 764.344L962 763.541H942.917C932.472 763.44 918.612 764.043 912.285 764.846Z" fill="black" stroke="black" stroke-width="2"/>
<path d="M539.168 783.929C536.456 784.833 533.845 785.837 533.443 786.139C533.042 786.54 539.168 786.641 547.002 786.44C554.836 786.239 567.993 786.641 576.128 787.344C584.263 788.047 591.193 788.348 591.495 788.147C592.399 787.243 564.076 783.126 554.233 782.724C547.002 782.422 542.784 782.824 539.168 783.929Z" fill="black" stroke="black" stroke-width="2"/>
<path d="M65.114 828.522C68.9305 830.029 94.0393 835.452 109.305 838.063C117.642 839.47 142.549 842.884 164.746 845.596C208.736 851.02 219.885 852.928 240.273 858.251C259.054 863.072 269.6 867.19 295.613 879.744C339.603 901.036 348.944 902.242 376.865 890.189C388.917 884.967 402.275 878.037 422.161 866.688C429.593 862.469 440.239 856.544 445.763 853.631C463.54 844.19 471.876 838.063 476.597 831.133C478.103 828.924 477.199 829.426 473.282 833.243C466.553 839.57 458.82 844.592 446.667 850.216C441.545 852.526 427.484 859.757 415.432 866.286C391.629 879.141 371.24 888.683 361.096 891.796C356.979 893.102 351.756 893.805 346.734 893.805C336.992 893.805 325.341 890.189 302.04 879.644C278.237 868.998 273.416 867.089 258.552 862.268C231.736 853.631 193.571 845.998 147.471 840.072C111.214 835.452 86.6071 831.837 74.7558 829.426C64.9131 827.417 61.7997 827.116 65.114 828.522Z" fill="black" stroke="black" stroke-width="2"/>
<path d="M808.334 832.64C775.894 834.95 742.851 840.675 703.38 850.718C664.813 860.661 651.856 863.172 632.472 864.578C616.805 865.784 601.036 864.378 586.373 860.661C579.744 858.954 566.386 855.539 556.744 853.028C538.566 848.408 522.195 843.387 517.273 840.876C515.666 840.072 514.16 839.67 513.859 839.871C511.95 841.88 550.819 855.037 588.884 865.181C602.141 868.797 618.813 870.102 633.879 868.696C653.966 866.989 669.633 863.474 708.301 852.426C756.409 838.767 782.221 834.548 819.382 834.548C843.788 834.548 854.032 835.352 893.202 840.072C928.656 844.391 942.616 845.596 952.961 845.496C960.795 845.395 960.695 845.295 947.939 844.09C940.708 843.286 922.027 840.876 906.259 838.666C890.49 836.457 873.617 834.147 868.595 833.644C855.238 832.037 823.299 831.535 808.334 832.64Z" fill="black" stroke="black" stroke-width="2"/>
</svg>
