<svg width="1000" height="1000" viewBox="0 0 1000 1000" fill="none" xmlns="http://www.w3.org/2000/svg">
<path d="M652.462 721.079C640.956 722.408 635.363 723.188 633.667 723.738C632.521 724.105 629.862 724.838 627.708 725.296C623.169 726.351 616.889 728.46 615.285 729.514C614.689 729.881 613.222 730.568 612.03 731.027C610.838 731.485 609.692 732.035 609.554 732.31C609.417 732.539 608.408 733.135 607.354 733.64C601.395 736.436 592.685 745.375 587 754.681C583.929 759.632 582.829 761.557 582.553 762.566C582.37 763.116 581.774 764.445 581.178 765.454C580.582 766.463 579.895 768.205 579.62 769.351C579.299 770.497 578.657 772.376 578.153 773.568C577.648 774.76 576.961 777.969 576.594 780.674C576.227 783.424 575.723 786.725 575.448 788.1C574.76 791.63 574.898 801.211 575.631 805.382C575.998 807.399 576.548 810.837 576.823 813.084C577.098 815.33 577.694 817.897 578.153 818.814C578.611 819.731 579.207 821.519 579.482 822.802C579.757 824.086 580.536 826.149 581.178 827.341C581.82 828.578 582.324 829.77 582.324 830.091C582.324 830.366 583.287 832.521 584.525 834.813C585.717 837.151 587.092 839.855 587.596 840.818C588.1 841.781 588.834 842.973 589.246 843.431C589.659 843.935 590.347 844.898 590.759 845.677C591.676 847.328 593.418 849.849 594.656 851.408C598.598 856.175 602.082 860.255 604.053 862.364C607.629 866.077 613.405 871.12 614.184 871.12C615.285 871.12 614.964 869.332 613.772 868.782C613.176 868.507 612.442 867.773 612.213 867.223C611.938 866.627 611.296 866.031 610.792 865.848C610.242 865.71 609.829 865.298 609.829 864.977C609.829 864.656 609.142 863.785 608.362 862.96C605.887 860.622 600.936 854.662 597.773 850.216C594.702 845.861 594.197 845.127 593.51 843.614C593.097 842.743 592.409 841.597 591.905 841.093C591.447 840.589 590.759 839.259 590.347 838.113C589.934 837.013 589.338 835.776 589.017 835.363C588.696 834.996 588.146 833.85 587.825 832.842C587.504 831.833 586.863 830.366 586.45 829.633C585.992 828.853 585.35 827.203 585.029 825.965C584.708 824.682 584.112 822.94 583.654 822.069C583.195 821.198 582.599 819.135 582.324 817.485C582.049 815.834 581.362 812.855 580.811 810.837C579.986 807.629 579.849 805.932 579.849 797.314C579.895 789.292 580.032 786.908 580.674 784.478C581.132 782.828 581.866 779.757 582.324 777.602C582.783 775.448 583.608 772.88 584.112 771.872C584.662 770.909 585.075 769.809 585.075 769.488C585.075 769.03 586.083 767.058 589.934 759.953C591.722 756.744 594.931 752.252 598.14 748.584C601.67 744.504 607.629 739.095 608.546 739.095C608.821 739.095 609.692 738.636 610.471 738.041C612.259 736.711 618.585 733.594 619.502 733.594C619.869 733.594 621.015 733.181 621.978 732.631C624.361 731.393 634.447 728.643 640.314 727.68C642.102 727.405 644.853 726.855 646.503 726.488C648.474 726.03 652.233 725.801 657.551 725.801C664.244 725.801 666.169 725.938 669.241 726.763C671.212 727.268 673.916 727.909 675.246 728.093C676.529 728.322 678.684 729.01 680.059 729.606C681.389 730.247 683.222 730.889 684.093 731.073C684.964 731.256 686.11 731.76 686.615 732.219C687.119 732.677 688.311 733.273 689.228 733.548C690.144 733.869 691.153 734.419 691.474 734.786C691.795 735.198 692.666 735.794 693.353 736.161C694.087 736.574 695.921 737.811 697.479 739.003C698.992 740.195 700.642 741.479 701.192 741.845C701.742 742.212 702.751 743.037 703.439 743.679C704.08 744.321 704.906 745.054 705.272 745.329C705.593 745.604 706.235 746.246 706.648 746.705C707.06 747.209 707.702 747.851 708.023 748.172C711.003 751.151 710.865 750.968 713.02 753.26C713.936 754.177 714.853 755.277 715.082 755.644C715.312 756.011 716.045 756.652 716.733 757.065C717.375 757.523 718.016 758.303 718.108 758.807C718.2 759.357 718.429 759.77 718.704 759.724C719.392 759.678 718.979 756.836 718.2 756.24C717.833 755.965 717.558 755.323 717.558 754.819C717.558 753.718 716.687 752.847 715.633 752.847C715.174 752.847 714.624 752.389 714.395 751.793C713.936 750.739 706.693 742.671 703.851 740.103C697.617 734.511 694.866 732.448 691.611 730.843C690.557 730.339 689.457 729.651 689.182 729.285C688.861 728.918 687.669 728.276 686.523 727.909C685.331 727.497 684.048 726.855 683.635 726.488C683.222 726.122 681.847 725.617 680.609 725.388C679.372 725.159 677.4 724.517 676.209 723.967C673.137 722.592 656.588 720.575 652.462 721.079Z" fill="black"/>
<path d="M726.176 737.949C725.259 738.591 724.251 739.095 724.021 739.095C723.746 739.095 723.288 739.553 723.013 740.104C722.738 740.699 722.004 741.662 721.454 742.304C720.904 742.946 720.125 744.275 719.804 745.284C719.483 746.292 718.933 747.438 718.566 747.897C718.2 748.309 718.016 749.364 718.108 750.418L718.291 752.16L718.887 750.785C719.208 750.051 720.125 748.768 720.904 747.942C721.729 747.163 723.196 745.513 724.205 744.367C725.443 742.992 726.634 742.121 727.78 741.8C729.66 741.295 733.006 741.616 735.207 742.533C737.545 743.496 740.8 746.751 742.633 750.005L744.375 753.077V760.182C744.375 766.554 744.284 767.517 743.367 769.397C742.817 770.588 742.129 772.514 741.854 773.751C741.579 774.989 741.075 776.273 740.754 776.685C739.929 777.648 739.562 778.886 739.837 779.665C740.249 780.719 740.937 780.49 741.441 779.023C741.716 778.336 742.358 777.511 742.908 777.281C743.458 777.006 744.192 775.998 744.559 775.035C744.88 774.027 745.521 772.835 745.98 772.33C746.438 771.826 747.126 770.359 747.493 769.121C747.859 767.838 748.501 766.05 748.914 765.133C749.418 763.941 749.647 761.97 749.647 758.624C749.647 754.223 749.51 753.489 748.088 750.005C746.484 745.971 745.613 744.734 742.312 741.57C737.774 737.215 729.843 735.473 726.176 737.949Z" fill="black"/>
<path d="M825.974 770.496C824.461 770.863 821.161 771.459 818.639 771.872C816.118 772.238 813.138 772.972 811.992 773.43C810.846 773.889 808.737 774.53 807.225 774.851C805.758 775.172 803.603 775.906 802.457 776.502C801.311 777.098 800.027 777.602 799.615 777.602C799.202 777.602 797.919 778.106 796.773 778.702C795.672 779.298 793.61 780.123 792.188 780.536C790.813 780.948 789.392 781.544 789.117 781.911C788.842 782.232 787.604 782.782 786.412 783.103C785.22 783.378 783.845 784.02 783.341 784.478C782.837 784.937 781.278 785.624 779.857 786.037C778.436 786.449 777.152 787.045 777.015 787.412C776.877 787.779 775.869 788.329 774.768 788.65C771.697 789.475 771.009 789.933 771.697 790.713C772.476 791.63 776.465 791.171 778.161 789.933C778.848 789.475 780.361 788.879 781.599 788.604C782.791 788.329 784.304 787.733 784.945 787.275C785.587 786.816 787.192 786.22 788.475 785.945C789.759 785.67 791.776 784.891 792.968 784.249C794.205 783.607 795.489 783.103 795.947 783.103C796.36 783.103 797.689 782.599 798.973 782.003C800.211 781.407 802.457 780.627 803.97 780.352C805.483 780.032 807.316 779.481 808.05 779.115C808.783 778.748 811.35 778.014 813.78 777.556C816.21 777.052 819.235 776.318 820.473 775.86C822.398 775.218 824.461 775.081 833.079 775.126C843.027 775.126 843.531 775.172 846.97 776.364C848.941 777.052 850.912 777.602 851.37 777.602C851.829 777.602 853.112 778.106 854.258 778.702C855.359 779.298 856.78 779.94 857.421 780.123C862.052 781.544 871.357 790.117 874.154 795.572C874.566 796.397 875.162 797.406 875.483 797.772C875.804 798.139 876.308 799.285 876.629 800.294C876.95 801.302 877.592 802.861 878.05 803.732C878.555 804.603 878.921 805.565 878.921 805.841C878.921 806.116 879.609 808.591 880.434 811.342L881.901 816.338V828.028C881.901 839.122 881.855 839.809 880.893 841.918C880.342 843.11 879.655 845.265 879.38 846.686C879.151 848.107 878.6 849.62 878.234 850.032C877.867 850.445 877.271 851.682 876.858 852.783C876.446 853.929 875.758 855.258 875.3 855.762C874.841 856.267 874.108 857.367 873.695 858.146C873.283 858.971 872.733 859.659 872.503 859.659C872.228 859.659 871.724 860.347 871.312 861.172C870.899 861.997 870.12 862.868 869.615 863.143C869.065 863.372 868.561 863.968 868.469 864.472C868.378 865.022 867.782 865.664 867.002 865.939C865.49 866.489 865.215 867.315 866.406 867.773C866.911 867.956 867.461 867.635 868.103 866.856C868.653 866.168 869.34 865.618 869.661 865.618C869.982 865.618 871.678 864.106 873.42 862.272C875.162 860.484 877.317 858.238 878.234 857.367C879.196 856.404 879.838 855.304 879.838 854.662C879.838 854.02 880.159 853.195 880.572 852.737C881.213 852.003 882.359 849.253 884.147 844.073C884.881 841.826 886.073 835.729 886.76 830.549C887.219 827.157 886.944 820.647 886.256 817.943C886.027 817.072 885.523 814.184 885.11 811.617C884.743 809.004 884.01 806.024 883.551 804.97C883.093 803.915 882.589 802.402 882.405 801.669C881.947 799.789 879.013 793.738 877.729 791.996C877.133 791.217 876.629 790.392 876.629 790.163C876.629 789.521 871.357 783.699 869.065 781.819C865.811 779.115 864.573 778.244 862.877 777.373C862.006 776.96 860.951 776.318 860.585 775.997C860.218 775.677 859.072 775.172 858.063 774.851C857.055 774.53 855.45 773.889 854.488 773.384C853.525 772.926 850.545 772.101 847.841 771.597C845.136 771.092 842.019 770.451 840.873 770.267C837.755 769.671 829.045 769.809 825.974 770.496Z" fill="black"/>
<path d="M730.852 776.135C730.852 777.694 731.769 780.032 732.64 780.628C733.098 780.949 733.648 782.003 733.832 782.966C734.015 783.882 734.611 785.258 735.207 785.945C735.803 786.633 736.399 787.871 736.582 788.696C736.766 789.521 737.27 790.621 737.728 791.125C738.187 791.63 738.783 792.913 739.058 793.968C739.379 795.022 740.112 796.993 740.708 798.323C741.35 799.652 741.854 801.257 741.854 801.898C741.854 802.54 742.404 804.465 743 806.253C745.338 812.809 745.522 833.621 743.275 840.91C742.771 842.514 742.129 844.99 741.808 846.365C741.533 847.74 740.8 849.803 740.204 850.949C739.608 852.095 739.104 853.333 739.058 853.7C739.012 854.617 735.757 860.576 731.998 866.49C730.027 869.607 728.423 871.486 723.38 876.712C719.117 881.113 718.154 881.938 714.12 884.735C713.111 885.422 711.874 886.385 711.415 886.798C710.911 887.256 710.269 887.623 709.994 887.623C709.719 887.623 708.802 888.127 707.931 888.769C707.106 889.365 705.685 890.144 704.768 890.419C703.851 890.74 702.613 891.29 701.972 891.748C701.33 892.161 699.45 892.895 697.708 893.307C696.012 893.766 694.499 894.361 694.362 894.591C693.904 895.324 692.116 895.783 687.623 896.287C685.239 896.562 682.81 896.974 682.26 897.158C681.251 897.525 681.251 897.57 682.901 898.579C684.827 899.817 687.944 900.321 688.815 899.633C689.136 899.358 690.924 898.808 692.757 898.441C694.637 898.029 696.562 897.433 697.112 897.112C697.663 896.745 699.038 896.287 700.138 896.103C701.284 895.92 703.347 895.187 704.722 894.499C706.097 893.766 707.977 892.849 708.848 892.482C712.745 890.694 717.741 887.439 721.317 884.368C722.738 883.13 724.022 882.122 724.205 882.122C724.388 882.122 725.076 881.755 725.718 881.251C727.139 880.288 730.394 879.555 730.394 880.242C730.394 880.884 732.502 881.251 736.949 881.297C741.946 881.388 743.138 880.609 739.287 879.83C736.766 879.279 735.024 879.188 732.227 879.509C731.173 879.6 731.081 879.417 730.944 877.446C730.806 875.383 730.944 875.108 733.328 872.312C734.703 870.661 736.216 868.644 736.628 867.819C737.041 866.994 737.637 865.985 737.958 865.619C739.012 864.427 744.146 854.021 744.651 852.095C744.88 851.087 745.522 849.299 745.98 848.153C746.484 846.961 747.172 843.981 747.584 841.506C747.951 838.984 748.547 835.5 748.96 833.758C749.693 830.32 749.831 821.794 749.235 818.401C749.006 817.255 748.41 813.771 747.859 810.608C747.309 807.445 746.393 803.732 745.797 802.357C745.201 800.981 744.559 799.102 744.421 798.185C744.238 797.222 743.734 795.985 743.275 795.389C742.771 794.793 742.175 793.463 741.9 792.455C741.625 791.401 740.892 790.025 740.25 789.338C739.608 788.65 739.104 787.871 739.104 787.55C739.104 785.716 737.912 783.424 735.941 781.407C734.474 779.894 733.511 778.427 733.144 777.19C732.777 775.814 732.411 775.31 731.769 775.31C731.219 775.31 730.852 775.631 730.852 776.135Z" fill="black"/>
<path d="M648.153 784.57C648.016 785.166 647.832 787.596 647.787 789.98C647.649 793.647 647.374 794.93 646.09 798.094C645.265 800.202 644.394 801.898 644.211 801.898C643.982 801.898 643.432 802.632 642.881 803.503C642.331 804.42 641.598 805.107 641.094 805.107C640.085 805.107 638.664 803.64 637.61 801.532C635.776 797.91 630.642 795.389 623.215 794.518C618.631 793.922 617.393 793.418 615.422 791.171C614.643 790.255 613.588 789.521 613.13 789.521C612.351 789.521 612.305 789.75 612.58 791.309C613.268 795.068 618.081 798.185 625.049 799.377C631.834 800.569 635.088 803.732 634.126 808.087C633.896 809.004 633.3 810.242 632.796 810.792C631.696 811.984 631.604 812.442 632.429 813.496C632.934 814.184 633.209 814.184 635.913 813.542C641.415 812.259 646.549 807.812 649.437 801.807C651.087 798.414 651.087 798.277 651.041 792.684C651.041 789.567 650.812 786.266 650.491 785.395C649.849 783.47 648.474 783.012 648.153 784.57Z" fill="black"/>
<path d="M703.805 808.637C703.118 812.259 702.43 814.367 701.743 815.192C701.422 815.559 700.826 816.476 700.459 817.255C700.092 817.989 698.992 819.364 698.075 820.235C697.158 821.106 695.921 822.252 695.416 822.802C694.866 823.352 693.72 824.132 692.941 824.544C691.199 825.415 691.061 825.965 692.299 826.653C694.087 827.57 696.15 827.157 699.221 825.186C704.401 821.885 707.014 817.255 707.014 811.388C707.014 809.187 705.639 806.024 704.722 806.024C704.493 806.024 704.08 807.216 703.805 808.637Z" fill="black"/>
<path d="M791.593 848.199C791.18 848.932 790.584 849.574 790.172 849.574C789.805 849.574 789.301 850.078 789.071 850.674C788.842 851.27 788.292 852.049 787.788 852.37C787.329 852.737 786.458 853.883 785.908 854.937C785.358 856.038 784.716 856.909 784.441 856.909C784.212 856.909 783.57 857.78 783.066 858.834C782.562 859.934 781.737 861.539 781.278 862.41C779.582 865.481 777.978 869.653 777.153 873.228C776.694 875.199 776.098 877.675 775.823 878.683C775.548 879.692 775.319 881.251 775.319 882.167C775.319 884.001 774.219 885.331 772.706 885.331C772.202 885.331 770.643 884.414 769.222 883.268C767.388 881.709 766.609 880.746 766.425 879.646C766.242 878.821 765.692 877.721 765.188 877.262C764.684 876.804 763.95 875.795 763.629 875.016C762.621 872.862 759.641 869.928 758.128 869.607C756.89 869.332 756.845 869.378 757.807 869.836C758.495 870.157 758.816 870.753 758.816 871.624C758.816 872.495 759.182 873.182 759.916 873.641C760.649 874.145 761.154 875.016 761.337 876.162C761.52 877.171 762.025 878.454 762.483 879.05C764.133 881.159 764.913 890.694 763.858 896.378C762.85 901.971 756.845 910.269 752.398 912.331C751.527 912.744 750.289 913.432 749.647 913.844C746.163 916.182 731.907 916.136 726.268 913.753C725.122 913.294 722.967 912.698 721.5 912.423C718.75 911.919 715.633 910.406 714.257 908.893C713.661 908.16 713.57 907.61 713.936 905.501C714.532 901.742 713.753 898.075 712.515 898.854C712.194 899.083 712.011 900.321 712.057 902.475C712.194 907.701 712.149 908.16 711.14 908.481C710.682 908.618 709.811 908.435 709.215 908.068C708.619 907.701 707.152 907.151 705.868 906.83C704.631 906.509 703.026 905.868 702.384 905.363C700.734 904.172 696.333 903.988 696.104 905.134C696.012 905.684 696.471 906.051 697.938 906.464C699.038 906.785 700.413 907.472 701.055 908.068C701.697 908.618 703.026 909.306 704.08 909.581C705.089 909.856 706.327 910.452 706.739 910.956C707.152 911.415 708.435 912.056 709.49 912.331C710.59 912.606 712.378 913.34 713.478 913.982C714.578 914.578 715.816 915.128 716.183 915.128C716.549 915.128 718.108 915.77 719.621 916.503C721.134 917.236 722.83 917.878 723.426 917.878C724.022 917.878 726.085 918.428 728.01 919.116C731.356 920.308 731.998 920.4 739.333 920.4C746.347 920.4 747.309 920.308 748.96 919.437C749.968 918.933 751.619 918.199 752.627 917.878C757.44 916.32 765.738 906.968 766.838 901.834C767.021 900.963 767.48 899.587 767.892 898.854C768.351 898.029 768.718 895.691 768.901 892.757C769.222 887.073 769.68 886.385 772.431 887.118C773.806 887.485 774.402 887.944 774.769 888.906C776.006 892.253 777.153 895.782 777.382 897.249C778.115 901.146 783.616 910.269 787.1 913.294C792.234 917.787 796.177 919.895 802.641 921.546C807.133 922.738 808.783 922.921 813.78 922.921C817.493 922.921 820.565 922.692 822.261 922.233C823.728 921.867 826.937 921.225 829.366 920.812C831.796 920.445 834.638 919.712 835.738 919.254C836.793 918.749 838.856 918.153 840.231 917.924C841.652 917.649 843.44 917.053 844.265 916.549C845.044 916.09 846.741 915.449 847.978 915.174C849.262 914.853 850.683 914.211 851.187 913.753C851.691 913.294 853.204 912.652 854.58 912.286C856.138 911.919 857.238 911.369 857.559 910.773C858.247 909.535 858.797 909.168 860.035 909.168C860.631 909.168 861.547 908.939 862.052 908.664C862.831 908.251 862.877 908.068 862.373 907.747C861.547 907.197 858.201 907.747 857.605 908.527C857.376 908.847 855.817 909.352 854.167 909.627C852.517 909.948 850.591 910.544 849.812 911.002C849.078 911.46 847.107 912.102 845.457 912.377C843.807 912.698 841.606 913.294 840.552 913.798C839.498 914.257 837.343 914.853 835.693 915.082C834.088 915.311 831.154 915.953 829.137 916.549C825.837 917.512 824.599 917.603 815.201 917.649C805.07 917.649 804.841 917.603 802.136 916.457C800.624 915.77 798.927 915.082 798.377 914.944C795.031 913.89 787.467 907.243 785.862 903.851C785.312 902.75 784.671 901.742 784.487 901.604C784.258 901.467 783.662 900.183 783.112 898.716C782.608 897.295 781.783 895.37 781.37 894.499C780.728 893.124 780.591 891.427 780.591 883.497C780.591 874.283 780.636 874.053 781.874 871.257C782.562 869.698 783.112 868.048 783.112 867.59C783.112 867.131 783.616 865.756 784.212 864.472C784.854 863.235 785.771 861.264 786.321 860.117C787.742 857.138 788.888 855.121 789.713 854.25C790.813 853.104 794.114 847.924 794.114 847.328C794.114 846.227 792.28 846.869 791.593 848.199Z" fill="black"/>
<path d="M662.548 852.187C662.273 853.654 661.86 855.35 661.677 855.992C661.035 857.917 658.193 862.043 656.13 864.014C652.875 867.131 650.629 869.515 650.629 869.79C650.629 869.973 651.133 870.248 651.821 870.386C652.6 870.615 653.929 870.294 655.809 869.469C659.751 867.773 664.06 863.28 665.115 859.705C666.077 856.312 666.398 854.02 666.032 852.553C665.711 851.316 664.244 849.574 663.51 849.574C663.281 849.574 662.823 850.766 662.548 852.187Z" fill="black"/>
<path d="M715.083 852.874C714.67 853.837 714.349 854.8 714.349 855.029C714.349 855.258 713.753 856.175 712.974 857C712.24 857.825 711.599 858.65 711.599 858.88C711.599 859.338 705.181 865.618 704.722 865.618C704.539 865.618 703.805 866.077 703.072 866.627C702.384 867.223 700.642 868.094 699.267 868.598C697.067 869.377 696.7 869.698 696.425 870.982C696.287 871.807 696.287 872.495 696.517 872.495C696.746 872.495 696.929 872.311 696.929 872.128C696.929 871.945 698.534 871.578 700.505 871.303C702.751 870.982 704.676 870.386 705.823 869.698C708.39 868.14 713.845 862.593 715.449 859.934C717.054 857.229 717.558 853.516 716.458 852.095C715.816 851.224 715.77 851.224 715.083 852.874Z" fill="black"/>
<path d="M891.115 857.23C890.978 857.413 890.84 857.917 890.84 858.376C890.84 858.972 891.436 859.338 892.949 859.751C894.554 860.209 895.791 861.034 897.992 863.235C899.642 864.839 901.247 866.811 901.613 867.59C902.026 868.415 902.622 869.561 902.943 870.203C903.951 871.991 906.793 881.617 907.16 884.322C907.298 885.652 907.71 887.806 908.077 889.136C909.086 892.94 908.902 897.937 907.527 903.026C906.335 907.564 905.831 908.481 902.576 912.194C900.146 914.945 894.645 917.603 891.941 917.282C886.21 916.687 880.022 912.377 878.922 908.206C878.601 907.106 878.005 905.73 877.5 905.134C877.042 904.493 876.629 903.713 876.629 903.392C876.629 903.071 876.4 902.246 876.125 901.513L875.621 900.229L875.025 901.421C873.833 903.667 875.942 911.002 878.83 914.624C879.747 915.77 880.618 916.778 880.755 916.87C880.893 916.916 882.268 917.787 883.827 918.841C886.394 920.491 887.036 920.675 890.52 920.95C896.387 921.362 899 920.858 902.209 918.795C907.71 915.174 911.882 908.848 912.799 902.613C913.074 900.642 913.303 897.662 913.303 895.966C913.303 891.107 912.065 882.397 911.057 880.196C910.598 879.096 910.048 877.4 909.865 876.391C909.498 874.283 906.197 867.177 904.96 865.894C904.501 865.389 904.135 864.839 904.135 864.656C904.135 864.014 900.192 860.301 899 859.751C898.267 859.476 897.717 859.017 897.717 858.788C897.717 858.009 891.711 856.634 891.115 857.23Z" fill="black"/>
</svg>
