<svg width="1000" height="1000" viewBox="0 0 1000 1000" fill="none" xmlns="http://www.w3.org/2000/svg">
<path d="M441.403 149.232C436.603 150.566 428.87 158.699 428.87 162.166C429.003 163.499 429.937 162.432 431.27 159.766C433.803 154.699 442.87 149.099 448.87 149.099C455.137 149.099 461.67 151.766 467.403 156.566L473.003 161.499L466.47 167.232C455.67 176.699 453.403 187.232 457.537 210.432C461.137 230.566 459.803 238.166 452.603 241.232C443.27 245.099 434.87 238.432 417.27 213.766C412.07 206.432 405.803 198.566 403.27 196.299C397.803 191.099 388.737 186.432 384.603 186.566C382.07 186.699 382.337 186.832 385.537 187.632C396.337 190.299 402.87 195.899 416.07 214.166C433.803 238.832 441.137 244.966 450.737 243.232C460.87 241.366 462.87 232.966 458.737 209.766C454.87 187.899 457.67 174.966 468.07 167.499L473.537 163.499L476.87 167.899C481.803 174.432 495.27 183.766 499.537 183.766C511.137 183.766 509.537 166.699 497.403 161.632C492.603 159.632 481.803 159.366 477.537 160.966C475.403 161.899 473.537 160.832 468.737 156.432C460.337 148.566 451.537 146.299 441.403 149.232ZM497.403 162.966C503.003 165.366 506.203 169.766 506.203 175.366C506.203 180.432 501.937 183.366 496.47 182.032C493.27 181.099 475.537 165.766 475.537 163.766C475.537 160.832 491.137 160.299 497.403 162.966Z" fill="black" stroke="black" stroke-width="2"/>
<path d="M519.27 194.366L519.937 206.766L514.337 217.832C508.337 229.832 508.337 233.032 513.937 233.699C517.27 234.099 517.537 234.632 518.337 242.099C518.87 246.499 519.67 251.966 520.203 254.099C521.003 257.699 520.337 259.032 514.87 265.166C509.137 271.566 508.603 272.766 507.937 280.499C506.87 295.032 506.87 295.166 500.737 294.366C496.47 293.832 495.137 294.232 493.803 296.232C492.07 298.899 488.203 299.566 486.87 297.432C486.47 296.632 485.27 296.099 484.47 296.099C483.537 296.099 484.47 297.432 486.603 298.899C490.603 301.966 490.337 303.566 485.403 305.432C483.67 306.099 481.67 308.099 481.003 309.832C478.737 315.832 470.07 316.499 461.27 311.432C456.07 308.232 455.537 307.566 455.537 302.766C455.537 296.232 453.403 290.366 451.137 291.032C448.47 291.966 448.47 299.966 451.137 303.832C454.07 308.366 453.937 309.032 446.737 320.232C439.937 330.766 438.603 335.832 440.737 343.832C442.337 349.299 460.203 377.032 473.937 395.032C489.537 415.699 496.203 431.032 495.27 444.232C494.603 453.166 491.803 457.966 484.87 461.966L480.603 464.499L470.603 454.232C459.937 443.166 448.203 433.432 445.803 433.432C444.87 433.432 446.07 434.499 448.203 435.966C454.07 439.432 468.203 452.766 475.803 461.832C482.87 470.366 483.937 475.432 479.537 479.432C477.137 481.699 476.737 481.566 471.937 478.632C455.003 468.366 443.137 456.232 440.07 445.966C437.67 437.966 437.67 437.966 440.87 434.766C443.003 432.632 443.137 432.099 441.537 432.099C437.537 432.099 436.47 437.832 438.737 445.832C441.403 454.899 450.603 465.432 464.203 475.032C469.27 478.632 473.537 482.232 473.537 483.032C473.537 485.432 450.603 498.899 434.203 505.966C428.337 508.499 421.937 510.099 414.203 510.766L402.87 511.832L414.203 511.566C423.937 511.299 427.137 510.499 436.737 506.366C442.87 503.699 454.47 497.566 462.47 492.766L477.137 483.966L489.937 489.432C532.87 507.832 574.737 507.832 605.537 489.299C616.87 482.499 630.737 469.166 638.203 457.699C648.337 442.232 661.403 406.899 668.07 376.499C671.937 359.166 670.07 363.032 664.87 383.432C656.337 417.299 645.67 444.632 635.537 459.432C626.203 473.032 607.537 487.966 591.937 494.499C568.47 504.366 535.27 504.099 504.737 493.566C490.87 488.766 481.403 484.766 480.337 483.032C479.937 482.366 480.47 481.032 481.537 480.099C483.803 478.232 484.203 471.832 482.203 468.232C481.27 466.232 481.937 465.166 485.803 462.632C494.337 457.032 496.203 453.299 496.203 441.432C496.203 434.899 496.737 431.299 497.537 431.832C498.337 432.232 501.537 434.366 504.737 436.366C512.337 441.032 517.403 441.166 521.537 436.632C525.27 432.632 533.27 413.966 532.337 411.699C532.07 410.766 531.67 410.899 531.67 412.099C531.537 414.899 522.47 433.566 519.937 436.366C516.603 440.099 511.27 439.166 502.603 433.299C496.203 429.166 494.07 426.632 492.337 422.099C491.003 418.899 487.67 412.632 484.737 408.099C481.937 403.699 479.537 399.699 479.537 399.432C479.537 399.032 481.67 399.699 484.337 400.766C487.003 401.832 492.07 402.766 495.67 402.766C501.003 402.766 503.003 402.099 506.737 398.632C511.403 394.499 514.203 388.099 514.203 381.032C514.203 379.032 514.47 377.432 514.737 377.432C515.003 377.432 518.47 379.566 522.337 382.232C526.337 384.899 531.27 387.699 533.27 388.366C538.337 390.232 543.537 400.632 543.537 409.166C543.537 412.766 544.47 418.766 545.67 422.632L547.67 429.699L543.27 437.032C537.003 447.566 526.87 458.366 519.003 462.899C511.137 467.299 511.67 468.099 519.803 463.966C527.137 460.232 537.803 449.032 543.537 439.032C547.937 431.432 548.337 431.166 550.603 433.166C554.07 436.232 557.403 433.699 557.937 427.432C558.603 420.499 556.47 418.899 552.47 423.299C550.737 425.166 548.87 426.766 548.603 426.766C547.27 426.766 544.87 415.032 544.87 408.766C544.87 404.366 543.537 399.699 540.07 392.766C534.87 381.966 534.337 375.432 538.87 375.432C540.737 375.432 542.07 377.166 543.67 381.832C546.603 389.966 547.803 391.299 554.737 394.632C557.937 396.099 563.003 400.099 565.937 403.432C577.803 416.899 580.07 434.632 571.803 448.099C569.403 451.966 567.67 455.432 568.07 455.699C568.737 456.366 574.737 446.232 576.737 441.032C582.337 426.366 571.937 401.699 557.003 394.232C550.07 390.632 547.003 387.566 545.537 382.766C543.937 377.299 541.003 373.432 538.203 373.432C535.137 373.432 533.67 377.566 534.87 383.566L535.67 388.232L529.27 384.899C520.603 380.499 514.603 374.899 513.537 370.232C512.87 366.766 513.003 366.499 514.737 367.966C516.603 369.566 516.87 369.299 516.87 366.366C516.87 361.966 512.87 353.432 510.737 353.432C509.937 353.432 508.47 351.699 507.537 349.566C505.67 344.766 500.07 339.432 495.137 337.566C493.003 336.766 487.937 336.099 483.67 336.099C474.737 336.099 468.87 339.299 463.803 346.766C459.937 352.632 460.07 360.766 464.203 360.766C466.07 360.766 467.403 359.032 469.137 354.099C470.47 350.366 473.137 346.099 475.003 344.499C478.603 341.299 478.337 340.632 474.203 342.766C472.87 343.432 470.737 346.899 469.403 350.366C466.603 357.966 465.003 360.366 463.403 359.299C459.137 356.766 465.67 343.166 472.87 339.432C477.803 336.899 490.203 336.899 496.203 339.299C502.203 341.832 507.137 349.699 510.337 361.699C514.737 378.766 513.137 392.099 505.803 398.232C497.803 405.032 481.003 401.032 472.337 390.232C462.87 378.499 444.603 350.632 442.603 344.766C439.937 336.632 441.003 332.099 448.337 320.099C451.803 314.632 454.737 309.966 454.87 309.699C455.003 309.566 457.803 310.899 461.003 312.766C468.203 316.766 476.737 317.299 479.937 313.699C481.27 312.366 482.203 310.499 482.203 309.566C482.203 308.632 483.803 307.432 485.937 306.632C487.937 305.966 491.003 303.032 492.737 300.232C495.67 295.432 496.203 295.166 500.87 295.699C507.27 296.632 508.337 294.899 509.137 281.699C509.803 272.499 510.07 271.832 516.07 265.432C519.403 261.832 522.203 258.232 522.203 257.432C522.203 256.766 522.87 256.099 523.537 256.099C524.337 256.099 524.87 259.032 524.87 262.766C524.87 275.299 529.137 279.432 540.337 277.299C547.937 275.832 564.47 279.032 567.27 282.499C568.203 283.832 568.87 283.966 568.87 283.032C568.87 282.099 571.003 281.432 574.603 281.432C581.27 281.432 586.603 278.899 587.27 275.699C588.337 270.499 576.737 271.299 571.27 276.766L567.937 280.099L558.737 277.299C550.07 274.766 542.87 274.632 535.27 276.899C533.803 277.299 531.537 276.232 529.537 274.232C526.737 271.432 526.203 269.566 526.203 263.566C526.203 257.566 525.67 255.832 523.537 254.499C519.937 252.232 520.203 251.166 524.603 248.899L528.203 246.899L524.203 247.166C520.337 247.432 520.203 247.166 519.803 241.432C519.27 234.766 517.67 232.099 514.07 232.099C509.803 232.099 509.937 229.699 515.137 219.832C519.27 211.832 520.203 208.366 520.603 200.766C520.87 195.566 520.603 189.299 519.803 186.766C518.87 183.299 518.737 185.166 519.27 194.366Z" fill="black" stroke="black" stroke-width="2"/>
<path d="M369.803 189.099C363.137 194.432 362.737 206.566 368.87 216.566C372.47 222.166 381.937 230.966 394.87 240.299C400.737 244.566 407.137 249.899 409.137 252.299C412.737 256.432 413.937 262.699 411.803 266.032C410.07 268.832 403.537 270.432 394.07 270.432C385.937 270.432 384.337 270.832 381.537 273.766C377.137 278.032 377.27 279.766 383.137 290.432C387.403 298.166 387.937 300.166 386.87 303.232C384.203 310.699 380.203 312.166 359.27 313.099C347.803 313.499 339.003 314.566 337.137 315.632C332.737 318.032 328.87 325.099 329.003 330.432C329.137 334.966 329.137 334.966 330.337 329.232C332.603 317.366 337.67 314.966 360.203 314.166C379.27 313.499 384.47 311.899 387.27 305.766C389.67 300.566 389.27 298.832 384.07 289.499C376.603 276.032 379.27 271.766 395.403 271.766C409.003 271.766 414.203 268.566 414.203 260.032C414.203 254.432 410.203 250.032 393.537 237.766C385.403 231.766 377.137 224.832 375.137 222.432C365.403 210.832 363.137 198.432 369.67 191.632C371.537 189.632 374.737 187.632 376.737 187.366L380.203 186.832L376.737 186.566C374.737 186.566 371.67 187.632 369.803 189.099Z" fill="black" stroke="black" stroke-width="2"/>
</svg>
