<svg id="Layer_1" data-name="Layer 1" xmlns="http://www.w3.org/2000/svg" viewBox="0 0 500 500"><path d="M85.47,136a2.36,2.36,0,0,1,.38-.3c.44-.24.87-.47,1.33-.67,1.53-.67,3-1.4,4.81-1.12h.07c.48,0,.57-.13.54-.62s0-1.09-.08-1.63a3.69,3.69,0,0,1,1-2.25c.18-.26.39-.27,1-.23a5,5,0,0,1,.2.89,4.07,4.07,0,0,0,1.17,2.33,5.9,5.9,0,0,0,1.59,1.44A11.91,11.91,0,0,0,99.57,135a6.31,6.31,0,0,0,2.31.43,1.81,1.81,0,0,0,1.51-.77,3,3,0,0,1,2-1.12c.77-.14,1.32.39,1.88.81a5,5,0,0,1,.77.76.81.81,0,0,0,.72.3H214.83c.49,0,1,.08,1.49.11s.82,0,1.22,0c.75,0,1.5-.11,2.24-.11H281.5c.32,0,.63.07.95.08s.77,0,1.15,0c.68,0,1.36-.11,2-.11H371.3l19.5,0a1.64,1.64,0,0,0,1.38-.55,4.77,4.77,0,0,1,1.51-1.15,1.52,1.52,0,0,1,1.43-.06,3.44,3.44,0,0,1,1.67,1.23,1.37,1.37,0,0,0,1.2.52,5.88,5.88,0,0,0,3.58-1,10,10,0,0,0,1.52-1,5.45,5.45,0,0,0,2.15-3.32,9.24,9.24,0,0,1,.21-.91c.64-.11.95.2,1.3.66a4.22,4.22,0,0,1,.65,3.37c-.11.71.13.89.85.73a2.69,2.69,0,0,1,.8,0q.84.12,1.68.3a3.31,3.31,0,0,1,.68.29l.66.35,1.08.53.63.27.75.34a2.57,2.57,0,0,1-1.36,1.17c-.39.16-.77.37-1.16.55a5.55,5.55,0,0,1-.56.24,7.11,7.11,0,0,1-1.26.48,7.42,7.42,0,0,1-1.88.2c-.82,0-1,.12-.88,1a3.53,3.53,0,0,1-.52,2.73,3.67,3.67,0,0,0-.26.48c-.26.48-.42.54-.93.44a.49.49,0,0,1-.44-.45l0-.2c-.14-1.78-1.28-2.89-2.6-3.87-.63-.46-1.33-.84-2-1.25a1.77,1.77,0,0,0-.49-.21,7,7,0,0,0-2.78-.08,1.38,1.38,0,0,0-.62.35c-.25.21-.46.49-.71.7a2.44,2.44,0,0,1-3.25-.12c-1-1-1-1-2.49-1H284c-.61,0-1.22-.09-1.83-.13a3.25,3.25,0,0,0-.54,0c-.75,0-1.49.14-2.24.14H219.84c-.48,0-1-.09-1.43-.13a4.87,4.87,0,0,0-.54,0c-.67.05-1.35.14-2,.14H109a1.36,1.36,0,0,0-1.3.56,2.69,2.69,0,0,1-.82.79,3.58,3.58,0,0,1-1.1.3,2.28,2.28,0,0,1-2.43-1.12,1.08,1.08,0,0,0-.9-.5,16.14,16.14,0,0,0-1.84,0,2.28,2.28,0,0,0-1.56.58.92.92,0,0,1-.24.13,6.68,6.68,0,0,0-2.63,1.87,4.35,4.35,0,0,0-1.44,3,.48.48,0,0,1-.47.55c-.52.08-.65,0-.86-.32a7.73,7.73,0,0,1-.51-.88,4.25,4.25,0,0,1-.32-1.09,7.42,7.42,0,0,1,0-1.49c.06-.73-.12-.91-.82-.86a3.19,3.19,0,0,1-1.48-.06,11.89,11.89,0,0,1-2.62-1.06,3.52,3.52,0,0,0-.82-.33A2.41,2.41,0,0,1,85.47,136Z"/><path d="M325.64,122.39a1.58,1.58,0,0,1-.4-1.09c0-.82-.07-1.64-.13-2.45,0-.34-.13-.67-.19-1-.15-.82-.32-1.64-.45-2.47a2,2,0,0,0-.4-1.06,2.27,2.27,0,0,1-.33-.66c-.13-.4-.16-.81-.64-1-.24-.12-.33-.51-.5-.79a.86.86,0,0,0,0,1.18,2,2,0,0,1,.35.86c.1.44.29.85.41,1.28a6.84,6.84,0,0,1,.34,1.51c.05,2,0,4,.06,6a8.34,8.34,0,0,0,.34,2.76,2,2,0,0,1,0,.56l-.79-.3a.61.61,0,0,1-.23-.15A6,6,0,0,0,321,123.9a5.4,5.4,0,0,0-3-.54,1.55,1.55,0,0,0-1.17.45,1,1,0,0,1-.54.24c-.64.06-.89-.19-.84-.83a2.09,2.09,0,0,1,.17-.64c.09-.24.24-.45.32-.68a3,3,0,0,1,1.84-1.76,2.54,2.54,0,0,1,1.87-.17c.24-.76.19-.87-.28-1.23s-1.05-.87-1.6-1.27a16.93,16.93,0,0,0-1.75-1.14c-.76-.44-1.56-.81-2.35-1.2a2,2,0,0,0-.58-.19,13.3,13.3,0,0,0-4.13-.13,7.07,7.07,0,0,0-1.87.57,9.42,9.42,0,0,1-2.65,1.18c-1.31.82-2.78.45-4.19.56a.77.77,0,0,1-.4-.07c-.62-.31-1.23-.64-1.84-1,.07-.41.35-.45.6-.56a3.79,3.79,0,0,0,1.77-1.31,1.19,1.19,0,0,0,.16-.23c.3-.78.61-1.55.87-2.34a4.69,4.69,0,0,1,.53-1.24,5.94,5.94,0,0,1,.9-1.34,8.2,8.2,0,0,1,1.79-1.28,6.24,6.24,0,0,1,3.11-.53,3.88,3.88,0,0,1,1.76.46c.36.19.77.28,1.13.45.7.32,1.4.64,2.06,1a11.9,11.9,0,0,1,1.52,1.12c.49.41.93.87,1.45,1.36a.32.32,0,0,0,.26-.39,1.49,1.49,0,0,0-.15-.52,14.27,14.27,0,0,0-2.85-3.67,9.71,9.71,0,0,0-2.44-1.53,13.59,13.59,0,0,1-4.91-3.52,7.31,7.31,0,0,1-1.5-3.36,1.3,1.3,0,0,1,0-.59c.11-.4.24-.79.38-1.17a2.19,2.19,0,0,1,3.5-.82c-.19.1-.36.21-.53.29a1,1,0,0,0-.49,1.46,1.85,1.85,0,0,0,1.37,1,27.94,27.94,0,0,1,4,.82A4.48,4.48,0,0,1,315,101.9a1.77,1.77,0,0,1,.15.79,15,15,0,0,0,.6,4.57,6.3,6.3,0,0,1,.19,1.07,3.74,3.74,0,0,0,.1.67,15.92,15.92,0,0,1,.65,1.55c.15.54.11,1.13.6,1.54a.92.92,0,0,1,.22.5,1.33,1.33,0,0,0,.54.82,3.59,3.59,0,0,1,.6.72c.43-.18.4-.48.21-.72a3.32,3.32,0,0,1-.65-1.76.84.84,0,0,0-.15-.38,2.9,2.9,0,0,1-.49-1.81c0-1,0-2,0-3.06a2.59,2.59,0,0,1,.49-1.6,1.56,1.56,0,0,0,.17-.37,4.55,4.55,0,0,1,1.54-1.91,3.79,3.79,0,0,1,3.14-.7,1.9,1.9,0,0,1,1.41,1.16,2.71,2.71,0,0,1-.06,2.43s-.1.09-.22.18a10.43,10.43,0,0,1-.8-1,1.26,1.26,0,0,0-1.38-.5.91.91,0,0,0-.45.27,2.19,2.19,0,0,0-.48.74,1.45,1.45,0,0,0,0,.85,5.32,5.32,0,0,0,.58,1.14c.36.54.79,1,1.16,1.58s.71,1.21,1.12,1.77a15.43,15.43,0,0,1,1.09,2.33,4.46,4.46,0,0,1,.34,1.09c.12.54.14,1.09.31,1.61a14.2,14.2,0,0,1,.31,4.86c0,.41-.05.82-.09,1.23C325.75,121.83,325.7,122.06,325.64,122.39ZM304.56,111.5c.21.1.37.26.52.25a2.61,2.61,0,0,0,1-.24,2,2,0,0,1,1-.27,5.05,5.05,0,0,0,.67-.06,6.54,6.54,0,0,1,3.6.39,10.53,10.53,0,0,1,2.31.9c.29.21.7.17,1,.53s.64.33,1,.48c0,0,.06,0,.17,0-.07-.22-.07-.47-.19-.59a16.22,16.22,0,0,0-2.15-1.84,5.86,5.86,0,0,0-2.33-1,2.23,2.23,0,0,1-.61-.28,2.9,2.9,0,0,0-1.45-.31,7.84,7.84,0,0,0-2.28.55A6.87,6.87,0,0,0,304.56,111.5Z"/><path d="M192,96.1a2.18,2.18,0,0,1,3.47.75c.15.36.27.73.39,1.1a1,1,0,0,1,.08.46,5.55,5.55,0,0,1-.95,2.78l-.8,1.09a8.85,8.85,0,0,1-2.36,2,11.85,11.85,0,0,1-1.37.71c-.72.31-1.36.78-2.07,1.12a8.44,8.44,0,0,0-2.55,2.2,5.71,5.71,0,0,0-1.25,1.84c-.08.25-.3.45-.41.7s-.24.55.13.77c.65-.56,1.25-1.16,1.91-1.67a15.77,15.77,0,0,1,2-1.32,23.57,23.57,0,0,1,2.42-1,5,5,0,0,1,1.32-.31,11.3,11.3,0,0,1,1.84,0,4.32,4.32,0,0,1,1,.3c.15,0,.28.16.43.21a4.89,4.89,0,0,1,2.64,2.4,7.11,7.11,0,0,1,.67,1.62,14.31,14.31,0,0,0,.84,2.15,3.49,3.49,0,0,0,1.85,1.53c.26.11.49.27.81.44a4.14,4.14,0,0,1-.42.31,10.07,10.07,0,0,1-1.26.66,3.16,3.16,0,0,1-1.06.19c-.57,0-1.14,0-1.7,0a2.94,2.94,0,0,1-1.83-.41,3.4,3.4,0,0,0-.7-.24c-.38-.16-.73-.36-1.11-.5a14.42,14.42,0,0,0-2.62-1.08,13.84,13.84,0,0,0-4.54.09,3.14,3.14,0,0,0-.75.29q-.44.18-.87.39a16.48,16.48,0,0,0-1.9,1c-1,.68-1.91,1.45-2.87,2.17-.41.31-.27.66-.2,1,.08,0,.12.09.15.08a3,3,0,0,1,2.34.48,2.49,2.49,0,0,1,1.18,1.25,4.15,4.15,0,0,1,.56,1.59c0,.25.14.58-.15.67s-.8.2-1,0c-.85-.81-1.87-.56-2.84-.57a1.79,1.79,0,0,0-1.21.4,1,1,0,0,1-.35.2,4,4,0,0,0-2.12,1.49,1.05,1.05,0,0,1-.4.23l-.72.32c.05-.26.11-.48.14-.71a13.94,13.94,0,0,0,.26-1.68c.05-.79,0-1.59,0-2.38,0-1.64,0-3.27.12-4.91a4.39,4.39,0,0,1,.3-1.1c.13-.43.29-.85.41-1.28a2.3,2.3,0,0,1,.42-1.06.75.75,0,0,0,0-1.1l-.3.47c-.08.13-.13.33-.25.37-.42.18-.5.54-.61.92a2.33,2.33,0,0,1-.34.73,2.62,2.62,0,0,0-.44,1.26c-.1.74-.26,1.47-.39,2.21-.1.58-.22,1.15-.29,1.74-.07.74-.08,1.49-.15,2.24a2.7,2.7,0,0,1-.19.59l-.17,0c-.05-.46-.12-.92-.15-1.38,0-.75,0-1.5-.06-2.25a9.94,9.94,0,0,1,.4-3.43c.12-.37.12-.77.22-1.14s.32-1,.49-1.47a3,3,0,0,0,.15-.38,12.62,12.62,0,0,1,1.1-2.32,4.62,4.62,0,0,1,.72-1.06c.36-.5.77-1,1.09-1.47a15.71,15.71,0,0,0,.85-1.69.63.63,0,0,0-.15-.75,1.85,1.85,0,0,1-.24-.33,1.15,1.15,0,0,0-1.9-.1c-.25.3-.49.59-.75.88a1.08,1.08,0,0,1-.23.1,1.68,1.68,0,0,1-.23-.38,3.69,3.69,0,0,1-.08-1.95,2.3,2.3,0,0,1,1.37-1.31c.7-.05,1.4,0,2.1,0a1,1,0,0,1,.51.18,8.15,8.15,0,0,1,1.89,1.62,1.6,1.6,0,0,1,.24.49,2.46,2.46,0,0,0,.26.62,2.61,2.61,0,0,1,.51,1.73c0,1.24,0,2.49-.1,3.74a.89.89,0,0,1-.12.52,4.79,4.79,0,0,0-.63,1.79,2.86,2.86,0,0,1-.42.76c-.23.4-.22.5.18.86.38-.68,1.17-1.07,1.27-1.94a2.78,2.78,0,0,0,.68-1.72.73.73,0,0,1,.12-.32A3.91,3.91,0,0,0,184,108a3,3,0,0,1,.1-.61,9.22,9.22,0,0,0,.55-2.79,10.67,10.67,0,0,0,.06-1.49,3,3,0,0,1,1.5-2.72,5.9,5.9,0,0,1,1.12-.64,4,4,0,0,1,.91-.25c1.22-.25,2.45-.46,3.67-.73a1.58,1.58,0,0,0,1.14-1.07,1,1,0,0,0-.57-1.33A5,5,0,0,1,192,96.1Zm3.36,15.36a6.66,6.66,0,0,0-1.06-1,6.45,6.45,0,0,0-1.72-.76,4.09,4.09,0,0,0-3.43.25,5.67,5.67,0,0,1-.76.27,14.13,14.13,0,0,0-2,1,18.44,18.44,0,0,0-1.81,1.52c-.18.15-.33.32-.17.61a1.15,1.15,0,0,0,1.11-.46c.08-.13.29-.18.45-.26l1-.51a3,3,0,0,1,.48-.23c.63-.2,1.26-.39,1.89-.56a3.77,3.77,0,0,1,1-.19,7.78,7.78,0,0,1,3.84.54A.89.89,0,0,0,195.36,111.46Z"/><path d="M261.32,124.49c.16-.49.31-1,.49-1.48a1.91,1.91,0,0,0,0-1.39,3.42,3.42,0,0,0-1-1.67,2.41,2.41,0,0,0-.85-.52c-.54-.15-1.08-.33-1.62-.46a1,1,0,0,0-.53,0,4,4,0,0,0-2.23,1.34,6.34,6.34,0,0,0-1,1.93,8.8,8.8,0,0,0,0,3.65,3.58,3.58,0,0,0,.36.94c.23.44.49.86.76,1.28a8.67,8.67,0,0,0,2,1.84,1.8,1.8,0,0,0,.48.24c.16.08.37.09.5.2a5,5,0,0,0,2.73.71,19.19,19.19,0,0,0,4.28-.17,1,1,0,0,0,.39-.08,28.8,28.8,0,0,0,2.82-1.16c.55-.36,1.16-.61,1.71-1s1.24-.82,1.84-1.25.93-.73,1.38-1.11a30.52,30.52,0,0,0,3.66-3.62c.75-.87,1.53-1.73,2.26-2.61.89-1.07,1.74-2.18,2.63-3.25s1.76-2,2.64-3.05c.39-.45.76-.9,1.13-1.36.19-.24.26-.48,0-.7a.48.48,0,0,0-.77.07,4.87,4.87,0,0,1-5.32,1.39,2.94,2.94,0,0,1-1.66-1.33c-.17-.27-.37-.52-.51-.8-.28-.57-.08-.87.54-.86a9.38,9.38,0,0,0,1.29.07,7.33,7.33,0,0,0,2-.56,5.35,5.35,0,0,1,3.72-.3,1.39,1.39,0,0,0,1.61-.35,1,1,0,0,1,1.31-.18,1.2,1.2,0,0,0,1.55-.19c.51-.45,1-.91,1.55-1.31s1.08-.73,1.62-1.09c.19-.13.36-.27.55-.39a1.76,1.76,0,0,1,.58-.32,2.55,2.55,0,0,0,1.65-1.22.69.69,0,0,1,.61-.33c1.4,0,2.81-.1,4.22-.11a6.3,6.3,0,0,1,1.18.23l1.27.24c-1.3.15-2.66.29-4,.47a8.66,8.66,0,0,0-1.3.36c-.28.09-.54.23-.83.3a2,2,0,0,0-1.14.54.21.21,0,0,1-.11.08,10.94,10.94,0,0,0-1.76.84,17.38,17.38,0,0,0-1.74,1.14c-.59.33-1,.88-1.61,1.23a1.9,1.9,0,0,0-.85,1.25,2.43,2.43,0,0,1-.53,1.15,1.19,1.19,0,0,0,0,1.42,2.58,2.58,0,0,1,.12,2.47,5.42,5.42,0,0,0-.17.8c-.15.61-.27,1.24-.48,1.84a2.2,2.2,0,0,0,0,1.71c.1.23.34.52.08.67a1.05,1.05,0,0,1-.89.08,5.19,5.19,0,0,1-2-1.75,4.49,4.49,0,0,1-.53-3.06,6.16,6.16,0,0,1,.36-1c-.54.18-1,.3-1.27.88a3.85,3.85,0,0,1-.87,1.1,44.34,44.34,0,0,0-3.05,3.79c-1.05,1.28-2.06,2.58-3.16,3.8s-2.45,2.66-3.74,3.92a29.52,29.52,0,0,1-2.37,1.91c-.47.37-1,.73-1.47,1.08-.16.11-.36.17-.54.28a14,14,0,0,1-2.86,1.19,5.44,5.44,0,0,1-1,.32,20.7,20.7,0,0,1-5.83-.05,6.08,6.08,0,0,1-1.1-.34,2.72,2.72,0,0,0-.44-.18,5.83,5.83,0,0,1-2.35-1,9.13,9.13,0,0,1-1.83-1.52,6.77,6.77,0,0,1-1.29-1.64,7.74,7.74,0,0,1-1-2.35c-.09-.58-.28-1.14-.41-1.72a6.22,6.22,0,0,1,.14-3.55,1.43,1.43,0,0,0,.11-.39,6.49,6.49,0,0,1,1.06-2.84,10.6,10.6,0,0,1,1.63-2,17.39,17.39,0,0,1,1.63-1.32l.12-.07c.91-.26,1.81-.57,2.74-.78a3.2,3.2,0,0,1,2.12.29.93.93,0,0,0,.31.13,5.88,5.88,0,0,1,2.32,1.08,3.58,3.58,0,0,1,1.09,1,5,5,0,0,1,1.1,3.14,17.82,17.82,0,0,1-.17,2.31,4.38,4.38,0,0,1-1.59,2.61c-.24.2-.5.38-.76.56A1.17,1.17,0,0,1,261.32,124.49Z"/><path d="M214.23,114.9c0,.16,0,.33.05.4.52.51.31,1.16.34,1.75a2.22,2.22,0,0,1-.42,1.68,3,3,0,0,0-.29.53,2.22,2.22,0,0,1-.9,1c-.25.16-.48.34-.74.48a1.45,1.45,0,0,1-.57.17c-.61,0-.75-.19-.52-.74a2.18,2.18,0,0,0,0-2,4.6,4.6,0,0,1-.3-1c-.16-.69-.29-1.38-.47-2.06a1.94,1.94,0,0,1,.19-1.56,4.34,4.34,0,0,0,.31-.9,1,1,0,0,0-.26-.94,1.31,1.31,0,0,1-.35-.56c-.06-1.19-.92-1.75-1.75-2.34-.59-.42-1.16-.86-1.74-1.28-.15-.11-.31-.19-.46-.28l-.92-.56-.11-.08c-.73-.32-1.47-.65-2.21-1-.33-.14-.68-.26-1-.38a4.9,4.9,0,0,0-1-.29c-1.46-.18-2.93-.33-4.23-.47l1.31-.42a2.42,2.42,0,0,1,.54-.06c.81,0,1.63.07,2.45.09s1.36,0,2,0a.89.89,0,0,1,.85.38,3,3,0,0,0,1.6,1.2,3,3,0,0,1,.7.39,2.4,2.4,0,0,0,.38.27,6.86,6.86,0,0,1,2,1.4c.51.45,1.06.85,1.6,1.26a1,1,0,0,0,1.09.09,1.23,1.23,0,0,1,1.7.26,1.18,1.18,0,0,0,1.34.21,5.44,5.44,0,0,1,4.2.45,4.69,4.69,0,0,0,2.12.37c.32,0,.64-.06,1-.06s.59.24.44.57a4.86,4.86,0,0,1-1.12,1.73c-1.37,1.23-2.95,1.08-4.5.65a4.66,4.66,0,0,1-1.77-1.19c-.55-.5-.66-.56-1.21.13.46.58.93,1.18,1.42,1.76s.86,1,1.29,1.46l.77.93,2,2.44c.78.94,1.55,1.89,2.34,2.81s1.52,1.74,2.33,2.56a37.57,37.57,0,0,0,2.91,2.73,14.63,14.63,0,0,0,2.75,2c.7.34,1.37.77,2.05,1.17a1.51,1.51,0,0,0,.18.09,16.67,16.67,0,0,0,4.07,1,23.38,23.38,0,0,0,4-.12,3.67,3.67,0,0,0,1.4-.49,12.75,12.75,0,0,0,1.64-.93,9.54,9.54,0,0,0,2.05-2.33,5,5,0,0,0,.65-2.52c0-.64,0-1.28,0-1.91a4.1,4.1,0,0,0-1.76-3.16,3.08,3.08,0,0,0-3-.52,4.2,4.2,0,0,0-1.86,1.16,3.64,3.64,0,0,0-.38.7,2.66,2.66,0,0,0,0,2.54,3.58,3.58,0,0,1,.19.58c.13.43,0,.75-.48.73a2.35,2.35,0,0,1-1-.26,5.22,5.22,0,0,1-2.15-2.47,5,5,0,0,1-.32-1.66c0-.47,0-1,0-1.43a4.72,4.72,0,0,1,1.92-3.86,4.29,4.29,0,0,1,2.19-1.17,2.29,2.29,0,0,0,.71-.24,3.77,3.77,0,0,1,3.1,0,3.1,3.1,0,0,0,.64.24,5.64,5.64,0,0,1,3.23,2.09,7.31,7.31,0,0,1,1.09,1.29,8.06,8.06,0,0,1,1.06,2.26c.1.56.3,1.09.41,1.65a7.21,7.21,0,0,1,0,3.3,3.91,3.91,0,0,0-.21.72,6.67,6.67,0,0,1-1.05,3,10.57,10.57,0,0,1-1.6,2,9.08,9.08,0,0,1-2.21,1.66,13.11,13.11,0,0,1-7.55,1.44c-.41,0-.82,0-1.22-.08a8.22,8.22,0,0,1-1.2-.24c-.58-.18-1.16-.39-1.73-.6a3.92,3.92,0,0,1-.53-.29,2.75,2.75,0,0,0-.52-.31,3.31,3.31,0,0,1-1.12-.61c-.79-.64-1.66-1.17-2.46-1.81a26.2,26.2,0,0,1-2-1.8c-.7-.7-1.39-1.41-2-2.16-.9-1-1.74-2.09-2.61-3.13-.38-.47-.79-.92-1.17-1.4-.63-.79-1.25-1.6-1.88-2.4-.36-.45-.72-.9-1.1-1.34a6.53,6.53,0,0,1-1-1.17A2.44,2.44,0,0,0,214.23,114.9Z"/><path d="M339.67,124.47a1.16,1.16,0,0,1-.95.52,5.43,5.43,0,0,1-1.21,0c-.71-.06-1.4-.17-2.1-.25a5.73,5.73,0,0,0-2.43.4v.17a4.21,4.21,0,0,0,.6.11c.64,0,1.27.07,1.91.11a1.85,1.85,0,0,1,1.53.6.35.35,0,0,0,.23.14c.73.15,1.08.78,1.59,1.22-.2.43-.59.43-.93.49-1.52.26-3,.48-4.56.76a7.19,7.19,0,0,0-1.16.39,1.69,1.69,0,0,1-.37.15,7.25,7.25,0,0,0-2.26,1.08,6,6,0,0,0-1.22,1.05c-.41.37-.79.76-1.18,1.15a.79.79,0,0,1-.08-1.08c.3-.53.63-1,1-1.56a1.16,1.16,0,0,0-.07-1.36c-.2-.26-.26-1,0-1.14s.33-.58.39-.9a1.43,1.43,0,0,1,.48-.94c.12-.09.17-.26.26-.39.4-.6.79-1.21,1.22-1.78a12.56,12.56,0,0,1,1-1.16,11.64,11.64,0,0,1,2.53-2.11c.63-.36,1.22-.77,1.83-1.15a5.8,5.8,0,0,1,.62-.27c.38-.16.74-.33,1.13-.47a5.35,5.35,0,0,1,1-.29c.71-.12,1.43-.24,2.16-.29a15.06,15.06,0,0,1,1.9,0c.66,0,1.31.15,2,.24a3.07,3.07,0,0,1,1.61.49,1,1,0,0,0,.25.11,7.75,7.75,0,0,1,3.08,1.9,8.26,8.26,0,0,1,1.2,1.54,7.31,7.31,0,0,1,.89,2,6.92,6.92,0,0,1,0,4.27,5.38,5.38,0,0,1-2.3,2.9,4.91,4.91,0,0,1-3.55.51,2.75,2.75,0,0,1-2-2.32v-.27c0-.76-.05-.79-.8-.85-.17,0-.42,0-.49-.16-.36-.56-.91-1-1-1.75s-.21-1.48-.37-2.21a5.15,5.15,0,0,0-.41-1.22,1.09,1.09,0,0,0-1.26-.41.61.61,0,0,0-.38.76,1.24,1.24,0,0,0,.44.89A2.81,2.81,0,0,1,339.67,124.47Zm3-5.22c-.21-.15-.24-.2-.28-.2q-1.29,0-2.58,0a.49.49,0,0,0-.31.11,1.53,1.53,0,0,1-1.25.4,3,3,0,0,0-1.58.45,19.63,19.63,0,0,1-1.83.93,14,14,0,0,0-2.57,1.93,7.68,7.68,0,0,0-.76.75c-.38.44-.76.87-1.11,1.33s-.79,1.08-1.18,1.62a.47.47,0,0,0-.08.26.68.68,0,0,1-.5.71c-.17.06-.27.43-.31.68s.1.43.47.43c.06-.19.1-.41.18-.61s.14-.38.27-.44a1.3,1.3,0,0,0,.67-.8,1.08,1.08,0,0,1,.3-.34,3.59,3.59,0,0,0,.35-.32c.43-.51.82-1.07,1.29-1.56s1.27-1.22,1.92-1.82a3.88,3.88,0,0,1,1.05-.82c.67-.29,1.13-.93,1.9-1a.35.35,0,0,0,.23-.12,2.06,2.06,0,0,1,1.34-.59,2.36,2.36,0,0,0,1.09-.32,1.85,1.85,0,0,1,1.31-.43c.43,0,.87,0,1.3,0A4.08,4.08,0,0,0,342.63,119.25Zm2.23,10.54a1.91,1.91,0,0,0,2.95-.15,1.35,1.35,0,0,0,0-2.08,5.27,5.27,0,0,0-1.3-1,1.7,1.7,0,0,0-1.52,0,4.17,4.17,0,0,0-1.07.9.33.33,0,0,0,.15.56,4.55,4.55,0,0,1,1.26-.11.79.79,0,0,1,.56.39c.06.13-.14.39-.27.57S345.12,129.47,344.86,129.79Zm0-9.58c.18-.29.08-.45-.12-.48a14.72,14.72,0,0,0-1.49-.13c-.07,0-.16.15-.34.34Zm1.42.44c-.35-.22-.66-.44-1.08-.13C345.63,121,345.76,121,346.3,120.65Z"/><path d="M172.8,132.58c-.4-.42-.78-.86-1.21-1.24a5.1,5.1,0,0,0-1.5-1.14,4.6,4.6,0,0,1-.64-.37,2.19,2.19,0,0,0-.4-.25,16.9,16.9,0,0,0-3.65-1,34.21,34.21,0,0,1-3.62-.62,3.58,3.58,0,0,1-.8-.34c.67-.5,1-1.21,1.8-1.34.9-.93,2.09-.71,3.19-.81a1.81,1.81,0,0,0,1.14-.22,4.33,4.33,0,0,0-2.26-.48c-.9.11-1.8.28-2.7.33a2.36,2.36,0,0,1-1.86-.57,2,2,0,0,0,.37-.44,3.23,3.23,0,0,0,.33-.93.65.65,0,0,0-.67-.7.94.94,0,0,0-1.07.74,16.5,16.5,0,0,0-.56,2.58,4.69,4.69,0,0,1-1,2.2.75.75,0,0,1-.78.29c-.55-.05-.64,0-.67.57a1.87,1.87,0,0,0,0,.41,2,2,0,0,1-.88,1.86,2.56,2.56,0,0,1-1.85.69,7.32,7.32,0,0,1-1.69-.12,4.87,4.87,0,0,1-2.48-1.67,7.63,7.63,0,0,1-1.24-3.19,3.24,3.24,0,0,1,0-1.42,12.94,12.94,0,0,1,.59-2.3,7.13,7.13,0,0,1,1-1.74,7.45,7.45,0,0,1,1.42-1.44,6.26,6.26,0,0,1,2.08-1.23.68.68,0,0,0,.2-.07c1.31-.84,2.84-.7,4.28-.91a9.9,9.9,0,0,1,2.1.08c.5,0,1,.12,1.49.17a3,3,0,0,1,1.41.44,1.83,1.83,0,0,0,.49.23,11.83,11.83,0,0,1,2.69,1.39,14.22,14.22,0,0,1,2.43,1.91c.68.62,1.18,1.42,1.81,2.09s.68,1.38,1.28,1.9a.73.73,0,0,1,.15.37,2.59,2.59,0,0,0,.49,1.24,1,1,0,0,1-.06,1.14,1.16,1.16,0,0,0,0,1.48c.34.5.65,1,.94,1.56C173.16,132,173.22,132.35,172.8,132.58Zm-1.91-5.32a1.19,1.19,0,0,0-.5-1.2c-.14-.09-.18-.31-.28-.46a11.64,11.64,0,0,0-1-1.4c-.61-.65-1.32-1.19-1.93-1.84a10.15,10.15,0,0,0-2-1.46,4.26,4.26,0,0,0-1.68-.79.32.32,0,0,1-.17-.11,1.5,1.5,0,0,0-1.22-.47c-.55,0-1.14,0-1.58-.44a.37.37,0,0,0-.26-.07h-2.52c-.07,0-.14.08-.21.11v.14a3.88,3.88,0,0,0,.66.14c.53,0,1,0,1.57,0a1.1,1.1,0,0,1,.75.23,1.33,1.33,0,0,0,1.08.48c1,0,1.68.83,2.58,1.12a4.07,4.07,0,0,1,1.21.73c.55.43,1,.9,1.57,1.37a21,21,0,0,1,2.53,2.72,5,5,0,0,1,.87,1.17.27.27,0,0,0,.15.13c.41.1.48.42.53.77s.1.46.41.46C171.88,128,171.75,127.63,170.89,127.26Zm-14.91.87c.31-.39.26-.64-.06-.87s-.34-.3-.52-.42a1.89,1.89,0,0,0-.64-.34,2.62,2.62,0,0,0-2.6,1.11,1.33,1.33,0,0,0,0,2,1.85,1.85,0,0,0,2.87.21,2.09,2.09,0,0,0-.74-1.1c-.35-.36-.26-.64.21-.81A1.72,1.72,0,0,1,156,128.13Zm-1-8.21a1.72,1.72,0,0,0,1.88-.13A1.69,1.69,0,0,0,155,119.92Zm-.21.63c-.47-.28-.6-.26-.91.19C154.37,121,154.38,121,154.76,120.55Z"/><path d="M237.36,110.72c1-1.52,2.11-2.46,4-2.3a7.84,7.84,0,0,0-.68-1.24,3.55,3.55,0,0,1-.51-2.66.5.5,0,0,1,.64-.47,3.63,3.63,0,0,1,2.15.65c.33.3.8.4,1.09.79.15.22.49.07.54-.22a4.9,4.9,0,0,0,0-.54c0-.79,0-1.59.06-2.37.06-.57.27-.66.85-.59l1.62.19c.51.06.77-.18.75-.7s0-1.18-.07-1.76a2.37,2.37,0,0,1,.42-1.55,1.5,1.5,0,0,0,.22-.5c.15-.65.7-1,1-1.57.23-.37,1-.25,1.25.12A11.78,11.78,0,0,1,252,98.33a4.94,4.94,0,0,1,.18,2.36c0,.11,0,.22,0,.33-.08.79.19,1,1,.9.54-.09,1.08-.13,1.63-.18.37,0,.51.23.59.53a5.75,5.75,0,0,1,.09,2.3,2.1,2.1,0,0,0-.05.61.53.53,0,0,0,.22.36c.07,0,.25,0,.35-.11a8.52,8.52,0,0,1,1.49-1,6.72,6.72,0,0,1,1.86-.33c.36,0,.53.27.52.58,0,.64-.09,1.27-.15,1.9a.76.76,0,0,1-.13.31c-.32.48-.65,1-1,1.51.59.08,1.12.12,1.63.23a2.27,2.27,0,0,1,1.31.79c.35.41.73.79,1.16,1.25a5.07,5.07,0,0,1-1.86,1.17c-.44.12-.85.32-1.29.42a10.68,10.68,0,0,1-1.86.34,4.76,4.76,0,0,0-2.23.5.78.78,0,0,1-.32.12,6.57,6.57,0,0,0-3.45,2c-.44.45-.84.93-1.28,1.38a.6.6,0,0,1-.87-.14c-.19-.21-.42-.39-.63-.58a1.83,1.83,0,0,1-.26-.21c-.37-.42-.73-.85-1.11-1.26a2.06,2.06,0,0,0-.4-.25l-.82-.47c-.06,0-.11-.1-.17-.11-1.2-.22-2.24-1-3.51-1a5.71,5.71,0,0,1-1.49-.14,15.69,15.69,0,0,1-2.32-.75A9.94,9.94,0,0,1,237.36,110.72Zm17.47-.83c.4-.42.65-.93,1.2-1.18s.78-.77,1.14-1.21c-.37-.26-.66-.25-.85,0a1.22,1.22,0,0,1-.69.51,1.26,1.26,0,0,0-.27.2,9.12,9.12,0,0,1-.79.6c-.48.3-1,.56-1.47.83-.67.36-1.34.7-2,1.07a1.09,1.09,0,0,1,.07-1.27,1.94,1.94,0,0,0,.37-.78c.21-1,.93-1.92.95-3,0-.15.21-.29.3-.44a.76.76,0,0,0-.08-1,4.88,4.88,0,0,1-.88,1.15c-.39.3-.16,1-.67,1.33-.35-.44-.36-.44-.36-.93,0-.73,0-1.46,0-2.18s-.14-1.58-.22-2.37c0-.29-.21-.42-.51-.43a.43.43,0,0,0-.5.43c-.08.66-.19,1.31-.22,2,0,.86,0,1.73,0,2.59a.88.88,0,0,1-.35.86.47.47,0,0,1-.17-.07c-.05,0-.12-.1-.12-.16-.07-.87-.9-1.3-1.17-2,0,0-.11-.06-.19-.1a.82.82,0,0,0,0,1.12,2,2,0,0,1,.37,1,6.19,6.19,0,0,0,.3,1c.15.42.31.84.49,1.26a4.29,4.29,0,0,0,.43.89c.3.42.32.62,0,1.15l-.73-.33c-.74-.38-1.5-.71-2.21-1.14a6.68,6.68,0,0,1-1.48-1.06c-.25-.25-.64-.37-.89-.68s-.49-.15-.7.2a9.4,9.4,0,0,0,1.19,1.1,5.92,5.92,0,0,1,1.12,1.17,1.93,1.93,0,0,1-1.26.37c-.79,0-1.58.08-2.37.15a4.41,4.41,0,0,0-.72.16,7.59,7.59,0,0,0,3.77.59,12,12,0,0,1,1.7-.09,1.52,1.52,0,0,1,.89.25,3.75,3.75,0,0,1,1.37,1.65c.05.15.16.27.22.42a10.86,10.86,0,0,1,.47,1.11,5.14,5.14,0,0,1,.15.8.45.45,0,0,0,.45.42c.55.06.71,0,.82-.62a2.93,2.93,0,0,0,.07-.41,5.93,5.93,0,0,1,1.18-2.48,4.29,4.29,0,0,1,.76-.78,1.27,1.27,0,0,1,1-.37,16.19,16.19,0,0,1,1.71.07,9.6,9.6,0,0,0,3.5-.32,2.67,2.67,0,0,0,.36-.14,2.23,2.23,0,0,0-.91-.28c-.77-.06-1.54-.1-2.31-.13A1.64,1.64,0,0,1,254.83,109.89Zm-9.09-3.16c-.28.43-.14.85.4,1.12.23.11.47.21.62-.1s-.07-.4-.27-.52Zm8.55,0c-.33.21-.64.38-.91.59-.1.08-.23.3-.19.36a.55.55,0,0,0,.4.26A.86.86,0,0,0,254.29,106.72Z"/><path d="M214.29,97.6a1.93,1.93,0,0,0,1.62.39.39.39,0,0,0,.27-.18A5.49,5.49,0,0,1,218,96.38a9.45,9.45,0,0,0,1.21-1c.47-.42.91-.87,1.35-1.31a.66.66,0,0,0,.17-.21c.31-.67.89-.69,1.5-.63.25,0,.49.09.74.13a.94.94,0,0,1,.79,1.48,9.26,9.26,0,0,1-.93,1.49c-.28.37-.66.67-1,1-.09.1-.18.3-.13.4a.45.45,0,0,0,.37.19c.45,0,.9-.11,1.35-.18.38.5.38.53,0,1-.13.15-.25.32-.38.47a5,5,0,0,1-3,1.94,12.18,12.18,0,0,0-1.58.4.41.41,0,0,0-.15.74,1.28,1.28,0,0,0,.61.26c.78.05,1.19.58,1.67,1.19a1.82,1.82,0,0,1-.46.26c-1.09.19-2.19.39-3.29.54a8.25,8.25,0,0,1-3.33-.55,2.36,2.36,0,0,1-1-.74,6,6,0,0,1-1.16-1.48,3.52,3.52,0,0,1-.42-1.87,3.13,3.13,0,0,0-.21-1.2,1.56,1.56,0,0,1,.37-1.63,2.53,2.53,0,0,0,.4-.62c.3-.58.55-1.19.89-1.75a4.85,4.85,0,0,1,.83-1c.45-.43,1-.77,1.42-1.22s1.37-.69,2-1.14a1.79,1.79,0,0,1,.71-.22,13.09,13.09,0,0,1,3.59-.12q1,.1.45,1a10.22,10.22,0,0,1-2,2.13c-.49.41-.95.84-1.45,1.23-.74.57-1.49,1.13-2.26,1.67a2.71,2.71,0,0,1-.64.23Zm3,1.85h.2c.06-.2.12-.4.17-.61s.17-.45-.1-.61a.45.45,0,0,0-.66.15Zm-2.8,1.21c.63.41,1,.41,1.47,0A1.27,1.27,0,0,0,214.47,100.66ZM219,100v-.21c-.22-.21-.42-.08-.62.18Zm-2.7-.13,0,.19c.23.11.37,0,.53-.34Zm-2.67-2.2,0-.19-.73.12v.07Z"/><path d="M279.36,103.8c.43-.6.79-1.11,1.54-1.21s.92-.37.86-1c-.65-.13-1.31-.31-2-.38a4,4,0,0,1-2.07-1.08,10.21,10.21,0,0,1-1.38-1.48c-.26-.29-.06-.54.11-.8.46.07.9.16,1.35.19.15,0,.3-.13.46-.2-.07-.15-.1-.34-.21-.44a8.94,8.94,0,0,1-1.83-2.41,1,1,0,0,1,.72-1.52,2.51,2.51,0,0,1,1.73,0,1.75,1.75,0,0,1,.36.19,18,18,0,0,0,1.74,1.85,7.24,7.24,0,0,0,1.48,1.13,4.76,4.76,0,0,1,1.39,1.06,1.26,1.26,0,0,0,1.9,0,2.09,2.09,0,0,0-.46-.25,4.57,4.57,0,0,1-1.27-.63,9.23,9.23,0,0,1-1-.83,13.66,13.66,0,0,0-1.31-1,14.54,14.54,0,0,1-2.81-2.84.94.94,0,0,1-.19-.73c.07-.29.4-.32.69-.31.9,0,1.81,0,2.72,0a3.88,3.88,0,0,1,1.93.56,9.63,9.63,0,0,1,1.58.91,18.24,18.24,0,0,1,1.4,1.24,5.11,5.11,0,0,1,1.2,1.63c.11.29.28.56.42.84a2.74,2.74,0,0,0,.44.83,1.61,1.61,0,0,1,.43,1.37c0,.34-.12.67-.15,1s0,.67-.06,1c0,.13.05.29,0,.4a11.92,11.92,0,0,1-1,1.75,8.67,8.67,0,0,1-1.3,1.19,1,1,0,0,1-.34.22,7.89,7.89,0,0,1-4.41.38,11.38,11.38,0,0,0-1.55-.25A2.35,2.35,0,0,1,279.36,103.8Zm3.35-4.26.36-1.17c-.49-.25-.77-.21-.76.11A1.23,1.23,0,0,0,282.71,99.54Zm2.9,1.11a2.34,2.34,0,0,0-1.29-.26c-.1,0-.21.16-.25.27s.12.19.2.22A1.34,1.34,0,0,0,285.61,100.65Zm-4.7-.9v.15c.46.21.46.21.87-.1Zm5.34-2.24v.2h.89v-.1Zm-3.13,2.26c.32.38.32.38.59.09Z"/><path d="M324.87,131.66l-.32-.4a4.73,4.73,0,0,0-3.46-1.9,22.14,22.14,0,0,0-4.95.26,7,7,0,0,0-.78.24l-.12.06-4,1.1-1.11.32c-.45.13-.9.3-1.36.41a30.35,30.35,0,0,1-3.12.66,16,16,0,0,1-2.85.05,5.7,5.7,0,0,1-1.36-.4,3.09,3.09,0,0,0-.57-.23,3.57,3.57,0,0,1-1.61-1.08,6.08,6.08,0,0,1-1.48-2.16,7.32,7.32,0,0,1-.53-2,6.7,6.7,0,0,1,1.83-5,5.39,5.39,0,0,1,1.94-1.33c.32-.1.6-.34.92-.43a4,4,0,0,1,3.23.25c.4.24.82.46,1.23.7a4.18,4.18,0,0,1,1.62,2.44,2.43,2.43,0,0,1,.14,1,4.36,4.36,0,0,1-1.05,2.52,2.85,2.85,0,0,1-2.05.74c-.14,0-.36-.22-.48-.39s0-.39.14-.53a2.37,2.37,0,0,0,.63-2.56,1.78,1.78,0,0,0-1.25-1.32,4.43,4.43,0,0,0-1.74-.19,2.88,2.88,0,0,0-2.54,2.14c-.07.26-.19.52-.24.78a3.5,3.5,0,0,0-.14,1,5,5,0,0,0,1.76,3.56,4.15,4.15,0,0,0,2.41,1,7,7,0,0,0,3.15-.39,3,3,0,0,1,.73-.18,6,6,0,0,0,2.14-.64,4.44,4.44,0,0,1,.78-.22c.4-.13.8-.29,1.2-.44a5.41,5.41,0,0,1,.63-.24,4.4,4.4,0,0,0,1.72-.62s0,0,.06,0a16.55,16.55,0,0,1,7.67-1,3.6,3.6,0,0,1,2,1.11,11,11,0,0,1,1.4,1.9A1.16,1.16,0,0,1,324.87,131.66Z"/><path d="M175.12,131.63c-.34-.07-.46-.23-.42-.5a2.23,2.23,0,0,1,.39-1.21c.35-.43.63-.93,1-1.37a3.55,3.55,0,0,1,2.91-1.47c1.27,0,2.54.07,3.81.17a5.2,5.2,0,0,1,1.16.37c.23.07.47.18.71.23a4.84,4.84,0,0,1,1.92.63,2.24,2.24,0,0,0,.65.2l1.39.52.12.06,3.44,1c.37.11.77.15,1.12.29a6.39,6.39,0,0,0,3.43.26,4.39,4.39,0,0,0,2.64-1.55,7.11,7.11,0,0,0,1.15-2.65.94.94,0,0,0,0-.41,4.45,4.45,0,0,0-1.72-3.41,3,3,0,0,0-2.35-.39,2.15,2.15,0,0,0-1.94,1.82,2.11,2.11,0,0,0,.63,2.16.58.58,0,0,1-.46,1,2.66,2.66,0,0,1-2-1,3.77,3.77,0,0,1-.77-3.26,4.43,4.43,0,0,1,1.51-2.44,4.76,4.76,0,0,1,4.18-1.11,5.57,5.57,0,0,1,2.37,1.12,11,11,0,0,0,1,.82,3.76,3.76,0,0,1,1.13,1.59,5.54,5.54,0,0,1,.51,4c-.05.17-.09.35-.13.53a6,6,0,0,1-2.23,3.44,6.2,6.2,0,0,1-3.88,1.39,9.72,9.72,0,0,1-3.82-.52,3.64,3.64,0,0,0-.87-.18,9.07,9.07,0,0,1-2-.53,28.26,28.26,0,0,0-3.51-1,7.37,7.37,0,0,1-1.76-.51,1.74,1.74,0,0,0-.52-.15,18.85,18.85,0,0,0-5.56-.18,5,5,0,0,0-2.86,1.82Z"/><path d="M352.63,132.09a6.32,6.32,0,0,0,.6-.25c.31-.14.59-.32.9-.45a4.22,4.22,0,0,1,1-.34,2.47,2.47,0,0,0,1.32-.49,1.75,1.75,0,0,1,.35-.2,10.17,10.17,0,0,0,3.18-2.25,13.86,13.86,0,0,0,1.88-2.38,2.15,2.15,0,0,0,.24-.56,5.66,5.66,0,0,1,.15-.59,3,3,0,0,0-.14-2.93,4.71,4.71,0,0,0-.78-1.09,3.2,3.2,0,0,0-5.24.66,1.42,1.42,0,0,0,.86,2,2.89,2.89,0,0,0,1-.21.59.59,0,0,1,0,1.09,1.8,1.8,0,0,1-1.75.49,3.59,3.59,0,0,1-1.35-.76,3.76,3.76,0,0,1-1.2-2.08,11.24,11.24,0,0,1-.06-1.42,3.69,3.69,0,0,1,1.2-2.44,12.14,12.14,0,0,1,1.4-1.16.79.79,0,0,1,.3-.16,6.87,6.87,0,0,1,3-.32c.35.08.72.1,1.07.19a6.73,6.73,0,0,1,.93.38c.16.08.29.21.46.29a6.94,6.94,0,0,1,1.7,1.4,9,9,0,0,1,1.2,2,1.54,1.54,0,0,1,.18.72,5.89,5.89,0,0,1-.45,3.58,1.36,1.36,0,0,0-.11.25,7.92,7.92,0,0,1-2.14,3.41,13.21,13.21,0,0,1-2.52,2c-.71.47-1.55.63-2.22,1.14-1.39.19-2.71.8-4.13.77a6.88,6.88,0,0,1-.91-.13Z"/><path d="M147.52,132.16a4.87,4.87,0,0,1-2.67.05c-.59-.15-1.19-.26-1.78-.43a10.82,10.82,0,0,1-1.2-.44c-.14-.06-.27-.17-.42-.22a9.91,9.91,0,0,1-3.33-2.16,14.3,14.3,0,0,1-2.36-3,2,2,0,0,1-.2-.5,4,4,0,0,0-.25-.71,6,6,0,0,1-.45-3.65,2.77,2.77,0,0,1,.35-1,5.09,5.09,0,0,1,1.07-1.71,6.3,6.3,0,0,1,1.61-1.3.64.64,0,0,0,.18-.1,4.16,4.16,0,0,1,2.4-.82,5.15,5.15,0,0,1,2.94.37,4.92,4.92,0,0,1,2.25,2,4.6,4.6,0,0,1,.67,2.09,4,4,0,0,1-1,2.93,2.72,2.72,0,0,1-2.11,1.07,2.4,2.4,0,0,1-1.38-.67.61.61,0,0,1,0-.86.56.56,0,0,1,.47-.06c.34.21.64.33,1,0a1.61,1.61,0,0,0,.74-1.16,1.84,1.84,0,0,0-.83-1.55,3,3,0,0,0-2.27-.88,3.81,3.81,0,0,0-2.23,1,3.66,3.66,0,0,0-1.16,2,2.38,2.38,0,0,0,0,1.47,6.68,6.68,0,0,1,.25.84A4.85,4.85,0,0,0,139,127a14.81,14.81,0,0,0,2.09,2.1,13,13,0,0,0,1.83,1.13,6.18,6.18,0,0,0,2.59.94.53.53,0,0,1,.3.14,2.46,2.46,0,0,0,1.21.59C147.15,132,147.26,132,147.52,132.16Z"/><path d="M228.89,101.41c.41-.11.73-.22,1.05-.28a2.07,2.07,0,0,0,1.29-.55.77.77,0,0,1,.29-.17A6.38,6.38,0,0,0,234,98.06a4.68,4.68,0,0,0,.72-3.18,3,3,0,0,0-.57-1.48,4.87,4.87,0,0,0-1.43-1.22,2.49,2.49,0,0,0-2.51.12,4.21,4.21,0,0,0-1.27,1.18,1.17,1.17,0,0,0,0,1.38,1.6,1.6,0,0,0,2.75.26,3.65,3.65,0,0,1,.31-.24,1.14,1.14,0,0,1,.2,1.48,1.77,1.77,0,0,1-.51.63,2.52,2.52,0,0,1-2.51.53,4.53,4.53,0,0,1-1.84-1.41c-.48-.61-.53-2.5.12-3s1-.87,1.49-1.28c.24-.19.4-.36.28-.68a3.33,3.33,0,0,1-.13-.45,1,1,0,0,1,1-.26c1,.24,2,.46,3.05.67a3.58,3.58,0,0,1,1.65,1.13,2.18,2.18,0,0,1,.8,1.45c0,.13.16.25.28.45a8.63,8.63,0,0,0,1.18-1.45,8.81,8.81,0,0,1,1.2-1.45c.6-.54,1.28-1,1.93-1.47a.4.4,0,0,1,.18-.1c1.26-.21,2.39-1,3.74-.78.51.1,1,.23,1.51.36.15,0,.29.14.44.17a3.92,3.92,0,0,1,2.19,1.41,3.32,3.32,0,0,1,1,3c-.33,1.49-1.51,2.46-3.11,1.79a.88.88,0,0,1-.57-.7,1.28,1.28,0,0,1,.83-1.69c.19-.09.39-.15.57-.24.36-.17.42-.25.57-.73a3.57,3.57,0,0,0-2.22-1.71,6.09,6.09,0,0,0-6.07,1.38,8.79,8.79,0,0,0-1.54,2.12c-.63,1.21-.9,2.55-1.57,3.73a8.19,8.19,0,0,1-.87,1.3,6.57,6.57,0,0,1-2.76,2.12,1.42,1.42,0,0,0-.61.51,1.28,1.28,0,0,1-1.7.56A2.15,2.15,0,0,1,228.89,101.41Z"/><path d="M271.11,101.4a2.5,2.5,0,0,1-1.64,1,1.11,1.11,0,0,1-1.17-.54,2.39,2.39,0,0,0-1.12-.81,6,6,0,0,1-1.6-1.13,8,8,0,0,1-1.52-2,7.13,7.13,0,0,1-1-2.42,1.64,1.64,0,0,0-.18-.58,14,14,0,0,0-1.42-2.39,5.16,5.16,0,0,0-2-1.52c-.15-.06-.28-.16-.42-.23a2.55,2.55,0,0,0-.86-.36,13.48,13.48,0,0,0-3,0,3.83,3.83,0,0,0-2.56,1.66c-.19.28,0,.68.38.87s.66.31,1,.44c.5.2.55.64.54,1.08a1.07,1.07,0,0,1-.54,1.08,2.41,2.41,0,0,1-2,0,.37.37,0,0,1-.17-.1c-.41-.64-1-1.15-1-2,0-.29,0-.59,0-.88a1,1,0,0,1,.09-.46,6.9,6.9,0,0,1,2.23-2.42c.18-.09.38-.15.57-.23s.67-.28,1-.39a4.92,4.92,0,0,1,3.58.09c.11,0,.2.13.31.14a4.33,4.33,0,0,1,2.13,1,9,9,0,0,1,1.48,1.27c.59.67,1.09,1.43,1.64,2.15a4.9,4.9,0,0,0,.42.46,3.42,3.42,0,0,0,.3-.75,2.67,2.67,0,0,1,1.05-1.54,3.48,3.48,0,0,1,2.12-.94,16.31,16.31,0,0,0,2.25-.53,1.3,1.3,0,0,1,.33-.07c.45,0,.68.25.55.68a.64.64,0,0,0,.32.79,7.61,7.61,0,0,1,1.2,1,2.73,2.73,0,0,1,.07,3.62c-.55.73-1.36.85-2.06,1.23a.61.61,0,0,1-.4,0,3,3,0,0,1-2.08-1.28,1.15,1.15,0,0,1,.19-1.55,2.27,2.27,0,0,0,.44.38,4.33,4.33,0,0,0,1.08.53c.81.18,1.25-.37,1.59-1a1.32,1.32,0,0,0-.17-1.39,3.42,3.42,0,0,0-1.48-1.25A2.44,2.44,0,0,0,268,92a3.56,3.56,0,0,0-2,1.26,3.91,3.91,0,0,0-.63,3.53,4.9,4.9,0,0,0,1.14,2c.24.3.56.53.8.83.49.64,1.31.79,1.89,1.29.2.17.56.15.85.22Z"/><path d="M367.7,125.2c.08,0,.15-.13.22-.14a5.34,5.34,0,0,0,1.58-.61,3.32,3.32,0,0,1,2.59,0c.3.1.59.24.9.31a7.22,7.22,0,0,1,3,1.74l2.41,2s0,0,.05,0c1.12.22,2.1,1.06,3.33.75a10,10,0,0,0,2.18-.72,3.33,3.33,0,0,0,2.17-3.17c0-.29-.44-.48-.87-.4a1.09,1.09,0,0,1-.85,0c-.6-.33-.88-.72-.79-1.28a1.35,1.35,0,0,1,1.08-1.1,2.19,2.19,0,0,1,2,.63,3,3,0,0,1,.79,2.34,3.91,3.91,0,0,1-1.24,2.7,8,8,0,0,1-1.88,1.41,6.46,6.46,0,0,1-3.75.6c-.25,0-.5,0-.75,0a1.08,1.08,0,0,1-.41,0,11.65,11.65,0,0,1-2.14-1.09,1.08,1.08,0,0,0-.53-.25c-.6-.08-.72.09-.59.68a1.94,1.94,0,0,1,0,.72,3.35,3.35,0,0,1-.33,1.1,6.4,6.4,0,0,1-1,1.22,18.63,18.63,0,0,1-1.47,1.19,3.39,3.39,0,0,1-.53.29.44.44,0,0,1-.68-.21.91.91,0,0,0-.94-.53,2.15,2.15,0,0,1-1.2-.42,4.13,4.13,0,0,1-1.38-1.15,2.54,2.54,0,0,1-.17-2.39,4.41,4.41,0,0,1,1-1.18,2.68,2.68,0,0,1,3.16.52.56.56,0,0,1,.11.69c-.16.26-.38.24-.65.19-1.45-.3-1.75.79-1.58,1.74a.75.75,0,0,0,.14.3,2.52,2.52,0,0,0,2.51.84,4.83,4.83,0,0,0,1.71-1.41c.31-.37.22-.81.28-1.24a3.09,3.09,0,0,0-1.23-2.92,4.44,4.44,0,0,0-2.83-1.3c-.84,0-1.68,0-2.52,0-.3,0-.6-.09-.9-.13Z"/><path d="M132.27,125.33a3.37,3.37,0,0,1-1.3.2c-1,0-1.95.07-2.92.16a3,3,0,0,0-.91.39c-.15.07-.27.17-.41.25a3.52,3.52,0,0,0-2,3.43,2.78,2.78,0,0,0,1.2,2.15,2.26,2.26,0,0,0,2.07.52,1.79,1.79,0,0,0,1.46-1.77,1.17,1.17,0,0,0-1.44-1.15c-.13,0-.27.1-.39.08a.73.73,0,0,1-.45-.21.53.53,0,0,1,0-.49,3.05,3.05,0,0,1,.74-.78,2.9,2.9,0,0,1,2.67.13,2.77,2.77,0,0,1,1.12,2.36,2.5,2.5,0,0,1-1.38,2,4,4,0,0,0-.41.23,2,2,0,0,1-1.26.45.85.85,0,0,0-.77.35c-.38.52-.73.59-1.21.19-.81-.68-1.59-1.38-2.37-2.09a1.07,1.07,0,0,1-.29-.53c-.14-.65-.53-1.26-.25-2,.09-.22-.07-.39-.32-.41s-.65-.07-.85.27c0,.06-.08.13-.14.15a8.92,8.92,0,0,1-2.16.9,26.61,26.61,0,0,1-3.46,0,.49.49,0,0,1-.27,0,23.3,23.3,0,0,1-2.13-1.17,10.42,10.42,0,0,1-1.7-2,.75.75,0,0,1-.15-.38,11.19,11.19,0,0,1-.06-2.16,2.32,2.32,0,0,1,2.63-1.9,1.35,1.35,0,0,1,1.12,1.64,1.25,1.25,0,0,1-1.36.85,3.18,3.18,0,0,0-.33-.09.64.64,0,0,0-.76.72,3.19,3.19,0,0,0,1.3,2.27,9,9,0,0,0,2.87,1.3,2,2,0,0,0,1.65-.1,2.27,2.27,0,0,1,.63-.26,5.37,5.37,0,0,0,2.78-1.56c.58-.48,1.1-1,1.71-1.45a5.54,5.54,0,0,1,2.16-1.1c.6-.1,1.16-.37,1.76-.49a2.76,2.76,0,0,1,2.21.4,3.88,3.88,0,0,0,.82.32l.57.18Z"/><path d="M299.78,133.71a2.74,2.74,0,0,1-.35,0c-.85-.15-1.7-.29-2.54-.47a5.78,5.78,0,0,1-.95-.36c-.14-.06-.27-.16-.42-.22a7.85,7.85,0,0,1-3.43-2.76,10,10,0,0,1-1-2.13,9,9,0,0,1-.33-5,1.37,1.37,0,0,1,.72-1,.44.44,0,0,1,.65.15s.07.11.11.17c.38.58.64.59,1.05,0a1.45,1.45,0,0,0,.26-.47,3.29,3.29,0,0,1,1-1.71c.19-.16.37-.33.57-.47s.37-.18.53-.3a3.62,3.62,0,0,1,3.05-.45.49.49,0,0,1,.23.13c.06,0,.09.1.16.18a2,2,0,0,1-.26.37c-.73.56-1.52,1.07-2.2,1.69a13.83,13.83,0,0,0-1.43,1.7,2.29,2.29,0,0,0-.33.59,3.33,3.33,0,0,0-.37,1.07,16.36,16.36,0,0,0,0,2.1,3.56,3.56,0,0,0,.43,1.49,10.55,10.55,0,0,0,.94,1.79,9.88,9.88,0,0,0,1.85,2,4.29,4.29,0,0,0,1.37.84C299.63,132.83,299.58,133.3,299.78,133.71Z"/><path d="M207.4,122.64l.66-1a1.42,1.42,0,0,1,1.17,1.22,9.13,9.13,0,0,1,0,3.79,8.86,8.86,0,0,1-.84,2.43,9.12,9.12,0,0,1-2.47,2.75c-.69.52-1.5.73-2.2,1.18a2,2,0,0,1-.77.24c-.76.15-1.51.28-2.27.41a2.8,2.8,0,0,1-.41,0,1.25,1.25,0,0,1,.92-1.19,4.78,4.78,0,0,0,1.46-1.08,24.05,24.05,0,0,0,1.78-2.12c.19-.24.2-.61.36-.87a6.4,6.4,0,0,0,.67-3.49,2.43,2.43,0,0,0-.5-1.65c-.42-.53-.72-1.16-1.17-1.65a15.7,15.7,0,0,0-1.68-1.46c-.42-.34-.86-.64-1.4-1,.27-.18.44-.36.62-.39a4.12,4.12,0,0,1,3,.46,7.42,7.42,0,0,1,1.56,1.38,3.32,3.32,0,0,1,.43.91C206.55,122,206.75,122.47,207.4,122.64Z"/><path d="M244.19,82.2a2.43,2.43,0,0,1,3.11.23,1.61,1.61,0,0,0,1-.9c.34-.56.71-1.1,1.1-1.62a.85.85,0,0,1,1.2,0c.36.49.7,1,1,1.52a2.29,2.29,0,0,0,.95,1,4.24,4.24,0,0,1,1.07-.59,3.83,3.83,0,0,1,1.35,0,3.18,3.18,0,0,1,.83.32c-.2.51-.34.95-.54,1.37a6.48,6.48,0,0,1-1.59,2.64c-1,.73-2,1.49-3.33.76a1.05,1.05,0,0,0-.78,0,2.5,2.5,0,0,1-2.55-.25c-.49-.34-.89-.74-1.33-1.11a.48.48,0,0,1-.13-.16c-.3-.63-.61-1.26-.89-1.9C244.5,83.1,244.37,82.67,244.19,82.2Zm6.61,1.56c0-.34,0-.65-.05-1a2.48,2.48,0,0,0,0-.27c-.09-.53-.29-.71-.74-.72s-.62.17-.72.72a7.71,7.71,0,0,0,0,2.3c.06.54.12.63.57.65.63,0,.84-.11.91-.64C250.78,84.47,250.78,84.1,250.8,83.76Zm-3.76.35a1.78,1.78,0,0,0-.46.14.42.42,0,0,0-.14.33,9.24,9.24,0,0,0,1,1.07,9.8,9.8,0,0,0,1.09.65c.17.1.37.19.47,0a.6.6,0,0,0,0-.54c-.46-.51-1-1-1.47-1.46A1.52,1.52,0,0,0,247,84.11Zm6.55.41c-.45-.44-.88-.48-1.24-.13L251,85.71c-.17.18-.27.37-.09.59s.37.07.54,0c.37-.21.75-.41,1.11-.63a1.48,1.48,0,0,0,.37-.29C253.16,85.1,253.36,84.83,253.59,84.52Z"/><path d="M284.05,118.68c.39.11.44.39.5.66.14.64.27,1.28.4,1.93a1.25,1.25,0,0,1,0,.47c-.19.9-.34,1.82-.62,2.71a5.62,5.62,0,0,1-.8,1.4c-.34.51-.78.94-1.07,1.47-.41.78-1.11,1.45-1,2.46a3.2,3.2,0,0,1-.27.91c-.32-.2-.57-.35-.81-.52a.63.63,0,0,1-.28-.28c-.33-.95-.85-1.88-.4-2.94a2.92,2.92,0,0,0,.14-.6,5.67,5.67,0,0,1,1.29-2.49c.41-.56.77-1.17,1.22-1.7a18.32,18.32,0,0,0,1.14-2.14,5.34,5.34,0,0,0,.27-.7C283.84,119.1,284,118.89,284.05,118.68Z"/><path d="M218.86,130.68a2.67,2.67,0,0,1-.41-1.28,3,3,0,0,0-.37-1.06c-.78-1.27-1.61-2.5-2.41-3.75a2,2,0,0,1-.23-.64c-.12-.52-.22-1.06-.34-1.59a3.58,3.58,0,0,1,.05-1.75c.11-.41.17-.84.28-1.26.06-.22.17-.44.32-.83a3.14,3.14,0,0,1,.44.72,3,3,0,0,0,.56,1.22.38.38,0,0,1,.09.18A12.62,12.62,0,0,0,219,124a4.78,4.78,0,0,1,1.13,2.2.94.94,0,0,0,.08.33,3.6,3.6,0,0,1-.12,3,1.28,1.28,0,0,1-.61.77A4.55,4.55,0,0,0,218.86,130.68Z"/><path d="M292,92.58a2,2,0,0,1,.23.67,11,11,0,0,1-.24,2.08,21.57,21.57,0,0,1-.77,2.31.91.91,0,0,0,1,.2c.31,0,.6-.18.91-.26s.61,0,.72.37,0,.69-.38.73a3.87,3.87,0,0,1-2.21,0,2.36,2.36,0,0,0-.6-.11l-.86-.12c0-.4,0-.76.08-1.11a2.3,2.3,0,0,0-.34-1.75,3.82,3.82,0,0,1-.34-.74c-.22-.54-.18-1.16-.68-1.59-.14-.12-.11-.43-.18-.65s-.25-.71-.39-1.06a2,2,0,0,1-.15-.38c0-.81-.07-1.63-.1-2.44,0-.26.05-.56.32-.61s.41.13.6.23a.57.57,0,0,1,.29.28,13.3,13.3,0,0,1,1.1,2.16c.18.77.41,1.53.63,2.29.05.15.2.38.31.39a.74.74,0,0,0,.48-.27,3.13,3.13,0,0,0,.38-.61Z"/><path d="M208.79,97.81c-.24-.81-.4-1.47-.65-2.1a5.54,5.54,0,0,1-.34-2.48,2.81,2.81,0,0,1,.23-.65l.17,0c.13.2.26.39.38.59s.26.43.51.32a.74.74,0,0,0,.35-.44c.23-.81.41-1.62.63-2.43a5.42,5.42,0,0,1,.35-.73,4.9,4.9,0,0,1,.39-.71,7,7,0,0,1,.82-1c.32-.27.59-.12.67.3a1.3,1.3,0,0,1,0,.34c0,.61,0,1.23,0,1.84a4.35,4.35,0,0,1-.3,1c-.08.26-.19.51-.26.77a2,2,0,0,1-.54,1.28c-.1.08-.09.29-.15.44a8,8,0,0,1-.58,1.52,2.53,2.53,0,0,0-.32,1.63s0,.09,0,.13c.18,1,.12,1.21-.92,1.17a1,1,0,0,0-.46.08,3.6,3.6,0,0,1-2.08.09.57.57,0,0,1-.54-.6c0-.48.28-.69.75-.56.32.09.65.21,1,.27A5.86,5.86,0,0,0,208.79,97.81Z"/><path d="M281,116.5c0,.42-.23.5-.45.62s-.53.34-.8.49-.49.21-.74.31c-.45.16-.89.33-1.34.47a5.51,5.51,0,0,1-1.32.31c-1.22,0-2.44,0-3.67,0a3,3,0,0,1-1.71-.55,5.09,5.09,0,0,1-1.29-1.16,2.24,2.24,0,0,1-.44-1.85,1.23,1.23,0,0,1,1-1.08,1.31,1.31,0,0,1,1.48.55,1.82,1.82,0,0,1,.31.45,3.33,3.33,0,0,0,1.85,1.8,2.8,2.8,0,0,0,1.18.28c1,0,2,0,3.06-.08a2.94,2.94,0,0,0,.95-.34A2.85,2.85,0,0,1,281,116.5Z"/><path d="M226.49,118.84c-1,0-2,0-3-.15a6.8,6.8,0,0,1-1.42-.43c-.28-.09-.55-.21-.84-.28a2.37,2.37,0,0,1-1.26-.59c-.17-.19-.5-.22-.72-.37s-.17-.27-.25-.41c.13-.06.27-.19.4-.17a3,3,0,0,1,1.25.24,4.56,4.56,0,0,0,2.16.52c.49,0,1,0,1.49,0a4.07,4.07,0,0,0,2.82-1,3.48,3.48,0,0,0,.6-.72c.18-.26.31-.55.49-.81a1.36,1.36,0,0,1,1.7-.55c.61.22.86.68.83,1.47a2.94,2.94,0,0,1-1.56,2.44A4.85,4.85,0,0,1,226.49,118.84Z"/><path d="M268.13,102.91c0,.09,0,.15-.07.16a3.31,3.31,0,0,0-1.4,1.12,3.13,3.13,0,0,0-.57.9c-.14.38-.35.73-.46,1.12a2.3,2.3,0,0,0,.77,2.15,10,10,0,0,1,1.27-.63,1.28,1.28,0,0,1,1.52.87,3.17,3.17,0,0,1,.11.86,1.55,1.55,0,0,1-1.56,1.63,2.57,2.57,0,0,1-2.54-1.2,3.35,3.35,0,0,1-.66-2.16c0-.45,0-.9,0-1.36a2.33,2.33,0,0,1,.51-1.36,7.38,7.38,0,0,1,1-1.28c.38-.31.71-.68,1.11-1S267.82,102.72,268.13,102.91Z"/><path d="M233.49,108.4a2.45,2.45,0,0,0,.9-2,2.31,2.31,0,0,0-.2-.63c0-.11-.15-.2-.16-.3-.1-.83-.76-1.3-1.2-1.91a1.31,1.31,0,0,0-.45-.3l-.6-.32c.65-.42.86-.4,1.26,0s.64.5.9.79a14.69,14.69,0,0,1,1.15,1.48,1.62,1.62,0,0,1,.27.76,17.2,17.2,0,0,1,0,2.38,3.22,3.22,0,0,1-1.63,2.45,2.26,2.26,0,0,1-2.29,0,2,2,0,0,1-.53-2.69,1.59,1.59,0,0,1,2-.21C233.12,108.09,233.27,108.22,233.49,108.4Z"/><path d="M170.3,121.21a3.86,3.86,0,0,1-1.43-.52,2,2,0,0,1-.81-1.65c.23-1.23.75-2.08,2.23-2.09a2.13,2.13,0,0,1,2.14,2.15A2.27,2.27,0,0,1,170.3,121.21Z"/><path d="M329.67,121.09a2,2,0,0,1-2.12-2.1,2.16,2.16,0,0,1,2.1-2,2,2,0,0,1,1.5.49,3.3,3.3,0,0,1,.75,1.63c.09.61-.39,1.15-.77,1.61A1.72,1.72,0,0,1,329.67,121.09Z"/><path d="M252.37,131a.6.6,0,0,1-.43.69,1.91,1.91,0,0,0-1.28,1.46.65.65,0,0,1-.66.57c-.32,0-.53-.08-.62-.4,0-.13-.09-.25-.13-.38a1.63,1.63,0,0,0-1.05-1.17c-.33-.12-.6-.28-.59-.72a.77.77,0,0,1,.59-.81,1.6,1.6,0,0,0,1.07-1.22,1.92,1.92,0,0,1,.18-.45c.12-.28.38-.27.63-.28a.47.47,0,0,1,.5.36,3,3,0,0,1,.13.39,1.66,1.66,0,0,0,1.1,1.21A.69.69,0,0,1,252.37,131Z"/><path d="M333.83,113.31a2.15,2.15,0,0,1,2,1.86,2.61,2.61,0,0,1-1.91,1.91,2,2,0,0,1-1.82-2A1.76,1.76,0,0,1,333.83,113.31Z"/><path d="M166.07,113.22a1.93,1.93,0,0,1,1.83,2,2.06,2.06,0,0,1-1.78,1.89,2.45,2.45,0,0,1-1.92-1.86,2.2,2.2,0,0,1,.78-1.53C165.22,113.41,165.7,113.37,166.07,113.22Z"/><path d="M242.28,103c-.28.11-.43,0-.52-.27a4.43,4.43,0,0,1-.22-2.87,1.58,1.58,0,0,1,1.93-1.09,1.5,1.5,0,0,1,1.1,1.72.69.69,0,0,1-.19.42c-.45.28-.75.86-1.45.71-.34-.08-.59.23-.64.64A6.06,6.06,0,0,0,242.28,103Z"/><path d="M257.86,103.1c-.06-.32-.11-.52-.14-.73-.1-.58-.29-.72-.9-.74a1.61,1.61,0,0,1-.54-.2c-.12-.06-.2-.2-.31-.26a1,1,0,0,1-.54-1.32,1.44,1.44,0,0,1,1.09-1.1,1.56,1.56,0,0,1,1.89,1,4.37,4.37,0,0,1-.26,3C258.12,102.9,258.05,102.93,257.86,103.1Z"/><path d="M291.79,100.39a5.3,5.3,0,0,0,.45,1.17,2.75,2.75,0,0,0,1.1,1.17.69.69,0,0,1,.31.25.26.26,0,0,1-.24.41,2.08,2.08,0,0,1-1-.38,2.06,2.06,0,0,0-1.68-.53l-1,.08a.46.46,0,0,1-.55-.39.63.63,0,0,1,.24-.48,1,1,0,0,0,.44-.74,2.43,2.43,0,0,1,.82-1.3.64.64,0,0,1,.86-.08C291.83,99.74,292,99.93,291.79,100.39Z"/><path d="M206.31,103.48a.76.76,0,0,1,.37-.79,2.78,2.78,0,0,0,1.42-2.57.52.52,0,0,1,.38-.57.54.54,0,0,1,.69,0,2.47,2.47,0,0,1,1,1.37,1,1,0,0,0,.47.78.49.49,0,0,1,.19.44.65.65,0,0,1-.42.36,11,11,0,0,1-1.15,0,2.1,2.1,0,0,0-1.67.54c-.29.28-.83.3-1.25.44Z"/><path d="M338.4,114.93a1.44,1.44,0,0,1-1.43-1.34,1.51,1.51,0,0,1,1.42-1.38c.72.07,1.48.48,1.44,1.4A1.35,1.35,0,0,1,338.4,114.93Z"/><path d="M161.61,114.93a1.34,1.34,0,0,1-1.45-1.37,1.48,1.48,0,0,1,1.31-1.37,1.68,1.68,0,0,1,1.55,1.44A1.56,1.56,0,0,1,161.61,114.93Z"/><path d="M157,114.93a1.19,1.19,0,0,1-1.13-1.14c0-.27.78-1,1-1a1.16,1.16,0,0,1,1.07,1.11C157.9,114.66,157.74,115,157,114.93Z"/><path d="M344.16,113.76c-.09.23-.16.44-.26.64a1,1,0,0,1-1.27.51.84.84,0,0,1-.6-1,2,2,0,0,1,.46-1,.75.75,0,0,1,1.12.11C343.78,113.27,344,113.48,344.16,113.76Z"/><path d="M346,115.47a.52.52,0,0,1,.57-.6c.51,0,.84.17.85.48a.91.91,0,0,1-.88.93C346.19,116.28,346,116,346,115.47Z"/><path d="M154,115.46c0,.58-.19.83-.57.81a.86.86,0,0,1-.84-.89c0-.32.4-.54.9-.51A.53.53,0,0,1,154,115.46Z"/><path d="M250,88.75c-.47,0-.72-.14-.7-.42a.62.62,0,0,1,.7-.57c.41,0,.7.23.71.55S250.44,88.75,250,88.75Z"/><path d="M295.64,103.83a1.55,1.55,0,0,1-1.85-.2A1.79,1.79,0,0,1,295.64,103.83Z"/><path d="M206.29,103.46c-.09.15-.15.38-.27.43a2.32,2.32,0,0,1-1.66-.06,3,3,0,0,1,1.95-.35Z"/><path d="M351.84,120a4,4,0,0,1-.71.3c-.22.07-.5-.2-.47-.43s.19-.43.46-.36a3.62,3.62,0,0,1,.71.28Z"/><path d="M148,119.88a3.83,3.83,0,0,1,.87-.36.58.58,0,0,1,.43.2.34.34,0,0,1,0,.35.67.67,0,0,1-.44.22A5.15,5.15,0,0,1,148,119.88Z"/><path d="M150.55,116.94l.45.59c-.46.53-.51.53-.93,0Z"/><path d="M349.46,117l.52.66-.48.43-.57-.46Z"/><path d="M250.45,90c-.3.22-.55.14-.91.07A.88.88,0,0,1,250.45,90Z"/><path d="M85.47,364a2.36,2.36,0,0,0,.38.3c.44.24.87.47,1.33.67,1.53.67,3,1.4,4.81,1.12a.08.08,0,0,1,.07,0c.48,0,.57.13.54.62s0,1.09-.08,1.63a3.69,3.69,0,0,0,1,2.25c.18.26.39.27,1,.23a5,5,0,0,0,.2-.89,4.07,4.07,0,0,1,1.17-2.33,5.9,5.9,0,0,1,1.59-1.44A11.91,11.91,0,0,1,99.57,365a6.31,6.31,0,0,1,2.31-.43,1.81,1.81,0,0,1,1.51.77,3,3,0,0,0,2,1.12c.77.14,1.32-.39,1.88-.81a5,5,0,0,0,.77-.76.81.81,0,0,1,.72-.3H214.83c.49,0,1-.08,1.49-.11s.82,0,1.22,0c.75,0,1.5.11,2.24.11H281.5c.32,0,.63-.07.95-.08s.77,0,1.15,0c.68,0,1.36.11,2,.11H371.3l19.5,0a1.64,1.64,0,0,1,1.38.55,4.77,4.77,0,0,0,1.51,1.15,1.52,1.52,0,0,0,1.43.06,3.44,3.44,0,0,0,1.67-1.23,1.37,1.37,0,0,1,1.2-.52,5.88,5.88,0,0,1,3.58,1,10,10,0,0,1,1.52,1,5.45,5.45,0,0,1,2.15,3.32,9.24,9.24,0,0,0,.21.91c.64.11.95-.2,1.3-.66a4.22,4.22,0,0,0,.65-3.37c-.11-.71.13-.89.85-.73a2.69,2.69,0,0,0,.8,0q.84-.12,1.68-.3a3.31,3.31,0,0,0,.68-.29l.66-.35,1.08-.53.63-.27.75-.34a2.57,2.57,0,0,0-1.36-1.17c-.39-.16-.77-.37-1.16-.55a5.55,5.55,0,0,0-.56-.24,7.11,7.11,0,0,0-1.26-.48,7.42,7.42,0,0,0-1.88-.2c-.82,0-1-.12-.88-1a3.53,3.53,0,0,0-.52-2.73,3.67,3.67,0,0,1-.26-.48c-.26-.48-.42-.54-.93-.44a.49.49,0,0,0-.44.45l0,.2c-.14,1.78-1.28,2.89-2.6,3.87-.63.46-1.33.84-2,1.25a1.77,1.77,0,0,1-.49.21,7,7,0,0,1-2.78.08,1.38,1.38,0,0,1-.62-.35c-.25-.21-.46-.49-.71-.7a2.44,2.44,0,0,0-3.25.12c-1,1-1,1-2.49,1H284c-.61,0-1.22.09-1.83.13a3.25,3.25,0,0,1-.54,0c-.75,0-1.49-.14-2.24-.14H219.84c-.48,0-1,.09-1.43.13a4.87,4.87,0,0,1-.54,0c-.67-.05-1.35-.14-2-.14q-22.64,0-45.28,0h-49c-4.18,0-8.37,0-12.55,0a1.36,1.36,0,0,1-1.3-.56,2.69,2.69,0,0,0-.82-.79,3.58,3.58,0,0,0-1.1-.3,2.28,2.28,0,0,0-2.43,1.12,1.08,1.08,0,0,1-.9.5,16.14,16.14,0,0,1-1.84,0,2.28,2.28,0,0,1-1.56-.58.92.92,0,0,0-.24-.13,6.68,6.68,0,0,1-2.63-1.87,4.35,4.35,0,0,1-1.44-3,.48.48,0,0,0-.47-.55c-.52-.08-.65,0-.86.32a7.73,7.73,0,0,0-.51.88,4.25,4.25,0,0,0-.32,1.09,7.42,7.42,0,0,0,0,1.49c.06.73-.12.91-.82.86a3.19,3.19,0,0,0-1.48.06,11.89,11.89,0,0,0-2.62,1.06,3.52,3.52,0,0,1-.82.33A2.41,2.41,0,0,0,85.47,364Z"/><path d="M325.78,378.4c0,.41.08.82.09,1.23a14.2,14.2,0,0,1-.31,4.86c-.17.52-.19,1.07-.31,1.61a4.46,4.46,0,0,1-.34,1.09,15.43,15.43,0,0,1-1.09,2.33c-.41.56-.73,1.19-1.12,1.77s-.8,1-1.16,1.58A5.32,5.32,0,0,0,321,394a1.45,1.45,0,0,0,0,.85,2.19,2.19,0,0,0,.48.74.91.91,0,0,0,.45.27,1.26,1.26,0,0,0,1.38-.5,10.43,10.43,0,0,1,.8-1c.12.09.2.13.22.18a2.71,2.71,0,0,1,.06,2.43,1.9,1.9,0,0,1-1.41,1.16,3.79,3.79,0,0,1-3.14-.7,4.55,4.55,0,0,1-1.54-1.91,1.56,1.56,0,0,0-.17-.37,2.59,2.59,0,0,1-.49-1.6c0-1,0-2,0-3.06a2.9,2.9,0,0,1,.49-1.81.84.84,0,0,0,.15-.38,3.32,3.32,0,0,1,.65-1.76c.19-.24.22-.54-.21-.72a3.59,3.59,0,0,1-.6.72,1.33,1.33,0,0,0-.54.82.92.92,0,0,1-.22.5c-.49.41-.45,1-.6,1.54a15.92,15.92,0,0,1-.65,1.55,3.74,3.74,0,0,0-.1.67,6.3,6.3,0,0,1-.19,1.07,15,15,0,0,0-.6,4.57,1.77,1.77,0,0,1-.15.79,4.48,4.48,0,0,1-2.72,2.22,27.94,27.94,0,0,1-4,.82,1.85,1.85,0,0,0-1.37,1,1,1,0,0,0,.49,1.46c.17.08.34.19.53.29a2.19,2.19,0,0,1-3.5-.82c-.14-.38-.27-.77-.38-1.17a1.3,1.3,0,0,1,0-.59,7.31,7.31,0,0,1,1.5-3.36,13.59,13.59,0,0,1,4.91-3.52,9.71,9.71,0,0,0,2.44-1.53,14.27,14.27,0,0,0,2.85-3.67,1.49,1.49,0,0,0,.15-.52.32.32,0,0,0-.26-.39c-.52.49-1,.95-1.45,1.36a11.9,11.9,0,0,1-1.52,1.12c-.66.38-1.36.7-2.06,1-.36.17-.77.26-1.13.45a3.88,3.88,0,0,1-1.76.46,6.24,6.24,0,0,1-3.11-.53,8.2,8.2,0,0,1-1.79-1.28,5.94,5.94,0,0,1-.9-1.34,4.69,4.69,0,0,1-.53-1.24c-.26-.79-.57-1.56-.87-2.34a1.19,1.19,0,0,0-.16-.23,3.79,3.79,0,0,0-1.77-1.31c-.25-.11-.53-.15-.6-.56.61-.31,1.22-.64,1.84-.95a.77.77,0,0,1,.4-.07c1.41.11,2.88-.26,4.19.56a9.42,9.42,0,0,1,2.65,1.18,7.07,7.07,0,0,0,1.87.57,13.3,13.3,0,0,0,4.13-.13,2,2,0,0,0,.58-.19c.79-.39,1.59-.76,2.35-1.2a16.93,16.93,0,0,0,1.75-1.14c.55-.4,1.06-.86,1.6-1.27s.52-.47.28-1.23a2.54,2.54,0,0,1-1.87-.17,3,3,0,0,1-1.84-1.76c-.08-.23-.23-.44-.32-.68a2.09,2.09,0,0,1-.17-.64c-.05-.64.2-.89.84-.83a1,1,0,0,1,.54.24,1.55,1.55,0,0,0,1.17.45,5.4,5.4,0,0,0,3-.54,6,6,0,0,0,2.18-1.62.61.61,0,0,1,.23-.15l.79-.3a2,2,0,0,1,0,.56,8.34,8.34,0,0,0-.34,2.76c0,2,0,4-.06,6a6.84,6.84,0,0,1-.34,1.51c-.12.43-.31.84-.41,1.28a2,2,0,0,1-.35.86.86.86,0,0,0,0,1.18c.17-.28.26-.67.5-.79.48-.23.51-.64.64-1a2.27,2.27,0,0,1,.33-.66,2,2,0,0,0,.4-1.06c.13-.83.3-1.65.45-2.47.06-.33.16-.66.19-1,.06-.81.1-1.63.13-2.45a1.58,1.58,0,0,1,.4-1.09C325.7,377.94,325.75,378.17,325.78,378.4ZM306.72,390a7.84,7.84,0,0,0,2.28.55,2.9,2.9,0,0,0,1.45-.31,2.23,2.23,0,0,1,.61-.28,5.86,5.86,0,0,0,2.33-1,16.22,16.22,0,0,0,2.15-1.84c.12-.12.12-.37.19-.59-.11,0-.14,0-.17,0-.34.15-.77.22-1,.48s-.69.32-1,.53a10.53,10.53,0,0,1-2.31.9,6.54,6.54,0,0,1-3.6.39,5.05,5.05,0,0,0-.67-.06,2,2,0,0,1-1-.27,2.61,2.61,0,0,0-1-.24c-.15,0-.31.15-.52.25A6.87,6.87,0,0,0,306.72,390Z"/><path d="M192.52,403.61a1,1,0,0,0,.57-1.33,1.58,1.58,0,0,0-1.14-1.07c-1.22-.27-2.45-.48-3.67-.73a4,4,0,0,1-.91-.25,5.9,5.9,0,0,1-1.12-.64,3,3,0,0,1-1.5-2.72,10.67,10.67,0,0,0-.06-1.49,9.22,9.22,0,0,0-.55-2.79,3,3,0,0,1-.1-.61,3.91,3.91,0,0,0-.67-2.17.73.73,0,0,1-.12-.32,2.78,2.78,0,0,0-.68-1.72c-.1-.87-.89-1.26-1.27-1.94-.4.36-.41.46-.18.86a2.86,2.86,0,0,1,.42.76,4.79,4.79,0,0,0,.63,1.79.89.89,0,0,1,.12.52c.05,1.25.11,2.5.1,3.74a2.61,2.61,0,0,1-.51,1.73,2.46,2.46,0,0,0-.26.62,1.6,1.6,0,0,1-.24.49,8.15,8.15,0,0,1-1.89,1.62,1,1,0,0,1-.51.18c-.7,0-1.4,0-2.1,0a2.3,2.3,0,0,1-1.37-1.31,3.69,3.69,0,0,1,.08-1.95,1.68,1.68,0,0,1,.23-.38,1.08,1.08,0,0,1,.23.1c.26.29.5.58.75.88a1.15,1.15,0,0,0,1.9-.1,1.85,1.85,0,0,1,.24-.33.63.63,0,0,0,.15-.75,15.71,15.71,0,0,0-.85-1.69c-.32-.52-.73-1-1.09-1.47a4.62,4.62,0,0,1-.72-1.06,12.62,12.62,0,0,1-1.1-2.32,3,3,0,0,0-.15-.38c-.17-.49-.35-1-.49-1.47s-.1-.77-.22-1.14a9.94,9.94,0,0,1-.4-3.43c0-.75,0-1.5.06-2.25,0-.46.1-.92.15-1.38l.17,0a2.7,2.7,0,0,1,.19.59c.07.75.08,1.5.15,2.24s.19,1.16.29,1.74c.13.74.29,1.47.39,2.21a2.62,2.62,0,0,0,.44,1.26,2.33,2.33,0,0,1,.34.73c.11.38.19.74.61.92.12,0,.17.24.25.37l.3.47a.75.75,0,0,0,0-1.1,2.3,2.3,0,0,1-.42-1.06c-.12-.43-.28-.85-.41-1.28a4.39,4.39,0,0,1-.3-1.1c-.07-1.64-.09-3.27-.12-4.91,0-.79,0-1.59,0-2.38a13.94,13.94,0,0,0-.26-1.68c0-.23-.09-.45-.14-.71l.72.32a1.05,1.05,0,0,1,.4.23A4,4,0,0,0,179,376a1,1,0,0,1,.35.2,1.79,1.79,0,0,0,1.21.4c1,0,2,.24,2.84-.57.16-.16.66-.06,1,0s.14.42.15.67a4.15,4.15,0,0,1-.56,1.59,2.49,2.49,0,0,1-1.18,1.25,3,3,0,0,1-2.34.48s-.07,0-.15.08c-.07.35-.21.7.2,1,1,.72,1.88,1.49,2.87,2.17a16.48,16.48,0,0,0,1.9,1l.87.39a3.14,3.14,0,0,0,.75.29,13.84,13.84,0,0,0,4.54.09,14.42,14.42,0,0,0,2.62-1.08c.38-.14.73-.34,1.11-.5a3.4,3.4,0,0,0,.7-.24,2.94,2.94,0,0,1,1.83-.41c.56,0,1.13-.05,1.7,0a3.16,3.16,0,0,1,1.06.19,10.07,10.07,0,0,1,1.26.66,4.14,4.14,0,0,1,.42.31c-.32.17-.55.33-.81.44a3.49,3.49,0,0,0-1.85,1.53,14.31,14.31,0,0,0-.84,2.15,7.11,7.11,0,0,1-.67,1.62,4.89,4.89,0,0,1-2.64,2.4c-.15.05-.28.16-.43.21a4.32,4.32,0,0,1-1,.3,11.3,11.3,0,0,1-1.84,0,5,5,0,0,1-1.32-.31,23.57,23.57,0,0,1-2.42-1.05,15.77,15.77,0,0,1-2-1.32c-.66-.51-1.26-1.11-1.91-1.67-.37.22-.25.51-.13.77s.33.45.41.7a5.71,5.71,0,0,0,1.25,1.84,8.44,8.44,0,0,0,2.55,2.2c.71.34,1.35.81,2.07,1.12a11.85,11.85,0,0,1,1.37.71,8.85,8.85,0,0,1,2.36,2l.8,1.09a5.55,5.55,0,0,1,.95,2.78,1,1,0,0,1-.08.46c-.12.37-.24.74-.39,1.1a2.18,2.18,0,0,1-3.47.75A5,5,0,0,1,192.52,403.61Zm1.69-15.27a7.78,7.78,0,0,1-3.84.54,3.77,3.77,0,0,1-1-.19c-.63-.17-1.26-.36-1.89-.56a3,3,0,0,1-.48-.23l-1-.51c-.16-.08-.37-.13-.45-.26a1.15,1.15,0,0,0-1.11-.46c-.16.29,0,.46.17.61a18.44,18.44,0,0,0,1.81,1.52,14.13,14.13,0,0,0,2,1,5.67,5.67,0,0,1,.76.27,4.09,4.09,0,0,0,3.43.25,6.45,6.45,0,0,0,1.72-.76,6.66,6.66,0,0,0,1.06-1A.89.89,0,0,0,194.21,388.34Z"/><path d="M261.32,375.51c.16.49.31,1,.49,1.48a1.91,1.91,0,0,1,0,1.39,3.42,3.42,0,0,1-1,1.67,2.41,2.41,0,0,1-.85.52c-.54.15-1.08.33-1.62.46a1,1,0,0,1-.53,0,4,4,0,0,1-2.23-1.34,6.34,6.34,0,0,1-1-1.93,8.8,8.8,0,0,1,0-3.65,3.58,3.58,0,0,1,.36-.94c.23-.44.49-.86.76-1.28a8.67,8.67,0,0,1,2-1.84,1.8,1.8,0,0,1,.48-.24c.16-.08.37-.09.5-.2a5,5,0,0,1,2.73-.71,19.19,19.19,0,0,1,4.28.17,1,1,0,0,1,.39.08,28.8,28.8,0,0,1,2.82,1.16c.55.36,1.16.61,1.71,1s1.24.82,1.84,1.25.93.73,1.38,1.11a30.52,30.52,0,0,1,3.66,3.62c.75.87,1.53,1.73,2.26,2.61.89,1.07,1.74,2.18,2.63,3.25s1.76,2,2.64,3.05c.39.45.76.9,1.13,1.36.19.24.26.48,0,.7a.48.48,0,0,1-.77-.07,4.87,4.87,0,0,0-5.32-1.39,2.94,2.94,0,0,0-1.66,1.33c-.17.27-.37.52-.51.8-.28.57-.08.87.54.86a9.38,9.38,0,0,1,1.29-.07,7.33,7.33,0,0,1,2,.56,5.35,5.35,0,0,0,3.72.3,1.39,1.39,0,0,1,1.61.35,1,1,0,0,0,1.31.18,1.2,1.2,0,0,1,1.55.19c.51.45,1,.91,1.55,1.31s1.08.73,1.62,1.09c.19.13.36.27.55.39a1.76,1.76,0,0,0,.58.32,2.55,2.55,0,0,1,1.65,1.22.69.69,0,0,0,.61.33c1.4,0,2.81.1,4.22.11a6.3,6.3,0,0,0,1.18-.23l1.27-.24c-1.3-.15-2.66-.29-4-.47a8.66,8.66,0,0,1-1.3-.36c-.28-.09-.54-.23-.83-.3a2,2,0,0,1-1.14-.54.21.21,0,0,0-.11-.08,10.94,10.94,0,0,1-1.76-.84,17.38,17.38,0,0,1-1.74-1.14c-.59-.33-1-.88-1.61-1.23a1.9,1.9,0,0,1-.85-1.25,2.43,2.43,0,0,0-.53-1.15,1.19,1.19,0,0,1,0-1.42,2.58,2.58,0,0,0,.12-2.47,5.42,5.42,0,0,1-.17-.8c-.15-.61-.27-1.24-.48-1.84a2.2,2.2,0,0,1,0-1.71c.1-.23.34-.52.08-.67a1.05,1.05,0,0,0-.89-.08,5.19,5.19,0,0,0-2,1.75,4.49,4.49,0,0,0-.53,3.06,6.16,6.16,0,0,0,.36,1c-.54-.18-1-.3-1.27-.88a3.85,3.85,0,0,0-.87-1.1,44.34,44.34,0,0,1-3.05-3.79c-1.05-1.28-2.06-2.58-3.16-3.8s-2.45-2.66-3.74-3.92a29.52,29.52,0,0,0-2.37-1.91c-.47-.37-1-.73-1.47-1.08-.16-.11-.36-.17-.54-.28a14,14,0,0,0-2.86-1.19,5.44,5.44,0,0,0-1-.32,20.7,20.7,0,0,0-5.83.05,6.08,6.08,0,0,0-1.1.34,2.72,2.72,0,0,1-.44.18,5.83,5.83,0,0,0-2.35,1,9.13,9.13,0,0,0-1.83,1.52,6.77,6.77,0,0,0-1.29,1.64,7.74,7.74,0,0,0-1,2.35c-.09.58-.28,1.14-.41,1.72a6.22,6.22,0,0,0,.14,3.55,1.43,1.43,0,0,1,.11.39,6.49,6.49,0,0,0,1.06,2.84,10.6,10.6,0,0,0,1.63,2,17.39,17.39,0,0,0,1.63,1.32l.12.07c.91.26,1.81.57,2.74.78a3.2,3.2,0,0,0,2.12-.29.93.93,0,0,1,.31-.13,5.88,5.88,0,0,0,2.32-1.08,3.58,3.58,0,0,0,1.09-1,5,5,0,0,0,1.1-3.14,17.82,17.82,0,0,0-.17-2.31,4.38,4.38,0,0,0-1.59-2.61c-.24-.2-.5-.38-.76-.56A1.17,1.17,0,0,0,261.32,375.51Z"/><path d="M214.23,385.1c0-.16,0-.33.05-.4.52-.51.31-1.16.34-1.75a2.22,2.22,0,0,0-.42-1.68,3,3,0,0,1-.29-.53,2.22,2.22,0,0,0-.9-1c-.25-.16-.48-.34-.74-.48a1.45,1.45,0,0,0-.57-.17c-.61,0-.75.19-.52.74a2.18,2.18,0,0,1,0,2,4.6,4.6,0,0,0-.3,1c-.16.69-.29,1.38-.47,2.06a1.94,1.94,0,0,0,.19,1.56,4.34,4.34,0,0,1,.31.9,1,1,0,0,1-.26.94,1.31,1.31,0,0,0-.35.56c-.06,1.19-.92,1.75-1.75,2.34-.59.42-1.16.86-1.74,1.28-.15.11-.31.19-.46.28l-.92.56-.11.08c-.73.32-1.47.65-2.21,1-.33.14-.68.26-1,.38a4.9,4.9,0,0,1-1,.29c-1.46.18-2.93.33-4.23.47l1.31.42a2.42,2.42,0,0,0,.54.06c.81,0,1.63-.07,2.45-.09s1.36,0,2,0a.89.89,0,0,0,.85-.38,3,3,0,0,1,1.6-1.2,3,3,0,0,0,.7-.39,2.4,2.4,0,0,1,.38-.27,6.86,6.86,0,0,0,2-1.4c.51-.45,1.06-.85,1.6-1.26a1,1,0,0,1,1.09-.09,1.23,1.23,0,0,0,1.7-.26,1.18,1.18,0,0,1,1.34-.21,5.44,5.44,0,0,0,4.2-.45,4.69,4.69,0,0,1,2.12-.37c.32,0,.64.06,1,.06s.59-.24.44-.57a4.86,4.86,0,0,0-1.12-1.73c-1.37-1.23-2.95-1.08-4.5-.65a4.66,4.66,0,0,0-1.77,1.19c-.55.5-.66.56-1.21-.13.46-.58.93-1.18,1.42-1.76s.86-1,1.29-1.46l.77-.93,2-2.44c.78-.94,1.55-1.89,2.34-2.81s1.52-1.74,2.33-2.56a37.57,37.57,0,0,1,2.91-2.73,14.63,14.63,0,0,1,2.75-2c.7-.34,1.37-.77,2.05-1.17l.18-.09a16.67,16.67,0,0,1,4.07-1,23.38,23.38,0,0,1,4,.12,3.67,3.67,0,0,1,1.4.49,12.75,12.75,0,0,1,1.64.93,9.54,9.54,0,0,1,2.05,2.33,5,5,0,0,1,.65,2.52c0,.64,0,1.28,0,1.91a4.1,4.1,0,0,1-1.76,3.16,3.08,3.08,0,0,1-3,.52,4.2,4.2,0,0,1-1.86-1.16,3.64,3.64,0,0,1-.38-.7,2.66,2.66,0,0,1,0-2.54,3.58,3.58,0,0,0,.19-.58c.13-.43,0-.75-.48-.73a2.35,2.35,0,0,0-1,.26,5.22,5.22,0,0,0-2.15,2.47,5,5,0,0,0-.32,1.66c0,.47,0,1,0,1.43a4.72,4.72,0,0,0,1.92,3.86,4.29,4.29,0,0,0,2.19,1.17,2.29,2.29,0,0,1,.71.24,3.77,3.77,0,0,0,3.1,0,3.1,3.1,0,0,1,.64-.24,5.64,5.64,0,0,0,3.23-2.09,7.31,7.31,0,0,0,1.09-1.29,8.06,8.06,0,0,0,1.06-2.26c.1-.56.3-1.09.41-1.65a7.21,7.21,0,0,0,0-3.3,3.91,3.91,0,0,1-.21-.72,6.67,6.67,0,0,0-1.05-3,10.57,10.57,0,0,0-1.6-2,9.08,9.08,0,0,0-2.21-1.66,13.11,13.11,0,0,0-7.55-1.44c-.41,0-.82,0-1.22.08a8.22,8.22,0,0,0-1.2.24c-.58.18-1.16.39-1.73.6a3.92,3.92,0,0,0-.53.29,2.75,2.75,0,0,1-.52.31,3.31,3.31,0,0,0-1.12.61c-.79.64-1.66,1.17-2.46,1.81a26.2,26.2,0,0,0-2,1.8c-.7.7-1.39,1.41-2,2.16-.9,1-1.74,2.09-2.61,3.13-.38.47-.79.92-1.17,1.4-.63.79-1.25,1.6-1.88,2.4-.36.45-.72.9-1.1,1.34a6.53,6.53,0,0,0-1,1.17A2.44,2.44,0,0,1,214.23,385.1Z"/><path d="M339.42,375.84a1.24,1.24,0,0,0-.44.89.61.61,0,0,0,.38.76,1.09,1.09,0,0,0,1.26-.41,5.15,5.15,0,0,0,.41-1.22c.16-.73.28-1.47.37-2.21s.63-1.19,1-1.75c.07-.12.32-.15.49-.16.75-.06.79-.09.8-.85v-.27a2.75,2.75,0,0,1,2-2.32,4.91,4.91,0,0,1,3.55.51,5.38,5.38,0,0,1,2.3,2.9,6.92,6.92,0,0,1,0,4.27,7.31,7.31,0,0,1-.89,2,8.26,8.26,0,0,1-1.2,1.54,7.75,7.75,0,0,1-3.08,1.9,1,1,0,0,0-.25.11,3.07,3.07,0,0,1-1.61.49c-.65.09-1.3.2-2,.24a15.06,15.06,0,0,1-1.9,0c-.73-.05-1.45-.17-2.16-.29a5.35,5.35,0,0,1-1-.29c-.39-.14-.75-.31-1.13-.47a5.8,5.8,0,0,1-.62-.27c-.61-.38-1.2-.79-1.83-1.15a11.64,11.64,0,0,1-2.53-2.11,12.56,12.56,0,0,1-1-1.16c-.43-.57-.82-1.18-1.22-1.78-.09-.13-.14-.3-.26-.39a1.43,1.43,0,0,1-.48-.94c-.06-.32-.05-.66-.39-.9s-.17-.88,0-1.14a1.16,1.16,0,0,0,.07-1.36c-.33-.52-.66-1-1-1.56a.79.79,0,0,1,.08-1.08c.39.39.77.78,1.18,1.15a6,6,0,0,0,1.22,1.05,7.25,7.25,0,0,0,2.26,1.08,1.69,1.69,0,0,1,.37.15,7.19,7.19,0,0,0,1.16.39c1.51.28,3,.5,4.56.76.34.06.73.06.93.49-.51.44-.86,1.07-1.59,1.22a.35.35,0,0,0-.23.14,1.85,1.85,0,0,1-1.53.6c-.64,0-1.27.06-1.91.11a4.21,4.21,0,0,0-.6.11v.17a5.73,5.73,0,0,0,2.43.4c.7-.08,1.39-.19,2.1-.25a5.43,5.43,0,0,1,1.21,0,1.16,1.16,0,0,1,.95.52A2.81,2.81,0,0,1,339.42,375.84Zm2.54,4.75c-.43,0-.87,0-1.3,0a1.85,1.85,0,0,1-1.31-.43,2.36,2.36,0,0,0-1.09-.32,2.06,2.06,0,0,1-1.34-.59.35.35,0,0,0-.23-.12c-.77-.09-1.23-.73-1.9-1a3.88,3.88,0,0,1-1.05-.82c-.65-.6-1.31-1.19-1.92-1.82s-.86-1.05-1.29-1.56a3.59,3.59,0,0,0-.35-.32,1.08,1.08,0,0,1-.3-.34,1.3,1.3,0,0,0-.67-.8c-.13-.06-.2-.28-.27-.44s-.12-.42-.18-.61c-.37,0-.52.18-.47.43s.14.62.31.68a.68.68,0,0,1,.5.71.47.47,0,0,0,.08.26c.39.54.77,1.09,1.18,1.62s.73.89,1.11,1.33a7.68,7.68,0,0,0,.76.75,14,14,0,0,0,2.57,1.93,19.63,19.63,0,0,1,1.83.93,3,3,0,0,0,1.58.45,1.53,1.53,0,0,1,1.25.4.49.49,0,0,0,.31.11q1.29,0,2.58,0s.07-.05.28-.2A4.08,4.08,0,0,0,342,380.59Zm3.62-9.47c.13.18.33.44.27.57a.79.79,0,0,1-.56.39A4.55,4.55,0,0,1,344,372a.33.33,0,0,0-.15.56,4.17,4.17,0,0,0,1.07.9,1.7,1.7,0,0,0,1.52,0,5.27,5.27,0,0,0,1.3-1,1.35,1.35,0,0,0,0-2.08,1.91,1.91,0,0,0-2.95-.15C345.12,370.53,345.37,370.81,345.58,371.12Zm-2.65,8.94c.18.19.27.35.34.34a14.72,14.72,0,0,0,1.49-.13c.2,0,.3-.19.12-.48Zm2.29-.58c.42.31.73.09,1.08-.13C345.76,379,345.63,379,345.22,379.48Z"/><path d="M173,368.31c-.29.53-.6,1.06-.94,1.56a1.16,1.16,0,0,0,0,1.48,1,1,0,0,1,.06,1.14,2.59,2.59,0,0,0-.49,1.24.73.73,0,0,1-.15.37c-.6.52-.74,1.33-1.28,1.9s-1.13,1.47-1.81,2.09a14.22,14.22,0,0,1-2.43,1.91,11.83,11.83,0,0,1-2.69,1.39,1.83,1.83,0,0,0-.49.23,3,3,0,0,1-1.41.44c-.5.05-1,.14-1.49.17a9.9,9.9,0,0,1-2.1.08c-1.44-.21-3-.07-4.28-.91a.68.68,0,0,0-.2-.07,6.26,6.26,0,0,1-2.08-1.23,7.45,7.45,0,0,1-1.42-1.44,7.13,7.13,0,0,1-1-1.74,12.94,12.94,0,0,1-.59-2.3,3.24,3.24,0,0,1,0-1.42,7.63,7.63,0,0,1,1.24-3.19,4.87,4.87,0,0,1,2.48-1.67,7.32,7.32,0,0,1,1.69-.12,2.56,2.56,0,0,1,1.85.69,2,2,0,0,1,.88,1.86,1.87,1.87,0,0,0,0,.41c0,.53.12.62.67.57a.75.75,0,0,1,.78.29,4.69,4.69,0,0,1,1,2.2,16.5,16.5,0,0,0,.56,2.58.94.94,0,0,0,1.07.74.65.65,0,0,0,.67-.7,3.23,3.23,0,0,0-.33-.93,2,2,0,0,0-.37-.44,2.36,2.36,0,0,1,1.86-.57c.9.05,1.8.22,2.7.33a4.33,4.33,0,0,0,2.26-.48,1.81,1.81,0,0,0-1.14-.22c-1.1-.1-2.29.12-3.19-.81-.79-.13-1.13-.84-1.8-1.34a3.58,3.58,0,0,1,.8-.34,34.21,34.21,0,0,1,3.62-.62,16.9,16.9,0,0,0,3.65-1,2.19,2.19,0,0,0,.4-.25,4.6,4.6,0,0,1,.64-.37,5.1,5.1,0,0,0,1.5-1.14c.43-.38.81-.82,1.21-1.24C173.22,367.65,173.16,368,173,368.31Zm-1.57,3.06c-.31,0-.38.24-.41.46s-.12.67-.53.77a.27.27,0,0,0-.15.13,5,5,0,0,1-.87,1.17,21,21,0,0,1-2.53,2.72c-.52.47-1,.94-1.57,1.37a4.07,4.07,0,0,1-1.21.73c-.9.29-1.57,1.07-2.58,1.12a1.33,1.33,0,0,0-1.08.48,1.1,1.1,0,0,1-.75.23c-.52,0-1,0-1.57,0a3.88,3.88,0,0,0-.66.14v.14c.07,0,.14.11.21.11h2.52a.37.37,0,0,0,.26-.07c.44-.48,1-.39,1.58-.44a1.5,1.5,0,0,0,1.22-.47.32.32,0,0,1,.17-.11,4.26,4.26,0,0,0,1.68-.79,10.15,10.15,0,0,0,2-1.46c.61-.65,1.32-1.19,1.93-1.84a11.64,11.64,0,0,0,1-1.4c.1-.15.14-.37.28-.46a1.19,1.19,0,0,0,.5-1.2C171.75,372.37,171.88,372,171.43,371.37Zm-16.92.69c-.47-.17-.56-.45-.21-.81a2.09,2.09,0,0,0,.74-1.1,1.85,1.85,0,0,0-2.87.21,1.33,1.33,0,0,0,0,2,2.62,2.62,0,0,0,2.6,1.11,1.89,1.89,0,0,0,.64-.34c.18-.12.34-.29.52-.42s.37-.48.06-.87A1.72,1.72,0,0,1,154.51,372.06Zm2.34,8.15a1.72,1.72,0,0,0-1.88-.13A1.69,1.69,0,0,0,156.85,380.21Zm-3-.95c.31.45.44.47.91.19C154.38,379,154.37,379,153.85,379.26Z"/><path d="M238.79,388.32a15.69,15.69,0,0,1,2.32-.75,5.71,5.71,0,0,1,1.49-.14c1.27,0,2.31-.76,3.51-1,.06,0,.11-.08.17-.11l.82-.47a2.06,2.06,0,0,0,.4-.25c.38-.41.74-.84,1.11-1.26a1.83,1.83,0,0,1,.26-.21c.21-.19.44-.37.63-.58a.6.6,0,0,1,.87-.14c.44.45.84.93,1.28,1.38a6.57,6.57,0,0,0,3.45,2,.78.78,0,0,1,.32.12,4.76,4.76,0,0,0,2.23.5,10.68,10.68,0,0,1,1.86.34c.44.1.85.3,1.29.42a5.07,5.07,0,0,1,1.86,1.17c-.43.46-.81.84-1.16,1.25a2.27,2.27,0,0,1-1.31.79c-.51.11-1,.15-1.63.23.36.55.69,1,1,1.51a.76.76,0,0,1,.13.31c.06.63.13,1.26.15,1.9,0,.31-.16.62-.52.58a6.72,6.72,0,0,1-1.86-.33,8.52,8.52,0,0,1-1.49-1c-.1-.07-.28-.15-.35-.11a.53.53,0,0,0-.22.36,2.1,2.1,0,0,0,.05.61,5.75,5.75,0,0,1-.09,2.3c-.08.3-.22.57-.59.53-.55-.05-1.09-.09-1.63-.18-.79-.13-1.06.11-1,.9,0,.11,0,.22,0,.33a4.94,4.94,0,0,1-.18,2.36,11.78,11.78,0,0,1-1.35,2.33c-.29.37-1,.49-1.25.12-.34-.53-.89-.92-1-1.57a1.5,1.5,0,0,0-.22-.5,2.37,2.37,0,0,1-.42-1.55c0-.58.05-1.17.07-1.76s-.24-.76-.75-.7l-1.62.19c-.58.07-.79,0-.85-.59-.08-.78,0-1.58-.06-2.37a4.9,4.9,0,0,0,0-.54c-.05-.29-.39-.44-.54-.22-.29.39-.76.49-1.09.79a3.63,3.63,0,0,1-2.15.65.5.5,0,0,1-.64-.47,3.55,3.55,0,0,1,.51-2.66,7.84,7.84,0,0,0,.68-1.24c-1.88.16-3-.78-4-2.3A9.94,9.94,0,0,1,238.79,388.32Zm17.2,1.4c.77,0,1.54-.07,2.31-.13a2.23,2.23,0,0,0,.91-.28,2.67,2.67,0,0,0-.36-.14,9.6,9.6,0,0,0-3.5-.32,16.19,16.19,0,0,1-1.71.07,1.27,1.27,0,0,1-1-.37,4.29,4.29,0,0,1-.76-.78,5.93,5.93,0,0,1-1.18-2.48,2.93,2.93,0,0,0-.07-.41c-.11-.57-.27-.68-.82-.62a.45.45,0,0,0-.45.42,5.14,5.14,0,0,1-.15.8,10.86,10.86,0,0,1-.47,1.11c-.06.15-.17.27-.22.42a3.75,3.75,0,0,1-1.37,1.65,1.52,1.52,0,0,1-.89.25,12,12,0,0,1-1.7-.09,7.59,7.59,0,0,0-3.77.59,4.41,4.41,0,0,0,.72.16c.79.07,1.58.11,2.37.15a1.93,1.93,0,0,1,1.26.37,5.92,5.92,0,0,1-1.12,1.17,9.4,9.4,0,0,0-1.19,1.1c.21.35.5.44.7.2s.64-.43.89-.68a6.68,6.68,0,0,1,1.48-1.06c.71-.43,1.47-.76,2.21-1.14l.73-.33c.34.53.32.73,0,1.15a4.29,4.29,0,0,0-.43.89c-.18.42-.34.84-.49,1.26a6.19,6.19,0,0,0-.3,1,2,2,0,0,1-.37,1,.82.82,0,0,0,0,1.12c.08,0,.17-.06.19-.1.27-.75,1.1-1.18,1.17-2.05,0-.06.07-.12.12-.16a.47.47,0,0,1,.17-.07.88.88,0,0,1,.35.86c0,.86,0,1.73,0,2.59,0,.65.14,1.3.22,2a.43.43,0,0,0,.5.43c.3,0,.48-.14.51-.43.08-.79.18-1.58.22-2.37s0-1.45,0-2.18c0-.49,0-.49.36-.93.51.31.28,1,.67,1.33a4.88,4.88,0,0,1,.88,1.15.76.76,0,0,0,.08-1.05c-.09-.15-.3-.29-.3-.44,0-1.11-.74-2-.95-3a1.94,1.94,0,0,0-.37-.78,1.09,1.09,0,0,1-.07-1.27c.71.37,1.38.71,2,1.07.49.27,1,.53,1.47.83a9.12,9.12,0,0,1,.79.6,1.26,1.26,0,0,0,.27.2,1.22,1.22,0,0,1,.69.51c.19.28.48.29.85,0-.36-.44-.62-1-1.14-1.21s-.8-.76-1.2-1.18A1.64,1.64,0,0,1,256,389.72Zm-9.5,3c.2-.12.41-.25.27-.52s-.39-.21-.62-.1c-.54.27-.68.69-.4,1.12Zm7.1-.7a.55.55,0,0,0-.4.26c0,.06.09.28.19.36.27.21.58.38.91.59A.86.86,0,0,0,253.59,392.07Z"/><path d="M215.07,402.74a2.71,2.71,0,0,1,.64.23c.77.54,1.52,1.1,2.26,1.67.5.39,1,.82,1.45,1.23a10.22,10.22,0,0,1,2,2.13q.57.86-.45,1a13.09,13.09,0,0,1-3.59-.12,1.79,1.79,0,0,1-.71-.22c-.63-.45-1.44-.56-2-1.14s-1-.79-1.42-1.22a4.85,4.85,0,0,1-.83-1c-.34-.56-.59-1.17-.89-1.75a2.53,2.53,0,0,0-.4-.62,1.56,1.56,0,0,1-.37-1.63,3.13,3.13,0,0,0,.21-1.2,3.52,3.52,0,0,1,.42-1.87,6,6,0,0,1,1.16-1.48,2.36,2.36,0,0,1,1-.74,8.25,8.25,0,0,1,3.33-.55c1.1.15,2.2.35,3.29.54a1.82,1.82,0,0,1,.46.26c-.48.61-.89,1.14-1.67,1.19a1.28,1.28,0,0,0-.61.26.41.41,0,0,0,.15.74,12.18,12.18,0,0,0,1.58.4,5,5,0,0,1,3,1.94c.13.15.25.32.38.47.39.42.39.45,0,.95-.45-.07-.9-.15-1.35-.18a.45.45,0,0,0-.37.19c0,.1,0,.3.13.4.31.36.69.66,1,1a9.26,9.26,0,0,1,.93,1.49.94.94,0,0,1-.79,1.48c-.25,0-.49.11-.74.13-.61.06-1.19,0-1.5-.63a.66.66,0,0,0-.17-.21c-.44-.44-.88-.89-1.35-1.31a9.45,9.45,0,0,0-1.21-1,5.49,5.49,0,0,1-1.85-1.43.39.39,0,0,0-.27-.18,1.93,1.93,0,0,0-1.62.39Zm1.81-1.13a.45.45,0,0,0,.66.15c.27-.16.15-.4.1-.61s-.11-.41-.17-.61h-.2Zm-.94-2.27c-.47-.41-.84-.41-1.47,0A1.27,1.27,0,0,0,215.94,399.34Zm2.48.66c.2.26.4.39.62.18V400Zm-1.51.25c-.16-.38-.3-.45-.53-.34l0,.19Zm-4,2.05v.07l.73.12,0-.19Z"/><path d="M280.46,395.85a11.38,11.38,0,0,0,1.55-.25,7.89,7.89,0,0,1,4.41.38,1,1,0,0,1,.34.22,8.67,8.67,0,0,1,1.3,1.19,11.92,11.92,0,0,1,1,1.75c.06.11,0,.27,0,.4,0,.33,0,.67.06,1s.14.67.15,1a1.61,1.61,0,0,1-.43,1.37,2.74,2.74,0,0,0-.44.83c-.14.28-.31.55-.42.84a5.11,5.11,0,0,1-1.2,1.63,18.24,18.24,0,0,1-1.4,1.24,9.63,9.63,0,0,1-1.58.91,3.88,3.88,0,0,1-1.93.56c-.91,0-1.82,0-2.72,0-.29,0-.62,0-.69-.31a.94.94,0,0,1,.19-.73,14.54,14.54,0,0,1,2.81-2.84,13.66,13.66,0,0,0,1.31-.95,9.23,9.23,0,0,1,1-.83,4.57,4.57,0,0,1,1.27-.63,2.09,2.09,0,0,0,.46-.25,1.26,1.26,0,0,0-1.9,0,4.76,4.76,0,0,1-1.39,1.06,7.24,7.24,0,0,0-1.48,1.13,18,18,0,0,0-1.74,1.85,1.75,1.75,0,0,1-.36.19,2.51,2.51,0,0,1-1.73,0,1,1,0,0,1-.72-1.52,8.94,8.94,0,0,1,1.83-2.41c.11-.1.14-.29.21-.44-.16-.07-.31-.21-.46-.2-.45,0-.89.12-1.35.19-.17-.26-.37-.51-.11-.8a10.21,10.21,0,0,1,1.38-1.48,4,4,0,0,1,2.07-1.08c.67-.07,1.33-.25,2-.38.06-.68-.12-1-.86-1s-1.11-.61-1.54-1.21A2.35,2.35,0,0,1,280.46,395.85Zm1.85,5.67c0,.32.27.36.76.11l-.36-1.17A1.23,1.23,0,0,0,282.31,401.52Zm2-2.4c-.08,0-.21.18-.2.22s.15.26.25.27a2.34,2.34,0,0,0,1.29-.26A1.34,1.34,0,0,0,284.27,399.12Zm-2.5,1.08c-.41-.31-.41-.31-.87-.1v.15Zm5.36,2.19v-.1h-.89v.2Zm-3.42-2.25c-.27-.29-.27-.29-.59.09Z"/><path d="M324.87,368.34l-.32.4a4.73,4.73,0,0,1-3.46,1.9,22.14,22.14,0,0,1-4.95-.26,7,7,0,0,1-.78-.24l-.12-.06-4-1.1-1.11-.32c-.45-.13-.9-.3-1.36-.41a30.35,30.35,0,0,0-3.12-.66,16,16,0,0,0-2.85,0,5.7,5.7,0,0,0-1.36.4,3.09,3.09,0,0,1-.57.23,3.57,3.57,0,0,0-1.61,1.08,6.08,6.08,0,0,0-1.48,2.16,7.32,7.32,0,0,0-.53,2,6.7,6.7,0,0,0,1.83,5,5.39,5.39,0,0,0,1.94,1.33c.32.1.6.34.92.43a4,4,0,0,0,3.23-.25c.4-.24.82-.46,1.23-.7a4.18,4.18,0,0,0,1.62-2.44,2.43,2.43,0,0,0,.14-1,4.36,4.36,0,0,0-1.05-2.52,2.85,2.85,0,0,0-2.05-.74c-.14,0-.36.22-.48.39s0,.39.14.53a2.37,2.37,0,0,1,.63,2.56,1.78,1.78,0,0,1-1.25,1.32,4.43,4.43,0,0,1-1.74.19,2.88,2.88,0,0,1-2.54-2.14c-.07-.26-.19-.52-.24-.78a3.5,3.5,0,0,1-.14-1,5,5,0,0,1,1.76-3.56,4.15,4.15,0,0,1,2.41-1,7,7,0,0,1,3.15.39,3,3,0,0,0,.73.18,6,6,0,0,1,2.14.64,4.44,4.44,0,0,0,.78.22c.4.13.8.29,1.2.44a5.41,5.41,0,0,0,.63.24,4.4,4.4,0,0,1,1.72.62s0,0,.06,0a16.55,16.55,0,0,0,7.67,1,3.6,3.6,0,0,0,2-1.11,11,11,0,0,0,1.4-1.9A1.16,1.16,0,0,0,324.87,368.34Z"/><path d="M175.12,368.37c-.34.07-.46.23-.42.5a2.23,2.23,0,0,0,.39,1.21c.35.43.63.93,1,1.37a3.55,3.55,0,0,0,2.91,1.47c1.27,0,2.54-.07,3.81-.17a5.2,5.2,0,0,0,1.16-.37c.23-.07.47-.18.71-.23a4.84,4.84,0,0,0,1.92-.63,2.24,2.24,0,0,1,.65-.2l1.39-.52.12-.06,3.44-1c.37-.11.77-.15,1.12-.29a6.39,6.39,0,0,1,3.43-.26,4.39,4.39,0,0,1,2.64,1.55,7.11,7.11,0,0,1,1.15,2.65.94.94,0,0,1,0,.41,4.45,4.45,0,0,1-1.72,3.41,3,3,0,0,1-2.35.39,2.15,2.15,0,0,1-1.94-1.82,2.11,2.11,0,0,1,.63-2.16.58.58,0,0,0-.46-1,2.66,2.66,0,0,0-2,1,3.77,3.77,0,0,0-.77,3.26,4.43,4.43,0,0,0,1.51,2.44,4.76,4.76,0,0,0,4.18,1.11,5.57,5.57,0,0,0,2.37-1.12,11,11,0,0,1,1-.82,3.76,3.76,0,0,0,1.13-1.59,5.54,5.54,0,0,0,.51-4c-.05-.17-.09-.35-.13-.53a6,6,0,0,0-2.23-3.44,6.2,6.2,0,0,0-3.88-1.39,9.72,9.72,0,0,0-3.82.52,3.64,3.64,0,0,1-.87.18,9.07,9.07,0,0,0-2,.53,28.26,28.26,0,0,1-3.51,1,7.37,7.37,0,0,0-1.76.51,1.74,1.74,0,0,1-.52.15,18.85,18.85,0,0,1-5.56.18,5,5,0,0,1-2.86-1.82Z"/><path d="M352.63,367.91a6.32,6.32,0,0,1,.6.25c.31.14.59.32.9.45a4.22,4.22,0,0,0,1,.34,2.47,2.47,0,0,1,1.32.49,1.75,1.75,0,0,0,.35.2,10.17,10.17,0,0,1,3.18,2.25,13.86,13.86,0,0,1,1.88,2.38,2.15,2.15,0,0,1,.24.56,5.66,5.66,0,0,0,.15.59,3,3,0,0,1-.14,2.93,4.71,4.71,0,0,1-.78,1.09,3.2,3.2,0,0,1-5.24-.66,1.42,1.42,0,0,1,.86-2,2.89,2.89,0,0,1,1,.21.59.59,0,0,0,0-1.09,1.8,1.8,0,0,0-1.75-.49,3.59,3.59,0,0,0-1.35.76,3.76,3.76,0,0,0-1.2,2.08,11.24,11.24,0,0,0-.06,1.42,3.69,3.69,0,0,0,1.2,2.44,12.14,12.14,0,0,0,1.4,1.16.79.79,0,0,0,.3.16,6.87,6.87,0,0,0,3,.32c.35-.08.72-.1,1.07-.19a6.73,6.73,0,0,0,.93-.38c.16-.08.29-.21.46-.29a6.94,6.94,0,0,0,1.7-1.4,9,9,0,0,0,1.2-1.95,1.54,1.54,0,0,0,.18-.72,5.89,5.89,0,0,0-.45-3.58,1.36,1.36,0,0,1-.11-.25,7.92,7.92,0,0,0-2.14-3.41,13.21,13.21,0,0,0-2.52-2.05c-.71-.47-1.55-.63-2.22-1.14-1.39-.19-2.71-.8-4.13-.77a6.88,6.88,0,0,0-.91.13Z"/><path d="M147.52,367.84a4.87,4.87,0,0,0-2.67,0c-.59.15-1.19.26-1.78.43a10.82,10.82,0,0,0-1.2.44c-.14.06-.27.17-.42.22a9.91,9.91,0,0,0-3.33,2.16,14.3,14.3,0,0,0-2.36,2.95,2,2,0,0,0-.2.5,4,4,0,0,1-.25.71,6,6,0,0,0-.45,3.65,2.77,2.77,0,0,0,.35,1,5.09,5.09,0,0,0,1.07,1.71,6.3,6.3,0,0,0,1.61,1.3.64.64,0,0,1,.18.1,4.16,4.16,0,0,0,2.4.82,5.15,5.15,0,0,0,2.94-.37,4.92,4.92,0,0,0,2.25-2,4.6,4.6,0,0,0,.67-2.09,4,4,0,0,0-1-2.93,2.72,2.72,0,0,0-2.11-1.07,2.4,2.4,0,0,0-1.38.67.61.61,0,0,0,0,.86.56.56,0,0,0,.47.06c.34-.21.64-.33,1-.05a1.61,1.61,0,0,1,.74,1.16,1.84,1.84,0,0,1-.83,1.55,3,3,0,0,1-2.27.88,3.81,3.81,0,0,1-2.23-1,3.66,3.66,0,0,1-1.16-2,2.38,2.38,0,0,1,0-1.47,6.68,6.68,0,0,0,.25-.84A4.85,4.85,0,0,1,139,373a14.81,14.81,0,0,1,2.09-2.1,13,13,0,0,1,1.83-1.13,6.18,6.18,0,0,1,2.59-.94.53.53,0,0,0,.3-.14,2.46,2.46,0,0,1,1.21-.59C147.15,368,147.26,368,147.52,367.84Z"/><path d="M228.89,398.59c.41.11.73.22,1.05.28a2.07,2.07,0,0,1,1.29.55.77.77,0,0,0,.29.17,6.38,6.38,0,0,1,2.43,2.35,4.68,4.68,0,0,1,.72,3.18,3,3,0,0,1-.57,1.48,4.87,4.87,0,0,1-1.43,1.22,2.49,2.49,0,0,1-2.51-.12,4.21,4.21,0,0,1-1.27-1.18,1.17,1.17,0,0,1,0-1.38,1.6,1.6,0,0,1,2.75-.26,3.65,3.65,0,0,0,.31.24,1.14,1.14,0,0,0,.2-1.48,1.77,1.77,0,0,0-.51-.63,2.52,2.52,0,0,0-2.51-.53,4.53,4.53,0,0,0-1.84,1.41c-.48.61-.53,2.5.12,3s1,.87,1.49,1.28c.24.19.4.36.28.68a3.33,3.33,0,0,0-.13.45,1,1,0,0,0,1,.26c1-.24,2-.46,3.05-.67a3.58,3.58,0,0,0,1.65-1.13,2.18,2.18,0,0,0,.8-1.45c0-.13.16-.25.28-.45a8.63,8.63,0,0,1,1.18,1.45,8.81,8.81,0,0,0,1.2,1.45c.6.54,1.28,1,1.93,1.47a.4.4,0,0,0,.18.1c1.26.21,2.39,1,3.74.78.51-.1,1-.23,1.51-.36.15,0,.29-.14.44-.17a3.92,3.92,0,0,0,2.19-1.41,3.32,3.32,0,0,0,1-3c-.33-1.49-1.51-2.46-3.11-1.79a.88.88,0,0,0-.57.7,1.28,1.28,0,0,0,.83,1.69c.19.09.39.15.57.24.36.17.42.25.57.73a3.57,3.57,0,0,1-2.22,1.71,6.09,6.09,0,0,1-6.07-1.38,8.79,8.79,0,0,1-1.54-2.12c-.63-1.21-.9-2.55-1.57-3.73a8.19,8.19,0,0,0-.87-1.3,6.57,6.57,0,0,0-2.76-2.12,1.42,1.42,0,0,1-.61-.51,1.28,1.28,0,0,0-1.7-.56A2.15,2.15,0,0,0,228.89,398.59Z"/><path d="M271.11,398.6a2.5,2.5,0,0,0-1.64-1,1.11,1.11,0,0,0-1.17.54,2.39,2.39,0,0,1-1.12.81,6,6,0,0,0-1.6,1.13,8,8,0,0,0-1.52,2,7.13,7.13,0,0,0-1,2.42,1.64,1.64,0,0,1-.18.58,14,14,0,0,1-1.42,2.39,5.16,5.16,0,0,1-2,1.52c-.15.06-.28.16-.42.23a2.55,2.55,0,0,1-.86.36,13.48,13.48,0,0,1-3,0,3.83,3.83,0,0,1-2.56-1.66c-.19-.28,0-.68.38-.87s.66-.31,1-.44c.5-.2.55-.64.54-1.08a1.07,1.07,0,0,0-.54-1.08,2.41,2.41,0,0,0-2-.05.37.37,0,0,0-.17.1c-.41.64-1,1.15-1,2,0,.29,0,.59,0,.88a1,1,0,0,0,.09.46,6.9,6.9,0,0,0,2.23,2.42c.18.09.38.15.57.23s.67.28,1,.39a4.92,4.92,0,0,0,3.58-.09c.11,0,.2-.13.31-.14a4.33,4.33,0,0,0,2.13-1,9,9,0,0,0,1.48-1.27c.59-.67,1.09-1.43,1.64-2.15a4.9,4.9,0,0,1,.42-.46,3.42,3.42,0,0,1,.3.75,2.67,2.67,0,0,0,1.05,1.54,3.48,3.48,0,0,0,2.12.94,16.31,16.31,0,0,1,2.25.53,1.3,1.3,0,0,0,.33.07c.45,0,.68-.25.55-.68a.64.64,0,0,1,.32-.79,7.61,7.61,0,0,0,1.2-1,2.73,2.73,0,0,0,.07-3.62c-.55-.73-1.36-.85-2.06-1.23a.61.61,0,0,0-.4,0,3,3,0,0,0-2.08,1.28,1.15,1.15,0,0,0,.19,1.55,2.27,2.27,0,0,1,.44-.38,4.33,4.33,0,0,1,1.08-.53c.81-.18,1.25.37,1.59,1a1.32,1.32,0,0,1-.17,1.39,3.42,3.42,0,0,1-1.48,1.25A2.44,2.44,0,0,1,268,408a3.56,3.56,0,0,1-2-1.26,3.91,3.91,0,0,1-.63-3.53,4.9,4.9,0,0,1,1.14-2.05c.24-.3.56-.53.8-.83.49-.64,1.31-.79,1.89-1.29.2-.17.56-.15.85-.22Z"/><path d="M367.7,374.8c.08.05.15.13.22.14a5.34,5.34,0,0,1,1.58.61,3.32,3.32,0,0,0,2.59,0c.3-.1.59-.24.9-.31a7.22,7.22,0,0,0,3-1.74l2.41-2s0,0,.05,0c1.12-.22,2.1-1.06,3.33-.75a10,10,0,0,1,2.18.72,3.33,3.33,0,0,1,2.17,3.17c0,.29-.44.48-.87.4a1.09,1.09,0,0,0-.85,0c-.6.33-.88.72-.79,1.28a1.35,1.35,0,0,0,1.08,1.1,2.19,2.19,0,0,0,2-.63,3,3,0,0,0,.79-2.34,3.91,3.91,0,0,0-1.24-2.7,8,8,0,0,0-1.88-1.41,6.46,6.46,0,0,0-3.75-.6c-.25,0-.5,0-.75,0a1.08,1.08,0,0,0-.41,0,11.65,11.65,0,0,0-2.14,1.09,1.08,1.08,0,0,1-.53.25c-.6.08-.72-.09-.59-.68a1.94,1.94,0,0,0,0-.72,3.35,3.35,0,0,0-.33-1.1,6.4,6.4,0,0,0-1-1.22,18.63,18.63,0,0,0-1.47-1.19,3.39,3.39,0,0,0-.53-.29.44.44,0,0,0-.68.21.91.91,0,0,1-.94.53,2.15,2.15,0,0,0-1.2.42,4.13,4.13,0,0,0-1.38,1.15,2.54,2.54,0,0,0-.17,2.39,4.41,4.41,0,0,0,1,1.18,2.68,2.68,0,0,0,3.16-.52.56.56,0,0,0,.11-.69c-.16-.26-.38-.24-.65-.19-1.45.3-1.75-.79-1.58-1.74a.75.75,0,0,1,.14-.3,2.52,2.52,0,0,1,2.51-.84,4.83,4.83,0,0,1,1.71,1.41c.31.37.22.81.28,1.24a3.09,3.09,0,0,1-1.23,2.92,4.44,4.44,0,0,1-2.83,1.3c-.84,0-1.68,0-2.52,0-.3,0-.6.09-.9.13Z"/><path d="M132.27,374.67a3.37,3.37,0,0,0-1.3-.2c-1,0-1.95-.07-2.92-.16a3,3,0,0,1-.91-.39c-.15-.07-.27-.17-.41-.25a3.52,3.52,0,0,1-2-3.43,2.78,2.78,0,0,1,1.2-2.15,2.26,2.26,0,0,1,2.07-.52,1.79,1.79,0,0,1,1.46,1.77,1.17,1.17,0,0,1-1.44,1.15c-.13,0-.27-.1-.39-.08a.73.73,0,0,0-.45.21.53.53,0,0,0,0,.49,3.05,3.05,0,0,0,.74.78,2.9,2.9,0,0,0,2.67-.13,2.77,2.77,0,0,0,1.12-2.36,2.5,2.5,0,0,0-1.38-2,4,4,0,0,1-.41-.23,2,2,0,0,0-1.26-.45.85.85,0,0,1-.77-.35c-.38-.52-.73-.59-1.21-.19-.81.68-1.59,1.38-2.37,2.09a1.07,1.07,0,0,0-.29.53c-.14.65-.53,1.26-.25,2,.09.22-.07.39-.32.41s-.65.07-.85-.27c0-.06-.08-.13-.14-.15a8.92,8.92,0,0,0-2.16-.9,26.61,26.61,0,0,0-3.46-.05.49.49,0,0,0-.27.05,23.3,23.3,0,0,0-2.13,1.17,10.42,10.42,0,0,0-1.7,2,.75.75,0,0,0-.15.38,11.19,11.19,0,0,0-.06,2.16,2.32,2.32,0,0,0,2.63,1.9,1.35,1.35,0,0,0,1.12-1.64,1.25,1.25,0,0,0-1.36-.85,3.18,3.18,0,0,1-.33.09.64.64,0,0,1-.76-.72,3.19,3.19,0,0,1,1.3-2.27,9,9,0,0,1,2.87-1.3,2,2,0,0,1,1.65.1,2.27,2.27,0,0,0,.63.26,5.37,5.37,0,0,1,2.78,1.56c.58.48,1.1,1,1.71,1.45a5.54,5.54,0,0,0,2.16,1.1c.6.1,1.16.37,1.76.49a2.76,2.76,0,0,0,2.21-.4,3.88,3.88,0,0,1,.82-.32l.57-.18Z"/><path d="M299.78,366.29a2.74,2.74,0,0,0-.35,0c-.85.15-1.7.29-2.54.47a5.78,5.78,0,0,0-.95.36c-.14.06-.27.16-.42.22a7.85,7.85,0,0,0-3.43,2.76,10,10,0,0,0-1,2.13,9,9,0,0,0-.33,5,1.37,1.37,0,0,0,.72,1,.44.44,0,0,0,.65-.15s.07-.11.11-.17c.38-.58.64-.59,1.05,0a1.45,1.45,0,0,1,.26.47,3.29,3.29,0,0,0,1,1.71c.19.16.37.33.57.47s.37.18.53.3a3.62,3.62,0,0,0,3.05.45.49.49,0,0,0,.23-.13c.06,0,.09-.1.16-.18a2,2,0,0,0-.26-.37c-.73-.56-1.52-1.07-2.2-1.69a13.83,13.83,0,0,1-1.43-1.7,2.29,2.29,0,0,1-.33-.59,3.33,3.33,0,0,1-.37-1.07,16.36,16.36,0,0,1,0-2.1,3.56,3.56,0,0,1,.43-1.49,10.55,10.55,0,0,1,.94-1.79,9.88,9.88,0,0,1,1.85-2,4.29,4.29,0,0,1,1.37-.84C299.63,367.17,299.58,366.7,299.78,366.29Z"/><path d="M207.4,377.36l.66,1a1.42,1.42,0,0,0,1.17-1.22,9.13,9.13,0,0,0,0-3.79,8.86,8.86,0,0,0-.84-2.43,9.12,9.12,0,0,0-2.47-2.75c-.69-.52-1.5-.73-2.2-1.18a2,2,0,0,0-.77-.24c-.76-.15-1.51-.28-2.27-.41a2.8,2.8,0,0,0-.41,0,1.25,1.25,0,0,0,.92,1.19,4.78,4.78,0,0,1,1.46,1.08,24.05,24.05,0,0,1,1.78,2.12c.19.24.2.61.36.87a6.4,6.4,0,0,1,.67,3.49,2.43,2.43,0,0,1-.5,1.65c-.42.53-.72,1.16-1.17,1.65a15.7,15.7,0,0,1-1.68,1.46c-.42.34-.86.64-1.4,1,.27.18.44.36.62.39a4.12,4.12,0,0,0,3-.46,7.42,7.42,0,0,0,1.56-1.38,3.32,3.32,0,0,0,.43-.91C206.55,378,206.75,377.53,207.4,377.36Z"/><path d="M244.68,416.49c.28-.64.59-1.27.89-1.9a.48.48,0,0,1,.13-.16c.44-.37.84-.77,1.33-1.11a2.5,2.5,0,0,1,2.55-.25,1.05,1.05,0,0,0,.78,0c1.35-.73,2.36,0,3.33.76a6.48,6.48,0,0,1,1.59,2.64c.2.42.34.86.54,1.37a3.18,3.18,0,0,1-.83.32,3.83,3.83,0,0,1-1.35,0,4.24,4.24,0,0,1-1.07-.59,2.29,2.29,0,0,0-.95.95c-.31.52-.65,1-1,1.52a.85.85,0,0,1-1.2,0c-.39-.52-.76-1.06-1.1-1.62a1.61,1.61,0,0,0-1-.9,2.43,2.43,0,0,1-3.11.23C244.37,417.33,244.5,416.9,244.68,416.49Zm6-1.32c-.07-.53-.28-.67-.91-.64-.45,0-.51.11-.57.65a7.71,7.71,0,0,0,0,2.3c.1.55.26.72.72.72s.65-.19.74-.72a2.48,2.48,0,0,0,0-.27c0-.32,0-.63.05-1S250.78,415.53,250.73,415.17Zm-3.2.53c.51-.47,1-.95,1.47-1.46a.6.6,0,0,0,0-.54c-.1-.19-.3-.1-.47,0a9.8,9.8,0,0,0-1.09.65,9.24,9.24,0,0,0-1,1.07.42.42,0,0,0,.14.33,1.78,1.78,0,0,0,.46.14A1.52,1.52,0,0,0,247.53,415.7Zm5.42-1.05a1.48,1.48,0,0,0-.37-.29c-.36-.22-.74-.42-1.11-.63-.17-.1-.35-.25-.54,0s-.08.41.09.59l1.33,1.32c.36.35.79.31,1.24-.13C253.36,415.17,253.16,414.9,253,414.65Z"/><path d="M284.05,381.32c.39-.11.44-.39.5-.66.14-.64.27-1.28.4-1.93a1.25,1.25,0,0,0,0-.47c-.19-.9-.34-1.82-.62-2.71a5.62,5.62,0,0,0-.8-1.4c-.34-.51-.78-.94-1.07-1.47-.41-.78-1.11-1.45-1-2.46a3.2,3.2,0,0,0-.27-.91c-.32.2-.57.35-.81.52a.63.63,0,0,0-.28.28c-.33.95-.85,1.88-.4,2.94a2.92,2.92,0,0,1,.14.6,5.67,5.67,0,0,0,1.29,2.49c.41.56.77,1.17,1.22,1.7a18.32,18.32,0,0,1,1.14,2.14,5.34,5.34,0,0,1,.27.7C283.84,380.9,284,381.11,284.05,381.32Z"/><path d="M218.86,369.32a2.67,2.67,0,0,0-.41,1.28,3,3,0,0,1-.37,1.06c-.78,1.27-1.61,2.5-2.41,3.75a2,2,0,0,0-.23.64c-.12.52-.22,1.06-.34,1.59a3.58,3.58,0,0,0,.05,1.75c.11.41.17.84.28,1.26.06.22.17.44.32.83a3.14,3.14,0,0,0,.44-.72,3,3,0,0,1,.56-1.22.38.38,0,0,0,.09-.18A12.62,12.62,0,0,1,219,376a4.78,4.78,0,0,0,1.13-2.2.94.94,0,0,1,.08-.33,3.6,3.6,0,0,0-.12-3,1.28,1.28,0,0,0-.61-.77A4.55,4.55,0,0,1,218.86,369.32Z"/><path d="M292,407.42a2,2,0,0,0,.23-.67,11,11,0,0,0-.24-2.08,21.57,21.57,0,0,0-.77-2.31.91.91,0,0,1,1-.2c.31,0,.6.18.91.26s.61,0,.72-.37,0-.69-.38-.73a3.87,3.87,0,0,0-2.21,0,2.36,2.36,0,0,1-.6.11l-.86.12c0,.4,0,.76.08,1.11a2.3,2.3,0,0,1-.34,1.75,3.82,3.82,0,0,0-.34.74c-.22.54-.18,1.16-.68,1.59-.14.12-.11.43-.18.65s-.25.71-.39,1.06a2,2,0,0,0-.15.38c0,.81-.07,1.63-.1,2.44,0,.26.05.56.32.61s.41-.13.6-.23a.57.57,0,0,0,.29-.28,13.3,13.3,0,0,0,1.1-2.16c.18-.77.41-1.53.63-2.29.05-.15.2-.38.31-.39a.74.74,0,0,1,.48.27,3.13,3.13,0,0,1,.38.61Z"/><path d="M208.79,402.19c-.24.81-.4,1.47-.65,2.1a5.54,5.54,0,0,0-.34,2.48,2.81,2.81,0,0,0,.23.65l.17,0c.13-.2.26-.39.38-.59s.26-.43.51-.32a.74.74,0,0,1,.35.44c.23.81.41,1.62.63,2.43a5.42,5.42,0,0,0,.35.73,4.9,4.9,0,0,0,.39.71,7,7,0,0,0,.82,1c.32.27.59.12.67-.3a1.3,1.3,0,0,0,0-.34c0-.61,0-1.23,0-1.84a4.35,4.35,0,0,0-.3-.95c-.08-.26-.19-.51-.26-.77a2,2,0,0,0-.54-1.28c-.1-.08-.09-.29-.15-.44a8,8,0,0,0-.58-1.52,2.53,2.53,0,0,1-.32-1.63s0-.09,0-.13c.18-1,.12-1.21-.92-1.17a1,1,0,0,1-.46-.08,3.6,3.6,0,0,0-2.08-.09.57.57,0,0,0-.54.6c0,.48.28.69.75.56.32-.09.65-.21,1-.27A5.86,5.86,0,0,1,208.79,402.19Z"/><path d="M281,383.5c0-.42-.23-.5-.45-.62s-.53-.34-.8-.49-.49-.21-.74-.31c-.45-.16-.89-.33-1.34-.47a5.51,5.51,0,0,0-1.32-.31c-1.22-.05-2.44-.05-3.67,0a3,3,0,0,0-1.71.55,5.09,5.09,0,0,0-1.29,1.16,2.24,2.24,0,0,0-.44,1.85,1.23,1.23,0,0,0,1,1.08,1.31,1.31,0,0,0,1.48-.55,1.82,1.82,0,0,0,.31-.45,3.33,3.33,0,0,1,1.85-1.8,2.8,2.8,0,0,1,1.18-.28c1,0,2,0,3.06.08a2.94,2.94,0,0,1,.95.34A2.85,2.85,0,0,0,281,383.5Z"/><path d="M226.49,381.16c-1,0-2,0-3,.15a6.8,6.8,0,0,0-1.42.43c-.28.09-.55.21-.84.28a2.37,2.37,0,0,0-1.26.59c-.17.19-.5.22-.72.37s-.17.27-.25.41c.13.06.27.19.4.17a3,3,0,0,0,1.25-.24,4.56,4.56,0,0,1,2.16-.52c.49,0,1,0,1.49,0a4.07,4.07,0,0,1,2.82,1,3.48,3.48,0,0,1,.6.72c.18.26.31.55.49.81a1.36,1.36,0,0,0,1.7.55c.61-.22.86-.68.83-1.47a2.94,2.94,0,0,0-1.56-2.44A4.85,4.85,0,0,0,226.49,381.16Z"/><path d="M268.13,397.09c0-.09,0-.15-.07-.16a3.31,3.31,0,0,1-1.4-1.12,3.13,3.13,0,0,1-.57-.9c-.14-.38-.35-.73-.46-1.12a2.3,2.3,0,0,1,.77-2.15,10,10,0,0,0,1.27.63,1.28,1.28,0,0,0,1.52-.87,3.17,3.17,0,0,0,.11-.86,1.55,1.55,0,0,0-1.56-1.63,2.57,2.57,0,0,0-2.54,1.2,3.35,3.35,0,0,0-.66,2.16c0,.45,0,.9,0,1.36a2.33,2.33,0,0,0,.51,1.36,7.38,7.38,0,0,0,1,1.28c.38.31.71.68,1.11,1S267.82,397.28,268.13,397.09Z"/><path d="M233.49,391.6a2.45,2.45,0,0,1,.9,1.95,2.31,2.31,0,0,1-.2.63c0,.11-.15.2-.16.3-.1.83-.76,1.3-1.2,1.91a1.31,1.31,0,0,1-.45.3l-.6.32c.65.42.86.4,1.26,0s.64-.5.9-.79a14.69,14.69,0,0,0,1.15-1.48,1.62,1.62,0,0,0,.27-.76,17.2,17.2,0,0,0,0-2.38,3.22,3.22,0,0,0-1.63-2.45,2.26,2.26,0,0,0-2.29,0,2,2,0,0,0-.53,2.69,1.59,1.59,0,0,0,2,.21C233.12,391.91,233.27,391.78,233.49,391.6Z"/><path d="M170.3,378.79a3.86,3.86,0,0,0-1.43.52,2,2,0,0,0-.81,1.65c.23,1.23.75,2.08,2.23,2.09a2.13,2.13,0,0,0,2.14-2.15A2.27,2.27,0,0,0,170.3,378.79Z"/><path d="M329.67,378.91a2,2,0,0,0-2.12,2.1,2.16,2.16,0,0,0,2.1,2.05,2,2,0,0,0,1.5-.49,3.3,3.3,0,0,0,.75-1.63c.09-.61-.39-1.15-.77-1.61A1.72,1.72,0,0,0,329.67,378.91Z"/><path d="M252.37,369a.6.6,0,0,0-.43-.69,1.91,1.91,0,0,1-1.28-1.46.65.65,0,0,0-.66-.57c-.32,0-.53.08-.62.4,0,.13-.09.25-.13.38a1.63,1.63,0,0,1-1.05,1.17c-.33.12-.6.28-.59.72a.77.77,0,0,0,.59.81,1.6,1.6,0,0,1,1.07,1.22,1.92,1.92,0,0,0,.18.45c.12.28.38.27.63.28a.47.47,0,0,0,.5-.36,3,3,0,0,0,.13-.39,1.66,1.66,0,0,1,1.1-1.21A.69.69,0,0,0,252.37,369Z"/><path d="M333.83,386.69a2.15,2.15,0,0,0,2-1.86,2.61,2.61,0,0,0-1.91-1.91,2,2,0,0,0-1.82,2A1.76,1.76,0,0,0,333.83,386.69Z"/><path d="M166.07,386.78a1.93,1.93,0,0,0,1.83-2,2.06,2.06,0,0,0-1.78-1.89,2.45,2.45,0,0,0-1.92,1.86,2.2,2.2,0,0,0,.78,1.53C165.22,386.59,165.7,386.63,166.07,386.78Z"/><path d="M242.28,397c-.28-.11-.43,0-.52.27a4.43,4.43,0,0,0-.22,2.87,1.58,1.58,0,0,0,1.93,1.09,1.5,1.5,0,0,0,1.1-1.72.69.69,0,0,0-.19-.42c-.45-.28-.75-.86-1.45-.71-.34.08-.59-.23-.64-.64A6.06,6.06,0,0,1,242.28,397Z"/><path d="M257.86,396.9c-.06.32-.11.52-.14.73-.1.58-.29.72-.9.74a1.61,1.61,0,0,0-.54.2c-.12.06-.2.2-.31.26a1,1,0,0,0-.54,1.32,1.44,1.44,0,0,0,1.09,1.1,1.56,1.56,0,0,0,1.89-1.05,4.37,4.37,0,0,0-.26-3C258.12,397.1,258.05,397.07,257.86,396.9Z"/><path d="M291.79,399.61a5.3,5.3,0,0,1,.45-1.17,2.75,2.75,0,0,1,1.1-1.17.69.69,0,0,0,.31-.25.26.26,0,0,0-.24-.41,2.08,2.08,0,0,0-1,.38,2.06,2.06,0,0,1-1.68.53l-1-.08a.46.46,0,0,0-.55.39.63.63,0,0,0,.24.48,1,1,0,0,1,.44.74,2.43,2.43,0,0,0,.82,1.3.64.64,0,0,0,.86.08C291.83,400.26,292,400.07,291.79,399.61Z"/><path d="M206.31,396.52a.76.76,0,0,0,.37.79,2.78,2.78,0,0,1,1.42,2.57.52.52,0,0,0,.38.57.54.54,0,0,0,.69,0,2.47,2.47,0,0,0,1-1.37,1,1,0,0,1,.47-.78.49.49,0,0,0,.19-.44.65.65,0,0,0-.42-.36,11,11,0,0,0-1.15,0,2.1,2.1,0,0,1-1.67-.54c-.29-.28-.83-.3-1.25-.44Z"/><path d="M338.4,385.07a1.44,1.44,0,0,0-1.43,1.34,1.51,1.51,0,0,0,1.42,1.38c.72-.07,1.48-.48,1.44-1.4A1.35,1.35,0,0,0,338.4,385.07Z"/><path d="M161.61,385.07a1.34,1.34,0,0,0-1.45,1.37,1.48,1.48,0,0,0,1.31,1.37,1.68,1.68,0,0,0,1.55-1.44A1.56,1.56,0,0,0,161.61,385.07Z"/><path d="M157,385.07a1.19,1.19,0,0,0-1.13,1.14c0,.27.78,1,1,1a1.16,1.16,0,0,0,1.07-1.11C157.9,385.34,157.74,385.05,157,385.07Z"/><path d="M344.16,386.24c-.09-.23-.16-.44-.26-.64a1,1,0,0,0-1.27-.51.84.84,0,0,0-.6,1,2,2,0,0,0,.46.95.75.75,0,0,0,1.12-.11C343.78,386.73,344,386.52,344.16,386.24Z"/><path d="M346,384.53a.52.52,0,0,0,.57.6c.51,0,.84-.17.85-.48a.91.91,0,0,0-.88-.93C346.19,383.72,346,384,346,384.53Z"/><path d="M154,384.54c0-.58-.19-.83-.57-.81a.86.86,0,0,0-.84.89c0,.32.4.54.9.51A.53.53,0,0,0,154,384.54Z"/><path d="M250,411.25c-.47,0-.72.14-.7.42a.62.62,0,0,0,.7.57c.41,0,.7-.23.71-.55S250.44,411.25,250,411.25Z"/><path d="M295.64,396.17a1.55,1.55,0,0,0-1.85.2A1.79,1.79,0,0,0,295.64,396.17Z"/><path d="M206.29,396.54c-.09-.15-.15-.38-.27-.43a2.32,2.32,0,0,0-1.66.06,3,3,0,0,0,1.95.35Z"/><path d="M351.84,380a4,4,0,0,0-.71-.3c-.22-.07-.5.2-.47.43s.19.43.46.36a3.62,3.62,0,0,0,.71-.28Z"/><path d="M148,380.12a3.83,3.83,0,0,0,.87.36.58.58,0,0,0,.43-.2.34.34,0,0,0,0-.35.67.67,0,0,0-.44-.22A5.15,5.15,0,0,0,148,380.12Z"/><path d="M150.55,383.06l.45-.59c-.46-.53-.51-.53-.93,0Z"/><path d="M349.46,383.05l.52-.66-.48-.43-.57.46Z"/><path d="M250.45,410.05c-.3-.22-.55-.14-.91-.07A.88.88,0,0,0,250.45,410.05Z"/></svg>