<svg id="Layer_1" data-name="Layer 1" xmlns="http://www.w3.org/2000/svg" viewBox="0 0 500 500"><g id="msbXEn"><path d="M423.68,285.92c-.13-.26-.26-.52-.38-.79a1.72,1.72,0,0,0-1.84-1.21c.91.91.89,1,.36,2.2a5,5,0,0,1-1.28,1.63,6.63,6.63,0,0,0-1.33,1.78c-.86,1.66-.19,3.16,1.78,4,.83.37,1,.24,1.32-.58.72-2,1.51-3.91,1.29-6.08,0,0,0-.08.08-.12s.26.22.27.34a9.72,9.72,0,0,1-.85,5.39,9.46,9.46,0,0,0-.4,1,1.89,1.89,0,0,0,2.12-1.78,14.84,14.84,0,0,0,.2-3c0-1.05-.14-2.09-.16-3.14a1.8,1.8,0,0,1,.29-1.11c.18-.22.64-.22,1-.33-1.14-.84-2.2-.5-2.39.71C423.72,285.23,423.71,285.58,423.68,285.92ZM413.16,422.13A7.62,7.62,0,0,1,416,420.6a1.52,1.52,0,0,0,1.2-1.17c.26-1-.08-1.48-1.08-1.25a1.38,1.38,0,0,0-.67.51c-.88,1.1-1.41,2.51-2.82,3.14-.07,0,0,.32-.06.48l-2.15,1.28c.79.37,1.55.73,2.27.26,1.85-1.2,4-1.38,6.06-1.6a20.48,20.48,0,0,1,2.82.08c-.48.62-1.38,0-1.85.55,1.48.74,2.93,1.42,4.35,2.17a2.09,2.09,0,0,1,1.3,2.19l-2.74-1.87c.44.84,1.36,1.23,1.27,2.39a14.42,14.42,0,0,1-2-2.22,6,6,0,0,0-3-2.24,51.44,51.44,0,0,1,3.17,4.39,4,4,0,0,0,2.34,1.87c.57.18,1.11.42,1.69.57a5,5,0,0,1,2.76,1.65s.16,0,.13,0a20.75,20.75,0,0,1-.05-2.23,6,6,0,0,0-2.23-5,7.53,7.53,0,0,0-3.93-1.93c-.43-.08-.86-.21-1.29-.31.22-.1.46-.3.67-.28a18.32,18.32,0,0,1,5.37,1.13,6.06,6.06,0,0,1,3.59,3,4.49,4.49,0,0,0,.83,1l.51-.81c.28.72.27,1.61,1.24,1.87.08,0,.12.23.16.35a18.39,18.39,0,0,0,.66,1.8,5.59,5.59,0,0,0,3.86,3.4,8.25,8.25,0,0,1,3.13,1.27,3.23,3.23,0,0,0,.27,1c.54-1.25-.2-2.14-.37-3.12.56.08.53.56.67.91.42,1,.42,1,1.6.95a6.61,6.61,0,0,1,.78-1.09c.61-.58.31-1.35-.47-1.62-.3-.1-.61-.15-1.19-.28,1.11-.24,1.11-.24,1.52-.78a1.5,1.5,0,0,1-1.91-.93,8.39,8.39,0,0,0-2.05-2.72,3.25,3.25,0,0,0-2.29-.91c-.44,0-.88-.07-1.32-.11v0l1.14-.46a6.3,6.3,0,0,0-4.07-.88l-1.36,1.36c-.12-.93.44-1.45,1.43-1.92-.71-.27-1.15-.46-1.61-.6a22,22,0,0,1-4.64-1.82,6.12,6.12,0,0,0-2.41-.71c-1.69-.16-3.39-.2-5.09-.24a16.74,16.74,0,0,0-6.72,1C413.36,422.22,413.25,422.15,413.16,422.13ZM398.42,320.64a5.05,5.05,0,0,1-.8.34,1.5,1.5,0,0,0-1.17,2c.05.15.28.26.45.42l.14-.95a6.8,6.8,0,0,1,4.52-.55,10.78,10.78,0,0,0,3.27-.15c1.7-.27,2.23-.93,2.37-2.55l-1.08.54a10.1,10.1,0,0,1-5.45,1.14,3.79,3.79,0,0,1,.79-.33,21.92,21.92,0,0,0,5.48-1.76.76.76,0,0,0,.47-1.08c-.74-1.64-1.92-2.59-3.87-2.07a5.46,5.46,0,0,0-2.4,1.39c-.5.49-1,1-1.51,1.47-1.16,1-1.82,1-3.14,0A2.43,2.43,0,0,0,398.42,320.64Zm16.68-24.88.44.44c.15-.76.25-1.44.41-2.11a11.49,11.49,0,0,0-.36-6.31,9.11,9.11,0,0,0-.74-1.27,22.53,22.53,0,0,0-2.4-2.84c-.81-1-1.7-2.12-1.05-3.91a3.93,3.93,0,0,0-1.25,1.66c-.23.74-.56,1.45-.84,2.17,0-.43,0-.87,0-1.3s.07-.69.09-1a1.23,1.23,0,0,0-.86-1.26c-1.14-.55-1.61,1.23-2.74.75-.11,0-.48.34-.63.58a1.62,1.62,0,0,0,.34,1.91c.34.42.87.7,1.14,1.32-1.67-.58-1.77-.58-2.78-.17,1.29.31,1.75.81,1.88,2a6.88,6.88,0,0,1,0,.91c0,1,0,1.92,0,2.88a6.61,6.61,0,0,0,4.44,6.25c1.5.52,1.65.45,1.91-1.12l.44.44a3.52,3.52,0,0,1,1.82-2.5,4.7,4.7,0,0,1,.74,2.54c-.69-.32-.35-1.19-.88-1.74a5.89,5.89,0,0,0-.56.56,11.69,11.69,0,0,0-.87,1.37c-.23.44-.38.83-1,1a2.13,2.13,0,0,1-1.44-.07c-.72-.23-1.42-.53-2.39-.91a9.41,9.41,0,0,0,2.56,3.65c.73.65,1.66,1.07,2.4,1.71a14.05,14.05,0,0,1,3.14,3.76,13.67,13.67,0,0,0,3,4.07,2.35,2.35,0,0,0,1.63.73c-.35-.72-.64-1.38-1-2a28.72,28.72,0,0,0-2.25-4.12,9.08,9.08,0,0,1-1.85-5.22,15.62,15.62,0,0,0-.3-1.75C415.25,296.49,415.17,296.12,415.1,295.76Zm12.44,15a5.65,5.65,0,0,0,3.55,1.17c.17-.14.33-.27.47-.41.78-.82.78-.87,0-1.84,0-.06,0-.17,0-.25.53-.09.47-.54.56-1-.3-.16-.64-.47-1-.47a3,3,0,0,0-1.54.38,22.91,22.91,0,0,0-2.08,1.63c-.21-.69.41-1,.78-1.1a5.64,5.64,0,0,0,1.83-1.52,1.23,1.23,0,0,0,.11-1.51.9.9,0,0,0-1.3-.34s-.14,0-.2,0l-.09-.87c-1.32-.11-1.26-.08-1.8.83a3.58,3.58,0,0,0-.2,2.34,1.52,1.52,0,0,1-.45,1.33c-.31-.65-.54-1.19-.8-1.71-.76-1.51-.8-1.53-2.65-1.27l-.21,1.36c-.35.08-.89-.09-1.09.47s.23.93.59,1.28a2.7,2.7,0,0,0,1.93.63c.51,0,1.08-.17,1.66.41-.71.1-1.25.2-1.79.23a2.83,2.83,0,0,0-1.8.6,1.64,1.64,0,0,0-.45.46c-.45,1-.28,1.38.81,1.91l-.08,1.24a2.3,2.3,0,0,0,2.71-1.61c.29-.65.57-1.31.86-2a2.29,2.29,0,0,1,.15,1.16c-.05.65-.13,1.29-.13,1.94a1.48,1.48,0,0,0,1.08,1.43,1.44,1.44,0,0,0,.88-.11c.25-.15.38-.48.56-.73.63.35.77.38,1.07.19a.8.8,0,0,0,.36-1c-.21-.68-.21-1.47-1.18-1.74-.47-.13-.83-.72-1.21-1.12C427.43,311.11,427.52,310.91,427.54,310.78Zm-20.75.26a.89.89,0,0,1-1.25-.47c.61-1,1.81-1.21,2.58-2a7.9,7.9,0,0,0-2.08.25,4.75,4.75,0,0,1-3.44-.13l6.58-.69c.05-.18.22-.5.15-.74a6.52,6.52,0,0,0-2.85-4,8.1,8.1,0,0,0-5.61-1c-1.61.26-3.27.54-4.86-.28l-.47-1.32c-.73,1.51.41,2.45.73,3.8a6.28,6.28,0,0,1-.76-1,2.41,2.41,0,0,0-1.27-1.18c-1.44-.67-2.24-.33-2.65,1.18a2,2,0,0,1-.49.88,1.17,1.17,0,0,0-.29,1.38,1.05,1.05,0,0,0,1.2.71l4.31-.55c-.82-.68-1.78-.72-2.27-1.82l2.91,1.63-.43-.84,2.92,2.31s-.11.09-.13.07c-2.45-1.35-4.84-1-7.22.22a3.45,3.45,0,0,0-1.52,1.54,2.46,2.46,0,0,1,2.94-.35,10.45,10.45,0,0,1,2.7,1.78,8.9,8.9,0,0,0,6.2,2.44c2.2.09,4.24-.6,6.41-1l-.38-.39c.09,0,.21-.1.26-.07a3.37,3.37,0,0,0,2.85.39,10,10,0,0,1,1.88-.42c2.31-.23,3.85,1.32,5.53,2.52.63,1.45,2,2.27,2.9,3.59.68,1.06,1.73,1.89,2.22,3.14a.86.86,0,0,0,1.22.51,3.5,3.5,0,0,0-.11-.61,11.75,11.75,0,0,0-2.4-4c-2-2.22-4-4.52-6.8-5.82a5,5,0,0,1-1.39-1.32c-.3-.33-.46-.78-.78-1.07-1.32-1.22-2.66-2.42-4.05-3.57-.27-.22-.69-.61-1.23-.2.27.49.51,1,.8,1.42a2.07,2.07,0,0,1-.62,3.1,3.66,3.66,0,0,1-1.18.6,2.17,2.17,0,0,0-1.15,1.06Zm53.59-20.19c-.19.29-.11.44.21.54a18.65,18.65,0,0,1,2,.63c.67.28.68.53.08.91s-1.47.9-2.37,1.45a21.38,21.38,0,0,0,4.94-.36,8.32,8.32,0,0,0,5.94-4,7.87,7.87,0,0,1,1-1.45,4.6,4.6,0,0,1,3.77-1.91,6.36,6.36,0,0,0-3.65-1,8.63,8.63,0,0,1-1-.1c.49-.53,1.14-.26,1.72-.3a2.55,2.55,0,0,0,2-.82c.37-.48.37-1.31-.16-1.52-.88-.33-.79-1.17-1.17-1.73-1.5-.46-2.13-.18-2.92,1.25-.13.24-.29.46-.6.93.35-1.9.29-2.33-.31-3a1.77,1.77,0,0,1-1.39,2.14,3.56,3.56,0,0,1-.41.17c-1,.22-2,.47-3,.63a7.6,7.6,0,0,0-4.15,2.12,6.68,6.68,0,0,0-1.83,4.11,2.61,2.61,0,0,0,.21,1.13C459.45,291.22,460,290.61,460.38,290.85Zm9.37,88.4c.26-.13.52-.27.79-.38a6,6,0,0,0,1.37-.86c1-.77.85-2.06,1.41-3,.08-.13-.09-.49-.25-.65-.32-.3-.7-.54-1.05-.81s-.75-.43-.89-.75c-.5-1.06-1.45-1.2-2.41-1.37-.43-.08-.87-.08-1.31-.12.45-.65,1.36,0,1.92-.65-.47-.47-.82-1.06-1.33-1.28a6.71,6.71,0,0,0-6.18-.14,8.27,8.27,0,0,1-3.41.86c-.4,0-.81,0-1.21,0a5.62,5.62,0,0,0-4.72,3.16l-.56,1.13c1.61-.07,2.8-1.07,4.29-.86l-2.57,1,.29,1.78c-1.09.37-1.22,1.34-2.12,2.11.6-.15.84-.22,1.07-.26s.46-.07.78-.12c-.89,1.61-2.57,1.82-3.94,2.51.12.12.18.24.25.25a8.8,8.8,0,0,0,6.29-1.77,4.65,4.65,0,0,1,2.1-1,2.61,2.61,0,0,0,1-.36c.55-.31.58-.81.1-1.3a7.41,7.41,0,0,0-.7-.56,8.94,8.94,0,0,1,1.61-.51,3.93,3.93,0,0,0,2.19-1.39,19.61,19.61,0,0,1,2.31-2,3.26,3.26,0,0,1,2.64-.61c-.58.27-1.15.56-1.73.81-1.74.73-2.87,2.26-4.38,3.27,2,.44,3.8-.53,5.74-.54a5.17,5.17,0,0,1-1.3.46,2.55,2.55,0,0,0-1.42.74.83.83,0,0,0,0,1.2,1,1,0,0,0,1.21.37c.8-.16,1.59-.42,2.65-.71-1.13,1-2.34,1.07-3.51,1.47l1.15,1.14,1.88.11c-.48.26-1,.51-1.42.78-.29.18-.57.39-.84.59a.77.77,0,0,0-.26.95.74.74,0,0,0,.9.38c.54-.11,1.07-.24,1.6-.37a.86.86,0,0,1-.5.56,9.23,9.23,0,0,0-1.4.48c-.66.38-1.43.76-1.21,1.88.83,0,1.62,0,2.42.05.19,0,.37.17.64.31a3.21,3.21,0,0,1-2,.56c-.6,0-1.2.18-1.82.28l2.71,1.95a1.68,1.68,0,0,1-1.44-.54A2.94,2.94,0,0,0,462,387a6,6,0,0,0-2.11,1.34,4.63,4.63,0,0,1-1.82,1.47c1.05,1.24.37,2.58.3,3.89.6,0,1,0,1.5,0a12.36,12.36,0,0,0,1.36,0c.5,0,1-.15,1.48-.18a8,8,0,0,1,1.2.06c-1.68.82-3.43.53-5.24.62.1.25.12.52.23.57a7.65,7.65,0,0,0,1.4.46,7,7,0,0,1,2.48.93,4.51,4.51,0,0,0,2.27.62,8.06,8.06,0,0,0,4-1,6.78,6.78,0,0,0,3.9-4.63c.05-.24.19-.46.24-.7a2.38,2.38,0,0,1,2.11-2.16c.05,0,.08-.16.14-.26a1.07,1.07,0,0,0-1.46-.58,7.4,7.4,0,0,0-2.79,1.6,3.72,3.72,0,0,1-3,1c-.06,0-.11-.15-.17-.24l.42-.76-.82-.73c.5,0,1-.12,1.26.58a.72.72,0,0,0,.52.36,1.33,1.33,0,0,0,1.1-.34c1.36-1.12,2.93-2,4.36-3a2.87,2.87,0,0,0,1.43-3.17l-1.33-.49a2.33,2.33,0,0,1-.1-.44,2.22,2.22,0,0,0-2-2.23c-.49-.09-1-.17-1.47-.21S470.29,379.27,469.75,379.25ZM429.68,412.5v-.06a5.41,5.41,0,0,0-.54,3,5.21,5.21,0,0,0,.2,1.17,1.68,1.68,0,0,0,1.53,1.23,1.33,1.33,0,0,0,1.49-1c0-.07.09-.12.16-.19l.72.59.9-.26a2,2,0,0,0-.43-2.62,5.66,5.66,0,0,0-.93-.73c-.56-.38-1.15-.73-1.71-1.13-.38-.27-.11-.51.11-.72,1,.46,1.92,1,2.91,1.38a4.11,4.11,0,0,0,1.31.24,1.76,1.76,0,0,0,1.62-.8,1.26,1.26,0,0,0-.33-1.72,3.55,3.55,0,0,1-.31-.38c.64-.06.72-.48.72-.94a.88.88,0,0,0-.66-.88,2.72,2.72,0,0,0-2.3.15,3.28,3.28,0,0,1-.63.19c.18-.18.37-.35.54-.53,1-1,1.05-1.31.41-2.81l-1.88-.28c0-.39.11-1-.43-1.14a1.39,1.39,0,0,0-1.52.34,3.23,3.23,0,0,0-.8,2.77c0,.49.13,1,.15,1.48s-.16.68-.69.68l-1.11-2c-.93-1.72-1.65-2-3.54-1.15l-.14,1.41-.41.05c-1,.15-1,.36-.85,1.27s1,1.08,1.65,1.28a11.14,11.14,0,0,0,2.53.26c.4,0,.79.08.83.64-.37,0-.73,0-1.08.05s-.78.15-1.18.16a3.87,3.87,0,0,0-2.11.61,1,1,0,0,0-.57.59c-.45,1.31-.19,1.78,1.21,2.07.08,0,.16.09.24.14l-.37,1.32c1.56.56,2.25.47,3.08-.73a24.71,24.71,0,0,0,1.59-3.25l-2.41.94a2.17,2.17,0,0,1,.63-.9c.76-.71.76-.71,1.72-.06A4,4,0,0,0,429.68,412.5Zm-82.14,26.76a9.19,9.19,0,0,0,3.6,1.59,2.17,2.17,0,0,0,1.16-.17,1.45,1.45,0,0,0,.65-2.46,6,6,0,0,0-.44-.45c.2-.2.33-.34.47-.47.31-.28.59-.59.42-1a1.26,1.26,0,0,0-1.17-.77,3.32,3.32,0,0,0-2.38.66c-.81.56-1.54,1.23-2.31,1.86l-.41-.52a9.87,9.87,0,0,0,3.07-2.11c.77,0,.77-.74,1-1.15a1.57,1.57,0,0,0-1.3-2.15c-.3,0-.6,0-1,0a1.18,1.18,0,0,0-.71-1.47,2.57,2.57,0,0,0-2.05,2.87c0,1.07.05,2.15.08,3.22v-.06l-.69.18a18.16,18.16,0,0,0-.77-2,7.17,7.17,0,0,0-1.22-1.67,1.75,1.75,0,0,0-2-.36,1.44,1.44,0,0,0-.82,1.63,1.79,1.79,0,0,1,0,.44,1.11,1.11,0,0,0-1.4.62,1.58,1.58,0,0,0,.41,1.52,2.16,2.16,0,0,0,1.54.82c.45.05.92,0,1.36.05a4.22,4.22,0,0,1,2,.57l-4.82,1.1c-.3.8-.8,1.35-.59,2.13s.91.89,1.39,1.13l-.14,1.47c1.09.4,1.08.37,1.91.1a1.79,1.79,0,0,0,1.2-1.19c.46-1.18,1.06-2.3,1.65-3.54l.52.47v-.05a2,2,0,0,0-.29.5,13.49,13.49,0,0,0-.2,4.15c1.52,1.63,2.33,1.63,3.17,0,.09,0,.22,0,.27.05a.86.86,0,0,0,1.08.27,1.26,1.26,0,0,0,.62-1.12,2.9,2.9,0,0,0-1.63-2.81,10.52,10.52,0,0,1-1.93-1.66ZM423.26,343l-.24.58c-.52-.51-1.19-.92-1.46-1.52a4.09,4.09,0,0,0-1.88-1.8,2,2,0,0,0-2.47,0c-.72.51-.5,1.17-.28,1.82a1.13,1.13,0,0,1,0,.31c-.46.08-1.05-.1-1.24.56a1.39,1.39,0,0,0,.71,1.65,3.58,3.58,0,0,0,1.72.39c1.37-.1,2.74-.34,4.11-.53h-.06c.3.56.13.91-.45,1.17a8.12,8.12,0,0,0-3.14,2.53l0,1.34a1.86,1.86,0,0,0,2.63.81,2.19,2.19,0,0,0,0,.41c.21,1.12.62,1.31,1.62.86a1.87,1.87,0,0,0,1.18-1.84c0-.79-.12-1.59-.15-2.38,0-.43-.21-.89.25-1.36.18.18.41.32.49.51.14.37.15.79.28,1.16a21.21,21.21,0,0,0,.88,2.34,2,2,0,0,0,2.07,1.17c.89-.15,1.17-.5,1.36-1.66,0-.08.12-.15.19-.23.6.28,1.17.34,1.57-.31s-.05-1-.21-1.54c0-.09-.14-.15-.2-.22a3.42,3.42,0,0,0-2-1.19,5.83,5.83,0,0,1-3.09-1.25l1.47,0a7.45,7.45,0,0,0,3.1-.33c1.15-.49,1.48-.91,1.46-2.34L430.05,341c0-.07.1-.2.14-.34.32-1-.2-1.74-1.65-1.41a2.61,2.61,0,0,0-2,1.6,15.25,15.25,0,0,1-.87,1.71,7.26,7.26,0,0,1-.74.85l-.43-.39a10.28,10.28,0,0,0,1.12-4.4c.08-.73-.95-1.71-1.74-1.8a1.38,1.38,0,0,0-1.61,1c0,.06-.1.11-.19.2l-.86-.87-1.12.35-.22,2.17Zm25.3-48a6.9,6.9,0,0,1,.16-4.9c.62-1.12.92-2.2,0-3.24.28-.17.52-.33.77-.46a4.56,4.56,0,0,0,2.18-5.42,8.81,8.81,0,0,0-2-2.9,4.4,4.4,0,0,1-1.19-2.8c0-.19,0-.38-.07-.79l-1.09,2h0a4,4,0,0,0-2.78-2.46c.83.8.52,1.62.23,2.4-.15.41-.47.75-.66,1.15a19.27,19.27,0,0,0-1,2.27,4.88,4.88,0,0,0,1.34,5.29l1.12,1.13a7.49,7.49,0,0,1-.3,1.13,1.72,1.72,0,0,0,.36,1.93,7.46,7.46,0,0,1,1.59,4.54,20.6,20.6,0,0,1-.56,6.54c-.3,1.09-.5,2.22-.74,3.33l2.16-.5a53.51,53.51,0,0,0,.46-7.17,11.54,11.54,0,0,1,.1-1.17l.63,1.64a4.93,4.93,0,0,1,1.8-3.18,19.51,19.51,0,0,1,1.74-1.09,2.4,2.4,0,0,0,1.34-1.5,1.46,1.46,0,0,0-.41-1.45c-.43-.24-1,0-1.41.53l-.7-1c-1.41.46-1.57.63-2,1.81A18.32,18.32,0,0,0,448.56,295Zm1.69,56.16c.12.1.23.25.36.27a19.53,19.53,0,0,0,2.84.23,4.22,4.22,0,0,0,2-.58c.34-.21.4-.86.59-1.31.05-.14.09-.28.15-.48l-1.33-1.12.27-.51c.4-.83.24-1.17-.65-1.37a2.16,2.16,0,0,0-2.13.74,10,10,0,0,0-1.1,1.74,3.79,3.79,0,0,1-1.36,1.34c0-.32-.06-.55,0-.65.4-.46.86-.85,1.25-1.32a5.55,5.55,0,0,0,1.37-2.41c.27-1.35-.62-2.11-2-1.79a3.93,3.93,0,0,1-.6.06l-.34-.83c-1.34-.05-1.83.29-2,1.48a4.56,4.56,0,0,0,.46,2.61,3.42,3.42,0,0,1,.29,2.41l-1.14-1.13c-.5-.5-1-1-1.51-1.49a1.83,1.83,0,0,0-2.09-.25,1.39,1.39,0,0,0-.74,1.64,7.34,7.34,0,0,0,.18.84l-1,.18c-.08,1.24-.06,1.33.66,1.92a1.87,1.87,0,0,0,1.94.37,13.23,13.23,0,0,1,2.18-.48,3.33,3.33,0,0,1,.95.26l-2,.84a5,5,0,0,0-2.06,1.43,2.11,2.11,0,0,0-.33,2.1,1.25,1.25,0,0,0,1.9.44,4.83,4.83,0,0,0-.11.92c.06.74.42,1,1.08.84a2.23,2.23,0,0,0,1.7-1.88c.21-1.26.36-2.53.54-3.79v.05c.28-.23.46-.12.51.19.1.74.13,1.49.26,2.22a7.76,7.76,0,0,0,.48,1.71,1.81,1.81,0,0,0,1.67,1c.65-.14,1.23-.41,1.32-1.21a1.82,1.82,0,0,1,.21-.51l1.34.12a1.76,1.76,0,0,0,.08-1.89,3,3,0,0,0-1.67-1.41,9.58,9.58,0,0,1-1.82-.64c-.32-.16-.95-.26-.64-.92Zm-89.2,122.72v-.06a8,8,0,0,0,.56,4.22,1.71,1.71,0,0,0,1.69,1.22,1.54,1.54,0,0,0,1.41-1.34,3.33,3.33,0,0,1,.12-.41,5.51,5.51,0,0,0,1.18-.06.81.81,0,0,0,.48-.54,2,2,0,0,0-.33-1.85,4.12,4.12,0,0,0-2.1-1.36,5.59,5.59,0,0,1-1.52-.57c-.23-.12-.74-.29-.39-.78h0c.63.1,1.26.25,1.9.3a13.23,13.23,0,0,0,2.27,0c1.12-.12,1.54-.71,1.82-1.83s-.42-1.46-1.17-1.81c.1-.18.15-.26.19-.35.61-1.26.27-1.81-1.05-1.8a1.82,1.82,0,0,0-1.18.55,18.93,18.93,0,0,0-2.39,3,.81.81,0,0,1-1,.34c.36-.36.7-.66,1-1a14.38,14.38,0,0,0,.83-1.21,14.61,14.61,0,0,0,1-1.62,2.16,2.16,0,0,0-.31-2.5,1.66,1.66,0,0,0-2.17.35c0-.22,0-.37-.07-.51-.24-1-.73-1.13-1.46-.49a2.73,2.73,0,0,0-.77,3c.16.63.37,1.24.57,1.85a2.32,2.32,0,0,1,0,1.88,2.87,2.87,0,0,1-1.14-1.16,4,4,0,0,0-2.41-1.89,1.39,1.39,0,0,0-1.88,1.12,8,8,0,0,0,0,1.7c-.62,0-.92.5-1.21.92.58,1.62,1.32,2.09,2.83,1.78.82-.17,1.62-.42,2.42-.66.48-.15.6.13.67.41-.9.48-1.78.93-2.63,1.4-1.79,1-2.12,1.88-1.42,3.83l1.57.35a4.82,4.82,0,0,0,0,.86c.09.69.5.91,1.17.65a2.22,2.22,0,0,0,1.61-1.78c.21-1.36.41-2.71.64-4.19-.85.45-1.17,1.25-1.95,1.64a2.9,2.9,0,0,1,1.34-2.42Zm-14.15-9.49v0c.17,0,.47,0,.48.05.12.53.2,1.07.27,1.62a7.11,7.11,0,0,0,.82,3,1.87,1.87,0,0,0,1.94,1,1.58,1.58,0,0,0,1.14-1.39c0-.18.1-.35.12-.43l1.59.11a2.18,2.18,0,0,0-.58-2.94,3.69,3.69,0,0,0-1.67-.93,5.88,5.88,0,0,1-2.46-1.15,5.71,5.71,0,0,1,2,0,18.19,18.19,0,0,0,2.55.1,1.9,1.9,0,0,0,1.86-1.25,2.31,2.31,0,0,0,.12-1.29c-.15-.74-.78-.8-1.19-1.12.53-1,.59-1.47.26-1.85a2,2,0,0,0-2.1-.21,1,1,0,0,0-.36.25c-.42.49-.83,1-1.22,1.49-.54.71-1.05,1.44-1.6,2.14-.06.07-.35,0-.75-.08a14.16,14.16,0,0,0,1.11-1.12,29.51,29.51,0,0,0,1.92-2.8,2,2,0,0,0-.24-2.25,1.41,1.41,0,0,0-1.59-.43,1.83,1.83,0,0,0-.59.34l-1-1.22a1.67,1.67,0,0,0-1.52,1.19,3.51,3.51,0,0,0-.05,2.47l1,3.12v-.06l-.53.52c-.9-1-1.68-1.85-2.53-2.67a2.13,2.13,0,0,0-2-.48,1.56,1.56,0,0,0-1.27,1.87,5.32,5.32,0,0,0,.23.83,11.91,11.91,0,0,0-1,.62.73.73,0,0,0-.14,1.07,2.43,2.43,0,0,0,2.65,1.2c.53-.12,1.06-.26,1.59-.37s1.06-.2,1.6-.29c.05,0,.13.08.21.14v.42a7.18,7.18,0,0,0-1,.33,8.46,8.46,0,0,0-3.16,2.16,2,2,0,0,0-.36,2.07c.27.73.88.71,1.43.85a2.11,2.11,0,0,0,.5,0c0,.25,0,.4,0,.55.07,1.16.46,1.41,1.52,1a3.06,3.06,0,0,0,1.67-2.63C346.73,466.69,346.78,465.51,346.9,464.35Zm12.87-13.73v.05c.43-.29.5,0,.55.33a26.17,26.17,0,0,0,.84,4.39A2.18,2.18,0,0,0,362.9,457a1.45,1.45,0,0,0,1.93-1.07c.12-.35.19-.73.28-1.09a3.56,3.56,0,0,0,.41.17l.72.18c1-.85,1.19-1.32.69-2.4a2.84,2.84,0,0,0-1.18-1.4,9.49,9.49,0,0,0-2.19-.86,3.19,3.19,0,0,1-2.1-1.34l1.74.17c.69.08,1.38.24,2.07.28a3.48,3.48,0,0,0,3.31-1.36,1.77,1.77,0,0,0-.18-2.3,6.72,6.72,0,0,0-1.06-.66,4.28,4.28,0,0,0,.54-.67,1.08,1.08,0,0,0-.75-1.69,3.21,3.21,0,0,0-3.1,1.29c-.36.58-.61,1.24-1,1.78a5.31,5.31,0,0,1-1.82,1.66c.11-.43.11-.68.23-.81a18.68,18.68,0,0,0,2.4-2.85,4.57,4.57,0,0,0,.81-2.34,1.85,1.85,0,0,0-1.13-1.8,1.57,1.57,0,0,0-2,.6l-.5-1.42c-1.23-.15-1.26-.16-1.85.56a3.24,3.24,0,0,0-.46,3.12c.21.81.46,1.62.75,2.41a3.06,3.06,0,0,1,0,2,4.57,4.57,0,0,1-1.61-1.6c-.89-1.34-2-2.37-3.81-2.06-.43.43-1.05.78-1.22,1.29a5,5,0,0,0,.1,1.88,1.5,1.5,0,0,0-.44.08c-1.14.6-1.25,1.35-.39,2.31a2.73,2.73,0,0,0,2.89.72c.82-.19,1.62-.46,2.43-.68.47-.12.91-.14,1.08.44l-3.64,1.87a3.15,3.15,0,0,0-1.48,1.78c-.55,1.37.3,3.15,2.32,2.53a6,6,0,0,0-.15.85,1,1,0,0,0,1.31,1.16,2.63,2.63,0,0,0,.92-.45,3.13,3.13,0,0,0,1.35-2.57A31.23,31.23,0,0,1,359.77,450.62Zm1.92-21.18v-.06a11.8,11.8,0,0,0,.52,4.09,3.76,3.76,0,0,0,.77,1.58,2.22,2.22,0,0,0,2.42.88,1.61,1.61,0,0,0,1.14-1.66,2.07,2.07,0,0,1,.13-.43l1.49.4c.26-.41.63-.76.68-1.16a2.05,2.05,0,0,0-.26-1.43,4.31,4.31,0,0,0-2.15-1.79c-.81-.23-1.61-.51-2.4-.79a3.78,3.78,0,0,1-.93-.44c-.38-.28-.11-.51.12-.72h-.05c.12.09.23.25.36.26,1.25.11,2.5.18,3.75.3a3.17,3.17,0,0,0,3.27-1.59,2,2,0,0,0-1.44-2.57c.16-.35.35-.69.48-1.06.26-.74.09-1.14-.62-1.41a2.26,2.26,0,0,0-1.16-.19,3.9,3.9,0,0,0-2.54,1.7c-.45.7-.86,1.43-1.36,2.1a13.73,13.73,0,0,1-1.37,1.33c0-.49,0-.71.07-.81.85-1,1.78-2,2.59-3.1a3,3,0,0,0,.68-3.18,1.72,1.72,0,0,0-1.57-1.15c-.69-.08-1.1.36-1.57.72-.09-.26-.15-.45-.22-.63-.42-1.11-1.17-1.29-2-.49a2.3,2.3,0,0,0-.85,1.84,10.13,10.13,0,0,0,.29,2.06c.26,1,.67,1.87.95,2.82.13.45.06.92-.59,1-.33-.32-.76-.58-.95-1a6.76,6.76,0,0,0-2.44-2.37,2.18,2.18,0,0,0-2.61.12,2.63,2.63,0,0,0-.83,1.38c-.17.61.42.92.61,1.4-1.63.28-2.14,1.1-1.43,2.22a1.83,1.83,0,0,0,.67.59,3.52,3.52,0,0,0,2.87.31c.8-.25,1.62-.46,2.44-.65.48-.12.92-.07,1,.66-.67.26-1.35.52-2,.8a7.43,7.43,0,0,0-2.94,2,2,2,0,0,0,.06,2.82,1.79,1.79,0,0,0,2.07.42,5.32,5.32,0,0,0-.14,1,1,1,0,0,0,1.39,1.1,2.47,2.47,0,0,0,1.85-1.32,8.09,8.09,0,0,0,.62-2.73,20.34,20.34,0,0,1,.48-2.79C361.07,429.47,361.32,429.18,361.69,429.44ZM378,460.3l.48-.39c1.26,1.26,2.49,2.45,3.66,3.69a3.79,3.79,0,0,0,2.1,1,2.15,2.15,0,0,0,2.66-2.49,5.64,5.64,0,0,0-.65-1.18,5.05,5.05,0,0,1,.51-.06c.61,0,1.19,0,1.45-.7a1.53,1.53,0,0,0-.44-1.75,3.36,3.36,0,0,0-2.36-1.09,10,10,0,0,0-3.25.42,14.47,14.47,0,0,1-2.18.42,3.9,3.9,0,0,1-1-.2,4.49,4.49,0,0,1,.73-.57c1.11-.52,2.26-1,3.34-1.55s2.29-1.15,2.65-2.6a2.16,2.16,0,0,0-.52-2.19c-.58-.64-1.2-1.06-2.1-.64a2.11,2.11,0,0,1-.65.06,2.72,2.72,0,0,0,.17-.43,1.49,1.49,0,0,0-.62-1.71,1.63,1.63,0,0,0-1.66.1,3.35,3.35,0,0,0-1.93,3.09c-.1.95,0,1.92-.05,2.87A4.77,4.77,0,0,1,378,456c-.21.47-.56.26-.81,0V456c.09-.12.25-.23.27-.36a32.84,32.84,0,0,0,.51-4.76,3.42,3.42,0,0,0-1.28-2.73,2,2,0,0,0-3.25.55,4.57,4.57,0,0,0-.23.59c-.27-.18-.45-.34-.66-.45a2.4,2.4,0,0,0-.69-.26c-.87-.21-1.29.06-1.54.95a3.87,3.87,0,0,0,1.47,3.94,28.91,28.91,0,0,1,2.41,1.69,4.83,4.83,0,0,1,1.46,1.69,3.4,3.4,0,0,1-1,.25,6.12,6.12,0,0,1-1.12-.37,12,12,0,0,0-4-.68,2.93,2.93,0,0,0-2.37,1.35,2.14,2.14,0,0,0,.23,2.31,6.67,6.67,0,0,0,.61.43l.68.4c-.24.24-.43.41-.59.59-.9,1-.68,1.83.56,2.26a3.3,3.3,0,0,0,3.57-.77c.85-.8,1.63-1.65,2.47-2.45.68-.67.72-.65,1.59.09a12.1,12.1,0,0,0-2.72,3.68c-.69,1.22-.93,2.95.54,4a3.77,3.77,0,0,1,.45.45,2.26,2.26,0,0,0,2.64-.88,3.92,3.92,0,0,1,.27.49c.25.63.6,1.13,1.38,1.15s1.2-.62,1.59-1.19a1.41,1.41,0,0,0,.22-.7,4.25,4.25,0,0,0-.38-2.62,22.65,22.65,0,0,1-2.16-4.32S378,460.33,378,460.3Zm9.67-104.49c.39.63.82,1.23,1.16,1.88a3.91,3.91,0,0,0,2.11,1.8,2.43,2.43,0,0,0,3.32-2,2.7,2.7,0,0,0-.58-2.06c-.56-.82-1.19-1.61-2-2.64a6.65,6.65,0,0,1,1.05.45,4.45,4.45,0,0,1,1.24,1.83,6,6,0,0,0,2.11,2.65,1.88,1.88,0,0,0-.07-2c-.4-.83-1-1.58-1.47-2.38-.28-.48-.53-1-.9-1.66.37.09.56.08.6.15.72,1.23,1.39,2.48,2.14,3.69.44.71,1,1.35,1.5,2a.81.81,0,0,0,.93.34c.47-.16.5-.56.53-1a2.9,2.9,0,0,0-.95-2.27,8.34,8.34,0,0,1-2.09-2.85c.66.51,1,1.2,1.48,1.56a5.16,5.16,0,0,1,2.08,3.59c.1.59.22,1.17.33,1.76a1.12,1.12,0,0,0,.82.93,25.73,25.73,0,0,1,2.06-5.61,5.49,5.49,0,0,0-1.15-6.2,8.21,8.21,0,0,0-4.19-2.11c-.86-.23-1.75-.37-2.59-.65a21.77,21.77,0,0,1-2.15-1,2.45,2.45,0,0,0-3.13.52c-.93.93-1.86,1.86-2.77,2.81-1.57,1.64-2.2,4.05-.65,6.07a4.16,4.16,0,0,1,1.19,2.42,2.66,2.66,0,0,1-.5-.57,10,10,0,0,0-2.65-3.07,5.62,5.62,0,0,0-1.93-1.06c-1.5-.51-3.94,0-4.7,1.86a1.2,1.2,0,0,1-1.15.78,3.46,3.46,0,0,0-3.16,4.13A5.42,5.42,0,0,0,375,360.8a22.54,22.54,0,0,0,5.15,3.72c.91.56,1.86,1.06,2.76,1.57,2-2.06,2-3.48-.14-5.15-.14-.11-.32-.18-.41-.32a2,2,0,0,1-.19-.6l3.63,2.93c0-.51.07-.89-.07-1.1-.8-1.12-1.66-2.2-2.49-3.3a20.45,20.45,0,0,1,2.67,2.59,1.68,1.68,0,0,0,1,.57c1.24-1.24,1.93-2.59,1.11-4.39A8.13,8.13,0,0,1,387.65,355.81Zm53.84,42.29c0-.32,0-.64,0-1,0-.68,0-1.35-.63-1.71l-.72.95h0a3,3,0,0,1,.13-.8,3.08,3.08,0,0,0-.09-2.47c-.21-.52-.49-1-.74-1.53-.06,0-.13,0-.14.07a7.67,7.67,0,0,1-3.42,4,4.88,4.88,0,0,0-2.19,5.43,2.68,2.68,0,0,0,1.83,2.08,4.35,4.35,0,0,0,.73.14,15.52,15.52,0,0,1,.1,1.71,3.56,3.56,0,0,0,1.43,2.83c.65.64,1.38.46,2.12.47.45,0,.9,0,1.29,0a2.23,2.23,0,0,1,1.1,1.44,8.56,8.56,0,0,0,.86,1.87,2.79,2.79,0,0,0,2.75,1.64,5.18,5.18,0,0,1,3,.55,1.19,1.19,0,0,0,.43.12c.7.08.91-.06,1.2-.8l.68-1.73a6.81,6.81,0,0,0,1-.08,2.44,2.44,0,0,1,2.38.41c.14.11.47,0,.66,0a4.39,4.39,0,0,0,.29-2.86,8.59,8.59,0,0,0-4-5.46c-.77-.52-1.61-.93-2.42-1.38.13,0,.28-.08.4,0a9.57,9.57,0,0,0,3.66.82c.16,0,.33.18.49.27l-1,.46c.74.7,1.4,1.35,2.1,2a5.25,5.25,0,0,1,1.76,4.12,9,9,0,0,0,.26,2.07,1.49,1.49,0,0,0,2.18,1,3.93,3.93,0,0,0,1.88-1.6,5.14,5.14,0,0,1,1.82-2,10.31,10.31,0,0,0,2.15-1.81,2.62,2.62,0,0,0-.92-2.58c-.5-.44-.95-.94-1.43-1.41a17.9,17.9,0,0,1,2.28,1.42,5.44,5.44,0,0,0,6-.36,3,3,0,0,0,1-2.33,3.3,3.3,0,0,0,2.55-3.44,6.28,6.28,0,0,0-.89-3.42c-.56-1-1.34-1.18-2.15-.34a5.91,5.91,0,0,1-2.92,1.7c-.6.15-1.18.37-1.87.58,1,.63,2.37.45,2.9,1.79-1.28-.62-2.44-1.43-4-1.29.68,1,2,1.12,2.48,2.46l-3.34-2.35a3.45,3.45,0,0,0,.48,1.3,3.46,3.46,0,0,1,.61,2.37c-.09-.12-.23-.22-.28-.35a7.47,7.47,0,0,0-6.58-5.43l-2-.28a1.45,1.45,0,0,1,.11-.26,4.42,4.42,0,0,0,.27-4.53c-.09-.22-.21-.53-.39-.59-1.54-.53-2.53-1.75-3.62-2.84a2.16,2.16,0,0,0-1.6-.69c-.54,0-1.09.11-1.63.16-.37,0-.74,0-1.17.06a2.74,2.74,0,0,1,.18-.71c.42-.61.88-1.2,1.31-1.8a2,2,0,0,0-.75-3,4.57,4.57,0,0,1-2-1.34l-2.05.11-.17-1.13c-3.26.6-5.77,3.87-6,8.26,1-.94,1.75-2,3.24-2.36-.53.54-1,.94-1.37,1.39s-.62.89-1,1.3a1.86,1.86,0,0,0-.65,1.57c.9-1,1.7-1.92,3.27-2A16.34,16.34,0,0,1,441,388.1a2.19,2.19,0,0,0-1.31,2.13l1.68-.71c-.54.79-1.29,1.17-1.16,2,.53-.06,1-.66,1.65-.26-.43.42-1.39.4-1.07,1.31.32.09.6.19.89.26a5.22,5.22,0,0,0,.87.2c.3,0,.6,0,.9,0s.49,0,.73.06c-.92.55-1.88.26-2.83.42a1.52,1.52,0,0,0,1,.84,7.68,7.68,0,0,1,1,.51H442a5.26,5.26,0,0,1,.46,1,7,7,0,0,0,2,2.88,16.35,16.35,0,0,0,3.16,2.38,9.19,9.19,0,0,0,1,.59l-.73.2L449,403c.33.31.66.62,1,.94s.74.69,1.07,1.07.76.53.8,1.28a11.29,11.29,0,0,0-1.83-1.79,5.71,5.71,0,0,1-2.26-2.26,2.43,2.43,0,0,0-1.19-1.1c0,1,.69,1.59,1,2.38a15.64,15.64,0,0,1-2.26-2.19,20.86,20.86,0,0,1-1.45-2.52l-.22.05-.13,1.81L442.15,397l-.68,1.15Zm-4.13-10.92a5.62,5.62,0,0,0,.78-.38c.48-.31.9-.67.59-1.3l-1.47-.62a1.88,1.88,0,0,1,.77-.19,9.09,9.09,0,0,0,1-.22,5.52,5.52,0,0,1-2.64-1.68c2,.71,2.59.61,2.86-.52-1-.71-2.39-.72-3.05-2.22l1.37.79c.3.17.6.33.91.48s.64,0,.77-.39c-1.25-.75-1.76-1.56-2.33-3.87.55.85.92,1.4,1.27,2,.47.77.47.78,1.55,1-1.09-2.14-2-4.28-1.75-6.71.29.81.43,1.67.66,2.5s.58,1.77.9,2.65c0,.09.22.13.36.21l0-1.35.56.19.14-.95.5.5c1.33-1.9,2.65-3.65,4.75-4.58a4.22,4.22,0,0,1-1.07,1.22,8.63,8.63,0,0,0-1.94,2c-.53.71-1,1.45-1.49,2.2a12.23,12.23,0,0,0-1.28,4c.61-.61,1-1.1,1.52-1.5s.43-1.32,1.22-1.46l.22.48a3.83,3.83,0,0,1,2.8-1.41l.1.82a4.88,4.88,0,0,1,1.2.31,3.87,3.87,0,0,0,2.74.31c.87-1,1.81-2.11,2.72-3.23a.73.73,0,0,0-.45-1.17,18.51,18.51,0,0,0-1.84-.34,6.83,6.83,0,0,0,2.23-3.34c.17-.67.45-1.31.63-2a9.94,9.94,0,0,1,2-3.39,6.53,6.53,0,0,1,2-1.47,5.52,5.52,0,0,0,1.43-1.26,5.35,5.35,0,0,0-1-.67,10.39,10.39,0,0,0-5.42-.28,10.84,10.84,0,0,0-4.15,1.85,9,9,0,0,0-2.82,3.07,16.84,16.84,0,0,1-2.7,4.05c0-.14-.07-.32,0-.4a18,18,0,0,0,2.06-3.38,8.41,8.41,0,0,0,.25-6.94,2.66,2.66,0,0,0-2.4-1.73,1.93,1.93,0,0,0-2.23,1.32,2.59,2.59,0,0,1-1.37,1.31c-1.79.74-2.75,1.91-2.39,3.84-.95,1-.95,1-2,.68-1.45-.41-1.89-.21-2.59,1.2-.46.93-.89,1.86-1.38,2.77a8.07,8.07,0,0,0-.28,7.43,2,2,0,0,1-.26,2.1c-.13.21-.4.35-.48.57s-.16.69,0,.83c.67.68.71,1.63,1.08,2.42a4.9,4.9,0,0,0,.6,1,7.34,7.34,0,0,0,5.05,2.53,3.25,3.25,0,0,1,.81.32,5.67,5.67,0,0,0-3.65,1.8,36.08,36.08,0,0,0-3.22,4.08,51.33,51.33,0,0,0-3.39,5.35c-1.11,2-2.21,4-3.33,6.08a4,4,0,0,0,1.56.12c.9-1.63,1.72-3.19,2.61-4.71.7-1.18,1.5-2.3,2.22-3.47a14.36,14.36,0,0,1,1.75-2.22,3.06,3.06,0,0,1,2.86-.91,14.66,14.66,0,0,1,1.48.22c1.13.26,1.85-.53,2.58-1.11a2,2,0,0,0,.42-2.15l-1.57.1a9.29,9.29,0,0,0,1-1.6C438.65,387.87,438.4,387.54,437.36,387.18ZM390,430.3c-.3-.54.27-.66.48-.95s.84-.61.66-1.25c-.82-.29-1.76.19-2.57-.45s-1.71-.53-2.51-1.44c1.05.37,1.83.7,2.63.92a7.54,7.54,0,0,0,1.78.22.65.65,0,0,0,.67-.91c-.3-.8-.71-1.53-1.69-1.64l-1.79-.2a23.58,23.58,0,0,1-2.53-.28,2.84,2.84,0,0,1-1.88-.93c1.27.21,2.3.42,3.34.54s2.16.14,3.25.2a2,2,0,0,0-1.65-2.06c-.93-.17-1.89-.17-2.83-.29s-1.87-.24-2.8-.42c-.24-.05-.44-.31-.66-.47.49,0,.91.23,1.31.21a26.13,26.13,0,0,1,4.92.48c.07,0,.15-.07.35-.16a12.24,12.24,0,0,1-1.19-1.21,3.91,3.91,0,0,0-2.94-1.63c-.85-.07-1.7-.2-2.54-.2a3.94,3.94,0,0,1-2.6-1.31,18.26,18.26,0,0,0,6.27,1,3.59,3.59,0,0,0-1.62-1.5c-1-.37-1.88-.84-2.84-1.22a3.09,3.09,0,0,1-1.74-1.8,5.76,5.76,0,0,1,2,1.06,3.91,3.91,0,0,0,2.61,1.15l-.1-1.19h0c.42.67.81,1.34,1.25,2a3.73,3.73,0,0,0,.69.56c.41-1.64-.27-3-.59-4.4.82.24.95.88,1.07,1.44a9.23,9.23,0,0,1,.26,2.22,3.63,3.63,0,0,0,.76,2.36c.64.82,1.32,1.61,1.92,2.46.05.08.21.08.34.12l0-1.7h.24L391,424a6.93,6.93,0,0,0,.38-2.72,3,3,0,0,1,.11-2.13,8,8,0,0,1,.17,4.63,4,4,0,0,0-.26,1.84c.24,1,.44,2,.65,3,.07-.06.23-.12.3-.24a9.6,9.6,0,0,0,1.7-4.21,3,3,0,0,1,.3-.81l.32.74c.33-.85.6-1.53.86-2.21a13.64,13.64,0,0,1,1.24-2.69,3,3,0,0,0,.46-1.53,12.79,12.79,0,0,0-.29-2.37,5.45,5.45,0,0,1,.15-3c.43,1.41-.41,3.12,1.11,4.22a3.28,3.28,0,0,0,1.12-3.43,2.32,2.32,0,0,1,0-1.38c.33.59.18,1.42,1.1,1.74a8.18,8.18,0,0,0,2.4-4.56,19.68,19.68,0,0,1,.64-2.89,3.11,3.11,0,0,1,.49-.75,7.52,7.52,0,0,1-.3,1.5c-.16.68-.3,1.36-.39,2-.06.38.12.69.7.75l1.53-1.53a2.36,2.36,0,0,1,1.71-.89h0a5.67,5.67,0,0,1-.78.7,10.18,10.18,0,0,0-3.1,3c1.92-.63,3.8-1.43,5.89-.77a25.32,25.32,0,0,1-3,.59c-3.24.5-4.71,1.45-6.1,4.67a7.74,7.74,0,0,1,5.26-.84,11.12,11.12,0,0,0-4.8,1.14,6.7,6.7,0,0,0-3.15,4.1c1.1-.43,2.09-.89,3.12-1.21a5.39,5.39,0,0,1,3.39-.18l-3.58.88a6.55,6.55,0,0,0-4.47,3.41c-.55,1.06-1.12,2.12-1.83,3.48,1.15-.58,2-1.09,2.89-1.43a20.87,20.87,0,0,1,3-.84,26.57,26.57,0,0,1,2.94-.51c1-.12,2.1-.15,3.15-.21a18.32,18.32,0,0,0,3-.11c-.12-1-1-1-1.79-1.81.91.08,1.46.16,2,.16a4.55,4.55,0,0,0,3.74-1.53,9.07,9.07,0,0,1,1.4-1.13l-1.15-1.37a2.92,2.92,0,0,0,1.68-1.49,11.6,11.6,0,0,1,1.82-2.34c.15-.18.56-.13.87-.18.14-1.25-1.67-.88-1.67-2a2.24,2.24,0,0,1,.3-.32,1.71,1.71,0,0,1,.5-.3,8.07,8.07,0,0,0,3.7-3.19,1.68,1.68,0,0,1,2.06-.77,4.67,4.67,0,0,0-2.29-2,34.72,34.72,0,0,1-4.82-2.55,5.36,5.36,0,0,0-4.43-.75c-.18.05-.41-.09-.74-.17l1.08-1.29a5.11,5.11,0,0,0-3.14-.5c-.82.18-1.64.36-2.45.6a7.32,7.32,0,0,1-1.6.32c-.82.06-.91,0-1.13-.86-.11-.41-.21-.83-.3-1.18-.83.39-1.57.75-2.32,1.09a7.43,7.43,0,0,0-4.5,5.35c-.18.81-.29,1.64-.44,2.48l-1.47-.67c-.13.88-.21,1.67-.39,2.43s-.48,1.4-.65,2.12a8.54,8.54,0,0,0,0,4c.35,1.39.78,2.76,1.18,4.14a11.15,11.15,0,0,1,.5,2c.06.72.33,1.51-.26,2.17a12,12,0,0,0-.12-1.33,13.26,13.26,0,0,0-.73-3.32,17.22,17.22,0,0,1-1.4-4.51,9.88,9.88,0,0,0-.24-1.32,3,3,0,0,0-.57-1.18,17,17,0,0,1-2.89-3.71l-.14,1.43c-.24-.39-.31-.65-.48-.78a20.2,20.2,0,0,0-2.19-1.5,9.2,9.2,0,0,1-2.38-1.78c-.6-.67-1.26-1.28-1.89-1.91a3,3,0,0,1-.16,1.85,23.18,23.18,0,0,1-4.31-1.57,2.42,2.42,0,0,0-2.17-.3,5,5,0,0,0,.74,1.32,3.82,3.82,0,0,1,1.07,3.15,9.54,9.54,0,0,0,.81,4.65c0,.07,0,.2,0,.3l-1.11-.16c-.27,0-.53-.29-.82,0s-.05.75.08,1a2.68,2.68,0,0,1,.37,1.71c0,.26,0,.51,0,.76.14,2.34.62,4.54,2.53,6.15a2,2,0,0,1,.26.4l-1.79-.36c.48,1,1,1.89,1.32,2.8a7.62,7.62,0,0,0,3.22,3.55,13.06,13.06,0,0,0,7.73,1.78,3.78,3.78,0,0,0,1-.31c.08.53.14,1.07.25,1.59.29,1.31.6,2.62.92,3.92a4.51,4.51,0,0,0,.43,1.25,11.7,11.7,0,0,0,2.47,3,9,9,0,0,0,4.15,1.87c1.21.25,2.41.53,3.66.8.1-.55-.14-1.28.26-1.66,1.56,0,3,0,4.36.08s2.7.91,4.23.72l-.83-1.55a8.51,8.51,0,0,1,6.72,1c-.12-.87-.27-1.73-.35-2.61a6.5,6.5,0,0,0-2.15-4.43,7.2,7.2,0,0,1-1.06-1.08,3.55,3.55,0,0,1-.28-1.06l1.66.11a6.84,6.84,0,0,0-2.63-2.93,12.13,12.13,0,0,1-2-1.53c-.09-.07-.11-.25-.19-.45l1-.74a3.37,3.37,0,0,0-1.87-1.73,10.86,10.86,0,0,0-5-1,12.07,12.07,0,0,0-4.77.93,40.4,40.4,0,0,0-4.07,2.38,3.81,3.81,0,0,0-1.44,1.65,25.88,25.88,0,0,0,2.75.26,2.92,2.92,0,0,0,1.39-.42c.56-.3,1-.76,1.58-1.08a9.77,9.77,0,0,1,3.1-1.36c.13,0,.3.16.58.31-2.18.53-4.28,1.64-5.08,2.7a7,7,0,0,1,1.51.17,3.8,3.8,0,0,0,2.49-.15c.42-.14.84-.31,1.27-.42a5.46,5.46,0,0,1,3.61-.07l-5.46,1.2a31.13,31.13,0,0,1,2.8,1.51c.81.55,1.94.24,2.67,1-.56.42-1.25-.67-1.67.31a3.24,3.24,0,0,0-2.13-.93l2.67,3.45a4.55,4.55,0,0,1-1.78-1.59c-.69-1.48-2.11-2.07-3.22-3-.12-.1-.37,0-.68,0a11.3,11.3,0,0,1,2.35,4.19c0,.15-.09.35-.22.81-1.12-3-2.55-5.31-5.73-6.11,3,3.73,3.13,4,3.19,5a2,2,0,0,1-.38-.28c-.7-.89-1.38-1.81-2.09-2.7a4.75,4.75,0,0,0-1.13-1.11,7.8,7.8,0,0,0-4.89-1.05ZM421.92,373a7.19,7.19,0,0,0-4.06-2.19,1.89,1.89,0,0,0-2,.64,12.19,12.19,0,0,0-1.53,2,14.66,14.66,0,0,1-3.5,4.71c2.17-.29,5.13.42,5.77,1.24-1.22-.22-2.53-.54-3.86-.67-1.69-.17-3,.69-4.41,1.92a10.31,10.31,0,0,1,7.21,1.18,8,8,0,0,1-2.66,0,48.47,48.47,0,0,0-6.49-.16,3.72,3.72,0,0,0-1.84.43,15.33,15.33,0,0,1,3.59,1.41c2.16,1.1,2.59,1.37,3.18,2.18-.85-.26-1.7-.52-2.55-.8s-1.69-.54-2.51-.86-1.34-.63-2-.92a2.2,2.2,0,0,0-1.95.05,11.29,11.29,0,0,0,4.66,4.07c-.76.43-1.28,0-1.83-.25a15.47,15.47,0,0,1-2.54-2.08c-1.27-1-2-1.31-3.51-.4a2.91,2.91,0,0,0-1.19,2.43c-.23,2.74,1.21,4.73,3.23,6.22a12.82,12.82,0,0,0,6.84,2.22c1.71.12,3.42.15,5.13.22a3.3,3.3,0,0,1,2.21.74,8.23,8.23,0,0,1,2.18,2.47.91.91,0,0,0,1.37.52c.09-.69.22-1.38.25-2.08a2.85,2.85,0,0,1,1.54-2.53,5,5,0,0,0,1.83-1.74c.91-1.71,1.7-3.52.78-5.54a5,5,0,0,1-.13-.89,2.81,2.81,0,0,1,.68-2.47c.35-.44.78-.8,1.16-1.2a3.63,3.63,0,0,0,0-5.19,6.27,6.27,0,0,0-3.63-2.15Zm-9.62-24.41c.17,1,.3,1.91.46,2.79a15.1,15.1,0,0,1-.58,8.55,6.43,6.43,0,0,1-2.71,3.41c-1.35.79-2.66,1.69-3.94,2.59a7.47,7.47,0,0,1-3.78,1.15,2.91,2.91,0,0,0-2.81,1.79c-1.13-1.37-2.44-1.32-3.91-.76.23.66.45,1.24.66,1.83.51,1.45.05,2.9-.08,4.32a17.7,17.7,0,0,0,.31,5.81,4.09,4.09,0,0,0,2.3,3,9.52,9.52,0,0,0,2,.38,3.08,3.08,0,0,0,1.51-3.33,16.28,16.28,0,0,1,0-2.88c0-.18.16-.36.24-.55a15.43,15.43,0,0,1,.18,2.93,2.08,2.08,0,0,0,1.07,1.93,15.21,15.21,0,0,1,1.23-1.74,7.53,7.53,0,0,0,1.36-2.44,29.79,29.79,0,0,0,1.05-5.1,5.69,5.69,0,0,1,.25-.69,11,11,0,0,1,0,2.44,21.14,21.14,0,0,1-.3,2.52c-.17.77-.57,1.49-.74,2.26s-.9,1.32-.88,2.43c1.45-1.6,3-2.75,4-4.4a34.22,34.22,0,0,0,2.55-5.36c.34,3-1.28,5-2.73,6.94.09.08.14.15.17.14s.4,0,.5-.15a33.09,33.09,0,0,0,3-3.33,31,31,0,0,0,3.9-6.58,21.84,21.84,0,0,0,1.66-7.23,19.38,19.38,0,0,0-2.6-10.26A4.23,4.23,0,0,0,412.3,348.58ZM455.81,307c-1.2-.64-1.92-1.77-3.26-2.12a14.61,14.61,0,0,0-3.82-.58,15,15,0,0,0-4,.51,9.56,9.56,0,0,0-3.13,2.13c-.62-1-.62-1-1.34-1.23a4.76,4.76,0,0,1-.71,1.26,13.32,13.32,0,0,1-2.13,1.6,6,6,0,0,0-3.14,4.93c-.08,1-.16,1.95-.23,2.89-.16.05-.25.12-.34.11-.73-.1-.88,0-.9.49a7.28,7.28,0,0,0,.14,1,7.76,7.76,0,0,0,1.85,3.5c1.38,1.77,2.68,3.55,3,5.87a1.42,1.42,0,0,0,.95,1.37c.09-.09.2-.15.22-.22a1.22,1.22,0,0,0,0-.6,6.8,6.8,0,0,1,0-4.41c0-.14,0-.31.05-.45a3.09,3.09,0,0,0-.46-2.84,16.9,16.9,0,0,1-1.35-3.12,4.52,4.52,0,0,1-.13-.75l.2-.08,2.15,3.91c.19-.1.31-.13.35-.2a4.38,4.38,0,0,0-.12-3.85c-.4-.85-.81-1.68-1.2-2.53-.06-.13,0-.32,0-.49l.21,0,2.11,4.15c.2-.2.41-.31.46-.47a5.35,5.35,0,0,0,.12-3.24c-.29-1-.53-1.92-.76-2.88a1.74,1.74,0,0,1,.12-.63c1.08,1.14.68,2.8,1.88,3.85a3,3,0,0,0,.41-.86,10.52,10.52,0,0,0,.07-3.07c-.1-.58-.27-1.31.44-1.79.68,1-.31,2.25.47,3.39a25.83,25.83,0,0,1,2-1.95,4.21,4.21,0,0,1,2.31-1.07,21,21,0,0,0-2.15,1.73c-.61.64-1.65,1-1.61,2.23,2.47-1.72,4.18-2.23,5.73-1.6-1,.27-1.8.52-2.64.73a6.89,6.89,0,0,0-3.68,2.11,21.38,21.38,0,0,0-1.22,1.8,8.83,8.83,0,0,0,1.12-.47,11,11,0,0,1,4.83-1.25c.11,0,.24.2.47.4-1.24.23-2.31.42-3.37.63a6.75,6.75,0,0,0-4,2.36,2.28,2.28,0,0,0-.62,1.57c1.41-.46,2.76-.91,4.12-1.33.17-.05.4.12.85.27a3.8,3.8,0,0,1-.74.34c-.67.16-1.35.29-2,.43-2.07.43-3,1.46-3.25,3.66.74-.4,1.47-.8,2.21-1.18a3.34,3.34,0,0,1,2.25-.62c0,.05,0,.11-.06.13-.63.27-1.28.5-1.89.8-2.66,1.31-3.74,2.94-3.38,5.36,0,.24.28.45.45.71.22-.17.37-.24.43-.36a6.52,6.52,0,0,1,2.56-2.62c1.23-.75,2.58-1.2,3.83-1.91a9.31,9.31,0,0,0,1.93-1.63.8.8,0,0,0,.17-.68c-.26-.53-.61-1-.94-1.53a10.24,10.24,0,0,0,5.52-4.88l-.83-.35a1.81,1.81,0,0,1,.5-1.65,6.83,6.83,0,0,0,1-2C454.28,308.72,454.24,307.33,455.81,307ZM421,322.09l1.14,1.41a2,2,0,0,1-.48.07,6.44,6.44,0,0,0-4.49,1.25,5.29,5.29,0,0,0-2.35,4.09,3.33,3.33,0,0,0,.22.84,2,2,0,0,1,2.92-.44,8.32,8.32,0,0,0,3.33,1.37c-.43.79.07,1.05.51,1.24,1.49.63,2.75,1.77,4.44,1.91.44,0,.24.25.18.49s.14.36.28.47a23.41,23.41,0,0,0,1.93,1.38,4.42,4.42,0,0,0,4,.44,11.35,11.35,0,0,1,1.12-.38,6.92,6.92,0,0,0,3.59-2.72c-1.33-1.45-1.82-1.69-3.24-1.39a15.82,15.82,0,0,0-2.41.71,9.6,9.6,0,0,1-3.61.82,4.76,4.76,0,0,1-1-.27c2.48-.7,4.78-.79,6.86-2-1.24-1.3-2.66-1.26-4.22-1l.87-.61c-.06-.1-.1-.22-.18-.25-2.16-1-4.37-1.65-6.79-1.05a8.91,8.91,0,0,1-1.78.2,4.3,4.3,0,0,1-.87-.1,2.06,2.06,0,0,1,1.05-.34c1.14-.15,2.27-.29,3.41-.46.1,0,.17-.2.23-.26l-.69-.47,1.34-.32c-.66-.66-1.13-1.18-1.66-1.64s-1.32-.49-1.53-1.42a14.37,14.37,0,0,1,1.55,1c1.15,1,2.25,2,3.39,2.94a3.45,3.45,0,0,0,2.32.75l-3.29-4.53c.31.22.47.31.61.42a14.62,14.62,0,0,1,3.07,4,4,4,0,0,0,2.61,1.56c-.59-1.07-1-1.89-1.48-2.66s-1.13-1.57-1.83-2.53a2.44,2.44,0,0,1,.68.12,8.25,8.25,0,0,1,2,2.57c.55.93,1,1.89,1.65,2.79.77,1.15,2.18,1.37,3.28,2.26-.09-.34-.22-.55-.17-.72a6.94,6.94,0,0,0-.23-3.23,10.57,10.57,0,0,0-2.56-4.77,7.27,7.27,0,0,0-1.82-1.23,26.9,26.9,0,0,0-4.67-1.86c-.55-.22-.95,0-1,.53a2.64,2.64,0,0,0,.19.76C425.25,321.12,423.35,322.25,421,322.09Zm-40.63,58.35a10.09,10.09,0,0,0-3.76-2.86,4,4,0,0,0-4.58.32c-.77.51-1.61.91-2.56,1.44a4.87,4.87,0,0,0-.06,1.45,1.45,1.45,0,0,1-.16,1.25,2.64,2.64,0,0,0-.14,2.3c.68,2.16,3,4.78,5.91,4.66a2.19,2.19,0,0,1,1.62.47c0,.14,0,.41-.07.53-.59.65-.28,1.26-.05,1.94a2.6,2.6,0,0,0,1.4,1.42,7.51,7.51,0,0,0,3.79.57,2.88,2.88,0,0,0,2.26-1,17.45,17.45,0,0,0,2-2.43,7.9,7.9,0,0,1,5.15-4c.7-.15,1.38-.39,2.35-.67-1.63-.15-3-.21-4.27-.41a15.56,15.56,0,0,0-6.54.42c.26-.85,1.16-.62,1.7-1a17.89,17.89,0,0,1,1.87-1c-2.15-1.32-4.28-.63-6.7-.34,1.16-.82,2.4-.44,3.24-1.41a3.78,3.78,0,0,0-1-.7,10.61,10.61,0,0,0-1.61-.27c-1.38-.22-2.83.33-4.31-.4C377.33,380.31,378.81,380.89,380.35,380.44Zm-8.47-20.77a1.59,1.59,0,0,0,.08.59,18.11,18.11,0,0,1,1.88,6.37,22.9,22.9,0,0,0,2.48,8.17c.92,1.65,2.5,2.7,3.36,4.34,0,.07.16.1.24.16.4.29.79.59,1.18.9a16.83,16.83,0,0,0,2.56,2,25.37,25.37,0,0,0,5.82,2.54,12,12,0,0,0,6,.19c.35-.09.81.1,1.12-.45a11.6,11.6,0,0,1-4.57-.83c-1.5-.52-2.52-1.71-3.84-2.47-.21-1-1.2-1.38-1.64-2.28a21.15,21.15,0,0,1-1.83-6.68,14.84,14.84,0,0,0-.59-3.22,4,4,0,0,0-2.9-2.88,3.63,3.63,0,0,1-1.25-.76,15.26,15.26,0,0,1-1.15-1.13c-.38,1.07.34,2.21-.69,3.23-.38-1-.72-1.94-1.05-2.84a5.25,5.25,0,0,0-1.26-2.16c-.8-.77-1.59-1.55-2.36-2.36A1.41,1.41,0,0,0,371.88,359.67Zm77.2-35c-.69,0-1.35.05-2,0a8.13,8.13,0,0,0-6.17,2.45c-.51.45-.8,1.14-1.29,1.61a4.12,4.12,0,0,0-1,2,1.73,1.73,0,0,0,.24,1.74,15.65,15.65,0,0,0,1.6-1.15,2,2,0,0,1,1.44-.68,8.67,8.67,0,0,0,1.33-.18,2.26,2.26,0,0,0,1.71-1.07c.37-.57.65-1.21,1-1.77a1.89,1.89,0,0,1,1.69-.91c-1,1.11-2.21,2-2.46,3.53a15.91,15.91,0,0,1,1.73.07,3.33,3.33,0,0,0,2.08-.68c.6-.32,1.12-.8,1.7-1.18.1-.06.31,0,.64.07l-2.95,1.95c1.67,1,3.19.3,4.79-.21L451,331.54c1.25.74,2.46,1.45,3.66,2.19a3.5,3.5,0,0,1,.66.62,4.2,4.2,0,0,1,.56.7,4.7,4.7,0,0,1,.28,1c-1.85-2-3.58-3.55-6.3-4.2.76.95,1.33,1.63,1.87,2.33.4.51.76,1,1.11,1.58.05.09-.08.3-.17.58a23.94,23.94,0,0,0-4.09-4.83l-1.47,0,2.57,3.87a9.14,9.14,0,0,1-2.57-3.05,2.27,2.27,0,0,0-.84-.79,4.79,4.79,0,0,0-4.59-.07c1.27,1.26,2.48,2.47,3.68,3.69.13.13.14.37.34.92-.79-.52-1.46-.73-1.7-1.17a11.8,11.8,0,0,0-2.18-2.48c-.71-.73-1.29-.69-2.07,0-.37.33-.7.69-1,1,.4.32.73.54,1,.81.76.74,1.49,1.51,2.25,2.25a12.43,12.43,0,0,0,1.06.82c1.35,1.05,3,1.12,4.64,1.43l-.34-1.74a18.51,18.51,0,0,0,2.86,1.23,15.49,15.49,0,0,0,2.82.18l-.15-1.23c.69.16,1.24.24,1.75.41a1.54,1.54,0,0,0,1.55-.13,8.67,8.67,0,0,1,1.15-.56l1,.62a2.77,2.77,0,0,0,.14-.41,1.08,1.08,0,0,0,0-.31,9.4,9.4,0,0,0-2.63-5.84,3.48,3.48,0,0,1-1.39-2.36,1,1,0,0,0-.71-.89c-1.53-.75-2.84-2-4.61-2Zm-52.56,61c-1.71.58-3.15,1.09-4.6,1.57a10.34,10.34,0,0,0-5.76,4.43,7,7,0,0,0,.92,9.1,9.1,9.1,0,0,1,1.48,2,4.51,4.51,0,0,0,.65,1,1.51,1.51,0,0,0,2.36-.52c.15-.36.16-.78.28-1.16.17-.56.36-1.11.56-1.66a11.86,11.86,0,0,1,2.53-3.81,12.32,12.32,0,0,0,1.58-2.14,5.88,5.88,0,0,0,.91-3.4q-.12-1.57-.21-3.15a9.37,9.37,0,0,1,0-1.06c0-.33.11-.65.2-1.2a24.57,24.57,0,0,1-1.78,2.12c-.6.58-.67,1.61-1.62,1.87A6.92,6.92,0,0,1,396.52,385.6ZM294.43,459.85l1.43,1.43a5.27,5.27,0,0,0,1.31-.07c1.56-.47,3.1-1,4.66-1.51a38.59,38.59,0,0,1,6.68-2,16.38,16.38,0,0,1,7.56.38,3.6,3.6,0,0,0,3.19-.13,1.23,1.23,0,0,0-.14-1.68,7.72,7.72,0,0,1-.87-1.32,4.36,4.36,0,0,1,2.42-1.39,18.87,18.87,0,0,1,4.63,0,27.37,27.37,0,0,0,8.23.13,16.88,16.88,0,0,0,5.36-1.71c.78-.42,1.72-.74,2.17-1.79-.33,0-.57-.09-.81-.1a24.83,24.83,0,0,0-5.5.58c-1.86.33-3.72.68-5.6.89-2.14.23-4.3.3-6.45.45-1.05.08-2.11.12-3.15.26-1.73.23-3.44.54-5.16.79a70.14,70.14,0,0,0-9.3,2.06,50.21,50.21,0,0,0-8.71,3.35A4.08,4.08,0,0,0,294.43,459.85Zm110.34-93.77c.21-.19.54-.34.61-.57a3.35,3.35,0,0,1,1.84-1.82,9.54,9.54,0,0,0,4.47-5.7,14.08,14.08,0,0,0,.48-5.65,15.12,15.12,0,0,0-2.21-6.69,1.93,1.93,0,0,0-2.83-.65c-.11.71-.71.54-1,.41a2.31,2.31,0,0,0-2.14.18,3.87,3.87,0,0,0-.25,3.16c.08.39.19.77.27,1.15a9.75,9.75,0,0,1-.84,7.11,11.26,11.26,0,0,0-1.2,4.95c.78-.26,1.35-.53,1.58-1.34.31-1.09.77-2.13,1.17-3.19.22-.58.44-1.16.65-1.74l.34,0a3.37,3.37,0,0,1,0,1.81c-.31.94-.69,1.85-1,2.78-.17.49-.55,1-.18,1.64.57-.34,1.22-.42,1.49-1.2a14.1,14.1,0,0,1,1.12-2.23c.35-.61.4-1.46,1.26-1.72a2.13,2.13,0,0,1,0,2,27.35,27.35,0,0,1-1.79,3A11.72,11.72,0,0,0,404.77,366.08Zm20.41.76a11.53,11.53,0,0,0,3.78-3,3,3,0,0,0,.59-1.33,3.84,3.84,0,0,0-.55-2.85,2.73,2.73,0,0,0-2.45-1.34,5.72,5.72,0,0,0-1.35.35,4.44,4.44,0,0,0-.37-2.34c-.64-1.4-2.43-2.16-3.6-1.38a4.66,4.66,0,0,0-1.79,2c-1.09,2.49-.87,5-.49,7.58,1.6-.17,2.12-1.69,3.5-2.46a16.26,16.26,0,0,1-1.31,1.89,8.5,8.5,0,0,1-1.49,1.57,6.49,6.49,0,0,0-1.4,1.37,3.15,3.15,0,0,0-.32.91,8.33,8.33,0,0,0,3.29-2.16c.33-.35.62-.85,1.28-.6a10,10,0,0,1-4.14,3.31,3.75,3.75,0,0,0-1.74,1.72,6.47,6.47,0,0,1,2.75.2,9.77,9.77,0,0,0,2.68.27c1.3-.11,2.57-.5,3-1.95A7.68,7.68,0,0,0,425.18,366.84Zm-33,1.15a5.48,5.48,0,0,0-.71.73,5.72,5.72,0,0,0-.71,1.28,1.52,1.52,0,0,1-.85,1,1.69,1.69,0,0,1-2-.75c-.25-.42-.39-.91-.62-1.34a.77.77,0,0,0-1.42-.07,2.8,2.8,0,0,0-.43,1.39,19.22,19.22,0,0,0,.19,2.83,13.07,13.07,0,0,0,2.62,6.51,8.43,8.43,0,0,0,4.62,3.39,4.78,4.78,0,0,1,.8.36,7,7,0,0,0,4.85.53l-.43-.19a6,6,0,0,1-3.12-2.82,8.36,8.36,0,0,1-.68-6.33c.46-1.79.69-3.58-.45-5.32A2.21,2.21,0,0,0,392.21,368ZM310,444.6a5.14,5.14,0,0,0,2.84,1.85,70.08,70.08,0,0,0,12.43,2.36c1.69.21,3.39.35,5.09.46s3.31.2,5,.15c2.41-.06,4.81-.28,7.22-.38,1.36-.06,2.73,0,4.09,0a8.83,8.83,0,0,0,1.78-.21,2,2,0,0,0,1.37-2.5c-1.12.17-2.25.32-3.37.52a58.48,58.48,0,0,1-7.92.66,36.41,36.41,0,0,1-5.12-.18,10.73,10.73,0,0,1-2.56-.76c-.51-.19-.64-.75-.72-1.23a17.19,17.19,0,0,1-.11-1.73,2.54,2.54,0,0,0-.36.4,3.67,3.67,0,0,1-2.24,2,9.61,9.61,0,0,1-5.06.37,32.74,32.74,0,0,1-9.86-3.15c-.61-.3-1.24-.58-1.91-.9Zm63.74-73.06a11,11,0,0,0-.7-5.42c-.46-1.22-1-1.58-2.29-1.35a5.89,5.89,0,0,0-1,.34,6.6,6.6,0,0,0-2.1,1.65,4.38,4.38,0,0,0-1.23,4.86,12.26,12.26,0,0,0,1.06,2.44,4.88,4.88,0,0,0,5,2.42,4.86,4.86,0,0,1,2.51,0c.71.19,1.44.33,2.22.51-.69-1.16-1.32-2.24-2-3.32a2.48,2.48,0,0,0-1.39-1.27,11.58,11.58,0,0,1-1.49-.65c-.32-.15-.67-.3-.64-.77C372.4,371.27,372.93,371.81,373.76,371.54Zm60.53-71.23v.24c-.92.17-1.86.28-2.77.52a1.42,1.42,0,0,0-1.11,1.41c0,.76.45,1,1.09,1.2a1.48,1.48,0,0,0-.1.27c-.17,1,.15,1.32,1.1,1.05a2.06,2.06,0,0,0,1.43-1.38,3.55,3.55,0,0,1,1.24-2.05c0,.36-.06.61-.11.85a5.26,5.26,0,0,0,.06,2.81c.24.66.42.73,1.1.78s.84-.67,1.35-.85l.77.37c.77-.57.41-1.3.43-2.09-.76-.58-1.55-1.18-2.33-1.79-.11-.09-.13-.29-.24-.58a4,4,0,0,1,.56.1c.82.36,1.6.78,2.44,1.07a1.52,1.52,0,0,0,1.71-.58c.33-.6.25-1-.39-1.64.26-.42.91-.72.52-1.4a2.07,2.07,0,0,0-2.64.26,11.85,11.85,0,0,0,.84-1.28c.49-1.1.11-1.72-1.11-1.9l-.39-.06,0-.77-.78-.21a2.73,2.73,0,0,0-1.33,2.77c0,.62,0,1.24,0,2.17-.33-.46-.5-.63-.61-.84-.31-.62-.61-1.23-.88-1.87s-.85-.66-1.36-.74-.89.43-1.13.85c-.11.2,0,.53,0,.77l-1.11.14c.07,1.55.15,1.7,1.32,2a10.35,10.35,0,0,0,1.48.22ZM350.1,452.21c.14-1.26.11-1.23-.32-1.72s-1-.41-1.53-.37a4.39,4.39,0,0,0-1,.25c-.62.19-1.22.44-1.84.61a55,55,0,0,0-9.3,3.39,35,35,0,0,0-10.75,7.55c-.59.63-1.22,1.2-1.84,1.81-.27.27-.55.54-.83.83a4.45,4.45,0,0,0,2.12,1.57,19.57,19.57,0,0,1,1.79-2.41,38.29,38.29,0,0,1,4-3.8,26.37,26.37,0,0,1,4.69-2.79,10.42,10.42,0,0,1,7-1.05c.19.05.42-.09.6-.13-.24-1.37-1.85-.94-2.34-1.92a7.14,7.14,0,0,1,3.93-1.36C346.32,452.56,348.16,452.37,350.1,452.21Zm25.07-19.4.45.66a3.56,3.56,0,0,1,.23,3.93,8.18,8.18,0,0,1-3,2.88,10.53,10.53,0,0,1-5.6,1.5c.53.64,1,1.17,1.66,1.19a10.14,10.14,0,0,0,3-.16,41.6,41.6,0,0,0,4.16-1.55,14.84,14.84,0,0,0,2.16-.94,11.26,11.26,0,0,1,7.63-1.81c.44.07.93.06,1-.57-.58-1.28-2-.83-3.08-1.4a22.46,22.46,0,0,0,2.17-2.22c.62-.83,1.87-.94,2.3-2.09l-1.55-.4a9.49,9.49,0,0,1-1.64,1.6c-1.44.83-2.45,2.17-3.82,3.08s-2.82,2.17-4.63,2.65a5.18,5.18,0,0,0,.71-5A2,2,0,0,0,375.17,432.81Zm80.36-50.53c.13-1.15,1.56-.86,1.69-2a2.17,2.17,0,0,0-2.07-.15,15.47,15.47,0,0,1-2.61,1A1.84,1.84,0,0,0,451,383.2c0,.34,0,.67.05,1.06l1.07-.23-1.53,1.37a5.84,5.84,0,0,1,3,.71c.24.18.68.1,1,.11s.74,0,1.2,0l-1,1.2a4.65,4.65,0,0,0,2.17,1.41,2.05,2.05,0,0,0,2.22-.38c.9-.78,1.71-1.67,2.63-2.59a7.4,7.4,0,0,0-.89-.72,4.37,4.37,0,0,1-1.86-1.5,2.6,2.6,0,0,0-2-1.09C456.57,382.49,456.05,382.36,455.53,382.28ZM433.88,365a12.86,12.86,0,0,0,1.58-1.94,14,14,0,0,0,1.18-5.34c.09-.85.08-1.7.15-2.55.15-1.84.38-3.67.49-5.52a26.12,26.12,0,0,0-.87-8.16c-.41-1.59-.59-3.3-1.75-4.6-1.13.19-1.53.62-1.35,1.53s.46,1.81.7,2.72c-.4.2-1-.3-1.44.28a4.92,4.92,0,0,1,2,2.11,11.74,11.74,0,0,1,1.21,4.71,37.26,37.26,0,0,1-1,9.35A31.35,31.35,0,0,0,433.88,365Zm-5.29,15.46c-.49,1.54-1,2.89-1.35,4.25-.47,1.72-.82,3.48-1.3,5.19a21.8,21.8,0,0,1-1.21,3.49,48.23,48.23,0,0,1-2.49,4.51c-1.11,1.79-1.89,3.82-3.64,5.2,1.66.83,2.17.71,3-.62.05-.08,0-.21.08-.29,1.11-1.74,2.22-3.49,3.35-5.22.59-.9,1.22-1.79,1.86-2.66.14-.18.42-.26.61-.41.67-.54,1.64-.72,2.11-1.69-.2-.14-.37-.36-.57-.4-.93-.15-1.5.57-2.35,1.18l2.45-6.78a3,3,0,0,0,.21-.71A13.35,13.35,0,0,0,428.59,380.46Zm11.86-34.17c-.05-1-.13-1.71-.12-2.45,0-1.56.17-3.12.14-4.67a16.28,16.28,0,0,0-.42-3.1c-.29-1.36-.78-1.75-2-1.8.18,2.33.42,4.67.53,7,.14,3.17.22,6.34.22,9.52a30.78,30.78,0,0,1-.38,4.17c-.17,1.38-.41,2.75-.65,4.26.39-.22.81-.32,1-.59a4.07,4.07,0,0,0,.64-1.48c.28-1.37.53-2.74.69-4.13a12.1,12.1,0,0,1,2-6.27c.48-.64,1.21-1.37,1-2.38C442.24,344.55,442.24,344.55,440.45,346.29Zm9.08-43.1a32.37,32.37,0,0,1,2-3.8,6.39,6.39,0,0,1,3.57-2.83c.92-.23,1.79-.6,2.71-.83a3.23,3.23,0,0,0,1.75-1.07,10.11,10.11,0,0,1,2.62-1.9c-.38-.7-1.07-.8-1.76-.95-1.67-.36-2.07-1-1.72-2.77.11-.57.18-1.14.3-1.91a3,3,0,0,0-.68.44c-.54.71-1,1.49-1.57,2.15a8.27,8.27,0,0,0-1.71,2.92,8.78,8.78,0,0,1-2.25,3.63,17.28,17.28,0,0,0-1.79,1.84,10.39,10.39,0,0,0-1.95,3.12A1.72,1.72,0,0,0,449.53,303.19Zm-58.45,140a3.22,3.22,0,0,0-.14-.73,3,3,0,0,0-2.77-1.79c-.51,0-1.14.22-1.49-.51l2.87-1.6-.41-1.47c-1.14.72-2.15,1.42-3.22,2a95.31,95.31,0,0,1-10.9,5.18,9.27,9.27,0,0,1-4.3,1l1.17,1.17a6.51,6.51,0,0,0,3.44-.55,3.84,3.84,0,0,1,3.46.19,6.66,6.66,0,0,0,1.15.3l-1.44-1.45c.11-.19.13-.31.2-.35a25.27,25.27,0,0,1,7.17-2.66A6.24,6.24,0,0,1,391.08,443.17Zm71.41-77.4a2.34,2.34,0,0,0-2.22-1.63,5.41,5.41,0,0,0-3.47,1.1,9.45,9.45,0,0,0-3.15,4.07,8.19,8.19,0,0,0-.26,1.17,6.57,6.57,0,0,0,3.45-1.79,12,12,0,0,1,2.44-1.57c-.41.87-1.4,1.33-1.29,2.49a2.66,2.66,0,0,0,2.28-.42,14.93,14.93,0,0,1,3.41-1.37,2.3,2.3,0,0,0,1.3-1.08A2.07,2.07,0,0,0,462.49,365.77Zm-77.26,1.55c1.67-.73,2.31-.51,3.13,1,0,0,0,.1,0,.15.38.71.77.8,1.38.25s1.07-1.06,1.6-1.59c1.07-.42,1.87.44,2.83.6a4.46,4.46,0,0,0-.8-2.69,19.52,19.52,0,0,1-2.14-.27,1.65,1.65,0,0,1-1.41-.92,1.61,1.61,0,0,0-2.3-.58,5.33,5.33,0,0,0-1.68,1.57A3.39,3.39,0,0,0,385.23,367.32Zm37.62-45.65c-.23-1.2-.24-1.18-.8-1.54a19,19,0,0,0-3.9-1.75,62.52,62.52,0,0,1-7.9-2.94,4.44,4.44,0,0,0-4-.11c1,1.34,2.61,2.33,1.93,4.36a2.22,2.22,0,0,0,1.85-.43,5.89,5.89,0,0,1,5-.91C417.82,318.84,420.22,320.29,422.85,321.67Zm-22.47,41.19-.54.53c-.73.74-1.38,1.51-2.66,1.2a1.52,1.52,0,0,0-1.5.83,4.1,4.1,0,0,0-.26,1.05,2.05,2.05,0,0,1,1.75.54c1.08.94,1.84,1,2.62.24a5.34,5.34,0,0,1,2-1.14,8.77,8.77,0,0,0,1.22-.52c.95-.56,1.25-1,.87-2.07-.05-.14-.09-.29-.14-.44A8,8,0,0,0,400.38,362.86Zm18.35-70.15a3.35,3.35,0,0,0,.21,3.34c.82,1.37,1.27,2.88,2,4.29.43.88.75,1.82,1.2,2.69.34.65.76,1.29,1.72,1.22a2.28,2.28,0,0,0-.08-.62c-.38-.85-.79-1.69-1.2-2.53a4.31,4.31,0,0,1,.22-4.88,1.82,1.82,0,0,0,.24-2c-.56.34-.85.45-1.22.34a4.45,4.45,0,0,1-1.06-.49C420.06,293.68,419.43,293.2,418.73,292.71Zm22.47-.63c-.61.2-1.21.32-1.14,1.16s.59,1.09,1.24,1.29c.38.11.76.21,1.15.29a5.17,5.17,0,0,1,2.83,1.51c.36.39.75.75,1.27,1.28a11.93,11.93,0,0,0-2.28-5.63,5.26,5.26,0,0,0-1.68-1.45,1.29,1.29,0,0,0-1.66,0C440.38,291.1,441,291.55,441.2,292.08Zm15.63,87.55c.66.25,1.1.58,1.48.52a2.65,2.65,0,0,1,2.06.66c1-.39.67-1.25.81-2.09.68.89,0,1.62.16,2.33,1-.37,1.66-1.12,2.66-1.32a.61.61,0,0,0,.51-.79,6.08,6.08,0,0,0-.68-1.78c-.74-1.13-1.66-1.26-3.43-.6l.41,1.17c-1.09.32-2.22.62-3.32,1C457.24,378.83,457.11,379.23,456.83,379.63Zm-56.74-17.2a4.12,4.12,0,0,0,.31-1c.08-1.36-2.06-2.93-3.35-2.48a1.24,1.24,0,0,0-.37.24,3.94,3.94,0,0,0-.67,4.48.88.88,0,0,0,.74.34C397.86,363.56,398.94,363,400.09,362.43Zm-10.85-.92c.43,2.12.92,2.46,2.88,2.3a2.53,2.53,0,0,1,1.11.22,13.33,13.33,0,0,1,1.47.8c-.08-1-.21-1.8-.19-2.59a22.85,22.85,0,0,1,.33-2.35c-.61-.11-1.15-.28-1.52.17a1.86,1.86,0,0,1-2.19.5,1.2,1.2,0,0,0-1.34.4Zm56-69.74c-.79-1.51-1.56-3-2.38-4.52a3.3,3.3,0,0,0-2.45-1.74c-1.07-.19-1.56.43-1.21,1.47a3.07,3.07,0,0,0,1.46,1.61A18.5,18.5,0,0,1,445.24,291.77Zm20,87.88-2.29,1a1.21,1.21,0,0,0-.84,1.11,13,13,0,0,1-.43,2,1.35,1.35,0,0,0,.64,1.71.94.94,0,0,0,.82-.08,3.81,3.81,0,0,0,1.52-3.36,2.51,2.51,0,0,1,.24-1.39C465.05,380.4,465.11,380.11,465.27,379.65Zm-50.8,43.92a7.68,7.68,0,0,1,1.48.94,6.59,6.59,0,0,1,1.34,1.92,1.17,1.17,0,0,0,1.33.76c.05,1.62.05,1.62,1.14,1.6.58-1.62.42-2-.86-1.91.84-1.38.15-2.48-1.17-3A6.51,6.51,0,0,0,414.47,423.57Zm2.72-3.17c.79-.41,1.32-.67,1.83-.95a3.62,3.62,0,0,0,2-2.23c.16-.73.23-1.49.37-2.23a.72.72,0,0,0-.44-.86.79.79,0,0,0-1,.37,5.39,5.39,0,0,0-.47,1.23A12.31,12.31,0,0,1,417.19,420.4Zm43.4-35.88c1-.83,1-1.85.92-3a1.88,1.88,0,0,1-1.66-.57,1.4,1.4,0,0,0-1.09-.28,2.24,2.24,0,0,0-1.75,1.21C458.7,382.1,459.32,383.63,460.59,384.52Zm-41,35.78a21.46,21.46,0,0,0,2.27,0,3.49,3.49,0,0,0,2.51-1.14,1.38,1.38,0,0,0,.2-1.52.88.88,0,0,0-1.22-.15,5.71,5.71,0,0,1-.67.3C421.33,418.24,420.78,419.69,419.55,420.3Zm8.54-2.16a1.53,1.53,0,1,0,0,1.95A1.29,1.29,0,0,0,428.09,418.14Z"/><path d="M407.16,407.11c.7-.83,1.75-.87,2.67-1.16a9.3,9.3,0,0,1,5.55,0s0,.09.05.27c-.37,0-.74.09-1.11.11-1.54.07-3.09.09-4.63.23a20.66,20.66,0,0,0-2.53.52Z"/><path d="M464.7,403.28a5.81,5.81,0,0,1-1.28-.18,9.51,9.51,0,0,0-5.63-.38l.75,1c-.13,0-.23,0-.27,0-1.13-.85-1.13-.85-2.91-.41l.16.48-1.84-.73c.87-.15,1.75-.28,2.62-.44,1.26-.24,2.53-.45,3.78-.77a4.41,4.41,0,0,1,3.13.5A15.72,15.72,0,0,1,464.7,403.28Z"/><path d="M450.33,397.66c-1.4.95-3.93.69-5.52-.6Z"/><path d="M443.41,394.88c1.17-.11,2.34-.23,3.52-.32.43,0,.86,0,1.34,0a1.51,1.51,0,0,1-1.33.88,6.21,6.21,0,0,1-3.53-.58Z"/><path d="M383.8,414.61a3.64,3.64,0,0,1-1-1.78,11.78,11.78,0,0,0-2.58-4.41c1.72,1.09,3.19,3.79,3.55,6.19Z"/><path d="M442.55,371.26c.11.62-.52,1-.52,1.69,1-.58,1.53-1.57,2.66-2.36a5.83,5.83,0,0,1-.37,1.06,3.23,3.23,0,0,1-.63.65,10.36,10.36,0,0,0-2.86,3.73A6.79,6.79,0,0,1,442.55,371.26Z"/><path d="M441.47,398.1c0,.58.09,1.17.1,1.75a4.6,4.6,0,0,0,.95,2.75,16.92,16.92,0,0,1,1.14,2.08,5.75,5.75,0,0,1-2.5-4.58c0-.67-.26-1.42.33-2Z"/><path d="M440.18,396.38c0,1.07-.07,2.14-.05,3.21,0,.78.1,1.57.16,2.36,0,.1,0,.2-.08.54a3.23,3.23,0,0,1-.31-.77c-.1-1.13-.19-2.27-.25-3.41a2.36,2.36,0,0,1,.56-1.93Z"/><path d="M417.18,327a8,8,0,0,1,7-.23C421.87,326.78,419.52,326.36,417.18,327Z"/><path d="M423.63,330.89c.92,0,1.85,0,2.78,0s1.68-.12,2.53-.11a7.74,7.74,0,0,1-5.35.48Z"/><path d="M380.87,453.61a4.49,4.49,0,0,1-1.74,3.83l-.85-.74Z"/><path d="M377.14,456c-.36.51-.9.3-1.34.35-.32-1.21-.63-2.4-1-3.71a3.83,3.83,0,0,1,1.77,2.21l.54,1.21Z"/><path d="M378,460.3a5.39,5.39,0,0,0-.76,2.65c-.06.28-.08.57-.13,1-.7-.35-.68-.92-.73-1.41-.07-.73-.07-1.47-.1-2.21Z"/><path d="M378.75,459.69l.54-1.05,3.47,1.65C381.23,460.85,380.05,460.26,378.75,459.69Z"/><path d="M371.86,459.34c.84-1.19,1.94-1.07,2.91-1.6l.15,1.31Z"/><path d="M360.75,429.41l-2.34,2.34c-.14-1.19.65-1.89,1.13-2.7C359.75,428.7,360,428.8,360.75,429.41Z"/><path d="M363.22,427.91l-.19-1.1,3-.83c-.47,1.11-.69,1.26-2.84,1.93Z"/><path d="M362.42,422.47a4.94,4.94,0,0,1-.1,3.37l-.95-.21C361.35,424.46,362.25,423.59,362.42,422.47Z"/><path d="M361.69,429.44l1-.62c.4,1,1.34,1.68,1.44,2.85-1.15-.49-1.67-1.54-2.48-2.29Z"/><path d="M357.24,426.16c.84-.79,1.61-.18,2.45,0l-.2.95Z"/><path d="M361.87,448.88l-.26-.95,3.31-.92A4.2,4.2,0,0,1,361.87,448.88Z"/><path d="M359.77,450.62a4.86,4.86,0,0,0-2.4,2.45c-.23-1.55.56-2.37,1.55-3.24l.84.84Z"/><path d="M362.88,452.67c-1.33-.24-1.81-1.21-2.32-2.21l.87-.52Z"/><path d="M361,446.92l-.85-.12,1-3.23C361.61,445.18,361.61,445.18,361,446.92Z"/><path d="M349.82,466.16c-1.32-.16-1.67-1.13-2.15-2l.8-.33Z"/><path d="M346.9,464.35c-.79.46-1.19,1.34-2,2-.16-1.25.58-1.85,1.35-2.56l.64.65Z"/><path d="M348.67,462.05l2.57-.83c0,.27,0,.51-.11.57a4.5,4.5,0,0,1-2.38,1Z"/><path d="M347.11,460.76c.24-.43.51-.84.71-1.29a11.15,11.15,0,0,1,.53-1.19,3.86,3.86,0,0,1-.19,2.68.75.75,0,0,1-1.05-.26Z"/><path d="M344,461.15l1.85.16c-.05.79-.26,1-.79.76a12.1,12.1,0,0,1-1.1-.64Z"/><path d="M362.15,472.31l-.14-1.05,2.66-.77a3.18,3.18,0,0,1-1.93,1.49,3.23,3.23,0,0,0-.64.33Z"/><path d="M361.05,473.84c0-.54.4-.69.92-.76,0,.87,1,1.37.85,2.47l-1.77-1.77Z"/><path d="M361.39,470.6l-.68-.52.86-2.42A3.89,3.89,0,0,1,361.39,470.6Z"/><path d="M359.59,470.87l-.54.7-1.72-.9A2.86,2.86,0,0,1,359.59,470.87Z"/><path d="M450.3,351.13l-.14-.83,2.39-.78a3.07,3.07,0,0,1-2.3,1.6Z"/><path d="M448.56,352.39c-.88.21-1.28.93-1.8,2a5.84,5.84,0,0,1-.11-.92c.11-.75.71-1.12,1.26-1.68l.65.65Z"/><path d="M449.3,352.1c.83.12.83.12,1.73,1.88C449.94,353.78,449.61,353,449.3,352.1Z"/><path d="M449.68,346.94a2.39,2.39,0,0,1-.22,2.42c-.08.1-.32.05-.63.1Z"/><path d="M447.44,350.63l-1.64-1c.65-.36,1.18,0,1.8.09Z"/><path d="M447.28,276.49a19.79,19.79,0,0,1,0,4.08,4.2,4.2,0,0,1,0-4.08Z"/><path d="M425.46,345.13c.07,1.1,1.39,1.32,1.34,2.55a14.78,14.78,0,0,1-1.6-1.08C424.67,346.13,424.72,346,425.46,345.13Z"/><path d="M423.24,343l.09-2.43c.94.46.76,1.63,1.23,2.43C424.12,343.07,423.68,343.47,423.24,343Z"/><path d="M422.21,344.48,419.77,343a4.19,4.19,0,0,1,2.65.46.75.75,0,0,1-.27,1Z"/><path d="M422,347.88a3.87,3.87,0,0,1,.43-2.05l1,.19Z"/><path d="M347.54,438c.2.11.41.32.62.32.59,0,1.19-.05,2.12-.11-1,.92-1.93.81-2.74,1.12C347,438.86,347.5,438.41,347.54,438Z"/><path d="M346.25,436.73l1.7-1.86c.25,1.07-.36,1.71-1,2.47l-.67-.67Z"/><path d="M345.82,440.16l.85-.46.61,2.52a1.4,1.4,0,0,1-.92-.92c-.15-.41-.36-.8-.54-1.19Z"/><path d="M345.08,439.67,342.61,441a4.89,4.89,0,0,1,1.67-1.82c.15-.11.5.06.77.1Z"/><path d="M343.3,436.25c.86-.35,1.11.64,1.91.59l-.66.66Z"/><path d="M431.4,410.74a2.59,2.59,0,0,0,.77.31,13,13,0,0,1,1.65,0c-.36.67-1,.48-1.5.67a4.3,4.3,0,0,1-1.14.16A.87.87,0,0,1,431.4,410.74Z"/><path d="M430.77,410.07l-.58-.59L431.7,408A2.31,2.31,0,0,1,430.77,410.07Z"/><path d="M429.68,412.5l.8-.2.73,2.28c-1.09-.49-1.15-1.43-1.52-2.14Z"/><path d="M433.57,409l-2.17,1.73-.48-.54C432,410,432.6,409.16,433.57,409Z"/><path d="M471.32,285.49s-.06.1-.1.11a9.07,9.07,0,0,0-4.43,3.12,6,6,0,0,1-2,1.53,4.5,4.5,0,0,1-2.29.54,17.87,17.87,0,0,0-2.19.07,2.5,2.5,0,0,1,1.82-.54,5.85,5.85,0,0,0,4.63-2c.31-.34.66-.63,1-1,.62-.7,1.21-1.42,1.85-2.18l.3.54a3.86,3.86,0,0,1,2-2.15l-1.42,1.63Z"/><path d="M409.31,283.53a10.66,10.66,0,0,0,.6,3.17c.11.24.51.38.26.75l-2.12-2.12.14-.14.89.48c-.51-.94-1.59-1.33-1.53-2.41.72.22.88,1,1.28,1.53Z"/><path d="M412.1,290.61a3.56,3.56,0,0,1,.48,2.82,15.13,15.13,0,0,1-.48,2,.89.89,0,0,1-.29-.93c.12-.77.28-1.53.34-2.3A11.52,11.52,0,0,0,412.1,290.61Z"/><path d="M410.17,287.4a7.34,7.34,0,0,1,1.88,2.75,1.84,1.84,0,0,1,.05.53,8.64,8.64,0,0,1-1.12-1.84C410.8,288.27,410,288.14,410.17,287.4Z"/><path d="M436.76,426.39l-1,.53a4.73,4.73,0,0,1-.29,2.83l-1-1,.08-.08.92.55a18,18,0,0,1-.11-1.81c0-.81.37-1,1.38-1Z"/><path d="M427.54,309.93l1.87.2c-.5.7-1.31.36-1.87.7Z"/></g></svg>