<svg id="Layer_1" data-name="Layer 1" xmlns="http://www.w3.org/2000/svg" viewBox="0 0 2498.25 795.61"><path d="M1296.08,704.48c35.14,10.39,66.33,19.52,97.44,28.87q13.13,3.85,25.83,9c9.62,4,11.19,16.67,2.18,22.07-7.19,4.31-15.87,8.47-24,8.59-49.58.71-99.36,2.77-148.7-.77-28.63-2-57-12.49-84.67-21.5-17.2-5.59-24-21.56-23.11-38.9,1-18.07,10-30.72,28.39-37.29,34.39-12.32,67.58-28.36,102.5-38.7,34-10.07,69.3-16.77,104.48-21.7,63.9-9,128.08-16,192.25-22.82,26.24-2.78,52.77-2.86,79.32-6.9-9.58-.74-19.21-2.47-28.74-2.06-91.72,4-183.44,8-275.11,12.78-40.34,2.1-80.56,6.21-120.86,9.08-48.93,3.49-98,5.61-146.82,10.2-65.42,6.15-130.67,14.14-196,21.25-32.08,3.49-64.29,6-96.26,10.35-46.74,6.34-93.33,13.79-140,21-18.75,2.9-37.4,6.44-56.11,9.55-30,5-60,11-90.24,14.27-10.67,1.16-22.83-2.55-32.93-7.08-11.12-5-11.35-16.59-4.72-25.07,6.48-8.3,15.06-17.46,24.55-20.45,38.7-12.2,77.81-23.45,117.34-32.61,37.46-8.68,75.6-14.48,113.5-21.22,19.89-3.5,39.83-6.9,59.83-9.28q78.06-9.48,156.28-18,102.35-11,204.78-21.12c37.91-3.73,75.87-7.09,113.88-9.54,61.07-3.94,122.16-8.34,183.32-10.12,108.51-3.15,217.08-6.09,325.62-5.94,59.34.09,118.79,5.47,176.47,22.12,29.19,8.42,43.91,25.2,43.13,50.35-.7,22.29-18,41.67-46.65,45.85-64.92,9.46-130,18-195.29,24.72-83.77,8.64-167.83,14.52-251.64,22.82-48.13,4.76-96.07,11.65-144,18.23C1327.17,696.43,1313.33,700.6,1296.08,704.48Z"/><path d="M1674,406.35l104.44-8.2c-5.74-68,26.29-108.89,83.12-132,34-13.82,69.25-22.91,103.87,1.17,4.15,2.89,12.28,1.47,18.17.2,32.33-6.94,55.47,17.21,44.78,48.33-3.88,11.28-.06,18.8,7.7,23.9,22,14.43,44.64,27.77,67.24,41.19,4.62,2.75,10.14,4,17.48,6.74-5.77-65.37,9.12-126.49,32-188.91-7.26-.48-13.19-1.28-19.1-1.2-13.85.19-27.74,1.64-41.55,1-25.22-1.1-39.8-17.36-37-39.83,2.51-20.06,24.61-34,46.4-31.44,23.95,2.79,48.12,4.07,72.23,4.59,4.68.11,10.83-5.33,14-9.83,10.6-15,19.39-31.39,30.36-46.13,7.46-10,16.4-19.59,26.46-26.92,15.93-11.61,34.85-10.34,46.11.72,9.09,8.93,10.24,28.49,1.65,43.62-8.21,14.47-17.3,28.43-27.64,45.28,7.62,3.93,15.51,6.86,22,11.67,6.79,5,17.26,12.07,17,17.83-.32,7.34-8.35,17.35-15.61,20.76-15.31,7.2-32.49,10.28-48.46,16.23-6,2.24-13.28,6.61-15.69,12a480.78,480.78,0,0,0-39.4,140.6c-1.9,15.45-4,31.14-8.62,45.89-2.19,7-9.82,15.8-16.31,17.08-8.29,1.63-18.69-2-26.69-6.25-6-3.15-9.59-10.78-14.34-16.51-29.66,30-75.09,35.33-112.48,11-16.77-10.9-26-11.14-41.64,3.44-41.56,38.67-89.56,52.26-144.48,26.7-6.72-3.12-18.62-1-25.54,3.11-59.11,34.86-121.49,44.22-187.86,26.9a38.28,38.28,0,0,1-9.54-4c-19.75-11.38-39.24-22-62.4-26.92-21.87-4.61-28.16-31.6-10.06-43.94,17.73-12.08,26.73-27.07,32.74-46,2.06-6.49,6-12.37,10.25-20.79-5.56-.61-10.62-2.52-14.9-1.41-39.33,10.19-79.7,17.86-117.39,32.44-30.76,11.9-50.07,37.24-51,73.49-.49,19.73-9.91,35.79-29.65,42.78-15,5.33-30-.4-36.22-12.88-6.73-13.5-9.73-30.5-8.92-45.69,1-18.65,6.69-37.29,12-55.43,9.56-32.43,19.75-64.71,31-96.6,5.18-14.73,17.92-20.9,33.39-18.77s22.6,12.48,24,27.39c1,10.85,6,11,15.38,7.83,33.27-11.24,66.76-21.29,102.74-19.93,24.2.91,46.38,5.47,66.42,20.06,3.85,2.79,12.71,1.78,17.75-.63,20.64-9.85,40.06-22.5,61.13-31.17,30.88-12.72,64.83,3.81,76,34.7,6.56,18.2.82,35.75-9.47,49-15.7,20.23-35.33,37.43-53.53,55.69-4.31,4.32-9.55,7.71-14.37,11.53C1672.62,402.07,1673.28,404.21,1674,406.35Zm263.31-77.15c-23.41-9.1-57.34.56-74.49,21.27-4.29,5.18-5.13,13.21-7.55,19.93,6.94,2,14,6.08,20.79,5.57C1906.2,373.69,1923.31,354,1937.26,329.2Z"/><path d="M902.88,438.59c27.89-1.5,54.28-1.77,80.37-4.74,17.38-2,34.18-8.94,51.56-11.37,6.8-1,14.49,4.41,23,7.3-31,44.74-73.08,61.74-119.59,72.64-37.37,8.75-74,10.54-111-.61-2.76-.83-6.31-.75-8.18-2.49-17.48-16.37-32.33-5.58-48.42,3.25-64.15,35.2-133.15,47.64-205.15,37.7-47.63-6.57-70.33-56.65-49.18-101.41,3.33-7.05,6.2-14.32,9.71-22.49-81,8.26-153.59,28.3-201.4,99.19-9.64,14.3-21.15,27.49-41.14,28.19-31.28,1.08-49.67-28.59-32.78-60.88,24.7-47.19,53.37-92.35,81.58-137.61,5.41-8.69,15.7-15.35,25.13-20.31,24.29-12.79,43-.64,43.68,27.08.09,3.83.74,7.65,1.26,12.75,15-3.32,29-5.6,42.53-9.58,38-11.19,73.72-8,107.7,13.59,3.55,2.26,13.08-.2,16.83-3.7,25.69-24,54.45-42.65,88.25-52.49,34-9.9,70.37-1.61,82.15,30.46,6.82,18.56,2.67,36.21-9.44,48.26-22.25,22.13-47.71,41.07-72.09,61-5.65,4.63-12.37,8-18.59,11.9l.8,5.92L772,459.81C767.68,377.23,827.24,298.14,906.52,279c26.41-6.38,56.76,4.51,70.69,25.37,13.2,19.77,12.4,49.39-6.55,70.51C951,396.82,927.67,415.58,902.88,438.59Z"/><path d="M266.25,253.26c-15.85,3.64-31.72,7.24-47.57,10.93C174,274.61,129.47,286,84.47,295.14c-26.13,5.37-43.21-4.81-50.23-25.67C28.05,251.09,38.32,229.69,62,220.4a879.28,879.28,0,0,1,93-30.6c41.57-11.19,83.66-20.51,125.74-29.67,32.57-7.08,65.48-12.59,98.21-18.94,35.54-6.9,71.05-14,106.59-20.93,32.73-6.38,65.56-12.29,98.19-19.12,30.9-6.46,61.65-13.65,92.38-20.9C713,71.54,749.75,62.45,786.58,53.5c26.2-6.38,52.21-13.77,78.64-19,36-7.11,72.32-13.3,108.73-18.12,6.89-.91,19.08,4.85,21.19,10.42s-3,18.24-8.71,22C961.7,64.92,937.17,84,909.63,92.68c-69.37,22-140,40.32-210.74,57.56-62.42,15.25-125.72,27.21-188.72,40.24-28.13,5.82-56.52,10.44-84.64,16.34a33.73,33.73,0,0,0-16.12,8.85c-30.76,31.09-60.79,62.89-91.55,94-59.33,60-114,123.69-158.79,195.51-4.5,7.23-10.62,13.71-17,19.47-12.56,11.42-20.61,9.26-30.15-5.42-14.85-22.85-4.56-44.08,5.49-63.63,34.3-66.66,81.79-123.82,132.84-178.16,5.87-6.25,11.82-12.42,17.73-18.63Z"/><path d="M2350,352c33.33,1.91,63.11,3.34,92.83,5.52,6.6.48,13.39,2.81,19.41,5.71,13.36,6.42,16.56,18.19,5.76,28.46-10.51,10-23,20-36.41,24.49-54.32,18.16-110.41,20.8-164.62,2.41-46.17-15.66-60.21-60.24-37.74-104.43,25.91-51,68.43-79.73,123.89-88.91,20.72-3.43,40.33,2.81,53,21.78C2416,261.88,2414.46,288,2401,304c-10.65,12.62-23.92,23-36.07,34.41C2360.47,342.48,2356,346.5,2350,352Z"/><path d="M1143.2,413.45c24.55,2.56,47.79,5.62,71.13,7.19,18.41,1.25,37,.29,55.43,1,16,.63,19.73,7.89,13,21.83-12.09,25-36.5,33.42-59.6,40.1-35.88,10.39-72.38,10.1-108.61-3.62-42.91-16.25-62.69-56.81-38.82-104.26,31.1-61.82,80.87-102.87,148-119.82,14.69-3.71,32.72,1.47,48.12,6.15,17.11,5.2,20.43,20.85,17.7,36.9-2.64,15.49-14.7,17.77-28.29,19.66-51.6,7.18-87.75,37.44-114.89,80.06C1144.47,401.72,1144.7,406.14,1143.2,413.45Z"/></svg>