<svg id="Layer_1" data-name="Layer 1" xmlns="http://www.w3.org/2000/svg" viewBox="0 0 500 500"><defs><style>.cls-1{stroke:#000;stroke-miterlimit:10;}</style></defs><rect class="cls-1" x="465.95" y="337.66" width="0.83" height="45.03"/><path class="cls-1" d="M458.53,454.53a6,6,0,0,1,1.57-.43c4.55,0,9.11,0,13.67.07,2.15,0,2.9-.66,2.89-2.78,0-12.79-.08-25.59,0-38.38,0-8.81.27-17.63.29-26.45,0-7-.19-14-.22-20.95q-.07-14,0-27.95h1.1c-.07,5.75-.05,11.49-.05,17.24q0,14.43,0,28.86,0,8.4,0,16.79,0,26.2,0,52.41c0,1.49-.33,2.38-2.06,2.36-5.29,0-10.57,0-15.86,0A1.7,1.7,0,0,1,458.53,454.53Z"/><path class="cls-1" d="M33.34,452.64v-115h1c0,2.07,0,4.15,0,6.24q0,12.86,0,25.7c0,7.59.11,15.17.11,22.75,0,8.77-.09,17.53-.1,26.29,0,7.71.1,15.42.07,23.12,0,1.68,1,1.79,2.2,1.79,4.42,0,1.76-.06,6.18,0a8.36,8.36,0,0,1,2.35.72c0,.26-.1.52-.16.78a19,19,0,0,1-2.24.25c-4.3,0-1.5,0-5.8-.1-1.8,0-2.56.68-2.48,2.45a20.89,20.89,0,0,1,0,3,13.15,13.15,0,0,1-.49,2.11Z"/><path class="cls-1" d="M22.37,408.31q0-27.29,0-54.58c0-5.35,0-10.72.1-16.07h1.25q-.07,11.19,0,22.36c0,3.75.16,7.51.17,11.26,0,8.5,0,17,0,25.5,0,12.92.08,25.84.11,38.76,0,5.21,0,10.41,0,15.62,0,2.41.35,2.79,2.72,2.81,4.42,0,8.84,0,13.27,0a10.35,10.35,0,0,1,1.89.37c0,.21,0,.41,0,.63a6.91,6.91,0,0,1-1.5.39q-7.42,0-14.87,0c-2.88,0-3.19-.32-3.19-3.18C22.32,437.6,22.37,423,22.37,408.31Z"/><path class="cls-1" d="M36.19,464.4a12.45,12.45,0,0,1,1.8-.28c4.42,0,8.84,0,13.27-.05,2.36,0,2.5-.19,2.5-2.64,0-1.55.11-3.09.17-4.64l.85,0a7.4,7.4,0,0,1,.37,1.51,22.17,22.17,0,0,1,0,3.36c-.18,1.79.48,2.5,2.32,2.48C67,464,76.48,464,86,464c16.91,0,33.81.15,50.72.19s33.68,0,50.53,0c15,0,30,0,45,.1,2.63,0,4.45-.43,5.57-3.18a9,9,0,0,1,6.64-5.17c7-1.37,15.14-1.54,18.88,6.7a2.54,2.54,0,0,0,2.68,1.55q23.77-.06,47.56,0,40.53,0,81.05.09,24,0,48,0c2.59,0,2.73-.2,2.63-2.9,0-1.12,0-2.24,0-3.36,0-.23.19-.45.8-.68.06,1.22.19,2.44.17,3.66,0,3.12.18,3.35,3.36,3.32,4.09,0,8.19-.06,12.29-.06a14.27,14.27,0,0,1,1.83.22l.07.59a6.6,6.6,0,0,1-1.82.53q-13.94,0-27.87,0c-6.4,0-12.79-.13-19.18-.12-5,0-10,.19-15,.19-7.52,0-15-.12-22.55-.12-7.92,0-15.84.14-23.77.13-11.49,0-23-.12-34.46-.13-6.74,0-13.47.25-20.2.18q-17.34-.19-34.67-.7a3.19,3.19,0,0,1-2.14-1.61c-2.52-4.89-6.12-6.84-11.64-6.77-3.84.06-7.39.45-10.07,3.49a10.22,10.22,0,0,0-2,3.09,2.51,2.51,0,0,1-2.64,1.87c-9.57.11-19.14.27-28.71.39-10.9.12-21.8.29-32.69.31-23.57,0-47.15,0-70.72,0-15.51,0-31,.06-46.54,0-6.33,0-12.65-.17-19-.3a9,9,0,0,1-1.93-.46Z"/><path class="cls-1" d="M249.55,468.81c-1.72,2-3.29,3.75-4.84,5.55a5.06,5.06,0,0,1-4.15,1.83q-25.27-.06-50.53,0c-8.85,0-17.69.08-26.54.08q-30.6,0-61.21-.05c-14.06,0-28.12.05-42.18.07-4.82,0-9.63-.07-14.45,0-1.63,0-2.3-.6-2.29-2.19s-.13-3.44-.06-5.14c0-.49.58-1,.9-1.43.29.48.8,1,.83,1.46.11,1.38,0,2.77,0,4.15s.62,1.8,2,1.8c10.31,0,20.61,0,30.91,0h69.16q46.38,0,92.74,0a4.79,4.79,0,0,0,3.85-1.56c1.66-1.78,3.54-3.36,5.24-5.1a1.49,1.49,0,0,1,2.5,0c1.63,1.63,3.37,3.16,4.93,4.85a5.35,5.35,0,0,0,4.33,1.83q37.47,0,74.92.05,25.95,0,51.91,0,32.5,0,65,0c2.66,0,2.91-.25,2.91-3,0-1.06-.11-2.12,0-3.17,0-.34.45-.65.69-1,.26.3.74.6.74.91q.06,3,0,5.93c-.05,1.41-1.15,1.42-2.16,1.43l-14.67,0H335.7c-24,0-48.09,0-72.13.21-4.41,0-8-.81-10.61-4.51A24.36,24.36,0,0,0,249.55,468.81Z"/><path class="cls-1" d="M466.7,382.72V452.2l-.74.05c-.07-1.21-.2-2.42-.21-3.63,0-3.54,0-3.54-3.51-3.5-4,0-1.5.06-5.53,0-.49,0-1-.51-1.48-.78.52-.25,1-.72,1.57-.73,4.42,0,2.29-.05,6.71,0,1.61,0,2.21-.49,2.21-2.16,0-11.46.07-22.92.11-34.39,0-7.24,0-14.49,0-21.74,0-.89.11-1.78.17-2.67Z"/><path class="cls-1" d="M34.13,456.84a9.84,9.84,0,0,1,.46,2.11c0,5.13-.05,10.27,0,15.4,0,1.36-.54,1.94-1.86,1.93-2.71,0-5.41.05-8.12,0-1.36,0-2.24-.53-2.22-2.11,0-2.64,0-5.27-.05-7.91a1.92,1.92,0,0,1,2.15-2.22c2,0,4,0,5.94.05.46,0,.89.48,1.33.73-.45.29-.88.79-1.35.83-1.38.09-2.77,0-4.16,0A1.91,1.91,0,0,0,24,467.81c0,1.71,0,3.43-.05,5.14,0,1.31.68,1.91,2,1.9,1.71,0,3.43,0,5.14,0,1.53.06,2.12-.6,2.1-2.12-.06-4.47-.06-8.95-.05-13.42,0-.82.18-1.63.27-2.45Z"/><path class="cls-1" d="M237.42,458.84a7,7,0,0,1-1.11-1.74c-2-7.47,3.79-15.22,11.52-15.11a32.14,32.14,0,0,1,9.31,1.16c5.31,1.71,8.53,9.15,6.66,14.37-.14.39-.67.64-1,1-.14-.44-.46-.92-.39-1.33,1.16-6.75-1-11.4-7.39-13.52a15.6,15.6,0,0,0-12,.91,10.91,10.91,0,0,0-5.52,7.81,14.34,14.34,0,0,0,.26,4.25c.06.62.23,1.23.35,1.85Z"/><path class="cls-1" d="M466.7,457.23c.05.75.13,1.49.14,2.23,0,4.41.08,8.82,0,13.23,0,1.7.67,2.4,2.34,2.36s3.43,0,5.14,0c1.51,0,2.38-.56,2.33-2.21s0-3.16,0-4.74c.06-1.85-.95-2.64-2.64-2.74-1.11-.07-2.24,0-3.35-.05a18.64,18.64,0,0,1-2-.33l0-.78c1.45,0,2.89,0,4.33,0,4.71-.12,4.7-.13,4.64,4.48,0,1.85-.05,3.69,0,5.53,0,1.25-.4,1.81-1.7,1.8-2.9,0-5.81.1-8.71,0-.55,0-1.55-.77-1.55-1.2-.07-5.66,0-11.31.06-17a2.1,2.1,0,0,1,.3-.67Z"/><path class="cls-1" d="M55.09,455.2c-6.12,0-2.47-.08-8.85-.08C46.24,453.15,55.56,453.23,55.09,455.2Z"/><path class="cls-1" d="M43.3,454.47c0-2,0-4.09,0-6.13,0-.43.54-.84.82-1.26.3.42.85.84.86,1.26q.07,6.42,0,12.84c0,.4-.58.8-.9,1.2-.24-.4-.67-.79-.69-1.19-.06-2.24,0-4.48,0-6.72Z"/><path class="cls-1" d="M453.69,455h-8.44C445,453.37,453.69,453.37,453.69,455Z"/><path class="cls-1" d="M253.3,468.17c2.06-1.94,3.46-4.61,6.68-5.92C259.19,464.71,254.86,468.53,253.3,468.17Z"/><path class="cls-1" d="M246.42,468.47c-2.65-1.07-4-3.57-6.3-5.27C241.67,462.43,245.63,465.73,246.42,468.47Z"/><path class="cls-1" d="M456.81,458.91a20.8,20.8,0,0,1,0,2.37c0,.36-.39.68-.6,1-.27-.3-.76-.59-.78-.9-.09-1.71-.12-3.42,0-5.13,0-.36.58-.7.89-1a3.63,3.63,0,0,1,.55,1.12,24.29,24.29,0,0,1,0,2.56Z"/><path class="cls-1" d="M456.75,453.37c-1.22-.66-1.81-5.06-1.29-5.78.13-.18.46-.38.63-.33s.63.36.63.56C456.77,449.67,456.75,451.52,456.75,453.37Z"/><rect class="cls-1" x="33.23" y="117.3" width="0.83" height="45.03"/><path class="cls-1" d="M41.47,45.47a6,6,0,0,1-1.57.43c-4.55,0-9.11,0-13.67-.07-2.15,0-2.9.66-2.89,2.78,0,12.79.08,25.59,0,38.38,0,8.81-.27,17.63-.29,26.45,0,7,.19,14,.22,20.95q.07,14,0,28H22.2c.07-5.75.05-11.49.05-17.24q0-14.43,0-28.86,0-8.4,0-16.79,0-26.2,0-52.41c0-1.49.33-2.38,2.06-2.36,5.29,0,10.57,0,15.86,0A1.7,1.7,0,0,1,41.47,45.47Z"/><path class="cls-1" d="M466.66,47.36v115h-1c0-2.07,0-4.15,0-6.24q0-12.85,0-25.7c0-7.59-.11-15.17-.11-22.75,0-8.77.09-17.53.1-26.29,0-7.71-.1-15.42-.07-23.12,0-1.68-1-1.79-2.2-1.79-4.42,0-1.76.06-6.18,0a8.36,8.36,0,0,1-2.35-.72c.05-.26.1-.52.16-.78a19,19,0,0,1,2.24-.25c4.3,0,1.5,0,5.8.1,1.8,0,2.56-.68,2.48-2.45a20.89,20.89,0,0,1,0-3,13.15,13.15,0,0,1,.49-2.11Z"/><path class="cls-1" d="M477.63,91.69q0,27.28,0,54.58c0,5.35,0,10.72-.1,16.07h-1.25q.07-11.19,0-22.36c0-3.75-.16-7.51-.17-11.26,0-8.5,0-17,0-25.5,0-12.92-.08-25.84-.11-38.76,0-5.21,0-10.41,0-15.62,0-2.41-.35-2.79-2.72-2.81-4.42,0-8.84,0-13.27,0a10.35,10.35,0,0,1-1.89-.37c0-.21,0-.41,0-.63a6.91,6.91,0,0,1,1.5-.39q7.42,0,14.87,0c2.88,0,3.19.32,3.19,3.18C477.68,62.4,477.63,77.05,477.63,91.69Z"/><path class="cls-1" d="M463.81,35.6a12.45,12.45,0,0,1-1.8.28c-4.42,0-8.84,0-13.27,0-2.36,0-2.5.19-2.5,2.64,0,1.55-.11,3.09-.17,4.64l-.85,0a7.4,7.4,0,0,1-.37-1.51,22.17,22.17,0,0,1,0-3.36c.18-1.79-.48-2.5-2.32-2.48-9.51.09-19,.16-28.52.15-16.91,0-33.81-.15-50.72-.19s-33.68,0-50.53,0c-15,0-30,0-45-.1-2.63,0-4.45.43-5.57,3.18a9,9,0,0,1-6.64,5.17c-7,1.37-15.14,1.54-18.88-6.7A2.54,2.54,0,0,0,234,35.84q-23.77.06-47.56,0-40.53,0-81-.09-24,0-48,0c-2.59,0-2.73.2-2.63,2.9,0,1.12,0,2.24,0,3.36,0,.23-.19.45-.8.68-.06-1.22-.19-2.44-.17-3.66,0-3.12-.18-3.35-3.36-3.32-4.09,0-8.19.06-12.29.06a14.27,14.27,0,0,1-1.83-.22L36.27,35a6.6,6.6,0,0,1,1.82-.53q13.94,0,27.87,0c6.4,0,12.79.13,19.18.12,5,0,10-.19,15-.19,7.52,0,15,.12,22.55.12,7.92,0,15.84-.14,23.77-.13,11.49,0,23,.12,34.46.13,6.74,0,13.47-.25,20.2-.18q17.34.19,34.67.7A3.19,3.19,0,0,1,238,36.66c2.52,4.89,6.12,6.84,11.64,6.77,3.84-.06,7.39-.45,10.07-3.49a10.22,10.22,0,0,0,2-3.09A2.51,2.51,0,0,1,264.27,35c9.57-.11,19.14-.27,28.71-.39,10.9-.12,21.8-.29,32.69-.31,23.57,0,47.15,0,70.72,0,15.51,0,31-.06,46.54,0,6.33,0,12.65.17,19,.3a9,9,0,0,1,1.93.46Z"/><path class="cls-1" d="M250.45,31.19c1.72-2,3.29-3.75,4.84-5.55a5.06,5.06,0,0,1,4.15-1.83q25.28.06,50.53,0c8.85,0,17.69-.08,26.54-.08q30.6,0,61.21.05c14.06,0,28.12-.05,42.18-.07,4.82,0,9.63.07,14.45,0,1.63,0,2.3.6,2.29,2.19s.13,3.44.06,5.14c0,.49-.58,1-.9,1.43-.29-.48-.8-1-.83-1.46-.11-1.38,0-2.77,0-4.15s-.62-1.8-2-1.8c-10.31,0-20.61,0-30.91,0H352.93q-46.38,0-92.74,0a4.79,4.79,0,0,0-3.85,1.56c-1.66,1.78-3.54,3.36-5.24,5.1a1.49,1.49,0,0,1-2.5,0c-1.63-1.63-3.37-3.16-4.93-4.85a5.35,5.35,0,0,0-4.33-1.83q-37.47,0-74.92,0-25.95,0-51.91,0-32.51,0-65,0c-2.66,0-2.91.25-2.91,3,0,1.06.11,2.12,0,3.17,0,.34-.45.65-.69,1-.26-.3-.74-.6-.74-.91q-.06-3,.05-5.93c0-1.41,1.15-1.42,2.16-1.43q7.34,0,14.67,0H164.3c24,0,48.09,0,72.13-.21,4.41,0,8,.81,10.61,4.51A24.36,24.36,0,0,0,250.45,31.19Z"/><path class="cls-1" d="M33.3,117.28V47.8l.74,0c.07,1.21.2,2.42.21,3.63,0,3.54,0,3.54,3.51,3.5,4,0,1.5-.06,5.53,0,.49,0,1,.51,1.48.78-.52.25-1,.72-1.57.73-4.42,0-2.29,0-6.71,0-1.61,0-2.21.49-2.21,2.16,0,11.46-.07,22.92-.11,34.39,0,7.24,0,14.49,0,21.74,0,.89-.11,1.78-.17,2.67Z"/><path class="cls-1" d="M465.87,43.16a9.84,9.84,0,0,1-.46-2.11c0-5.13,0-10.27,0-15.4,0-1.36.54-1.94,1.86-1.93,2.71,0,5.41,0,8.12,0,1.36,0,2.24.53,2.22,2.11,0,2.64,0,5.27.05,7.91a1.92,1.92,0,0,1-2.15,2.22c-2,0-4,0-5.94,0-.46,0-.89-.48-1.33-.73.45-.29.88-.79,1.35-.83,1.38-.09,2.77,0,4.16,0A1.91,1.91,0,0,0,476,32.19c0-1.71,0-3.43.05-5.14,0-1.31-.68-1.91-2-1.9-1.71,0-3.43,0-5.14,0-1.53-.06-2.12.6-2.1,2.12.06,4.47.06,9,.05,13.42,0,.82-.18,1.63-.27,2.45Z"/><path class="cls-1" d="M262.58,41.16a7,7,0,0,1,1.11,1.74c2,7.47-3.79,15.22-11.52,15.11a32.14,32.14,0,0,1-9.31-1.16c-5.31-1.71-8.53-9.15-6.66-14.37.14-.39.67-.64,1-.95.14.44.46.92.39,1.33-1.16,6.75,1,11.4,7.39,13.52a15.6,15.6,0,0,0,12-.91,10.91,10.91,0,0,0,5.52-7.81,14.34,14.34,0,0,0-.26-4.25c-.06-.62-.23-1.23-.35-1.85Z"/><path class="cls-1" d="M33.3,42.77c0-.75-.13-1.49-.14-2.23,0-4.41-.08-8.82,0-13.23,0-1.7-.67-2.4-2.34-2.36s-3.43,0-5.14,0c-1.51,0-2.38.56-2.33,2.21s0,3.16,0,4.74c-.06,1.85,1,2.64,2.64,2.74,1.11.07,2.24,0,3.35,0a18.64,18.64,0,0,1,2,.33l0,.78c-1.45,0-2.89,0-4.33,0-4.71.12-4.7.13-4.64-4.48,0-1.85.05-3.69,0-5.53,0-1.25.4-1.81,1.7-1.8,2.9,0,5.81-.1,8.71,0,.55,0,1.55.77,1.55,1.2.07,5.66,0,11.31-.06,17a2.1,2.1,0,0,1-.3.67Z"/><path class="cls-1" d="M444.91,44.8c6.12,0,2.47.08,8.85.08C453.76,46.85,444.44,46.77,444.91,44.8Z"/><path class="cls-1" d="M456.7,45.53c0,2,.05,4.09,0,6.13,0,.43-.54.84-.82,1.26-.3-.42-.85-.84-.86-1.26q-.08-6.42,0-12.84c0-.4.58-.8.9-1.2.24.4.67.79.69,1.19.06,2.24,0,4.48,0,6.72Z"/><path class="cls-1" d="M46.31,45h8.44C55,46.63,46.31,46.63,46.31,45Z"/><path class="cls-1" d="M246.7,31.83c-2.06,1.94-3.46,4.61-6.68,5.92C240.81,35.29,245.14,31.47,246.7,31.83Z"/><path class="cls-1" d="M253.58,31.53c2.65,1.07,4,3.57,6.3,5.27C258.33,37.57,254.37,34.27,253.58,31.53Z"/><path class="cls-1" d="M43.19,41.09a20.8,20.8,0,0,1,0-2.37c.05-.36.39-.68.6-1,.27.3.76.59.78.9.09,1.71.12,3.42,0,5.13,0,.36-.58.7-.89,1.05a3.63,3.63,0,0,1-.55-1.12,24.29,24.29,0,0,1,0-2.56Z"/><path class="cls-1" d="M43.25,46.63c1.22.66,1.81,5.06,1.29,5.78-.13.18-.46.38-.63.33s-.63-.36-.63-.56C43.23,50.33,43.25,48.48,43.25,46.63Z"/><polygon class="cls-1" points="22.44 337.66 22.31 162.34 23.41 162.34 23.69 337.66 22.44 337.66"/><polygon class="cls-1" points="34.38 337.66 34.16 162.34 33.34 162.34 33.34 337.66 34.38 337.66"/><polygon class="cls-1" points="477.8 337.66 477.67 162.34 476.42 162.34 476.7 337.66 477.8 337.66"/><polygon class="cls-1" points="466.77 337.66 465.95 337.66 465.73 162.34 466.76 162.34 466.77 337.66"/></svg>