<svg id="Layer_1" data-name="Layer 1" xmlns="http://www.w3.org/2000/svg" viewBox="0 0 500 500"><path d="M487.28,170.9c-.84-7.26-3.34-14-6.45-20.62a55.35,55.35,0,0,0-16.15-20.51A63.38,63.38,0,0,0,450,121.25c-3.8-1.56-7.55-3.25-11.91-3.4-2.56-.09-5.78-.23-6.83-4.23-.93-3.57-.4-7-.89-10.82l2.08,1.22-1.42-2.34,1.27-1.36a61.33,61.33,0,0,0,15.51,11.92l.55-.7-12.08-11c.09-.11.19-.21.28-.31l2.89,2.26c-1.1-2.66-3.48-3.37-4.83-5.07.82-1.85,2.16-3.5,1.1-5.46,1.94-2.34.1-5.11,1.48-7.86.16.47.31.94.47,1.41a23.56,23.56,0,0,0-.32-6.84c-.5-2.08-.48-4.32-1.94-6.19a36.18,36.18,0,0,0-10.1-9.12c-.62-.36-1.57-.91-1.39-1.52.74-2.45-.46-4.67-.85-7.64a36.82,36.82,0,0,1,5.51,8.88,5.79,5.79,0,0,0,6,3.78A11.2,11.2,0,0,1,446.1,73.2c.16.31.24.71.83.69,1.44-1-.55-1.92-.32-3.29.74,1.06,1.3,1.84,1.95,2.75.31-1.83-1-2.93-1.45-4.52.85.46,1.27-.27,2-.44l2.2,3.15c.54-.59,1.22-1.06,1-1.76-.9-2.87-1.81-5.76-4.82-7.26-3.28-1.62-6.53-3.27-9.78-4.93a14.11,14.11,0,0,0-6.5-1.78,12.07,12.07,0,0,1-8.15-2.63c-1.52-1.28-2.77-3.81-1.7-5.08,2-2.31.87-4,0-5.84-.62-1.29-.88-3-2.46-3.56A7.75,7.75,0,0,1,414,30.16c-1.51-1.29-3.43-1.62-5.34-1.94-4.39-.73-7.61,2.41-11.43,3.56-.08,0-.11.26-.21.53l2.19,1.13c-2.12,1-2.15,3.11-3.37,4.64-1.54-.91-2.14.21-2.81,1.23-1.67,2.53-1.76,5.66-3.15,8.3a1,1,0,0,0,.37,1.39c1.87.88,1.31,2.43,1.1,3.83a19.15,19.15,0,0,0-.38,5.06,2.28,2.28,0,0,1-.82,1.93c-.28-.48.43-1-.14-1.45-1,1.12-1.83,2.25-2.83,3.28-2.94,3-6.75,5.15-8.82,9.11-4.21,8-3.7,14.42.53,21.63a58.45,58.45,0,0,1,4.38,10.52c.71,2,1.38,4.08,2.35,6.52.14-8.75-2.34-16.84-2.23-25.8,1.76,5.3,2.19,10.29,4.7,14.64a1.94,1.94,0,0,0,.35-1.36,52.24,52.24,0,0,1-1.3-14.29c.22-3.12-.77-6.31-.93-9.48a17.55,17.55,0,0,1,2.5-9.84,6.81,6.81,0,0,1-.12,1.36c-.27,3.22-1.43,6.4-.62,9.64,2.15,8.53,7.15,15.53,12.18,22.51,2.08,2.88,4.95,5.23,6.07,8.72,4.27,2.85,2.84,7.22,2.78,11.07a19,19,0,0,1-4.09,11.7c1.75-.41,2.94-.45,4.15.44l1.81-4c2.68.26,3.83-.82,3.16-3.41-.75-3-.09-6.12-1.08-9.17l7.67,9.26a38.43,38.43,0,0,0-7.35,14c1.54-1,.91-2.69,2.48-3.25a7.88,7.88,0,0,0-.58,1.52c-.18,1.61-2,2.16-2.31,3.58-3,13.55-4.89,27.12-1.53,41,2.5,10.3,8.18,18.75,14.47,27,1.52,2,2.9,4.09,4.31,6.26l-.37-2.36a31.57,31.57,0,0,0-2.41-5.37c-3.43-5.42-4.9-11.45-5.75-17.71.83-.12.35,1.15,1.3,1.08-2-7-.52-13,5.17-18.61A73.42,73.42,0,0,0,439.49,190c.27-1.88-2-2.84-1-4.7.93,1.18,1.31,2.56,2.73,3.54-.63-2.3-2-4-2-6.3l.93.76c1.22-2.23-.05-4.72.61-6.56,3.63-.52,4.52-4.59,7.73-4.71,1.59-7.56-1.2-13.82-4.89-20.06.83,0,1.65-.27,2,0,1.84,1.56,3.42,3.42,5.66,4.63.55-.53,1.25-.29,2,0,3.18,1.48,5.81,3.82,8.75,5.68.66.42.93,1.41,1.94,1.37a6.73,6.73,0,0,1,5.16,2.08c2.1,1.92,5.28,2.45,6.65,5.47a34,34,0,0,1,2.4,19c-.75,5.68-2.1,11.26-3.42,17.58,2-1.76,2.39-3.48,3.14-5.1,1.35-.08,1.64-1.12,1.74-2.24a2.18,2.18,0,0,1,.31-.95c1.17-2.18,2.25-4.42,3.37-6.63,1.33-2.65,1.78-5.56,2.57-8.38A35.59,35.59,0,0,0,487.28,170.9ZM391.8,49.09c-1.67-1.94-.28-2.88.75-4.62C393,46.57,392.27,47.63,391.8,49.09Zm29.61-3.91a1.59,1.59,0,0,1-.9,1.87C419.77,45.81,420.58,45.54,421.41,45.18Zm.91,80.63a4.18,4.18,0,0,1-1-3.58C422.06,123.53,422.57,124.38,422.32,125.81Z"/><path d="M467.16,221.58c.09-.89.38-1.17,1.07-1.1C468.39,221.37,468.05,221.63,467.16,221.58Z"/><path d="M417.31,445.69c1.31-7.52,2.47-15.08,1.66-22.72-.43-4.06-1.2-8,0-12.06.16-.51.31-1.21-.45-1.59-1.33,2.24-2.3,4.72-4.89,6.13-1.78,3.7-3.12,7.87-6.31,12,.51-2.25-.78-4.12.33-5.22,5-4.93,8-10.93,10.27-17.39.29-.82.54-1.81,1.59-2.16,3-1,4.28-5.75,2.29-8.43-.88.56-.23,1.8-1.21,2.53a16.06,16.06,0,0,0-1-9.84c.73-.62,2.05,0,2.3-1.3-1.44-3.41-4.74-4.17-7.7-4.9a4.19,4.19,0,0,0-4.91,2.36l1.54,1.21a38.43,38.43,0,0,1-4.63.87c-1.71.1-7.71,3.73-8.32,5.34a3.74,3.74,0,0,0,0,1.34c.05,1.78-1,2.86-2.07,4.12-1-1.17.58-2.25-.53-3.15-.76.51-1.45,1.26-2.5.61,0-.47.07-1,.12-1.52-.51-.06-.91-.15-1.31-.16a6.48,6.48,0,0,1-1.6-.2h0l-3.57-.93-.81-.13c-3.61-.61-7-2.12-10.62-2.65a24,24,0,0,0-14.83,2.21c-5.79,3-9.21,8.17-12.79,13.23-.52.74-1.16,1.78-.17,2.63,2.17-.81,1.79-5,5.45-3.59,2.6-4.26,6.09-7.34,11.43-6,5.95,1.52,11.38,0,16.89-1.81,2.05-.68,4.18-1.12,6.28-1.67a4.21,4.21,0,0,1-3,1.95c-5.61.55-9.23,4.11-12.17,8.37a59.32,59.32,0,0,0-8.43,19.44c-1.69,6.73-3.18,13.46.57,20.13.93,1.65,2,1.67,3.21,1.19,2-.78,2.74.07,3,1.93-.34.34-.83.61-1,1-1,3.26-3.76,4.25-6.59,5.27-3.74,1.35-7.75,1.53-11.49,2.81-2.44.84-4.84,2.23-7.46,1.25-2-.74-4.05-.51-6.05-.87-1.64-.3-3.29-.47-5.65-.79,2.53-.82,4.34,0,6.24,0-.37-1.31-1.36-1.34-2.14-1.63-6.27-2.29-12.6-4.68-16.65-10.34a123,123,0,0,0-9.6-11.63c-8.53-9.33-16.95-18.76-29.37-23.15-2.08-.74-4.13-1.59-6.19-2.39,1.44,1.4,3.6,1.62,4.56,3.71-1,0-1.82.12-1.7,1.46l2.66,2.19c-.6,1.1-.2,2.08-.13,3.09.15,2.3,2.49,4.18,1.52,6.55-.76,1.87-.1,3.8-.81,5.69a5.21,5.21,0,0,0-.18,3.77,32.37,32.37,0,0,0,4.88,8.54c1.42,1.74,2.65,3.64,4.18,5.76l1.79.84h-2c.67.32,1.39.44,1.85,1.16-.11.49-.24,1-.36,1.54-.49.12-1-.48-1.39.36-.41.54,1,1.49-.21,2.12a1.76,1.76,0,0,1-1.83,1.31c-.1-1.15,1-.91,1.35-1.48-1.42-1-2.74,0-4.31.27-.05-.29-.09-.64-.19-1.3-.82,1-2-.4-2.47,1.07-1.23-1.45-2.94-.9-4.44-1.09-3.86-.51-7.9.9-11.63-.44-7.18-2.57-14.9-3-22-5.65-1.18-.44-1.89,1-3.15.53-2.18-.87-4.45-1.51-6.68-2.25-.55-.19-1.08-.67-1.73.06,1.19.79,2.38,1.5,3.47,2.32q5.21,3.92,10.35,7.91a50.18,50.18,0,0,0,8.68,5.39c2.25,1.12,4.5,2.83,6.74,3.62a44.87,44.87,0,0,0,15.74,2.38c6.91-.14,13.85.68,20.74-.73a2.43,2.43,0,0,1-1,.63c-3.28,1.19-6.55,2.42-9.84,3.57-5.61,1.95-11.36,3.73-17.33,3-16-2.07-32-4.47-47.3-10.38.22.84,1,.87,1.52,1.21,2.72,1.83,6.72,1.76,8.16,5.51,0,.1.36.09.58.14.18-.38-.65-.77.06-1,1.18.48,1,1.92,1.9,2.72l.55-.7c1.59,2.14,4,2.32,6.26,2.68.09,1.28,1.23,1.63,1.69,2.58.71-.52,1-1.8,2.29-.84-.74,2.73,2.75,2.06,3.31,3.91a4.14,4.14,0,0,1,4,2.42c.7-.34-.37-.91.45-1.24,1.16,3.45,4.52,2.65,7.16,3.84.84,1.24,1,1.3,2.3.6,2.89,2.1,7.38,2.51,8.51.67l.7,1.12c4.51-1.17,9.2-1.28,13.65-2.85,3.26-1.14,6.73-1.68,10.05-2.69,3.11-1,6.19-2.08,9.21-3.31,5.59-2.3,10.55-5.73,15.48-9.15,4.31-3,9.16-4.88,13.77-7.24,1.94-1,3.65-3,6.18-2.32,4.76,1.28,9.58,2.18,14.44,3,7.38,1.29,14.28.15,21.2-2,3.5-1.06,7-2.2,10.51-3.33-1.93,7.62-2,8.29-.85,9.21a19.08,19.08,0,0,1,8.95-14.12c4.07-2.61,8.38-5,12.1-9.31-.93,6.07-.59,11.73-4.56,16.23l5.86-4.94.42,1c2.15-2.32,3.92-4.89,4.26-8.55,2.18,4.55.53,8.15-1.37,11.75,2.27-2.2,5.59-3.47,5.8-7.23A26.36,26.36,0,0,1,417.31,445.69Z"/><path d="M420.42,398.39l-.51,2.7-.33-.07c.22-.86.45-1.73.67-2.6Z"/><path d="M402.56,442.72c-1.36,1-3,1.7-4.35,2.82a56.33,56.33,0,0,0,7.86-13.33v0H404.5a2.75,2.75,0,0,1,2.05-3.06c.44,1.24-.56,2.06-.48,3.06h0l0,0a38.35,38.35,0,0,1,.14,6.42C405.94,440.59,404,441.62,402.56,442.72Z"/><path d="M102.63,159.24c10.58-4.9,13-14,14.62-23.67a77.08,77.08,0,0,1-4.69,30.4c5.83-4.3,10.42-8.94,15.42-13.61a45.49,45.49,0,0,1-4.43,10A59,59,0,0,1,94.63,189.3a47,47,0,0,1-16.49,3.64c-7.1.4-14.18.64-21.23-.76a2.94,2.94,0,0,0-3.65,2.69c-.31,4.08-2.81,7.61-2.81,11.74,0,3.27-.27,6.58,1.43,9.65.88,1.59.66,4,3.22,4.17.95,3.93,5.32,4.76,6.82,8.44.08-.21,0,.08-.08.17,2.43,2.36,6.62,2.28,7.57,6.39L71,236l.18,1.52c1.62.29,1.24,1.79,1.69,2.82,2.18.43,3.33,3.06,2.87,6.26-.53,3.64-2.19,6.83-3.73,10.08-.1.23-.19.46-.29.7,1.71.89,2.84-1.91,4.65-.19,3-7.89,3.19-16.45,8.46-23.37.82.08,1.57-.45,1.85-1.66l1.53.45c1.48-1.5,2.54-4.09,5.42-2.11-.64,2.58-3.09,4.12-3.91,7.16,3.27-1.43,5.88-3.06,9-3.21.22,1-.72.87-.78,1.64l2.08.77c.29.63-.59.67-.53,1.27a11.94,11.94,0,0,1,4.53.19c-2,.6-3.64,1.14-5.34,1.61a22.65,22.65,0,0,0-10.91,7.22c-2.12,2.4-4.95,3.85-7.56,5.55a6.2,6.2,0,0,0-2.46,3.55c2.13.12,3.54,1.34,5,2.63,2.1,1.89-.21,3.62,0,5.4,4.89,3.82,5.45,12.78.77,16.64a2,2,0,0,0-.25,3.14c1.24,1.18.86,2.25.27,3.47-2.09,4.28-5.41,6.37-10.24,5.93a5.31,5.31,0,0,0-1.69.46,8.45,8.45,0,0,0-6.74-2.51,9,9,0,0,1-7.39-3.1,1.28,1.28,0,0,1-.36-1.42c1.06-2-.22-3.14-1.28-4.5a2,2,0,0,0-2.48-.85,3.37,3.37,0,0,1-2.67-.22c-3-1.31-6.11-.56-9.16-.58s-5.6-1.18-8.23-2.18c0-1.72,1.89-1.85,2.37-3.43a47.36,47.36,0,0,0-5.15-2.67c-2-.77-2.9-1.79-2-3.94a10.5,10.5,0,0,0,.43-2.08c1.48-.3,1.33.89,1.55,1.69,1.85-.35,4.62.85,8.78,3.74-1.14-6.08-4.91-11.37-6.32-17.44-1-4.46-2.93-9.07-.37-13.7a1.27,1.27,0,0,0-.65-1.91c-5.54-3-6.76-8.58-8.43-13.9a2,2,0,0,1,.4-2.27l3.3,6.8c.25-2-.6-3.38.25-5l5.54,13.7c.54-1.8-.14-3.38-.21-5-.46-9.68,2.34-18.42,7.23-26.66,1.55-2.61,4-5,3.25-8.53a1.22,1.22,0,0,1,.19-.89c3-3.94.69-7.73.08-11.76-.86-5.69-2.68-11.19-3-17a59.33,59.33,0,0,1,1.08-13.95c.5-2.67,2.3-4.89,2.48-7.34.17-2.23,1.64-3.74,1.86-5.81a7.91,7.91,0,0,1,1.48-3.35,76.67,76.67,0,0,1,6.07-8.4c1.42-1.62,3.72-2.35,5.89-2.77,2.89-.57,5-2.36,7.17-4.27,2.75,1.41,4.37-1.1,6.46-2.09,1.22.8.85,1.51,0,2.2a96.43,96.43,0,0,0-14.52,14.4c-3.14,3.89-3.68,8.6-4.24,13.31a1.58,1.58,0,0,0,.1.6.79.79,0,0,0,.18.26c3.8-4.91,6.91-10.45,12.84-13.48-.59-.9-.34-1.6,1.1-2,.51-.15.88-1,1.19-1.52a46.69,46.69,0,0,1,5.58-7.64c4.43-5.18,5.54-11.44,7.39-17.52.24-.78.81-.82,1.32-1.14l.64-2.22c1,2.84.78,5.3,1,8.16,1.4-2.76-.09-5.11.23-7.39,1.3-.22,1.45.68,1.54,1.52,1.34,13,2.52,26-1.25,38.77-1.74,5.93-4.9,11.19-8.42,16.22a4.38,4.38,0,0,0-.84,1.62c5.93-4,10.07-9.68,14.46-15.09,4.53-5.58,6.77-12.26,8.33-19.22,1.59-7.13.67-14.07-1.08-21a29.52,29.52,0,0,1,4.09,8.29c.45,1.52,1.88,1.94,2.56,3.16,1.14,2,.1,3.77-.09,6,2.35,2.09.53,4.7,0,7.29-.17.93-.66,1.78.31,2.82.64.69,0,2.06-.45,3-.64,1.51-.19,2.86.27,4.36l-.84,1.25c1.46,1.82-.29,3.2-.71,4.76A29.43,29.43,0,0,0,102.63,159.24ZM46.43,192,52,185.33C49.74,187.07,46.2,187.73,46.43,192Zm33.22,91.24c.52,1.44,0,2.77-.86,4.83C80.43,286.15,81.34,284.87,79.65,283.28Zm-19.76,3.8c-.35-.42-.6-.8-1.07-.49a.69.69,0,0,0-.15.67C59,287.84,59.41,287.52,59.89,287.08Z"/></svg>