<svg id="Layer_1" data-name="Layer 1" xmlns="http://www.w3.org/2000/svg" viewBox="0 0 500 500"><path d="M85.47,371.72a3.1,3.1,0,0,0,.38.3c.44.23.87.47,1.33.66,1.53.68,3,1.41,4.81,1.12h.07c.48,0,.57.14.54.63s0,1.09-.08,1.63a3.67,3.67,0,0,0,1,2.24c.18.26.39.28,1,.24a5.45,5.45,0,0,0,.2-.89,4.07,4.07,0,0,1,1.17-2.33,5.74,5.74,0,0,1,1.59-1.44,11.28,11.28,0,0,1,2.08-1.13,6.31,6.31,0,0,1,2.31-.43,1.8,1.8,0,0,1,1.51.76,3,3,0,0,0,2,1.13c.77.13,1.32-.39,1.88-.81a4.67,4.67,0,0,0,.77-.77.87.87,0,0,1,.72-.3c.23,0,.46,0,.69,0H214.83c.49,0,1-.08,1.49-.11s.82,0,1.22,0c.75,0,1.5.12,2.24.12H281.5c.32,0,.63-.07.95-.09a11,11,0,0,1,1.15,0c.68,0,1.36.11,2,.11h54.49q15.58,0,31.17,0l19.5,0a1.61,1.61,0,0,1,1.38.55,4.6,4.6,0,0,0,1.51,1.14,1.49,1.49,0,0,0,1.43.07,3.57,3.57,0,0,0,1.67-1.23,1.35,1.35,0,0,1,1.2-.52,5.81,5.81,0,0,1,3.58,1,9.89,9.89,0,0,1,1.52,1,5.5,5.5,0,0,1,2.15,3.33,9.24,9.24,0,0,0,.21.91c.64.1.95-.2,1.3-.67a4.19,4.19,0,0,0,.65-3.36c-.11-.71.13-.89.85-.74a2.16,2.16,0,0,0,.8,0c.56-.07,1.12-.17,1.68-.29a5,5,0,0,0,.68-.29l.66-.35,1.08-.54.63-.26.75-.35a2.59,2.59,0,0,0-1.36-1.16c-.39-.16-.77-.37-1.16-.55l-.56-.25a6.6,6.6,0,0,0-3.14-.68c-.82,0-1-.11-.88-1a3.52,3.52,0,0,0-.52-2.73,3.67,3.67,0,0,1-.26-.48c-.26-.48-.42-.54-.93-.44a.48.48,0,0,0-.44.44l0,.21a5.33,5.33,0,0,1-2.6,3.86,21.77,21.77,0,0,1-2,1.25,1.8,1.8,0,0,1-.49.22,7,7,0,0,1-2.78.08,1.48,1.48,0,0,1-.62-.35c-.25-.21-.46-.49-.71-.71a2.44,2.44,0,0,0-3.25.13c-1,1-1,1-2.49,1H284c-.61,0-1.22.1-1.83.14a4.87,4.87,0,0,1-.54,0c-.75-.05-1.49-.14-2.24-.14H219.84c-.48,0-1,.09-1.43.12a3.25,3.25,0,0,1-.54,0c-.67-.05-1.35-.15-2-.15H109a1.33,1.33,0,0,1-1.3-.55,2.57,2.57,0,0,0-.82-.79,3.89,3.89,0,0,0-1.1-.31,2.31,2.31,0,0,0-2.43,1.12,1.07,1.07,0,0,1-.9.51c-.61,0-1.23,0-1.84,0a2.32,2.32,0,0,1-1.56-.58.7.7,0,0,0-.24-.13,6.68,6.68,0,0,1-2.63-1.87,4.35,4.35,0,0,1-1.44-3,.49.49,0,0,0-.47-.56c-.52-.08-.65,0-.86.32a8.71,8.71,0,0,0-.51.88,4.21,4.21,0,0,0-.32,1.1,7.42,7.42,0,0,0,0,1.49c.06.73-.12.9-.82.85a3.33,3.33,0,0,0-1.48.07,11.89,11.89,0,0,0-2.62,1.06,3.11,3.11,0,0,1-.82.32A2.39,2.39,0,0,0,85.47,371.72Z"/><path d="M325.78,386.11c0,.41.08.81.09,1.22a14.26,14.26,0,0,1-.31,4.87c-.17.51-.19,1.07-.31,1.6a4.68,4.68,0,0,1-.34,1.1,15.32,15.32,0,0,1-1.09,2.32c-.41.57-.73,1.2-1.12,1.77s-.8,1-1.16,1.59a5.32,5.32,0,0,0-.58,1.14,1.45,1.45,0,0,0,0,.85,2.15,2.15,0,0,0,.48.73.79.79,0,0,0,.45.27,1.23,1.23,0,0,0,1.38-.5c.23-.34.53-.63.8-1,.12.1.2.13.22.19a2.71,2.71,0,0,1,.06,2.43,1.9,1.9,0,0,1-1.41,1.16,3.79,3.79,0,0,1-3.14-.7,4.55,4.55,0,0,1-1.54-1.91,1.4,1.4,0,0,0-.17-.37,2.62,2.62,0,0,1-.49-1.61c0-1,0-2,0-3.06a2.89,2.89,0,0,1,.49-1.8.89.89,0,0,0,.15-.38,3.32,3.32,0,0,1,.65-1.76c.19-.25.22-.55-.21-.72a3.59,3.59,0,0,1-.6.72,1.28,1.28,0,0,0-.54.82.89.89,0,0,1-.22.49c-.49.42-.45,1-.6,1.54a16.08,16.08,0,0,1-.65,1.56,3.48,3.48,0,0,0-.1.67,6.3,6.3,0,0,1-.19,1.07,15,15,0,0,0-.6,4.56,1.79,1.79,0,0,1-.15.8,4.48,4.48,0,0,1-2.72,2.22,27.94,27.94,0,0,1-4,.82,1.85,1.85,0,0,0-1.37,1,1,1,0,0,0,.49,1.45l.53.3a2.2,2.2,0,0,1-3.5-.82c-.14-.39-.27-.77-.38-1.17a1.31,1.31,0,0,1,0-.59,7.35,7.35,0,0,1,1.5-3.37,13.68,13.68,0,0,1,4.91-3.51,10.32,10.32,0,0,0,2.44-1.53,14.44,14.44,0,0,0,2.85-3.67,1.49,1.49,0,0,0,.15-.52.33.33,0,0,0-.26-.4c-.52.49-1,1-1.45,1.37a11,11,0,0,1-1.52,1.11c-.66.39-1.36.7-2.06,1-.36.17-.77.25-1.13.45a3.74,3.74,0,0,1-1.76.45,6.34,6.34,0,0,1-3.11-.52,8.24,8.24,0,0,1-1.79-1.29,5.67,5.67,0,0,1-.9-1.33,5,5,0,0,1-.53-1.24c-.26-.79-.57-1.57-.87-2.35,0-.08-.11-.14-.16-.22a3.81,3.81,0,0,0-1.77-1.32c-.25-.1-.53-.15-.6-.55l1.84-1a.89.89,0,0,1,.4-.06c1.41.11,2.88-.27,4.19.56a9.12,9.12,0,0,1,2.65,1.17,6.72,6.72,0,0,0,1.87.57,12.72,12.72,0,0,0,4.13-.13,2,2,0,0,0,.58-.19c.79-.38,1.59-.76,2.35-1.19a17,17,0,0,0,1.75-1.15c.55-.39,1.06-.85,1.6-1.26s.52-.47.28-1.23a2.54,2.54,0,0,1-1.87-.17,3,3,0,0,1-1.84-1.76c-.08-.24-.23-.45-.32-.68a2.15,2.15,0,0,1-.17-.65c-.05-.64.2-.89.84-.82a.89.89,0,0,1,.54.24,1.5,1.5,0,0,0,1.17.44,5.31,5.31,0,0,0,3-.53,6.07,6.07,0,0,0,2.18-1.63.59.59,0,0,1,.23-.14l.79-.3a2,2,0,0,1,0,.56,8.25,8.25,0,0,0-.34,2.75c0,2,0,4-.06,6a6.6,6.6,0,0,1-.34,1.51c-.12.44-.31.85-.41,1.28a2,2,0,0,1-.35.87.86.86,0,0,0,0,1.18c.17-.28.26-.68.5-.79.48-.23.51-.64.64-1a2.15,2.15,0,0,1,.33-.66,2.06,2.06,0,0,0,.4-1.06c.13-.83.3-1.65.45-2.47.06-.34.16-.67.19-1,.06-.82.1-1.63.13-2.45a1.55,1.55,0,0,1,.4-1.09C325.7,385.64,325.75,385.87,325.78,386.11Zm-19.06,11.58a7.85,7.85,0,0,0,2.28.56,2.9,2.9,0,0,0,1.45-.31,2.26,2.26,0,0,1,.61-.29,5.73,5.73,0,0,0,2.33-1,16.22,16.22,0,0,0,2.15-1.84c.12-.11.12-.36.19-.59l-.17,0c-.34.16-.77.23-1,.49s-.69.32-1,.53a11.64,11.64,0,0,1-2.31.9,6.54,6.54,0,0,1-3.6.38,5.05,5.05,0,0,0-.67-.06,1.88,1.88,0,0,1-1-.26,2.43,2.43,0,0,0-1-.24c-.15,0-.31.14-.52.25A6.67,6.67,0,0,0,306.72,397.69Z"/><path d="M192.52,411.31a1,1,0,0,0,.57-1.32,1.61,1.61,0,0,0-1.14-1.08c-1.22-.26-2.45-.48-3.67-.72a4,4,0,0,1-.91-.25,5.45,5.45,0,0,1-1.12-.65,3,3,0,0,1-1.5-2.71,10.67,10.67,0,0,0-.06-1.49,9.34,9.34,0,0,0-.55-2.8,2.89,2.89,0,0,1-.1-.6,4,4,0,0,0-.67-2.18.65.65,0,0,1-.12-.31,2.83,2.83,0,0,0-.68-1.73c-.1-.86-.89-1.25-1.27-1.93-.4.35-.41.46-.18.86a2.86,2.86,0,0,1,.42.76,4.69,4.69,0,0,0,.63,1.78.94.94,0,0,1,.12.53c.05,1.24.11,2.49.1,3.74a2.61,2.61,0,0,1-.51,1.73,2.31,2.31,0,0,0-.26.62,1.72,1.72,0,0,1-.24.49,8.4,8.4,0,0,1-1.89,1.62,1.08,1.08,0,0,1-.51.18,18.39,18.39,0,0,1-2.1,0,2.28,2.28,0,0,1-1.37-1.3,3.69,3.69,0,0,1,.08-1.95,1.68,1.68,0,0,1,.23-.38c.11,0,.19.05.23.1.26.28.5.58.75.87a1.15,1.15,0,0,0,1.9-.09,1.55,1.55,0,0,1,.24-.33.63.63,0,0,0,.15-.75,14.83,14.83,0,0,0-.85-1.69c-.32-.52-.73-1-1.09-1.47a4.62,4.62,0,0,1-.72-1.06,12.41,12.41,0,0,1-1.1-2.33,2.87,2.87,0,0,0-.15-.37c-.17-.49-.35-1-.49-1.47s-.1-.78-.22-1.14a10,10,0,0,1-.4-3.43c0-.75,0-1.5.06-2.25,0-.46.1-.92.15-1.38l.17,0a2.7,2.7,0,0,1,.19.59c.07.75.08,1.5.15,2.24.07.58.19,1.16.29,1.74.13.73.29,1.47.39,2.2a2.62,2.62,0,0,0,.44,1.27,2.23,2.23,0,0,1,.34.73c.11.37.19.74.61.91.12.05.17.25.25.38s.19.28.3.46a.76.76,0,0,0,0-1.1,2.22,2.22,0,0,1-.42-1.05c-.12-.43-.28-.85-.41-1.28a4.58,4.58,0,0,1-.3-1.11c-.07-1.63-.09-3.27-.12-4.9,0-.8,0-1.59,0-2.39a13.78,13.78,0,0,0-.26-1.67c0-.23-.09-.46-.14-.71l.72.31a1.22,1.22,0,0,1,.4.24,4,4,0,0,0,2.12,1.49,1.19,1.19,0,0,1,.35.19,1.75,1.75,0,0,0,1.21.41c1,0,2,.24,2.84-.58.16-.15.66-.06,1,0s.14.43.15.67a4,4,0,0,1-.56,1.59,2.55,2.55,0,0,1-1.18,1.26,3,3,0,0,1-2.34.47s-.07,0-.15.08c-.07.35-.21.71.2,1,1,.71,1.88,1.49,2.87,2.17a15,15,0,0,0,1.9,1c.29.15.58.28.87.4a3.63,3.63,0,0,0,.75.29,14.12,14.12,0,0,0,4.54.09,13.77,13.77,0,0,0,2.62-1.09c.38-.14.73-.34,1.11-.49a4.13,4.13,0,0,0,.7-.24,2.94,2.94,0,0,1,1.83-.41c.56,0,1.13-.05,1.7,0a3.16,3.16,0,0,1,1.06.19,10.07,10.07,0,0,1,1.26.66c.11.06.21.15.42.3-.32.18-.55.33-.81.45a3.52,3.52,0,0,0-1.85,1.52,15.2,15.2,0,0,0-.84,2.15,7,7,0,0,1-.67,1.63,4.89,4.89,0,0,1-2.64,2.4c-.15.05-.28.16-.43.21a4.32,4.32,0,0,1-1,.3,11.3,11.3,0,0,1-1.84,0,4.62,4.62,0,0,1-1.32-.31,21.57,21.57,0,0,1-2.42-1,14.78,14.78,0,0,1-2-1.32c-.66-.51-1.26-1.1-1.91-1.67-.37.22-.25.52-.13.78a7.1,7.1,0,0,1,.41.7,5.67,5.67,0,0,0,1.25,1.83,8.17,8.17,0,0,0,2.55,2.2c.71.34,1.35.82,2.07,1.13a10.46,10.46,0,0,1,1.37.71,8.51,8.51,0,0,1,2.36,2c.27.35.53.72.8,1.08a5.58,5.58,0,0,1,.95,2.78,1.11,1.11,0,0,1-.08.47c-.12.37-.24.73-.39,1.09a2.18,2.18,0,0,1-3.47.75Zm1.69-15.26a7.78,7.78,0,0,1-3.84.54,3.78,3.78,0,0,1-1-.2c-.63-.17-1.26-.36-1.89-.55a3.07,3.07,0,0,1-.48-.24l-1-.5c-.16-.08-.37-.13-.45-.27a1.19,1.19,0,0,0-1.11-.46c-.16.3,0,.46.17.62a20,20,0,0,0,1.81,1.52,14.08,14.08,0,0,0,2,1,7.51,7.51,0,0,1,.76.28,4.13,4.13,0,0,0,3.43.25,6.78,6.78,0,0,0,1.72-.76,6.66,6.66,0,0,0,1.06-1A.86.86,0,0,0,194.21,396.05Z"/><path d="M261.32,383.22c.16.48.31,1,.49,1.47a1.91,1.91,0,0,1,0,1.39,3.42,3.42,0,0,1-1,1.67,2.43,2.43,0,0,1-.85.53c-.54.15-1.08.33-1.62.46a1,1,0,0,1-.53,0,4.08,4.08,0,0,1-2.23-1.34,6.46,6.46,0,0,1-1-1.93,8.8,8.8,0,0,1,0-3.65,3.45,3.45,0,0,1,.36-.94c.23-.44.49-.86.76-1.28a8.45,8.45,0,0,1,2-1.84,1.82,1.82,0,0,1,.48-.25,2.47,2.47,0,0,0,.5-.19,5,5,0,0,1,2.73-.72,20.46,20.46,0,0,1,4.28.17,1.24,1.24,0,0,1,.39.09,26.52,26.52,0,0,1,2.82,1.16c.55.36,1.16.61,1.71.95s1.24.82,1.84,1.26.93.73,1.38,1.1a31.28,31.28,0,0,1,3.66,3.62c.75.88,1.53,1.73,2.26,2.62.89,1.07,1.74,2.18,2.63,3.25s1.76,2,2.64,3.05c.39.44.76.9,1.13,1.35.19.24.26.49,0,.71a.48.48,0,0,1-.77-.08,4.87,4.87,0,0,0-5.32-1.38,2.92,2.92,0,0,0-1.66,1.32,8.48,8.48,0,0,0-.51.81c-.28.56-.08.87.54.85a11.24,11.24,0,0,1,1.29-.06,7.68,7.68,0,0,1,2,.55,5.3,5.3,0,0,0,3.72.31,1.36,1.36,0,0,1,1.61.35,1,1,0,0,0,1.31.18,1.2,1.2,0,0,1,1.55.19c.51.44,1,.9,1.55,1.31s1.08.73,1.62,1.09c.19.12.36.26.55.38a1.8,1.8,0,0,0,.58.33,2.55,2.55,0,0,1,1.65,1.22.73.73,0,0,0,.61.33c1.4,0,2.81.1,4.22.1a5.56,5.56,0,0,0,1.18-.22l1.27-.24c-1.3-.15-2.66-.29-4-.48a8.62,8.62,0,0,1-1.3-.35c-.28-.09-.54-.23-.83-.3a2,2,0,0,1-1.14-.55.26.26,0,0,0-.11-.07,10.94,10.94,0,0,1-1.76-.84,17.38,17.38,0,0,1-1.74-1.14c-.59-.33-1-.88-1.61-1.24a1.85,1.85,0,0,1-.85-1.25,2.47,2.47,0,0,0-.53-1.15,1.17,1.17,0,0,1,0-1.41,2.6,2.6,0,0,0,.12-2.48,5,5,0,0,1-.17-.79,18.38,18.38,0,0,0-.48-1.84,2.23,2.23,0,0,1,0-1.72c.1-.22.34-.51.08-.66a1.05,1.05,0,0,0-.89-.09,5.31,5.31,0,0,0-2,1.76,4.47,4.47,0,0,0-.53,3.06,6.48,6.48,0,0,0,.36,1c-.54-.19-1-.31-1.27-.89a4.14,4.14,0,0,0-.87-1.1,44.34,44.34,0,0,1-3.05-3.79c-1.05-1.27-2.06-2.57-3.16-3.8s-2.45-2.65-3.74-3.91a25.7,25.7,0,0,0-2.37-1.91c-.47-.37-1-.73-1.47-1.08-.16-.12-.36-.17-.54-.28a14.67,14.67,0,0,0-2.86-1.2,6.22,6.22,0,0,0-1-.31,20.7,20.7,0,0,0-5.83,0,6.12,6.12,0,0,0-1.1.35,2,2,0,0,1-.44.17,6,6,0,0,0-2.35,1,9.13,9.13,0,0,0-1.83,1.52,6.77,6.77,0,0,0-1.29,1.64,7.64,7.64,0,0,0-1,2.35c-.09.58-.28,1.14-.41,1.72a6.22,6.22,0,0,0,.14,3.55,1.43,1.43,0,0,1,.11.39,6.45,6.45,0,0,0,1.06,2.83,10.35,10.35,0,0,0,1.63,2,19.15,19.15,0,0,0,1.63,1.32l.12.06c.91.27,1.81.57,2.74.78a3.08,3.08,0,0,0,2.12-.29.93.93,0,0,1,.31-.13,5.86,5.86,0,0,0,2.32-1.07,3.71,3.71,0,0,0,1.09-1,5,5,0,0,0,1.1-3.15,17.54,17.54,0,0,0-.17-2.3,4.38,4.38,0,0,0-1.59-2.61c-.24-.2-.5-.39-.76-.57A1.17,1.17,0,0,0,261.32,383.22Z"/><path d="M214.23,392.8c0-.15,0-.33.05-.4.52-.51.31-1.15.34-1.74a2.22,2.22,0,0,0-.42-1.68,2.77,2.77,0,0,1-.29-.54,2.32,2.32,0,0,0-.9-1c-.25-.15-.48-.34-.74-.47a1.45,1.45,0,0,0-.57-.17c-.61,0-.75.18-.52.73a2.2,2.2,0,0,1,0,2,4.6,4.6,0,0,0-.3,1c-.16.68-.29,1.38-.47,2.05a2,2,0,0,0,.19,1.57,4.46,4.46,0,0,1,.31.89,1,1,0,0,1-.26.95,1.26,1.26,0,0,0-.35.56c-.06,1.18-.92,1.74-1.75,2.34-.59.42-1.16.86-1.74,1.28-.15.11-.31.19-.46.28l-.92.55a.87.87,0,0,1-.11.09l-2.21,1c-.33.14-.68.26-1,.37a4.93,4.93,0,0,1-1,.3c-1.46.18-2.93.33-4.23.47.33.1.82.27,1.31.41a2,2,0,0,0,.54.07c.81,0,1.63-.08,2.45-.09s1.36,0,2,0a.88.88,0,0,0,.85-.39,3.09,3.09,0,0,1,1.6-1.2,2.66,2.66,0,0,0,.7-.38,2.4,2.4,0,0,1,.38-.27,6.86,6.86,0,0,0,2-1.4c.51-.46,1.06-.86,1.6-1.26a.92.92,0,0,1,1.09-.09,1.24,1.24,0,0,0,1.7-.27,1.17,1.17,0,0,1,1.34-.2,5.4,5.4,0,0,0,4.2-.46,4.83,4.83,0,0,1,2.12-.37c.32,0,.64.07,1,.06s.59-.23.44-.56a4.9,4.9,0,0,0-1.12-1.74c-1.37-1.22-2.95-1.07-4.5-.65a4.77,4.77,0,0,0-1.77,1.19c-.55.51-.66.56-1.21-.13.46-.57.93-1.17,1.42-1.75s.86-1,1.29-1.47c.26-.3.52-.61.77-.92l2-2.45c.78-.93,1.55-1.88,2.34-2.8s1.52-1.74,2.33-2.56a34.06,34.06,0,0,1,2.91-2.73,14.63,14.63,0,0,1,2.75-2c.7-.34,1.37-.78,2.05-1.17l.18-.09a17.16,17.16,0,0,1,4.07-1.05,22.41,22.41,0,0,1,4,.13,3.82,3.82,0,0,1,1.4.48,12.82,12.82,0,0,1,1.64.94,9.68,9.68,0,0,1,2.05,2.32,5.1,5.1,0,0,1,.65,2.53c0,.63,0,1.27,0,1.91a4.09,4.09,0,0,1-1.76,3.15,3.09,3.09,0,0,1-3,.53,4.2,4.2,0,0,1-1.86-1.16,4,4,0,0,1-.38-.7,2.66,2.66,0,0,1,0-2.54,3.93,3.93,0,0,0,.19-.58c.13-.44,0-.75-.48-.74a2.51,2.51,0,0,0-1,.27,5.25,5.25,0,0,0-2.15,2.46,5.1,5.1,0,0,0-.32,1.66c0,.48,0,1,0,1.43a4.73,4.73,0,0,0,1.92,3.87,4.21,4.21,0,0,0,2.19,1.16,2.59,2.59,0,0,1,.71.24,3.77,3.77,0,0,0,3.1,0,3.1,3.1,0,0,1,.64-.24,5.66,5.66,0,0,0,3.23-2.1,7.26,7.26,0,0,0,1.09-1.28,8.06,8.06,0,0,0,1.06-2.26c.1-.56.3-1.1.41-1.65a7.26,7.26,0,0,0,0-3.31,3.82,3.82,0,0,1-.21-.71,6.62,6.62,0,0,0-1.05-3,11,11,0,0,0-1.6-2,9.34,9.34,0,0,0-2.21-1.66,13.11,13.11,0,0,0-7.55-1.44c-.41,0-.82,0-1.22.08a8.25,8.25,0,0,0-1.2.25c-.58.17-1.16.38-1.73.59a4,4,0,0,0-.53.3,2.7,2.7,0,0,1-.52.3,3.52,3.52,0,0,0-1.12.62c-.79.63-1.66,1.17-2.46,1.8a26.33,26.33,0,0,0-2,1.81c-.7.7-1.39,1.41-2,2.16-.9,1-1.74,2.08-2.61,3.13-.38.47-.79.92-1.17,1.39-.63.8-1.25,1.61-1.88,2.4-.36.46-.72.91-1.1,1.35a6.48,6.48,0,0,0-1,1.16A2.37,2.37,0,0,1,214.23,392.8Z"/><path d="M339.42,383.55a1.24,1.24,0,0,0-.44.89.6.6,0,0,0,.38.75,1.1,1.1,0,0,0,1.26-.4,5.31,5.31,0,0,0,.41-1.22c.16-.73.28-1.47.37-2.22s.63-1.19,1-1.75c.07-.11.32-.14.49-.15.75-.06.79-.1.8-.85v-.27a2.77,2.77,0,0,1,2-2.33,5,5,0,0,1,3.55.52,5.34,5.34,0,0,1,2.3,2.9,6.92,6.92,0,0,1,0,4.27,7.25,7.25,0,0,1-.89,2,8.33,8.33,0,0,1-1.2,1.55,7.75,7.75,0,0,1-3.08,1.9.57.57,0,0,0-.25.11,3.07,3.07,0,0,1-1.61.49c-.65.08-1.3.19-2,.24a15.06,15.06,0,0,1-1.9,0c-.73-.06-1.45-.17-2.16-.29a5.38,5.38,0,0,1-1-.3c-.39-.13-.75-.3-1.13-.46a4.34,4.34,0,0,1-.62-.28c-.61-.37-1.2-.79-1.83-1.14a11.64,11.64,0,0,1-2.53-2.11,12.56,12.56,0,0,1-1-1.16c-.43-.58-.82-1.18-1.22-1.78-.09-.13-.14-.3-.26-.39a1.46,1.46,0,0,1-.48-.94c-.06-.32-.05-.66-.39-.9s-.17-.88,0-1.15a1.14,1.14,0,0,0,.07-1.35c-.33-.52-.66-1-1-1.56a.79.79,0,0,1,.08-1.08c.39.38.77.78,1.18,1.15a6,6,0,0,0,1.22,1.05,7.48,7.48,0,0,0,2.26,1.08,1.31,1.31,0,0,1,.37.15,8.32,8.32,0,0,0,1.16.39c1.51.27,3,.5,4.56.76.34.06.73.06.93.49-.51.44-.86,1.07-1.59,1.21a.45.45,0,0,0-.23.14,1.83,1.83,0,0,1-1.53.61l-1.91.1c-.2,0-.4.08-.6.12v.17a5.58,5.58,0,0,0,2.43.39c.7-.08,1.39-.18,2.1-.24a4.89,4.89,0,0,1,1.21,0,1.18,1.18,0,0,1,.95.51C339.58,383.34,339.51,383.46,339.42,383.55ZM342,388.3c-.43,0-.87,0-1.3,0a1.9,1.9,0,0,1-1.31-.43,2.37,2.37,0,0,0-1.09-.33,2,2,0,0,1-1.34-.58.41.41,0,0,0-.23-.13c-.77-.08-1.23-.73-1.9-1a4.13,4.13,0,0,1-1.05-.83c-.65-.59-1.31-1.18-1.92-1.82-.47-.48-.86-1-1.29-1.56a3.52,3.52,0,0,0-.35-.31,1.36,1.36,0,0,1-.3-.34,1.34,1.34,0,0,0-.67-.81c-.13-.05-.2-.28-.27-.44s-.12-.41-.18-.6c-.37,0-.52.18-.47.43s.14.62.31.68a.68.68,0,0,1,.5.71.46.46,0,0,0,.08.25c.39.55.77,1.1,1.18,1.63s.73.89,1.11,1.32a6.72,6.72,0,0,0,.76.75,13.6,13.6,0,0,0,2.57,1.93,19.7,19.7,0,0,1,1.83.94,3.06,3.06,0,0,0,1.58.45,1.55,1.55,0,0,1,1.25.39.45.45,0,0,0,.31.12l2.58,0s.07-.05.28-.21A5.1,5.1,0,0,0,342,388.3Zm3.62-9.47c.13.17.33.44.27.57a.79.79,0,0,1-.56.39,4.55,4.55,0,0,1-1.26-.11.32.32,0,0,0-.15.55,4,4,0,0,0,1.07.9,1.69,1.69,0,0,0,1.52,0,5.54,5.54,0,0,0,1.3-1,1.36,1.36,0,0,0,0-2.09,1.91,1.91,0,0,0-2.95-.14C345.12,378.24,345.37,378.52,345.58,378.83Zm-2.65,8.94c.18.19.27.34.34.34a14.72,14.72,0,0,0,1.49-.13c.2,0,.3-.19.12-.48Zm2.29-.59c.42.32.73.1,1.08-.13C345.76,386.7,345.63,386.72,345.22,387.18Z"/><path d="M173,376a17.6,17.6,0,0,1-.94,1.57,1.15,1.15,0,0,0,0,1.47,1,1,0,0,1,.06,1.15,2.56,2.56,0,0,0-.49,1.23.76.76,0,0,1-.15.38c-.6.51-.74,1.33-1.28,1.89s-1.13,1.48-1.81,2.09a13.79,13.79,0,0,1-2.43,1.92,12.25,12.25,0,0,1-2.69,1.39,1.8,1.8,0,0,0-.49.22,2.85,2.85,0,0,1-1.41.44c-.5.06-1,.14-1.49.18a9.9,9.9,0,0,1-2.1.08c-1.44-.21-3-.07-4.28-.92a1.17,1.17,0,0,0-.2-.06,6.62,6.62,0,0,1-2.08-1.23,7.45,7.45,0,0,1-1.42-1.44,7.13,7.13,0,0,1-1-1.74,13,13,0,0,1-.59-2.31,3.2,3.2,0,0,1,0-1.41,7.63,7.63,0,0,1,1.24-3.19,4.89,4.89,0,0,1,2.48-1.68,7.92,7.92,0,0,1,1.69-.12,2.57,2.57,0,0,1,1.85.7,1.94,1.94,0,0,1,.88,1.86,1.87,1.87,0,0,0,0,.41c0,.53.12.61.67.57a.75.75,0,0,1,.78.29,4.7,4.7,0,0,1,1,2.19,16.37,16.37,0,0,0,.56,2.59.94.94,0,0,0,1.07.73.64.64,0,0,0,.67-.69,3.29,3.29,0,0,0-.33-.94,2.27,2.27,0,0,0-.37-.44,2.32,2.32,0,0,1,1.86-.56c.9.05,1.8.22,2.7.32a4.41,4.41,0,0,0,2.26-.47c-.41-.31-.79-.19-1.14-.22-1.1-.11-2.29.12-3.19-.81-.79-.13-1.13-.85-1.8-1.35a4.85,4.85,0,0,1,.8-.34c1.2-.22,2.4-.51,3.62-.61a17.48,17.48,0,0,0,3.65-1,2.92,2.92,0,0,0,.4-.25,4.6,4.6,0,0,1,.64-.37,5.28,5.28,0,0,0,1.5-1.14c.43-.38.81-.83,1.21-1.25C173.22,375.36,173.16,375.7,173,376Zm-1.57,3.06c-.31,0-.38.25-.41.46-.05.36-.12.68-.53.78a.24.24,0,0,0-.15.13,5.24,5.24,0,0,1-.87,1.17,21,21,0,0,1-2.53,2.72c-.52.46-1,.94-1.57,1.37a4,4,0,0,1-1.21.72c-.9.3-1.57,1.08-2.58,1.13a1.33,1.33,0,0,0-1.08.48c-.13.17-.49.21-.75.23-.52,0-1,0-1.57,0a5.13,5.13,0,0,0-.66.13v.14c.07,0,.14.11.21.11.84,0,1.68,0,2.52,0,.09,0,.21,0,.26-.07.44-.49,1-.39,1.58-.44a1.51,1.51,0,0,0,1.22-.48.25.25,0,0,1,.17-.1,4.28,4.28,0,0,0,1.68-.8,9.71,9.71,0,0,0,2-1.45c.61-.65,1.32-1.2,1.93-1.84a11,11,0,0,0,1-1.41c.1-.15.14-.36.28-.46a1.19,1.19,0,0,0,.5-1.2C171.75,380.08,171.88,379.7,171.43,379.07Zm-16.92.69c-.47-.16-.56-.44-.21-.8a2.09,2.09,0,0,0,.74-1.1,1.85,1.85,0,0,0-2.87.2,1.34,1.34,0,0,0,0,2,2.64,2.64,0,0,0,2.6,1.11,2.08,2.08,0,0,0,.64-.34c.18-.12.34-.29.52-.42s.37-.49.06-.87A1.68,1.68,0,0,1,154.51,379.76Zm2.34,8.16a1.72,1.72,0,0,0-1.88-.13A1.72,1.72,0,0,0,156.85,387.92Zm-3-.95c.31.44.44.47.91.18C154.38,386.74,154.37,386.73,153.85,387Z"/><path d="M238.79,396a14.56,14.56,0,0,1,2.32-.74,5.72,5.72,0,0,1,1.49-.15c1.27,0,2.31-.75,3.51-1,.06,0,.11-.08.17-.11l.82-.48a1.41,1.41,0,0,0,.4-.25c.38-.41.74-.84,1.11-1.25a1.88,1.88,0,0,1,.26-.22c.21-.19.44-.36.63-.57a.59.59,0,0,1,.87-.14c.44.45.84.93,1.28,1.37a5.75,5.75,0,0,0,1.11,1,5.87,5.87,0,0,0,2.34,1,.94.94,0,0,1,.32.11,4.65,4.65,0,0,0,2.23.51,11.69,11.69,0,0,1,1.86.33c.44.11.85.31,1.29.42a5.24,5.24,0,0,1,1.86,1.18c-.43.45-.81.84-1.16,1.25a2.33,2.33,0,0,1-1.31.79c-.51.1-1,.15-1.63.23.36.54.69,1,1,1.51a.71.71,0,0,1,.13.31c.06.63.13,1.26.15,1.89,0,.32-.16.63-.52.59a7.11,7.11,0,0,1-1.86-.33,9.09,9.09,0,0,1-1.49-1c-.1-.07-.28-.16-.35-.12a.57.57,0,0,0-.22.37,2.1,2.1,0,0,0,.05.61,5.75,5.75,0,0,1-.09,2.3c-.08.3-.22.56-.59.53-.55-.05-1.09-.09-1.63-.18-.79-.13-1.06.11-1,.89,0,.12,0,.23,0,.34a5,5,0,0,1-.18,2.36,11.78,11.78,0,0,1-1.35,2.33c-.29.36-1,.48-1.25.12-.34-.53-.89-.92-1-1.58a1.45,1.45,0,0,0-.22-.49,2.39,2.39,0,0,1-.42-1.55c0-.59.05-1.18.07-1.77s-.24-.75-.75-.69l-1.62.19c-.58.07-.79,0-.85-.59-.08-.79,0-1.58-.06-2.37a5.09,5.09,0,0,0,0-.54c-.05-.3-.39-.45-.54-.23-.29.4-.76.5-1.09.8a3.62,3.62,0,0,1-2.15.64.5.5,0,0,1-.64-.46,3.54,3.54,0,0,1,.51-2.66,7.55,7.55,0,0,0,.68-1.25c-1.88.16-3-.78-4-2.29A9.26,9.26,0,0,1,238.79,396Zm17.2,1.41c.77,0,1.54-.08,2.31-.14a2.22,2.22,0,0,0,.91-.27,2.67,2.67,0,0,0-.36-.14,9.6,9.6,0,0,0-3.5-.32,16.19,16.19,0,0,1-1.71.07,1.25,1.25,0,0,1-1-.38,4,4,0,0,1-.76-.77,5.92,5.92,0,0,1-1.18-2.49,2.79,2.79,0,0,0-.07-.4c-.11-.58-.27-.68-.82-.62a.44.44,0,0,0-.45.42,5.62,5.62,0,0,1-.15.8,11.9,11.9,0,0,1-.47,1.11c-.06.14-.17.27-.22.42a3.81,3.81,0,0,1-1.37,1.65,1.59,1.59,0,0,1-.89.25,16,16,0,0,1-1.7-.09,7.59,7.59,0,0,0-3.77.59,5.77,5.77,0,0,0,.72.16l2.37.15a1.88,1.88,0,0,1,1.26.37A6.16,6.16,0,0,1,244,399a11.16,11.16,0,0,0-1.19,1.1c.21.35.5.45.7.21s.64-.43.89-.69a6.63,6.63,0,0,1,1.48-1.05c.71-.43,1.47-.77,2.21-1.14.24-.12.49-.22.73-.33.34.53.32.73,0,1.15a4.29,4.29,0,0,0-.43.89c-.18.41-.34.83-.49,1.26a6.08,6.08,0,0,0-.3,1,2.07,2.07,0,0,1-.37,1,.8.8,0,0,0,0,1.11c.08,0,.17-.05.19-.09.27-.75,1.1-1.19,1.17-2.06,0-.05.07-.11.12-.16l.17-.06c.32.18.35.51.35.86,0,.86,0,1.72,0,2.59,0,.65.14,1.3.22,1.95a.44.44,0,0,0,.5.44c.3,0,.48-.14.51-.43.08-.79.18-1.58.22-2.37s0-1.46,0-2.18c0-.5,0-.49.36-.93.51.31.28,1,.67,1.33a5,5,0,0,1,.88,1.14.75.75,0,0,0,.08-1c-.09-.15-.3-.29-.3-.44,0-1.1-.74-2-.95-3a1.88,1.88,0,0,0-.37-.78,1.09,1.09,0,0,1-.07-1.27c.71.37,1.38.71,2,1.07.49.26,1,.53,1.47.82.28.18.53.41.79.61a1.26,1.26,0,0,0,.27.2,1.2,1.2,0,0,1,.69.5c.19.29.48.3.85,0-.36-.45-.62-1-1.14-1.21s-.8-.76-1.2-1.18A1.59,1.59,0,0,1,256,397.43Zm-9.5,3.05c.2-.12.41-.25.27-.52s-.39-.22-.62-.1c-.54.27-.68.68-.4,1.12Zm7.1-.7a.57.57,0,0,0-.4.25c0,.07.09.29.19.37.27.21.58.38.91.59A.86.86,0,0,0,253.59,399.78Z"/><path d="M215.07,410.45a3.22,3.22,0,0,1,.64.22c.77.54,1.52,1.11,2.26,1.68.5.39,1,.82,1.45,1.22a10.53,10.53,0,0,1,2,2.14c.38.56.23.89-.45,1a12.71,12.71,0,0,1-3.59-.12,1.79,1.79,0,0,1-.71-.21c-.63-.45-1.44-.56-2-1.14s-1-.8-1.42-1.23a4.79,4.79,0,0,1-.83-1c-.34-.56-.59-1.17-.89-1.75a2.59,2.59,0,0,0-.4-.63,1.54,1.54,0,0,1-.37-1.62,3.17,3.17,0,0,0,.21-1.2,3.52,3.52,0,0,1,.42-1.87,6.28,6.28,0,0,1,1.16-1.49,2.33,2.33,0,0,1,1-.73,8.08,8.08,0,0,1,3.33-.55c1.1.15,2.2.35,3.29.54a1.76,1.76,0,0,1,.46.25c-.48.62-.89,1.14-1.67,1.2a1.28,1.28,0,0,0-.61.26.4.4,0,0,0,.15.73,10.79,10.79,0,0,0,1.58.41,5,5,0,0,1,3,1.93c.13.16.25.33.38.48.39.42.39.45,0,.94-.45-.06-.9-.14-1.35-.17a.45.45,0,0,0-.37.18.48.48,0,0,0,.13.41c.31.35.69.65,1,1a8.46,8.46,0,0,1,.93,1.49.94.94,0,0,1-.79,1.48c-.25,0-.49.11-.74.13-.61.05-1.19,0-1.5-.63a.56.56,0,0,0-.17-.21c-.44-.44-.88-.89-1.35-1.31a8,8,0,0,0-1.21-1,5.65,5.65,0,0,1-1.85-1.44.41.41,0,0,0-.27-.17,1.93,1.93,0,0,0-1.62.39Zm1.81-1.13a.46.46,0,0,0,.66.14c.27-.16.15-.39.1-.6s-.11-.41-.17-.61h-.2Zm-.94-2.27c-.47-.41-.84-.41-1.47,0A1.27,1.27,0,0,0,215.94,407.05Zm2.48.66c.2.26.4.39.62.17v-.2Zm-1.51.25c-.16-.38-.3-.45-.53-.34l0,.19Zm-4,2.05v.07l.73.12,0-.19Z"/><path d="M280.46,403.55a10,10,0,0,0,1.55-.25,8,8,0,0,1,4.41.39.92.92,0,0,1,.34.21,9.23,9.23,0,0,1,1.3,1.19,12,12,0,0,1,1,1.76c.06.1,0,.26,0,.4,0,.33,0,.67.06,1s.14.67.15,1a1.63,1.63,0,0,1-.43,1.38,2.63,2.63,0,0,0-.44.83c-.14.28-.31.55-.42.84a5.11,5.11,0,0,1-1.2,1.63c-.42.46-.94.82-1.4,1.24a9.63,9.63,0,0,1-1.58.91,4,4,0,0,1-1.93.56c-.91,0-1.82,0-2.72,0-.29,0-.62,0-.69-.31a1,1,0,0,1,.19-.74,14.49,14.49,0,0,1,2.81-2.83,13.66,13.66,0,0,0,1.31-1,9.32,9.32,0,0,1,1-.84,4.53,4.53,0,0,1,1.27-.62,2.6,2.6,0,0,0,.46-.25,1.26,1.26,0,0,0-1.9,0,4.79,4.79,0,0,1-1.39,1.07,6.9,6.9,0,0,0-1.48,1.13,17,17,0,0,0-1.74,1.85,1.35,1.35,0,0,1-.36.18,2.57,2.57,0,0,1-1.73,0,1,1,0,0,1-.72-1.52,9,9,0,0,1,1.83-2.42c.11-.09.14-.29.21-.44-.16-.07-.31-.2-.46-.19-.45,0-.89.12-1.35.19-.17-.26-.37-.51-.11-.8a10.21,10.21,0,0,1,1.38-1.48,4.08,4.08,0,0,1,2.07-1.09,18.7,18.7,0,0,0,2-.38c.06-.67-.12-1-.86-1.05s-1.11-.6-1.54-1.21A2.35,2.35,0,0,1,280.46,403.55Zm1.85,5.68c0,.31.27.36.76.11l-.36-1.17A1.23,1.23,0,0,0,282.31,409.23Zm2-2.4c-.08,0-.21.17-.2.22s.15.26.25.26a2.26,2.26,0,0,0,1.29-.26A1.36,1.36,0,0,0,284.27,406.83Zm-2.5,1.08c-.41-.31-.41-.31-.87-.11V408Zm5.36,2.18V410h-.89v.19Zm-3.42-2.25c-.27-.28-.27-.28-.59.09Z"/><path d="M324.87,376.05l-.32.4a4.76,4.76,0,0,1-3.46,1.9,21.57,21.57,0,0,1-4.95-.27,4.39,4.39,0,0,1-.78-.24.67.67,0,0,1-.12-.06l-4-1.09-1.11-.32c-.45-.14-.9-.3-1.36-.41a30.35,30.35,0,0,0-3.12-.66,16,16,0,0,0-2.85-.05,5.28,5.28,0,0,0-1.36.4,4,4,0,0,1-.57.22,3.57,3.57,0,0,0-1.61,1.08,6.27,6.27,0,0,0-1.48,2.16,7.48,7.48,0,0,0-.53,2,5.46,5.46,0,0,0,.87,3.74,5.34,5.34,0,0,0,1,1.3,5.49,5.49,0,0,0,1.94,1.32c.32.11.6.35.92.43a4,4,0,0,0,3.23-.24c.4-.24.82-.46,1.23-.7a4.18,4.18,0,0,0,1.62-2.44,2.43,2.43,0,0,0,.14-1,4.33,4.33,0,0,0-1.05-2.52,2.81,2.81,0,0,0-2.05-.75c-.14,0-.36.23-.48.4s0,.39.14.53a2.36,2.36,0,0,1,.63,2.55,1.8,1.8,0,0,1-1.25,1.33,4.62,4.62,0,0,1-1.74.18,2.85,2.85,0,0,1-2.54-2.14c-.07-.26-.19-.51-.24-.78a3.45,3.45,0,0,1-.14-1,5,5,0,0,1,1.76-3.56,4.2,4.2,0,0,1,2.41-1,6.9,6.9,0,0,1,3.15.39,3,3,0,0,0,.73.18,5.64,5.64,0,0,1,2.14.64,3.72,3.72,0,0,0,.78.21l1.2.45c.21.08.42.18.63.24a4.4,4.4,0,0,1,1.72.62l.06,0a16.68,16.68,0,0,0,7.67,1,3.72,3.72,0,0,0,2-1.11,11,11,0,0,0,1.4-1.91A1.15,1.15,0,0,0,324.87,376.05Z"/><path d="M175.12,376.07c-.34.08-.46.24-.42.51a2.17,2.17,0,0,0,.39,1.2c.35.44.63.93,1,1.38a3.55,3.55,0,0,0,2.91,1.47c1.27,0,2.54-.07,3.81-.17a5.2,5.2,0,0,0,1.16-.37,4.52,4.52,0,0,1,.71-.23,4.7,4.7,0,0,0,1.92-.64,3.09,3.09,0,0,1,.65-.2l1.39-.51s.08-.05.12-.06l3.44-1a10.18,10.18,0,0,0,1.12-.28,6.39,6.39,0,0,1,3.43-.27,4.49,4.49,0,0,1,2.64,1.55,7.16,7.16,0,0,1,1.15,2.66.9.9,0,0,1,0,.4,4.45,4.45,0,0,1-1.72,3.41,3,3,0,0,1-2.35.4,2.15,2.15,0,0,1-1.94-1.82,2.11,2.11,0,0,1,.63-2.16.55.55,0,0,0,.16-.73.53.53,0,0,0-.62-.3,2.66,2.66,0,0,0-2,1,3.76,3.76,0,0,0-.77,3.25,4.46,4.46,0,0,0,1.51,2.45,4.76,4.76,0,0,0,4.18,1.1,5.44,5.44,0,0,0,2.37-1.11,8.41,8.41,0,0,1,1-.82,3.89,3.89,0,0,0,1.13-1.59,5.55,5.55,0,0,0,.51-4c-.05-.17-.09-.35-.13-.53a6,6,0,0,0-2.23-3.45,6.19,6.19,0,0,0-3.88-1.38,9.71,9.71,0,0,0-3.82.51,3.64,3.64,0,0,1-.87.18,9.66,9.66,0,0,0-2,.54,30.08,30.08,0,0,1-3.51,1,7.37,7.37,0,0,0-1.76.51,1.48,1.48,0,0,1-.52.14,19.19,19.19,0,0,1-5.56.19,5,5,0,0,1-2.86-1.83C175.32,376.35,175.23,376.21,175.12,376.07Z"/><path d="M352.63,375.62c.2.08.41.15.6.24s.59.33.9.46a4.19,4.19,0,0,0,1,.33,2.49,2.49,0,0,1,1.32.5,1.75,1.75,0,0,0,.35.2,10.14,10.14,0,0,1,3.18,2.24,14.26,14.26,0,0,1,1.88,2.38,2.31,2.31,0,0,1,.24.56,5.26,5.26,0,0,0,.15.6,3,3,0,0,1-.14,2.93,4.65,4.65,0,0,1-.78,1.08,3.22,3.22,0,0,1-3.36.93,3.17,3.17,0,0,1-1.88-1.59,1.41,1.41,0,0,1,.86-2c.28-.07.63.12,1,.21a.6.6,0,0,0,0-1.1,1.82,1.82,0,0,0-1.75-.49,3.79,3.79,0,0,0-2.55,2.84,11.32,11.32,0,0,0-.06,1.43,3.71,3.71,0,0,0,1.2,2.44,12.14,12.14,0,0,0,1.4,1.16.66.66,0,0,0,.3.15,6.59,6.59,0,0,0,3,.32c.35-.07.72-.09,1.07-.19a5.63,5.63,0,0,0,.93-.37c.16-.08.29-.22.46-.29a6.76,6.76,0,0,0,1.7-1.41c.61-.54.77-1.32,1.2-1.94a1.6,1.6,0,0,0,.18-.72,5.88,5.88,0,0,0-.45-3.58,1.19,1.19,0,0,1-.11-.26,8,8,0,0,0-2.14-3.4,12.84,12.84,0,0,0-2.52-2.05c-.71-.48-1.55-.63-2.22-1.14-1.39-.19-2.71-.8-4.13-.77a5.54,5.54,0,0,0-.91.13Z"/><path d="M147.52,375.55a4.87,4.87,0,0,0-2.67-.05c-.59.15-1.19.26-1.78.42-.41.12-.8.29-1.2.45a3.29,3.29,0,0,1-.42.21,10.06,10.06,0,0,0-3.33,2.16,14.57,14.57,0,0,0-2.36,2.95,2.25,2.25,0,0,0-.2.51,4.26,4.26,0,0,1-.25.71,6,6,0,0,0-.45,3.65,2.77,2.77,0,0,0,.35,1,5.15,5.15,0,0,0,1.07,1.7,6.34,6.34,0,0,0,1.61,1.31,1,1,0,0,1,.18.09,4.1,4.1,0,0,0,2.4.83,5.15,5.15,0,0,0,2.94-.38,4.86,4.86,0,0,0,2.25-2,4.52,4.52,0,0,0,.67-2.09,4,4,0,0,0-1-2.92,2.72,2.72,0,0,0-2.11-1.07,2.34,2.34,0,0,0-1.38.67.6.6,0,0,0,0,.85.5.5,0,0,0,.47.06c.34-.2.64-.33,1,0a1.65,1.65,0,0,1,.74,1.16,1.84,1.84,0,0,1-.83,1.56,3.08,3.08,0,0,1-2.27.88,3.77,3.77,0,0,1-2.23-1,3.6,3.6,0,0,1-1.16-2,2.38,2.38,0,0,1,0-1.47,6.36,6.36,0,0,0,.25-.85,4.81,4.81,0,0,1,1.23-2.16,14.31,14.31,0,0,1,2.09-2.1,14.08,14.08,0,0,1,1.83-1.14,6.31,6.31,0,0,1,2.59-.93.54.54,0,0,0,.3-.15,2.53,2.53,0,0,1,1.21-.58C147.15,375.73,147.26,375.67,147.52,375.55Z"/><path d="M228.89,406.3c.41.11.73.22,1.05.27a2.13,2.13,0,0,1,1.29.56,1.17,1.17,0,0,0,.29.17,6.3,6.3,0,0,1,2.43,2.35,4.66,4.66,0,0,1,.72,3.17,3.07,3.07,0,0,1-.57,1.49,4.69,4.69,0,0,1-1.43,1.21,2.46,2.46,0,0,1-2.51-.11,4.12,4.12,0,0,1-1.27-1.19,1.17,1.17,0,0,1,0-1.38,1.61,1.61,0,0,1,2.75-.25,2.26,2.26,0,0,0,.31.23,1.13,1.13,0,0,0,.2-1.47,1.77,1.77,0,0,0-.51-.63c-.76-.46-1.48-1-2.51-.53a4.53,4.53,0,0,0-1.84,1.41c-.48.61-.53,2.5.12,3s1,.87,1.49,1.28c.24.19.4.35.28.67a3.47,3.47,0,0,0-.13.46,1,1,0,0,0,1,.25c1-.23,2-.46,3.05-.67a3.56,3.56,0,0,0,1.65-1.12,2.21,2.21,0,0,0,.8-1.45c0-.13.16-.25.28-.45a8.57,8.57,0,0,1,1.18,1.44,8.48,8.48,0,0,0,1.2,1.46c.6.54,1.28,1,1.93,1.47a.4.4,0,0,0,.18.1c1.26.21,2.39,1,3.74.77.51-.09,1-.23,1.51-.35a4,4,0,0,1,.44-.17,3.89,3.89,0,0,0,2.19-1.42,3.31,3.31,0,0,0,1-3c-.33-1.49-1.51-2.46-3.11-1.8a.89.89,0,0,0-.57.71,1.29,1.29,0,0,0,.83,1.69c.19.09.39.15.57.23.36.17.42.26.57.74a3.57,3.57,0,0,1-2.22,1.71,6,6,0,0,1-3.75,0,6.07,6.07,0,0,1-2.32-1.38,8.79,8.79,0,0,1-1.54-2.12c-.63-1.21-.9-2.56-1.57-3.74a8.1,8.1,0,0,0-.87-1.29,6.49,6.49,0,0,0-2.76-2.12,1.5,1.5,0,0,1-.61-.51,1.28,1.28,0,0,0-1.7-.56A2.1,2.1,0,0,0,228.89,406.3Z"/><path d="M271.11,406.3a2.52,2.52,0,0,0-1.64-1,1.1,1.1,0,0,0-1.17.53,2.48,2.48,0,0,1-1.12.82,6,6,0,0,0-1.6,1.12,8,8,0,0,0-1.52,2,7.05,7.05,0,0,0-1,2.42,1.64,1.64,0,0,1-.18.58,14.25,14.25,0,0,1-1.42,2.38,5.18,5.18,0,0,1-2,1.53c-.15.06-.28.16-.42.22a2.8,2.8,0,0,1-.86.37,14.12,14.12,0,0,1-3,0,3.87,3.87,0,0,1-2.56-1.66c-.19-.28,0-.68.38-.88s.66-.3,1-.44c.5-.2.55-.64.54-1.07a1.09,1.09,0,0,0-.54-1.09,2.49,2.49,0,0,0-2-.05.5.5,0,0,0-.17.11c-.41.63-1,1.15-1,2,0,.3,0,.59,0,.89a1,1,0,0,0,.09.46,6.87,6.87,0,0,0,2.23,2.41,4,4,0,0,0,.57.23c.33.13.67.28,1,.39a4.87,4.87,0,0,0,3.58-.08,1.06,1.06,0,0,1,.31-.14,4.33,4.33,0,0,0,2.13-1,10,10,0,0,0,1.48-1.27c.59-.68,1.09-1.43,1.64-2.15.1-.14.23-.26.42-.47a3.47,3.47,0,0,1,.3.76,2.65,2.65,0,0,0,1.05,1.53,3.49,3.49,0,0,0,2.12,1,13.85,13.85,0,0,1,2.25.53,1.94,1.94,0,0,0,.33.07c.45,0,.68-.25.55-.68a.63.63,0,0,1,.32-.79,7.67,7.67,0,0,0,1.2-1,2.73,2.73,0,0,0,.07-3.62c-.55-.72-1.36-.84-2.06-1.22a.6.6,0,0,0-.4,0,3.1,3.1,0,0,0-2.08,1.28,1.17,1.17,0,0,0,.19,1.56,2.73,2.73,0,0,1,.44-.39,4.66,4.66,0,0,1,1.08-.52c.81-.18,1.25.37,1.59,1a1.3,1.3,0,0,1-.17,1.38,3.44,3.44,0,0,1-1.48,1.26,2.44,2.44,0,0,1-1.51.17,3.61,3.61,0,0,1-2-1.26,3.92,3.92,0,0,1-.63-3.53,4.78,4.78,0,0,1,1.14-2c.24-.3.56-.53.8-.83.49-.64,1.31-.79,1.89-1.3.2-.17.56-.14.85-.21Z"/><path d="M367.7,382.51a1.13,1.13,0,0,0,.22.14,5.6,5.6,0,0,1,1.58.6,3.28,3.28,0,0,0,2.59,0c.3-.09.59-.24.9-.3a7.24,7.24,0,0,0,3-1.75c.81-.65,1.61-1.31,2.41-2,0,0,0,0,.05,0,1.12-.22,2.1-1.07,3.33-.75a9.45,9.45,0,0,1,2.18.72,4.33,4.33,0,0,1,1.77,1.54,4.39,4.39,0,0,1,.4,1.63c0,.29-.44.48-.87.39a1.14,1.14,0,0,0-.85,0c-.6.32-.88.72-.79,1.27a1.36,1.36,0,0,0,1.08,1.11,2.22,2.22,0,0,0,2-.63,3,3,0,0,0,.79-2.34,3.91,3.91,0,0,0-1.24-2.7,8,8,0,0,0-1.88-1.41,6.54,6.54,0,0,0-3.75-.61l-.75.05c-.14,0-.3,0-.41,0a13.05,13.05,0,0,0-2.14,1.09,1,1,0,0,1-.53.26c-.6.08-.72-.09-.59-.68a1.94,1.94,0,0,0,0-.72,3.28,3.28,0,0,0-.33-1.1,6.78,6.78,0,0,0-1-1.23c-.46-.43-1-.8-1.47-1.19a3.35,3.35,0,0,0-.53-.28.44.44,0,0,0-.68.21.92.92,0,0,1-.94.53,2.22,2.22,0,0,0-1.2.41,4.16,4.16,0,0,0-1.38,1.16,2.54,2.54,0,0,0-.17,2.39,4.41,4.41,0,0,0,1,1.18,2.68,2.68,0,0,0,3.16-.53.55.55,0,0,0,.11-.68c-.16-.27-.38-.25-.65-.19-1.45.3-1.75-.79-1.58-1.74a.73.73,0,0,1,.14-.31,2.53,2.53,0,0,1,2.51-.83,4.7,4.7,0,0,1,1.71,1.4c.31.37.22.82.28,1.24a3.11,3.11,0,0,1-1.23,2.93,4.38,4.38,0,0,1-2.83,1.29c-.84,0-1.68,0-2.52.05a7,7,0,0,0-.9.13Z"/><path d="M132.27,382.37a3.57,3.57,0,0,0-1.3-.2c-1,0-1.95-.06-2.92-.15a3,3,0,0,1-.91-.39c-.15-.07-.27-.17-.41-.25a3.53,3.53,0,0,1-2-3.43,2.77,2.77,0,0,1,1.2-2.15,2.26,2.26,0,0,1,2.07-.52,1.79,1.79,0,0,1,1.46,1.77A1.17,1.17,0,0,1,128,378.2c-.13,0-.27-.11-.39-.08a.68.68,0,0,0-.45.21.53.53,0,0,0,0,.49,3.22,3.22,0,0,0,.74.78,2.87,2.87,0,0,0,2.67-.14,2.76,2.76,0,0,0,1.12-2.35,2.49,2.49,0,0,0-1.38-2,2.75,2.75,0,0,1-.41-.24,1.94,1.94,0,0,0-1.26-.44.85.85,0,0,1-.77-.35c-.38-.53-.73-.6-1.21-.2-.81.68-1.59,1.39-2.37,2.1a1.08,1.08,0,0,0-.29.52c-.14.65-.53,1.27-.25,2,.09.23-.07.4-.32.41s-.65.08-.85-.26c0-.06-.08-.13-.14-.15a8.54,8.54,0,0,0-2.16-.9,25,25,0,0,0-3.46-.05.59.59,0,0,0-.27,0c-.69.43-1.47.67-2.13,1.17a10.79,10.79,0,0,0-1.7,2,.75.75,0,0,0-.15.37,11.32,11.32,0,0,0-.06,2.17,2.32,2.32,0,0,0,2.63,1.9,1.37,1.37,0,0,0,1.12-1.65,1.25,1.25,0,0,0-1.36-.84,3.18,3.18,0,0,1-.33.08.63.63,0,0,1-.76-.71,3.21,3.21,0,0,1,1.3-2.28,9.43,9.43,0,0,1,2.87-1.3,2,2,0,0,1,1.65.11,2.27,2.27,0,0,0,.63.26,5.3,5.3,0,0,1,2.78,1.56c.58.47,1.1,1,1.71,1.45a5.39,5.39,0,0,0,2.16,1.09c.6.11,1.16.38,1.76.5a2.77,2.77,0,0,0,2.21-.41,3.85,3.85,0,0,1,.82-.31c.19-.07.38-.12.57-.18Z"/><path d="M299.78,374a2.74,2.74,0,0,0-.35,0c-.85.15-1.7.29-2.54.47a5.78,5.78,0,0,0-.95.36c-.14.06-.27.16-.42.21a7.85,7.85,0,0,0-3.43,2.76,9.86,9.86,0,0,0-1,2.14,7.83,7.83,0,0,0-.51,3.67,8.21,8.21,0,0,0,.18,1.28,1.39,1.39,0,0,0,.72,1,.45.45,0,0,0,.65-.15c0-.05.07-.12.11-.17.38-.58.64-.6,1.05,0a1.69,1.69,0,0,1,.26.47,3.32,3.32,0,0,0,1,1.72c.19.16.37.33.57.47s.37.17.53.3a3.65,3.65,0,0,0,3.05.45.59.59,0,0,0,.23-.13.83.83,0,0,0,.16-.19,2,2,0,0,0-.26-.36c-.73-.57-1.52-1.07-2.2-1.69a13.93,13.93,0,0,1-1.43-1.71,2.23,2.23,0,0,1-.33-.58,3.41,3.41,0,0,1-.37-1.07,16.51,16.51,0,0,1,0-2.11,3.64,3.64,0,0,1,.43-1.49,10.85,10.85,0,0,1,.94-1.78,9.93,9.93,0,0,1,1.85-2,4.29,4.29,0,0,1,1.37-.84C299.63,374.88,299.58,374.41,299.78,374Z"/><path d="M207.4,385.06l.66,1a1.42,1.42,0,0,0,1.17-1.23,9.09,9.09,0,0,0,0-3.78,8.75,8.75,0,0,0-.84-2.43,9.27,9.27,0,0,0-2.47-2.76c-.69-.51-1.5-.72-2.2-1.18a2.16,2.16,0,0,0-.77-.23L200.7,374a2.8,2.8,0,0,0-.41,0,1.25,1.25,0,0,0,.92,1.2,4.78,4.78,0,0,1,1.46,1.08,22.68,22.68,0,0,1,1.78,2.12c.19.24.2.61.36.87a6.38,6.38,0,0,1,.67,3.48,2.44,2.44,0,0,1-.5,1.66c-.42.52-.72,1.15-1.17,1.65a15.7,15.7,0,0,1-1.68,1.46c-.42.34-.86.64-1.4,1a2.14,2.14,0,0,0,.62.38,4,4,0,0,0,3-.46,7.11,7.11,0,0,0,1.56-1.37,3.38,3.38,0,0,0,.43-.92C206.55,385.71,206.75,385.23,207.4,385.06Z"/><path d="M244.68,424.2c.28-.64.59-1.27.89-1.9a.4.4,0,0,1,.13-.16c.44-.37.84-.77,1.33-1.11a2.48,2.48,0,0,1,2.55-.25,1.05,1.05,0,0,0,.78,0c1.35-.73,2.36,0,3.33.76a6.44,6.44,0,0,1,1.59,2.63c.2.42.34.87.54,1.38a3.58,3.58,0,0,1-.83.32,3.83,3.83,0,0,1-1.35,0,4.63,4.63,0,0,1-1.07-.6,2.31,2.31,0,0,0-.95,1c-.31.52-.65,1-1,1.52a.85.85,0,0,1-1.2.05c-.39-.53-.76-1.07-1.1-1.62a1.58,1.58,0,0,0-1-.9,2.43,2.43,0,0,1-3.11.23C244.37,425,244.5,424.61,244.68,424.2Zm6-1.32c-.07-.54-.28-.68-.91-.64-.45,0-.51.11-.57.65a7.71,7.71,0,0,0,0,2.3c.1.55.26.72.72.71s.65-.19.74-.71a2.48,2.48,0,0,0,0-.27c0-.32,0-.64.05-1S250.78,423.24,250.73,422.88Zm-3.2.52A20.11,20.11,0,0,0,249,422a.6.6,0,0,0,0-.54c-.1-.2-.3-.11-.47,0a8.48,8.48,0,0,0-1.09.65,9.24,9.24,0,0,0-1,1.07.4.4,0,0,0,.14.32,1.46,1.46,0,0,0,.46.15A1.53,1.53,0,0,0,247.53,423.4Zm5.42-1a1.44,1.44,0,0,0-.37-.28c-.36-.22-.74-.43-1.11-.63-.17-.1-.35-.25-.54,0s-.08.41.09.59l1.33,1.32c.36.35.79.31,1.24-.14C253.36,422.88,253.16,422.61,253,422.35Z"/><path d="M284.05,389c.39-.12.44-.39.5-.66.14-.64.27-1.28.4-1.93a1.25,1.25,0,0,0,0-.47,27.3,27.3,0,0,0-.62-2.71,5.45,5.45,0,0,0-.8-1.4c-.34-.51-.78-.95-1.07-1.48-.41-.78-1.11-1.44-1-2.45a3.11,3.11,0,0,0-.27-.91l-.81.51a.75.75,0,0,0-.28.28c-.33,1-.85,1.89-.4,2.95a2.82,2.82,0,0,1,.14.59,5.71,5.71,0,0,0,1.29,2.5c.41.56.77,1.16,1.22,1.7a18.32,18.32,0,0,1,1.14,2.14,5.34,5.34,0,0,1,.27.7C283.84,388.61,284,388.82,284.05,389Z"/><path d="M218.86,377a2.64,2.64,0,0,0-.41,1.27,3,3,0,0,1-.37,1.07c-.78,1.26-1.61,2.49-2.41,3.75a1.9,1.9,0,0,0-.23.63c-.12.53-.22,1.07-.34,1.6a3.54,3.54,0,0,0,.05,1.74c.11.42.17.85.28,1.26.06.23.17.45.32.84a3.14,3.14,0,0,0,.44-.72,2.84,2.84,0,0,1,.56-1.22.44.44,0,0,0,.09-.18,12.62,12.62,0,0,1,2.13-3.35,4.81,4.81,0,0,0,1.13-2.21,1,1,0,0,1,.08-.33,3.58,3.58,0,0,0-.12-2.95,1.28,1.28,0,0,0-.61-.77A5.75,5.75,0,0,1,218.86,377Z"/><path d="M292,415.12a1.93,1.93,0,0,0,.23-.66,11.25,11.25,0,0,0-.24-2.09,21.4,21.4,0,0,0-.77-2.3.94.94,0,0,1,1-.21c.31.06.6.19.91.27s.61,0,.72-.37,0-.69-.38-.74a4,4,0,0,0-2.21,0,2.35,2.35,0,0,1-.6.1l-.86.13c0,.4,0,.76.08,1.11a2.3,2.3,0,0,1-.34,1.75,3.82,3.82,0,0,0-.34.74c-.22.53-.18,1.16-.68,1.59-.14.12-.11.43-.18.65s-.25.71-.39,1.06a2.21,2.21,0,0,0-.15.37c0,.82-.07,1.63-.1,2.45,0,.26.05.56.32.6s.41-.12.6-.22a.61.61,0,0,0,.29-.28,13.3,13.3,0,0,0,1.1-2.16c.18-.77.41-1.54.63-2.29.05-.16.2-.39.31-.39a.77.77,0,0,1,.48.26,3.87,3.87,0,0,1,.38.61Z"/><path d="M208.79,409.9c-.24.81-.4,1.47-.65,2.1a5.5,5.5,0,0,0-.34,2.47,2.73,2.73,0,0,0,.23.66l.17,0c.13-.2.26-.39.38-.6s.26-.43.51-.31a.74.74,0,0,1,.35.44c.23.8.41,1.62.63,2.42a5,5,0,0,0,.35.74,4.33,4.33,0,0,0,.39.7,6.46,6.46,0,0,0,.82,1c.32.27.59.13.67-.29a1.32,1.32,0,0,0,0-.34c0-.62,0-1.23,0-1.84a4,4,0,0,0-.3-1c-.08-.26-.19-.51-.26-.77a2,2,0,0,0-.54-1.28c-.1-.09-.09-.3-.15-.44a8,8,0,0,0-.58-1.52,2.54,2.54,0,0,1-.32-1.63c0-.05,0-.09,0-.13.18-1,.12-1.21-.92-1.18a.9.9,0,0,1-.46-.08,3.6,3.6,0,0,0-2.08-.08.56.56,0,0,0-.54.59c0,.48.28.7.75.57a6.78,6.78,0,0,1,1-.27A4.81,4.81,0,0,1,208.79,409.9Z"/><path d="M281,391.2c0-.41-.23-.49-.45-.61s-.53-.34-.8-.49a6.81,6.81,0,0,0-.74-.31c-.45-.16-.89-.33-1.34-.47a5.53,5.53,0,0,0-1.32-.32c-1.22-.05-2.44,0-3.67,0a3,3,0,0,0-1.71.56,5.09,5.09,0,0,0-1.29,1.16,2.24,2.24,0,0,0-.44,1.85,1.24,1.24,0,0,0,1,1.08,1.3,1.3,0,0,0,1.48-.56,1.77,1.77,0,0,0,.31-.44,3.3,3.3,0,0,1,1.85-1.8,2.66,2.66,0,0,1,1.18-.28c1,0,2,0,3.06.08a2.94,2.94,0,0,1,.95.34A2.9,2.9,0,0,0,281,391.2Z"/><path d="M226.49,388.87c-1,0-2,.05-3,.15a7.42,7.42,0,0,0-1.42.42c-.28.09-.55.21-.84.28a2.32,2.32,0,0,0-1.26.6c-.17.18-.5.21-.72.36s-.17.28-.25.42c.13.06.27.18.4.17a3.35,3.35,0,0,0,1.25-.24,4.45,4.45,0,0,1,2.16-.52c.49,0,1,0,1.49,0a4.06,4.06,0,0,1,2.82,1,3.29,3.29,0,0,1,.6.73c.18.26.31.55.49.8a1.36,1.36,0,0,0,1.7.56,1.29,1.29,0,0,0,.83-1.47,2.94,2.94,0,0,0-1.56-2.44A4.77,4.77,0,0,0,226.49,388.87Z"/><path d="M268.13,404.8c0-.09,0-.16-.07-.17a3.29,3.29,0,0,1-1.4-1.11,3.42,3.42,0,0,1-.57-.9c-.14-.38-.35-.74-.46-1.13a2.28,2.28,0,0,1,.77-2.14,10,10,0,0,0,1.27.63,1.28,1.28,0,0,0,1.52-.87,3.19,3.19,0,0,0,.11-.87,1.56,1.56,0,0,0-1.56-1.63,2.58,2.58,0,0,0-2.54,1.21,3.31,3.31,0,0,0-.66,2.15c0,.46,0,.91,0,1.36a2.34,2.34,0,0,0,.51,1.37,7,7,0,0,0,1,1.27,14.11,14.11,0,0,0,1.11,1C267.47,405.16,267.82,405,268.13,404.8Z"/><path d="M233.49,399.3a2.48,2.48,0,0,1,.9,2,2.31,2.31,0,0,1-.2.63c0,.11-.15.19-.16.29-.1.84-.76,1.31-1.2,1.92a1.45,1.45,0,0,1-.45.29c-.18.11-.37.21-.6.33.65.41.86.4,1.26,0s.64-.5.9-.8a13.64,13.64,0,0,0,1.15-1.48,1.58,1.58,0,0,0,.27-.76,17.09,17.09,0,0,0,0-2.37,3.22,3.22,0,0,0-1.63-2.46,2.28,2.28,0,0,0-2.29,0,2,2,0,0,0-.53,2.69,1.59,1.59,0,0,0,2,.21C233.12,399.62,233.27,399.48,233.49,399.3Z"/><path d="M170.3,386.49a4.25,4.25,0,0,0-1.43.52,2,2,0,0,0-.81,1.66c.23,1.22.75,2.08,2.23,2.09a2.14,2.14,0,0,0,2.14-2.15A2.29,2.29,0,0,0,170.3,386.49Z"/><path d="M329.67,386.61a2,2,0,0,0-2.12,2.1,2.17,2.17,0,0,0,2.1,2.06,2,2,0,0,0,1.5-.5,3.22,3.22,0,0,0,.75-1.63c.09-.6-.39-1.14-.77-1.61A1.76,1.76,0,0,0,329.67,386.61Z"/><path d="M252.37,376.7a.61.61,0,0,0-.43-.7,1.89,1.89,0,0,1-1.28-1.46A.64.64,0,0,0,250,374c-.32,0-.53.07-.62.39l-.13.39a1.63,1.63,0,0,1-1.05,1.17c-.33.12-.6.28-.59.72a.78.78,0,0,0,.59.81,1.6,1.6,0,0,1,1.07,1.22,1.85,1.85,0,0,0,.18.44c.12.29.38.28.63.29a.47.47,0,0,0,.5-.37,2.55,2.55,0,0,0,.13-.39,1.67,1.67,0,0,1,1.1-1.2A.69.69,0,0,0,252.37,376.7Z"/><path d="M333.83,394.4a2.16,2.16,0,0,0,2-1.86,2.61,2.61,0,0,0-1.91-1.91,2,2,0,0,0-1.82,2A1.76,1.76,0,0,0,333.83,394.4Z"/><path d="M166.07,394.48a1.92,1.92,0,0,0,1.83-2,2.06,2.06,0,0,0-1.78-1.89,2.42,2.42,0,0,0-1.92,1.86A2.2,2.2,0,0,0,165,394C165.22,394.29,165.7,394.34,166.07,394.48Z"/><path d="M242.28,404.73c-.28-.11-.43,0-.52.27a4.42,4.42,0,0,0-.22,2.87,1.58,1.58,0,0,0,1.93,1.09,1.51,1.51,0,0,0,1.1-1.72.69.69,0,0,0-.19-.42c-.45-.28-.75-.86-1.45-.71-.34.07-.59-.23-.64-.65A5.9,5.9,0,0,1,242.28,404.73Z"/><path d="M257.86,404.6c-.06.32-.11.53-.14.74-.1.57-.29.72-.9.74a1.42,1.42,0,0,0-.54.2c-.12.06-.2.2-.31.26a1,1,0,0,0-.54,1.32,1.43,1.43,0,0,0,1.09,1.09,1.56,1.56,0,0,0,1.89-1.05,4.38,4.38,0,0,0-.26-3A2.47,2.47,0,0,0,257.86,404.6Z"/><path d="M291.79,407.32a5.3,5.3,0,0,1,.45-1.17,2.7,2.7,0,0,1,1.1-1.17.86.86,0,0,0,.31-.25c.13-.19,0-.47-.24-.41a2.07,2.07,0,0,0-1,.37,2,2,0,0,1-1.68.53l-1-.08a.47.47,0,0,0-.55.39.63.63,0,0,0,.24.49,1,1,0,0,1,.44.73,2.39,2.39,0,0,0,.82,1.3.65.65,0,0,0,.86.09A.54.54,0,0,0,291.79,407.32Z"/><path d="M206.31,404.23a.74.74,0,0,0,.37.78,2.78,2.78,0,0,1,1.42,2.57.53.53,0,0,0,.38.58c.23.11.47.19.69,0a2.51,2.51,0,0,0,1-1.37,1,1,0,0,1,.47-.79.49.49,0,0,0,.19-.44.63.63,0,0,0-.42-.35,8.84,8.84,0,0,0-1.15,0,2.1,2.1,0,0,1-1.67-.54c-.29-.28-.83-.3-1.25-.44Z"/><path d="M338.4,392.78a1.44,1.44,0,0,0-1.43,1.33,1.5,1.5,0,0,0,1.42,1.38c.72-.07,1.48-.47,1.44-1.39A1.35,1.35,0,0,0,338.4,392.78Z"/><path d="M161.61,392.78a1.33,1.33,0,0,0-1.45,1.36,1.49,1.49,0,0,0,1.31,1.38,1.68,1.68,0,0,0,1.55-1.44A1.55,1.55,0,0,0,161.61,392.78Z"/><path d="M157,392.78a1.19,1.19,0,0,0-1.13,1.14,2,2,0,0,0,1,1,1.16,1.16,0,0,0,1.07-1.11C157.9,393.05,157.74,392.76,157,392.78Z"/><path d="M344.16,394a6.54,6.54,0,0,0-.26-.64,1,1,0,0,0-1.27-.51.84.84,0,0,0-.6,1,1.89,1.89,0,0,0,.46.94.76.76,0,0,0,1.12-.1Z"/><path d="M346,392.24a.53.53,0,0,0,.57.6c.51,0,.84-.18.85-.48a.91.91,0,0,0-.88-.93C346.19,391.43,346,391.73,346,392.24Z"/><path d="M154,392.25c0-.58-.19-.84-.57-.82a.87.87,0,0,0-.84.89c0,.32.4.54.9.52A.53.53,0,0,0,154,392.25Z"/><path d="M250,419c-.47,0-.72.15-.7.43a.62.62,0,0,0,.7.57c.41,0,.7-.23.71-.56S250.44,419,250,419Z"/><path d="M295.64,403.87a1.57,1.57,0,0,0-1.85.2A1.77,1.77,0,0,0,295.64,403.87Z"/><path d="M206.29,404.25c-.09-.15-.15-.39-.27-.43a2.22,2.22,0,0,0-1.66.06,3,3,0,0,0,1.95.35Z"/><path d="M351.84,387.71a6.29,6.29,0,0,0-.71-.3.43.43,0,0,0-.47.43c0,.25.19.44.46.37a5.52,5.52,0,0,0,.71-.28Z"/><path d="M148,387.83a4.36,4.36,0,0,0,.87.36.62.62,0,0,0,.43-.2.34.34,0,0,0,0-.35c-.11-.12-.31-.25-.44-.22A3.89,3.89,0,0,0,148,387.83Z"/><path d="M150.55,390.76l.45-.59c-.46-.52-.51-.52-.93,0Z"/><path d="M349.46,390.76l.52-.66-.48-.44-.57.46Z"/><path d="M250.45,417.75c-.3-.21-.55-.14-.91-.06A.86.86,0,0,0,250.45,417.75Z"/></svg>