<svg id="Layer_1" data-name="Layer 1" xmlns="http://www.w3.org/2000/svg" viewBox="0 0 500 500"><g id="HA7RnT"><path d="M450.84,47.67c-.17-3.71-.3-7-.48-10.19s-.41-6.74-.67-10.85L454,29.25l5.68-11.37,4.25,5.87c1.25-2,2.92-4.68,4.58-7.36l1.44.47c.34,2,.67,4.05.94,5.67l8.51-5.17c1.78,5.54-.91,7.83-4.48,10.28l6.54.82c.19.38.39.76.59,1.14L476,35l4.75,4.07-11.22,5.47c.75,1.28,1.52,2.6,2.57,4.37Zm11.72-3.36c-.62-1-1.19-1.94-1.95-3.16l8.67-2,.06-1L464.57,36,473,31.23l-2-1.87,3.11-4.22-.7-.58-4.29,3.33-1.58-2.26c-1.67,2.8-3.14,5.26-4.78,8l-2.94-5.37c-1,3.89-1.7,6.75-2.51,10L454.53,36C453.87,43.63,455.84,44.57,462.56,44.31Z"/><path d="M468.07,99.53c-2.41,5.84-4.32,6.71-8,3.84,5.38-2.9,5.66-6.6.14-9.71C457,91.84,453,91.37,448.26,90c5.46,6.1,5.52,7.74,1.29,10.72,1.79-5.19.93-7.42-4.35-8.71-6-1.47-9.81-4.77-11.28-10.8,4.07,2,8,4.51,12.26,5.91s9.24,2.35,13.56-.93c.12,4.06,2.82,5.5,11.36,6l-1.74,2.47c3.64,3.59,4.88,7.91,4.77,12.88-.11,5.26,1.59,9.8,6.71,13.25l-5.87.88v7.61l-1.57.43L470,122.48c-.38.66-1.08,1.92-2.24,4-.62-3.35-1.06-5.75-1.58-8.52a91.87,91.87,0,0,1-6,7.18c-3.34,3.27-7.43,5-12.09,3.47a5.75,5.75,0,0,1-3.42-3.7c-.21-1.45,1-3.43,2.19-4.63.6-.61,2.43,0,3.7,0-.63,1-1.24,1.93-1.9,2.85a22.31,22.31,0,0,1-2.21,1.91c2.89.33,4.81,1,6.45.63,5.57-1.42,9.39-5.29,12.23-10.09,2.64-4.45,5.94-8.8,3.82-14.51A11.48,11.48,0,0,0,468.07,99.53Z"/><path d="M372.41,31l2.93-2.38-6.47-3.57.3-1.25h7.88c.24-1.91.5-4,.76-6.08,3.58,5.6,8.79,6.43,14.35,7.11,4.06.49,8,2,12,3L404,29.32l2.07-1.62C407,31.45,408,35.2,408.91,39l3.39-.48c-3.44,7.94-2.53,12.15,5.74,26.5-5.76-2.08-9.84-5-11.24-11.21-1.26-5.57-3.47-6.55-8.48-4.86,2.44-4.25,5.25-3.91,10.36.84-1.47-4.19-2.24-8.85-4.6-12.47-3.12-4.77-6.18-4.08-8.58,1-3.32-3-2.62-4.79,3.1-7.86-6.24-3.2-17,1.24-22.87,9.46-3.52,4.91-3.92,8.13-1.59,10.51l4.16-2.43c.25.88,1,2.24.67,2.56-1.3,1.3-2.81,3-4.44,3.24-3.49.57-4.77-2.13-5-5-.4-4.77,1.72-8.61,5.22-11.68,1.79-1.57,3.81-2.88,6.26-4.71Z"/><path d="M450.66,68.72c-.36-.65-.71-1.31-1.44-2.63,1.26.46,2.45.67,2.46.93,0,1,0,2.67-.57,3-1.31.64-3.43,1.35-4.36.74-3.79-2.53-7.27-.26-9.64,0,2.44-3.62,5.44-7.77,8.12-12.12,4-6.52,8.09-8.75,15.41-6.29,7.85,2.65,14.81,2.05,22.48-3.79-.94,2.67-1.49,4.13-2,5.63-.56,1.79-3.69,3-1.24,5.64.14.16-2.25,2.36-3.11,3.82a11.22,11.22,0,0,1-12.61,5c-4.36-1.33-8.7-2.75-13.14-3.76-.91-.21-2.19,1.21-3.3,1.88l2,2.74Zm20.15-10.57c-4-.62-8.09-.95-12-1.91-4.29-1.06-7.37.4-10,3.65C455.72,54.33,463.79,61.93,470.81,58.15Z"/><path d="M448.83,16.18c-4.3,6.93-5.09,13.55-2.52,21.16,2.76,8.17.34,12.6-7.48,16.7-1.89,1-4,1.65-5.68,2.87a27.91,27.91,0,0,0-3.85,4c-.51-3.51-1.25-7.06-1.41-10.63-.05-1.17,1.35-2.47,2.29-3.53a13.17,13.17,0,0,1,2.29,1.36l-.57,1-2.82-1.51c.61,1.49.89,2.79,1.18,2.79,1.1,0,2.86-.1,3.15-.73a6.75,6.75,0,0,0,.19-4.11c-.63-2.62-1.58-5.16-2.45-7.72-3.11-9.12-2.51-9.6,4.86-16.12C439.91,18.17,445,19.31,448.83,16.18ZM440.09,30.8v18C446.24,41.65,438.63,34.3,440.09,30.8Z"/><path d="M362.37,37.85c-7,7-17.72,8.68-27.36,4.39-3.39-1.5-6.61-3.4-10-4.77-9.38-3.75-16.05-1.2-20.62,8-.92-5.31-.15-9.79,3.88-13s8.71-3.91,13.43-1c-1.31-2.63-2.56-5.16-3.82-7.68.25-.28.5-.56.76-.83C329.89,37.17,343.46,44.62,362.37,37.85Z"/><path d="M453.16,194.38c9.3-4.93,11.78-11.94,7.86-21.28-1.38-3.29-3.22-6.37-4.7-9.61-4.06-9-2.61-19.61,4.08-26.63-6.08,18.5,1.1,31.78,14.79,42.73l-.63.88-7.09-3.22c2.41,4.24,2.11,8.68-1,12.75S458.87,195.24,453.16,194.38Z"/><path d="M358.9,50.78c-6.87,3.42-10.31,3-13.25-.72l28.73-16.33.67.84c-7.18,5.07-12.15,11.11-8.95,20.74l-.94.45Z"/><path d="M447.9,139.64l-5.06-6,.3-1c9.67,2.75,16.13-1.46,21.51-10.23-.92,7.18-5.28,11-8.09,15.77s-5.08,10.06-7.55,15C444.9,150.63,444.39,146.45,447.9,139.64Z"/><path d="M416.31,82.36l5.23,11.55-6.33-1.37L412,96.76l-1.87-4.27-4.75,1,.64-4.72-3.86-2.28,4-3.19c-.45-1.8-1-3.9-1.57-6.32Z"/><path d="M418.93,78.79l4-12,1.21.18c.5.94,1,1.88,1.65,3.08l5-2.25c-.8,1.87-1.39,3.23-2.1,4.88l4.18,2.65-12.92,4.44Z"/><path d="M351.13,26.08c-1.89.56-3.47.57-4.17,1.35-1.41,1.56-3,3.5-3.21,5.4-.11,1.3,1.86,3.58,3.34,4.05,3.14,1,6.56,1.12,9.62,1.56a16.38,16.38,0,0,1-12.12-.36c-3.72-1.55-4.79-6.58-2.51-10.33C344.2,24.28,347.45,23.38,351.13,26.08Z"/><path d="M459.94,142.83c.48,2.9.75,5.23,1.26,7.52.58,2.64,1.86,5.44,4.91,4.73,2.05-.48,3.73-2.76,5.43-4.39.59-.57.73-1.61,1.25-2.86,2.9,2.51,1.71,4.81.4,6.63a7.52,7.52,0,0,1-9.08,2.82C460,155.9,458.82,151.71,459.94,142.83Z"/><path d="M432.89,74.1a24.52,24.52,0,0,1,17.14.49c.88.34,1.33,1.81,2,2.76-1.08.24-2.24.86-3.22.64C443.62,76.85,438.49,75.49,432.89,74.1Z"/><path d="M424.67,65.75c-1.51-5.69-3-11-4.27-16.44-.2-.82.64-1.89,1-2.84.94.72,2.37,1.24,2.72,2.18A26.88,26.88,0,0,1,424.67,65.75Z"/></g><path d="M28.81,49.3,31.38,45,20.15,39.42l4.74-4.1-6.2-5,.34-1.2,6.32-1c-2.43-2.57-6.08-4.66-3.8-10.19l8.29,4.94c.25-1.36.63-3.45,1.21-6.64l6.13,6.56,4.06-4.31,5.57,11.32L51,27c-.38,7.37-.73,14.08-1.09,21.11ZM43.5,38.56C42.66,35.21,42,32.42,41,28.43l-2.76,5.9-5-8.42-1.47,2.4c-1.63-1.29-3.12-2.46-4.61-3.62l-.64.6,3.4,4.47-2,1.85,8.24,4.79L31.6,38.52l.11,1,8.75,2.17-2.9,3.78,8-1.68c.54-2.45,1.05-4.73,1.79-8.08Z"/><path d="M20.77,60.05l1.06-1.66c-1.41-3-2.72-5.69-4-8.43,7.05,4.28,13.71,5.58,21.53,2.88,8.36-2.89,12.85-.27,17.14,7.56,2.18,4,5.12,7.52,7.24,10.58-2.49-.48-6.36-2.1-10.37.25-.85.5-3-.55-4.06-1.42-.44-.35.23-2.12.4-3.25l1.19.25-.57,2.42.73.64,2.11-2.56c-.93-.74-1.88-2.12-2.79-2.1a23.38,23.38,0,0,0-6.24,1.26c-2.87.86-5.63,2-8.5,2.92-3.25,1-9.47-1.85-11.48-4.94C23.2,63,22.06,61.71,20.77,60.05Zm29.6-1.82c-7.43-4.52-14,1.85-20.62-.54l.07,1.82Z"/><path d="M53.25,91.23c-4.59,1.2-9.74,1.49-13.64,3.84-4.83,2.91-4,6.06,1.06,8.53-3.38,3.3-5.62,2.26-7.8-3.64-4.45,6.11,2.05,17.89,9.56,23.5,5,3.72,8.23,3.85,10.86.85-.65-.32-1.4-.47-1.78-.93A15.29,15.29,0,0,1,50,120.9c1-.31,2.55-1.17,2.93-.81,1.35,1.28,3.14,3,3.16,4.52s-1.67,3.69-3.15,4.31c-4,1.69-8,.35-11.13-2.4-2.64-2.32-4.76-5.24-7.29-8.08-.42,2.38-.86,4.89-1.43,8.16l-2.53-3.84c-.87,2.09-1.93,4.67-3,7.25L26,129.65V122l-6-.8c5.46-3.73,6.49-8.71,6.86-14.42.22-3.38,2.06-6.63,3.08-10,.38-1.27.49-2.61.8-4.27a32.77,32.77,0,0,0,6.44-1.35c1.8-.71,5.91-.3,3-4.73,11,4.91,19.1-.08,27.59-5.53l-5.55,7.7Z"/><path d="M90.14,61l-6.85,4.68c5.09-8.21,9.38-16.3,5.54-26.2,3.45-.19,5.54-4.49,5.38-10.57,1.68-.34,3.24-.56,4.74-1,3.08-.86,6.09-2.4,9.2-2.64,7.38-.55,10-1.59,14.72-7.78l.9,6.56h7.75l.45,1.2-6.41,3.88L129,31.37l-8.74,1.48c2.81,2.39,5.34,4.24,7.5,6.45,2.94,3,4.37,6.87,3.32,11a6.35,6.35,0,0,1-3.75,3.91c-1.35.39-3.51-.74-4.75-1.84-.64-.57-.07-2.52,0-3.84,1,.63,2,1.22,2.9,1.91.3.22.42.71.93,1.65,3.36-4.25,1.31-7.5-.45-10.45-4.75-8-16.93-13.56-23.17-11a40.64,40.64,0,0,1,4.42,5.09c.4.63-.54,2.12-.85,3.16-1.87-1.63-4.13-4.28-4.67-4-2.57,1.5-5.64,3.38-6.7,5.9-1.57,3.69-1.57,8-2.24,12.1Q91.39,56.92,90.14,61Z"/><path d="M52.11,16.42c1.54.57,3.09,1.12,4.62,1.73s2.53,3.11,5,1.15c.47-.36,3.06,2,4.66,3.06a11.52,11.52,0,0,1,4.26,13C69.38,39.53,68,43.72,67,48c-.2.88,1.28,2.14,2,3.23l2.61-1.92-.7-1L69,49.42l-1.74-1.88c1-.18,2-.68,2.87-.47a4,4,0,0,1,2.58,1.74,8.23,8.23,0,0,1,.18,3.78c-.27,3.32-.64,6.63-.84,8.59C69.1,59.27,65.14,56.47,61,54c-6.38-3.81-8.92-8-6.71-14.89C56.83,31.11,56.91,23.85,52.11,16.42Zm9.28,33c-4.2-7,2.75-14.82-1.65-21.64C62.4,34.89,54,42.83,61.39,49.42Z"/><path d="M40.76,141.18c-.15-1.39-.29-2.79-.43-4.05,6.45,5.88,8.44,16.56,4.56,25.78-1.77,4.2-4.11,8.17-5.64,12.45-3.1,8.7-.38,15,7.72,19a11.46,11.46,0,0,1-12.39-3.49,11.59,11.59,0,0,1-1.16-13.2L26.28,181l-.39-.74c2.84-2.89,5.88-5.61,8.49-8.7,6.82-8.05,9.68-17.32,7.68-27.84a10,10,0,0,0-1.3-2.51Z"/><path d="M138.89,38.64c16.21,5.14,29.71,1.85,44.27-14.87l-4,8.09c4.57-2.81,9.16-2.32,13.32.87s4.86,7.74,4,12.85c-4.67-9-11.43-11.46-20.95-7.58-3.42,1.4-6.62,3.33-10,4.82C156.08,47,145.34,45.23,138.89,38.64Z"/><path d="M58.6,133.43,53,139.9c3.34,7,2.93,10.76-2.12,14.6-.59-12.37-11.88-19.39-15.13-31.39C44,132.65,44.82,134.35,58.6,133.43Z"/><path d="M155.18,50.45c-3.25,4-7.55,4.27-13.5.53-2.1,1.91-4,3.67-5.92,5.42l-1-.45c3-9.5-1.25-15.86-8.82-20.74l.67-1Z"/><path d="M98.75,86.82l-3.91,2.27c.15,1.29.32,2.74.56,4.72L90.84,93l-2.19,4-3.26-4.26-6.4,2,4.6-10,1.14.29-.89-2.2,11.88-5c-.21,1.63-.47,3.69-.79,6.26Z"/><path d="M69.43,74.59l2.82-1.36c-.69-1.47-1.32-2.84-2.31-5l5.11,2.26,1.34-3c4.93,2.77,4,7.67,5.15,12.71L69.11,76.18Z"/><path d="M144,38.65c2.63-.23,5.87,0,8.68-1A7.85,7.85,0,0,0,157.15,33c.64-2.68-1.22-4.79-4.22-5.43A19.09,19.09,0,0,1,150,26.32c2.44-3.24,4.77-1.7,6.76-.33,3,2.06,4,6.93,2.29,10C157,39.75,149.48,40.94,144,38.65Z"/><path d="M40.76,141.18c.1,3.69.59,7.43.2,11.08-.47,4.46-4.55,6.82-8.83,5.67-4.46-1.18-6.25-4.46-4.6-10.11.81,1.68,1,2.84,1.75,3.47,1.76,1.59,3.61,3.79,5.67,4.09,1.29.2,3.82-2.34,4.39-4.1,1-3.19,1-6.71,1.42-10.1Z"/><path d="M67.77,74.49c-5.52,1.39-10.55,2.73-15.63,3.87-1,.21-2.12-.4-3.19-.63.51-.9.82-2.34,1.57-2.62C56.15,73,61.88,72.43,67.77,74.49Z"/><path d="M76.16,65.83A25.37,25.37,0,0,1,77,48.44c.29-.71,1.76-.93,2.68-1.38.28.88,1,1.85.77,2.62C79.13,55.07,77.62,60.41,76.16,65.83Z"/><path d="M53.25,91.23l9-2.56c-2.07,1.17-4,2.67-6.24,3.44-5.48,1.9-6.5,3.6-4.71,9C46.56,97.58,47.1,94.87,53.25,91.23Z"/><path d="M90.14,61q1.24-4,2.51-8.1c.86-1.62,1.46-3.46,2.63-4.81,2.11-2.41,4.85-1.91,7.21.8-1.74.11-4-.36-5.47.54s-2,3.21-3,4.9Z"/><path d="M25.44,471.37l-7.64-1.29,6.89-6.31-4.71-4,11.57-5.56-3.25-4.81c5.42.79,9.71,1.63,14,1.95,2,.15,4.13-.88,6.21-1,.8-.06,2.42,1.27,2.4,1.31-3.47,6.69,1.17,13.35-.18,20.5l-4-2.62L41.2,480.82l-4.08-4.42-6,6.81c-.66-3.16-1.09-5.22-1.62-7.78-2.08,3.2-4.45,5.79-8.6,4.83C19.61,476,22.3,473.82,25.44,471.37Zm4.68-2.29-3.52,4.85.67.51,4.32-3.36,1.7,2.16c1.68-2.91,3.12-5.43,4.85-8.44l2.17,4.66h.94c.7-2.78,1.4-5.56,2.19-8.68l4.09,2.65c-1.46-4.07-.38-8.06-5.21-8.77L37.65,454l2.62,3.52-8.73,2.29.19,1.08,4.44,2L27.39,468Z"/><path d="M105.31,460.05c3.1,4,2.26,5.71-3.52,8.21,5.89,4.16,16.73-1.61,22.94-9.06,3.8-4.56,4.21-8.36,1.7-11.19-.25.1-.58.14-.75.32-.88.92-1.72,1.88-2.58,2.82-.43-.51-1.29-1.11-1.21-1.51.28-1.31.56-2.9,1.45-3.74,3-2.79,7.17-1,7.8,3.37.76,5.16-1.49,9.19-5.22,12.47-1.8,1.59-3.82,2.91-6.3,4.77l8.71,1.23-3.41,2.69,6.9,3.08-.4,1.46h-7.74c-.21,1.86-.44,4-.67,6.06-3.71-5.5-8.83-6.37-14.48-6.92-4.07-.39-8-2.09-12-3.2l.16-1.32-2.1,1.68c-.84-3.67-1.7-7.42-2.61-11.41l-3.56.62c4.42-10.43,0-18.71-6.11-26.56,6.89,1.42,9.35,3.71,11.6,10.89,1.8,5.78,3.1,6.55,8.74,5.21-3.44,4.2-6,3.73-9.6-1.76l-1,.36c1.57,4.38,2.42,9.22,4.89,13C99.79,466.09,103,465.27,105.31,460.05Z"/><path d="M19.64,378l6.25-.74V369.5l1.64-.38c1.1,2.69,2.19,5.38,3.08,7.55.34-.63,1.09-2,2.29-4.14.68,3.43,1.15,5.83,1.66,8.43,2.13-2.58,4-5.11,6.12-7.33,3.07-3.17,7-4.64,11.32-3.58a6.46,6.46,0,0,1,4.07,4c.3,1.39-1.37,3.45-2.62,4.79-.44.48-2.22-.29-3.39-.5.6-.86,1.16-1.76,1.82-2.58a17,17,0,0,1,2.19-1.67c-2.13-.56-3.52-1.36-4.73-1.15a14.93,14.93,0,0,0-5.94,2.18c-6.67,4.78-11.11,11.1-11.88,19.51a17.43,17.43,0,0,0,.64,4.33c1.72-1.84,3.05-3.72,4.82-4.93.75-.51,2.46.38,3.55.59-1.55,1.93-4.21,4.3-3.85,4.95,1.45,2.57,3.47,5.35,6,6.64,2.92,1.49,6.59,1.49,10.1,2.16-1.59-1.72-3.65-3.06-4.22-4.87-.47-1.51.8-3.58,1.79-5.24-.55,5.91.07,6.93,5.69,8.7,6.69,2.1,7.21,2.62,11.89,12.29-8.52-6.72-16.91-11.07-27.44-6.75.11-.48.23-1,.35-1.47s.2-.8.45-1.83l-10.88-3a16,16,0,0,0-.29-3.47c-1.06-3.89-2.87-7.67-3.33-11.61C26.16,385.91,25,381.36,19.64,378Z"/><path d="M61.48,479.13l-10.32,4.09c1.34-2.53,2.43-4.46,3.39-6.45,1.86-3.89,2.4-7.87.79-12a27.63,27.63,0,0,1-1.19-4.11c-1.64-7.54.09-11.38,6.79-15.32,3.72-2.17,7.41-4.38,10.61-6.27.37,2.48,1,5.77,1.27,9.09a5.37,5.37,0,0,1-1.06,3.45c-.39.51-1.79.3-2.73.25-.13,0-.21-1-.31-1.49h2.44l.39-.72c-.88-.56-1.87-1.68-2.62-1.54a3.15,3.15,0,0,0-2,2.3,21.71,21.71,0,0,0,1,5.84c.8,2.74,1.93,5.37,2.77,8.1,1.68,5.43-.28,9.74-5.35,12.65-1.22.7-2.06,2.08-3.07,3.15Zm-1.36-28.56c-5,6.62,1.14,13.15-.27,19.64l1.39,0C60.87,463.79,60.51,457.4,60.12,450.57Z"/><path d="M50.37,430.09l.56,2.11c-.41.05-1,.29-1.19.12a2.75,2.75,0,0,1-.87-1.7c.38-3.2,2.87-2.61,4.92-2.46,3.45.24,6.89.67,9,.88-1.88,2.88-4.61,6.74-7,10.8-4.06,6.81-8.27,9.37-15.55,6.83-8-2.8-15-2.15-22.31,2.44.65-1.63,1.29-3.28,2-4.91s3.56-2.64.86-4.76c1.83-2.09,3.63-4.22,5.53-6.24.89-1,3.77-.13,2.6-2.94,1.91-.18,3.95-.88,5.71-.45,4.82,1.19,9.48,3,14.32,4.18,1.16.27,2.74-1.24,4.13-1.93l-1.72-2.62Zm-.14,10.75-19.35-1.07c3.24,1.44,6.51,1.75,9.68,2.48C44,443,47.3,443.51,50.23,440.84Z"/><path d="M40.31,362c6.35-18.65-1.1-32.15-14.8-43.89l6.78,2.56c-1.26-5.35-.57-10.39,4-13.92a11.5,11.5,0,0,1,11.78-1.92c-8.53,2.63-12,9.62-9,18.58,1.35,4,3.55,7.75,5.31,11.64C48.64,344.54,47.12,355.45,40.31,362Z"/><path d="M142.62,460.34h-3c2.76-5.13,15.4-7.9,23.19-4.86,2.78,1.09,5.42,2.51,8.17,3.69s5.44,2.63,8.31,3.26c8.19,1.81,13.43-1.08,17.06-9.1.89,5.27.37,10.05-4.06,13.23s-9.21,4.51-14.25-.37l5.12,8.91-1,.74c-.9-1-1.79-2.1-2.7-3.14-9.12-10.39-20-16.44-34.31-13.67a10,10,0,0,0-2.51,1.31Z"/><path d="M125.42,464.83c9.66-7.74,11-10.56,9.33-22.46,2.8,2.27,4.79,3.89,7,5.66,6.73-3.38,11.1-2.88,14.44,2.22C143.76,450.73,136.7,462.21,125.42,464.83Z"/><path d="M52.9,359.31l4.9,5.74c-4.49.68-8.92.49-12.49,2.15s-6.18,5.14-9.09,7.71c.85-5.53,5.15-9.51,8.05-14.3s5-10.06,7.47-15.06C55.81,347.83,56.31,351.94,52.9,359.31Z"/><path d="M78.83,404.79l6.7,1.61q1-1.41,3.11-4.25l2.12,4.11,4.51-.59c-.19,1.75-.33,3.08-.5,4.59l4,1.85-4.26,3.45c.52,1.95,1,3.89,1.7,6.38l-9.73-4.44.26-1.16-3.24,1.1.7-1.78Z"/><path d="M77.35,433.45l-2.41-4.65L70,430.91c.95-2.11,1.56-3.46,2.2-4.91l-3-1.35-.34-1.2,11.8-4.3,1.13,1C80.43,424.19,79.08,428.25,77.35,433.45Z"/><path d="M142.62,460.34c3.95-.08,8-.68,11.83,0,1.89.31,4.17,2.58,4.93,4.5a6.68,6.68,0,0,1-2.57,8.35c-1.7,1.09-4.11,1.09-6.2,1.58l-.46-1.9c1-.38,2.38-.48,3.06-1.2,1.54-1.62,3.67-3.48,3.8-5.36.1-1.47-2.18-4-3.88-4.51-3.33-1-7-1-10.5-1.42Z"/><path d="M28.18,350.76c-2.35-3-2.13-6.13.64-7.47,2.55-1.23,6.49-2.23,8.67-1.1,5.55,2.86,3.41,8.62,3.18,13.49-.37-2.4-.7-4.8-1.11-7.2-.48-2.83-2.07-5.35-5-4.73-2.05.45-3.74,2.83-5.43,4.51C28.59,348.84,28.5,349.91,28.18,350.76Z"/><path d="M76.09,433.64c1.47,5.34,3,10.55,4.29,15.8.19.76-.46,1.72-.72,2.59-.94-.42-2.46-.61-2.74-1.3A25.13,25.13,0,0,1,76.09,433.64Z"/><path d="M68.35,425.19c-6.6.71-12.25,1.25-17.76-1-.8-.32-1.07-1.94-1.58-3,1-.16,2.14-.67,3.07-.44C57.1,422.05,62.08,423.47,68.35,425.19Z"/><path d="M472.09,449.87l-2.63,4.22,11.42,5.44-4.75,4.09,7,6-7.33,1.62c2.28,2.4,5.81,4.33,4.15,8.82-4.13,1-6.41-1.64-8.69-5.08-.4,2.58-.72,4.67-1,6.77l-1.49.57-4.63-7.62-4,6.41-5.88-11.76L450,472.14c.43-7.78.83-14.91,1.17-21.22Zm-4.43,23.25,1.61-2.33,4.48,3.38.61-.55c-1.13-1.51-2.25-3-3.41-4.59l2.36-1.41-8.56-5.17,4.86-1.93c0-.33-.08-.66-.13-1l-8.79-2.28c.86-1.26,1.43-2.09,2.13-3.13-6.87.07-8.69,1.17-8.25,8.55l2.95-2.27c.82,3.22,1.53,6.05,2.25,8.88l1-.09,2.18-4.56Z"/><path d="M394.47,460c3.62,5.22,7.19,5.76,10.24.73,2.12-3.49,2.72-7.89,3.61-12-4.77,4.78-6.63,5-9.92,1.28,1.65,0,3.86.63,5.21-.17a7.44,7.44,0,0,0,3.18-4.75c.92-6.91,6.78-8.64,11.5-11.75-5.54,8.18-10.43,16.4-5.8,26.6-3.71-.38-6.24,4.4-5.53,11.49l-2.77-2.2c-3.57,3.88-8.17,4.91-13.2,4.89-5.18,0-9.54,1.6-12.87,6.66l-1-5.89h-7.33l-.51-1.56,7-3.17-4-2.75,9.14-1c-2.44-1.86-4.59-3.33-6.53-5-3.62-3.18-5.76-7.15-5.16-12.1.51-4.14,3.79-6.15,6.92-4.19,1.24.78,2,2.53,2.63,4,.15.33-.9,1.21-1.4,1.84l-3.39-3.12c-2.8,1.28-1.81,3.81-1.09,5.92,2.19,6.36,7.09,10,12.87,13,4.15,2.16,8.14,3.56,12.91,1.63-1.72-1.21-3.72-2-4.54-3.38C393.9,463.75,394.47,461.73,394.47,460Z"/><path d="M447.89,374.41a1.51,1.51,0,0,0,.22.37l2.86,3c-.65.43-1.57,1.4-1.91,1.22-1.41-.71-3.15-1.49-3.85-2.76-1.72-3.13.29-6.14,4.14-6.59,5.71-.66,9.91,2,13.31,6.26,1.15,1.45,2.11,3.05,3.56,5.17.58-3,1.07-5.45,1.7-8.65l2.33,3.5,3.22-7,1.54.32v7.79l6.2.67c-6,3.75-6.69,9.23-7.14,15.22-.28,3.76-2.11,7.41-3.25,11.12L469.5,404l1.61,1.95-11.29,2.94c.21,1.38.36,2.37.52,3.34-10.47-4.16-18.69.12-26.49,6.18,2.22-5.12,5.61-10.63,11.37-11.83,5.32-1.11,6.19-3.25,4.67-8.22,4.5,2.65,3.89,5.73-2.45,9.86,3.53-.6,6.5-.86,9.32-1.65a13,13,0,0,0,5.15-2.79c4-3.69,3.55-5.87-1.47-8.38,3.2-3.07,5.5-2.08,7.47,3.23,4.92-5.2-.36-14.37-7.56-21.61C455.66,372.32,450.79,371.61,447.89,374.41Z"/><path d="M428.35,437.12c2.89,2.05,6.28,5,10.14,7.07,8.13,4.38,10.38,8.95,7.94,17.83-2.62,9.55-2.23,11.94,3.8,21.2-2.59-1.05-4.49-1.86-6.42-2.61-1.42-.55-2.86-1-4.29-1.53l-1,1.32c-2.12-2.84-3.68-6.68-6.5-8.29-4.74-2.7-2.13-5.79-1.51-8.69.89-4.16,2.49-8.17,3.41-12.33.21-.93-1.17-2.21-1.82-3.34l-2.8,1.86.64.95,2.68-1c-.32,1-.34,1.81-.65,1.94-2.84,1.21-5.18-.82-3.9-4.14A16.46,16.46,0,0,0,428.35,437.12Zm10.38,11.55c2.95,3.74,2.19,7.75,1.61,11.92-.47,3.38-.1,6.88-.1,10.32,1-3.73,1.33-7.37,2.14-10.91C443.43,455.43,442.78,451.56,438.73,448.67Z"/><path d="M482.69,448.93c-6.93-4.3-13.6-5.44-21.4-2.62-7.63,2.77-12.19.17-16.26-6.91-2.32-4-5.08-7.8-6.9-10.58,2.1-.21,5.68-.75,9.28-.83,1.49,0,3,.85,4.44,1.57a15.71,15.71,0,0,1-.89,2.85l-1.44-.64,1.37-1.77-.74-.71-2.3,2.06c.95.89,1.94,2.56,2.83,2.51a32.17,32.17,0,0,0,7-1.59c2.72-.81,5.35-2.06,8.12-2.56,2.18-.4,5.16-2.58,6.15,2.19.34,1.63,3.3,2.71,5,4.05C481.28,439.19,479.88,444.87,482.69,448.93Zm-11-8.39.09-.37H450.12c2.23,2.68,5.55,2.82,9.22,2.18C463.43,441.62,467.57,441.13,471.69,440.54Z"/><path d="M318,474.7l4.6-8.19c-4.61,3.94-9.29,3.1-13.65,0s-5.3-7.53-4.37-13.52c2.22,5.56,5.52,8.82,10.89,9.47,5.2.62,9.83-1,14.3-3.42,6.6-3.66,13.5-6.58,21.19-4.4a48.62,48.62,0,0,1,11.76,5.53c-18.74-6.55-32.34,1.17-43.8,15.31Z"/><path d="M475.91,318.55c-14,11-21.56,24.35-15.48,42.57-3.13-2.24-5.26-6.27-5.84-11A29.24,29.24,0,0,1,457.4,333a59.44,59.44,0,0,0,5.24-13.46c1.57-7.13-2.64-13-9.59-14.73a11.7,11.7,0,0,1,13,3c3.7,4,3.94,8.37,1,14.37l8-4.58Z"/><path d="M344.53,450.06c4.12-5.11,7.8-5.49,14.71-2.24l6.1-5.08c-2.23,10.34,2.67,16.62,10.27,21.8C364.17,462.18,357.27,450.45,344.53,450.06Z"/><path d="M442.89,365l4.94-5.39c-.52-2.9-1.57-6.36-1.61-9.83,0-1.74,1.81-3.5,2.37-4.49l16.61,29.3-.88.75c-4.9-7.73-11.23-12.27-20.91-9.28Z"/><path d="M412.53,402.32l2.79,3.69,6.43-1-5.42,11.7c-1.39-.76-3.37-.9-3.33,1.81l-8,2.69c.38-1.79.8-3.73,1.27-6l-4.06-2.91,3.93-2.46c-.19-1.24-.38-2.45-.6-3.9C407.92,405.21,411.72,407.29,412.53,402.32Z"/><path d="M425.18,431.73c-5.55-2.19-4.46-7.5-5.81-12.78l12.74,3.92c-.08.44-.15.88-.23,1.32l-3.18,1.73c.66,1.36,1.28,2.63,2.31,4.71l-5.29-2.16c-.2,1.16-.38,2.21-.55,3.26Z"/><path d="M356.07,460.09c-4.27.83-9.88-.69-12,4.38-2.24,5.3,3,6.78,7.76,8.63-3.95,2-6.37,1.38-8.36-.67-2.5-2.59-3.36-6-1.52-9C345.33,457.83,350.89,459.4,356.07,460.09Z"/><path d="M459.4,354.73c.36-3.21.32-6.52,1.17-9.59,1.15-4.14,4.72-4.53,8.32-3.85s5.41,3,5.81,6.46c.1.92-.64,1.92-1.4,4-1.9-4.55-2.87-9.41-8-8.09C459.68,345.09,461.69,350.87,459.4,354.73Z"/><path d="M425.17,431.73c0,5,.13,10.1,0,15.15a6.92,6.92,0,0,1-1.16,3.58c-.53.74-1.76,1-2.68,1.43-.26-.95-.87-2-.71-2.85.92-5,2-9.89,3.11-14.8a10.29,10.29,0,0,1,1.41-2.51Z"/><path d="M433,424.81c5.68-1.52,10.67-2.93,15.7-4.14,1-.25,2.28.28,3.43.45-.68,1.05-1.13,2.74-2.06,3.06C444.61,426.08,439.08,425.88,433,424.81Z"/></svg>