<svg id="Layer_1" data-name="Layer 1" xmlns="http://www.w3.org/2000/svg" viewBox="0 0 500 500"><path d="M28.77,428.05c.21,2.79.21,5.61,1.17,8.29a14.27,14.27,0,0,0,6.77,8.35l1.46.77c3.36,1.77,6.49,1,9.48-.93.66-.44.6-.72-.16-1.17-1.09-.65-2.22-1.21-3.26-1.93a8,8,0,0,1-3.54-6.74A4.15,4.15,0,0,1,44,430.38a4.64,4.64,0,0,1,5,2.6c1,2.28-.08,4.62-2.34,5a1.9,1.9,0,0,1-2.37-1.48c-.25-1.09.28-2.19,1.61-2a4.3,4.3,0,0,0,1.16-.21,4.43,4.43,0,0,0-.73-1.21,2.18,2.18,0,0,0-2.46-.31c-.92.4-1,1.2-1,2.06a5.88,5.88,0,0,0,1.64,4,9.79,9.79,0,0,0,4,2.55c1.83.64,2.37-.05,2.76-1.31,1.31-4.26.71-8-2.56-11.21a7,7,0,0,0-7.63-1.3c-4.43,2-5.41,6.79-3.67,10.54a6.44,6.44,0,0,0,1.35,1.62c.22.24.61.32.8.57s.7.84.64,1.21-.6.71-1,.92c-1.84.95-5-.95-5.83-2.64-1.67-3.32-.47-9.14,2.3-10.83a5.73,5.73,0,0,0,1.06-1,10.16,10.16,0,0,1,11.66-2.32,9.22,9.22,0,0,1,3.36,3.09c2.78,3.7,3,7.79,1.87,12.09a4.84,4.84,0,0,0-.27,1c0,.33.09.9.26.95a1.86,1.86,0,0,0,1.2-.14c.24-.12.32-.55.48-.83,1.37-2.32,2.61-4.72,4.14-6.92a16.59,16.59,0,0,1,6.27-5,4.08,4.08,0,0,1,4.8,1.55c.83,1.57,1.17,3.13,0,4.81-1.81,2.66-3.67,5.2-6.63,6.73-1.66.85-3.25,1.83-4.87,2.75-.28.16-.69.3-.79.55a1.86,1.86,0,0,0,0,1.19c0,.16.57.3.82.23a21.38,21.38,0,0,1,5.51-.91c4.1,0,7.24,1.9,9.87,4.86a1,1,0,0,1,.19.27c1.23,2.79,1.91,5.63.73,8.6a10.27,10.27,0,0,1-3,4.3,2.46,2.46,0,0,0-.58.58c-1.68,2.9-7,4-10.28,2.7a5.62,5.62,0,0,1-3.38-5,4.17,4.17,0,0,1,.35-1.43,1,1,0,0,1,1.72-.32,4,4,0,0,1,.51.64c2.21,3.14,7.05,3.57,10,1.06a8.46,8.46,0,0,0,2.41-3,6.56,6.56,0,0,0-.79-6.88c-3.2-4.42-8.35-4.75-12.25-3.09-1,.41-1.23,1.1-.79,2.33a11.23,11.23,0,0,0,2.56,4.18,5.84,5.84,0,0,0,3.81,1.77,2,2,0,0,0,2.24-1,2.56,2.56,0,0,0-.46-2.76,3.37,3.37,0,0,0-1.14-.42,6.84,6.84,0,0,0-.08.9c.07,1.1-.4,1.77-1.34,1.88a2.07,2.07,0,0,1-2.21-1.78,3.28,3.28,0,0,1,2.93-3.39,4.35,4.35,0,0,1,4.73,4.39,4.06,4.06,0,0,1-4.29,4.38,7.87,7.87,0,0,1-6.51-3.33,32.75,32.75,0,0,1-2.07-3.54c-.48-.87-.67-.94-1.21-.14a9.13,9.13,0,0,0-1.26,8.91,14.94,14.94,0,0,0,5.65,7.1,15.31,15.31,0,0,0,6.85,2.64c2.07.25,4.16.3,6.25.44a8,8,0,0,0,3.81-.88,3.2,3.2,0,0,0,1.81-2,1.82,1.82,0,0,0,0-.61,1.65,1.65,0,0,0-.56.14c-.22.15-.37.41-.58.58a1.93,1.93,0,0,1-2.43.21,2.38,2.38,0,0,1-.59-2.57,3.42,3.42,0,0,1,.78-1,3.73,3.73,0,0,1,4-.1,3.09,3.09,0,0,1,1.66,3.3A4.88,4.88,0,0,1,79,473.36c-.5.23-1,.43-1.5.7a12.05,12.05,0,0,0-1,.72,6.77,6.77,0,0,0,1,.69c1.07.44,2.15.84,3.24,1.23a33.1,33.1,0,0,1,7.84,4.15A10.55,10.55,0,0,1,91.68,485a3.58,3.58,0,0,1,.12,2.89,3.73,3.73,0,0,1-5.09,2.24,2.45,2.45,0,0,1-1.49-2.35,1.94,1.94,0,0,1,1.62-1.64,2.22,2.22,0,0,1,1.8.64,1.78,1.78,0,0,0,.72.18c0-.26.21-.54.15-.77a6.1,6.1,0,0,0-2.44-3.61,43.27,43.27,0,0,0-5.57-3.16,72.51,72.51,0,0,0-11.09-3.7,60.57,60.57,0,0,1-8.38-3A16,16,0,0,1,55.78,468a15.7,15.7,0,0,1-3.55-8,11.07,11.07,0,0,1,1.65-6.78,3.89,3.89,0,0,1,.63-1,3.73,3.73,0,0,0,.62-5c-.38-.66-.65-1.24-1.44-1.39a1.56,1.56,0,0,1-.61-.24c-1.43-1.15-2.62-.54-3.8.44a13.52,13.52,0,0,1-4.38,2.22,9.58,9.58,0,0,1-7.51-.69c-.3-.14-.56-.35-.86-.48-4.72-2-7.26-5.91-8.82-10.51-1.42-4.16-2.53-8.42-3.89-12.6a41.92,41.92,0,0,0-4.49-10.05,7.61,7.61,0,0,0-3.82-3,1.31,1.31,0,0,0-.64-.12c-.39.05-.61.29-.39.68s.5.59.67.93a2,2,0,0,1-.67,2.49,2,2,0,0,1-2.42-.31,4,4,0,0,1,.29-5.34,4.24,4.24,0,0,1,4.8-.29,12.77,12.77,0,0,1,4.13,3.95,45.89,45.89,0,0,1,4.25,9.26,19.91,19.91,0,0,0,1,2,17.2,17.2,0,0,0,1.06-1.92,5.29,5.29,0,0,1,3.78-3.36,2.88,2.88,0,0,1,3.54,1.35,3.82,3.82,0,0,1-.06,4.47,2.32,2.32,0,0,1-3.26.25c-.77-.67-.72-1.7.15-2.77a5.15,5.15,0,0,0,.43-.5,1.58,1.58,0,0,0,.14-.45c-.2-.05-.42-.19-.59-.14a3,3,0,0,0-2,1.79A9.6,9.6,0,0,0,28.77,428.05Zm40,5.73c0-1.32-.65-2-1.94-1.77a2.69,2.69,0,0,0-1.09.35c-1.38,1-3,1.77-4,3a60.67,60.67,0,0,0-4.09,6.53c-.26.43-.5,1,0,1.32a1.57,1.57,0,0,0,1.34,0c1.35-.71,2.63-1.57,4-2.3a12.88,12.88,0,0,0,4.44-4.05A5.78,5.78,0,0,0,68.8,433.78Z"/><path d="M471.11,72.93c-.2-2.7-.17-5.69-1.14-8.55a14.93,14.93,0,0,0-9.77-9.94c-2.95-1-5.64-.16-8.11,1.54-.7.48-.65.74.08,1.16,1.18.69,2.4,1.33,3.54,2.09a7.79,7.79,0,0,1,3.13,4.7,7.56,7.56,0,0,1,.25,1.95,4.09,4.09,0,0,1-4.21,4.32,4.4,4.4,0,0,1-4.47-4.84,3.44,3.44,0,0,1,2.9-2.93,2,2,0,0,1,2.16,2.43c-.18.86-.77,1.2-1.87,1.16a3.68,3.68,0,0,0-.85.14,2.85,2.85,0,0,0,.25.9,2.4,2.4,0,0,0,2.67.77,1.89,1.89,0,0,0,1.27-2.08,6.13,6.13,0,0,0-1.34-3.65A9.91,9.91,0,0,0,451,59.05c-1.32-.46-2-.13-2.43,1.17-1.39,3.81-1.05,8.49,2.72,11.58,3,2.47,6.13,2.43,9.1.19a7.78,7.78,0,0,0,1.68-10.11,8.49,8.49,0,0,0-1.52-1.47,6.94,6.94,0,0,1-.86-.74.88.88,0,0,1,.28-1.4,3.73,3.73,0,0,1,1.73-.46,5.38,5.38,0,0,1,4.62,2.72c1.88,3.54.58,9-2.11,10.86a7.51,7.51,0,0,0-1.14,1.18,10,10,0,0,1-11.8,2.22,9.61,9.61,0,0,1-2.83-2.46,12.65,12.65,0,0,1-2.66-11c.16-.81.38-1.6.6-2.4.13-.46.18-.87-.35-1.11a.93.93,0,0,0-1.29.35c-.15.23-.25.49-.39.73-1.33,2.33-2.52,4.77-4.06,7a16.12,16.12,0,0,1-6.4,5.06c-1.51.72-2.94-.11-4.1-1a4.17,4.17,0,0,1-.82-4.84c1.57-2.74,3.33-5.31,6.18-6.91,1.81-1,3.59-2.12,5.38-3.18.29-.16.69-.27.81-.52a1.86,1.86,0,0,0,.16-1.2c-.12-.5-.57-.36-1-.24a19.36,19.36,0,0,1-5.51.89c-4.18,0-7.35-1.92-10-5a2.86,2.86,0,0,1-.58-1.17,37.38,37.38,0,0,1-.78-4c-.3-2.71,1-4.88,2.61-6.88a25.78,25.78,0,0,1,2-2.21,7.38,7.38,0,0,1,1.82-1.4,9.9,9.9,0,0,1,7.2-.87c2.68.74,3.59,2.42,4.16,4.82a2.78,2.78,0,0,1-.26,1.59c-.18.4-.58.93-.93,1a1.5,1.5,0,0,1-1.19-.68,5.52,5.52,0,0,0-3.73-2.74,7.21,7.21,0,0,0-4.85.33c-3.13,1.33-5.38,5-4.43,8.4A8.54,8.54,0,0,0,431.73,51a10.38,10.38,0,0,0,7.74-.29,1.38,1.38,0,0,0,1-1.5c-.15-3-3.53-6.52-6.51-6.77a2.11,2.11,0,0,0-2.43,1.24,2.45,2.45,0,0,0,.89,2.78,2.28,2.28,0,0,0,.89.18,2.49,2.49,0,0,0,.08-.76,1.48,1.48,0,0,1,.68-1.84,1.86,1.86,0,0,1,2.14.31,2.74,2.74,0,0,1,.67,1.44A3.24,3.24,0,0,1,434,49a4.33,4.33,0,0,1-4.71-4.42,4,4,0,0,1,4.27-4.37,8,8,0,0,1,6.81,3.7c.67,1,1.19,2.1,1.79,3.15.43.76.72.83,1.16.16,1.68-2.59,2.56-5.37,1.43-8.43a15.17,15.17,0,0,0-7.49-8.61,17.49,17.49,0,0,0-6-1.7c-1.58-.18-3.17-.26-4.76-.36a8.61,8.61,0,0,0-4.62,1,4.31,4.31,0,0,0-1.28,1c-.32.39-.79.89-.28,1.42.06.07.69-.34,1-.58,1-.71,1.86-.73,2.52,0a2.44,2.44,0,0,1,.24,2.9A2.93,2.93,0,0,1,421.34,35c-2.84-.14-4.23-2.29-3.23-4.93a5.63,5.63,0,0,1,3.63-3.32,12.9,12.9,0,0,0,1.43-.74,8,8,0,0,0-1.45-.88,46,46,0,0,1-9.15-4.09,11.69,11.69,0,0,1-4.33-4.19,6.88,6.88,0,0,1-.84-2.29,3.66,3.66,0,0,1,1.47-3.49,4,4,0,0,1,3.94-.29,2.14,2.14,0,0,1,1.35,2.08,1.92,1.92,0,0,1-1.33,1.71,1.88,1.88,0,0,1-2-.48,2.72,2.72,0,0,0-.83-.29c0,.31-.22.66-.13.91a7.49,7.49,0,0,0,3,4,39.42,39.42,0,0,0,9.58,4.35c3.08,1,6.25,1.71,9.31,2.76a34.8,34.8,0,0,1,8.44,3.64,17.25,17.25,0,0,1,6.6,8.78c1.34,3.65.26,6.91-1.63,10a.45.45,0,0,1-.1.13c-2.1,1.75-1.22,3.67-.29,5.57a1.77,1.77,0,0,0,.73.61c.23.13.55.12.77.27,1.66,1.21,3,.51,4.42-.55a17,17,0,0,1,4.08-2.06,9.12,9.12,0,0,1,7.21.54c.4.18.77.44,1.17.6,4.52,1.85,7,5.55,8.68,9.84,1.4,3.53,2.36,7.19,3.42,10.84a42.7,42.7,0,0,0,5.16,12.08,7.19,7.19,0,0,0,3.56,3,3.28,3.28,0,0,0,.94.25.47.47,0,0,0,.46-.76c-.17-.28-.45-.49-.61-.77a1.91,1.91,0,0,1,.3-2.28,1.77,1.77,0,0,1,2.26-.31,2.69,2.69,0,0,1,1.1,1.17c.46,1.39.62,2.88-.43,4.07a3.61,3.61,0,0,1-4,1.21,9.05,9.05,0,0,1-4.51-3.18,29.18,29.18,0,0,1-4.06-7.51q-.81-2.25-1.66-4.48c-.07-.19-.27-.32-.41-.48-.15.14-.37.25-.45.43-.36.74-.66,1.51-1,2.25a4.75,4.75,0,0,1-4,2.77,3,3,0,0,1-3.23-2,3.53,3.53,0,0,1,.36-3.88,2.29,2.29,0,0,1,2.24-.72,1.74,1.74,0,0,1,1.21,2.86c-.09.13-.21.26-.3.39l-.66,1A4.16,4.16,0,0,0,468.9,79c1.39-.86,1.73-2.35,2.05-3.79A16.7,16.7,0,0,0,471.11,72.93ZM433,68.64a8.29,8.29,0,0,0,1.59-.65,13,13,0,0,0,4.91-4.74c.47-.87,1.07-1.66,1.56-2.52a19.37,19.37,0,0,0,1.24-2.5c.31-.8-.2-1.3-1-1.09a3.83,3.83,0,0,0-1.06.46c-1.17.71-2.28,1.53-3.49,2.15A12.51,12.51,0,0,0,432.19,64a5.21,5.21,0,0,0-1.25,3C431,68.1,431.45,68.61,433,68.64Z"/><path d="M27.4,71.06a10,10,0,0,0,.79,6A3.16,3.16,0,0,0,30,78.8a2.5,2.5,0,0,0,.77,0,3.64,3.64,0,0,0-.24-.68,5.12,5.12,0,0,0-.44-.49c-.75-1-.78-1.81-.08-2.52a2.36,2.36,0,0,1,3-.14A3.25,3.25,0,0,1,34,78.57,3.16,3.16,0,0,1,29.54,81a5.29,5.29,0,0,1-3.42-3.32c-.27-.64-.62-1.25-.93-1.88-.82.38-.82,1.23-1.05,1.92A39.44,39.44,0,0,1,19.2,88.07a10.75,10.75,0,0,1-3.92,3.18,3.91,3.91,0,0,1-4.58-.72A3.94,3.94,0,0,1,10,86.35a2.12,2.12,0,0,1,2-1.54,1.94,1.94,0,0,1,1.89,1.34,2,2,0,0,1-.57,2.11c-.16.17-.16.47-.23.72.29.06.63.25.87.17A7.6,7.6,0,0,0,18,86c2.46-3.85,3.85-8.12,5.17-12.44,1.12-3.67,2.16-7.37,3.34-11a16.59,16.59,0,0,1,5-7.45,14.54,14.54,0,0,1,8.62-3.76,11.84,11.84,0,0,1,7,2.19c.6.39,1.18.81,1.75,1.25a1.83,1.83,0,0,0,1.83.14,4.81,4.81,0,0,0,3.54-3.64,2.15,2.15,0,0,0-.24-2,39.39,39.39,0,0,1-2.44-4.09,9.82,9.82,0,0,1,.14-8.76c.44-1,.95-1.87,1.37-2.82.9-2,2.65-3.23,4.32-4.44a24.24,24.24,0,0,1,4.77-2.54,101.13,101.13,0,0,1,10.67-3.42A41.51,41.51,0,0,0,84.71,18a7.21,7.21,0,0,0,3-3.78,2,2,0,0,0,.15-.79c0-.39-.3-.58-.7-.38-.14.07-.24.22-.38.31-1.27.84-2.49.64-3.08-.51a2.2,2.2,0,0,1,1.18-2.88,3.91,3.91,0,0,1,3.94.32,3.58,3.58,0,0,1,1.43,3.8,8.94,8.94,0,0,1-3.43,5.08,32.17,32.17,0,0,1-8.75,4.52c-1,.34-2,.72-2.93,1.12-.17.07-.29.29-.43.44.15.14.28.34.46.42.74.36,1.51.67,2.25,1a4.87,4.87,0,0,1,2.71,4.07A3.09,3.09,0,0,1,78.08,34a3.43,3.43,0,0,1-4-.56A2.45,2.45,0,0,1,74,30.34a1.44,1.44,0,0,1,1.76-.54,8.66,8.66,0,0,1,1.35.88,6.65,6.65,0,0,0,.77.34c0-.26.08-.59,0-.78-.4-.57-.77-1.31-1.35-1.58a9.5,9.5,0,0,0-3.56-1.13,30.55,30.55,0,0,0-9.32.9,14.75,14.75,0,0,0-8,5.47A15.38,15.38,0,0,0,53,39.24c-.74,2.7.25,5.2,1.81,7.45.42.6.67.54,1-.12.64-1.14,1.22-2.34,2-3.42a7.87,7.87,0,0,1,6.7-3.59,4,4,0,0,1,4.26,4.23,4.4,4.4,0,0,1-4.54,4.6,3.49,3.49,0,0,1-3.11-3.12,2.5,2.5,0,0,1,.26-1.1,2,2,0,0,1,2.27-.93c.82.23,1.08.76,1,2a5,5,0,0,0,.07.76,2.82,2.82,0,0,0,.9-.19,2.4,2.4,0,0,0,.93-2.62,1.94,1.94,0,0,0-2.14-1.42,5.85,5.85,0,0,0-3.64,1.36,9.87,9.87,0,0,0-2.89,4.34c-.61,1.6-.23,2.36,1.41,2.87,4,1.25,7.78.72,10.78-2.45a7.37,7.37,0,0,0-4.39-12.39,7.83,7.83,0,0,0-5.19,1.16c-.61.4-1,1.17-1.51,1.69-.37.35-.91.84-1.3.78s-.79-.7-.95-1.16c-.67-1.92.61-4.65,2.6-5.72,3-1.61,8.22-.76,10.36,1.84.41.5.89,1,1.35,1.43C75,39.53,75,42.83,73.53,47.29c-.49,1.51-1.8,2.46-3,3.42a12.38,12.38,0,0,1-10.61,2.22c-.75-.15-1.49-.4-2.24-.53a1.25,1.25,0,0,0-1,.21.9.9,0,0,0,.17,1.32c.35.26.78.4,1.15.63,2.26,1.35,4.64,2.55,6.74,4.11a16.74,16.74,0,0,1,4.82,6.19c.75,1.5-.23,4.08-1.71,4.87a4.15,4.15,0,0,1-4.64-.08c-2.65-1.74-5.1-3.63-6.62-6.5-.9-1.7-1.88-3.35-2.83-5-.16-.28-.31-.68-.57-.77a2,2,0,0,0-1.21,0c-.12,0-.18.57-.14.86a51.4,51.4,0,0,1,.88,5.18c.29,4.35-1.61,7.81-4.91,10.45a9.55,9.55,0,0,1-3.53,1.23c-3.3.84-6-.4-8.48-2.5-.79-.67-1.56-1.37-2.31-2.09-2.32-2.24-3.12-7.34-1.63-10.19A5.46,5.46,0,0,1,36,57.38a4.27,4.27,0,0,1,2.07.34c.85.32.92,1,.3,1.7a4.06,4.06,0,0,1-.51.42,7,7,0,0,0-1.09,10.28c2.56,2.95,5,3.7,8.45,2.3a8.32,8.32,0,0,0,4.79-5.76,10.64,10.64,0,0,0-.28-6.8c-.57-1.5-1.3-2-2.76-1.26a22,22,0,0,0-3.85,2.48,5.34,5.34,0,0,0-1.76,3.63,3.22,3.22,0,0,0,0,.82,1.91,1.91,0,0,0,1.54,1.88,2.4,2.4,0,0,0,2.55-1.09,1,1,0,0,0,0-.75c0-.1-.4-.18-.57-.12A1.46,1.46,0,0,1,43,64.89a2,2,0,0,1,.15-2.17,1.91,1.91,0,0,1,2.06-.7A3.24,3.24,0,0,1,48,65.27a4.44,4.44,0,0,1-4.62,4.38,4.07,4.07,0,0,1-4.09-4.42,7.91,7.91,0,0,1,3.43-6.61c1-.73,2.16-1.31,3.25-1.94.85-.5.9-.76.14-1.26-3-2-6.06-2.55-9.49-.91a15.64,15.64,0,0,0-7.37,7.24,18.4,18.4,0,0,0-1.66,6.68C27.45,69.25,27.45,70.08,27.4,71.06Zm40-5.15a6.75,6.75,0,0,0-.55-1.39,13.63,13.63,0,0,0-4.46-4.93c-1-.59-1.92-1.26-2.91-1.83a17.61,17.61,0,0,0-2.5-1.24c-.71-.26-1.2.25-1,1a2.61,2.61,0,0,0,.34.74,51.41,51.41,0,0,0,3.82,6.11,21,21,0,0,0,4.25,3.28,2.59,2.59,0,0,0,1.25.34C66.79,68.07,67.4,67.46,67.36,65.91Z"/><path d="M472.58,426.92a8.77,8.77,0,0,0-1-4.47,2.89,2.89,0,0,0-2-1.74.52.52,0,0,0-.44.13.51.51,0,0,0,0,.43c.16.22.38.39.56.6a1.91,1.91,0,0,1,.2,2.54,2.43,2.43,0,0,1-2.74.43,2.72,2.72,0,0,1-.65-.51,3.44,3.44,0,0,1-.41-3.86,3,3,0,0,1,3-2.1,4.67,4.67,0,0,1,4.12,2.59c.42.83.75,1.71,1.15,2.55.19.41.5.46.71.05a12.5,12.5,0,0,0,.61-1.53,40,40,0,0,1,5.06-10.51,10.67,10.67,0,0,1,4-3.08,4.24,4.24,0,0,1,2.4-.28,3.73,3.73,0,0,1,2.68,5.46,2.15,2.15,0,0,1-2.91,1,2,2,0,0,1-.44-3c0-.05.1-.07.11-.12.08-.28.15-.56.22-.84-.31-.05-.69-.23-.92-.11a14.82,14.82,0,0,0-2.65,1.6,7.82,7.82,0,0,0-1.52,1.93c-2.8,4.36-4.26,9.24-5.65,14.17-.93,3.28-2.05,6.5-3.2,9.7a14,14,0,0,1-4.32,6.16c-4.76,3.83-9.26,5.41-14.4,2.75A25,25,0,0,1,451,444.8a2.24,2.24,0,0,0-2.12-.19c-2.07.46-2.9,1.89-3.5,3.68a1.63,1.63,0,0,0,.17,1.68c.46.62.91,1.25,1.31,1.9,2.3,3.77,3,7.63.73,11.69-.4.72-.64,1.54-1.1,2.21a13.56,13.56,0,0,1-2.29,2.75,19.22,19.22,0,0,1-4.56,3.21,77.22,77.22,0,0,1-9.62,3.38c-5.24,1.49-10.44,3-15.13,5.94a7.27,7.27,0,0,0-3.15,3.68,3.84,3.84,0,0,0-.25.94c0,.48.33.7.73.44s.5-.45.78-.6a2,2,0,0,1,2.41.47,1.94,1.94,0,0,1,0,2.44c-1.12,1.48-4.32,1.45-5.44-.05a4.47,4.47,0,0,1-.2-5.11,13,13,0,0,1,4.39-4.35,41.78,41.78,0,0,1,8.4-3.8,4.17,4.17,0,0,0,.77-.28c.46-.25.9-.54,1.35-.81a8.59,8.59,0,0,0-1.35-.83c-1.76-.71-3.2-1.7-3.73-3.66-.35-1.28-.44-2.51.66-3.5a4,4,0,0,1,4-1,2.38,2.38,0,0,1,1.62,3.27,1.66,1.66,0,0,1-2.65.85c-.14-.1-.25-.23-.38-.32-.34-.22-.68-.42-1-.63a3.72,3.72,0,0,0,.23,1.37,4.76,4.76,0,0,0,3.94,2.07c4.52.23,9,.12,13.18-2.1a14.22,14.22,0,0,0,7.45-9.75c.62-2.72-.4-5.08-1.89-7.28-.38-.57-.69-.34-1,.15a39.19,39.19,0,0,1-2,3.57,7.81,7.81,0,0,1-6.59,3.47,4.14,4.14,0,0,1-4.37-4.32,4.4,4.4,0,0,1,4.71-4.43,3.34,3.34,0,0,1,3,3,1.85,1.85,0,0,1-1.51,2.06,1.49,1.49,0,0,1-2-1.61c0-.22.08-.44.09-.66,0-.53-.25-.71-.73-.48a2.52,2.52,0,0,0-1.24,2.8,2,2,0,0,0,2.28,1.46,5.79,5.79,0,0,0,3.62-1.42,10.59,10.59,0,0,0,2.87-4.37c.57-1.49.16-2.2-1.4-2.72a10.06,10.06,0,0,0-10.21,1.74,7.39,7.39,0,0,0-1.33,10.07A7.8,7.8,0,0,0,439,462.79a8,8,0,0,0,1.33-1.44,6.16,6.16,0,0,1,.71-.89c.57-.49,1.22-.41,1.48.26a4.84,4.84,0,0,1,.43,2.22,5.62,5.62,0,0,1-5,4.91,10.73,10.73,0,0,1-6.25-1.09,4.1,4.1,0,0,1-1.21-.84c-1.77-1.87-3.68-3.63-4.67-6.1a6.72,6.72,0,0,1-.53-4c0-.11,0-.22.05-.33a8.3,8.3,0,0,1,3.2-6.42,12.65,12.65,0,0,1,7.84-3,21,21,0,0,1,5.36.82c.53.14,1.08.49,1.38-.29s-.12-1.1-.71-1.44c-2.19-1.26-4.38-2.51-6.52-3.85a16.3,16.3,0,0,1-5.69-6.91c-.76-1.54,0-3.05,1-4.27a4,4,0,0,1,4.7-.81c2.68,1.64,5.27,3.4,6.84,6.27,1,1.92,2.14,3.83,3.22,5.74.13.24.24.6.44.67a2.25,2.25,0,0,0,1.2.13c.47-.12.42-.54.29-.95a17.13,17.13,0,0,1-.77-7.32,11.32,11.32,0,0,1,4.8-8.14,9.24,9.24,0,0,1,8.83-.84,14.81,14.81,0,0,1,6.06,5,9,9,0,0,1,1.16,9.22c-.78,2-2.52,2.81-4.52,3.11a3.19,3.19,0,0,1-1.45-.22c-1.2-.42-1.35-1.25-.41-2.07a1.64,1.64,0,0,1,.26-.2,7.17,7.17,0,0,0,2.11-9,7.67,7.67,0,0,0-5.37-4.22,6.84,6.84,0,0,0-5.46,1.36c-4.27,3.3-4.45,8.46-2.91,12.37a1.3,1.3,0,0,0,1.41.88c3.2,0,6.86-3.8,6.77-7a1.87,1.87,0,0,0-1.53-2.05,2.42,2.42,0,0,0-2.55,1.1.94.94,0,0,0-.08.76c.07.13.47.14.71.11,1.36-.12,2,.31,2.06,1.43a2,2,0,0,1-2,2.1,3.43,3.43,0,0,1-3.14-3.23,4.43,4.43,0,0,1,4.83-4.48,4.16,4.16,0,0,1,3.93,4.74,8.29,8.29,0,0,1-3.76,6.47c-1,.63-2,1.16-3,1.72s-.94.76-.05,1.35a9,9,0,0,0,9.05,1,15,15,0,0,0,7.91-7.77,18.32,18.32,0,0,0,1.35-4.73C472.39,430.77,472.43,428.83,472.58,426.92Zm-40.2,6.4a7.37,7.37,0,0,0,.6,1.55,13.16,13.16,0,0,0,4.5,4.93c.95.54,1.83,1.21,2.77,1.78a13.35,13.35,0,0,0,2.19,1.13,1.47,1.47,0,0,0,1.18-.12c.18-.11.14-.7.05-1a5.32,5.32,0,0,0-.62-1.35c-.94-1.54-1.86-3.11-2.88-4.6a13,13,0,0,0-4.64-3.86,3.44,3.44,0,0,0-1.41-.41C433,431.25,432.36,431.89,432.38,433.32Z"/><path d="M247.22,470H389.9a12.59,12.59,0,0,1,2.29.21,1,1,0,0,1,.87,1,1,1,0,0,1-1,1,10.82,10.82,0,0,1-1.8.12c-12.1.05-24.2.12-36.29.12q-62.19,0-124.37,0H104a7.33,7.33,0,0,1-1.63-.12,1.07,1.07,0,0,1-.92-1.19,1.13,1.13,0,0,1,1-1.13,12.18,12.18,0,0,1,1.81-.07h143Z"/><path d="M467.48,251.28q0-49.25,0-98.47c0-11.87-.08-23.75-.09-35.62a11.12,11.12,0,0,1,.44-2.74,1.05,1.05,0,0,1,.77-.67,1.09,1.09,0,0,1,.74.71,17.08,17.08,0,0,1,.39,3.09q.11,25.72.16,51.46.11,53.52.19,107c0,11.43.08,22.87.1,34.3q.07,29.69.11,59.38c0,5.11,0,10.22,0,15.33a7.26,7.26,0,0,1-.05,1.32c-.14.85-.63,1.31-1.27,1.22s-1-.62-1-1.28c0-.39,0-.77,0-1.16,0-3.3,0-6.59,0-9.89q-.11-30.68-.2-61.35,0-31.33,0-62.67Z"/><path d="M246.84,25.06H387.21c.66,0,1.32,0,2,0a1.11,1.11,0,0,1,1.12,1c.1.67-.34,1-.93,1.15a8,8,0,0,1-1.47.13H113.79c-3,0-6.05-.1-9.07-.2-1.16,0-1.61-.37-1.6-1s.6-1.1,1.71-1.12c.94,0,1.87,0,2.81,0Z"/><path d="M472.76,252.84q0-44.71,0-89.41c0-16.66-.1-33.32-.1-50,0-1.9.33-3.81.51-5.71a.85.85,0,0,1,.8-.88,1,1,0,0,1,1.13,1,30.54,30.54,0,0,1,0,3.45c0,.65-.21,1.29-.21,1.94q0,47.36.13,94.69.09,50.22.22,100.45.09,33,.2,66c0,6.49-.09,13-.14,19.46a2.36,2.36,0,0,1-.07,1,1.67,1.67,0,0,1-.86.82.87.87,0,0,1-1.1-.73,8.16,8.16,0,0,1-.08-1.48q0-6.27,0-12.54-.15-33.81-.28-67.62c-.05-20.13,0-40.25,0-60.37Z"/><path d="M34,250.77q0,37.12,0,74.23c0,8.3.08,16.6.09,24.9q0,18.39,0,36.78A6.32,6.32,0,0,1,34,388a1,1,0,0,1-1.21.86,1,1,0,0,1-1-.93c-.05-.43,0-.88-.05-1.32q-.06-22-.13-44c0-4.46-.08-8.91-.07-13.36,0-15.56.08-31.12.06-46.67q-.11-78.44-.27-156.86c0-3.63,0-7.26,0-10.89a3.71,3.71,0,0,1,.14-1.46,1.43,1.43,0,0,1,1-.72,1.09,1.09,0,0,1,.91.52,4.87,4.87,0,0,1,.37,1.73c0,2,0,4.07,0,6.11q.08,57.81.13,115.62c0,4.73,0,9.46,0,14.18Z"/><path d="M26,250.12c0-14.07,0-28.14,0-42.22q-.09-41.57-.2-83.12c0-5.66.06-11.33.1-17a7.38,7.38,0,0,1,.05-1.15c.12-.87.55-1.36,1.16-1.37s1.14.46,1.2,1.32a11.71,11.71,0,0,1,0,3.45,22.21,22.21,0,0,0-.28,5.07c0,1.87.09,3.74.09,5.61q.09,67.22.17,134.42.06,34.88.18,69.76c0,8.25.1,16.49.1,24.74q0,20.87,0,41.73c0,.77,0,1.54-.09,2.3a1,1,0,0,1-1.07,1c-.71,0-1-.44-1-1.07-.05-1.15-.12-2.3-.13-3.46q0-15.92,0-31.83c0-9.51-.12-19-.13-28.53q0-39.82,0-79.66Z"/><path d="M247.54,33H112.27a6.52,6.52,0,0,1-1,0,1.07,1.07,0,0,1-1-1.08,1,1,0,0,1,1-1.12,6.51,6.51,0,0,1,1,0H373.68c3,0,6.05,0,9.08,0a4.83,4.83,0,0,1,1.62.15c.41.15.7.6,1,.92a5.46,5.46,0,0,1-1,1,2.54,2.54,0,0,1-1.12.18c-.66,0-1.32,0-2,0H247.54Z"/><path d="M249,463.62H383.31c.49,0,1,0,1.48,0,.68.05,1.2.4,1.19,1.11s-.55,1.05-1.22,1.1c-.44,0-.88,0-1.32,0H114.08a8.16,8.16,0,0,1-1.31-.05,1.07,1.07,0,0,1-1-1.11,1,1,0,0,1,1-1.08,11,11,0,0,1,1.15,0Z"/><path d="M417.43,475.39c-.25-.05-.47-.07-.68-.12-.81-.24-1.66-.54-1.79-1.48a2.16,2.16,0,0,1,1-2.13,2.39,2.39,0,0,1,2.63,0,4.28,4.28,0,0,1,.87,1,1.46,1.46,0,0,1-.79,2.36A11.51,11.51,0,0,1,417.43,475.39Z"/><path d="M82,23.81a2.72,2.72,0,0,1,2.47,1.32,2.13,2.13,0,0,1-.85,2.32,2.55,2.55,0,0,1-2.78,0,3.88,3.88,0,0,1-.67-.73c-.86-1.2-.53-2.2.87-2.65A9.79,9.79,0,0,1,82,23.81Z"/><path d="M474.72,83.77c0,1.24-.94,2.34-1.9,2.3a2.36,2.36,0,0,1-2.12-2.5,2.71,2.71,0,0,1,2.32-2.4C474,81.15,474.75,82.27,474.72,83.77Z"/><path d="M83.85,476.15c-1.55,0-2.56-.68-2.54-1.74a2.64,2.64,0,0,1,2.4-2.27,2.25,2.25,0,0,1,2.44,2.14A2.12,2.12,0,0,1,83.85,476.15Z"/><path d="M415.9,24.7c1.56.08,2.36.72,2.25,1.79a2.57,2.57,0,0,1-2.65,2.18,2.29,2.29,0,0,1-2.18-2.25C413.33,25.41,414.51,24.62,415.9,24.7Z"/><path d="M27.83,83.77A4.67,4.67,0,0,1,27,85.1a1.68,1.68,0,0,1-2.95-.81,3.94,3.94,0,0,1-.15-1.6c.16-1.28.64-1.84,1.47-1.89a2.71,2.71,0,0,1,2.39,1.93C27.8,83,27.79,83.17,27.83,83.77Z"/><path d="M476.15,416.27c0,1.48-.75,2.56-1.78,2.52a2.6,2.6,0,0,1-2.23-2.43,2,2,0,1,1,4-.09Z"/><path d="M29.17,416.6a2.66,2.66,0,0,1-2.24,2.6c-1,0-1.74-1.05-1.73-2.56a2.21,2.21,0,0,1,1.69-2.3A2.19,2.19,0,0,1,29.17,416.6Z"/><path d="M49.39,450a1.34,1.34,0,0,1,1.44,1.76,6.86,6.86,0,0,1-1.36,2,1.61,1.61,0,0,1-2.34,0,1.58,1.58,0,0,1,0-2.22A4.14,4.14,0,0,1,49.39,450Z"/><path d="M49.42,48.49c-.05,1-.9,1.72-1.72,1.36a7,7,0,0,1-2.19-1.59,1.56,1.56,0,0,1,.21-2.2,1.58,1.58,0,0,1,2.21.11A4.79,4.79,0,0,1,49.42,48.49Z"/><path d="M454.49,451.93a1.58,1.58,0,0,1-2.35,1.59,4.08,4.08,0,0,1-1.82-2.44,1.33,1.33,0,0,1,1.51-1.61,4.19,4.19,0,0,1,2.53,1.93A1.92,1.92,0,0,1,454.49,451.93Z"/><path d="M453,48.16a4.26,4.26,0,0,1-.63,1.05,8.36,8.36,0,0,1-1.61,1.14,1.2,1.2,0,0,1-1.52-.18,1.17,1.17,0,0,1-.36-1.49,7.37,7.37,0,0,1,1.69-2.16C451.6,45.74,453,46.62,453,48.16Z"/><path d="M66.59,55.25a19,19,0,0,1,2,.48c.87.3,1.23.9,1.08,1.59a1.35,1.35,0,0,1-1.65,1,9.53,9.53,0,0,1-2.54-1,1.06,1.06,0,0,1-.6-1.36C65.16,55.24,65.76,55.19,66.59,55.25Z"/><path d="M445.13,432.64c-.22.33-.41.88-.8,1.14-.57.37-1.1-.1-1.34-.57a10.93,10.93,0,0,1-1-2.55,1.37,1.37,0,0,1,.95-1.68c.67-.17,1.3.2,1.59,1.07S444.9,431.64,445.13,432.64Z"/><path d="M54.62,66.81c.26-.39.44-1,.82-1.18.54-.31,1,.13,1.38.57a4.2,4.2,0,0,1,1,2.86,1.24,1.24,0,0,1-1,1.35,1.21,1.21,0,0,1-1.45-.78C55.08,68.77,54.91,67.86,54.62,66.81Z"/><path d="M430.13,59c-.78,0-1.38-.21-1.61-.95a1.34,1.34,0,0,1,1-1.63,11.87,11.87,0,0,1,2.56-.52,1.29,1.29,0,0,1,1.07.55,1.72,1.72,0,0,1-.33,1.31A4.1,4.1,0,0,1,430.13,59Z"/><path d="M59.5,431.16a24.53,24.53,0,0,1-1.34,2.72,1.5,1.5,0,0,1-1.25.47c-.64-.09-.78-.74-.7-1.29a14.5,14.5,0,0,1,.58-2.53,1.25,1.25,0,0,1,1.49-1C59.06,429.76,59.22,430.39,59.5,431.16Z"/><path d="M67.65,444.92c-.42-.25-.93-.41-1.17-.75-.36-.54,0-1.06.44-1.43a4.05,4.05,0,0,1,3-1,1.23,1.23,0,0,1,1.23.92,1.18,1.18,0,0,1-.77,1.46C69.55,444.42,68.64,444.63,67.65,444.92Z"/><path d="M433.54,444.21c-1-.28-1.9-.45-2.71-.76A1.26,1.26,0,0,1,430,442a1.33,1.33,0,0,1,1.49-1,4.41,4.41,0,0,1,2.72,1c.43.38.87.86.53,1.4C434.48,443.8,433.91,444,433.54,444.21Z"/><path d="M443.55,68.09a21,21,0,0,1-.58,2.07,1.21,1.21,0,0,1-1.42.84c-.73-.12-1-.69-1-1.31a3.88,3.88,0,0,1,1.17-3.11c.27-.26.88-.53,1.11-.41s.51.74.71,1.15C443.61,67.45,443.55,67.64,443.55,68.09Z"/><path d="M72.51,72c0,.1,0,.25-.09.3-.36.3-.72.79-1.1.81-.95,0-1.36-.75-1.75-1.47a1,1,0,0,1,.14-1.34,1.16,1.16,0,0,1,.41-.25C71,69.74,72.58,71,72.51,72Z"/><path d="M429,71.49a2.78,2.78,0,0,1-1.92,2.33,1.44,1.44,0,0,1-1.22-1.33c.05-.75,1.35-2,2.1-1.78C428.4,70.81,428.74,71.29,429,71.49Z"/><path d="M428.43,426.23a2.29,2.29,0,0,1,2,2.23,1,1,0,0,1-1.06.84,2.67,2.67,0,0,1-2-1.55A1.2,1.2,0,0,1,428.43,426.23Z"/><path d="M72.69,426.91c.09,0,.31,0,.4.09a3.11,3.11,0,0,1,.8,1.11c.13.57-.92,1.61-1.66,1.82a1,1,0,0,1-1.26-.48,1,1,0,0,1-.13-.3A2.49,2.49,0,0,1,72.69,426.91Z"/></svg>