<svg width="1000" height="1000" viewBox="0 0 1000 1000" fill="none" xmlns="http://www.w3.org/2000/svg">
<path d="M516.862 689.307C513.489 691.494 510.026 696.324 504.193 706.805C501.733 711.271 499.454 714.825 499.181 714.825C498.816 714.825 497.085 711.726 495.171 707.99C491.343 700.334 485.784 694.866 479.495 692.405C475.941 691.038 475.12 691.038 472.204 692.132C466.827 694.228 465.004 697.418 465.004 705.073C465.004 710.906 465.46 712.456 468.832 719.018C472.842 727.038 478.948 736.425 481.409 738.521C482.229 739.159 485.328 743.442 488.427 747.999C491.434 752.556 494.533 756.84 495.353 757.387C498.178 759.665 500.001 758.754 501.095 754.652C502.462 749.913 504.102 747.544 512.76 737.154C527.251 719.655 532.355 709.448 531.808 698.967C531.535 693.317 531.17 692.496 528.527 690.127C524.973 686.937 520.963 686.664 516.862 689.307Z" fill="black"/>
<path d="M285.007 704.891C243.903 707.352 213.555 713.64 194.78 723.574C187.398 727.493 174.821 736.425 174.092 738.157C173.818 738.886 174.183 740.07 174.821 740.891C176.826 743.26 181.109 741.802 188.947 736.151C203.529 725.579 220.116 719.291 243.539 715.281C264.501 711.727 280.176 710.906 315.447 711.453C347.801 711.909 363.385 713.002 411.688 718.015C423.992 719.291 438.301 720.749 443.587 721.205C448.873 721.752 454.432 722.299 455.981 722.481L458.807 722.845L456.711 717.742C455.526 714.825 454.068 712.456 453.43 712.364C452.792 712.273 434.837 710.724 413.511 708.901C355.274 704.071 317.907 702.977 285.007 704.891Z" fill="black"/>
<path d="M804.493 712.182C780.341 721.478 758.833 726.673 732.494 729.772C684.829 735.331 638.622 734.055 563.98 725.306C549.215 723.574 537.094 722.207 537.003 722.299C534.542 726.309 532.902 729.772 533.357 730.136C534.451 731.23 583.848 736.06 609.458 737.61C679.634 741.711 739.238 737.519 784.26 725.215C795.106 722.299 816.158 715.372 820.624 713.276C825.819 710.815 825.637 706.532 820.442 706.714C819.439 706.714 812.24 709.175 804.493 712.182Z" fill="black"/>
<path d="M713.993 242.891C755.097 245.352 785.445 251.64 804.22 261.574C811.602 265.493 824.179 274.425 824.908 276.157C825.182 276.886 824.817 278.07 824.179 278.891C822.174 281.26 817.891 279.802 810.053 274.151C795.471 263.579 778.884 257.291 755.461 253.281C734.499 249.727 718.824 248.906 683.553 249.453C651.199 249.909 635.615 251.002 587.312 256.015C575.008 257.291 560.699 258.749 555.413 259.205C550.127 259.752 544.568 260.299 543.019 260.481L540.193 260.845L462.07 268.51C463.254 265.594 450.57 261.274 453.57 260.845C464.07 259.345 564.163 248.724 585.489 246.901C643.726 242.071 681.093 240.977 713.993 242.891Z" fill="black"/>
<path d="M194.507 250.182C218.659 259.478 240.167 264.673 266.506 267.772C314.171 273.331 360.378 272.055 435.02 263.306C449.785 261.574 461.906 260.207 461.997 260.299C464.458 264.309 466.098 267.772 465.643 268.136C464.549 269.23 415.152 274.06 389.542 275.61C319.366 279.711 259.762 275.519 214.74 263.215C203.894 260.299 182.842 253.372 178.376 251.276C173.181 248.815 173.363 244.532 178.558 244.714C179.561 244.714 186.76 247.175 194.507 250.182Z" fill="black"/>
</svg>
