<svg width="1000" height="1000" viewBox="0 0 1000 1000" fill="none" xmlns="http://www.w3.org/2000/svg">
<g clip-path="url(#clip0_16_2)">
<path d="M498.693 655.29C479.498 657.743 461.036 667.609 444.144 684.313C437.815 690.577 434.363 694.544 429.761 700.965L426.885 704.984L423.642 700.025C417.418 690.421 406.958 681.599 394.615 675.544C386.875 671.733 380.076 669.593 370.453 667.922C364.648 666.878 361.928 666.722 350.16 666.722C338.132 666.722 335.987 666.826 331.594 667.818C318.99 670.637 309.994 675.491 301.992 683.739C295.455 690.473 291.637 697.415 289.231 706.916C287.191 714.902 287.662 727.796 290.329 738.706C291.898 744.97 293.52 748.937 297.913 756.923C306.961 773.523 316.688 786.051 334.209 803.903C348.016 817.945 357.326 825.619 369.145 832.561L374.062 835.484L371.76 835.745C370.505 835.902 364.805 836.633 359.051 837.364C333.268 840.6 324.533 842.636 286.616 853.859C272.913 857.93 271.501 858.4 247.391 865.447C168.104 888.833 129.977 895.723 85.8363 894.888C64.4979 894.47 52.2597 892.957 34.2685 888.52C16.0158 884.03 -2.8122 877.819 -18.6591 871.085C-20.7511 870.197 -22.5293 869.467 -22.6862 869.467C-22.8954 869.467 -23 870.615 -23 872.024V874.53L-20.0189 875.887C-18.3453 876.618 -14.1613 878.341 -10.7095 879.646C30.6598 895.619 76.6315 904.023 111.568 901.935C133.691 900.578 153.408 897.08 175.635 890.555C183.585 888.206 186.566 887.319 220.718 876.618C251.732 866.909 268.468 862.002 287.4 857.2C314.126 850.466 347.912 843.836 371.76 840.757L380.285 839.66L384.312 842.009C393.151 847.177 402.513 850.675 407.377 850.675C412.293 850.675 416.634 847.751 417.889 843.523C418.464 841.644 418.412 841.122 417.575 839.399C416.372 836.998 414.542 835.85 410.044 834.701C407.167 833.971 404.709 833.866 393.674 834.127L380.756 834.388L374.323 830.734C359.941 822.487 351.102 814.97 333.947 796.387C315.642 776.551 306.019 762.509 299.9 746.692C295.036 734.164 295.559 717.773 301.208 704.462C307.327 690.212 317.578 681.494 332.797 677.632C347.179 673.977 368.413 674.656 384.155 679.197C399.061 683.53 414.542 694.492 421.393 705.454L424.06 709.839L421.811 714.38C418.673 720.697 417.157 725.864 417.157 730.615C417.052 738.027 420.138 741.577 426.675 741.577C430.389 741.577 432.271 740.95 434.207 739.123C438.495 735.052 437.501 724.82 431.748 713.389L429.866 709.63L433.265 704.619C443.83 688.907 458.108 675.961 470.817 670.48C482.323 665.521 498.013 663.12 511.088 664.268C522.071 665.26 529.759 667.4 538.284 671.733C544.403 674.865 548.848 678.153 553.346 682.904C570.71 701.33 575.364 720.905 568.722 748.049C560.563 781.249 534.152 821.704 496.444 858.87C490.22 864.977 487.396 867.431 486.193 867.692C482.898 868.37 464.174 874.791 458.003 877.349C444.353 883.039 435.2 888.259 429.918 893.479C426.205 897.133 425.002 899.586 425.368 902.822C425.682 905.798 428.192 908.303 431.382 908.878C439.646 910.235 460.304 897.916 483.421 877.766L490.586 871.502L498.588 869.467C542.468 858.244 587.341 853.754 634.934 855.895C669.347 857.461 702.976 861.323 752.609 869.414C785.558 874.791 805.118 877.401 825.306 879.071C876.455 883.352 909.247 880.533 960.763 867.326C979.486 862.576 989.842 859.34 1018.66 849.317L1023 847.804V845.298C1023 843.941 1022.79 842.845 1022.48 842.845C1022.22 842.845 1019.76 843.628 1017.04 844.619C1005.48 848.795 982.101 855.79 966.098 859.862C914.216 873.068 860.556 876.096 803.34 869.153C790.631 867.64 778.288 865.656 761.186 862.472C705.382 852.032 669.923 848.691 621.859 849.265C598.847 849.526 594.663 849.735 575.573 851.458C552.509 853.546 522.123 858.452 503.975 862.994C501.151 863.725 498.745 864.247 498.693 864.142C498.588 864.038 501.255 861.167 504.602 857.722C544.873 816.379 570.239 773.993 575.573 739.175C576.62 732.442 576.62 719.966 575.573 713.493C573.272 699.19 565.532 683.687 555.961 674.238C545.553 663.955 532.583 657.691 517.416 655.707C511.977 654.977 502.563 654.768 498.693 655.29ZM430.755 723.829C432.01 727.639 432.115 734.373 430.912 735.626C429.604 736.879 425.525 737.192 423.956 736.148C420.713 734.06 421.288 727.483 425.368 718.4L426.989 714.798L428.401 717.878C429.133 719.548 430.179 722.263 430.755 723.829ZM407.167 839.191C413.234 840.182 414.542 841.54 411.874 844.15C409.312 846.76 401.99 845.611 393.203 841.226C391.268 840.287 389.804 839.347 389.961 839.086C390.327 838.512 403.35 838.564 407.167 839.191ZM476.988 876.827C455.336 895.462 433.108 907.886 430.441 902.875C428.244 898.803 441.685 889.25 459.834 881.89C466.11 879.385 477.511 875.261 478.296 875.261C478.609 875.261 477.982 875.939 476.988 876.827Z" fill="black"/>
</g>
<defs>
<clipPath id="clip0_16_2">
<rect width="1000" height="1000" fill="white"/>
</clipPath>
</defs>
</svg>
