<svg width="1000" height="1000" viewBox="0 0 1000 1000" fill="none" xmlns="http://www.w3.org/2000/svg">
<path d="M906.293 684.819C904.202 682.728 891.654 683.693 885.38 686.267C881.841 687.715 877.015 690.771 874.441 693.023L869.776 697.367L870.741 693.345C871.223 691.093 872.189 686.428 872.832 682.888C873.476 679.349 874.923 674.523 876.049 672.11C879.91 664.549 877.98 646.371 873.476 649.105C871.223 650.553 870.097 661.653 871.706 667.445C873.315 672.432 871.062 688.197 867.845 696.884C866.236 701.228 863.823 698.654 863.823 692.862C863.823 685.462 856.745 675.649 851.436 675.649C847.897 675.649 849.184 678.867 855.619 686.267C862.858 694.471 865.11 702.676 861.893 709.11C860.606 711.524 855.458 720.693 850.471 729.702C842.749 743.698 840.336 746.433 834.223 749.811C827.145 753.511 826.823 753.511 821.192 750.776C814.275 747.559 811.54 747.237 817.171 750.454C821.031 752.707 821.031 752.707 814.757 752.063C809.61 751.42 809.127 751.581 812.344 752.707L816.366 754.154L811.54 754.637C807.679 754.959 808.162 755.12 813.953 755.924C818.457 756.568 823.284 756.085 826.662 754.798C829.558 753.672 832.292 753.028 832.614 753.35C833.901 754.637 810.575 772.655 803.014 776.355C798.831 778.446 796.257 780.216 797.062 780.216C798.027 780.216 796.418 782.307 793.844 784.72C791.109 787.133 789.661 788.581 790.466 787.937C793.362 785.685 794.166 786.651 793.683 791.155C793.201 794.211 793.683 793.729 794.809 789.707C795.935 785.524 798.67 782.146 803.657 778.607C807.679 775.711 811.218 773.781 811.701 774.263C812.023 774.585 811.701 776.837 810.736 779.25C807.679 787.294 808.805 790.029 819.584 800.485L830.04 810.781L830.04 805.955C830.04 799.681 825.214 790.351 818.94 784.398C816.205 781.663 813.953 778.285 813.953 776.516C813.953 774.746 821.836 765.737 833.097 754.798C849.506 738.55 853.045 734.046 858.836 722.463C862.375 715.063 865.432 708.306 865.432 707.18C865.432 706.215 868.167 702.193 871.545 698.332L877.658 691.254L890.045 691.093C898.893 690.932 903.076 690.288 904.845 688.358C906.132 687.071 906.776 685.462 906.293 684.819Z" fill="black"/>
<path d="M787.409 861.938C786.927 861.455 786.283 857.433 785.961 852.929C785.157 842.955 779.848 831.372 774.379 827.672C769.231 824.455 768.748 824.937 767.783 833.946C766.496 844.564 768.266 848.907 775.666 854.377C779.366 856.951 783.709 861.133 785.318 863.546C787.248 866.442 788.214 866.925 788.214 865.316C788.214 863.868 787.892 862.42 787.409 861.938Z" fill="black"/>
<path d="M777.596 793.085C770.357 795.659 765.37 796.302 756.844 795.819C749.122 795.337 747.674 795.498 752.018 796.302C757.487 797.267 756.683 797.428 745.583 797.911C738.505 798.233 735.609 798.715 739.148 799.037C742.687 799.359 748.157 800.002 751.213 800.646L756.844 801.611L747.996 804.506C743.17 806.115 740.435 807.402 742.205 807.402C743.813 807.563 752.5 804.667 761.348 801.128C770.196 797.589 777.596 794.854 777.918 795.176C778.722 795.98 756.04 815.607 754.27 815.607C753.305 815.607 752.983 816.25 753.466 816.894C754.753 819.146 729.657 848.103 721.613 853.733C715.178 858.077 712.443 859.042 705.204 859.042C696.195 859.042 683.647 863.868 683.647 867.246C683.647 868.212 684.773 868.533 686.221 868.051C687.669 867.568 692.817 866.925 697.804 866.925C702.791 866.764 705.204 866.442 702.952 865.959C692.817 864.351 691.047 863.707 693.46 862.098C694.587 861.294 698.608 860.812 702.148 860.972L708.582 861.133L702.148 862.098L695.713 863.225L702.63 864.029C706.491 864.351 710.03 864.19 710.352 863.546C710.995 862.581 720.648 855.824 726.6 852.124C727.887 851.32 727.726 852.446 726.278 855.342C724.991 857.755 723.865 860.972 724.026 862.259C724.026 863.868 724.509 863.546 725.474 861.455C726.6 858.881 726.922 859.685 726.922 864.833C727.083 868.533 727.565 874.003 728.048 876.899L728.852 882.368L726.278 878.346C724.348 875.451 724.026 875.29 724.67 877.542C725.313 879.312 726.278 882.047 726.6 883.655C727.083 885.103 728.048 886.39 728.691 886.39C730.3 886.39 733.517 878.829 733.357 875.451C733.357 873.199 733.035 873.359 731.909 875.933C730.783 878.99 730.622 878.829 729.496 874.968C729.013 872.716 728.691 868.051 729.013 864.512L729.657 858.238L731.426 863.868C732.391 866.925 733.357 868.212 733.357 866.764C733.517 865.316 732.713 862.098 731.909 859.685C729.335 853.251 731.265 847.942 738.505 839.737C742.205 835.716 744.618 833.785 744.135 835.394C742.687 840.059 741.4 847.298 742.526 844.885C743.17 843.437 744.618 845.046 746.548 849.39C748.318 853.09 749.605 856.79 749.605 857.755C749.605 860.49 746.065 857.111 743.813 851.964C742.205 848.103 741.722 847.781 741.561 850.194C741.561 852.124 744.457 856.468 747.996 859.846L754.431 866.12L754.431 857.916C754.431 852.285 753.144 847.298 750.409 841.829C746.87 835.233 746.548 833.142 747.996 829.442C749.766 824.615 765.37 807.563 772.77 802.254L777.275 799.037L776.309 802.898C775.505 806.276 775.666 806.276 777.435 802.415C778.562 800.002 781.135 796.141 783.388 793.889L787.249 789.867L777.596 793.085Z" fill="black"/>
<path d="M715.983 813.194C712.444 812.711 706.33 812.711 702.148 813.355C695.069 814.32 694.265 813.998 688.795 808.689C682.843 803.059 653.886 790.028 651.795 792.12C649.865 794.211 663.86 806.437 673.191 811.102L682.843 815.768L665.791 815.124L648.578 814.32L639.569 807.563C633.295 802.737 627.503 800.002 620.747 798.394C615.277 797.107 610.451 796.463 609.968 796.946C608.681 798.394 614.795 804.346 621.712 808.368C630.077 813.355 649.704 817.215 665.952 817.215C673.03 817.215 678.821 817.859 678.821 818.663C678.821 820.916 674.317 822.042 664.504 822.042C657.265 822.042 652.921 823.168 644.556 827.35C638.603 830.246 634.26 833.142 634.743 833.785C636.995 836.037 653.243 834.75 661.126 831.855C665.469 830.246 672.869 826.063 677.374 822.685L685.578 816.733L703.917 816.572C722.578 816.411 727.244 815.124 715.983 813.194Z" fill="black"/>
<path d="M681.234 850.355C677.695 850.838 670.778 852.768 665.951 854.377C650.186 860.168 650.669 860.168 642.303 851.159C636.512 844.885 633.134 842.633 628.629 841.829C625.09 841.346 622.516 841.668 622.516 842.472C622.516 843.277 625.09 846.977 628.307 850.677C632.329 855.342 636.19 858.077 641.499 859.686L649.06 861.938L644.556 863.707C635.708 867.247 630.56 865.96 624.607 859.042C618.977 852.607 611.738 849.39 602.407 849.39C599.672 849.39 594.685 847.942 591.146 846.172C587.768 844.403 584.711 843.277 584.39 843.598C583.103 844.724 602.085 860.973 607.394 863.225C610.451 864.512 618.012 866.12 623.803 866.603L634.581 867.568L628.147 870.464C624.607 872.073 618.173 873.52 613.99 873.52C609.807 873.52 603.694 874.647 600.316 875.934C593.077 878.99 579.081 887.838 579.081 889.447C579.081 891.377 599.029 889.286 604.016 886.873C606.751 885.425 610.772 882.529 613.186 880.438C616.725 877.06 631.203 870.625 635.547 870.303C636.029 870.303 635.225 874.164 633.616 878.829C631.364 885.586 630.881 890.412 631.686 902.799C632.168 911.486 633.134 918.082 633.777 917.76C634.421 917.278 636.512 913.738 638.442 909.717C641.982 901.995 642.625 892.182 640.373 880.116C639.568 876.094 639.247 871.912 639.729 870.786C640.695 868.373 652.921 861.616 654.047 862.742C654.53 863.064 654.047 865.316 653.082 867.729C650.347 875.129 651.312 886.39 654.851 886.39C657.908 886.39 661.447 876.255 660.643 869.981C659.195 859.686 660.482 857.755 670.617 854.859C684.934 850.838 688.956 849.229 681.234 850.355Z" fill="black"/>
<path d="M603.694 838.129C590.02 832.016 581.172 825.259 578.92 818.985C576.829 813.516 578.598 806.437 582.459 805.472C584.068 804.989 585.516 803.542 585.516 802.255C585.516 799.198 580.851 797.268 579.885 800.002C576.025 810.781 575.703 811.424 574.255 809.172C572.164 805.955 572.164 799.52 574.255 799.52C576.829 799.52 576.025 793.085 573.29 791.959C568.464 790.189 567.498 793.889 570.233 803.702C571.842 809.011 574.255 815.607 576.025 818.503C577.633 821.237 578.277 823.65 577.472 823.65C573.611 823.65 565.89 814.32 559.776 802.255C556.076 795.015 551.089 786.972 548.837 784.398C544.333 779.733 534.359 774.424 532.75 776.193C530.82 778.124 553.342 808.85 560.098 813.355L567.016 818.02L557.363 818.985C545.942 820.111 539.507 823.168 529.854 832.016C523.42 837.968 520.202 843.116 524.546 840.381C525.672 839.738 531.624 838.772 538.059 838.129C548.033 837.164 550.768 836.198 557.363 831.051C562.19 827.511 566.855 825.259 569.751 825.259C572.485 825.259 580.529 828.477 587.607 832.338C603.212 840.864 616.082 846.494 616.082 844.886C616.082 844.242 610.451 841.185 603.694 838.129Z" fill="black"/>
<path d="M596.777 865.638C593.72 865.477 580.368 866.281 567.337 867.407L543.528 869.177L535.967 861.938C531.785 857.916 525.35 852.929 521.489 851.159C517.628 849.229 511.837 845.207 508.458 842.15C502.023 836.198 484.167 827.35 484.167 830.085C484.167 830.889 485.615 832.337 487.223 833.302C488.993 834.107 491.567 838.611 493.015 843.116C495.428 850.355 497.036 852.124 505.723 857.594C512.641 861.938 517.467 863.868 521.972 864.029C525.511 864.19 530.176 864.672 532.428 865.316C538.702 867.246 516.502 869.338 503.632 868.051C493.98 867.085 476.767 863.385 475.158 861.777C474.514 861.294 473.549 852.446 473.067 844.242C472.906 841.024 468.08 840.22 468.08 843.437C467.919 844.403 466.471 842.794 464.862 839.576C459.875 830.085 452.475 829.281 454.406 838.289L455.532 843.116L449.418 839.898C443.144 836.52 434.297 835.394 434.297 837.968C434.297 838.611 435.744 841.185 437.514 843.437C441.858 848.907 441.697 849.39 434.297 849.39C429.953 849.39 427.862 850.033 427.862 851.481C427.862 855.181 435.262 860.811 441.375 861.777L447.327 862.742L442.34 865.638C433.492 871.107 437.675 877.059 448.132 873.842C453.601 872.233 453.601 872.233 453.601 877.542C453.601 880.599 454.245 883.333 455.049 883.816C456.819 884.942 464.862 875.772 464.862 872.555C464.862 871.107 465.988 870.303 467.758 870.625C469.688 870.946 470.654 869.82 470.975 866.925L471.458 862.581L481.432 865.959C489.154 868.533 497.036 869.338 516.341 869.981L541.276 870.625L529.532 873.681C522.937 875.29 511.515 879.633 504.115 883.173C490.602 889.607 485.775 890.894 485.775 887.999C485.775 885.264 477.088 882.046 472.101 883.173L467.275 883.977L470.975 887.194L474.675 890.412L470.975 891.216C466.149 892.503 466.149 896.686 470.975 897.329C474.675 897.812 474.675 897.973 469.688 903.442C460.84 913.738 464.38 918.243 477.249 912.934C485.293 909.555 483.041 908.268 474.836 911.647C471.136 913.095 467.597 913.738 467.114 913.255C465.345 911.486 471.136 904.247 477.732 900.064C486.419 894.594 487.867 894.916 485.132 901.512C482.88 907.142 483.362 915.347 486.419 917.277C488.671 918.725 493.336 914.382 494.462 909.555C495.106 907.464 496.554 905.695 497.841 905.695C500.897 905.695 500.897 900.708 497.841 896.686C496.554 895.077 495.428 892.664 495.428 891.538C495.428 888.481 516.502 878.99 531.624 875.129C543.528 872.072 550.768 871.107 588.733 867.246C596.294 866.603 599.833 865.798 596.777 865.638Z" fill="black"/>
<path d="M571.359 876.738C570.233 876.738 569.429 877.381 569.429 878.025C569.429 878.668 562.189 886.551 553.341 895.238L537.254 911.325L528.567 910.843C521.811 910.36 517.145 911.325 508.78 914.543C490.602 921.782 488.51 923.23 490.762 926.125C492.532 928.056 495.428 928.378 505.402 927.895L518.111 927.091L514.25 931.273C511.997 933.525 509.102 937.386 507.654 939.639C504.919 943.821 499.61 960.23 500.576 961.195C502.345 962.965 518.915 949.291 522.776 942.856L527.602 935.456L527.602 945.108C527.602 955.726 528.889 962 530.819 962C532.428 962 539.828 946.395 541.115 939.799C541.759 937.225 541.437 930.147 540.311 924.195L538.541 913.416L543.528 908.269L548.515 903.282L547.711 908.912C547.228 911.969 545.941 917.277 544.976 920.495C543.046 926.93 544.172 932.078 547.389 930.951C548.676 930.63 549.159 926.93 548.998 919.208C548.837 909.877 548.998 909.234 549.963 914.543C552.859 929.343 560.581 940.926 564.763 936.743C567.176 934.33 564.763 930.308 558.65 926.608C553.985 923.873 553.181 922.586 553.824 919.047C554.307 916.795 554.146 912.934 553.502 910.682C551.733 904.408 554.146 897.651 560.902 890.251C571.842 878.347 573.129 876.738 571.359 876.738Z" fill="black"/>
<path d="M455.853 893.468C452.475 894.112 446.362 896.364 442.501 898.616C434.136 903.282 431.562 903.442 426.253 899.742C423.036 897.49 419.014 896.847 404.857 897.008C395.366 897.168 387.161 897.651 386.518 898.295C384.266 900.386 404.375 907.786 412.901 907.947C420.623 907.947 421.266 908.269 418.692 910.199C415.153 912.773 395.205 918.886 390.379 918.886C388.448 918.886 382.657 917.76 377.509 916.473C369.948 914.382 366.248 914.382 358.526 915.83C353.378 916.795 349.035 918.082 349.035 918.725C349.035 919.369 352.735 921.138 357.239 922.586C370.592 927.091 391.022 923.712 418.692 912.934C420.783 912.129 421.266 912.451 420.623 914.221C419.979 915.508 414.992 918.564 409.201 920.977C401.479 924.195 397.296 927.412 392.792 932.882C389.574 936.904 386.357 940.604 385.553 940.765C384.909 941.086 384.748 941.891 385.231 942.695C386.357 944.465 394.561 942.052 401.157 938.03C407.753 934.008 417.727 923.23 422.875 914.703C425.931 909.877 429.631 907.142 439.605 902.316C446.845 898.938 454.245 896.042 456.175 896.042C458.267 896.042 460.358 895.238 461.001 894.273C461.806 892.825 460.358 892.664 455.853 893.468Z" fill="black"/>
<path d="M410.648 868.534C390.7 868.051 386.035 864.351 385.552 848.425C385.07 831.694 375.578 822.846 375.578 839.255C375.739 845.851 376.704 848.586 381.852 855.664C385.231 860.169 387.644 864.351 387.322 864.673C387 865.156 381.048 863.869 374.13 861.777C362.709 858.56 360.778 857.434 354.826 850.355C339.543 832.177 326.191 822.042 317.343 822.042C313.804 822.042 314.93 823.972 326.191 836.52C334.717 845.851 337.452 847.942 342.761 848.747C346.3 849.39 350.804 851.16 352.735 852.929L356.274 856.147L352.252 855.182C350 854.538 342.117 853.412 334.717 852.447C327.317 851.481 318.308 849.712 314.769 848.425C305.277 845.047 296.912 845.69 287.903 850.195C283.399 852.447 279.86 854.538 279.86 855.021C279.86 855.342 293.373 855.342 309.782 855.021C333.752 854.377 341.634 854.699 350 856.79C355.791 858.238 360.135 859.847 359.652 860.169C359.33 860.49 351.126 861.295 341.634 861.777C327.317 862.421 323.134 863.225 318.952 866.121C311.069 871.269 311.23 873.199 319.273 874.486C329.247 875.934 336.969 874.164 348.391 867.729C359.009 861.777 366.087 860.973 377.187 864.512L383.622 866.603L378.957 868.534C376.383 869.499 372.522 872.073 370.27 874.003C356.917 885.908 355.952 887.034 354.826 895.882C353.539 905.856 355.63 909.878 359.491 904.73C363.835 898.939 371.235 883.978 372.361 878.669C373.004 875.13 374.935 872.717 377.991 871.108C383.461 868.212 385.07 868.212 405.018 869.66C413.061 870.303 419.818 870.303 419.818 869.66C419.818 869.177 415.635 868.534 410.648 868.534Z" fill="black"/>
<path d="M319.274 858.399C315.734 858.882 306.726 860.973 299.165 863.064C277.447 869.017 271.656 869.499 264.255 865.799C257.981 862.582 246.72 851.482 248.168 849.873C248.651 849.551 252.512 850.356 256.855 851.643C262.003 853.412 266.508 856.469 270.529 860.973C273.747 864.673 276.803 867.408 277.286 867.086C277.608 866.604 275.195 863.225 271.656 859.525C266.829 854.377 262.647 851.803 254.121 848.908C247.847 846.816 242.86 845.69 242.86 846.173C242.86 848.103 253.155 860.33 257.981 864.03C260.555 866.121 265.864 868.534 269.886 869.499L277.125 871.43L270.047 874.808C262.486 878.508 238.355 900.065 239.964 901.674C241.733 903.604 253.316 899.26 258.303 894.756C261.038 892.343 266.025 886.873 269.403 882.53C275.034 875.291 283.56 868.695 286.938 868.695C287.743 868.695 287.26 869.982 285.973 871.591C282.595 875.291 273.425 890.895 273.425 892.826C273.425 894.595 278.734 895.078 280.343 893.308C280.986 892.826 280.664 891.378 279.538 890.091C278.251 888.482 278.251 886.873 279.699 883.656C281.951 878.83 283.721 879.795 283.882 886.069C283.882 888.804 284.847 890.573 286.777 890.895C290.156 891.539 290.478 887.517 287.099 884.782C283.721 882.047 284.043 877.865 288.064 872.878C292.408 867.247 295.947 865.638 312.034 861.134C319.595 859.203 322.813 857.916 319.274 858.399Z" fill="black"/>
<path d="M317.826 801.772C314.286 800.324 302.543 806.276 301.899 809.976C301.417 811.746 301.417 809.333 301.738 804.668C302.221 798.233 301.899 796.142 300.451 796.624C299.004 797.107 298.521 800.163 298.843 806.437C299.486 816.411 298.843 817.537 295.304 811.907C293.051 808.689 293.051 807.403 295.143 800.485C298.038 790.672 298.038 785.041 295.143 793.889L293.051 800.324L293.051 790.672C293.051 783.915 293.373 781.985 294.338 784.237C296.912 790.189 295.947 783.594 293.373 776.998C291.925 773.459 290.156 771.046 289.351 771.528C287.421 772.654 287.582 778.607 289.512 778.607C290.477 778.607 291.121 783.754 290.96 791.154C290.799 805.311 288.386 803.059 287.743 788.259C287.582 780.537 287.421 780.054 286.456 785.041L285.49 790.672L283.238 785.524C282.112 782.628 280.503 780.215 279.699 780.215C278.895 780.215 279.86 782.789 281.63 785.846C287.904 796.463 284.203 796.946 277.125 786.328C270.529 776.193 269.564 773.137 274.229 776.998C275.677 778.124 277.125 778.767 277.447 778.285C277.929 777.802 275.516 775.55 272.299 773.298C269.082 770.885 266.186 769.276 266.025 769.437C264.738 770.563 270.851 787.294 274.229 792.281L278.251 797.911L273.747 797.107C271.334 796.624 270.529 796.785 271.816 797.268C284.043 802.415 288.225 804.507 287.582 805.311C286.938 805.794 280.986 804.185 274.069 801.772C263.129 797.911 262.003 797.107 265.382 795.981C268.76 795.015 268.599 794.855 263.934 795.176C260.877 795.337 258.142 796.302 257.821 797.428C256.855 800.324 278.734 810.781 285.973 810.781C292.73 810.781 296.912 814.32 310.104 831.533C313.804 836.199 316.86 839.738 316.86 839.094C316.86 838.451 313.965 834.107 310.426 829.442C300.612 816.411 302.06 805.955 313.643 805.955C319.917 805.955 322.33 803.542 317.826 801.772Z" fill="black"/>
<path d="M275.516 827.029C249.777 818.503 246.077 816.251 239.32 804.346C233.529 794.533 233.368 793.407 234.172 783.433C234.977 775.068 234.494 772.333 232.403 769.759L229.668 766.542L230.955 769.759C233.046 775.39 233.69 786.651 231.92 786.651C229.829 786.651 227.738 773.459 228.864 768.794C229.829 765.255 228.703 760.911 226.933 760.911C225.485 760.911 227.577 783.433 229.668 788.581L231.438 792.925L223.394 787.938C219.05 785.203 215.029 783.433 214.546 783.916C212.294 786.168 219.533 793.568 227.255 797.107C232.885 799.681 236.585 802.577 238.516 805.955C240.125 808.851 241.09 811.425 240.768 811.747C239.964 812.712 222.107 801.612 212.455 794.212C197.815 783.111 184.946 770.403 183.981 766.381C182.694 761.072 186.394 746.755 189.611 744.341C196.85 739.033 200.068 729.541 195.081 727.611C191.541 726.163 186.554 732.598 186.554 739.033C186.554 741.767 185.267 748.363 183.659 753.511L180.763 763.163L177.867 756.889C174.167 749.328 173.846 739.354 176.902 732.276C179.476 726.485 177.867 721.98 173.041 721.015C169.341 720.211 168.054 724.715 170.146 731.633C170.95 734.85 172.559 741.607 173.363 746.433C174.328 751.259 175.615 756.729 176.259 758.498C178.511 764.289 172.398 758.016 165.319 747.237C157.919 736.298 155.024 733.563 150.841 733.563C148.911 733.563 147.945 734.85 147.945 737.585C147.945 741.928 151.967 744.824 157.919 744.824C160.332 744.824 162.745 746.433 164.354 749.328C165.963 751.902 176.902 763.485 188.968 775.068L210.685 796.303L197.976 796.303C183.981 796.303 185.107 797.107 176.42 783.433C173.041 778.124 167.25 774.907 167.25 778.285C167.25 781.181 176.58 793.568 180.28 795.659C183.981 797.59 183.981 797.751 180.924 798.716C172.398 801.612 165.48 805.151 162.906 808.047C160.011 811.103 160.172 811.103 165.641 809.977C177.867 807.564 183.659 805.151 186.554 801.612C188.163 799.52 190.415 797.912 191.541 797.912C194.276 797.912 195.402 808.529 192.668 810.138C191.381 810.942 191.22 809.977 192.024 806.92C192.668 804.025 192.507 802.899 191.381 803.542C189.289 804.829 189.289 813.999 191.381 813.999C193.15 813.999 195.402 809.334 197.011 802.094C197.976 797.59 198.137 797.429 207.146 798.233C214.385 799.038 218.407 800.486 226.29 805.794C231.759 809.494 238.355 813.194 240.768 814.16C244.307 815.447 244.629 816.09 242.859 817.216C241.572 818.181 238.355 818.825 235.942 818.825C233.529 818.825 229.185 819.79 226.29 821.077C220.177 823.651 210.524 833.303 214.063 833.303C215.35 833.303 217.12 831.695 217.924 829.764C220.016 824.938 230.151 820.112 236.746 820.755L242.055 821.238L236.746 824.616C233.69 826.547 228.381 828.638 224.681 829.282C220.981 829.925 219.05 830.89 220.498 831.212C222.751 831.695 229.829 829.764 238.355 826.064C240.929 825.099 241.09 825.421 238.999 832.338C237.068 838.451 237.068 839.738 238.838 839.738C241.733 839.738 247.042 832.66 249.294 825.903C250.742 821.56 251.868 820.434 253.96 821.238C262.808 824.777 289.995 833.464 290.477 832.821C290.799 832.499 284.043 829.925 275.516 827.029Z" fill="black"/>
<path d="M138.293 694.793C137.489 693.345 137.006 684.014 137.167 673.879C137.489 657.792 137.006 654.896 134.271 650.875L131.054 646.049L129.928 652.483C127.997 663.423 128.48 669.858 132.019 676.292C133.789 679.671 135.076 683.049 134.754 683.853C134.111 685.623 121.563 668.571 115.289 657.792C111.91 651.84 109.336 649.749 102.901 647.014L94.5361 643.475L99.684 649.588C102.58 652.805 110.141 660.688 116.576 666.801C127.032 676.936 134.754 687.714 132.984 689.484C132.663 689.806 128.802 686.588 124.619 682.245C116.093 673.558 110.141 670.179 104.188 671.145C100.649 671.627 100.971 672.11 108.049 679.188C113.841 684.979 117.219 687.071 122.367 687.875C126.389 688.519 131.215 690.932 134.432 693.827C140.224 698.814 140.706 698.975 138.293 694.793Z" fill="black"/>
<path d="M897.699 321.226C893.999 317.204 889.655 314.63 883.542 312.86C873.729 309.965 869.064 306.425 865.042 298.864C862.629 294.038 862.629 293.877 866.329 294.843C869.224 295.647 868.903 295.325 865.203 293.234C862.629 291.625 859.411 289.373 858.285 287.925C857.159 286.477 858.929 290.499 862.307 296.612C868.42 307.712 868.42 308.034 868.42 326.373C868.42 342.3 868.903 345.678 871.637 349.7L874.855 354.526L876.142 343.587C877.268 333.934 877.107 331.843 874.211 326.213C872.281 322.673 870.833 318.169 870.833 316.239C870.994 313.021 871.155 313.021 873.407 317.204C874.694 319.617 876.142 321.547 876.624 321.547C877.107 321.547 876.142 318.973 874.211 315.917C872.442 312.86 871.477 310.286 872.12 310.286C872.603 310.286 877.268 314.308 882.094 319.134C888.69 325.73 892.712 328.304 897.055 329.108C904.455 330.234 904.455 328.626 897.699 321.226Z" fill="black"/>
<path d="M855.068 258.325C853.459 256.716 850.241 255.59 847.989 255.59C844.933 255.59 842.841 253.981 840.428 250.442C836.728 244.65 811.471 219.233 800.371 209.902L793.293 204.111L806.002 204.111C820.159 204.272 821.928 205.076 827.398 214.889C830.937 221.163 836.085 225.024 838.176 222.772C839.463 221.485 832.546 211.028 827.237 206.524L822.411 202.502L826.915 200.893C837.533 197.032 840.107 195.585 842.841 192.689C846.22 188.828 844.45 188.828 832.385 192.045C827.559 193.172 821.767 196.067 819.515 198.319C815.493 202.18 810.184 204.111 811.632 201.376C811.954 200.572 813.241 198.159 814.367 195.746C815.654 193.332 816.137 190.276 815.493 188.828C813.885 184.485 809.863 188.989 808.576 196.55L807.611 202.985L798.28 202.02C791.684 201.376 787.18 199.928 782.032 196.389C778.171 193.815 772.058 190.115 768.197 188.185C760.314 184.163 760.636 181.589 768.841 181.589C771.897 181.589 776.723 180.624 779.619 179.337C785.089 177.084 793.132 169.363 791.684 167.754C790.397 166.628 770.932 171.776 768.197 173.867C765.14 176.441 764.497 174.832 766.267 168.558C769.001 159.228 768.197 158.102 762.888 163.249C760.153 165.823 757.258 170.971 756.293 174.51L754.523 181.106L746.158 177.567C736.505 173.224 716.236 166.789 715.27 167.754C714.949 168.076 719.775 170.006 726.21 171.937C732.644 173.867 742.779 177.567 748.892 180.302C758.706 184.645 760.475 186.254 765.14 194.298C772.541 207.007 772.862 208.615 771.093 215.694C769.484 221.324 769.806 223.094 774.149 231.942L778.815 241.916L778.975 233.872C779.136 229.368 778.171 221.807 776.884 216.981C773.345 203.467 775.597 200.893 784.284 208.937C790.236 214.246 788.306 215.533 781.871 210.546C777.528 207.007 775.115 206.363 776.723 208.937C778.332 211.672 790.236 217.141 791.041 215.533C792.489 213.281 783.802 205.559 776.401 202.341C770.449 199.767 763.049 190.758 765.14 188.667C765.462 188.185 772.219 192.206 780.102 197.354C796.028 207.811 813.402 222.611 819.032 230.494C822.411 235.32 822.572 236.285 820.802 244.168C819.676 249.316 817.263 254.464 814.367 257.681C806.806 265.725 806.324 275.055 813.402 272.481C817.263 270.873 817.745 269.264 822.089 244.65C823.376 237.089 825.146 237.089 828.041 244.329C830.937 251.729 831.42 263.794 828.846 266.368C827.88 267.333 827.398 270.551 827.719 273.446C828.041 277.629 829.006 279.077 831.741 279.399C836.246 280.042 838.659 273.125 835.28 269.103C834.154 267.655 832.706 262.025 832.063 256.555C831.42 251.246 830.293 244.972 829.65 242.72C828.524 239.181 828.685 238.859 831.098 240.95C832.546 242.077 837.05 248.029 840.911 253.981C847.828 264.277 850.724 266.851 855.711 266.851C858.929 266.851 858.446 261.381 855.068 258.325Z" fill="black"/>
<path d="M764.014 97.9358C762.566 97.9358 761.44 98.901 761.44 100.027C761.44 102.279 746.801 116.758 740.205 121.101C737.631 122.71 735.701 123.353 735.701 122.388C735.701 119.493 750.823 103.888 755.81 101.797C758.384 100.671 759.51 99.7054 758.223 99.5445C753.558 99.5445 745.836 105.658 738.758 114.988C732.001 123.836 722.831 131.719 719.292 131.719C718.327 131.719 719.936 128.662 722.67 124.962C725.405 121.262 727.657 117.562 727.657 116.597C727.657 115.793 728.783 113.862 730.231 112.253C733.288 108.875 732.001 105.979 727.497 105.979C724.279 105.979 723.314 109.84 726.049 111.61C727.014 112.253 726.853 114.023 725.727 116.436C723.475 121.262 720.579 119.975 721.705 114.506C722.509 110.484 719.614 107.91 716.557 110.001C715.431 110.645 716.075 112.736 718.327 115.793C721.705 120.297 721.705 120.94 719.614 124.801C715.753 131.558 709.962 134.775 695 138.475C687.279 140.406 681.326 142.175 681.648 142.658C682.131 142.98 691.461 141.049 702.561 138.154C713.822 135.419 724.118 133.488 726.049 134.132C727.818 134.614 731.518 137.993 734.414 141.532C738.275 146.358 741.653 148.449 748.41 150.38C753.397 151.828 758.384 153.758 759.51 154.723C763.853 158.263 763.049 154.08 757.901 147.323C751.145 138.315 742.618 132.041 734.575 130.432L728.462 129.145L735.701 125.284C742.136 122.067 764.658 102.762 765.945 99.2228C766.267 98.5793 765.462 97.9358 764.014 97.9358Z" fill="black"/>
<path d="M737.149 195.263C729.91 191.885 722.831 189.632 718.809 189.472C712.053 189.472 711.57 188.989 692.427 165.502C690.657 163.25 689.209 161.963 689.048 162.606C689.048 163.089 691.622 166.628 694.679 170.328C701.596 178.532 702.883 183.358 700.309 189.632C698.218 194.619 697.574 194.941 690.335 194.459C687.761 194.298 685.831 194.941 685.831 196.067C685.831 199.124 690.174 199.607 695.322 196.872C701.435 193.815 701.918 196.55 695.966 200.411C690.657 203.789 688.887 205.881 690.013 207.65C692.909 212.315 701.114 201.537 704.17 188.989L705.296 184.324L709.157 188.024C712.214 190.919 712.696 192.367 711.409 195.585C709.318 201.215 709.64 203.789 712.214 200.572C715.109 196.711 716.236 198.32 717.362 207.65C718.005 212.315 718.97 214.728 719.614 213.763C720.418 212.315 721.223 212.798 722.027 215.211C723.153 218.75 736.827 230.816 738.275 229.368C740.688 226.955 731.036 204.111 727.497 204.111C726.853 204.111 727.979 206.685 730.07 209.902C735.862 218.428 735.057 220.359 729.105 212.154C724.279 205.559 724.118 205.076 727.014 202.985C729.105 201.376 729.266 200.893 727.497 200.893C724.923 200.893 716.396 194.62 718.809 194.459C719.775 194.459 725.888 196.711 732.484 199.285C744.066 203.95 744.227 204.111 737.31 203.307C731.197 202.663 730.714 202.824 734.092 204.111C739.079 206.363 747.284 205.559 748.249 202.985C748.571 201.698 744.066 198.641 737.149 195.263Z" fill="black"/>
<path d="M692.748 145.232C668.135 145.232 657.357 144.749 652.048 143.14L644.809 140.888L651.243 139.601C654.783 138.958 662.665 138.314 668.618 138.314C679.879 138.153 686.153 136.062 691.14 130.432C693.874 127.375 693.874 127.375 687.922 126.249C676.179 124.318 671.513 125.284 659.287 131.719C646.096 138.636 638.535 139.601 627.917 135.901L622.287 133.81L628.4 130.914C631.617 129.466 634.352 127.536 634.352 126.732C634.352 125.927 636.604 124.158 639.178 122.871C646.417 119.171 650.439 111.61 650.439 101.636C650.439 96.9703 649.796 93.1094 648.991 93.1094C646.578 93.1094 636.122 111.449 633.387 120.297C631.135 128.018 630.652 128.501 623.413 130.592C618.587 132.04 614.082 132.362 610.221 131.558C607.165 130.753 600.247 130.271 594.938 130.432C585.769 130.592 585.93 130.592 598.799 131.879C610.865 133.006 612.795 133.649 616.013 137.671C618.908 141.049 619.713 144.267 619.874 150.701C619.874 164.697 627.434 176.28 630.33 166.949C632.261 161.158 629.687 153.436 622.93 143.945L616.334 134.775L621 135.74C637.409 139.44 645.774 143.462 650.922 149.897C661.7 163.732 672.157 173.063 679.879 175.958C684.061 177.567 687.922 178.371 688.405 177.889C688.887 177.406 687.279 174.189 684.866 170.81C675.857 158.423 670.709 154.08 662.183 151.667C657.678 150.38 653.013 148.127 651.726 146.68C649.956 144.427 649.956 144.106 652.37 145.071C653.817 145.553 661.057 146.84 668.457 147.806C675.857 148.771 685.348 150.701 689.692 151.988C701.274 155.206 708.675 154.723 717.362 150.219C721.544 147.967 725.244 145.875 725.566 145.553C725.888 145.232 711.088 145.071 692.748 145.232Z" fill="black"/>
<path d="M649.313 77.9875C645.13 76.5396 639.017 75.4135 635.639 75.4135C626.469 75.4135 606.039 79.9179 595.099 84.4223C589.791 86.5137 585.125 87.9615 584.803 87.4789C583.034 85.8702 588.343 81.8484 595.421 79.5962C603.465 76.8614 608.934 72.5179 615.691 63.6699C621 56.7525 621 56.109 615.208 57.7177C603.625 60.9351 591.077 71.2309 584.643 82.4919C580.46 89.7311 578.208 91.6616 566.786 97.6138C559.547 101.314 551.986 104.37 549.894 104.37C547.803 104.37 545.551 105.175 544.907 106.14C543.138 109.197 555.364 106.301 563.89 101.636L571.612 97.4529L578.369 100.509C583.517 102.762 588.825 103.566 601.856 103.566C611.026 103.566 618.908 103.083 619.23 102.44C619.552 101.957 615.691 99.3834 610.704 96.9703C603.786 93.7529 598.799 92.6268 591.721 92.6268L582.069 92.6268L590.112 88.9267C594.617 86.8354 602.017 84.2615 606.682 82.9745C614.243 81.044 616.495 81.2049 626.308 83.618C635.639 86.0311 639.017 86.1919 647.222 84.7441C652.53 83.7789 656.874 82.331 656.874 81.6875C656.874 81.044 653.496 79.4353 649.313 77.9875Z" fill="black"/>
<path d="M574.99 144.267C570.164 140.245 565.821 138.154 561.638 138.154C558.099 137.993 558.099 137.993 562.282 135.419C567.59 132.04 569.36 128.501 566.464 126.571C563.729 124.801 558.421 124.962 555.525 126.893C553.595 128.18 552.951 127.214 552.308 122.549C551.181 114.184 548.447 114.345 543.46 122.71C541.047 126.732 538.312 129.788 537.346 129.627C536.22 129.467 535.255 131.236 534.933 133.488L534.451 137.832L524.477 134.614C517.238 132.201 507.585 131.075 489.568 130.271C475.894 129.627 466.08 128.984 467.85 128.823C473.802 128.34 496.324 120.297 505.333 115.471C515.629 110.001 517.881 109.84 521.42 113.862C524.638 117.401 533.968 119.492 535.577 117.079C536.06 116.114 535.255 114.023 533.807 112.414C531.233 109.679 531.394 109.358 534.933 108.875C540.242 108.231 539.599 103.727 533.968 103.084C529.464 102.44 529.464 102.44 532.842 100.188C534.773 98.7401 537.346 95.5226 538.794 92.7878C543.138 84.4225 538.312 83.2964 523.833 89.2486C522.707 89.7313 521.742 89.0878 521.742 87.8008C521.742 86.5138 520.777 84.5834 519.49 83.6181C517.72 82.1703 516.755 82.3312 514.664 84.2616C511.929 87.1573 508.55 97.7748 509.837 99.8662C510.32 100.51 509.837 101.153 508.711 101.153C507.746 101.153 507.264 99.8662 507.746 97.9357C508.55 94.5574 506.62 93.5922 504.69 96.4879C504.207 97.4531 505.172 100.349 507.103 102.923C508.872 105.336 510.481 108.231 510.481 109.036C510.481 111.61 488.281 121.584 474.767 125.123C467.85 126.893 455.141 129.145 446.615 130.11C437.928 131.075 424.736 132.523 417.175 133.327L403.501 134.775L419.589 133.971C428.436 133.649 441.628 132.845 448.867 132.362L462.22 131.236L467.85 137.188C470.907 140.567 474.124 142.819 475.089 142.175C477.663 140.567 493.75 146.036 500.507 151.023C506.459 155.206 515.146 165.502 512.894 165.502C510.642 165.502 502.437 160.515 496.003 155.045C488.442 148.771 476.859 142.175 475.572 143.623C475.089 143.945 478.468 146.197 482.972 148.449C487.315 150.702 493.429 154.884 496.163 157.619C499.059 160.354 505.655 164.697 510.964 167.271C520.777 171.776 525.442 172.097 519.329 167.754C517.559 166.467 514.342 161.641 512.09 156.976C506.942 146.358 493.75 136.706 483.937 136.384C480.398 136.223 475.411 135.58 472.676 135.097C468.815 134.132 470.263 133.649 480.398 132.684C494.555 131.236 508.55 132.362 521.742 135.901L530.751 138.314L531.072 145.715C531.555 156.654 532.681 159.389 536.381 158.263C537.99 157.619 539.438 157.941 539.438 158.745C539.438 160.836 546.999 168.719 549.09 168.719C549.894 168.719 550.699 166.145 550.699 163.089L550.699 157.458L556.008 160.676C558.742 162.445 563.569 163.893 566.464 163.893L571.934 163.893L568.556 158.423C566.625 155.528 565.177 152.632 565.177 152.149C565.177 151.667 567.912 151.023 571.129 150.702C578.047 150.058 579.334 147.967 574.99 144.267Z" fill="black"/>
<path d="M512.733 72.6789C511.285 72.1962 505.011 72.1962 498.576 72.6789C482.972 73.805 481.685 72.6789 488.281 64.6353C491.176 61.0961 495.198 56.1091 497.129 53.5351C499.703 50.3177 500.507 49.8351 499.703 52.0873C498.255 56.7526 494.394 62.7048 489.729 67.8527C487.637 70.2658 486.672 72.1962 487.637 72.1962C491.981 72.1962 506.942 44.6872 505.333 39.8611C504.368 37.1263 486.511 50.6395 482.972 56.5917C481.202 59.97 479.915 63.1874 480.398 63.67C480.881 64.1527 482.811 61.5787 484.581 58.0395C487.476 52.5699 497.289 43.8829 498.898 45.6524C499.703 46.4568 491.176 58.5222 484.42 66.4049L478.789 72.8397L478.628 63.9918C478.468 51.7656 476.698 40.1828 474.928 39.0567C472.998 37.9306 465.598 53.8569 464.311 61.7396C463.828 64.7961 464.311 71.8745 465.276 77.1833L467.367 87.1573L462.541 91.9834L457.554 96.8096L458.519 89.7312C458.841 85.8703 459.967 80.5616 460.611 78.1485C462.38 72.8397 461.254 68.9788 458.037 68.9788C456.106 68.9788 455.785 71.0701 456.589 79.9181L457.393 90.6965L455.302 83.4572C451.602 71.3919 446.454 62.5439 442.915 62.5439C438.089 62.5439 438.893 68.3353 444.202 71.7136C449.511 74.9311 452.567 78.4702 452.567 81.5268C452.567 82.9746 450.959 82.3311 447.58 79.5963C441.789 74.6093 432.78 73.8049 433.584 78.3094C434.067 80.4007 435.837 81.0442 440.984 81.0442C448.063 81.205 450.154 82.6529 451.924 89.5704C454.015 96.9704 451.119 103.566 442.111 112.414C437.284 117.24 433.263 121.906 433.263 122.71C433.263 123.675 440.984 116.436 450.637 106.944L467.85 89.5704L479.111 89.2486C488.442 89.0877 492.624 87.9616 502.92 83.1355C515.146 77.3441 517.72 74.6093 512.733 72.6789Z" fill="black"/>
<path d="M478.95 160.675C476.698 161.641 471.067 162.284 466.402 162.284C459.163 162.284 456.589 163.249 448.706 168.719C443.719 172.258 437.767 175.154 435.515 175.154C433.423 175.154 422.162 170.328 410.58 164.536C398.997 158.745 389.184 154.401 388.701 154.884C388.219 155.367 394.653 159.067 402.858 163.088C420.232 171.615 423.289 174.028 426.345 181.267C428.919 187.541 427.954 192.206 423.449 194.458C419.428 196.711 419.428 200.893 423.61 200.893C425.702 200.893 426.828 199.767 426.828 197.998C426.828 196.389 427.793 193.654 429.08 192.045C431.171 189.15 431.332 189.311 432.458 194.137C433.263 197.837 432.78 199.928 430.85 201.859C428.597 204.111 428.597 204.915 430.528 206.846C431.654 207.972 433.906 208.615 435.354 207.972C438.25 206.846 439.054 203.306 436.641 201.859C435.997 201.376 434.871 198.48 434.389 195.424C433.906 192.528 431.976 186.897 430.206 183.037C428.276 179.337 427.149 175.958 427.471 175.636C429.08 173.867 441.467 188.989 445.811 198.158C452.567 212.637 457.715 219.233 465.437 222.611C473.641 226.311 475.089 224.863 470.263 218.267C468.172 215.372 463.667 208.937 460.289 203.95C457.072 198.963 450.798 191.884 446.615 188.184L438.893 181.589L446.132 181.589C454.98 181.589 466.885 176.119 476.376 167.915C484.098 161.158 485.063 158.423 478.95 160.675Z" fill="black"/>
<path d="M417.658 110.323C404.467 111.449 398.675 113.54 392.723 119.332C387.897 123.836 371.166 131.236 369.397 129.467C369.075 129.145 369.879 126.571 371.166 123.836C373.097 120.297 373.74 114.184 373.74 100.349C373.74 90.214 373.097 81.8486 372.453 81.8486C369.879 81.8486 363.444 98.0967 363.444 104.049C363.605 107.266 364.088 114.827 364.892 120.78L366.179 131.397L359.262 134.936C355.562 136.867 352.183 138.154 352.023 137.832C351.701 137.51 352.023 134.454 352.827 130.914C354.114 125.123 353.953 120.619 351.862 114.184C350.253 108.875 345.588 119.814 344.783 130.754C343.818 143.302 344.14 142.98 328.696 147.806C321.135 150.058 320.009 150.702 324.674 150.058C328.214 149.576 335.131 147.645 339.957 145.875C355.24 140.406 356.366 140.567 360.549 147.002C364.892 153.919 372.936 159.067 379.049 159.067L383.714 159.067L380.658 154.08C377.119 147.806 371.488 143.462 363.123 140.567L356.849 138.475L361.353 136.706C369.558 133.488 374.384 134.614 380.336 140.728C386.932 147.806 394.01 151.023 402.375 151.023C405.754 151.023 411.062 152.471 414.441 154.08C417.658 155.689 420.393 156.815 420.393 156.332C420.393 155.85 417.658 152.632 414.441 149.093C405.915 140.245 395.136 134.936 382.106 133.81L371.327 132.845L377.762 129.949C381.301 128.34 387.736 126.893 391.919 126.893C396.101 126.893 402.214 125.767 405.593 124.319C412.349 121.584 426.667 112.092 426.828 110.484C426.828 109.84 422.645 109.84 417.658 110.323Z" fill="black"/>
<path d="M389.827 196.067C380.014 188.345 366.501 184.645 344.14 183.68C327.409 182.876 325.318 182.393 327.892 180.624C329.661 179.337 334.97 178.371 340.922 178.371C348.805 178.371 352.666 177.406 360.71 173.224C366.018 170.489 370.523 167.593 370.523 166.789C370.523 166.145 366.34 165.502 361.353 165.502C350.253 165.663 336.901 170.65 327.087 178.371C320.492 183.68 320.331 183.68 301.348 183.841C288.639 184.002 282.848 184.485 283.813 185.611C284.778 186.576 291.535 187.219 298.935 187.219C311.966 187.219 312.609 187.38 317.918 192.528C322.583 197.033 338.188 204.272 351.862 208.454C354.757 209.42 354.757 209.098 351.379 204.433C346.875 197.998 339.635 192.367 330.305 188.024L323.066 184.806L340.118 185.45L357.331 186.093L365.536 192.689C370.201 196.228 376.636 199.928 380.014 200.893C398.032 205.72 400.445 204.593 389.827 196.067Z" fill="black"/>
<path d="M319.687 132.362C318.239 132.845 313.092 133.327 308.105 133.488C298.291 133.649 298.452 133.971 308.426 135.74C316.309 137.027 313.413 139.762 304.244 139.762C299.739 139.762 298.131 139.119 298.131 137.188C298.131 134.936 297.809 134.775 295.074 136.706C293.465 137.993 288.8 141.371 284.778 144.267L277.378 149.414L279.63 143.945C280.917 140.727 282.043 137.349 281.883 136.223C281.883 135.097 281.239 135.58 280.435 137.349C278.987 140.567 278.343 135.58 278.182 120.94C278.022 113.379 276.252 113.058 273.356 120.458C270.461 127.858 270.139 133.166 272.552 136.545C273.839 138.314 274 137.671 273.195 133.971C272.713 131.236 272.713 126.892 273.356 124.319L274.643 119.653L275.769 123.675C277.539 129.788 277.378 139.762 275.609 139.762C274.804 139.762 274 142.497 274 146.036C274 150.701 272.552 153.919 268.048 159.549C264.669 163.571 261.774 166.628 261.452 166.306C260.969 165.984 261.613 163.41 262.578 160.515C263.543 157.619 264.187 153.919 264.187 151.988C264.026 149.575 263.704 149.897 262.9 153.275C261.934 157.78 261.934 157.78 258.395 149.575C254.856 141.049 255.821 138.636 260.165 144.91C261.613 146.841 262.739 147.806 262.739 146.841C262.739 146.036 260.326 142.819 257.269 139.923L251.639 134.453L250.673 140.245C249.869 144.588 250.513 148.128 253.73 155.206C260.326 169.523 259.843 171.132 244.399 187.058C236.999 194.619 230.082 200.893 228.956 200.893C227.83 200.893 225.738 202.502 224.13 204.593C222.521 206.524 218.982 209.42 216.247 211.028L211.099 214.085L211.903 210.224C213.03 205.237 213.512 196.55 213.03 189.632C212.708 184.806 212.386 184.484 211.099 187.219C209.812 189.793 209.812 189.471 210.295 185.45C210.938 181.589 210.134 179.497 207.238 176.763C202.09 171.936 200.321 173.706 204.664 179.337C207.077 182.393 207.882 185.128 207.399 189.15C206.916 192.367 207.721 196.389 209.169 198.963C213.512 206.363 210.938 214.246 202.09 221.002C198.068 224.059 194.368 226.311 193.886 225.828C193.403 225.507 194.047 222.933 195.173 220.359C197.908 213.602 196.138 209.902 185.36 199.446L175.868 190.115L176.029 195.906C176.029 200.25 176.351 200.893 177.316 198.641C178.281 195.906 178.925 196.228 181.981 201.054C183.912 204.111 186.968 208.776 188.738 211.35C195.816 221.968 190.025 219.394 181.981 208.293C179.568 204.915 177.477 202.663 177.477 203.628C177.477 204.433 180.694 208.937 184.716 213.602C188.738 218.267 191.955 223.415 191.955 225.024C191.955 226.633 186.968 232.263 180.694 237.733C164.929 251.246 154.151 263.955 146.429 277.951C142.89 284.547 136.937 292.751 133.398 296.129C127.768 301.599 126.481 302.242 122.137 301.116C111.52 298.381 96.8803 301.438 99.6151 305.621C102.189 309.803 126.32 305.46 132.755 299.508C134.363 298.06 135.65 297.577 135.65 298.381C135.65 300.634 129.859 318.49 126.963 325.086C124.228 331.521 125.194 342.46 128.733 343.586C131.468 344.552 132.916 338.438 133.076 324.764C133.398 311.895 135.65 301.599 139.511 296.612C141.763 293.555 141.924 293.877 142.085 299.99C142.085 307.873 147.877 317.364 153.024 318.008C158.011 318.812 157.529 317.043 150.129 307.229C140.798 294.842 141.12 291.142 154.633 270.551C162.838 257.681 166.859 252.855 171.686 250.442C177.799 247.385 177.799 247.385 185.36 250.442C189.381 252.211 195.655 254.142 199.195 254.624C203.699 255.268 202.573 254.785 195.495 252.533C183.429 248.994 181.338 247.385 189.703 248.35C194.851 248.994 195.173 248.833 191.955 247.707L187.934 246.259L191.955 246.098C194.208 246.098 198.873 246.42 202.412 247.063L208.847 248.19L204.021 249.316C199.355 250.281 199.355 250.442 205.308 250.603C208.525 250.603 211.26 251.568 211.26 252.372C211.26 253.337 214.638 253.981 218.982 253.981L226.543 253.82L221.717 251.729C218.982 250.603 215.925 248.35 214.638 246.903C213.351 245.294 211.903 244.811 211.421 245.776C210.777 246.742 208.043 246.903 204.021 245.937C200.482 245.133 194.69 244.329 191.151 244.329C185.199 244.168 185.038 244.007 188.738 242.559C192.599 240.95 200.482 241.272 207.238 243.363C209.008 244.007 208.364 243.363 205.629 242.076C198.551 238.537 192.599 239.02 182.786 243.685C177.96 245.937 173.616 247.385 173.294 247.063C171.846 245.616 194.529 227.92 202.412 224.059C206.916 222.128 209.329 220.359 208.043 220.359C203.538 220.037 221.395 209.098 230.404 206.363C237.965 204.272 241.504 204.111 252.926 205.559C260.487 206.524 266.761 207.006 267.243 206.685C267.565 206.202 264.348 205.559 260.004 204.915C247.939 203.306 248.1 202.824 261.13 202.341C267.887 202.18 270.3 201.698 266.761 201.376C263.221 201.054 257.752 200.411 254.695 199.928L249.065 198.963L253.891 196.872C264.508 192.206 255.178 194.78 242.308 200.089C234.747 203.306 228.312 205.559 227.991 205.237C227.186 204.433 246.652 187.38 250.995 184.967C253.087 184.002 259.843 182.554 266.278 181.75C274.965 180.784 276.413 180.302 271.587 180.141L265.152 179.658L270.782 177.567C274 176.28 275.126 175.315 273.517 175.315C271.748 175.154 271.104 174.35 271.748 173.384C272.23 172.419 270.943 172.902 268.53 174.35C261.452 179.015 262.095 175.958 269.335 170.489C273.195 167.754 278.504 165.019 281.4 164.536C287.352 163.41 293.787 165.019 292.5 167.271C291.213 169.202 291.857 169.202 298.935 166.145C302.152 164.858 305.209 164.054 305.531 164.376C306.657 165.341 302.635 168.236 293.144 173.545C288.317 176.119 285.261 178.371 286.065 178.371C288.478 178.371 303.118 169.523 308.587 164.697L313.413 160.515L306.978 161.641C303.439 162.123 296.522 162.606 291.374 162.445C279.791 162.123 272.874 165.019 262.739 174.51C258.234 178.693 254.213 181.589 253.73 181.106C253.087 180.624 255.821 176.28 259.682 171.615C279.148 147.645 287.835 141.371 300.865 141.371C306.978 141.371 311.483 140.245 315.826 137.832C322.1 134.293 324.835 130.432 319.687 132.362Z" fill="black"/>
</svg>
