<svg width="29" height="29" viewBox="0 0 29 29" fill="none" xmlns="http://www.w3.org/2000/svg">
<path fill-rule="evenodd" clip-rule="evenodd" d="M20.75 5H19.25V7.25H17V8.75H19.25V11H20.75V8.75H23V7.25H20.75V5Z" fill="white"/>
<path fill-rule="evenodd" clip-rule="evenodd" d="M23.9988 8.09858C23.9972 8.16463 23.994 8.23028 23.9893 8.2955C23.9989 8.22956 24.002 8.16365 23.9988 8.09858ZM22.5088 11.1156L20.1086 15.4683C19.7518 16.1193 19.059 16.5498 18.2718 16.5498H10.4522L9.29766 18.6497H21.893V20.7497H9.29766C7.70225 20.7497 6.69463 19.0382 7.46084 17.6312L8.87782 15.0693L5.09922 7.09996H3V5H6.43223L7.41886 7.09996H16.1017C16.0351 7.38925 16 7.69052 16 8C16 8.41818 16.0642 8.82138 16.1832 9.20027H8.41602L10.9036 14.4502H18.2719L19.633 11.9834C19.7539 11.9944 19.8763 12 20 12C20.95 12 21.8227 11.6688 22.5088 11.1156ZM7.20801 23.9C7.20801 22.745 8.14216 21.8 9.29673 21.8C10.4513 21.8 11.396 22.745 11.396 23.9C11.396 25.055 10.4513 26 9.29673 26C8.14216 26 7.20801 25.055 7.20801 23.9ZM19.7928 21.8C18.6383 21.8 17.7041 22.745 17.7041 23.9C17.7041 25.055 18.6383 26 19.7928 26C20.9474 26 21.892 25.055 21.892 23.9C21.892 22.745 20.9474 21.8 19.7928 21.8Z" fill="white"/>
<circle cx="20" cy="8" r="5" stroke="white" stroke-width="2"/>
</svg>
