<svg width="25" height="25" viewBox="0 0 25 25" fill="none" xmlns="http://www.w3.org/2000/svg">
<path fill-rule="evenodd" clip-rule="evenodd" d="M20.3674 12.4625C19.9426 13.2375 19.1179 13.75 18.1807 13.75H8.87171L7.49722 16.25H22.4916V18.75H7.49722C5.59792 18.75 4.39837 16.7125 5.31053 15.0375L6.9974 11.9875L2.49907 2.5H0V0H4.08598L5.26055 2.5H23.7537C24.7033 2.5 25.3031 3.525 24.8408 4.35L20.3674 12.4625ZM21.6295 5H6.44767L9.40907 11.25H18.1808L21.6295 5ZM7.49681 20C6.12232 20 5.01024 21.125 5.01024 22.5C5.01024 23.875 6.12232 25 7.49681 25C8.8713 25 9.99588 23.875 9.99588 22.5C9.99588 21.125 8.8713 20 7.49681 20ZM17.5057 22.5C17.5057 21.125 18.6178 20 19.9923 20C21.3668 20 22.4914 21.125 22.4914 22.5C22.4914 23.875 21.3668 25 19.9923 25C18.6178 25 17.5057 23.875 17.5057 22.5Z" fill="black"/>
</svg>
