<svg width="22" height="21" viewBox="0 0 22 21" fill="black" xmlns="http://www.w3.org/2000/svg">
<path fill-rule="evenodd" clip-rule="evenodd" d="M17.5054 10.4682C17.1485 11.1192 16.4558 11.5497 15.6686 11.5497H7.84896L6.69439 13.6497H19.2897V15.7496H6.69439C5.09898 15.7496 4.09136 14.0382 4.85757 12.6312L6.27455 10.0692L2.49595 2.0999H0.396729V-6.10352e-05H3.82895L4.81559 2.0999H20.3498C21.1475 2.0999 21.6513 2.96088 21.263 3.65387L17.5054 10.4682ZM18.5655 4.20021H5.81274L8.30032 9.45011H15.6686L18.5655 4.20021ZM6.69346 16.8C5.53889 16.8 4.60474 17.745 4.60474 18.8999C4.60474 20.0549 5.53889 20.9999 6.69346 20.9999C7.84803 20.9999 8.79268 20.0549 8.79268 18.8999C8.79268 17.745 7.84803 16.8 6.69346 16.8ZM15.1008 18.8999C15.1008 17.745 16.035 16.8 17.1896 16.8C18.3441 16.8 19.2888 17.745 19.2888 18.8999C19.2888 20.0549 18.3441 20.9999 17.1896 20.9999C16.035 20.9999 15.1008 20.0549 15.1008 18.8999Z" fill="white"/>
</svg>
