<svg width="22" height="20" viewBox="0 0 22 20" fill="none" xmlns="http://www.w3.org/2000/svg">
<path fill-rule="evenodd" clip-rule="evenodd" d="M17.2964 9.97C16.9563 10.59 16.2964 11 15.5464 11H8.09631L6.99634 13H18.9963V15H6.99634C5.47632 15 4.51636 13.37 5.24634 12.03L6.59631 9.59L2.99634 2H0.996338V0H4.26636L5.2063 2H20.0063C20.7664 2 21.2463 2.82001 20.8763 3.48001L17.2964 9.97ZM18.3064 4H6.15637L8.52637 9H15.5464L18.3064 4ZM6.99634 16C5.89636 16 5.00635 16.9 5.00635 18C5.00635 19.1 5.89636 20 6.99634 20C8.09631 20 8.99634 19.1 8.99634 18C8.99634 16.9 8.09631 16 6.99634 16ZM15.0063 18C15.0063 16.9 15.8964 16 16.9963 16C18.0963 16 18.9963 16.9 18.9963 18C18.9963 19.1 18.0963 20 16.9963 20C15.8964 20 15.0063 19.1 15.0063 18Z" fill="#874D32"/>
</svg>
