<svg id="Layer_1" data-name="Layer 1" xmlns="http://www.w3.org/2000/svg" viewBox="0 0 156.35 107.74"><defs><style>.cls-1{fill:#884e34;}</style></defs><path class="cls-1" d="M63.85,11.49A40.52,40.52,0,0,0,41,9.34c0,.11,0,.2,0,.26,1.51,2.71,1,5.08-1.14,7.25-.75.76-1.37,1.66-2.07,2.49a4.63,4.63,0,0,1-5.39,1.46c-1.79-.67-3.55-1.4-5.31-2.15a3.55,3.55,0,0,1-1.81-1.47c-.41-.78-.76-.58-1.32-.14C15,24.15,9.51,33.36,8.4,44.75,6.81,61.17,13.16,74.07,26.73,83.42a3.22,3.22,0,0,1,1.58,1.69A2.48,2.48,0,0,1,27.4,88a2.59,2.59,0,0,1-3.13,0A45.35,45.35,0,0,1,11.44,76,45.92,45.92,0,0,1,17.67,15.5a31.14,31.14,0,0,1,5.09-4,2.68,2.68,0,0,0,1.48-2.8c-.13-2.31,1.2-4.41,3.33-4.65,3.44-.39,7-1.33,10.38.37a1.28,1.28,0,0,0,1,0,45.26,45.26,0,0,1,31,4.09,1.93,1.93,0,0,0,1.54.1,45.72,45.72,0,0,1,28.07.94c2.92,1,3.94,2.47,3.94,5.6,0,1.53,0,3.08,0,4.61a2.36,2.36,0,0,0,.83,2c1.59,1.52,3.11,3.13,4.7,4.66a5.1,5.1,0,0,1,1.64,3.89c0,2.87,0,5.74,0,8.61a2.07,2.07,0,0,0,.69,1.65c1.62,1.56,3.2,3.15,4.79,4.74,1.32,1.31,2,3,1.33,4.66-1.16,2.79-.51,4.87,1.69,6.72a2.26,2.26,0,0,1,.77,2.25A2.51,2.51,0,0,1,118.09,61a2.38,2.38,0,0,1-2.63-.63c-1.14-1.21-2.26-2.45-3.28-3.76a3.88,3.88,0,0,1-.72-4c1.22-2.76.24-4.53-1.84-6.49-4.71-4.43-4.25-3.21-4.25-10,0-1.67,0-3.33,0-5a1.94,1.94,0,0,0-.64-1.53c-1.61-1.56-3.18-3.18-4.78-4.75a5.32,5.32,0,0,1-1.73-4.24c.07-1.62,0-3.24,0-4.86a1.21,1.21,0,0,0-1-1.42,40.71,40.71,0,0,0-39.49,7.36,2.65,2.65,0,0,1-3.88-.24,2.59,2.59,0,0,1,.54-3.75,43.3,43.3,0,0,1,7.6-5.2C62.56,12.22,63.06,11.93,63.85,11.49Zm-34.43-.14c0,3.25-.39,2.46,1.68,3.33C34.23,16,34.24,16,36.23,13a1,1,0,0,0,.09-1C35.2,8.74,35.2,8.74,31.76,8.84,29.42,8.91,29.42,8.91,29.42,11.35Z"/><path class="cls-1" d="M56,89.15a48.7,48.7,0,0,1-6.9-6.59,1.09,1.09,0,0,0-1-.34A4.46,4.46,0,0,1,44.94,81c-1.56-1.44-3.14-2.85-4.65-4.34a4.24,4.24,0,0,1-1.11-5.13c1.3-2.56,1-4.89.35-7.58-3.59-15-.47-28.49,9.19-40.48,1.15-1.42,2.74-1.65,3.91-.64s1.26,2.53.08,3.95A40.69,40.69,0,0,0,69.93,90.94c.77.29,1.26.41,1.51-.63a3.78,3.78,0,0,1,1.44-2c1.31-1.08,2.6-2.2,3.92-3.28a4.67,4.67,0,0,1,6-.34c1.09.69,2.15,1.43,3.25,2.09a5,5,0,0,1,2.69,5.3c-.12.89.12,1.06,1,.93a40.34,40.34,0,0,0,23.45-11.93,41.23,41.23,0,0,0,8.27-12.36,1.38,1.38,0,0,0-.3-1.86,11.74,11.74,0,0,1-1.23-1.4,2.6,2.6,0,0,1,.26-3.51,2.54,2.54,0,0,1,3.6.06A26,26,0,0,1,126.26,65a4.66,4.66,0,0,1,.37,4.74A45.94,45.94,0,0,1,88.34,98.43a1.3,1.3,0,0,0-1.09.44,5.29,5.29,0,0,1-3,1.81c-1.68.45-3.36.94-5,1.41-2.94.82-5.37-.43-6.2-3.37a2.56,2.56,0,0,0-2.11-2A36.41,36.41,0,0,1,63,93.56a2.21,2.21,0,0,0-1.76-.18A45.48,45.48,0,0,1,32,91.94c-.27-.11-.54-.21-.81-.33a2.6,2.6,0,0,1-1.51-3.38,2.58,2.58,0,0,1,3.52-1.42,44.48,44.48,0,0,0,6.39,2.06,40.81,40.81,0,0,0,15.61.54A5.69,5.69,0,0,0,56,89.15ZM83.5,92.09c0-.74-3-3-3.63-2.8-.15,0-.26.2-.39.3-3.2,2.41-3.2,2.41-2,6.29.07.24.15.47.22.71a.4.4,0,0,0,.54.34,20,20,0,0,0,4.59-1.43c.9-.54.29-2.11.62-3.16A2.11,2.11,0,0,0,83.5,92.09Z"/><path class="cls-1" d="M137.62,24c1.5,0,3,0,4.49,0a4.33,4.33,0,0,1,3.07,1.18,13.8,13.8,0,0,1,3,5,2.46,2.46,0,0,1-1.35,2.93,2.59,2.59,0,0,1-3.07-.6,1.59,1.59,0,0,1-.43-.61c-.68-2.37-2.27-3-4.59-2.71a21.8,21.8,0,0,1-4.12,0c-.8,0-1,.26-.95,1,0,2.12,0,4.24,0,6.36a1.82,1.82,0,0,0,.58,1.43c1.52,1.47,3,3,4.51,4.49a1.52,1.52,0,0,0,1.19.54c2.08,0,4.16-.05,6.23,0,.84,0,.87-.32.69-1-.35-1.28-.65-2.57-1-3.86a2.59,2.59,0,1,1,4.93-1.6,31.33,31.33,0,0,1,1.5,6.54,4.58,4.58,0,0,1-4.36,5.07c-3,.09-6.07,0-9.1,0a4.4,4.4,0,0,1-3.11-1.4c-2-1.93-3.89-3.87-5.83-5.82a4.84,4.84,0,0,1-1.46-3.59c0-2.87,0-5.74,0-8.61a4.69,4.69,0,0,1,4.8-4.81c1.46,0,2.91,0,4.37,0Z"/><path class="cls-1" d="M115.56,4.32a45.06,45.06,0,0,1,17.51,5.1,4.43,4.43,0,0,1,2.46,4.3,4.38,4.38,0,0,1-2.62,4.08c-2.28,1.08-4.62,2.06-7,3.05a4.36,4.36,0,0,1-3.4,0l-7.77-3a4.56,4.56,0,0,1-2.64-2.51c-.6-1.36-1.23-2.72-1.82-4.1C108.74,7.48,111,4.16,115.56,4.32Zm14.15,9.22a40.81,40.81,0,0,0-14.42-4,19.75,19.75,0,0,1,.85,2,2.91,2.91,0,0,0,2.17,2.11c1.73.55,3.4,1.29,5.1,2a1.48,1.48,0,0,0,1.19.18Z"/><path class="cls-1" d="M132.79,64.4c0-1.87,0-3.74,0-5.61A5,5,0,0,1,135,54.3c.88-.63,1.72-1.3,2.61-1.92a4.67,4.67,0,0,1,5.88.12c2.08,1.65,4.15,3.33,6.17,5.06a4.71,4.71,0,0,1,.74,6.87A45.7,45.7,0,0,1,140.81,74a4.55,4.55,0,0,1-4.93.52,4.4,4.4,0,0,1-2.69-4.15c0-2,0-4,0-6ZM138,69l.51.14a39.33,39.33,0,0,0,7.29-7.35c.43-.55-.1-.75-.37-1-1.3-1.09-2.61-2.18-3.95-3.21-.4-.31-.76-1.16-1.38-.62-.77.69-2.13.83-2.11,2.32C138.05,62.57,138,65.81,138,69Z"/><path class="cls-1" d="M92.07,53.77c2.32.23,4.6.38,6.86.68a4.89,4.89,0,0,1,4.32,4.06c.39,1.78.79,3.57,1.15,5.36a4.85,4.85,0,0,1-1.58,4.85c-1.49,1.32-3.06,2.56-4.64,3.78a4.82,4.82,0,0,1-5.5.44c-2.17-1.13-4.31-2.33-6.42-3.57a5,5,0,0,1-2.1-6.68c1.06-2.16,2.21-4.28,3.39-6.38A5,5,0,0,1,92.07,53.77Zm.77,5.32a.94.94,0,0,0-1.25.6c-.47,1-1,1.91-1.5,2.86-1.24,2.33-1.24,2.33,1.11,3.62l.44.24C92.76,67,93.89,68.1,95,68.1s2-1.44,3-2.19c.27-.2.51-.42.78-.62a.85.85,0,0,0,.36-1c-.33-1.37-.64-2.75-.91-4.13a.76.76,0,0,0-.82-.72C95.9,59.37,94.33,59.22,92.84,59.09Z"/><path class="cls-1" d="M36.57,53.61c.23,3.32-.76,4.91-3.15,5.91-1.49.63-3,1.29-4.46,1.9a4.71,4.71,0,0,1-5.49-1.06c-1.27-1.26-2.58-2.48-3.83-3.75a4.69,4.69,0,0,1-.17-7q2-2.16,4-4.29A4.63,4.63,0,0,1,28.69,44c1.52.53,3,1.14,4.51,1.76a4.59,4.59,0,0,1,3,3.85C36.36,51.22,36.49,52.79,36.57,53.61ZM31.41,54a15.2,15.2,0,0,1-.24-2.24,1.53,1.53,0,0,0-1.23-1.69c-2.81-1.05-2.8-1.1-4.89,1.17a5.79,5.79,0,0,1-.69.71c-.9.7-.8,1.25,0,2,2.7,2.6,2.66,2.61,6.11,1.12C31.16,54.85,31.58,54.55,31.41,54Z"/><path class="cls-1" d="M61.46,47.21c1.78.17,3.56.31,5.33.51a4.54,4.54,0,0,1,4,3.57c.4,1.65.73,3.32,1.06,5a4.46,4.46,0,0,1-1.59,4.46c-1.19,1-2.43,2-3.66,3a4.66,4.66,0,0,1-5.47.49c-1.78-1-3.56-2-5.32-3a4.67,4.67,0,0,1-1.91-6.44c.81-1.6,1.65-3.17,2.47-4.75A4.85,4.85,0,0,1,61.46,47.21Zm.35,5.23c-.58-.24-1,.23-1.31,1a13.81,13.81,0,0,1-.72,1.44c-1.1,2.06-1.1,2.06.92,3.16,2.82,1.55,2.8,1.52,5.29-.48a1.35,1.35,0,0,0,.53-1.6,6.37,6.37,0,0,1-.26-1.21c-.09-1.46-.7-2.25-2.3-2.06A10.63,10.63,0,0,1,61.81,52.44Z"/><path class="cls-1" d="M84.61,29.79c-.18,1.74-.29,3.48-.54,5.21a4.32,4.32,0,0,1-3.37,3.74,49.45,49.45,0,0,1-5.34,1.18,4.46,4.46,0,0,1-4.23-1.63q-1.59-1.83-3.07-3.77a4.67,4.67,0,0,1-.41-5.47c.91-1.68,1.87-3.33,2.8-5C72,21.4,74.39,20.62,77.1,22c1.52.76,3,1.59,4.53,2.34A5,5,0,0,1,84.61,29.79Zm-5.3.62c.42-1.06-.22-1.72-1.33-2.14-.31-.12-.59-.3-.89-.45-2.17-1.11-2.17-1.11-3.39,1.09-1.42,2.57-1.39,2.55.44,4.87a1.58,1.58,0,0,0,1.85.73C79.1,33.81,79.11,33.85,79.31,30.41Z"/><path class="cls-1" d="M120.92,40.3c-5,0-7.42-4-5.51-7.67.56-1.06,1.08-2.15,1.67-3.2a4.72,4.72,0,0,1,6.45-1.89c2.8,1.39,3.92,3.88,2.8,6.43a40.51,40.51,0,0,1-2.06,4A4.35,4.35,0,0,1,120.92,40.3Z"/><path class="cls-1" d="M25.11,71.08c-1.32-1.28-1.61-2.33-1-3.51a2.47,2.47,0,0,1,2.66-1.42A2.43,2.43,0,0,1,28.9,68a2.5,2.5,0,0,1-.76,2.7c-.3.3-.78.37-.21,1a2.51,2.51,0,0,1,0,3.85,2.6,2.6,0,0,1-3.69-.26c-1-1.18-.78-2.77.58-3.91Z"/><path class="cls-1" d="M57.65,36.72c-.87,1.2-.08,1.85,1,2.65s.88,2.3.11,3.28a2.57,2.57,0,0,1-3.24.69,2.46,2.46,0,0,1-1.25-3.05c.35-.84.33-1.18-.58-1.59a2.4,2.4,0,0,1-1.11-3.1,2.59,2.59,0,0,1,3-1.6A2.63,2.63,0,0,1,57.65,36.72Z"/><path class="cls-1" d="M23.68,35.19a7.59,7.59,0,0,1,3.76,2.09,2.3,2.3,0,0,1,.07,3,2.36,2.36,0,0,1-2.83,1,10.7,10.7,0,0,1-3-1.54,2.36,2.36,0,0,1-.78-2.9A2.56,2.56,0,0,1,23.68,35.19Z"/><path class="cls-1" d="M40.31,24.74a2.56,2.56,0,0,1,2.59,3.31,9.66,9.66,0,0,1-1.56,3,2.55,2.55,0,0,1-4.51-1.66,6.64,6.64,0,0,1,2.08-4.11A1.81,1.81,0,0,1,40.31,24.74Z"/><path class="cls-1" d="M87.21,31.2a2.43,2.43,0,0,1,1.44-2.28,2.39,2.39,0,0,1,2.69.29,15.43,15.43,0,0,1,2.1,2.1,2.57,2.57,0,0,1-3.79,3.45C89,34.21,88.46,33.6,87.88,33A2.33,2.33,0,0,1,87.21,31.2Z"/><path class="cls-1" d="M63.21,74a2.56,2.56,0,0,1-2.14-3.88,8.75,8.75,0,0,1,2.54-2.53,2.33,2.33,0,0,1,3,.29,2.4,2.4,0,0,1,.74,2.81C66.83,72.07,64.49,74,63.21,74Z"/><path class="cls-1" d="M89.92,17.26c.45,0,.91,0,1.36,0a2.57,2.57,0,0,1,.38,5,8.07,8.07,0,0,1-3.46,0,2.57,2.57,0,0,1,.47-5.09c.42,0,.83,0,1.25,0Z"/><path class="cls-1" d="M85.31,76.21A2.38,2.38,0,0,1,84,78.44a2.35,2.35,0,0,1-2.69-.12A14.46,14.46,0,0,1,79,76a2.47,2.47,0,0,1,.33-3.37,2.52,2.52,0,0,1,3.49,0c.61.56,1.17,1.17,1.77,1.75A2.41,2.41,0,0,1,85.31,76.21Z"/><path class="cls-1" d="M92.26,47.14a2.58,2.58,0,0,1,2.57-2.63,2.62,2.62,0,1,1,0,5.23A2.6,2.6,0,0,1,92.26,47.14Z"/><path class="cls-1" d="M46.87,21.13a2.58,2.58,0,0,1-2.59,2.61,2.69,2.69,0,0,1-2.62-2.62,2.66,2.66,0,0,1,2.64-2.6A2.53,2.53,0,0,1,46.87,21.13Z"/><path class="cls-1" d="M88.3,83.5a2.57,2.57,0,0,1-2.59-2.6,2.62,2.62,0,0,1,2.6-2.61,2.65,2.65,0,0,1,2.6,2.63A2.58,2.58,0,0,1,88.3,83.5Z"/><path class="cls-1" d="M78.83,43.65a2.49,2.49,0,0,1-2.53,2.62,2.64,2.64,0,0,1-2.67-2.54,2.73,2.73,0,0,1,2.59-2.68A2.63,2.63,0,0,1,78.83,43.65Z"/><path class="cls-1" d="M108.07,74.14a2.52,2.52,0,0,1-2.55,2.62,2.62,2.62,0,0,1-2.66-2.55,2.69,2.69,0,0,1,2.57-2.66A2.65,2.65,0,0,1,108.07,74.14Z"/></svg>