<svg width="25" height="28" viewBox="0 0 25 28" fill="none" xmlns="http://www.w3.org/2000/svg">
    <path d="M9.64751 27.8129C8.82255 27.5826 8.53864 27.2826 7.91724 25.9916C7.65475 25.4505 7.37084 24.8988 7.28513 24.7756C7.028 24.4006 6.59945 23.9988 6.10126 23.6613C5.5495 23.2917 5.09417 22.8149 4.88525 22.381L4.73526 22.0703L4.48884 22.1828C4.26386 22.29 4.15672 22.2953 2.90857 22.2953C1.66042 22.2953 1.55328 22.29 1.32829 22.1828C0.980094 22.0221 0.765819 21.8186 0.61047 21.5079C0.476548 21.2454 0.471191 21.1864 0.471191 20.3561C0.471191 19.5526 0.481905 19.4722 0.578329 19.3758C0.69618 19.258 0.947953 19.2365 1.11402 19.3223C1.26937 19.408 1.32829 19.7133 1.32829 20.4365C1.32829 21.09 1.32829 21.1007 1.47828 21.2507C1.68184 21.4489 1.89076 21.4757 3.10677 21.4543C4.0228 21.4382 4.11922 21.4275 4.2585 21.3257C4.33885 21.2668 4.43528 21.1329 4.47277 21.0311C4.55848 20.79 4.5692 12.8619 4.48884 12.5619C4.4567 12.4548 4.36028 12.3048 4.26921 12.2298L4.10315 12.0905H2.90321H1.70327L1.53185 12.2458L1.35508 12.4012L1.32829 15.3314L1.30151 18.2616L1.15151 18.3902C0.96938 18.5455 0.79796 18.5562 0.61047 18.4062L0.471191 18.2991V15.2885C0.471191 12.3958 0.476548 12.278 0.578329 12.0637C0.728321 11.7584 0.985451 11.5066 1.31222 11.3566C1.58542 11.228 1.6122 11.228 2.97285 11.2441C4.27457 11.2602 4.36564 11.2655 4.57991 11.378L4.79954 11.4959L5.10488 11.3298C5.64057 11.0405 5.80663 11.0191 7.6119 11.0191H9.25646V9.12278C9.25646 7.04967 9.26717 6.96396 9.57251 6.57826C9.65822 6.47113 9.85643 6.31042 10.0171 6.21935L10.301 6.064L11.5706 6.04793C12.8241 6.02651 13.0491 6.04793 13.4723 6.23007C13.5045 6.24614 13.6116 6.11222 13.708 5.92473C13.9598 5.45868 14.3401 5.06227 14.8919 4.69265C15.7811 4.09268 16.0972 3.69091 16.7025 2.39455C17.265 1.1839 17.4525 0.95355 18.1328 0.637494C18.406 0.514286 18.5078 0.492859 18.9792 0.492859C19.7131 0.498216 20.0291 0.621424 20.5112 1.10354C20.7737 1.36603 20.8969 1.53745 20.988 1.77851C21.1326 2.16956 21.1862 2.78024 21.1005 3.12844C21.063 3.26772 20.7577 3.97482 20.4202 4.68729C20.0827 5.40511 19.8095 6.00508 19.8095 6.01579C19.8095 6.02651 20.3505 6.03722 21.0148 6.03722C22.1504 6.03722 22.2254 6.04258 22.3272 6.14436C22.4665 6.28364 22.4665 6.57291 22.3326 6.73897L22.2308 6.86753H20.597C18.2881 6.86753 18.3631 7.01753 19.4667 4.68193C20.0827 3.37486 20.2595 2.94631 20.2809 2.72667C20.3612 1.82136 19.4399 1.09819 18.5828 1.40353C18.1167 1.56423 18.0149 1.6928 17.4525 2.84452C16.7186 4.33373 16.3757 4.75693 15.3633 5.42654C14.7633 5.81759 14.4258 6.26756 14.2705 6.86753C14.2008 7.12466 14.1848 7.54786 14.1848 9.14956V11.1155L14.3508 11.1798C14.608 11.287 14.983 11.6887 15.1383 12.0262C15.3794 12.5565 15.2937 13.3868 14.9562 13.7565C14.8865 13.8315 14.8972 13.8529 15.0687 13.9707C15.299 14.1261 15.5561 14.4743 15.6579 14.7743C15.824 15.235 15.7329 15.9528 15.4704 16.3278L15.3579 16.4831H18.9524C22.1665 16.4831 22.5736 16.4724 22.7343 16.3974C23.2325 16.1617 23.3825 15.4975 23.0397 15.085C22.8736 14.8921 22.5361 14.7207 22.3165 14.7153C22.1022 14.7153 21.9522 14.5439 21.9522 14.2975C21.9522 13.9761 22.0808 13.8957 22.6379 13.8582C23.179 13.8208 23.3879 13.7297 23.5647 13.4458C23.9075 12.894 23.5379 12.203 22.8522 12.1119C22.4183 12.053 22.2469 11.7155 22.5094 11.4155C22.6218 11.2762 22.6754 11.2655 23.12 11.2387C23.6557 11.2012 23.8057 11.1316 24.0307 10.8048C24.1914 10.5638 24.1914 10.1888 24.0307 9.94773C23.7896 9.59418 23.495 9.47097 22.9058 9.46562C22.6433 9.46562 22.5897 9.44955 22.4933 9.32634C22.2576 9.02635 22.429 8.68887 22.8522 8.6353C23.6718 8.51745 23.9664 7.69785 23.3986 7.10859C23.2218 6.92646 23.1843 6.84611 23.1843 6.68004C23.1843 6.51934 23.2165 6.4497 23.3236 6.36399C23.5004 6.22471 23.645 6.22471 23.8593 6.35327C24.2664 6.59969 24.545 7.17288 24.545 7.75142C24.5503 8.10497 24.5235 8.20675 24.3789 8.50674L24.2075 8.85493L24.5182 9.17635C24.9146 9.58347 25.0271 9.88881 24.9949 10.4727C24.9682 11.0405 24.7325 11.4852 24.3039 11.7851L24.1968 11.8655L24.3307 12.1226C24.6092 12.669 24.636 13.2154 24.395 13.7297C24.2718 13.9922 23.9932 14.3297 23.8111 14.4261C23.7254 14.4743 23.7307 14.5064 23.8914 14.8225C24.0521 15.1278 24.0682 15.2028 24.0628 15.6207C24.0628 15.9956 24.0361 16.1349 23.9343 16.3492C23.7521 16.7242 23.3611 17.0938 22.9968 17.2277C22.7076 17.3349 22.6058 17.3402 19.4077 17.3402H16.124L16.1775 17.5438C16.2525 17.8223 16.2043 18.3955 16.0758 18.6848C15.9686 18.9312 15.6365 19.3115 15.449 19.4133C15.3472 19.4669 15.3472 19.4722 15.4597 19.6115C15.7758 20.0187 15.8293 20.8704 15.5669 21.3847C15.3794 21.7436 15.0205 22.065 14.6455 22.2096C14.3616 22.3167 14.2437 22.3221 12.6849 22.3221C11.7688 22.3221 11.0242 22.3382 11.0242 22.3542C11.0242 22.3703 11.2921 22.9542 11.6188 23.6506C11.9456 24.3524 12.2509 25.0648 12.2938 25.2416C12.5563 26.2648 11.9349 27.4004 10.9171 27.7593C10.5689 27.8825 9.98499 27.9093 9.64751 27.8129ZM10.5153 26.9772C11.0778 26.8219 11.4796 26.3023 11.4796 25.7237C11.4796 25.4237 11.4313 25.3059 10.6867 23.7202C10.2528 22.7989 9.89928 21.9793 9.89928 21.9096C9.89928 21.7436 9.97964 21.5989 10.0975 21.54C10.1511 21.5132 11.126 21.4811 12.267 21.465C14.2598 21.4382 14.3455 21.4329 14.4901 21.3257C14.7419 21.1382 14.8812 20.8865 14.8812 20.624C14.8812 20.1419 14.5705 19.7937 14.0776 19.7187C13.9437 19.6972 13.783 19.633 13.7187 19.574C13.5687 19.4401 13.558 19.1669 13.6973 18.9955C13.783 18.8884 13.858 18.8669 14.2705 18.8455C14.833 18.808 15.0633 18.7009 15.2401 18.3794C15.6151 17.7206 15.1062 17.0777 14.2169 17.0724C13.9062 17.0724 13.8205 17.0509 13.7187 16.9545C13.5955 16.842 13.558 16.6385 13.6277 16.4563C13.6759 16.3438 13.9276 16.2153 14.1205 16.2153C14.3187 16.2153 14.6026 16.0278 14.758 15.7921C14.983 15.4546 14.8865 14.9403 14.5437 14.6564C14.383 14.5279 14.0455 14.4475 13.6544 14.4475C13.3759 14.4475 13.3223 14.4314 13.2259 14.3082C12.9848 14.0029 13.167 13.6761 13.633 13.5904C13.9759 13.5261 14.1473 13.4243 14.2973 13.1779C14.5544 12.7654 14.3776 12.1708 13.933 11.9512C13.7402 11.8548 13.5473 11.8494 10.1725 11.8334C8.13152 11.828 6.46017 11.8387 6.25125 11.8709C5.80663 11.9298 5.26559 12.1655 5.32987 12.2619C5.3513 12.2994 5.38344 14.3939 5.39951 16.9117L5.4263 21.4918L5.59772 21.8507C5.79592 22.2739 6.10126 22.6221 6.51374 22.8899C7.63868 23.6238 7.95474 24.0417 8.87612 25.9701C9.17611 26.6076 9.37967 26.8272 9.79215 26.9558C10.0921 27.0469 10.2421 27.0522 10.5153 26.9772ZM13.317 9.1442L13.3009 7.2693L13.1241 7.09788L12.9527 6.9211L11.801 6.90503C10.81 6.88896 10.6225 6.89968 10.4618 6.98003C10.1189 7.14073 10.1136 7.16752 10.1136 9.19777V11.0191H11.7206H13.333L13.317 9.1442Z" fill="#AF7949" />
    <path d="M15.9257 27.7967C15.69 27.6896 15.4382 27.4218 15.3525 27.2021C15.3257 27.1271 15.2293 26.7093 15.1435 26.2754C14.9668 25.3754 14.9828 25.1183 15.256 24.7433C15.6471 24.2023 16.6113 24.0898 17.1095 24.529C17.3506 24.7433 17.4202 24.8772 17.7041 25.7236C18.0095 26.6343 18.0041 26.9664 17.6773 27.4057C17.3774 27.8074 16.4131 28.0271 15.9257 27.7967ZM16.8363 26.9611C16.9542 26.9075 17.0345 26.8325 17.056 26.7468C17.0988 26.5807 16.6863 25.3165 16.547 25.1933C16.3756 25.0379 16.0114 25.1237 15.9149 25.3433C15.8507 25.4772 16.0756 26.7307 16.1989 26.9182C16.2899 27.0575 16.5524 27.0789 16.8363 26.9611Z" fill="#AF7949" />
    <path d="M19.6328 25.4612C19.3757 25.3702 19.3168 25.3112 18.7275 24.6523C18.0954 23.9506 18.0258 23.8059 18.0526 23.3078C18.0686 22.981 18.0954 22.8846 18.2293 22.6864C18.4972 22.3114 18.7865 22.14 19.2097 22.1185C19.4507 22.1025 19.6382 22.1239 19.7614 22.1775C19.981 22.2685 21.0203 23.1417 21.2185 23.4042C21.4274 23.6774 21.497 24.0363 21.4167 24.4006C21.3631 24.6523 21.2988 24.7541 21.031 25.038C20.5757 25.5041 20.1364 25.638 19.6328 25.4612ZM20.3453 24.4863C20.5864 24.272 20.6453 24.1381 20.5649 23.9934C20.5328 23.9345 20.2703 23.6827 19.981 23.4256C19.4025 22.9274 19.2846 22.8846 19.0382 23.0774C18.8186 23.2488 18.8507 23.4577 19.1561 23.8167C19.5953 24.3363 19.9489 24.6791 20.04 24.6791C20.0882 24.6791 20.2275 24.5934 20.3453 24.4863Z" fill="#AF7949" />
    <path d="M21.4969 21.7275C20.6826 21.4329 20.463 21.2882 20.2862 20.9025C20.0827 20.4633 20.2005 19.8097 20.538 19.4615C20.9183 19.0705 21.2505 19.0276 22.3433 19.2419C23.1361 19.3919 23.4039 19.5205 23.6396 19.8472C23.7896 20.0669 23.8003 20.1151 23.8003 20.5436C23.8003 20.9561 23.7789 21.0472 23.6396 21.3311C23.4093 21.7971 23.1414 21.9685 22.6325 21.9846C22.2843 21.9953 22.1718 21.9685 21.4969 21.7275ZM22.804 21.0418C23.0075 20.8382 23.0182 20.3454 22.82 20.2383C22.6593 20.1526 21.438 19.949 21.2987 19.9811C21.063 20.0401 20.9558 20.4633 21.138 20.624C21.2558 20.7311 22.3593 21.1329 22.5575 21.1382C22.6379 21.1436 22.7504 21.0954 22.804 21.0418Z" fill="#AF7949" />
    <path d="M3.81925 9.14952C2.91929 8.95667 2.92465 8.96203 2.67288 8.7049C2.36753 8.39956 2.25504 8.02458 2.34611 7.5746C2.47467 6.91035 2.7693 6.54073 3.2782 6.4068C3.59426 6.32109 3.83532 6.36395 4.67634 6.65858C5.30846 6.87821 5.45845 6.94785 5.64058 7.13534C5.99413 7.48889 6.07984 7.98172 5.88164 8.51741C5.75843 8.84954 5.5763 9.04238 5.23882 9.19238C4.92812 9.33701 4.67099 9.3263 3.81925 9.14952ZM4.96562 8.35671C5.13704 8.21743 5.17453 7.90137 5.03525 7.76209C4.97633 7.70317 4.62278 7.55317 4.24779 7.42997C3.43891 7.16212 3.36927 7.17284 3.23535 7.57996C3.16035 7.79423 3.16035 7.86923 3.20856 7.98708C3.28356 8.14779 3.3157 8.1585 4.0603 8.31921C4.76205 8.4692 4.82634 8.4692 4.96562 8.35671Z" fill="#AF7949" />
    <path d="M6.52432 6.2461C6.30469 6.17647 6.12255 6.0479 5.46902 5.48543C4.93333 5.01938 4.76727 4.77832 4.71905 4.39263C4.67084 3.94801 4.77262 3.69623 5.17975 3.29983C5.47437 3.0052 5.58687 2.93556 5.81721 2.87663C6.39575 2.74271 6.73324 2.90342 7.39213 3.65338C8.01889 4.36584 8.13138 4.56405 8.13138 4.97653C8.13138 5.35151 8.0296 5.62471 7.7939 5.86577C7.46713 6.20861 6.9368 6.36931 6.52432 6.2461ZM7.10822 5.30865C7.38678 5.07295 7.34392 4.93367 6.81359 4.31763C6.36897 3.80873 6.22969 3.68016 6.09577 3.68016C6.06363 3.68016 5.92971 3.78194 5.80114 3.8998C5.55473 4.13014 5.50116 4.28549 5.62972 4.43548C5.72079 4.54798 6.52432 5.24973 6.68503 5.35686C6.8618 5.48007 6.91537 5.47472 7.10822 5.30865Z" fill="#AF7949" />
    <path d="M9.36351 4.02834C8.93496 3.83013 8.79033 3.6105 8.45284 2.5927C8.26535 2.02487 8.22786 1.84809 8.24928 1.61239C8.30285 0.969564 8.8064 0.535658 9.56707 0.476732C10.0063 0.449948 10.2635 0.519587 10.5206 0.749933C10.7938 0.985635 10.8527 1.14098 11.0295 2.03558C11.2277 3.03732 11.1956 3.34266 10.842 3.723C10.5474 4.05512 9.77063 4.21047 9.36351 4.02834ZM10.1724 3.15517C10.2474 3.09088 10.2903 2.99982 10.2903 2.89804C10.2849 2.5927 10.0492 1.51061 9.96884 1.41954C9.79206 1.22134 9.18138 1.36062 9.1171 1.61239C9.0796 1.77309 9.48136 3.02125 9.61529 3.16052C9.73849 3.27838 10.0171 3.27838 10.1724 3.15517Z" fill="#AF7949" />
</svg>