<svg id="Capa_1" enable-background="new 0 0 512.002 512.002" height="512" viewBox="0 0 512.002 512.002" width="512" xmlns="http://www.w3.org/2000/svg"><g><path d="m510.451 284.211c-6.53 6.62-8.82 16.33-5.91 25.16l1.13 3.44c-.56 2.46-1.15 4.9-1.78 7.33-6.37 24.71-16.34 47.98-29.33 69.21l-.01.01-28.07 28.52c-12.65 12.86-26.66 24.22-41.75 33.9-15.09 9.69-31.26 17.69-48.22 23.83-64.02 23.18-134.84 18.28-195.05-13.49l-116.8-61.63s0 0-.01 0c-5.27-7.7-10.13-15.7-14.55-23.97-8.38-15.65-15.17-32.29-20.16-49.69 8.75-15.98 5.08-35.91-8.78-47.73l-.14-.12c-.12-1.41-.24-2.84-.34-4.26-.44-5.96-.66-11.99-.68-18.06-.12-46.22 12.02-89.6 33.35-127.08 43.92-77.19 126.83-129.33 221.99-129.58s178.33 51.47 222.65 128.43c13.04 22.63 22.71 47.46 28.34 73.78 3.5 16.35 5.44 33.27 5.65 50.61.01.84.02 1.68.02 2.52.03 9.761-.5 19.391-1.55 28.87z" fill="#92eaff"/><g><path d="m510.451 284.211c-6.53 6.62-8.82 16.33-5.91 25.16l1.13 3.44c-.55 2.46-1.14 4.9-1.77 7.33-6.01 23.29-15.23 45.31-27.14 65.54-.72 1.23-1.46 2.44-2.2 3.66v.01l-28.08 28.53c-12.65 12.86-26.66 24.22-41.75 33.9-15.09 9.69-31.26 17.69-48.22 23.83-64.02 23.18-134.84 18.28-195.05-13.49l-116.8-61.63c-2.85-4.15-5.58-8.4-8.18-12.72-11.35-18.86-20.33-39.31-26.54-60.94 8.75-15.98 5.08-35.91-8.78-47.73l-.14-.12c-.66-7.36-1-14.8-1.02-22.32-.12-46.22 12.02-89.6 33.35-127.08 41.88 72.72 118.47 122.91 207.08 127.98 5.15.31 10.34.45 15.57.44h.01c5.22-.01 10.41-.18 15.56-.51 88.58-5.54 164.91-56.12 206.42-129.06 21.53 37.37 33.89 80.69 34.01 126.91.02 9.761-.5 19.4-1.55 28.87z" fill="#63dbfa"/></g><g><g><path d="m474.561 389.352c-14.66 23.99-33.17 45.37-54.66 63.31h-.01l-.99.36c-105.07 38.04-220.33 36.98-324.69-2.99l-9.24-3.54c-15.19-13.65-28.74-29.1-40.31-46 9.39 3.01 16.91 8.34 27.77 5.96 15.9-3.49 25.35-19.44 43.58-14.07 6.27 1.85 11.7 5.37 17.21 8.61 5.51 3.23 11.41 6.3 17.97 7.02 22.25 2.47 30.77-30.76 53.18-23.52 5.92 1.92 11.26 5.25 17.42 6.4 14.9 2.78 23.46-7.92 34.21-14.07 3.61-2.08 7.46-3.63 11.89-3.99 14.53-1.19 24.84 14.1 39.37 15.27 18.6 1.49 32.74-19.49 50.17-6.65 9.67 7.11 14.5 25.23 29.13 25.63 8.5.23 14.83-6.53 20.08-12.46s12.59-12.25 20.91-10.69c16.23 3.03 19.82 25.43 39.19 11.21 2.59-1.901 5.1-4.04 7.82-5.79z" fill="#00a23e"/><path d="m474.561 389.352c-14.66 23.99-33.17 45.37-54.66 63.31l-1 .36c-52.63 19.05-107.81 28.3-162.9 27.75v-103.95c3.61-2.08 7.46-3.63 11.89-3.99 14.53-1.19 24.84 14.1 39.37 15.27 18.6 1.49 32.74-19.49 50.17-6.65 9.67 7.11 14.5 25.23 29.13 25.63 8.5.23 14.83-6.53 20.08-12.46s12.59-12.25 20.91-10.69c16.23 3.03 19.82 25.43 39.19 11.21 2.59-1.901 5.1-4.04 7.82-5.79z" fill="#008839"/></g><g><path d="m173.912 333.761v13.34c0 7.153-5.796 12.942-12.942 12.942h-16.511c-2.647 0-5.129 1.132-6.996 3.007l-9.838 9.838-17.958 17.958-2.917-2.917-.008-.008-2.909-2.902 27.774-27.774c1.957-1.957 3.029-4.559 3.029-7.326v-3.269c0-4.934 1.965-9.665 5.451-13.152l18.573-18.581 5.834 5.834-18.573 18.581c-1.957 1.95-3.037 4.552-3.037 7.318v3.292c0 1.02.832 1.852 1.852 1.852h16.234c2.594 0 4.694-2.1 4.694-4.694v-13.34h8.248z" fill="#b15848"/><path d="m161.577 317.835-18.573 18.581c-2.714 2.714-4.244 6.396-4.244 10.235v3.269c0 3.846-1.522 7.528-4.236 10.243l-27.774 27.766-.008-.008-2.909-2.902 27.774-27.774c1.957-1.957 3.029-4.559 3.029-7.326v-3.269c0-4.934 1.965-9.665 5.451-13.152l18.573-18.581z" fill="#a44e3e"/><path d="m173.912 333.761v13.34c0 7.153-5.796 12.942-12.942 12.942h-16.511c-2.647 0-5.129 1.132-6.996 3.007l4.881-4.881c1.441-1.44 3.395-2.25 5.432-2.25h13.195c4.866 0 8.818-3.944 8.818-8.818v-13.34z" fill="#a44e3e"/><g><path d="m107.372 401.141-2.917 2.917-2.917 2.917-26.162-26.162c-.78-.78-1.83-1.215-2.932-1.215h-14.059c-6.846 0-12.395-5.549-12.395-12.387v-11.292h8.248v11.292c0 2.287 1.86 4.139 4.147 4.139h9.515c2.122 0 3.847-1.725 3.847-3.847v-7.641h8.248v12.312c0 1.057.45 2.047 1.2 2.797.007 0 .007.007.015.007z" fill="#b15848"/><g fill="#a44e3e"><path d="m104.455 404.058-2.917 2.917-26.162-26.162c-.78-.78-1.83-1.215-2.932-1.215h-14.059c-6.846 0-12.395-5.549-12.395-12.387v-11.292h4.124v11.292c0 4.566 3.704 8.263 8.271 8.263h14.059c2.197 0 4.297.87 5.849 2.422z"/><path d="m81.195 374.972-4.002-4.002c-.846-.846-1.322-1.995-1.322-3.192v-7.916h4.124v12.312c0 1.058.45 2.048 1.2 2.798z"/></g></g><g><path d="m107.372 364.332-5.834 5.834-19.556-19.556c-4.259-4.259-10.033-6.651-16.054-6.651h-2.234c-8.271 0-16.047-3.224-21.888-9.073l-16.849-16.841 2.917-2.917 2.917-2.917 16.841 16.849c4.259 4.259 10.04 6.651 16.062 6.651h2.227c.322 0 .637 0 .952.015 3.322.097 6.044-2.61 6.044-5.924v-21.648h8.248v28.314c0 1.222.382 2.392 1.057 3.367.39.57.885 1.065 1.462 1.47 1.47 1.035 2.849 2.19 4.132 3.472z" fill="#b15848"/><g fill="#a44e3e"><path d="m104.455 367.249-2.917 2.917-19.556-19.556c-4.259-4.259-10.033-6.651-16.062-6.651h-2.227c-8.271 0-16.047-3.224-21.888-9.073l-16.849-16.841 2.917-2.917 16.849 16.849c5.031 5.031 11.855 7.858 18.971 7.858h2.227c7.123 0 13.947 2.827 18.978 7.858z"/><path d="m82.222 339.835-2.167-2.004c-1.922-1.777-3.014-4.276-3.014-6.893v-22.783h4.124v28.314c0 1.221.382 2.391 1.057 3.366z"/></g></g><path d="m116.131 316.691v141.55c-3.73-1.3-7.44-2.66-11.13-4.08l-.55-.21-11.67-4.47v-132.79z" fill="#b15848"/><path d="m116.131 316.691v141.55c-3.73-1.3-7.44-2.66-11.13-4.08l-.55-.21v-137.26z" fill="#a44e3e"/><path d="m92.781 316.691h23.35v17.8h-23.35z" fill="#a44e3e"/><path d="m104.451 316.691h11.68v17.8h-11.68z" fill="#913d31"/><g><path d="" fill="#b15848"/></g><g><path d="m171.004 274.498h-142.838c-8.582 0-14.961-8.381-12.199-16.507.018-.054.037-.107.055-.161 1.872-5.487 5.077-10.667 9.795-14.052 4.692-3.411 12.129-5.539 17.616-3.59 0-8.488 4.898-16.77 12.308-20.898 7.411-4.103 17.924-3.949 25.129.513 3.846-11.334 15.232-19.719 27.232-20.001 11.975-.282 23.847 7.564 28.206 18.719 8.667-4.513 20.129-2.923 27.232 3.795s9.693 18.822 5.667 27.745c5.59.821 10.231 5.923 10.539 11.565s-3.075 12.872-8.742 12.872z" fill="#43af3e"/><path d="m144.41 274.498h-90.047c-5.41 0-9.431-5.284-7.691-10.406.012-.034.023-.068.035-.102 1.18-3.459 3.201-6.725 6.175-8.858 2.958-2.15 7.646-3.492 11.105-2.263 0-5.351 3.087-10.572 7.759-13.175 4.672-2.586 11.299-2.489 15.842.323 2.425-7.145 9.602-12.431 17.168-12.609 7.549-.178 15.034 4.769 17.782 11.801 5.464-2.845 12.69-1.843 17.167 2.392 4.478 4.235 6.111 11.865 3.572 17.491 3.524.517 6.45 3.734 6.644 7.291.195 3.557-1.939 8.115-5.511 8.115z" fill="#00a23e"/></g><g><path d="m98.889 365.983h-66.464c-3.993 0-6.961-3.9-5.677-7.681.008-.025.017-.05.026-.075.871-2.553 2.362-4.964 4.558-6.539 2.183-1.587 5.644-2.577 8.197-1.67 0-3.949 2.279-7.803 5.727-9.724 3.448-1.909 8.34-1.837 11.693.239 1.79-5.274 7.087-9.176 12.671-9.307 5.572-.131 11.097 3.52 13.125 8.71 4.033-2.1 9.367-1.36 12.672 1.766s4.51 8.758 2.637 12.91c2.601.382 4.761 2.756 4.904 5.381.143 2.626-1.432 5.99-4.069 5.99z" fill="#43af3e"/><path d="m86.515 365.983h-41.9c-2.517 0-4.389-2.459-3.579-4.842.005-.016.011-.032.016-.047.549-1.61 1.489-3.129 2.873-4.122 1.376-1 3.558-1.625 5.168-1.053 0-2.49 1.437-4.919 3.611-6.13 2.174-1.203 5.258-1.158 7.372.151 1.128-3.325 4.468-5.784 7.988-5.867 3.513-.083 6.995 2.219 8.274 5.491 2.542-1.324 5.905-.858 7.988 1.113 2.084 1.971 2.843 5.521 1.662 8.139 1.64.241 3.001 1.738 3.091 3.392.091 1.654-.902 3.775-2.564 3.775z" fill="#00a23e"/></g><g><path d="m119.461 308.341h-114.09c-1.15-5.48-2.11-11.02-2.89-16.62-.59-4.22-1.08-8.46-1.46-12.74 3.02-.87 6.24-1.05 8.92-.1 0-7.29 4.2-14.4 10.57-17.94 6.36-3.52 15.38-3.39 21.57.44 3.3-9.73 13.08-16.93 23.38-17.17 10.28-.25 20.47 6.49 24.22 16.07 7.44-3.88 17.28-2.51 23.38 3.26 6.1 5.76 8.32 16.15 4.86 23.82 4.8.7 8.79 5.08 9.05 9.92.26 4.85-2.64 11.06-7.51 11.06z" fill="#5dbf1d"/><path d="m96.632 308.338h-77.31c-4.645 0-8.097-4.536-6.603-8.934l.03-.087c1.013-2.97 2.748-5.773 5.302-7.605 2.54-1.846 6.564-2.998 9.535-1.943 0-4.594 2.651-9.077 6.662-11.311 4.011-2.221 9.701-2.137 13.601.277 2.082-6.134 8.244-10.673 14.739-10.825 6.481-.153 12.907 4.094 15.266 10.131 4.691-2.443 10.895-1.582 14.739 2.054s5.246 10.187 3.067 15.017c3.025.444 5.537 3.206 5.704 6.259s-1.665 6.967-4.732 6.967z" fill="#43af3e"/></g><g><path d="m56.791 326.832h-46.85c-.52-1.8-1.02-3.6-1.5-5.41-1.14-4.31-2.16-8.67-3.07-13.08-.53-2.51-1.01-5.04-1.45-7.57 3.38-1.52 7.82-1.32 10.93.61 1.79-5.27 7.09-9.17 12.67-9.31 5.57-.13 11.1 3.52 13.13 8.71 4.03-2.1 9.36-1.36 12.67 1.77 3.3 3.13 4.51 8.76 2.64 12.91 2.6.38 4.76 2.76 4.9 5.38.14 2.629-1.43 5.99-4.07 5.99z" fill="#5dbf1d"/><path d="m46.981 323.062c.09 1.65-.9 3.77-2.56 3.77h-34.48c-.52-1.8-1.02-3.6-1.5-5.41-.49-1.83-.95-3.68-1.39-5.53.29-2.17 1.64-4.18 3.55-5.25 2.18-1.21 5.26-1.16 7.38.15 1.12-3.33 4.46-5.79 7.98-5.87s7 2.22 8.28 5.49c2.54-1.32 5.9-.86 7.99 1.11 2.08 1.97 2.84 5.53 1.66 8.14 1.64.239 3 1.739 3.09 3.4z" fill="#43af3e"/></g><g><path d="m95.139 312.815h119.847c7.2 0 12.553-7.032 10.236-13.85-.015-.045-.031-.09-.046-.135-1.571-4.604-4.26-8.95-8.219-11.79-3.937-2.862-10.177-4.647-14.781-3.012 0-7.122-4.109-14.071-10.327-17.535-6.218-3.442-15.039-3.313-21.085.43-3.227-9.51-12.78-16.545-22.849-16.782-10.048-.237-20.009 6.347-23.666 15.706-7.272-3.787-16.889-2.453-22.849 3.184s-8.133 15.792-4.755 23.279c-4.69.689-8.585 4.97-8.843 9.703-.258 4.735 2.582 10.802 7.337 10.802z" fill="#5dbf1d"/><path d="m117.453 312.815h75.553c4.539 0 7.913-4.433 6.453-8.731-.01-.028-.019-.057-.029-.085-.99-2.902-2.685-5.642-5.181-7.433-2.482-1.804-6.415-2.93-9.318-1.899 0-4.49-2.591-8.871-6.51-11.054-3.92-2.17-9.481-2.089-13.292.271-2.035-5.995-8.057-10.43-14.404-10.579-6.334-.149-12.614 4.001-14.92 9.901-4.585-2.387-10.647-1.546-14.404 2.007-3.757 3.554-5.127 9.956-2.998 14.676-2.957.434-5.412 3.133-5.574 6.117-.164 2.985 1.626 6.809 4.624 6.809z" fill="#43af3e"/></g><g><path d="m196.464 334.154h-66.465c-3.993 0-6.961-3.9-5.677-7.681.008-.025.017-.05.026-.075.871-2.553 2.362-4.964 4.558-6.539 2.184-1.587 5.644-2.577 8.197-1.67 0-3.95 2.279-7.803 5.727-9.724 3.448-1.909 8.34-1.837 11.693.239 1.79-5.274 7.087-9.176 12.671-9.307 5.572-.131 11.097 3.52 13.125 8.71 4.033-2.1 9.367-1.36 12.672 1.766s4.51 8.758 2.637 12.91c2.601.382 4.761 2.756 4.904 5.381s-1.432 5.99-4.068 5.99z" fill="#5dbf1d"/><path d="m184.089 334.154h-41.9c-2.517 0-4.389-2.459-3.579-4.842.005-.016.011-.031.016-.047.549-1.61 1.489-3.129 2.873-4.122 1.376-1.001 3.558-1.625 5.168-1.053 0-2.49 1.437-4.919 3.611-6.13 2.174-1.204 5.258-1.158 7.372.15 1.128-3.325 4.468-5.784 7.988-5.867 3.513-.083 6.995 2.219 8.274 5.491 2.542-1.324 5.905-.857 7.988 1.113 2.084 1.971 2.843 5.521 1.662 8.139 1.64.241 3.001 1.738 3.091 3.392.091 1.655-.902 3.776-2.564 3.776z" fill="#43af3e"/></g><g><path d="m143.056 316.439h-93.55c-5.62 0-9.798-5.489-7.99-10.811.012-.035.024-.07.036-.105 1.226-3.594 3.325-6.986 6.415-9.203 3.073-2.234 7.944-3.628 11.538-2.351 0-5.559 3.208-10.983 8.061-13.687 4.854-2.687 11.739-2.586 16.458.336 2.519-7.423 9.976-12.915 17.835-13.099 7.843-.185 15.619 4.954 18.474 12.26 5.676-2.956 13.184-1.915 17.835 2.486 4.652 4.4 6.348 12.327 3.712 18.171 3.661.537 6.701 3.879 6.902 7.574.202 3.693-2.015 8.429-5.726 8.429z" fill="#6cdc2d"/><path d="m125.638 316.439h-58.975c-3.543 0-6.177-3.461-5.037-6.815.008-.022.015-.044.023-.066.773-2.266 2.096-4.404 4.044-5.802 1.937-1.408 5.008-2.287 7.273-1.482 0-3.504 2.022-6.924 5.082-8.629 3.06-1.694 7.401-1.63 10.376.212 1.588-4.68 6.289-8.142 11.244-8.258 4.944-.116 9.846 3.123 11.646 7.729 3.578-1.863 8.311-1.207 11.244 1.567s4.002 7.771 2.34 11.455c2.308.339 4.224 2.446 4.351 4.775.126 2.328-1.271 5.314-3.611 5.314z" fill="#5dbf1d"/></g></g><g><path d="m348.631 265.339v17.79c0 9.54-7.73 17.26-17.26 17.26h-22.02c-3.53 0-6.84 1.51-9.33 4.01l-13.12 13.12-23.95 23.95-3.89-3.89-.01-.01-3.88-3.87 37.04-37.04c2.61-2.61 4.04-6.08 4.04-9.77v-4.36c0-6.58 2.62-12.89 7.27-17.54l24.77-24.78 7.78 7.78-24.77 24.78c-2.61 2.6-4.05 6.07-4.05 9.76v4.39c0 1.36 1.11 2.47 2.47 2.47h21.65c3.46 0 6.26-2.8 6.26-6.26v-17.79z" fill="#b15848"/><path d="m332.181 244.098-24.77 24.78c-3.62 3.62-5.66 8.53-5.66 13.65v4.36c0 5.13-2.03 10.04-5.65 13.66l-37.04 37.03-.01-.01-3.88-3.87 37.04-37.04c2.61-2.61 4.04-6.08 4.04-9.77v-4.36c0-6.58 2.62-12.89 7.27-17.54l24.77-24.78z" fill="#a44e3e"/><path d="m348.631 265.339v17.79c0 9.54-7.73 17.26-17.26 17.26h-22.02c-3.53 0-6.84 1.51-9.33 4.01l6.51-6.509c1.921-1.921 4.527-3.001 7.244-3.001h17.597c6.49 0 11.76-5.26 11.76-11.76v-17.79z" fill="#a44e3e"/><g><path d="m259.891 355.198-3.89 3.89-3.89 3.89-34.89-34.89c-1.04-1.04-2.44-1.62-3.91-1.62h-18.75c-9.13 0-16.53-7.4-16.53-16.52v-15.06h11v15.06c0 3.05 2.48 5.52 5.53 5.52h12.69c2.83 0 5.13-2.3 5.13-5.13v-10.19h11v16.42c0 1.41.6 2.73 1.6 3.73.01 0 .01.01.02.01z" fill="#b15848"/><g fill="#a44e3e"><path d="m256.001 359.089-3.89 3.89-34.89-34.89c-1.04-1.04-2.44-1.62-3.91-1.62h-18.75c-9.13 0-16.53-7.4-16.53-16.52v-15.06h5.5v15.06c0 6.09 4.94 11.02 11.03 11.02h18.75c2.93 0 5.73 1.16 7.8 3.23z"/><path d="m224.981 320.298-5.337-5.337c-1.129-1.129-1.763-2.66-1.763-4.256v-10.557h5.5v16.42c0 1.41.6 2.73 1.6 3.73z"/></g></g><g><path d="m259.891 306.109-7.78 7.78-26.08-26.08c-5.68-5.68-13.38-8.87-21.41-8.87h-2.98c-11.03 0-21.4-4.3-29.19-12.1l-22.47-22.46 3.89-3.89 3.89-3.89 22.46 22.47c5.68 5.68 13.39 8.87 21.42 8.87h2.97c.43 0 .85 0 1.27.02 4.43.13 8.06-3.48 8.06-7.9v-28.87h11v37.76c0 1.63.51 3.19 1.41 4.49.52.76 1.18 1.42 1.95 1.96 1.96 1.38 3.8 2.92 5.51 4.63z" fill="#b15848"/><g fill="#a44e3e"><path d="m256.001 309.998-3.89 3.89-26.08-26.08c-5.68-5.68-13.38-8.87-21.42-8.87h-2.97c-11.03 0-21.4-4.3-29.19-12.1l-22.47-22.46 3.89-3.89 22.47 22.47c6.71 6.71 15.81 10.48 25.3 10.48h2.97c9.5 0 18.6 3.77 25.31 10.48z"/><path d="m226.351 273.439-2.89-2.673c-2.563-2.37-4.02-5.702-4.02-9.193v-30.385h5.5v37.76c0 1.63.51 3.191 1.41 4.491z"/></g></g><path d="m271.571 242.572v240.16c-5.19.14-10.38.18-15.57.12-5.19-.04-10.39-.19-15.57-.43v-239.85z" fill="#b15848"/><path d="m271.571 242.572v240.16c-5.19.14-10.38.18-15.57.12v-240.28z" fill="#a44e3e"/><path d="m240.431 242.568h31.14v23.739h-31.14z" fill="#a44e3e"/><path d="m255.994 242.568h15.577v23.739h-15.577z" fill="#913d31"/><g><path d="m344.753 186.304h-190.493c-11.444 0-19.952-11.178-16.27-22.014.024-.072.049-.143.074-.214 2.496-7.318 6.771-14.226 13.063-18.74 6.258-4.548 16.175-7.386 23.493-4.787 0-11.319 6.532-22.365 16.415-27.871 9.883-5.471 23.904-5.266 33.513.684 5.13-15.115 20.313-26.298 36.317-26.674 15.97-.376 31.803 10.088 37.617 24.964 11.559-6.019 26.845-3.898 36.318 5.061 9.473 8.96 12.927 25.101 7.558 37.001 7.455 1.094 13.645 7.9 14.055 15.423.411 7.523-4.103 17.167-11.66 17.167z" fill="#43af3e"/><path d="m309.286 186.304h-120.089c-7.215 0-12.578-7.047-10.257-13.878.015-.045.031-.09.046-.135 1.574-4.613 4.268-8.968 8.235-11.814 3.945-2.867 10.197-4.657 14.811-3.018 0-7.136 4.118-14.099 10.348-17.57 6.23-3.449 15.069-3.32 21.127.431 3.234-9.529 12.806-16.578 22.895-16.815 10.068-.237 20.049 6.36 23.714 15.738 7.287-3.794 16.923-2.458 22.895 3.191 5.972 5.648 8.149 15.824 4.764 23.326 4.7.69 8.602 4.98 8.861 9.723.26 4.741-2.586 10.821-7.35 10.821z" fill="#00a23e"/></g><g><path d="m244.441 308.311h-88.639c-5.325 0-9.284-5.201-7.57-10.243.011-.033.023-.067.034-.1 1.162-3.405 3.151-6.62 6.079-8.72 2.912-2.116 7.527-3.437 10.932-2.228 0-5.267 3.039-10.407 7.638-12.969 4.599-2.546 11.123-2.451 15.594.318 2.387-7.033 9.452-12.237 16.899-12.412 7.431-.175 14.799 4.694 17.504 11.616 5.378-2.801 12.491-1.814 16.899 2.355s6.015 11.68 3.517 17.217c3.469.509 6.349 3.676 6.54 7.177.19 3.501-1.911 7.989-5.427 7.989z" fill="#43af3e"/><path d="m227.937 308.311h-55.879c-3.357 0-5.853-3.279-4.773-6.458.007-.021.014-.042.022-.063.732-2.147 1.986-4.173 3.832-5.497 1.836-1.334 4.745-2.167 6.892-1.404 0-3.32 1.916-6.561 4.815-8.176 2.899-1.605 7.012-1.545 9.831.201 1.505-4.434 5.959-7.714 10.653-7.824 4.685-.11 9.329 2.959 11.035 7.323 3.391-1.766 7.875-1.144 10.653 1.485 2.779 2.628 3.792 7.363 2.217 10.854 2.187.321 4.003 2.317 4.123 4.524.121 2.206-1.204 5.035-3.421 5.035z" fill="#00a23e"/></g><g><path d="m276.018 231.433h-163.547c-9.826 0-17.13-9.597-13.968-18.9.021-.062.042-.123.063-.184 2.143-6.283 5.813-12.214 11.216-16.089 5.373-3.905 13.887-6.342 20.17-4.11 0-9.718 5.608-19.202 14.093-23.929 8.485-4.697 20.523-4.521 28.773.587 4.404-12.977 17.44-22.578 31.18-22.901 13.711-.323 27.305 8.661 32.296 21.433 9.924-5.167 23.048-3.347 31.18 4.345 8.133 7.692 11.098 21.55 6.489 31.768 6.4.939 11.715 6.782 12.067 13.241.352 6.46-3.523 14.739-10.012 14.739z" fill="#5dbf1d"/><path d="m245.568 231.433h-103.102c-6.194 0-10.799-6.05-8.806-11.915.013-.039.026-.077.04-.116 1.351-3.961 3.665-7.7 7.07-10.143 3.387-2.462 8.755-3.998 12.716-2.591 0-6.127 3.535-12.105 8.884-15.085 5.349-2.961 12.938-2.85 18.139.37 2.776-8.181 10.994-14.233 19.657-14.437 8.644-.204 17.213 5.46 20.36 13.512 6.256-3.258 14.53-2.11 19.656 2.739 5.127 4.849 6.997 13.586 4.091 20.027 4.035.592 7.385 4.275 7.607 8.348.222 4.072-2.221 9.291-6.312 9.291z" fill="#43af3e"/></g><g><path d="m192.436 256.098h-88.639c-5.325 0-9.284-5.201-7.57-10.243.011-.033.023-.067.034-.1 1.162-3.405 3.151-6.619 6.079-8.72 2.912-2.116 7.527-3.437 10.932-2.228 0-5.267 3.039-10.407 7.638-12.969 4.599-2.546 11.123-2.451 15.594.318 2.387-7.033 9.452-12.237 16.899-12.412 7.431-.175 14.799 4.694 17.504 11.616 5.378-2.801 12.491-1.814 16.899 2.355s6.015 11.68 3.517 17.217c3.469.509 6.349 3.676 6.54 7.177.19 3.502-1.911 7.989-5.427 7.989z" fill="#5dbf1d"/><path d="m175.932 256.098h-55.879c-3.357 0-5.853-3.279-4.773-6.457.007-.021.014-.042.022-.063.732-2.147 1.986-4.173 3.832-5.497 1.836-1.334 4.745-2.167 6.892-1.404 0-3.32 1.916-6.561 4.815-8.176 2.899-1.605 7.012-1.545 9.831.201 1.505-4.434 5.959-7.714 10.653-7.824 4.685-.11 9.329 2.959 11.035 7.323 3.391-1.766 7.875-1.144 10.653 1.485 2.779 2.628 3.792 7.363 2.217 10.854 2.187.321 4.003 2.317 4.123 4.524.12 2.206-1.204 5.034-3.421 5.034z" fill="#43af3e"/></g><g><path d="m243.577 237.404h159.832c9.603 0 16.741-9.379 13.651-18.47-.02-.06-.041-.12-.062-.18-2.095-6.14-5.681-11.936-10.961-15.724-5.251-3.816-13.572-6.198-19.712-4.017 0-9.498-5.48-18.765-13.773-23.385-8.292-4.591-20.056-4.419-28.119.574-4.304-12.682-17.044-22.065-30.472-22.381-13.4-.316-26.685 8.464-31.563 20.946-9.698-5.05-22.524-3.271-30.472 4.247s-10.846 21.061-6.341 31.046c-6.255.918-11.449 6.628-11.793 12.941-.344 6.312 3.444 14.403 9.785 14.403z" fill="#5dbf1d"/><path d="m273.335 237.404h100.76c6.053 0 10.553-5.912 8.606-11.644-.013-.038-.026-.076-.039-.113-1.32-3.871-3.582-7.525-6.91-9.913-3.31-2.406-8.556-3.907-12.427-2.532 0-5.987-3.455-11.83-8.682-14.742-5.228-2.894-12.644-2.786-17.727.362-2.713-7.995-10.745-13.91-19.21-14.109-8.447-.199-16.822 5.336-19.897 13.205-6.114-3.184-14.2-2.062-19.21 2.677s-6.837 13.277-3.998 19.572c-3.943.579-7.217 4.178-7.434 8.158-.217 3.978 2.171 9.079 6.168 9.079z" fill="#43af3e"/></g><g><path d="m378.707 265.862h-88.639c-5.325 0-9.284-5.201-7.57-10.243.011-.033.023-.067.034-.1 1.162-3.405 3.151-6.62 6.079-8.72 2.912-2.116 7.527-3.437 10.932-2.228 0-5.267 3.039-10.407 7.638-12.969 4.599-2.546 11.123-2.451 15.594.318 2.387-7.033 9.452-12.237 16.899-12.412 7.431-.175 14.799 4.694 17.504 11.616 5.378-2.801 12.491-1.814 16.899 2.355s6.015 11.68 3.517 17.217c3.469.509 6.349 3.676 6.54 7.177.19 3.502-1.911 7.989-5.427 7.989z" fill="#5dbf1d"/><path d="m362.203 265.862h-55.879c-3.357 0-5.853-3.279-4.773-6.458.007-.021.014-.042.022-.063.732-2.147 1.986-4.173 3.832-5.497 1.836-1.334 4.745-2.167 6.892-1.404 0-3.32 1.916-6.561 4.815-8.176 2.899-1.605 7.012-1.545 9.831.201 1.505-4.434 5.959-7.714 10.653-7.825 4.685-.11 9.329 2.959 11.035 7.323 3.391-1.766 7.875-1.144 10.653 1.485 2.779 2.628 3.792 7.363 2.217 10.854 2.187.321 4.003 2.317 4.123 4.524.121 2.207-1.204 5.036-3.421 5.036z" fill="#43af3e"/></g><g><path d="m311.624 245.418h-124.762c-7.496 0-13.067-7.321-10.656-14.418.016-.047.032-.094.048-.141 1.635-4.793 4.435-9.317 8.556-12.274 4.099-2.979 10.594-4.838 15.387-3.135 0-7.414 4.278-14.648 10.751-18.254 6.473-3.583 15.656-3.449 21.949.448 3.359-9.9 13.304-17.223 23.786-17.47 10.46-.246 20.829 6.607 24.637 16.35 7.57-3.942 17.582-2.553 23.786 3.315s8.466 16.44 4.95 24.234c4.883.717 8.937 5.174 9.205 10.101.269 4.929-2.688 11.244-7.637 11.244z" fill="#6cdc2d"/><path d="m288.395 245.418h-78.651c-4.725 0-8.238-4.615-6.717-9.089.01-.03.02-.059.03-.089 1.031-3.021 2.796-5.874 5.394-7.738 2.584-1.878 6.679-3.05 9.7-1.977 0-4.674 2.697-9.234 6.777-11.507 4.081-2.259 9.87-2.174 13.837.282 2.118-6.241 8.387-10.858 14.995-11.013 6.594-.155 13.131 4.165 15.532 10.307 4.772-2.485 11.084-1.61 14.995 2.09 3.911 3.699 5.337 10.364 3.12 15.277 3.078.452 5.634 3.262 5.803 6.368.169 3.108-1.694 7.089-4.815 7.089z" fill="#5dbf1d"/></g></g><g><path d="m473.178 333.761v13.34c0 7.153-5.796 12.942-12.942 12.942h-16.511c-2.647 0-5.129 1.132-6.996 3.007l-9.838 9.838-17.959 17.958-2.917-2.917-.008-.008-2.909-2.902 27.774-27.774c1.957-1.957 3.029-4.559 3.029-7.326v-3.269c0-4.934 1.965-9.665 5.451-13.152l18.573-18.581 5.834 5.834-18.573 18.581c-1.957 1.95-3.037 4.552-3.037 7.318v3.292c0 1.02.832 1.852 1.852 1.852h16.234c2.594 0 4.694-2.1 4.694-4.694v-13.34h8.249z" fill="#b15848"/><path d="m460.843 317.835-18.573 18.581c-2.714 2.714-4.244 6.396-4.244 10.235v3.269c0 3.846-1.522 7.528-4.236 10.243l-27.774 27.766-.008-.008-2.909-2.902 27.774-27.774c1.957-1.957 3.029-4.559 3.029-7.326v-3.269c0-4.934 1.965-9.665 5.451-13.152l18.573-18.581z" fill="#a44e3e"/><path d="m473.178 333.761v13.34c0 7.153-5.796 12.942-12.942 12.942h-16.511c-2.647 0-5.129 1.132-6.996 3.007l4.881-4.881c1.441-1.44 3.394-2.25 5.432-2.25h13.195c4.866 0 8.818-3.944 8.818-8.818v-13.34z" fill="#a44e3e"/><g><path d="m406.638 401.141-2.917 2.917-2.917 2.917-26.162-26.162c-.78-.78-1.83-1.215-2.932-1.215h-14.059c-6.846 0-12.395-5.549-12.395-12.387v-11.292h8.248v11.292c0 2.287 1.86 4.139 4.147 4.139h9.515c2.122 0 3.847-1.725 3.847-3.847v-7.641h8.248v12.312c0 1.057.45 2.047 1.2 2.797.008 0 .008.007.015.007z" fill="#b15848"/><g fill="#a44e3e"><path d="m403.721 404.058-2.917 2.917-26.162-26.162c-.78-.78-1.83-1.215-2.932-1.215h-14.059c-6.846 0-12.395-5.549-12.395-12.387v-11.292h4.124v11.292c0 4.566 3.704 8.263 8.271 8.263h14.059c2.197 0 4.297.87 5.849 2.422z"/><path d="m380.461 374.972-4.002-4.002c-.846-.846-1.322-1.995-1.322-3.192v-7.916h4.124v12.312c0 1.058.45 2.048 1.2 2.798z"/></g></g><g><path d="m406.638 364.332-5.834 5.834-19.556-19.556c-4.259-4.259-10.033-6.651-16.054-6.651h-2.234c-8.271 0-16.046-3.224-21.888-9.073l-16.849-16.841 2.917-2.917 2.917-2.917 16.841 16.849c4.259 4.259 10.04 6.651 16.061 6.651h2.227c.322 0 .637 0 .952.015 3.322.097 6.044-2.61 6.044-5.924v-21.648h8.248v28.314c0 1.222.382 2.392 1.057 3.367.39.57.885 1.065 1.462 1.47 1.47 1.035 2.849 2.19 4.132 3.472z" fill="#b15848"/><g fill="#a44e3e"><path d="m403.721 367.249-2.917 2.917-19.556-19.556c-4.259-4.259-10.033-6.651-16.061-6.651h-2.227c-8.271 0-16.046-3.224-21.888-9.073l-16.849-16.841 2.917-2.917 16.849 16.849c5.031 5.031 11.855 7.858 18.971 7.858h2.227c7.123 0 13.947 2.827 18.978 7.858z"/><path d="m381.488 339.835-2.167-2.004c-1.922-1.777-3.014-4.276-3.014-6.893v-22.783h4.124v28.314c0 1.221.382 2.391 1.057 3.366z"/></g></g><path d="m415.391 316.691v137.6l-7.35 2.66c-1.44.52-2.88 1.03-4.32 1.54-3.88 1.36-7.77 2.66-11.68 3.9v-145.7z" fill="#b15848"/><path d="m415.391 316.691v137.6l-7.35 2.66c-1.44.52-2.88 1.03-4.32 1.54v-141.8z" fill="#a44e3e"/><path d="m392.051 316.688h23.35v17.8h-23.35z" fill="#a44e3e"/><path d="m403.721 316.688h11.68v17.8h-11.68z" fill="#913d31"/><g><path d="" fill="#b15848"/></g><g><path d="m470.27 274.498h-142.838c-8.581 0-14.96-8.381-12.199-16.507.018-.054.037-.107.055-.161 1.872-5.487 5.077-10.667 9.795-14.052 4.692-3.411 12.129-5.539 17.616-3.59 0-8.488 4.898-16.77 12.308-20.898 7.411-4.103 17.924-3.949 25.129.513 3.846-11.334 15.232-19.719 27.232-20.001 11.975-.282 23.847 7.564 28.206 18.719 8.667-4.513 20.129-2.923 27.232 3.795s9.693 18.822 5.667 27.745c5.59.821 10.231 5.923 10.539 11.565s-3.075 12.872-8.742 12.872z" fill="#43af3e"/><path d="m443.676 274.498h-90.046c-5.41 0-9.431-5.284-7.691-10.406.012-.034.023-.068.035-.102 1.18-3.459 3.201-6.725 6.175-8.858 2.958-2.15 7.646-3.492 11.105-2.263 0-5.351 3.087-10.572 7.759-13.175 4.672-2.586 11.299-2.489 15.842.323 2.425-7.145 9.602-12.431 17.167-12.609 7.549-.178 15.034 4.769 17.782 11.801 5.464-2.845 12.69-1.843 17.167 2.392 4.478 4.235 6.111 11.865 3.572 17.491 3.524.517 6.45 3.734 6.644 7.291.195 3.557-1.939 8.115-5.511 8.115z" fill="#00a23e"/></g><g><path d="m395.053 365.983h-66.465c-3.993 0-6.961-3.9-5.677-7.681.009-.025.017-.05.026-.075.871-2.553 2.362-4.964 4.558-6.539 2.184-1.587 5.644-2.577 8.197-1.67 0-3.949 2.279-7.803 5.727-9.724 3.448-1.909 8.34-1.837 11.693.239 1.79-5.274 7.087-9.176 12.672-9.307 5.572-.131 11.097 3.52 13.125 8.71 4.033-2.1 9.367-1.36 12.672 1.766s4.51 8.758 2.637 12.91c2.601.382 4.761 2.756 4.904 5.381.142 2.626-1.433 5.99-4.069 5.99z" fill="#43af3e"/><path d="m382.678 365.983h-41.9c-2.517 0-4.388-2.459-3.579-4.842.005-.016.011-.032.016-.047.549-1.61 1.489-3.129 2.873-4.122 1.376-1 3.558-1.625 5.168-1.053 0-2.49 1.437-4.919 3.611-6.13 2.174-1.203 5.258-1.158 7.372.151 1.128-3.325 4.468-5.784 7.988-5.867 3.513-.083 6.995 2.219 8.274 5.491 2.543-1.324 5.905-.858 7.988 1.113 2.084 1.971 2.843 5.521 1.662 8.139 1.64.241 3.001 1.738 3.092 3.392.09 1.654-.903 3.775-2.565 3.775z" fill="#00a23e"/></g><g><path d="m410.05 308.338h-122.633c-7.368 0-12.844-7.196-10.474-14.172.016-.046.031-.092.047-.138 1.607-4.711 4.359-9.158 8.41-12.064 4.029-2.928 10.413-4.755 15.124-3.082 0-7.287 4.205-14.398 10.567-17.942 6.362-3.522 15.389-3.39 21.575.44 3.302-9.731 13.077-16.93 23.38-17.172 10.281-.242 20.474 6.494 24.217 16.071 7.441-3.875 17.282-2.51 23.38 3.258s8.322 16.159 4.865 23.82c4.799.704 8.784 5.086 9.048 9.929.266 4.844-2.64 11.052-7.506 11.052z" fill="#5dbf1d"/><path d="m387.218 308.338h-77.31c-4.645 0-8.097-4.536-6.603-8.934.01-.029.02-.058.03-.087 1.013-2.97 2.748-5.773 5.302-7.605 2.54-1.846 6.565-2.998 9.535-1.943 0-4.594 2.651-9.077 6.662-11.311 4.011-2.221 9.701-2.137 13.601.277 2.082-6.134 8.244-10.673 14.739-10.825 6.481-.153 12.907 4.094 15.267 10.131 4.691-2.443 10.895-1.582 14.739 2.054s5.246 10.187 3.067 15.017c3.026.444 5.538 3.206 5.704 6.259s-1.666 6.967-4.733 6.967z" fill="#43af3e"/></g><g><path d="m347.377 326.833h-66.465c-3.993 0-6.961-3.9-5.677-7.681.009-.025.017-.05.026-.075.871-2.553 2.362-4.964 4.558-6.538 2.184-1.587 5.644-2.577 8.197-1.67 0-3.949 2.279-7.803 5.727-9.724 3.448-1.909 8.34-1.837 11.693.239 1.79-5.274 7.087-9.175 12.671-9.307 5.572-.131 11.097 3.52 13.125 8.71 4.033-2.1 9.367-1.36 12.672 1.766s4.51 8.758 2.637 12.91c2.601.382 4.761 2.756 4.904 5.381.144 2.624-1.431 5.989-4.068 5.989z" fill="#5dbf1d"/><path d="m335.003 326.833h-41.9c-2.517 0-4.388-2.459-3.579-4.842.005-.016.011-.031.016-.047.549-1.61 1.489-3.129 2.873-4.122 1.376-1 3.558-1.625 5.168-1.053 0-2.49 1.437-4.919 3.611-6.13 2.174-1.203 5.258-1.158 7.371.15 1.128-3.325 4.468-5.784 7.988-5.867 3.513-.083 6.995 2.219 8.274 5.491 2.542-1.324 5.905-.857 7.988 1.113 2.084 1.971 2.843 5.521 1.662 8.139 1.64.241 3.001 1.738 3.091 3.392.092 1.655-.901 3.776-2.563 3.776z" fill="#43af3e"/></g><g><path d="m510.451 284.211c-.22 2.07-.47 4.14-.75 6.19-1 7.59-2.36 15.06-4.03 22.41h-111.27c-4.75 0-7.59-6.06-7.33-10.8.26-4.73 4.15-9.01 8.84-9.7-3.38-7.49-1.2-17.64 4.76-23.28 5.95-5.64 15.57-6.97 22.84-3.18 3.66-9.36 13.62-15.95 23.67-15.71 10.07.24 19.62 7.27 22.85 16.78 6.05-3.74 14.87-3.87 21.08-.43 6.22 3.47 10.33 10.42 10.33 17.54 2.71-.959 5.98-.739 9.01.18z" fill="#5dbf1d"/><path d="m416.719 312.815h75.553c4.539 0 7.913-4.433 6.453-8.731-.01-.028-.019-.057-.029-.085-.99-2.902-2.685-5.642-5.181-7.433-2.482-1.804-6.415-2.93-9.318-1.899 0-4.49-2.591-8.871-6.51-11.054-3.92-2.17-9.481-2.089-13.292.271-2.034-5.995-8.057-10.43-14.404-10.579-6.334-.149-12.614 4.001-14.92 9.901-4.584-2.387-10.647-1.546-14.404 2.007-3.757 3.554-5.127 9.956-2.997 14.676-2.957.434-5.412 3.133-5.575 6.117-.164 2.985 1.626 6.809 4.624 6.809z" fill="#43af3e"/></g><g><path d="m495.73 334.154h-66.465c-3.993 0-6.961-3.9-5.677-7.681.008-.025.017-.05.026-.075.871-2.553 2.362-4.964 4.558-6.539 2.184-1.587 5.644-2.577 8.197-1.67 0-3.95 2.279-7.803 5.727-9.724 3.448-1.909 8.34-1.837 11.693.239 1.79-5.274 7.087-9.176 12.671-9.307 5.572-.131 11.096 3.52 13.125 8.71 4.033-2.1 9.366-1.36 12.672 1.766 3.305 3.126 4.51 8.758 2.637 12.91 2.601.382 4.761 2.756 4.904 5.381s-1.432 5.99-4.068 5.99z" fill="#5dbf1d"/><path d="m483.355 334.154h-41.9c-2.517 0-4.389-2.459-3.579-4.842.005-.016.011-.031.016-.047.549-1.61 1.489-3.129 2.873-4.122 1.376-1.001 3.558-1.625 5.168-1.053 0-2.49 1.437-4.919 3.611-6.13 2.174-1.204 5.258-1.158 7.371.15 1.128-3.325 4.468-5.784 7.988-5.867 3.513-.083 6.995 2.219 8.274 5.491 2.542-1.324 5.905-.857 7.988 1.113 2.084 1.971 2.843 5.521 1.662 8.139 1.64.241 3.001 1.738 3.091 3.392.092 1.655-.901 3.776-2.563 3.776z" fill="#43af3e"/></g><g><path d="m441.3 323.588h-93.55c-5.62 0-9.798-5.489-7.99-10.811.012-.035.024-.07.036-.105 1.226-3.594 3.325-6.986 6.415-9.203 3.073-2.234 7.944-3.628 11.538-2.351 0-5.559 3.208-10.983 8.061-13.687 4.854-2.687 11.739-2.586 16.458.336 2.519-7.423 9.976-12.915 17.835-13.1 7.843-.185 15.619 4.954 18.474 12.26 5.676-2.956 13.184-1.915 17.835 2.486 4.652 4.4 6.348 12.327 3.712 18.171 3.661.537 6.701 3.879 6.902 7.574.203 3.694-2.014 8.43-5.726 8.43z" fill="#6cdc2d"/><path d="m423.883 323.588h-58.975c-3.543 0-6.177-3.461-5.037-6.815.008-.022.015-.044.023-.066.773-2.266 2.096-4.404 4.044-5.802 1.937-1.408 5.008-2.287 7.273-1.482 0-3.504 2.022-6.924 5.082-8.629 3.06-1.694 7.4-1.63 10.375.212 1.588-4.68 6.289-8.142 11.244-8.258 4.944-.117 9.846 3.123 11.646 7.729 3.579-1.863 8.311-1.207 11.244 1.567s4.002 7.771 2.34 11.456c2.308.339 4.224 2.446 4.351 4.775.127 2.328-1.27 5.313-3.61 5.313z" fill="#5dbf1d"/></g></g><path d="m419.901 452.661c-44.23 36.91-101.12 59.18-163.24 59.34h-.68c-65.72 0-125.68-24.77-171.01-65.51h33.98c6.74 0 15.07-3.83 18.41-8.55 3.52-4.98 4.87-12.65 10.58-16.43 5.75-3.8 15.01-3.37 22.01-3.3 12.15.13 20.44-3.25 27.59-11.16 3.03-3.35 5.93-6.88 10.01-9.39 5.28-3.24 12.35-4.5 18.83-3.33 10.58 1.9 15.51 10.47 25.15 14.09 1.43.54 2.93 1.02 4.47 1.44 7.74 2.15 16.61 2.78 24.37 1.07 8.52-1.88 15.45-7.23 24.75-2.91 9.45 4.4 10.41 16.39 20.25 20.2 9.45 3.66 20.05-2.55 30.49-3.28 25.67-1.79 22.84 27.72 46.45 27.72z" fill="#6cdc2d"/><path d="m419.901 452.661c-44.23 36.91-101.12 59.18-163.24 59.34h-.66v-102.14c7.74 2.15 16.61 2.78 24.37 1.07 8.52-1.88 15.45-7.23 24.75-2.91 9.45 4.4 10.41 16.39 20.25 20.2 9.45 3.66 20.05-2.55 30.49-3.28 25.67-1.79 22.84 27.72 46.45 27.72z" fill="#5dbf1d"/><g><path d="m156.945 120.101c0-.062.005-.122.005-.184 0-11.245-9.116-20.36-20.361-20.36-2.671 0-5.22.52-7.558 1.455-4.515-8.089-13.154-13.561-23.075-13.561-12.884 0-23.607 9.227-25.938 21.432-.695-.1-1.404-.154-2.127-.154-7.005 0-12.874 4.849-14.443 11.373h93.497z" fill="#fff"/><path d="m137.079 120.101c0-.035.003-.07.003-.106 0-6.466-5.242-11.708-11.708-11.708-1.536 0-3.002.299-4.346.837-2.596-4.651-7.564-7.798-13.269-7.798-7.409 0-13.575 5.305-14.915 12.324-.4-.057-.807-.089-1.223-.089-4.028 0-7.403 2.788-8.305 6.54z" fill="#dff7fd"/></g><g><path d="m379.154 156.875c0-.062-.005-.122-.005-.184 0-11.245 9.116-20.361 20.361-20.361 2.671 0 5.22.52 7.557 1.455 4.515-8.089 13.154-13.561 23.075-13.561 12.884 0 23.607 9.227 25.938 21.431.695-.1 1.404-.154 2.126-.154 7.005 0 12.874 4.849 14.443 11.373h-93.495z" fill="#fff"/><path d="m399.02 156.875c0-.035-.003-.07-.003-.106 0-6.466 5.242-11.708 11.708-11.708 1.536 0 3.002.299 4.346.837 2.596-4.651 7.564-7.798 13.269-7.798 7.409 0 13.575 5.306 14.915 12.324.4-.057.807-.089 1.223-.089 4.028 0 7.403 2.788 8.305 6.54z" fill="#dff7fd"/></g><g><path d="m308.883 63.079c0-.081.006-.161.006-.243 0-14.863-12.049-26.912-26.912-26.912-3.531 0-6.9.687-9.989 1.923-5.968-10.691-17.387-17.925-30.5-17.925-17.03 0-31.204 12.196-34.284 28.328-.918-.132-1.856-.203-2.811-.203-9.259 0-17.016 6.41-19.09 15.032z" fill="#fff"/><path d="m282.625 63.079c0-.047.003-.093.003-.14 0-8.547-6.928-15.475-15.475-15.475-2.03 0-3.968.395-5.744 1.106-3.432-6.148-9.998-10.307-17.538-10.307-9.792 0-17.943 7.013-19.714 16.289-.528-.076-1.067-.117-1.616-.117-5.324 0-9.785 3.686-10.977 8.644z" fill="#dff7fd"/></g></g></g></svg>