<svg width="41" height="30" viewBox="0 0 41 30" fill="none" xmlns="http://www.w3.org/2000/svg">
<path d="M37.9294 0H3.0706C1.3747 0 0 1.53528 0 3.42927V26.5706C0 28.4645 1.3747 29.9999 3.0706 29.9999H37.9294C39.6252 29.9999 41 28.4646 41 26.5706V3.42927C41 1.53528 39.6253 0 37.9294 0Z" fill="#41479B"/>
<path d="M40.9575 2.86233C40.7155 1.23833 39.4523 -0.00012207 37.9294 -0.00012207H37.1305L24.0345 9.58226V-3.26873e-05H16.9655V9.58235L3.86953 -3.26873e-05H3.0706C1.54775 -3.26873e-05 0.284518 1.23833 0.0425215 2.86242L11.2357 11.0526H0V18.9473H11.2357L0.0425215 27.1373C0.284518 28.7613 1.54775 29.9998 3.0706 29.9998H3.86953L16.9655 20.4174V29.9998H24.0345V20.4174L37.1305 29.9998H37.9294C39.4523 29.9998 40.7155 28.7614 40.9575 27.1373L29.7643 18.9471H41V11.0524H29.7643L40.9575 2.86233Z" fill="#F5F5F5"/>
<path d="M22.6207 0H18.3793V12.6315H0V17.3683H18.3793V29.9998H22.6207V17.3683H41V12.6315H22.6207V0Z" fill="#FF4B55"/>
<path d="M1.98526 29.7787L16.9265 18.9473H14.3297L0.738525 28.8002C1.07109 29.2337 1.49847 29.5733 1.98526 29.7787Z" fill="#FF4B55"/>
<path d="M27.7382 18.9473H25.1414L39.6128 29.4381C40.0178 29.1411 40.3557 28.7399 40.5967 28.2688L27.7382 18.9473Z" fill="#FF4B55"/>
<path d="M0.323853 1.89586L12.9546 11.0525H15.5514L1.23883 0.676636C0.85453 0.996087 0.540064 1.41373 0.323853 1.89586Z" fill="#FF4B55"/>
<path d="M26.6313 11.0525L40.2474 1.18144C39.9112 0.749391 39.4804 0.411696 38.9903 0.210205L24.0345 11.0525H26.6313Z" fill="#FF4B55"/>
</svg>
