<svg width="22" height="22" viewBox="0 0 22 22" fill="none" xmlns="http://www.w3.org/2000/svg">
<path fill-rule="evenodd" clip-rule="evenodd" d="M18.5 0.5V3.5H21.5V5.5H18.5V8.48999C18.5 8.48999 16.51 8.5 16.5 8.48999V5.5H13.5C13.5 5.5 13.51 3.51001 13.5 3.5H16.5V0.5H18.5ZM16.5 19.5H2.5V5.5H11.5V3.5H2.5C1.40002 3.5 0.5 4.39999 0.5 5.5V19.5C0.5 20.6 1.40002 21.5 2.5 21.5H16.5C17.6 21.5 18.5 20.6 18.5 19.5V10.5H16.5V19.5ZM8.71002 16.33L6.75 13.97L4 17.5H15L11.46 12.79L8.71002 16.33Z" fill="#EBC6AB"/>
</svg>
