<svg width="21" height="21" viewBox="0 0 21 21" fill="none" xmlns="http://www.w3.org/2000/svg">
<path d="M19.6197 10.054C19.6197 15.0536 15.5632 19.108 10.5574 19.108C5.55167 19.108 1.49512 15.0536 1.49512 10.054C1.49512 5.05439 5.55167 1 10.5574 1C15.5632 1 19.6197 5.05439 19.6197 10.054Z" fill="white" stroke="#C1C1C1" stroke-width="2"/>
<path d="M11.3779 11.1706C11.2819 11.1706 11.1979 11.2066 11.1259 11.2786C11.0659 11.3506 11.0359 11.4346 11.0359 11.5306V12.5206H8.9299V11.4946C8.9299 9.91055 9.6739 9.11855 11.1619 9.11855H11.2519C11.3479 9.11855 11.4259 9.08255 11.4859 9.01055C11.5579 8.93855 11.5939 8.85455 11.5939 8.75855V6.61655C11.5939 6.52055 11.5579 6.43655 11.4859 6.36455C11.4259 6.29255 11.3479 6.25655 11.2519 6.25655H9.8839C9.7879 6.25655 9.7039 6.29255 9.6319 6.36455C9.5719 6.43655 9.5419 6.52055 9.5419 6.61655V7.53455H7.3099V6.67055C7.3099 5.08655 8.0539 4.29455 9.5419 4.29455H11.5399C13.0279 4.29455 13.7719 5.08655 13.7719 6.67055V8.79455C13.7719 10.3786 13.0279 11.1706 11.5399 11.1706H11.3779ZM8.7319 14.8246C8.7319 14.4646 8.8579 14.1586 9.1099 13.9066C9.3619 13.6546 9.6679 13.5286 10.0279 13.5286C10.3879 13.5286 10.6939 13.6546 10.9459 13.9066C11.1979 14.1586 11.3239 14.4646 11.3239 14.8246C11.3239 15.1846 11.1979 15.4906 10.9459 15.7426C10.6939 15.9946 10.3879 16.1206 10.0279 16.1206C9.6679 16.1206 9.3619 15.9946 9.1099 15.7426C8.8579 15.4906 8.7319 15.1846 8.7319 14.8246Z" fill="#C1C1C1"/>
</svg>
