<svg width="28" height="21" viewBox="0 0 28 21" fill="none" xmlns="http://www.w3.org/2000/svg">
<path d="M15.3747 14.6289C15.3747 13.1055 15.5856 11.6289 16.0075 10.1992C16.4528 8.74609 17.1442 7.42188 18.0817 6.22656C19.0192 5.03125 20.238 3.94141 21.738 2.95703C23.2614 1.97266 25.0778 1.16406 27.1872 0.53125V3.55469C24.8669 4.30469 23.1442 5.21875 22.0192 6.29688C20.9177 7.375 20.3669 8.61719 20.3669 10.0234C20.3669 10.4922 20.4958 10.8906 20.7536 11.2188C21.0348 11.5234 21.363 11.793 21.738 12.0273C21.9255 12.1445 22.1247 12.2734 22.3356 12.4141C22.5466 12.5312 22.7692 12.6484 23.0036 12.7656C23.4489 13 23.8591 13.2812 24.2341 13.6094C24.6325 13.9375 24.9606 14.3359 25.2184 14.8047C25.3356 15.0391 25.4294 15.3086 25.4997 15.6133C25.57 15.918 25.6052 16.2578 25.6052 16.6328C25.6052 18.0156 25.1598 19.0703 24.2692 19.7969C23.3786 20.5234 22.2653 20.8867 20.9294 20.8867C20.2028 20.8867 19.4997 20.7461 18.82 20.4648C18.1403 20.1836 17.5544 19.7852 17.0622 19.2695C16.5466 18.7539 16.1364 18.1094 15.8317 17.3359C15.527 16.5391 15.3747 15.6367 15.3747 14.6289ZM0.995775 14.6289C0.995775 13.1055 1.20671 11.6289 1.62859 10.1992C2.0739 8.74609 2.76531 7.42188 3.70281 6.22656C4.64031 5.03125 5.85906 3.94141 7.35906 2.95703C8.88249 1.97266 10.6989 1.16406 12.8083 0.53125V3.55469C10.4411 4.30469 8.70671 5.21875 7.60515 6.29688C6.50359 7.375 5.95281 8.61719 5.95281 10.0234C5.95281 10.4922 6.08171 10.8906 6.33953 11.2188C6.59734 11.5234 6.92546 11.793 7.3239 12.0273C7.5114 12.1445 7.71062 12.2734 7.92156 12.4141C8.13249 12.5312 8.35515 12.6484 8.58953 12.7656C9.03484 13 9.45671 13.2812 9.85515 13.6094C10.2536 13.9375 10.5817 14.3359 10.8395 14.8047C10.9567 15.0391 11.0505 15.3086 11.1208 15.6133C11.1911 15.918 11.2262 16.2578 11.2262 16.6328C11.2262 18.0156 10.7692 19.0703 9.85515 19.7969C8.96453 20.5234 7.85124 20.8867 6.51531 20.8867C5.78874 20.8867 5.08562 20.7461 4.40593 20.4648C3.74968 20.1836 3.16374 19.7852 2.64812 19.2695C2.13249 18.7539 1.72234 18.1094 1.41765 17.3359C1.1364 16.5391 0.995775 15.6367 0.995775 14.6289Z" fill="black"/>
</svg>
