<svg width="25" height="28" viewBox="0 0 25 28" fill="none" xmlns="http://www.w3.org/2000/svg">
<path d="M13.935 11.5571C13.729 11.7801 13.4379 11.8975 13.1384 11.8785C13.0348 11.8718 10.5725 11.6981 8.05401 10.306C5.67406 8.99045 2.80207 6.32105 2.63531 1.07455C2.62614 0.788429 2.73293 0.511273 2.93019 0.30882C3.23109 0 3.58423 0 3.73506 0C3.73511 0 3.73511 0 3.73511 0C3.84179 0 6.34985 0.0184843 8.9341 1.60797C10.2756 2.43315 11.3909 3.53013 12.2492 4.86855C13.2859 6.48544 13.9438 8.45544 14.2046 10.7237C14.2397 11.0289 14.1409 11.3341 13.935 11.5571Z" fill="#6DC82A"/>
<path d="M12.2806 4.91992C11.8574 5.72109 11.5005 6.62344 11.2444 7.63997C11.0141 8.34554 10.6624 9.5852 10.3721 11.3004C11.9032 11.7919 13.0677 11.874 13.1382 11.8786C13.4377 11.8977 13.7288 11.7802 13.9348 11.5572C14.1407 11.3342 14.2395 11.0289 14.2043 10.7239C13.9462 8.47926 13.2987 6.52724 12.2806 4.91992Z" fill="#5EAC24"/>
<path d="M13.069 9.78111L10.8945 7.60592L10.321 4.67478C10.2757 4.44247 10.0553 4.29214 9.8288 4.33862C9.60233 4.38521 9.45572 4.61135 9.50109 4.84355L9.83403 6.5452L8.63475 5.34558L8.05342 2.37414C8.00805 2.14183 7.7876 1.99166 7.56118 2.03798C7.33471 2.08457 7.18809 2.31065 7.23346 2.54291L7.57424 4.28481L4.77573 1.48569C4.61024 1.32031 4.3457 1.32381 4.18443 1.49334C4.02321 1.66298 4.02657 1.93451 4.19189 2.09983L7.26908 5.17785L5.12248 5.14023C4.89179 5.13378 4.70125 5.32491 4.69725 5.56176C4.69336 5.79861 4.87729 5.99385 5.10819 5.99795L8.14208 6.05116L9.56954 7.47905L7.3901 7.44093C7.16128 7.43568 6.96887 7.62561 6.96487 7.86246C6.96098 8.09931 7.14491 8.29454 7.37581 8.29865L10.4425 8.35235L12.485 10.3954C12.5663 10.4767 12.6716 10.5172 12.7768 10.5172C12.8856 10.5172 12.9942 10.4738 13.0763 10.3877C13.2376 10.218 13.2343 9.94643 13.069 9.78111Z" fill="#4E901E"/>
<path d="M23.7927 0.32346C23.5867 0.100499 23.2956 -0.0169695 22.9961 0.00206171C22.8925 0.00878826 20.4302 0.182421 17.9117 1.57454C15.9764 2.64428 13.7159 4.60931 12.8491 8.12713C12.3756 9.55737 11.3325 13.4361 11.5765 19.2761C11.5976 19.7814 12.0035 20.1765 12.4919 20.1764C12.5051 20.1764 12.5184 20.1761 12.5318 20.1755C13.0377 20.1533 13.4302 19.7146 13.4086 19.1956C13.2822 16.1701 13.525 13.6968 13.838 11.8717C14.5422 11.8303 16.6404 11.5958 18.7918 10.2726C20.1333 9.4474 21.2486 8.35042 22.1068 7.012C23.1436 5.39511 23.8015 3.42511 24.0623 1.15684C24.0973 0.851685 23.9985 0.546475 23.7927 0.32346Z" fill="#91DC5A"/>
<path d="M22.4762 1.49336C22.3149 1.32378 22.0502 1.32033 21.8849 1.48571L19.0866 4.28478L19.4274 2.54293C19.4728 2.31067 19.3262 2.08465 19.0997 2.038C18.8735 1.99162 18.6529 2.14185 18.6075 2.37416L18.0261 5.34561L16.8269 6.54524L17.1598 4.84358C17.2052 4.61132 17.0586 4.3853 16.8321 4.33865C16.6057 4.29216 16.3853 4.4425 16.3399 4.67481L15.7664 7.60601L13.5918 9.78121C13.4264 9.94658 13.4232 10.2181 13.5843 10.3877C13.6663 10.4739 13.7749 10.5171 13.8838 10.5171C13.989 10.5171 14.0944 10.4767 14.1756 10.3953L16.2181 8.35233L19.2848 8.29863C19.5157 8.29458 19.6997 8.09935 19.6958 7.86244C19.6919 7.62805 19.5055 7.44085 19.2779 7.44085C19.2754 7.44085 19.273 7.44085 19.2706 7.44091L17.0911 7.47902L18.5185 6.05113L21.5524 5.99792C21.7833 5.99388 21.9672 5.79864 21.9633 5.56173C21.9594 5.32734 21.773 5.14015 21.5454 5.14015C21.543 5.14015 21.5405 5.14015 21.5381 5.1402L19.3915 5.17783L22.4687 2.09979C22.6341 1.93447 22.6374 1.66295 22.4762 1.49336Z" fill="#5EAC24"/>
<path d="M22.7995 22.4287C22.3778 22.4287 21.9839 22.5505 21.6492 22.7616C21.1548 21.1023 19.6504 19.8952 17.871 19.8952C17.6735 19.8952 17.4796 19.9105 17.2899 19.9392C16.4833 18.0463 14.6427 16.7229 12.5 16.7229C10.3573 16.7229 8.51668 18.0463 7.71005 19.9392C7.52037 19.9105 7.32641 19.8952 7.12905 19.8952C5.34957 19.8952 3.8453 21.1023 3.35082 22.7616C3.01607 22.5505 2.62225 22.4287 2.20049 22.4287C0.985222 22.4287 0 23.4393 0 24.6859C0 25.9325 0.985222 26.9431 2.20049 26.9431C2.85176 26.9431 3.43671 26.6528 3.83954 26.1915C4.54764 27.2815 5.75635 28 7.129 28C8.24062 28 9.24445 27.5284 9.96225 26.7703C10.7138 27.1995 11.5788 27.4448 12.5 27.4448C13.4212 27.4448 14.2862 27.1994 15.0377 26.7703C15.7557 27.5284 16.7594 28 17.871 28C19.2437 28 20.4524 27.2816 21.1605 26.1915C21.5633 26.6528 22.1483 26.9431 22.7995 26.9431C24.0148 26.9431 25 25.9325 25 24.6859C25 23.4393 24.0148 22.4287 22.7995 22.4287Z" fill="#CC7400"/>
<path d="M15.3728 18.9174C15.8925 18.9174 16.394 18.9964 16.8678 19.1412C15.9335 17.6849 14.3266 16.7229 12.5 16.7229C10.3572 16.7229 8.51667 18.0463 7.71004 19.9392C7.52036 19.9105 7.3264 19.8952 7.12904 19.8952C5.34957 19.8952 3.84529 21.1023 3.35082 22.7616C3.01606 22.5505 2.62224 22.4287 2.20049 22.4287C0.985221 22.4287 0 23.4393 0 24.6859C0 25.9325 0.985221 26.9431 2.20049 26.9431C2.85176 26.9431 3.4367 26.6528 3.83953 26.1915C4.54764 27.2815 5.75634 28 7.12899 28C8.24061 28 9.24444 27.5284 9.96224 26.7703C10.29 26.9575 10.6393 27.1096 11.0054 27.2217C10.4631 26.3767 10.1467 25.3657 10.1467 24.2784C10.1467 21.3177 12.4865 18.9174 15.3728 18.9174Z" fill="#AA6100"/>
<path d="M14.5787 23.9961C15.102 23.9961 15.5261 23.561 15.5261 23.0243C15.5261 22.4875 15.102 22.0524 14.5787 22.0524C14.0555 22.0524 13.6313 22.4875 13.6313 23.0243C13.6313 23.561 14.0555 23.9961 14.5787 23.9961Z" fill="#AA6100"/>
<path d="M18.3981 26.2848C18.9214 26.2848 19.3456 25.8497 19.3456 25.3129C19.3456 24.7762 18.9214 24.3411 18.3981 24.3411C17.8749 24.3411 17.4507 24.7762 17.4507 25.3129C17.4507 25.8497 17.8749 26.2848 18.3981 26.2848Z" fill="#AA6100"/>
<path d="M17.8157 22.3614C18.0171 22.3614 18.1803 22.194 18.1803 21.9875C18.1803 21.7809 18.0171 21.6135 17.8157 21.6135C17.6144 21.6135 17.4512 21.7809 17.4512 21.9875C17.4512 22.194 17.6144 22.3614 17.8157 22.3614Z" fill="#AA6100"/>
<path d="M12.5002 26.0609C12.7016 26.0609 12.8647 25.8935 12.8647 25.6869C12.8647 25.4804 12.7016 25.313 12.5002 25.313C12.2989 25.313 12.1357 25.4804 12.1357 25.6869C12.1357 25.8935 12.2989 26.0609 12.5002 26.0609Z" fill="#AA6100"/>
<path d="M13.6307 20.9638C13.832 20.9638 13.9952 20.7964 13.9952 20.5898C13.9952 20.3833 13.832 20.2159 13.6307 20.2159C13.4293 20.2159 13.2661 20.3833 13.2661 20.5898C13.2661 20.7964 13.4293 20.9638 13.6307 20.9638Z" fill="#AA6100"/>
<path d="M21.4749 24.3704C21.6763 24.3704 21.8395 24.2029 21.8395 23.9964C21.8395 23.7899 21.6763 23.6224 21.4749 23.6224C21.2736 23.6224 21.1104 23.7899 21.1104 23.9964C21.1104 24.2029 21.2736 24.3704 21.4749 24.3704Z" fill="#AA6100"/>
<path d="M19.3463 18.3196C19.8695 18.3196 20.2937 17.8845 20.2937 17.3478C20.2937 16.811 19.8695 16.3759 19.3463 16.3759C18.8231 16.3759 18.3989 16.811 18.3989 17.3478C18.3989 17.8845 18.8231 18.3196 19.3463 18.3196Z" fill="#CC7400"/>
<path d="M21.4749 19.8948C21.6763 19.8948 21.8395 19.7274 21.8395 19.5209C21.8395 19.3143 21.6763 19.1469 21.4749 19.1469C21.2736 19.1469 21.1104 19.3143 21.1104 19.5209C21.1104 19.7274 21.2736 19.8948 21.4749 19.8948Z" fill="#CC7400"/>
<path d="M21.4749 18.0957C21.6763 18.0957 21.8395 17.9283 21.8395 17.7217C21.8395 17.5152 21.6763 17.3478 21.4749 17.3478C21.2736 17.3478 21.1104 17.5152 21.1104 17.7217C21.1104 17.9283 21.2736 18.0957 21.4749 18.0957Z" fill="#CC7400"/>
<path d="M4.8512 17.9765C5.37442 17.9765 5.79858 17.5414 5.79858 17.0047C5.79858 16.4679 5.37442 16.0328 4.8512 16.0328C4.32797 16.0328 3.90381 16.4679 3.90381 17.0047C3.90381 17.5414 4.32797 17.9765 4.8512 17.9765Z" fill="#AA6100"/>
<path d="M3.27808 19.5209C3.47938 19.5209 3.64258 19.3534 3.64258 19.1469C3.64258 18.9404 3.47938 18.7729 3.27808 18.7729C3.07677 18.7729 2.91357 18.9404 2.91357 19.1469C2.91357 19.3534 3.07677 19.5209 3.27808 19.5209Z" fill="#AA6100"/>
</svg>
