<svg width="145" height="67" viewBox="0 0 145 67" fill="none" xmlns="http://www.w3.org/2000/svg">
<path fill-rule="evenodd" clip-rule="evenodd" d="M145 8.3C145 3.735 141.265 0 136.7 0H70.3C65.735 0 62 3.735 62 8.3V58.1C62 62.665 65.735 66.4 70.3 66.4H136.7C141.265 66.4 145 62.665 145 58.1V8.3ZM136.7 8.2998L103.5 29.0498L70.2998 8.2998H136.7ZM103.5 37.3501L70.2998 16.6001V58.1001H136.7V16.6001L103.5 37.3501Z" fill="#EBC6AB"/>
<path fill-rule="evenodd" clip-rule="evenodd" d="M49.5 17.2002V22.7002H0V17.2002H49.5ZM49.5 50.2002H33V44.7002H49.5V50.2002ZM16.5 36.4502H49.5V30.9502H16.5V36.4502Z" fill="#EBC6AB"/>
</svg>
