<svg width="96" height="96" viewBox="0 0 96 96" fill="none" xmlns="http://www.w3.org/2000/svg">
<g clip-path="url(#clip0)">
<path d="M70 96.0001C55.664 96.0001 44 84.3361 44 70.0001C44 55.6641 55.664 44.0001 70 44.0001C84.336 44.0001 96 55.6641 96 70.0001C96 84.3361 84.336 96.0001 70 96.0001ZM70 50.0001C58.972 50.0001 50 58.9721 50 70.0001C50 81.0281 58.972 90.0001 70 90.0001C81.028 90.0001 90 81.0281 90 70.0001C90 58.9721 81.028 50.0001 70 50.0001Z" fill="#af7949"/>
<path d="M66 80.0002C65.208 80.0002 64.44 79.6842 63.88 79.1202L55.88 71.1202C54.708 69.9482 54.708 68.0482 55.88 66.8762C57.052 65.7042 58.952 65.7042 60.124 66.8762L65.86 72.6082L77.748 59.0242C78.844 57.7722 80.736 57.6522 81.984 58.7402C83.232 59.8322 83.356 61.7282 82.264 62.9722L68.264 78.9722C67.712 79.6002 66.928 79.9722 66.1 80.0002C66.068 80.0002 66.032 80.0002 66 80.0002Z" fill="#af7949"/>
<path d="M34 84.0003C33.808 84.0003 33.616 83.9843 33.428 83.9443C33.092 83.8803 0 77.0443 0 39.7203V15.0003C0 13.7603 0.76 12.6523 1.916 12.2043L32.916 0.204265C33.612 -0.0637346 34.384 -0.0637346 35.08 0.204265L66.08 12.2043C67.24 12.6523 68 13.7603 68 15.0003V33.0003C68 34.6563 66.656 36.0003 65 36.0003C63.344 36.0003 62 34.6563 62 33.0003V17.0563L34 6.22027L6 17.0563V39.7203C6 70.0963 30.04 77.0003 34.048 77.9403H34.056C35.68 77.5963 37.26 78.6683 37.584 80.2963C37.908 81.9203 36.852 83.5003 35.228 83.8243L34.484 83.9603C34.324 83.9883 34.164 84.0003 34 84.0003Z" fill="#af7949"/>
</g>
<defs>
<clipPath id="clip0">
<rect width="96" height="96" fill="white"/>
</clipPath>
</defs>
</svg>
