<svg id="Capa_1" data-name="Capa 1" xmlns="http://www.w3.org/2000/svg" viewBox="0 0 512 512"><defs><style>.cls-1{fill:#5dbf1d;}.cls-2{fill:#00a23e;}.cls-3{fill:#008839;}.cls-4{fill:#b15848;}.cls-5{fill:#a44e3e;}.cls-6{fill:#913d31;}.cls-7{fill:#43af3e;}.cls-8{fill:#6cdc2d;}</style></defs><path class="cls-1" d="M131,282.6H36.22a8.41,8.41,0,0,1-8.1-11,.49.49,0,0,0,0-.11,18.75,18.75,0,0,1,6.5-9.32c3.11-2.27,8.05-3.68,11.69-2.39A16.19,16.19,0,0,1,54.52,246a17.35,17.35,0,0,1,16.67.34,19.59,19.59,0,0,1,36.79-.85A16.16,16.16,0,0,1,126.05,248c4.71,4.46,6.43,12.49,3.76,18.42a8.45,8.45,0,0,1,7,7.67C137,277.8,134.76,282.6,131,282.6Z"/><path class="cls-2" d="M372.52,399.16h0l-.79.28a370.51,370.51,0,0,1-258.66-2.38l-5.63-2.15a9.92,9.92,0,0,1-3.1-1.91Q96.81,386.12,90,378.51a9.8,9.8,0,0,1,5.45-16.11l.26,0c12.67-2.79,20.2-15.49,34.72-11.21,5,1.47,9.32,4.27,13.71,6.86s9.09,5,14.31,5.59c17.73,2,24.52-24.51,42.37-18.74,4.71,1.53,9,4.18,13.87,5.1,11.87,2.21,18.69-6.31,27.26-11.21a22.33,22.33,0,0,1,9.47-3.18c11.57-.95,19.79,11.24,31.36,12.17,14.82,1.18,26.08-15.53,40-5.3,7.7,5.66,11.55,20.1,23.2,20.42"/><path class="cls-3" d="M384.33,357.41c5.82,4.86,14,16.26,9.23,22.12a116.48,116.48,0,0,1-21.83,19.91A370.26,370.26,0,0,1,242,421.55V338.74a22.33,22.33,0,0,1,9.47-3.18c11.57-.95,19.79,11.24,31.36,12.17,14.82,1.18,26.08-15.53,40-5.3,7.7,5.66,11.55,20.1,23.2,20.42,4.24.11,5.19-3.1,16-9.93,3.34-2.11,14-1.63,18.62,1.37"/><path class="cls-4" d="M176.56,304.44v10.62a10.3,10.3,0,0,1-10.31,10.31H153.1a7.88,7.88,0,0,0-5.57,2.4l-7.84,7.84-14.31,14.3-2.32-2.32h0l-2.31-2.31,22.12-22.12a8.21,8.21,0,0,0,2.41-5.84v-2.6a14.81,14.81,0,0,1,4.35-10.48l14.79-14.8,4.65,4.64-14.8,14.81a8.19,8.19,0,0,0-2.41,5.83v2.62a1.47,1.47,0,0,0,1.47,1.47h12.93a3.73,3.73,0,0,0,3.74-3.74V304.44Z"/><path class="cls-5" d="M166.74,291.75l-14.8,14.8a11.55,11.55,0,0,0-3.38,8.16v2.6a11.54,11.54,0,0,1-3.37,8.16l-22.13,22.12h0l-2.31-2.31,22.12-22.12a8.21,8.21,0,0,0,2.41-5.84v-2.6a14.81,14.81,0,0,1,4.35-10.48l14.79-14.8Z"/><path class="cls-5" d="M176.56,304.44v10.62a10.3,10.3,0,0,1-10.31,10.31H153.1a7.88,7.88,0,0,0-5.57,2.4l3.89-3.89a6.08,6.08,0,0,1,4.32-1.79h10.51a7,7,0,0,0,7-7V304.44Z"/><path class="cls-4" d="M123.56,358.11l-2.33,2.33-2.32,2.32L98.07,341.92a3.31,3.31,0,0,0-2.34-1H84.53a9.87,9.87,0,0,1-9.87-9.87v-9h6.57v9a3.3,3.3,0,0,0,3.3,3.3h7.58a3.07,3.07,0,0,0,3.07-3.06v-6.09h6.57V335a3.15,3.15,0,0,0,1,2.23h0Z"/><path class="cls-5" d="M121.23,360.44l-2.32,2.32L98.07,341.92a3.31,3.31,0,0,0-2.34-1H84.53a9.87,9.87,0,0,1-9.87-9.87v-9h3.28v9a6.59,6.59,0,0,0,6.59,6.59h11.2a6.58,6.58,0,0,1,4.66,1.93Z"/><path class="cls-5" d="M102.7,337.27l-3.19-3.19a3.6,3.6,0,0,1-1.05-2.54v-6.31h3.29V335a3.15,3.15,0,0,0,1,2.23Z"/><path class="cls-4" d="M123.56,328.79l-4.65,4.65-15.58-15.58a18.09,18.09,0,0,0-12.79-5.3H88.76a24.5,24.5,0,0,1-17.44-7.23L57.9,291.92l2.33-2.33,2.32-2.32L76,300.69A18,18,0,0,0,88.76,306h2.53a4.71,4.71,0,0,0,4.82-4.72V284h6.57v22.55a4.71,4.71,0,0,0,.84,2.69,4.82,4.82,0,0,0,1.17,1.17,25.32,25.32,0,0,1,3.29,2.76Z"/><path class="cls-5" d="M121.23,331.12l-2.32,2.32-15.58-15.58a18.1,18.1,0,0,0-12.8-5.3H88.76a24.5,24.5,0,0,1-17.44-7.23L57.9,291.92l2.32-2.33L73.65,303a21.38,21.38,0,0,0,15.11,6.26h1.77a21.36,21.36,0,0,1,15.12,6.26Z"/><path class="cls-5" d="M103.52,309.28l-1.73-1.6a7.49,7.49,0,0,1-2.4-5.49V284h3.29V306.6A4.7,4.7,0,0,0,103.52,309.28Z"/><path class="cls-4" d="M130.53,290.84V403.6q-4.45-1.55-8.86-3.25l-.44-.17-9.3-3.56V290.84Z"/><path class="cls-5" d="M130.53,290.84V403.6q-4.45-1.55-8.86-3.25l-.44-.17V290.84Z"/><path class="cls-5" d="M111.93,290.84h18.6V305h-18.6Z"/><path class="cls-6" d="M121.23,290.84h9.3V305h-9.3Z"/><path class="cls-7" d="M174.25,257.23H60.46c-6.84,0-11.92-6.68-9.72-13.15,0-.05,0-.09,0-.13a22.58,22.58,0,0,1,7.81-11.19c3.73-2.72,9.66-4.42,14-2.86a19.44,19.44,0,0,1,9.81-16.65,20.83,20.83,0,0,1,20,.41,23.53,23.53,0,0,1,44.17-1,19.41,19.41,0,0,1,21.69,3c5.66,5.35,7.72,15,4.51,22.1a10.15,10.15,0,0,1,8.4,9.21C181.46,251.47,178.76,257.23,174.25,257.23Z"/><path class="cls-2" d="M153.06,257.23H81.33a6.37,6.37,0,0,1-6.13-8.29l0-.08a14.21,14.21,0,0,1,4.92-7.06C82.5,240.09,86.24,239,89,240a12.26,12.26,0,0,1,6.19-10.5,13.15,13.15,0,0,1,12.62.26,14.83,14.83,0,0,1,27.84-.64,12.22,12.22,0,0,1,13.67,1.9A12.89,12.89,0,0,1,152.16,245a6.41,6.41,0,0,1,5.29,5.81c.16,2.84-1.54,6.47-4.39,6.47Z"/><path class="cls-7" d="M116.8,330.11H63.85A4.7,4.7,0,0,1,59.33,324a.14.14,0,0,1,0-.06A10.42,10.42,0,0,1,63,318.72c1.74-1.27,4.5-2.05,6.53-1.33a9.06,9.06,0,0,1,4.56-7.75,9.73,9.73,0,0,1,9.32.19,10.95,10.95,0,0,1,20.55-.47,9,9,0,0,1,10.09,1.4,9.54,9.54,0,0,1,2.1,10.29,4.72,4.72,0,0,1,3.91,4.28c.11,2.1-1.14,4.78-3.24,4.78Z"/><path class="cls-2" d="M106.94,330.11H73.56a3,3,0,0,1-2.85-3.86v0A6.65,6.65,0,0,1,73,322.93a4.88,4.88,0,0,1,4.12-.84A5.68,5.68,0,0,1,80,317.21a6.09,6.09,0,0,1,5.87.12,6.89,6.89,0,0,1,13-.3,5.69,5.69,0,0,1,6.37.88,6,6,0,0,1,1.32,6.49,3,3,0,0,1,2.46,2.7c.08,1.32-.72,3-2,3Z"/><path class="cls-1" d="M133.19,284.19H42.3Q40.92,277.64,40,271q-.7-5-1.17-10.15a11.91,11.91,0,0,1,7.11-.08,16.68,16.68,0,0,1,8.42-14.29,17.89,17.89,0,0,1,17.18.35,20.2,20.2,0,0,1,37.92-.88,16.65,16.65,0,0,1,18.63,2.6c4.86,4.59,6.63,12.86,3.87,19a8.72,8.72,0,0,1,7.21,7.91c.21,3.86-2.1,8.81-6,8.81Z"/><path class="cls-7" d="M115,284.19H53.41a5.47,5.47,0,0,1-5.26-7.12l0-.07a12.17,12.17,0,0,1,4.22-6.06c2-1.47,5.23-2.39,7.6-1.55a10.53,10.53,0,0,1,5.3-9,11.31,11.31,0,0,1,10.84.22,12.73,12.73,0,0,1,23.9-.55,10.48,10.48,0,0,1,11.74,1.64,11.09,11.09,0,0,1,2.45,12,5.48,5.48,0,0,1,4.54,5C118.9,281.07,117.44,284.19,115,284.19Z"/><path class="cls-1" d="M83.26,298.92H45.94c-.41-1.44-.81-2.87-1.2-4.31q-1.35-5.16-2.44-10.42c-.42-2-.81-4-1.16-6a9.75,9.75,0,0,1,8.71.48,10.95,10.95,0,0,1,20.55-.47,9,9,0,0,1,10.1,1.41,9.52,9.52,0,0,1,2.1,10.28,4.72,4.72,0,0,1,3.9,4.29c.12,2.09-1.14,4.77-3.24,4.77Z"/><path class="cls-7" d="M75.45,295.91c.07,1.32-.72,3-2,3H45.94c-.41-1.44-.81-2.87-1.2-4.31s-.75-2.93-1.1-4.41A5.7,5.7,0,0,1,46.47,286a6.12,6.12,0,0,1,5.87.12,6.9,6.9,0,0,1,13-.3,5.69,5.69,0,0,1,6.36.88A6,6,0,0,1,73,293.21a3,3,0,0,1,2.46,2.7Z"/><path class="cls-1" d="M83.26,298.92H30.31a4.7,4.7,0,0,1-4.52-6.12l0-.06a10.42,10.42,0,0,1,3.63-5.21c1.74-1.26,4.49-2,6.53-1.33a9.06,9.06,0,0,1,4.56-7.75,9.73,9.73,0,0,1,9.32.19,10.95,10.95,0,0,1,20.55-.47,9,9,0,0,1,10.1,1.4,9.54,9.54,0,0,1,2.1,10.29,4.72,4.72,0,0,1,3.9,4.29c.12,2.09-1.14,4.77-3.24,4.77Z"/><path class="cls-7" d="M73.4,298.92H40a3,3,0,0,1-2.85-3.86v0a6.65,6.65,0,0,1,2.29-3.28,4.88,4.88,0,0,1,4.12-.84A5.68,5.68,0,0,1,46.47,286a6.09,6.09,0,0,1,5.87.12,6.9,6.9,0,0,1,13-.3,5.67,5.67,0,0,1,6.36.88A6,6,0,0,1,73,293.21a3,3,0,0,1,2.47,2.7c.07,1.32-.72,3-2,3Z"/><path class="cls-1" d="M113.81,287.75h95.47a8.48,8.48,0,0,0,8.16-11s0-.07,0-.11a18.85,18.85,0,0,0-6.55-9.39c-3.13-2.28-8.1-3.7-11.77-2.4a16.32,16.32,0,0,0-8.23-14,17.5,17.5,0,0,0-16.79.34,19.74,19.74,0,0,0-37.06-.85,16.27,16.27,0,0,0-18.2,2.53c-4.75,4.49-6.48,12.58-3.79,18.55a8.51,8.51,0,0,0-7,7.73c-.21,3.77,2,8.6,5.84,8.6Z"/><path class="cls-7" d="M131.59,287.75h60.18a5.34,5.34,0,0,0,5.14-6.95.14.14,0,0,0,0-.07,11.91,11.91,0,0,0-4.13-5.92c-2-1.44-5.11-2.34-7.42-1.52a10.29,10.29,0,0,0-5.18-8.8,11,11,0,0,0-10.59.21,12.45,12.45,0,0,0-23.36-.54,10.27,10.27,0,0,0-11.48,1.6,10.84,10.84,0,0,0-2.39,11.69,5.39,5.39,0,0,0-4.44,4.88c-.13,2.38,1.3,5.42,3.69,5.42Z"/><path class="cls-1" d="M194.53,304.75H141.58a4.7,4.7,0,0,1-4.52-6.12.14.14,0,0,1,0-.06,10.51,10.51,0,0,1,3.63-5.21c1.74-1.26,4.5-2.05,6.53-1.33a9.06,9.06,0,0,1,4.56-7.74,9.7,9.7,0,0,1,9.32.19,10.94,10.94,0,0,1,20.55-.48,9,9,0,0,1,10.09,1.41,9.52,9.52,0,0,1,2.1,10.28,4.74,4.74,0,0,1,3.91,4.29c.11,2.09-1.14,4.77-3.24,4.77Z"/><path class="cls-7" d="M184.67,304.75H151.29a3,3,0,0,1-2.85-3.86v0a6.63,6.63,0,0,1,2.29-3.29,4.94,4.94,0,0,1,4.12-.84,5.68,5.68,0,0,1,2.88-4.88,6.12,6.12,0,0,1,5.87.12,6.9,6.9,0,0,1,12.95-.3,5.71,5.71,0,0,1,6.37.89,6,6,0,0,1,1.32,6.48,3,3,0,0,1,2.46,2.7c.08,1.32-.72,3-2,3Z"/><path class="cls-8" d="M152,290.64H77.46A6.62,6.62,0,0,1,71.09,282l0-.09a14.83,14.83,0,0,1,5.11-7.33c2.45-1.78,6.33-2.89,9.19-1.87a12.73,12.73,0,0,1,6.43-10.9,13.63,13.63,0,0,1,13.11.26,15.41,15.41,0,0,1,28.92-.67,12.73,12.73,0,0,1,14.21,2,13.42,13.42,0,0,1,3,14.48,6.65,6.65,0,0,1,5.49,6c.16,2.95-1.6,6.72-4.56,6.72Z"/><path class="cls-1" d="M138.11,290.64h-47a4.18,4.18,0,0,1-4-5.43l0,0a9.31,9.31,0,0,1,3.22-4.62,6.88,6.88,0,0,1,5.8-1.19,8,8,0,0,1,4-6.87,8.6,8.6,0,0,1,8.26.17,9.72,9.72,0,0,1,18.24-.42,8,8,0,0,1,9,1.25,8.44,8.44,0,0,1,1.87,9.12,4.19,4.19,0,0,1,3.46,3.81c.1,1.85-1,4.23-2.87,4.23Z"/><path class="cls-4" d="M315.75,249.93V264.1A13.75,13.75,0,0,1,302,277.85H284.46a10.56,10.56,0,0,0-7.44,3.2L266.57,291.5l-19.08,19.08-3.1-3.1h0l-3.09-3.08,29.5-29.51A10.92,10.92,0,0,0,274,267.1v-3.47a19.8,19.8,0,0,1,5.79-14l19.74-19.74,6.19,6.2L286,255.85a10.91,10.91,0,0,0-3.23,7.78v3.49a2,2,0,0,0,2,2H302a5,5,0,0,0,5-5V249.93Z"/><path class="cls-5" d="M302.64,233l-19.73,19.74a15.4,15.4,0,0,0-4.51,10.87v3.48A15.35,15.35,0,0,1,273.9,278l-29.51,29.5h0l-3.09-3.08,29.5-29.51A10.92,10.92,0,0,0,274,267.1v-3.48a19.79,19.79,0,0,1,5.79-14l19.74-19.74Z"/><path class="cls-5" d="M315.75,249.93V264.1A13.75,13.75,0,0,1,302,277.85H284.46a10.56,10.56,0,0,0-7.44,3.2l5.19-5.19a8.17,8.17,0,0,1,5.77-2.39h14a9.37,9.37,0,0,0,9.37-9.37V249.93Z"/><path class="cls-4" d="M245.06,321.52l-3.1,3.09-3.1,3.1-27.8-27.79a4.36,4.36,0,0,0-3.11-1.29H193a13.17,13.17,0,0,1-13.17-13.16v-12h8.77v12a4.4,4.4,0,0,0,4.4,4.4h10.11a4.09,4.09,0,0,0,4.09-4.09v-8.12H216v13.08a4.19,4.19,0,0,0,1.28,3,0,0,0,0,0,0,0Z"/><path class="cls-5" d="M242,324.61l-3.1,3.1-27.8-27.79a4.36,4.36,0,0,0-3.11-1.29H193a13.17,13.17,0,0,1-13.17-13.16v-12h4.39v12a8.78,8.78,0,0,0,8.78,8.78H208a8.77,8.77,0,0,1,6.21,2.57Z"/><path class="cls-5" d="M217.25,293.71,213,289.46a4.79,4.79,0,0,1-1.4-3.39v-8.41H216v13.08A4.19,4.19,0,0,0,217.25,293.71Z"/><path class="cls-4" d="M245.06,282.41l-6.2,6.2-20.78-20.78A24.12,24.12,0,0,0,201,260.77h-2.38a32.66,32.66,0,0,1-23.25-9.64l-17.9-17.9,3.1-3.09,3.1-3.1,17.89,17.9A24.15,24.15,0,0,0,198.65,252H201c.34,0,.68,0,1,0a6.28,6.28,0,0,0,6.42-6.3v-23h8.76v30.08a6.23,6.23,0,0,0,1.13,3.57,6.09,6.09,0,0,0,1.55,1.57,32.68,32.68,0,0,1,4.39,3.68Z"/><path class="cls-5" d="M242,285.51l-3.1,3.1-20.78-20.78A24.14,24.14,0,0,0,201,260.76h-2.37a32.65,32.65,0,0,1-23.25-9.63l-17.9-17.9,3.1-3.1L178.5,248a28.46,28.46,0,0,0,20.15,8.35H201a28.51,28.51,0,0,1,20.16,8.35Z"/><path class="cls-5" d="M218.34,256.38,216,254.25a10,10,0,0,1-3.2-7.32v-24.2h4.38v30.08A6.25,6.25,0,0,0,218.34,256.38Z"/><path class="cls-4" d="M254.36,231.79V423.11q-6.2.17-12.4.1t-12.41-.35V231.79Z"/><path class="cls-5" d="M254.36,231.79V423.11q-6.2.17-12.4.1V231.79Z"/><path class="cls-5" d="M229.55,231.79h24.81V250.7H229.55Z"/><path class="cls-6" d="M242,231.79h12.41V250.7H242Z"/><path class="cls-7" d="M312.66,187H160.91c-9.12,0-15.9-8.9-13-17.54l.06-.17c2-5.83,5.39-11.33,10.4-14.93s12.89-5.88,18.72-3.81a25.93,25.93,0,0,1,13.07-22.2c7.88-4.36,19.05-4.2,26.7.54a32.18,32.18,0,0,1,28.93-21.25c12.72-.3,25.34,8,30,19.89a25.87,25.87,0,0,1,28.93,4c7.55,7.14,10.3,20,6,29.48A13.55,13.55,0,0,1,322,173.29c.33,6-3.27,13.68-9.29,13.68Z"/><path class="cls-2" d="M284.41,187H188.74a8.49,8.49,0,0,1-8.17-11.06.42.42,0,0,1,0-.1,18.88,18.88,0,0,1,6.56-9.41c3.14-2.29,8.12-3.71,11.79-2.41a16.36,16.36,0,0,1,8.25-14,17.56,17.56,0,0,1,16.83.35,19.78,19.78,0,0,1,37.13-.86A16.31,16.31,0,0,1,279.41,152c4.75,4.5,6.49,12.61,3.79,18.58a8.54,8.54,0,0,1,7.06,7.75C290.47,182.13,288.2,187,284.41,187Z"/><path class="cls-7" d="M232.75,284.16H162.14a6.26,6.26,0,0,1-6-8.16l0-.08A14,14,0,0,1,161,269c2.32-1.69,6-2.74,8.7-1.78a12.09,12.09,0,0,1,6.09-10.33,13,13,0,0,1,12.42.25,14.6,14.6,0,0,1,27.41-.63,12,12,0,0,1,13.46,1.88,12.69,12.69,0,0,1,2.8,13.71,6.3,6.3,0,0,1,5.21,5.72c.15,2.79-1.52,6.36-4.32,6.36Z"/><path class="cls-2" d="M219.6,284.16H175.09a4,4,0,0,1-3.81-5.14l0,0a8.78,8.78,0,0,1,3-4.38,6.53,6.53,0,0,1,5.49-1.12,7.61,7.61,0,0,1,3.84-6.51,8.16,8.16,0,0,1,7.83.16,9.21,9.21,0,0,1,17.28-.4,7.59,7.59,0,0,1,8.49,1.18,8,8,0,0,1,1.76,8.65,4,4,0,0,1,3.29,3.6c.09,1.76-1,4-2.73,4Z"/><path class="cls-1" d="M257.9,222.92H127.62c-7.83,0-13.65-7.64-11.13-15.06,0,0,0-.09.05-.14a25.81,25.81,0,0,1,8.94-12.82c4.28-3.11,11.06-5.05,16.06-3.27a22.3,22.3,0,0,1,11.23-19.07c6.76-3.74,16.35-3.6,22.92.47a26.94,26.94,0,0,1,50.57-1.17,22.24,22.24,0,0,1,24.84,3.46c6.48,6.13,8.84,17.17,5.17,25.31a11.64,11.64,0,0,1,9.61,10.55c.28,5.15-2.81,11.74-8,11.74Z"/><path class="cls-7" d="M233.65,222.92H151.51a7.29,7.29,0,0,1-7-9.49l0-.09a16.27,16.27,0,0,1,5.63-8.08c2.7-2,7-3.19,10.13-2.07a14,14,0,0,1,7.08-12,15,15,0,0,1,14.45.29,17,17,0,0,1,31.88-.74,14,14,0,0,1,15.66,2.19,14.76,14.76,0,0,1,3.25,16,7.31,7.31,0,0,1,6.06,6.65c.18,3.24-1.77,7.4-5,7.4Z"/><path class="cls-1" d="M191.32,242.57H120.71a6.27,6.27,0,0,1-6-8.16l0-.08a14,14,0,0,1,4.85-7c2.32-1.68,6-2.73,8.71-1.77a12.07,12.07,0,0,1,6.08-10.33,12.92,12.92,0,0,1,12.42.25,14.6,14.6,0,0,1,27.41-.63,12,12,0,0,1,13.46,1.87,12.71,12.71,0,0,1,2.8,13.72,6.29,6.29,0,0,1,5.21,5.72c.15,2.79-1.52,6.36-4.32,6.36Z"/><path class="cls-7" d="M178.17,242.57H133.66a3.94,3.94,0,0,1-3.8-5.14.43.43,0,0,1,0-.05,8.8,8.8,0,0,1,3.06-4.38,6.49,6.49,0,0,1,5.49-1.12,7.61,7.61,0,0,1,3.83-6.52,8.18,8.18,0,0,1,7.83.16,9.2,9.2,0,0,1,17.28-.39,7.58,7.58,0,0,1,8.49,1.18,8,8,0,0,1,1.76,8.65,4,4,0,0,1,3.29,3.6c.09,1.76-1,4-2.73,4Z"/><path class="cls-1" d="M232.06,227.68H359.39c7.65,0,13.33-7.47,10.87-14.72,0,0,0-.09-.05-.14a25.25,25.25,0,0,0-8.73-12.53c-4.18-3-10.81-4.93-15.7-3.2a21.76,21.76,0,0,0-11-18.62,23.33,23.33,0,0,0-22.4.45A26.32,26.32,0,0,0,263,177.78a21.71,21.71,0,0,0-24.28,3.38c-6.33,6-8.64,16.78-5.05,24.73a11.39,11.39,0,0,0-9.4,10.31c-.27,5,2.75,11.48,7.8,11.48Z"/><path class="cls-7" d="M255.77,227.68H336a7.13,7.13,0,0,0,6.86-9.28l0-.09a16,16,0,0,0-5.51-7.9c-2.63-1.91-6.81-3.11-9.9-2a13.73,13.73,0,0,0-6.91-11.75,14.72,14.72,0,0,0-14.12.29,16.6,16.6,0,0,0-31.16-.72,13.7,13.7,0,0,0-15.3,2.13,14.46,14.46,0,0,0-3.19,15.6,7.16,7.16,0,0,0-5.92,6.49c-.17,3.17,1.73,7.24,4.92,7.24Z"/><path class="cls-1" d="M339.71,250.35H269.1a6.27,6.27,0,0,1-6-8.16l0-.08a14,14,0,0,1,4.85-7c2.31-1.68,6-2.74,8.7-1.77a12.05,12.05,0,0,1,6.09-10.33,12.92,12.92,0,0,1,12.42.25,14.6,14.6,0,0,1,27.41-.64A12,12,0,0,1,336,224.55a12.71,12.71,0,0,1,2.8,13.72A6.29,6.29,0,0,1,344,244c.15,2.79-1.52,6.37-4.32,6.37Z"/><path class="cls-7" d="M326.56,250.35H282.05a4,4,0,0,1-3.81-5.15s0,0,0,0a8.82,8.82,0,0,1,3.05-4.38,6.52,6.52,0,0,1,5.49-1.11,7.62,7.62,0,0,1,3.84-6.52,8.16,8.16,0,0,1,7.83.16,9.21,9.21,0,0,1,17.28-.4,7.58,7.58,0,0,1,8.48,1.19,8,8,0,0,1,1.77,8.64,4,4,0,0,1,3.29,3.61C329.38,248.09,328.33,250.35,326.56,250.35Z"/><path class="cls-8" d="M286.27,234.06H186.88a8.82,8.82,0,0,1-8.49-11.48l0-.12a19.68,19.68,0,0,1,6.81-9.77c3.27-2.38,8.44-3.86,12.26-2.5a17,17,0,0,1,8.57-14.54,18.21,18.21,0,0,1,17.48.35,20.56,20.56,0,0,1,38.58-.89,17,17,0,0,1,18.95,2.64c4.94,4.68,6.74,13.1,3.94,19.31a8.86,8.86,0,0,1,7.33,8c.22,3.93-2.14,9-6.08,9Z"/><path class="cls-1" d="M267.76,234.06H205.11a5.56,5.56,0,0,1-5.35-7.24l0-.07a12.37,12.37,0,0,1,4.3-6.16c2.06-1.5,5.32-2.43,7.72-1.58a10.72,10.72,0,0,1,5.4-9.17,11.49,11.49,0,0,1,11,.23,13,13,0,0,1,24.32-.56,10.67,10.67,0,0,1,11.94,1.66A11.27,11.27,0,0,1,267,223.34a5.6,5.6,0,0,1,4.62,5.07c.13,2.48-1.35,5.65-3.84,5.65Z"/><path class="cls-4" d="M415,304.44v10.62a10.31,10.31,0,0,1-10.31,10.31H391.5a7.9,7.9,0,0,0-5.57,2.4l-7.84,7.84-14.3,14.3-2.33-2.32h0l-2.32-2.31,22.12-22.12a8.22,8.22,0,0,0,2.42-5.84v-2.6A14.8,14.8,0,0,1,388,304.23l14.79-14.8,4.65,4.64-14.79,14.81a8.16,8.16,0,0,0-2.42,5.83v2.62a1.47,1.47,0,0,0,1.47,1.47h12.94a3.73,3.73,0,0,0,3.73-3.74V304.44Z"/><path class="cls-5" d="M405.14,291.75l-14.8,14.8a11.55,11.55,0,0,0-3.38,8.16v2.6a11.54,11.54,0,0,1-3.37,8.16l-22.13,22.12h0l-2.32-2.31,22.12-22.12a8.22,8.22,0,0,0,2.42-5.84v-2.6A14.8,14.8,0,0,1,388,304.23l14.8-14.8Z"/><path class="cls-5" d="M415,304.44v10.62a10.31,10.31,0,0,1-10.31,10.31H391.5a7.9,7.9,0,0,0-5.57,2.4l3.89-3.89a6.11,6.11,0,0,1,4.33-1.79h10.51a7,7,0,0,0,7-7V304.44Z"/><path class="cls-4" d="M362,358.11l-2.33,2.33-2.32,2.32-20.84-20.84a3.31,3.31,0,0,0-2.34-1h-11.2a9.87,9.87,0,0,1-9.87-9.87v-9h6.57v9a3.3,3.3,0,0,0,3.3,3.3h7.58a3.07,3.07,0,0,0,3.07-3.06v-6.09h6.57V335a3.16,3.16,0,0,0,1,2.23h0Z"/><path class="cls-5" d="M359.63,360.44l-2.32,2.32-20.84-20.84a3.31,3.31,0,0,0-2.34-1h-11.2a9.87,9.87,0,0,1-9.87-9.87v-9h3.29v9a6.59,6.59,0,0,0,6.58,6.59h11.2a6.56,6.56,0,0,1,4.66,1.93Z"/><path class="cls-5" d="M341.11,337.27l-3.19-3.19a3.57,3.57,0,0,1-1.06-2.54v-6.31h3.29V335a3.16,3.16,0,0,0,1,2.23Z"/><path class="cls-4" d="M362,328.79l-4.65,4.65-15.58-15.58a18.09,18.09,0,0,0-12.79-5.3h-1.78a24.46,24.46,0,0,1-17.43-7.23L296.3,291.92l2.33-2.33,2.32-2.32,13.42,13.42a18.07,18.07,0,0,0,12.79,5.3h2.53a4.71,4.71,0,0,0,4.82-4.72V284h6.57v22.55a4.71,4.71,0,0,0,.84,2.69,4.82,4.82,0,0,0,1.17,1.17,24.67,24.67,0,0,1,3.29,2.76Z"/><path class="cls-5" d="M359.63,331.12l-2.32,2.32-15.58-15.58a18.09,18.09,0,0,0-12.79-5.3h-1.78a24.46,24.46,0,0,1-17.43-7.23L296.3,291.92l2.33-2.33L312.05,303a21.4,21.4,0,0,0,15.11,6.26h1.78a21.38,21.38,0,0,1,15.12,6.26Z"/><path class="cls-5" d="M341.92,309.28l-1.72-1.6a7.49,7.49,0,0,1-2.4-5.49V284h3.28V306.6A4.78,4.78,0,0,0,341.92,309.28Z"/><path class="cls-4" d="M368.93,290.84V400.45l-5.85,2.12-3.45,1.23q-4.63,1.62-9.3,3.11V290.84Z"/><path class="cls-5" d="M368.93,290.84V400.45l-5.85,2.12-3.45,1.23v-113Z"/><path class="cls-5" d="M350.34,290.84h18.6V305h-18.6Z"/><path class="cls-6" d="M359.63,290.84h9.31V305h-9.31Z"/><path class="cls-7" d="M412.65,257.23H298.86c-6.83,0-11.92-6.68-9.72-13.15,0-.05,0-.09.05-.13a22.5,22.5,0,0,1,7.8-11.19c3.74-2.72,9.66-4.42,14-2.86a19.44,19.44,0,0,1,9.81-16.65,20.84,20.84,0,0,1,20,.41,23.52,23.52,0,0,1,44.16-1,19.41,19.41,0,0,1,21.69,3c5.66,5.35,7.72,15,4.52,22.1a10.15,10.15,0,0,1,8.39,9.21C419.86,251.47,417.16,257.23,412.65,257.23Z"/><path class="cls-2" d="M391.46,257.23H319.73a6.37,6.37,0,0,1-6.13-8.29l0-.08a14.21,14.21,0,0,1,4.92-7.06c2.36-1.71,6.09-2.78,8.85-1.8a12.27,12.27,0,0,1,6.18-10.5,13.15,13.15,0,0,1,12.62.26,14.83,14.83,0,0,1,27.84-.64,12.24,12.24,0,0,1,13.68,1.9A12.91,12.91,0,0,1,390.56,245a6.41,6.41,0,0,1,5.29,5.81c.16,2.84-1.54,6.47-4.39,6.47Z"/><path class="cls-7" d="M352.73,330.11h-53a4.7,4.7,0,0,1-4.52-6.12l0-.06a10.42,10.42,0,0,1,3.63-5.21c1.74-1.27,4.5-2.05,6.53-1.33a9.06,9.06,0,0,1,4.56-7.75,9.73,9.73,0,0,1,9.32.19,10.95,10.95,0,0,1,20.55-.47,9,9,0,0,1,10.09,1.4,9.5,9.5,0,0,1,2.1,10.29,4.71,4.71,0,0,1,3.91,4.28c.11,2.1-1.14,4.78-3.24,4.78Z"/><path class="cls-2" d="M342.87,330.11H309.49a3,3,0,0,1-2.85-3.86v0a6.65,6.65,0,0,1,2.29-3.28,4.88,4.88,0,0,1,4.12-.84,5.68,5.68,0,0,1,2.88-4.88,6.09,6.09,0,0,1,5.87.12,6.89,6.89,0,0,1,12.95-.3,5.69,5.69,0,0,1,6.37.88,6,6,0,0,1,1.32,6.49,3,3,0,0,1,2.46,2.7c.08,1.32-.71,3-2,3Z"/><path class="cls-1" d="M364.68,284.19H267a8.67,8.67,0,0,1-8.34-11.29.36.36,0,0,1,0-.11,19.29,19.29,0,0,1,6.7-9.61c3.21-2.34,8.29-3.79,12.05-2.46a16.69,16.69,0,0,1,8.41-14.29,17.91,17.91,0,0,1,17.19.35A20.2,20.2,0,0,1,341,245.9a16.63,16.63,0,0,1,18.62,2.6c4.86,4.59,6.63,12.87,3.88,19a8.72,8.72,0,0,1,7.21,7.91c.21,3.86-2.11,8.81-6,8.81Z"/><path class="cls-7" d="M346.49,284.19H284.9a5.47,5.47,0,0,1-5.26-7.12l0-.07a12.19,12.19,0,0,1,4.23-6.06c2-1.47,5.23-2.39,7.59-1.55a10.54,10.54,0,0,1,5.31-9,11.31,11.31,0,0,1,10.84.22,12.73,12.73,0,0,1,23.9-.55,10.48,10.48,0,0,1,11.74,1.64,11.06,11.06,0,0,1,2.44,12,5.49,5.49,0,0,1,4.55,5c.13,2.43-1.33,5.55-3.77,5.55Z"/><path class="cls-1" d="M314.75,298.92H261.8a4.7,4.7,0,0,1-4.52-6.12l0-.06a10.51,10.51,0,0,1,3.63-5.21c1.74-1.26,4.5-2,6.53-1.33a9.06,9.06,0,0,1,4.56-7.74,9.68,9.68,0,0,1,9.32.19,10.94,10.94,0,0,1,20.55-.48A9,9,0,0,1,312,279.58a9.49,9.49,0,0,1,2.1,10.28,4.73,4.73,0,0,1,3.91,4.29c.11,2.09-1.14,4.77-3.24,4.77Z"/><path class="cls-7" d="M304.89,298.92H271.51a3,3,0,0,1-2.85-3.86l0,0a6.57,6.57,0,0,1,2.28-3.28,4.91,4.91,0,0,1,4.12-.84A5.71,5.71,0,0,1,278,286a6.12,6.12,0,0,1,5.87.12,6.89,6.89,0,0,1,12.95-.3,5.71,5.71,0,0,1,6.37.88,6,6,0,0,1,1.32,6.49,3,3,0,0,1,2.46,2.7c.08,1.32-.71,3-2,3Z"/><path class="cls-1" d="M444.66,265c-.18,1.64-.38,3.29-.6,4.93q-1.2,9.06-3.21,17.85H352.21c-3.78,0-6-4.83-5.84-8.61a8.53,8.53,0,0,1,7-7.72c-2.69-6-1-14.05,3.79-18.55a16.26,16.26,0,0,1,18.2-2.53,19.74,19.74,0,0,1,37.06.85,17.5,17.5,0,0,1,16.79-.34,16.32,16.32,0,0,1,8.23,14,11.78,11.78,0,0,1,7.18.15Z"/><path class="cls-7" d="M370,287.75h60.19a5.34,5.34,0,0,0,5.14-6.95l0-.07a11.83,11.83,0,0,0-4.12-5.92c-2-1.44-5.11-2.34-7.43-1.52a10.29,10.29,0,0,0-5.18-8.8,11,11,0,0,0-10.59.21,12.45,12.45,0,0,0-23.36-.54,10.28,10.28,0,0,0-11.48,1.6,10.82,10.82,0,0,0-2.38,11.69,5.38,5.38,0,0,0-4.44,4.88C366.17,284.71,367.6,287.75,370,287.75Z"/><path class="cls-1" d="M353.2,287.75c-3.76,0-6-4.81-5.8-8.56a8.48,8.48,0,0,1,7-7.7c-2.67-5.94-1-14,3.75-18.46a16.08,16.08,0,0,1,18.05-2.53,19.54,19.54,0,0,1,36.73.85,17.28,17.28,0,0,1,16.65-.34,16.27,16.27,0,0,1,8.16,13.91c3.63-1.3,8.56.12,11.67,2.39a18.81,18.81,0,0,1,6.49,9.35l0,.11a8.43,8.43,0,0,1-8.09,11Z"/><path class="cls-7" d="M370.82,287.75c-2.37,0-3.78-3-3.66-5.4a5.35,5.35,0,0,1,4.41-4.85,10.83,10.83,0,0,1,2.36-11.64,10.13,10.13,0,0,1,11.38-1.59,12.32,12.32,0,0,1,23.16.53,10.91,10.91,0,0,1,10.5-.21,10.26,10.26,0,0,1,5.14,8.77c2.29-.82,5.4.07,7.36,1.5a11.89,11.89,0,0,1,4.09,5.9.64.64,0,0,1,0,.07,5.32,5.32,0,0,1-5.1,6.92Z"/><path class="cls-1" d="M432.93,304.75H380a4.7,4.7,0,0,1-4.52-6.12s0,0,0-.06a10.57,10.57,0,0,1,3.63-5.21c1.74-1.26,4.5-2.05,6.53-1.33a9,9,0,0,1,4.57-7.74,9.68,9.68,0,0,1,9.31.19,10.94,10.94,0,0,1,20.55-.48,9,9,0,0,1,10.09,1.41,9.51,9.51,0,0,1,2.11,10.28,4.73,4.73,0,0,1,3.9,4.29c.12,2.09-1.14,4.77-3.24,4.77Z"/><path class="cls-7" d="M423.07,304.75H389.69a3,3,0,0,1-2.85-3.86l0,0a6.55,6.55,0,0,1,2.28-3.29,4.94,4.94,0,0,1,4.12-.84,5.71,5.71,0,0,1,2.88-4.88A6.12,6.12,0,0,1,402,292a6.9,6.9,0,0,1,12.95-.3,5.71,5.71,0,0,1,6.37.89,6,6,0,0,1,1.32,6.48,3,3,0,0,1,2.46,2.7c.08,1.32-.71,3-2,3Z"/><path class="cls-8" d="M389.57,296.33H315.05a6.62,6.62,0,0,1-6.37-8.61l0-.08a14.74,14.74,0,0,1,5.11-7.33c2.45-1.78,6.33-2.89,9.19-1.88a12.75,12.75,0,0,1,6.42-10.9,13.66,13.66,0,0,1,13.11.27,15.41,15.41,0,0,1,28.93-.67,12.69,12.69,0,0,1,14.21,2,13.4,13.4,0,0,1,2.95,14.47,6.65,6.65,0,0,1,5.5,6c.16,2.94-1.6,6.71-4.56,6.71Z"/><path class="cls-1" d="M375.7,296.33h-47a4.17,4.17,0,0,1-4-5.43l0,0a9.35,9.35,0,0,1,3.22-4.62,6.91,6.91,0,0,1,5.8-1.18,8,8,0,0,1,4-6.87,8.64,8.64,0,0,1,8.27.16,9.71,9.71,0,0,1,18.23-.42,8,8,0,0,1,9,1.25,8.46,8.46,0,0,1,1.87,9.13,4.2,4.2,0,0,1,3.46,3.8c.1,1.86-1,4.23-2.87,4.23Z"/><path class="cls-8" d="M372.52,399.16a203.09,203.09,0,0,1-130,47.27h-.54a203.11,203.11,0,0,1-136.23-52.19h27.07c5.37,0,12-3.05,14.67-6.81,2.8-4,3.88-10.08,8.42-13.09s12-2.68,17.54-2.63c9.68.11,16.28-2.59,22-8.89,2.41-2.67,4.72-5.48,8-7.48a22,22,0,0,1,15-2.65c8.43,1.51,12.36,8.34,20,11.22,1.14.43,2.33.82,3.56,1.15a41.46,41.46,0,0,0,19.41.85c6.79-1.49,12.31-5.76,19.72-2.31s8.29,13,16.13,16.09c7.53,2.91,16-2,24.29-2.62,20.45-1.42,18.19,22.09,37,22.09Z"/><path class="cls-1" d="M372.52,399.16a203.09,203.09,0,0,1-130,47.27H242V365.06a41.46,41.46,0,0,0,19.41.85c6.79-1.49,12.31-5.76,19.72-2.31s8.29,13,16.13,16.09c7.53,2.91,16-2,24.29-2.62,20.45-1.42,18.19,22.09,37,22.09Z"/></svg>