<svg width="22" height="20" viewBox="0 0 22 20" fill="none" xmlns="http://www.w3.org/2000/svg">
<path fill-rule="evenodd" clip-rule="evenodd" d="M3.68994 4.52496L1.01001 1.84497L2.42004 0.424988L20.15 18.165L18.74 19.575L15.3199 16.155C13.98 16.685 12.52 16.975 11 16.975C6 16.975 1.72998 13.865 0 9.47498C0.77002 7.505 2.06006 5.80499 3.68994 4.52496ZM11 3.97498C14.79 3.97498 18.17 6.10498 19.8199 9.47498C19.23 10.6949 18.4 11.745 17.41 12.595L18.8199 14.005C20.21 12.775 21.3099 11.235 22 9.47498C20.27 5.08496 16 1.97498 11 1.97498C9.72998 1.97498 8.51001 2.17499 7.35999 2.54498L9.01001 4.19495C9.66003 4.065 10.3199 3.97498 11 3.97498ZM9.93005 5.11499L12 7.185C12.5701 7.435 13.03 7.89496 13.28 8.46497L15.3501 10.535C15.4301 10.1949 15.4901 9.83496 15.4901 9.46497C15.5 6.98499 13.4801 4.97498 11 4.97498C10.63 4.97498 10.28 5.02496 9.93005 5.11499ZM8.51001 9.34497L11.12 11.955C11.08 11.965 11.04 11.975 11 11.975C9.62 11.975 8.5 10.855 8.5 9.47498C8.5 9.44995 8.50244 9.42999 8.505 9.40997C8.50757 9.38995 8.51001 9.37 8.51001 9.34497ZM6.86011 7.69501L5.11011 5.94501C3.90002 6.86499 2.88 8.04498 2.18005 9.47504C3.83008 12.845 7.21008 14.975 11 14.975C11.9501 14.975 12.87 14.835 13.75 14.595L12.77 13.615C12.2301 13.845 11.63 13.975 11 13.975C8.52002 13.975 6.5 11.955 6.5 9.47504C6.5 8.84503 6.63 8.245 6.86011 7.69501Z" fill="black" fill-opacity="0.54"/>
</svg>
