<?xml version="1.0" encoding="utf-8"?>
<!-- Generator: Adobe Illustrator 25.2.1, SVG Export Plug-In . SVG Version: 6.00 Build 0)  -->
<svg version="1.1" id="Layer_1" xmlns="http://www.w3.org/2000/svg" xmlns:xlink="http://www.w3.org/1999/xlink" x="0px" y="0px"
	 viewBox="0 0 145 67" style="enable-background:new 0 0 145 67;" xml:space="preserve">
<style type="text/css">
	.st0{fill-rule:evenodd;clip-rule:evenodd;fill:#FFFFFF;}
</style>
<path class="st0" d="M145,8.3c0-4.6-3.7-8.3-8.3-8.3H70.3C65.7,0,62,3.7,62,8.3v49.8c0,4.6,3.7,8.3,8.3,8.3h66.4
	c4.6,0,8.3-3.7,8.3-8.3V8.3z M136.7,8.3L103.5,29L70.3,8.3H136.7z M103.5,37.4L70.3,16.6v41.5h66.4V16.6L103.5,37.4z"/>
<path class="st0" d="M49.5,17.2v5.5H0v-5.5H49.5z M49.5,50.2H33v-5.5h16.5V50.2z M16.5,36.5h33V31h-33V36.5z"/>
</svg>
