<?xml version="1.0" encoding="utf-8"?>
<!-- Generator: Adobe Illustrator 24.3.0, SVG Export Plug-In . SVG Version: 6.00 Build 0)  -->
<svg version="1.1" id="Layer_1" xmlns="http://www.w3.org/2000/svg" xmlns:xlink="http://www.w3.org/1999/xlink" x="0px" y="0px"
	 viewBox="0 0 400 220" style="enable-background:new 0 0 400 220;" xml:space="preserve">
<style type="text/css">
	.st0{fill:#FFFFFF;}
</style>
<g id="Layer_3">
	<path d="M236.9,174.9c0.6,7,1.2,13.6,1.8,20.3l-2.7,1.5L218,186c-6.7,0.9-9-1.2-10.8-12.7c-8.8,0-17.8-0.2-26.7,0
		c-9.3,0.2-18.7,0.9-28,1.2c-21.1,0.5-42.3,1-63.4,1.3c-12.2,0.2-24.4,0.2-36.6,0.3c-2.2,0-4.3,0-8,0c3.7,5,6.4,8.9,9.3,12.7
		c0.7,0.8,1.7,1.4,2.7,1.5c9.1,0.9,18.3,10.6,18.9,19.6c0.3,5-3.3,5.4-6.4,5.6c-6.1,0.4-15.4-6.6-15.3-12.7
		c0.2-9.9-8.2-13.4-12.5-21.2c-2.3,5.9-5.8,10.1-0.7,15.5c1.5,1.6,0.8,6.5-0.4,9.2c-0.6,1.4-6,2.5-6.8,1.6c-2-2.1-3.1-5.5-3.4-8.5
		c-0.3-2.5,0.7-5.2,1.5-7.8c1.9-5.7-1.1-10-2.8-15.2c-3-9-5.2-19.4-3.7-28.5c4.1-24.4,7.3-48.7,6.1-73.5c-0.2-4.6-1.3-9.2-2-13.8
		c-0.4-1.9-0.7-3.9-0.8-5.9c-0.1-11-0.1-11-6-20.9c-4.3-7.2-4.3-13.6,0.2-17.8c2-1.9,3.4-3,6.5-0.3c7.6,6.5,10.6,14.4,10,24h112.9
		c-9.4-9.3-16-19.2-12.7-34.7l18.2,9.3l20.3-4.6c5.6,9.3,4.9,16-2.4,29.8c16.2,1.3,31.6,6.4,48.5,2c13.1-3.4,27.4-2.6,41.2-2.5
		c12.9,0.1,25.8,1.7,38.6,2.6c14.2,1,28.4,2.1,42.6,3.1c2.6,0.2,5.3,0,8.1,0c0.8-4.5,0.9-8.9,2.5-12.6c1.7-3.8,4.3-7.1,7.6-9.5
		c1.9-1.4,6.5-1.3,8.3,0.2s2.8,5.8,2.1,8.2c-1.3,4.4-1.4,7.5,1.8,11.3c4.7,5.7,2.3,13-4.6,15.8c-2.6,1-5.5,1.3-8.4,2v59.5
		c-0.1,12.5,4.8-8.5,13.3-1.8c0.3-3.2,0.9-5.5,0.6-7.7c-1.2-8.9,3.2-17,10.7-20c4.6-1.9,6.3-0.2,6.6,4.1c0.2,2.9,0.2,5.8,0,8.7
		c-0.3,2.8-1,5.6-1.5,8.4c6.7,2.9,7.3,6.3,1.2,10.9c-2.7,2-6.7,4-9.7,3.5c-8.7-1.3-13.2,4.4-16.1,10.2c-4.1,8.3-4.2,17.1-6.1,26.1
		c-2,9.2-6.7,14-18.6,13.9c-14.7-0.1-29.4-1.2-44-1.4c-14.9-0.2-29.8,0.2-44.7,0.3C248.7,174.9,242.3,174.9,236.9,174.9z
		 M32.9,165.7c6.3,0,10.5,0.1,14.8,0c37.8-0.5,75.6-1.2,113.4-1.3c20.7-0.1,41.4,1.2,62.1,1.3c38.8,0.2,77.7-0.1,116.5,0.2
		c7.3,0,11.4-3.1,13.2-9.7c1.1-3.4,1.7-6.9,1.8-10.4c0.2-28.2,0.1-56.3,0.2-84.4c0-3.5-0.9-5.8-5.1-6.2c-13-1.2-26-4-39.1-4.2
		c-29.9-0.3-59.7,0.8-89.6,1c-10.8,0.1-21.7,1.7-32.4-2.4c-4.4-1.7-9.6-1.6-14.5-1.7c-12.9-0.1-25.9,0.1-38.8,0.3
		c-23.2,0.4-46.3,0.7-69.5,1.3c-9.3,0.2-18.6,1.2-28.8,1.8c0.4,3.8,0.7,7.4,1,10.8l13.2-7.3c4,9.3,2.1,18-5.3,22.7
		c-4,2.5-4.6,5.2-4.5,9.2c0.3,13.1-0.5,26-3.8,39C34.5,138.3,34.4,151.6,32.9,165.7L32.9,165.7z M162.9,38
		c1.5-11.9-8.6-24.1-20.4-26.5c-1.6,8.7,4.4,20.1,11.2,22.3c-1.1-2.9-2.4-6.2-3.7-9.6l1.3-0.5L162.9,38z M167.4,38.9
		c10-5.5,9.9-13.4,9.6-20.9c0-1.4-3.3-3.9-4.7-3.7c-3.9,0.6-7.6,2.3-11.7,3.7l4.7,7.1l5.5-2.1C169.6,28.4,168.6,33,167.4,38.9
		L167.4,38.9z M361.4,47.2l2.3,0.9c2.4-7,4.8-14,7.5-21.9C361.2,27.5,359.1,36.7,361.4,47.2L361.4,47.2z M26.5,18.7
		c-4.1,6.9-0.2,16.9,7,19.3C35.6,30.2,30.3,25.1,26.5,18.7z M383.1,112.4c6.5-2.8,8.9-10.2,5.6-17.7
		C381.6,99,382.4,105.7,383.1,112.4L383.1,112.4z M224.8,178.6l-2.2,1.5c2.5,3.3,4.8,6.8,7.6,9.7c0.6,0.6,4.8-1.4,4.8-1.5
		c-1-4.1-2.3-8-3.5-12l-2.1,0.7c0.5,2.4,1.1,4.8,1.6,7.2l-1.2,0.7C228.1,182.8,226.5,180.7,224.8,178.6z M70.7,210.6
		c-1.4-7-4.9-11.1-12.4-9.7C60.4,207.7,62.2,209.1,70.7,210.6L70.7,210.6z M220.8,172.8c-3.2,0.6-6,0.7-8.3,1.8
		c-0.6,0.3-0.5,4.6,0.5,5.3c2,1.4,4.8,1.5,7.8,2.3V172.8z M371.5,44.1c-2.9,3.7-5.4,6.8-8.2,10.3C373.3,54,375.6,50.9,371.5,44.1z
		 M40.6,73.1l3.4,1.5l5.4-11.8l-2.8-1.3C44.6,65.3,42.6,69.2,40.6,73.1L40.6,73.1z"/>
	<path class="st0" d="M32.9,165.7c1.5-14.1,1.6-27.4,4.7-39.9c3.3-13,4.1-25.8,3.8-39c-0.1-4,0.5-6.7,4.5-9.2
		c7.5-4.7,9.3-13.4,5.3-22.7l-13.2,7.3c-0.3-3.5-0.7-7-1-10.8c10.2-0.7,19.5-1.6,28.8-1.8c23.2-0.6,46.3-0.9,69.5-1.3
		c12.9-0.2,25.9-0.4,38.8-0.3c4.9,0,10.1,0,14.5,1.7c10.7,4.1,21.6,2.5,32.4,2.4c29.9-0.2,59.7-1.3,89.6-1c13,0.1,26,2.9,39.1,4.2
		c4.3,0.4,5.2,2.7,5.1,6.2c0,28.1,0,56.3-0.2,84.4c-0.2,3.5-0.8,7-1.8,10.4c-1.8,6.6-5.9,9.7-13.2,9.7c-38.8-0.2-77.7,0.1-116.5-0.2
		c-20.7-0.1-41.4-1.4-62.1-1.3c-37.8,0.1-75.6,0.9-113.4,1.3C43.5,165.7,39.2,165.7,32.9,165.7z"/>
	<path class="st0" d="M162.9,38l-11.7-14.2l-1.3,0.5c1.3,3.4,2.6,6.7,3.7,9.6c-6.8-2.3-12.8-13.6-11.2-22.3
		C154.3,14,164.4,26.1,162.9,38z"/>
	<path class="st0" d="M167.4,39c1.3-6,2.2-10.5,3.4-15.9l-5.5,2.1l-4.7-7.1c4.1-1.4,7.8-3.2,11.7-3.8c1.4-0.2,4.7,2.4,4.7,3.7
		C177.2,25.6,177.4,33.4,167.4,39z"/>
	<path class="st0" d="M361.4,47.2c-2.3-10.5-0.1-19.8,9.8-21c-2.7,7.9-5.1,14.9-7.5,21.9L361.4,47.2z"/>
	<path class="st0" d="M26.5,18.7c3.9,6.5,9.2,11.5,7,19.3C26.3,35.6,22.4,25.6,26.5,18.7z"/>
	<path class="st0" d="M383,112.4c-0.6-6.7-1.5-13.5,5.6-17.7C391.9,102.3,389.6,109.7,383,112.4z"/>
	<path class="st0" d="M224.8,178.6c1.6,2.1,3.3,4.2,5,6.2l1.2-0.7c-0.5-2.4-1.1-4.8-1.6-7.2l2.1-0.7c1.2,4,2.6,7.9,3.5,12
		c0,0.2-4.2,2.1-4.8,1.5c-2.9-2.9-5.1-6.4-7.6-9.7L224.8,178.6z"/>
	<path class="st0" d="M70.7,210.6c-8.5-1.6-10.3-2.9-12.4-9.7C65.8,199.5,69.3,203.6,70.7,210.6z"/>
	<path class="st0" d="M220.8,172.9v9.4c-3-0.8-5.8-0.9-7.8-2.3c-1-0.7-1.1-5-0.5-5.3C214.8,173.6,217.5,173.5,220.8,172.9z"/>
	<path class="st0" d="M371.5,44.1c4.2,6.8,1.9,9.9-8.2,10.3C366.1,50.9,368.5,47.8,371.5,44.1z"/>
	<path class="st0" d="M40.6,73.1c2-3.9,4-7.8,6-11.6l2.8,1.3L44,74.6L40.6,73.1z"/>
</g>
</svg>
