<svg xmlns="http://www.w3.org/2000/svg" viewBox="0 0 400 220"><defs><style>.cls-1{fill:#fff;}</style></defs><g id="Layer_3" data-name="Layer 3"><path d="M317.42,181.74c0,4.83.45,9.1-.12,13.22-.63,4.65-2.31,8.79-8.4,9-1.62,0-3.53,1.92-4.69,3.43-1.42,1.85-2.18,4.2-4.34,8.61-5.07-7.56-9-13.47-13-19.34-.61-.89-1.48-2.24-2.27-2.27-9.26-.4-9.3-6.64-8.31-13.92-6.94,0-13.52.14-20.09,0-35.55-.88-71.11-2-106.67-2.69-22.26-.4-44.55-.48-66.8.17-11.73.34-23.42,2.46-35.1,3.95-5.11.65-7.72-1.58-8.46-6.39-1.86-12-4.92-24.06-5.21-36.14-.53-21.89.61-43.82,1-65.74,0-1.57,0-3.15,0-5.15A26,26,0,0,0,30.25,68c-14.76,1.4-23.33-14-21-27.66.69-4.13,3.39-5.92,7.28-3.73,3.43,1.94,6.48,4.42,9.94.2a2.08,2.08,0,0,1,1.94-.32c4.22,2.15,8.2,5.74,12.6,6.36,7.29,1,6.49,6.35,7.55,10,15.81,0,31.41,0,47,0,14.08,0,14.87-.17,26.78-8.73C112,32.44,111.91,24.58,123,19.4c2.16,5.87,4.28,11.66,6.46,17.62,4.67-3.8,7.7-8.43,5.21-15.76-2.73-8,0-16,5.93-18.13,1.43-.52,4.63.71,5.38,2.05a18.27,18.27,0,0,1-4.11,22.24c-1.44,1.22-3.46,1.74-5.21,2.59l1.9,2.18,8.35-1.8c.93,6.34-5.26,14-11.42,12.53-7.62-1.8-8.09,4-11.65,7.54l120.93,2.2c-2-2.77-6.39-6.62-7.8-11.34-1.28-4.31.65-9.58,1.24-15.12,14,7,23.93,18.52,20.26,28.18L329,57.68c1.4-3,2.65-6,4.24-8.88a17.61,17.61,0,0,1,4.13-5.5c2.72-2.12,6.59-5.7,8.78-5,5.7,1.85,9.72.64,13.32-3.4,6.74,5.25,5.91,14.42-2.31,24.8,7.08,0,10,3.09,9.84,10.34-.48,19.55-.2,39.11-.22,58.67a8.13,8.13,0,0,0,.95,4.44c2.3-9.07,13-14.07,10.45-25.83-1-4.52,1.74-10,3.43-14.82.45-1.3,3.3-2.39,5-2.37,1,0,2.5,2.36,2.81,3.86,1.65,8,.12,15.21-5.74,21.25-2,2.08-3.83,4.36-6.33,7.24l14-2.79c-1.93,8.76-8.05,14.29-15.17,15.63-2.32.44-5.49,2.47-6.17,4.48-3.78,11.27-6.8,22.79-10.33,34.14-1.57,5.06-3.54,9.8-10.52,9.3C338.39,182.49,327.51,182.2,317.42,181.74ZM87.75,171c5.92-.53,11.76-1.54,17.58-1.48,19.35.22,38.69,1.13,58,1.18,13.86,0,27.76-1.61,41.6-1.15,20.37.68,40.69,2.69,61,3.93,24.74,1.51,49.49,3,74.26,4.1,11.45.51,11.46.1,12.84-11.48.11-.89.45-1.76.59-2.65,1.62-9.8,3.85-19.56,4.7-29.42,1.41-16.31,2-32.69,2.78-49,.28-6,.05-12.13.05-17.57-9.47-.81-17.91-1.58-26.36-2.24-12.9-1-25.8-2.12-38.73-2.85-33.38-1.9-66.76-4.57-100.17-5.14-40.14-.69-80.3.47-120.46.81-5.34,0-10.69,0-14.85,0-.25,4.34,0,7.64-.79,10.66-.4,1.51-3.86,2.36-4,3.74-1,7.93-5.19,8.87-11.92,5.3-.75,5.47-2,10.14-1.93,14.8.23,20.28.55,40.57,1.48,60.84.27,6,2.52,11.85,4.14,17.69a4,4,0,0,0,2.94,2.31c7.28.2,14.58.11,22.87.11-12.92-14.72-14.45-20.06-7.2-22.62-2,7.77,2.73,15.59,11.22,18.17L71,160.18l1.39-1.29,8.84,7.43,1.29-1.6L67.22,150.63l1.48-1.36C77.62,153.92,85,160,87.75,171Zm-56-111.88c-1.87-11-9.86-15.3-17.8-20.27-2,12.65.8,20.44,8.37,24,6.3,3,9,2.84,12.09-.46C24.83,62,15.91,53.69,17,45.35c2.44,2.95,4.29,5.73,6.67,7.95S29,57.22,31.71,59.15ZM299.8,208.07c6.46-12.9,4.66-23.55-4.43-25.7L298,199.24l-2,.26c-1.36-4.3-2.72-8.61-4.17-13.18C287.88,194.47,290.29,201.12,299.8,208.07ZM255.16,54.15c.9-9.47-5.18-18.07-14.8-22.49-2.05,7.53-2,7.46,4.75,10.34,1.1.46,1.82,1.89,2.65,2.92C250,47.65,252.17,50.41,255.16,54.15ZM340.37,42.5,351,59.72V42.5ZM139.63,23.58c6-5.09,6.58-8.77,2.9-18C136.43,10.69,135.6,15.85,139.63,23.58ZM307.5,202.26c7.66-6.26,8.55-10,5.19-15.7l-1.9,7.14-1.27-.2q-.31-4.5-.61-9l-2.26.11C306.91,190,307.17,195.33,307.5,202.26Zm-17.11-20.13-2.17-3c-3,1.73-6.35,3.12-8.82,5.44-.54.51,2,4.3,3.11,6.58ZM333.12,53.4c0,.82-.07,1.64-.11,2.47l10.64,4.67,2-2.25c-1.78-2.66-3.07-6.08-5.54-7.67C338.9,49.83,335.53,52.37,333.12,53.4ZM121,23.42c-4.52,9.15-3,13.76,5.35,16.57C124.51,34.33,122.9,29.34,121,23.42ZM47.13,59.76C43.64,71,44.47,73.49,52.62,76.08,50.77,70.57,49.22,66,47.13,59.76Zm306-3.62c7.14-5.48,7.57-7,4.44-16.58C356.22,44.51,354.9,49.45,353.11,56.14Zm28.13,54.36,2.83.46,2.52-16.84-2.81-.45Q382.51,102.09,381.24,110.5ZM26.11,42l8.49,9.12C34,42.87,31.58,40.27,26.11,42Z"/><path class="cls-1" d="M87.75,171c-2.75-11-10.13-17.11-19-21.76l-1.48,1.36,15.32,14.09-1.29,1.6-8.84-7.43L71,160.18,77.45,169c-8.49-2.58-13.21-10.4-11.22-18.17-7.25,2.56-5.72,7.9,7.2,22.62-8.29,0-15.59.09-22.87-.11a4,4,0,0,1-2.94-2.31c-1.62-5.84-3.87-11.74-4.14-17.69-.93-20.27-1.25-40.56-1.48-60.84,0-4.66,1.18-9.33,1.93-14.8,6.73,3.57,11,2.63,11.92-5.3.17-1.38,3.63-2.23,4-3.74.8-3,.54-6.32.79-10.66,4.16,0,9.51,0,14.85,0,40.16-.34,80.32-1.5,120.46-.81,33.41.57,66.79,3.24,100.17,5.14,12.93.73,25.83,1.84,38.73,2.85,8.45.66,16.89,1.43,26.36,2.24,0,5.44.23,11.52-.05,17.57-.76,16.35-1.37,32.73-2.78,49-.85,9.86-3.08,19.62-4.7,29.42-.14.89-.48,1.76-.59,2.65-1.38,11.58-1.39,12-12.84,11.48-24.77-1.11-49.52-2.59-74.26-4.1-20.36-1.24-40.68-3.25-61-3.93-13.84-.46-27.74,1.19-41.6,1.15-19.35,0-38.69-1-58-1.18C99.51,169.49,93.67,170.5,87.75,171Z"/><path class="cls-1" d="M31.71,59.15c-2.7-1.93-5.63-3.61-8-5.85s-4.23-5-6.67-7.95c-1.08,8.34,7.84,16.61,17.38,17-3,3.3-5.79,3.41-12.09.46-7.57-3.54-10.41-11.33-8.37-24C21.85,43.85,29.84,48.17,31.71,59.15Z"/><path class="cls-1" d="M299.8,208.07c-9.51-6.95-11.92-13.6-7.93-21.75,1.45,4.57,2.81,8.88,4.17,13.18l2-.26-2.63-16.87C304.46,184.52,306.26,195.17,299.8,208.07Z"/><path class="cls-1" d="M255.16,54.15c-3-3.74-5.18-6.5-7.4-9.23-.83-1-1.55-2.46-2.65-2.92-6.77-2.88-6.8-2.81-4.75-10.34C250,36.08,256.06,44.68,255.16,54.15Z"/><path class="cls-1" d="M340.37,42.5H351V59.72Z"/><path class="cls-1" d="M139.63,23.58c-4-7.73-3.2-12.89,2.9-18C146.21,14.81,145.61,18.49,139.63,23.58Z"/><path class="cls-1" d="M307.5,202.26c-.33-6.93-.59-12.29-.85-17.65l2.26-.11q.3,4.5.61,9l1.27.2,1.9-7.14C316.05,192.27,315.16,196,307.5,202.26Z"/><path class="cls-1" d="M290.39,182.13l-7.88,9c-1.12-2.28-3.65-6.07-3.11-6.58,2.47-2.32,5.8-3.71,8.82-5.44Z"/><path class="cls-1" d="M333.12,53.4c2.41-1,5.78-3.57,7-2.78,2.47,1.59,3.76,5,5.54,7.67l-2,2.25L333,55.87C333.05,55,333.08,54.22,333.12,53.4Z"/><path class="cls-1" d="M121,23.42c1.92,5.92,3.53,10.91,5.35,16.57C118,37.18,116.46,32.57,121,23.42Z"/><path class="cls-1" d="M47.13,59.76c2.09,6.21,3.64,10.81,5.49,16.32C44.47,73.49,43.64,71,47.13,59.76Z"/><path class="cls-1" d="M353.11,56.14c1.79-6.69,3.11-11.63,4.44-16.58C360.68,49.19,360.25,50.66,353.11,56.14Z"/><path class="cls-1" d="M381.24,110.5q1.26-8.41,2.54-16.83l2.81.45L384.07,111Z"/><path class="cls-1" d="M26.11,42c5.47-1.76,7.9.84,8.49,9.12Z"/></g></svg>