<svg xmlns="http://www.w3.org/2000/svg" viewBox="0 0 400 220"><defs><style>.cls-1{fill:#fff;}</style></defs><g id="Layer_3" data-name="Layer 3"><path d="M115.52,28.68c1.49-.27,3.48-1.29,4.38-.69,8.07,5.38,9.61,11.34,5.93,22.34a30.21,30.21,0,0,0,3.25.46c19.35.56,38.71,1.6,58.06,1.49,15.87-.09,31.75-1.38,47.59-2.56,2.75-.21,5.34-2.52,9.1-4.42-10.39-2.81-14-8.32-13.12-18,8-1.64,10.85.6,15.19,11.88,4.16-3.58,3.59-7.3,1.17-11.91-4-7.64-2-15.21,5.53-22,2.49,4.6,5.34,8.83,7.12,13.46,1.68,4.37,1.62,8.93-3,12.18-6.19,4.36-6.65,11.45-9.44,19L255,48.19V35.6a12.72,12.72,0,0,1,15.32,11.83c14.27,1.59,28.42,3.44,42.62,4.64,7.89.67,15.87.13,23.8.41q10.23.36,20.41,1.37c4.61.46,9.4,1.22,8.67,8.43.87-1.34,1.66-2.75,2.63-4,2.16-2.87,3.86-6.67,6.76-8.24,3.14-1.7,7.41-1.29,11.19-1.8,0,3.31,1.09,7.14-.2,9.83-4,8.32-6.69,18.28-19,19.63.5,2.48,1,4.8,1.41,7l11.61-5.32c-.79,5-1.16,8-1.76,10.83-.31,1.51-1.68,3-1.47,4.39,1,6.35-1.52,9.62-8.52,9.42.93,14,1.8,27.4,2.73,40.78.42,6.13,1.3,12.24,1.38,18.37.08,6.35-10.47,14.66-16.7,14.14-13.11-1.1-26.26-1.86-39.39-2.76-3.59-.24-7.18-.45-10.32-.64,7.71,6.55,9.06,6.87,19.25,5.51,5.05-.68,8.57,1.54,10.51,6.23-7.55,6.45-15.16,5.76-22.75-1.86q-1.32,4.95-2.62,9.89c-10.26-2.71-13.21-8.19-8.65-17.91-12.85-2.27-25.31-4.66-37.84-6.65-7.82-1.24-15.73-2.58-23.61-2.64-10.51-.07-21,1.09-31.55,1.67-5.22.29-10.64,1.5-15.62.52-15.77-3.09-30.06,4.91-45.27,4.12,2.79,6.73,5.22,12.57,8,19.21-18.11-3.28-18.11-3.28-22.55-7.76-3.33,2.32-6.43,6.27-9.41,6.18-6.06-.2-9-7.49-7.87-16.12-14.64-2.12-29.22-4.49-43.88-6.27a32,32,0,0,1-28.72-33.44c.61-10.07.11-20.21.11-31.86-10.23,9.8-11.7,13.72-3.81,24.67.65.9,1.57,1.92,1.59,2.9.05,2.65.42,5.75-.81,7.79-.64,1.07-5.54,1.24-6.43.14-1.55-1.92-1.88-5.13-2-7.82a110,110,0,0,1,.7-11.35c-3.68,5-6.33,9.09-9.6,12.62-.65.7-3.66-.78-5.32-1.19l10.18-8.87L26.77,120l-9,5.31a6.42,6.42,0,0,1,5.56-9.56c3.89-.1,5.7-1.8,8.24-4.52C48.47,93,48.75,71.75,43.53,49.59c-1.19-5.06-4.87-9.53-7.32-14.1-9.75,1.15-14.57-4.29-16.39-17.81,8.35-1.84,16.7,3.61,19.12,12.82,1-1.46,1.61-2.95,2.71-3.84a74.87,74.87,0,0,1,6.49-4.27C49,25.27,50.81,28.3,50.39,31c-.55,3.58-2.86,6.89-5.16,12,2.21.77,4.88,2.34,7.66,2.57C71,47,89.1,48.29,107.21,49.58c2.27.16,4.55,0,5.93,0-1-5.55-2.5-11.07-2.85-16.66-.09-1.36,3.49-2.94,5.37-4.4C113,34.29,112,39.87,117,45.21c.2-2.69.38-5.07.56-7.46h1.69c1,2.94,2,5.89,3,8.84l2.63-.63c-.74-3.33-.83-7-2.4-9.89S117.91,31.11,115.52,28.68Zm244,31.53c-23.58-1.27-45.75-2.82-68-3.54-15.93-.52-31.9,0-47.85.16-24.8.3-49.61,1.27-74.4,1-35.06-.41-70.13-1.6-105.18-2.73-6.4-.21-9,2.07-9.37,8.39-.71,13.63-1,27.34-3,40.82-2.3,16.2-2,31.78,6.46,46.12,2.19,3.72,6.22,7.7,10.15,8.75,7.78,2.06,16.16,1.74,24.16,3.17,23.79,4.23,47.63,2.28,71.47,1.09,24.73-1.24,49.45-2.66,74.17-4,3-.16,6.08,0,8.36,0-.91-5.59-2.22-10.64-2.42-15.73-.21-5.32,3.61-7.13,8.07-4.06,2.39,1.65,4.31,4,6.67,6.24a27.79,27.79,0,0,1,4.1-2c2.45-.75,5-1.21,7.51-1.79.41,3,1.88,6.34,1,8.86-1.46,4.15-4.45,7.76-7.07,12,1.53.16,3.46.44,5.41.54,11.59.63,23.18,1.4,34.78,1.77,15.82.5,31.65,1.12,47.47.85,10.14-.18,13.36-5.21,12.22-15.27-1.07-9.45-2-18.95-2.32-28.45-.39-10.73.18-21.49-.2-32.21C361.4,80.54,360.32,70.88,359.48,60.21ZM149.38,186.28c-3-11.21-5.2-12.77-14.83-11C135.53,184.68,139.25,187.52,149.38,186.28ZM386,51.43c-10.11.17-14.83,5.51-16.58,15.59l10.07-10.86,1.43,1.22-10.3,15.3L372.9,74Q379.43,62.72,386,51.43ZM247,141.55c1.1,7.81.49,15.23,8.18,19.32C259.36,153.56,256.22,145.36,247,141.55ZM124.48,171.92c-7.8,6.45-6.92,12.12,2.57,16.26L131,173.56l-1.75-.47L124.55,180l-1.29-.49C123.62,177.28,124,175,124.48,171.92ZM253.78,27.56l2,0c4.12-6.72-2.18-11.53-3.64-17.23l-2,0q-.63,7.24-1.25,14.49l1.37.08,1.77-6.43,1.31.29C253.51,21.71,253.65,24.63,253.78,27.56ZM34.84,31.5l1.66-2.31L24.72,20.05l-1.64,2.08C26,26.46,26.65,33.52,34.84,31.5Zm226,127.32c7.82-5,8.27-5.91,6.95-13C260.84,147.47,259.28,152.08,260.87,158.82Zm-24.4-129L233.32,32l7.31,9.82,2.21-1.51Q239.66,35.07,236.47,29.85Z"/><path class="cls-1" d="M359.48,60.21c.84,10.67,1.92,20.33,2.27,30,.38,10.72-.19,21.48.2,32.21.36,9.5,1.25,19,2.32,28.45,1.14,10.06-2.08,15.09-12.22,15.27-15.82.27-31.65-.35-47.47-.85-11.6-.37-23.19-1.14-34.78-1.77-1.95-.1-3.88-.38-5.41-.54,2.62-4.27,5.61-7.88,7.07-12,.89-2.52-.58-5.88-1-8.86-2.51.58-5.06,1-7.51,1.79a27.79,27.79,0,0,0-4.1,2c-2.36-2.24-4.28-4.59-6.67-6.24-4.46-3.07-8.28-1.26-8.07,4.06.2,5.09,1.51,10.14,2.42,15.73-2.28,0-5.33-.14-8.36,0-24.72,1.3-49.44,2.72-74.17,4-23.84,1.19-47.68,3.14-71.47-1.09-8-1.43-16.38-1.11-24.16-3.17-3.93-1-8-5-10.15-8.75-8.45-14.34-8.76-29.92-6.46-46.12,1.91-13.48,2.25-27.19,3-40.82.33-6.32,3-8.6,9.37-8.39,35.05,1.13,70.12,2.32,105.18,2.73,24.79.29,49.6-.68,74.4-1,15.95-.19,31.92-.68,47.85-.16C313.73,57.39,335.9,58.94,359.48,60.21Z"/><path class="cls-1" d="M149.38,186.28c-10.13,1.24-13.85-1.6-14.83-11C144.18,173.51,146.37,175.07,149.38,186.28Z"/><path class="cls-1" d="M386,51.43Q379.43,62.73,372.9,74l-2.31-1.35,10.3-15.3-1.43-1.22L369.4,67C371.14,56.94,375.86,51.6,386,51.43Z"/><path class="cls-1" d="M247,141.55c9.18,3.81,12.32,12,8.18,19.32C247.53,156.78,248.14,149.36,247,141.55Z"/><path class="cls-1" d="M124.48,171.92c-.49,3.09-.86,5.36-1.22,7.63l1.29.49,4.68-6.95,1.75.47-3.93,14.62C117.56,184,116.68,178.37,124.48,171.92Z"/><path class="cls-1" d="M115.52,28.68c2.39,2.43,5.41,4.51,7,7.38s1.66,6.56,2.4,9.89l-2.63.63c-1-2.95-2-5.9-3-8.84h-1.69c-.18,2.39-.36,4.77-.56,7.46-5-5.34-4-10.92-1.34-16.67Z"/><path class="cls-1" d="M253.78,27.56c-.13-2.93-.27-5.85-.4-8.78l-1.31-.29-1.77,6.43-1.37-.08q.62-7.24,1.25-14.49l2,0c1.46,5.7,7.76,10.51,3.64,17.23Z"/><path class="cls-1" d="M34.84,31.5c-8.19,2-8.84-5-11.76-9.37l1.64-2.08L36.5,29.19Z"/><path class="cls-1" d="M260.87,158.82c-1.59-6.74,0-11.35,6.95-13C269.14,152.91,268.69,153.77,260.87,158.82Z"/><path class="cls-1" d="M236.47,29.85q3.19,5.22,6.37,10.44l-2.21,1.51L233.32,32Z"/></g></svg>