<svg xmlns="http://www.w3.org/2000/svg" viewBox="0 0 400 220"><defs><style>.cls-1{fill:#fff;}</style></defs><g id="Layer_3" data-name="Layer 3"><path d="M120.56,175.94c2,9.07-.91,16.3-7.81,21.89-5.43,4.4-8.56,3.66-12-2a7,7,0,0,0-3.81-2.51c-6-1.8-5.38-7.16-6.38-11.57-.26-1.14.63-2.54,1.36-5.13-6.91.34-13.13.81-19.36.91-6,.09-12.11,0-18.14-.39-5.81-.35-7.4-4.43-7.57-9.51-.46-14.13-.35-28.32-1.62-42.37s-3.87-27.76-6.06-41.61c-.27-1.71-1.58-3.25-2.66-5.37-6.14,3.54-10.77,1.09-14.25-4.1-1-1.46-1.79-4.25-1.06-5.36,1.05-1.58,3.83-3.3,5.44-3,3.1.67,6.06,2.5,8.76,4.32C37,71.22,38,73.19,40,75.7c1-5.62,1.9-10.11,2.49-14.64C44.2,47.94,46.73,45.49,63.33,42c-1.26-3.56-3-7-3.56-10.53-.52-3.42.23-7,.53-12.67l11,8.18.1-1.27c3.72.42,10.25.05,10.64,1.41,1.33,4.71.51,10,.51,15.63,13.61,0,28.59,1.62,43.07-.34,31.74-4.29,63.15-6.2,94.51,2a13.61,13.61,0,0,0,2.71.27l81.29,3.12c1.55.06,3.11,0,5.07,0,.3-3.6.56-6.69.86-10.32h6.36c5.74-14.21,9.66-16.76,15.32-11,3.44-1.88,6.67-5,10-5,2.45,0,6.57,3.47,7.14,6,1.39,6.22,1.15,12.8,1.63,20.18,3,0,6.28-.17,9.57,0,6.93.42,10.09,3.87,10.38,10.65.37,8.43.93,16.85,1.45,25.9l8.59-3.32c4.51,5.17,3.21,14.71-3.8,18.4s-8,9.12-7.72,15.83c.54,14.58.89,29.18,1.41,43.76.26,7.44-4.79,12.65-12.06,12.46-9.45-.25-18.9-.27-28.35-.48-4.09-.1-8.21-.79-12.27-.54a28.63,28.63,0,0,0-10.29,3c5.54,2.47,9.69,5.31,7.76,11.66a6.27,6.27,0,0,1-3.95,3.59c-5.89,1.32-9.39-2-11.39-7.49l-2,.48c.15,2.5.21,5,.48,7.5.65,6.18-2.75,9.83-7.79,12.21-4.47,2.11-7.52-.57-9.7-4-2.72-4.31,1.05-10.7,7.38-14.22,4.48-2.49,8.53-5.77,13.39-9.12C295.51,168,290,171.59,285,171.33c-1.29-.07-2.61,1-3.94,1-23.39,1.07-46.78,2.64-70.19,2.93-22.07.27-44.15-1-66.23-1.18C136.76,174,128.87,175.26,120.56,175.94Zm-64-44.55c-.56,5-1.7,11.71-1.95,18.45-.19,5.23.8,10.5,1.1,15.76.28,5,3.26,5.93,7.49,5.39,8.33-1.07,16.65-2.73,25-3,35.35-1.07,70.7-2,106.06-2.41,21.91-.26,43.83.85,65.74.64,13.64-.13,27.26-2,40.91-2.34,18-.45,36.07-.78,54.05.18,5.57.3,6.54-1.29,6.61-5.35.18-10,.06-20.07.06-27.12-5.85-5.8-10.59-9.48-13.83-14.2-1.43-2.08.19-6.26.42-9.49,3,.28,6,.43,8.91.89a19.4,19.4,0,0,1,4,1.59c1.13-9.94,2.36-19.4,3.24-28.89.52-5.59,1.09-11.1-4.27-15.51-4.32-3.55-3-7.71,1.7-11.52a58.46,58.46,0,0,0-13.19-.72c-12.75.81-25.49,2.64-38.22,2.51-15.18-.15-30.34-2.07-45.53-2.91-6.75-.38-13.58.51-20.3-.09-10.58-1-21.05-3.27-31.63-3.92-16.59-1-33.24-1.21-49.86-1.57-8.44-.19-17-.77-25.33.22A398.47,398.47,0,0,1,62.4,49.93c-5.55-.38-10.33,3.13-10.93,8.76-2.22,20.74-4.26,41.49,5.26,61.65V89.47c11.89,5.62,14.05,16,6.79,26.35,1.91,3.51,3.63,6.65,5.34,9.78Zm52.61,46.23c-5.21,3.65-8,11.74-5.27,16.6a5.31,5.31,0,0,0,4.67,1.89c7.39-2.11,10.78-13.3,6.13-19.82l-5,10.75-1.71-.56C108.36,183.56,108.75,180.64,109.16,177.62ZM334.38,43.53,336,44.71c3-3.63,6.49-7,8.6-11,1-1.86-.88-5.18-1.45-7.84-2.07.92-4.67,1.34-6.08,2.87-1.86,2-2.79,4.89-4.88,8.83l6.22-4.44a7.14,7.14,0,0,1-1.07,5.39C336.38,40.19,335.37,41.85,334.38,43.53ZM69.14,43.05c4.26-7.58.72-14.21-8.28-18.31C63.66,30.92,66.05,36.21,69.14,43.05Zm255.8-16.9c-1.88,6.46-3.34,11.5-4.8,16.55l2.4,1.17L331.3,32Zm35.55,97.46c1.29-7-2.34-11.39-9.76-11.92C350.68,118.14,353.05,122.43,360.49,123.61ZM103.59,176c-8.58,0-11.11,5-6.35,13.53ZM287,189.54l-2.27.22c.19,2.33-.13,4.92.83,6.87.38.79,4.4,1,5.29.1,2-2.07,3-5,4.46-7.63L293.38,188a25,25,0,0,1-1.82,2.7c-.81.93-1.78,1.72-3.05,2.92C287.85,191.9,287.4,190.72,287,189.54ZM60.38,112.65c5.54-7,5.28-9.59-1.93-16.12C59.17,102.53,59.71,107.09,60.38,112.65Zm311.17-15.8,2,1.07,6.59-10.09-2.34-1.56C372.71,87.73,372.22,92.35,371.55,96.85Zm-25-57.62c-3.33,3.19-5.53,5.3-8.42,8.05h8.42Z"/><path class="cls-1" d="M56.55,131.39l12.31-5.79c-1.71-3.13-3.43-6.27-5.34-9.78,7.26-10.32,5.1-20.73-6.79-26.35v30.87c-9.52-20.16-7.48-40.91-5.26-61.65.6-5.63,5.38-9.14,10.93-8.76A398.47,398.47,0,0,0,137.73,48c8.34-1,16.89-.41,25.33-.22,16.62.36,33.27.55,49.86,1.57,10.58.65,21.05,3,31.63,3.92,6.72.6,13.55-.29,20.3.09,15.19.84,30.35,2.76,45.53,2.91,12.73.13,25.47-1.7,38.22-2.51a58.46,58.46,0,0,1,13.19.72c-4.7,3.81-6,8-1.7,11.52,5.36,4.41,4.79,9.92,4.27,15.51-.88,9.49-2.11,18.95-3.24,28.89a19.4,19.4,0,0,0-4-1.59c-2.94-.46-5.94-.61-8.91-.89-.23,3.23-1.85,7.41-.42,9.49,3.24,4.72,8,8.4,13.83,14.2,0,7,.12,17.08-.06,27.12-.07,4.06-1,5.65-6.61,5.35-18-1-36-.63-54.05-.18-13.65.34-27.27,2.21-40.91,2.34-21.91.21-43.83-.9-65.74-.64-35.36.42-70.71,1.34-106.06,2.41-8.35.25-16.67,1.91-25,3-4.23.54-7.21-.36-7.49-5.39-.3-5.26-1.29-10.53-1.1-15.76C54.85,143.1,56,136.4,56.55,131.39Z"/><path class="cls-1" d="M109.16,177.62c-.41,3-.8,5.94-1.19,8.86l1.71.56,5-10.75c4.65,6.52,1.26,17.71-6.13,19.82a5.31,5.31,0,0,1-4.67-1.89C101.21,189.36,104,181.27,109.16,177.62Z"/><path class="cls-1" d="M334.38,43.53c1-1.68,2-3.34,3-5a7.14,7.14,0,0,0,1.07-5.39l-6.22,4.44c2.09-3.94,3-6.82,4.88-8.83,1.41-1.53,4-1.95,6.08-2.87.57,2.66,2.41,6,1.45,7.84-2.11,4.07-5.64,7.4-8.6,11Z"/><path class="cls-1" d="M69.14,43.05c-3.09-6.84-5.48-12.13-8.28-18.31C69.86,28.84,73.4,35.47,69.14,43.05Z"/><path class="cls-1" d="M324.94,26.15,331.3,32l-8.76,11.92-2.4-1.17C321.6,37.65,323.06,32.61,324.94,26.15Z"/><path class="cls-1" d="M360.49,123.61c-7.44-1.18-9.81-5.47-9.76-11.92C358.15,112.22,361.78,116.6,360.49,123.61Z"/><path class="cls-1" d="M103.59,176l-6.35,13.53C92.48,181,95,176.06,103.59,176Z"/><path class="cls-1" d="M287,189.54c.44,1.18.89,2.36,1.55,4.11,1.27-1.2,2.24-2,3.05-2.92a25,25,0,0,0,1.82-2.7l1.89,1.07c-1.43,2.6-2.48,5.56-4.46,7.63-.89.93-4.91.69-5.29-.1-1-1.95-.64-4.54-.83-6.87Z"/><path class="cls-1" d="M60.38,112.65c-.67-5.56-1.21-10.12-1.93-16.12C65.66,103.06,65.92,105.61,60.38,112.65Z"/><path class="cls-1" d="M371.55,96.85c.67-4.5,1.16-9.12,6.22-10.58l2.34,1.56-6.59,10.09Z"/><path class="cls-1" d="M346.51,39.23v8.05h-8.42C341,44.53,343.18,42.42,346.51,39.23Z"/></g></svg>