<svg xmlns="http://www.w3.org/2000/svg" viewBox="0 0 400 220"><defs><style>.cls-1{fill:#fff;}</style></defs><g id="Layer_3" data-name="Layer 3"><path d="M206.86,27.43c-3.17.26-4.15.13-5,.45-4.4,1.7-8.54,1.48-9.73-3.68-1.08-4.67,1.36-8.5,6.13-10,4-1.28,9.28,2.46,10,7a30.7,30.7,0,0,1,.08,4.8c0,1.59,0,3.19,0,5.24,1.56-.57,2.78-.94,4-1.46,3.61-1.59,8.38-3.37,9.92.93.87,2.43-2.3,7.36-4.95,9.69-2.32,2-6.46,2-10.26,3,.47.85.8,2.41,1.69,2.87,6.82,3.52,62.7,8.92,70.34,7-.72-2.79-1.84-5.54-2.06-8.36-.55-7,3.28-10,10.1-8.42a9.12,9.12,0,0,0,3.95-.37c3.33-.76,6.64-1.66,10-2.5.64,3.43,1.77,6.87,1.75,10.29,0,2.55-1.53,5.09-2.66,8.49h24.53c8.91,0,17.84.32,26.73-.1,7-.32,10.13,2.9,10.49,9.35.61,10.81,1.22,21.63,1.38,32.46.23,15.76.06,31.54.06,47.3l2.12.24c.32-4.22,1.5-8.59.79-12.63-1.77-10,.21-15.22,9.65-19.19.44,5.21,1.81,10.2,1,14.79-.79,4.34-3.9,8.25-5.52,11.41a99.22,99.22,0,0,1,10.27,4.93c.35.21-.59,3.85-1.77,5.12-3.36,3.63-7.48,5.09-12.82,1.61-1.29,3.52-3.31,6.56-3.37,9.63-.18,10.76-8.19,14.46-16,16.72a114.17,114.17,0,0,1-28.7,4.38c-24.87.59-49.76.36-74.64.14-15.74-.14-31.47-.84-47.21-1.33-3.37-.1-5.14.64-7.09,4.32-2.08,3.95-6.84,7.12-11.14,9.08-5.43,2.48-11.76-2.57-8.24-14.76-29.92,0-59.33.19-88.73-.09-10.8-.11-21.62-1.13-32.38-2.22-1.54-.16-3.75-2.91-4-4.71-1.29-8.49-2.19-17.06-2.9-25.64-.46-5.63-1.54-9.67-8-12.15-4.44-1.71-7.76-6.89-10.9-11-.89-1.19-.06-4.85,1.22-6.14.91-.91,4.18-.28,5.91.61,2.93,1.5,5.47,3.75,9.28,6.48-.83-12.24-1.58-23.46-2.37-34.68-.11-1.58-.8-3.2-.6-4.72.63-4.88-1.21-7.7-5.55-10.29C24.15,66.77,22.41,59.39,27,52.18l9.85,7.27c-.24-9.18,7.17-8.05,13.4-8.77-.56-3.1-2.29-6.57-1.26-8.7s4.81-3.08,8.65-5.27c-1.29-.41-2.4-.82-3.54-1.11s-2.26-.18-3.16-.69C43,30.46,41,16.23,47.92,9.49c6.13,5.6,13.22,10.27,10.41,20.74-.46,1.72,1.76,4.28,3,6.3,5.69,9.38,14,13.44,25,13.16,27.83-.73,55.67-1,83.5-1.58,8.65-.18,17.31-.63,25.93-1.3,2-.15,4.93-1.25,5.58-2.72C203.5,39.07,204.86,33.69,206.86,27.43Zm7,142.4c1.08-2.9,1.38-7.19,3.57-8.69,2.46-1.67,6.63-.82,11.7-1.18,2.61-2.22,6.87-9,12.48-4.49,7.06,5.67-.7,10.86-3.68,15.65,8.85.65,17.26,1.94,25.63,1.76,23.66-.53,47.35-1.15,70.95-2.83,8.32-.59,17.63-2.85,21.06-12.37,1.72-4.78,2.16-10.25,2.11-15.39-.22-25.07-.74-50.13-1.32-75.19C356.27,62,354,59,347.91,59.54c-13.38,1.1-26.8,2.21-40.21,2.27-18.68.08-37.37-.66-56-1.33-5.17-.19-10.28-1.56-15.45-2.1-14.85-1.57-29.7-3.72-44.59-4.23-11.06-.37-22.18,1.78-33.3,2.24-18,.73-36,1.14-54,1.41-17.13.25-34.26.14-51.39.18-3.75,0-7.5,0-11.17,0,.4,5.7.55,10.24,1.09,14.74s1.47,9,2.26,13.67l6.21-5.13c4.76,5.48,5.53,13.61,0,18.74-5.06,4.75-4.87,9.88-4.6,15.42.37,7.43,1.22,14.83,1.94,23.08A27.61,27.61,0,0,1,51,135.75c5.74-5.09,9.21-4.15,10,3.51.43,4.14-1.5,8.54-2.37,12.82l1.18-1.2c2,2.61,5.81,5.56,5.42,7.75-.62,3.44-4.1,6.38-7.57,11.2ZM48.1,14.21c-2.72,8.15-.05,14.44,6.18,15.92C56.49,23.38,53.78,18.58,48.1,14.21ZM230.84,171.9l12.37-12.71C234.29,157.72,230,162,230.84,171.9ZM284.26,54l2.37-.62c0-3.08.32-6.21-.12-9.23-.26-1.74-1.75-3.31-2.68-5-1.29,1.85-3.85,3.92-3.59,5.52C280.77,47.91,282.83,50.88,284.26,54ZM184.09,178.26,183,175.8a92.64,92.64,0,0,0-10.08,5.91c-.48.35,1.25,5.06,1.63,5a85.08,85.08,0,0,0,10.23-2.27l-.54-1.52h-8.31l-.21-1.53ZM292,52.42c7.25-3.3,7.88-9.25,5.28-16.86l-7.6,9.68,1.39.9,6.84-2.91C295.31,47.28,293.66,49.85,292,52.42ZM37.94,128.59l1.42-1.65L27.64,115.46C28.1,123.8,29.57,125.38,37.94,128.59Zm180.31,35.33c-.51,6,1.3,8.88,7.46,7.29C227.16,164.94,225.1,162.4,218.25,163.92Zm154.66-50.56c-5.13,8.85-5.18,10.2,0,16.94ZM194.29,20.78l1.22,4.37,9.27-2.34c-.85-1.49-1.8-4.31-2.51-4.24C199.57,18.8,196.94,20,194.29,20.78ZM48.91,146.62c9-.42,9.59-1.51,7.5-12.39Zm3.14-59.15-2.49-.85-4.71,13L48,100.73Q50.05,94.1,52.05,87.47ZM29,56.53l-2.63,1.7,8.34,12.44,2.14-1.38ZM57.58,164.06l4.55-6.38-1.33-1.77L50.62,160.4ZM219.89,34.15,218,30.93l-10,5.81,1.6,2.87Z"/><path class="cls-1" d="M213.9,169.83H57.65c3.47-4.82,6.95-7.76,7.57-11.2.39-2.19-3.47-5.14-5.42-7.75l-1.18,1.2c.87-4.28,2.8-8.68,2.37-12.82-.8-7.66-4.27-8.6-10-3.51a27.61,27.61,0,0,0-2.31,2.75c-.72-8.25-1.57-15.65-1.94-23.08-.27-5.54-.46-10.67,4.6-15.42,5.48-5.13,4.71-13.26,0-18.74l-6.21,5.13c-.79-4.7-1.72-9.16-2.26-13.67s-.69-9-1.09-14.74c3.67,0,7.42,0,11.17,0,17.13,0,34.26.07,51.39-.18,18-.27,36-.68,54-1.41,11.12-.46,22.24-2.61,33.3-2.24,14.89.51,29.74,2.66,44.59,4.23,5.17.54,10.28,1.91,15.45,2.1,18.67.67,37.36,1.41,56,1.33,13.41-.06,26.83-1.17,40.21-2.27,6-.5,8.36,2.41,8.49,7.56.58,25.06,1.1,50.12,1.32,75.19,0,5.14-.39,10.61-2.11,15.39-3.43,9.52-12.74,11.78-21.06,12.37-23.6,1.68-47.29,2.3-70.95,2.83-8.37.18-16.78-1.11-25.63-1.76,3-4.79,10.74-10,3.68-15.65-5.61-4.5-9.87,2.27-12.48,4.49-5.07.36-9.24-.49-11.7,1.18C215.28,162.64,215,166.93,213.9,169.83Z"/><path class="cls-1" d="M48.1,14.21c5.68,4.37,8.39,9.17,6.18,15.92C48.05,28.65,45.38,22.36,48.1,14.21Z"/><path class="cls-1" d="M230.84,171.9c-.82-9.91,3.45-14.18,12.37-12.71Z"/><path class="cls-1" d="M284.26,54c-1.43-3.08-3.49-6.05-4-9.28-.26-1.6,2.3-3.67,3.59-5.52.93,1.64,2.42,3.21,2.68,5,.44,3,.12,6.15.12,9.23Z"/><path class="cls-1" d="M184.09,178.26l-8.37,3.14.21,1.53h8.31l.54,1.52a85.08,85.08,0,0,1-10.23,2.27c-.38.05-2.11-4.66-1.63-5A92.64,92.64,0,0,1,183,175.8Z"/><path class="cls-1" d="M292,52.42c1.66-2.57,3.31-5.14,5.91-9.19l-6.84,2.91-1.39-.9,7.6-9.68C299.88,43.17,299.25,49.12,292,52.42Z"/><path class="cls-1" d="M37.94,128.59c-8.37-3.21-9.84-4.79-10.3-13.13l11.72,11.48Z"/><path class="cls-1" d="M218.25,163.92c6.85-1.52,8.91,1,7.46,7.29C219.55,172.8,217.74,169.92,218.25,163.92Z"/><path class="cls-1" d="M372.91,113.36V130.3C367.73,123.56,367.78,122.21,372.91,113.36Z"/><path class="cls-1" d="M194.29,20.78c2.65-.81,5.28-2,8-2.21.71-.07,1.66,2.75,2.51,4.24l-9.27,2.34Z"/><path class="cls-1" d="M48.91,146.62l7.5-12.39C58.5,145.11,57.89,146.2,48.91,146.62Z"/><path class="cls-1" d="M52.05,87.47q-2,6.63-4,13.26l-3.19-1.08,4.71-13Z"/><path class="cls-1" d="M29,56.53l7.85,12.76-2.14,1.38L26.41,58.23Z"/><path class="cls-1" d="M57.58,164.06l-7-3.66,10.18-4.49,1.33,1.77Z"/><path class="cls-1" d="M219.89,34.15l-10.25,5.46L208,36.74l10-5.81Z"/></g></svg>