<svg width="400" height="220"
    xmlns="http://www.w3.org/2000/svg" viewBox="0 0 400 220">
    <defs>
        <style>.cls-1{fill:#fff;}</style>
    </defs>
    <g id="Layer_3" data-name="Layer 3">
        <path d="M207.64,193.05c4.71,4.51,4.63,8.56-.26,13.73-3.69,3.91-9.11,4.62-11.85,1.08-3.66-4.73-3.86-9.1,1.15-13.59,1.64-1.48,3.8-2.38,5.66-3.63s3.75-2.69,5.72-4.1c-1.25-1.41-1.38-1.62-1.56-1.75-2.59-1.82-9-1-6.45-6.15,1.14-2.25,7.27-2.11,11.19-2.71,1.67-.26,3.48.34,5.23.55,0-.94.07-1.88.11-2.82-10-.74-20-1.94-30.05-2.13-18.95-.34-37.9-.09-56.85-.09-15.41,0-30.83-.2-46.24.1-5.84.11-11.65,1.55-17.5,2-5.31.46-10.73,1.1-16,.44-4.1-.51-6.53-3.76-6.91-8.45-.19-2.22-2-6.14-3.15-6.14-7.75,0-7.32-5.65-7.51-10.42-.24-5.9,4.15-6.8,8.56-6.41V100.69l-2.24,1.56c-4.36-3.69-9.57-6.8-12.74-11.33-1.58-2.26-.52-9.48,1.29-10.34,3.56-1.69,8.48-.5,13.24-.5,0-7.38.28-15.81-.09-24.21-.29-6.36,2-10.13,8.46-10.73,10.6-1,21.2-2.44,31.83-2.65,19.58-.4,39.18-.24,58.76.07,9.29.15,18.56,1.16,28.45,1.81-1.25-6.21-6.74-12.43.75-16.39,5.42-2.86,9.33,1.06,11.38,5L193.91,24c5.82,7.76,5.27,11-3.33,22.42,13.34.95,26.39,2.7,39.39,2.36,4.51-.11,8.88-5.4,12.65-7.88-1.34-5-3.08-8.83-3.1-12.61,0-3,1.32-7.15,3.51-8.58,1.55-1,5.51,1.63,7.74,2.41,1-4.62,1.43-10.56,3.65-15.73,1.2-2.8,5.8-6.39,8.18-5.95,4.28.81,4.13,5.22,3.2,9.51-1.3,6-3,10.79-9.42,13.66-2.54,1.13-3.33,6.17-4.78,9.14l12.47,2.14.39,3.34c-4.16,1.4-8.28,3.73-12.51,4-4.82.26-7.8,1.62-9.35,7.16,5.55.45,11,.9,16.47,1.32,23.75,1.79,47.49,3.65,71.25,5.29a52.12,52.12,0,0,0,12.15-.73c5.44-.91,9.86,1,11.49,5.75s1.76,10.27,2,15.47c.3,7.44.08,14.9.08,22.35l2.84.17c.81-6.83,2.18-13.65,2.27-20.5.08-6.61,2.06-11.35,8.31-13.92,8.22,8.18,5.69,24.43-4.28,28.92-1.63.73-3.1,3-3.56,4.9-4.37,17.54-5.78,35.18-2.15,53.12a45.17,45.17,0,0,1,.28,14.31c-.9,7.33-4.16,9.77-12.86,9.63-14.35-.22-28.68-1.13-43-1.37-15.5-.25-31,0-46.47,0,.9,5.41,2.07,10.19,2.32,15a10.12,10.12,0,0,1-2.61,6.53c-4.72,5.25-9.4,4.61-11.32-2-1.6-5.56-1.43-11.62-2.07-17.73-24.37-1.35-27.59,1.17-35.83,17.41-3.39,1.83-7.23,3.17-10,5.7-1.18,1.08,0,4.65,0,7.09,2.17-.39,5.69-.12,6.26-1.29C205.93,201.16,206.56,197,207.64,193.05Zm146-25.71c-.74-8.78-1.56-16-1.91-23.25-1.08-22.28-1.93-44.57-3-66.85-.22-4.51.48-10.3-2-13.11-2.21-2.54-8.17-1.76-12.46-2.51-2-.35-4-1.16-6-1.25q-34.12-1.48-68.26-2.78c-15.7-.59-31.42-.86-47.12-1.54-6.8-.29-13.58-1.15-20.35-1.93-17.51-2-35-5.64-52.54-5.83C112.33,48,84.57,50,56.82,51c-6.49.22-9.47,3.42-9.46,9.8,0,16.13,0,32.26,0,49l10.85-9.88c-.11,12,3.36,22.92-8.31,29.67a3,3,0,0,0-1.08,2.33c.62,11.72,1.33,23.44,2,34.87,61.76-3.58,122.35-2.88,183.57.67-1.58-3.55-3.87-6.39-3.84-9.2,0-3.39,2-6.76,3.18-10.13,2.37,1.64,5.59,2.78,6.95,5,2.63,4.36,4.2,9.34,6.26,14.18ZM249.92,195.77c8.39-3.48,9.15-8.54,3-20.09C246.48,178.73,245.2,187.35,249.92,195.77ZM38.74,98l1.74-1.36c0-2.7.92-5.91-.23-8-1.46-2.61-4.4-4.62-7.11-6.19-1-.55-4.49,1-4.46,1.5.17,2.69.33,5.92,1.88,7.86C32.62,94.43,36,96,38.74,98Zm325.55-6.55c8.45-7,6.63-14.29,4.58-21.9C362.85,75.53,364,82.77,364.29,91.46ZM186.57,44c5.85-4,8.58-8.45,6.9-15.14C183.82,32.89,182.81,35.09,186.57,44ZM48.68,125.26l2.6,1,5.3-17.87-2.25-.7C50.78,113,45.72,117.75,48.68,125.26ZM256,20.16c6.9-4.82,6.94-10.63,6.31-17.62C255.69,6.91,255.27,12.66,256,20.16ZM174.3,45.47l1.3-1c-.61-3.17-1.28-6.32-1.78-9.51a19.91,19.91,0,0,1,.1-3.61c-1.41.05-3.16-.4-4.15.27s-1.76,2.8-1.34,3.66C170.11,38.81,172.3,42.1,174.3,45.47ZM41.12,145.5l-2.68-.42c-1.09,2.09-3.41,4.53-2.95,6.19.61,2.16,3.43,3.69,5.3,5.49l1.92-1.09Zm195.12,6.13c-3.85,6.85-2.2,10.5,6.6,14.38C240.43,160.75,238.47,156.5,236.24,151.63Z"/>
        <path class="cls-1" d="M353.64,167.34H247c-2.06-4.84-3.63-9.82-6.26-14.18-1.36-2.25-4.58-3.39-6.95-5-1.15,3.37-3.15,6.74-3.18,10.13,0,2.81,2.26,5.65,3.84,9.2-61.22-3.55-121.81-4.25-183.57-.67-.68-11.43-1.39-23.15-2-34.87a3,3,0,0,1,1.08-2.33c11.67-6.75,8.2-17.63,8.31-29.67L47.37,109.8c0-16.75,0-32.88,0-49,0-6.38,3-9.58,9.46-9.8,27.75-1,55.51-3,83.24-2.7,17.54.19,35,3.82,52.54,5.83,6.77.78,13.55,1.64,20.35,1.93,15.7.68,31.42,1,47.12,1.54q34.14,1.26,68.26,2.78c2,.09,4,.9,6,1.25,4.29.75,10.25,0,12.46,2.51,2.46,2.81,1.76,8.6,2,13.11,1.06,22.28,1.91,44.57,3,66.85C352.08,151.34,352.9,158.56,353.64,167.34Z"/>
        <path class="cls-1" d="M249.92,195.77c-4.72-8.42-3.44-17,3-20.09C259.07,187.23,258.31,192.29,249.92,195.77Z"/>
        <path class="cls-1" d="M38.74,98c-2.79-2-6.12-3.58-8.18-6.16C29,89.91,28.85,86.68,28.68,84c0-.46,3.51-2,4.46-1.5,2.71,1.57,5.65,3.58,7.11,6.19,1.15,2.06.23,5.27.23,8Z"/>
        <path class="cls-1" d="M207.64,193.05c-1.08,3.95-1.71,8.11-3.47,11.72-.57,1.17-4.09.9-6.26,1.29-.08-2.44-1.21-6,0-7.09,2.73-2.53,6.57-3.87,10-5.7Z"/>
        <path class="cls-1" d="M364.29,91.46c-.32-8.69-1.44-15.93,4.58-21.9C370.92,77.17,372.74,84.46,364.29,91.46Z"/>
        <path class="cls-1" d="M186.57,44c-3.76-8.88-2.75-11.08,6.9-15.14C195.15,35.52,192.42,40,186.57,44Z"/>
        <path class="cls-1" d="M48.68,125.26c-3-7.51,2.1-12.29,5.65-17.58l2.25.7-5.3,17.87Z"/>
        <path class="cls-1" d="M256,20.16c-.7-7.5-.28-13.25,6.31-17.62C262.91,9.53,262.87,15.34,256,20.16Z"/>
        <path class="cls-1" d="M174.3,45.47c-2-3.37-4.19-6.66-5.87-10.18-.42-.86.43-3,1.34-3.66s2.74-.22,4.15-.27a19.91,19.91,0,0,0-.1,3.61c.5,3.19,1.17,6.34,1.78,9.51Z"/>
        <path class="cls-1" d="M41.12,145.5l1.59,10.17-1.92,1.09c-1.87-1.8-4.69-3.33-5.3-5.49-.46-1.66,1.86-4.1,2.95-6.19Z"/>
        <path class="cls-1" d="M236.24,151.63c2.23,4.87,4.19,9.12,6.6,14.38C234,162.13,232.39,158.48,236.24,151.63Z"/>
    </g>
</svg>