<svg width="400" height="220"
    xmlns="http://www.w3.org/2000/svg" viewBox="0 0 400 220">
    <defs>
        <style>.cls-1{fill:#fff;}</style>
    </defs>
    <g id="Layer_3" data-name="Layer 3">
        <polygon class="cls-1" points="362.87 50.44 371.87 44.84 376.87 40.35 379.87 39.23 379.87 44.84 376.87 56.05 367.87 58.29 359.87 58.29 362.87 50.44"/>
        <path d="M351.07,168.14c0,2.1,0,4.14,0,6.17,0,10-4.22,14.89-13.34,14.15-10.21-.83-20.34-2.6-30.52-3.86-20.55-2.56-41.06-5.43-61.85-2.86-6.32.78-12.9-1.3-19.27-.74-12.55,1.1-25,3.13-37.41,4.75-.74,4.59-1,8.94-2.23,12.89-.83,2.64-2.67,5.54-4.78,6.81s-5,.48-7.53.61c0-2.57-.64-5.32,0-7.65.89-3.27,2.69-6.23,4.11-9.32l-1.11-1.66c-2.46,2.3-4.71,5-7.43,6.83-6.11,4.06-12.39,7.84-18.78,11.31-1,.54-3-1.16-3.74-1.49L166.34,194l-1.11-2.87c-10-3.19-15.91,6.08-23,11.78l-1.2-1.6c1.47-2.59,2.93-5.17,3.63-6.39l-17.87-15.19,1-3.11c-23,1.37-45.93,2.52-68.86,4.23-10,.74-11.9-.19-12.1-11.46-.16-8.58,1.18-17.22.9-25.79-.21-6.49,1.19-13.75-6.52-17.92-4-2.18-6.9-7.81-9.38-12.49-1-1.86-.16-6,1.19-7.88.74-1,4.47-.11,6.48.88s3.43,3.16,6.87,4.1c-3.1-15.84-6.17-31.69-9.39-47.5-.26-1.29-1.56-2.32-2.38-3.47-1.43-2-3.75-3.77-4.08-6-.59-3.86,0-8,.16-11.94l9.65,4.95c1.78-6.67,7.33-13.59,5.23-23.67C44,15,47.43,8.45,53.75,4.28c5,8,3.51,18.87-4.8,32.11,3.31-1,5.67-2.17,8.08-2.3C59,34,61,35.12,63,35.7c-.9,2.27-1.26,5.35-2.81,6.62-2.65,2.18-6.08,3.15-9.12,4.79a12.29,12.29,0,0,0-5.4,5.09H88.71c-1.56-10.94-1.45-11.08,8.11-11.63a11.88,11.88,0,0,1,.63-1.23c2-3.05,4.08-6.08,6.12-9.12,1.61,3.63,3.68,7.1,4.66,10.94.69,2.69-.1,5.87-.23,8.88h77c-.82-10.26,2.61-17.93,10.5-22.14,2.38-1.28,6.94-1.42,8.4.24s1.53,6.67.61,9.56c-1.31,4.14-4.07,7.71-6.72,12.44,5.84,0,11-.22,16.13,0,17.95.93,35.88,2,53.82,3.07,16.77,1,32.53-4.27,47.55-8.79-1.1-4.73-2.06-8.89-3-13,3.73-.94,7.63-3.12,11.14-2.5,4.18.74,5.36,5,2.93,10.76,6.07-1.67,11.38-1.63,14.46-9.1,2.06-5,6.11-9.4,10.13-12.76,1.84-1.53,6.06-.66,8.61.61,1.11.56,1.4,5,.92,7.43-1.61,7.94-7.18,12.42-14.27,12.7a79,79,0,0,0-9.32,1.31c-.62,5.88-1.08,10.19-1.57,14.79.61,0,3.51.66,4.35-.5,5.19-7.26,12.36-4.78,18.91-5.79,3.25-.5,6.35-2.6,9.42-4.21,2.77-1.45,5.41-3.22,9.05-3.65L363.77,55.6C376.64,59,375,45.16,380.68,39.6,381.86,52.66,374,63,363.83,61.85c-.34,3.42-.58,6.86-1,10.26-.42,3.16-1.06,6.29-.28,10.57,3.47-4.59,7-9.14,10.4-13.78,5-6.76,10.89-10.75,19-8.34-.29,9.59-6.12,17-13.66,17.27-8.84.27-18,8.06-20.31,17.57-1.9,8-3.44,16.08-5.19,24.33.63-.06,1-.07,1.26-.13,4-.86,8-2,12-2.34.81-.06,2.89,4.22,2.59,4.58-3,3.53-5.92,8.29-9.7,9.53-6.27,2.06-8.49,5.57-7.93,12.41.27,3.3.05,6.65.05,10.64,2.8-1.47,5.14-3.5,7.62-3.77s4.83,1.38,7.25,2.18c-.83,3-.86,7.22-2.69,8.83C360,164.53,355.62,165.85,351.07,168.14ZM327,69.76c-6.09-3.31-11.18-6.21-16.38-8.85-2.53-1.28-5.26-2.95-7.89-2.93-13.67.13-27.36,1.3-41,1-15.24-.3-30.45-2.3-45.69-2.57-24.42-.43-48.86-.15-73.29,0-13.46.1-26.91.62-40.36,1-18.81.47-37.62,1-57.91,1.48,1.54,10.63,2.17,20,4.3,28.83,5.06,21.08,7.15,42.27,5.13,64.06-.65,7,.4,14.27.62,19.86,12.22,0,22.64,0,33.05,0,6.39,0,12.79-.07,19.18-.1q16.64-.06,33.27-.11c6.91,0,13.54,1.12,20.23-3.91,5.14-3.87,12.11-5.73,18.43-6.33,7.87-.75,15.91.65,23.86,1.26a17.17,17.17,0,0,1,5.18,1.31c7.64,3.17,7.62,3.21,1.59,9.4-.23.24-.17.85-.38,2,44.67-8.21,88.77,0,134.14,3v-22l-9.76-12.92L343.94,135c.9-7.52,5.12-17.44-1.91-27.06-1.14-1.56,0-6.91,1.63-8.77,1.22-1.38,5,0,8.2.26,1.37-6.66,2.93-13.95,4.34-21.28s5.4-14.87-2.3-21.2c-7.12,12.3-15.94,1-23.9,1ZM187.85,181.6c0-.82,0-1.63.05-2.44l-39.31-2.06C161.43,194.05,174.73,186.53,187.85,181.6Zm20.79-13.18c-9.65-5.4-17.1-1.73-24.5,2.56,4.3.25,9.65-2,12.54,0C201.92,174.7,204.16,171,208.64,168.42ZM194.77,44.26l1.75,1.4,7-15.33c-10.48,1.3-14.26,6.21-14.82,16.28l7.17-9.43,1.74,1.65ZM346.63,34l.84,1.32c2-1.35,4.72-2.2,5.89-4.18,1.8-3,2.56-6.85,3.76-10.34A79,79,0,0,0,348.3,25c-1.24.77-1.89,2.75-3.18,4.77l7.82-3.82.84,1.83ZM181.88,168.49v-2.38c-7.39-3.67-12.92,1-18.75,4.47.14.68.27,1.37.4,2.06ZM387.09,62.15l-13.72,10.4C381.72,74.69,384.93,72.21,387.09,62.15ZM35.45,108.76l-1.93,1.59q4.27,6.34,8.56,12.7l1.71-1.4C44,115,41.32,110.61,35.45,108.76ZM367,122.66c-7.29-4-10.84-1.94-14.13,7.83ZM139.45,177.55c-.13.4-.27.81-.41,1.22l5.46,10L151,187l.1-2ZM322.2,41.76,324,40.43c-.55-2.75-.4-6.32-1.91-8-1.06-1.18-4.39.24-6.7.5-.11.8-.22,1.61-.34,2.41ZM48.78,27.27l2.84.34,2.1-15.71-3.43-.49Q49.54,19.35,48.78,27.27Zm303.1,132.39c.56,1.07,1.12,2.15,1.69,3.22L364,157.19l-1.43-3.3ZM184.82,192.92l-3.39-1.81q-2.64,5.79-5.27,11.6l2.88,1.74Z"/>
        <path class="cls-1" d="M327,69.76l3-11.87c8,0,16.78,11.31,23.9-1,7.7,6.33,3.69,13.93,2.3,21.2s-3,14.62-4.34,21.28c-3.23-.21-7-1.64-8.2-.26-1.64,1.86-2.77,7.21-1.63,8.77,7,9.62,2.81,19.54,1.91,27.06l-10.64,8.36,9.76,12.92v22c-45.37-3-89.47-11.21-134.14-3,.21-1.19.15-1.8.38-2,6-6.19,6-6.23-1.59-9.4a17.17,17.17,0,0,0-5.18-1.31c-7.95-.61-16-2-23.86-1.26-6.32.6-13.29,2.46-18.43,6.33-6.69,5-13.32,3.9-20.23,3.91q-16.64,0-33.27.11c-6.39,0-12.79.09-19.18.1-10.41,0-20.83,0-33.05,0-.22-5.59-1.27-12.82-.62-19.86,2-21.79-.07-43-5.13-64.06-2.13-8.87-2.76-18.2-4.3-28.83,20.29-.52,39.1-1,57.91-1.48,13.45-.34,26.9-.86,40.36-1,24.43-.18,48.87-.46,73.29,0,15.24.27,30.45,2.27,45.69,2.57,13.66.27,27.35-.9,41-1,2.63,0,5.36,1.65,7.89,2.93C315.82,63.55,320.91,66.45,327,69.76Z"/>
        <path class="cls-1" d="M187.85,181.6c-13.12,4.93-26.42,12.45-39.26-4.5l39.31,2.06C187.88,180,187.87,180.78,187.85,181.6Z"/>
        <path class="cls-1" d="M208.64,168.42c-4.48,2.56-6.72,6.28-12,2.57-2.89-2.06-8.24.24-12.54,0C191.54,166.69,199,163,208.64,168.42Z"/>
        <path class="cls-1" d="M194.77,44.26l2.85-5.43-1.74-1.65-7.17,9.43c.56-10.07,4.34-15,14.82-16.28l-7,15.33Z"/>
        <path class="cls-1" d="M346.63,34l7.15-6.24-.84-1.83-7.82,3.82c1.29-2,1.94-4,3.18-4.77a79,79,0,0,1,8.82-4.18c-1.2,3.49-2,7.31-3.76,10.34-1.17,2-3.87,2.83-5.89,4.18Z"/>
        <path class="cls-1" d="M181.88,168.49l-18.36,4.15c-.13-.69-.26-1.38-.4-2.06,5.83-3.43,11.36-8.14,18.75-4.47Z"/>
        <path class="cls-1" d="M387.09,62.15c-2.16,10.06-5.37,12.54-13.72,10.4Z"/>
        <path class="cls-1" d="M35.45,108.76c5.87,1.85,8.55,6.22,8.34,12.89l-1.71,1.4q-4.29-6.35-8.56-12.7Z"/>
        <path class="cls-1" d="M367,122.66l-14.13,7.83C356.13,120.72,359.68,118.61,367,122.66Z"/>
        <path class="cls-1" d="M139.45,177.55,151.08,185l-.1,2-6.48,1.76-5.46-10C139.18,178.36,139.32,178,139.45,177.55Z"/>
        <path class="cls-1" d="M322.2,41.76,315,35.36c.12-.8.23-1.61.34-2.41,2.31-.26,5.64-1.68,6.7-.5,1.51,1.66,1.36,5.23,1.91,8Z"/>
        <path class="cls-1" d="M48.78,27.27q.77-7.92,1.51-15.86l3.43.49-2.1,15.71Z"/>
        <path class="cls-1" d="M351.88,159.66l10.69-5.77,1.43,3.3-10.43,5.69C353,161.81,352.44,160.73,351.88,159.66Z"/>
        <path class="cls-1" d="M184.82,192.92,179,204.45l-2.88-1.74q2.63-5.81,5.27-11.6Z"/>
    </g>
</svg>