<svg width="46" height="46" viewBox="0 0 46 46" fill="none" xmlns="http://www.w3.org/2000/svg">
    <g filter="url(#filter0_d_2113_2135)">
        <circle cx="22" cy="22" r="20" fill="#EBC6AB" />
        <path fill-rule="evenodd" clip-rule="evenodd" d="M16.0032 17.9903C15.8082 17.7933 15.4902 17.7925 15.2942 17.9884L13.2448 20.0378C12.9299 20.3528 12.3913 20.1297 12.3913 19.6843V12.8914C12.3913 12.6152 12.6152 12.3914 12.8913 12.3914H19.6842C20.1296 12.3914 20.3527 12.9299 20.0377 13.2449L17.9877 15.2949C17.792 15.4906 17.7926 15.8082 17.989 16.0032L20.5353 18.5319C20.7317 18.727 20.7323 19.0445 20.5365 19.2403L19.235 20.5417C19.0391 20.7377 18.721 20.7369 18.5261 20.5399L16.0032 17.9903ZM26.4773 16.0032C26.6737 15.8082 26.6742 15.4906 26.4785 15.2949L24.4285 13.2449C24.1135 12.9299 24.3366 12.3914 24.782 12.3914H31.0749C31.6272 12.3914 32.0749 12.8391 32.0749 13.3914V19.6843C32.0749 20.1297 31.5364 20.3528 31.2214 20.0378L29.172 17.9884C28.976 17.7925 28.658 17.7933 28.4631 17.9903L25.9401 20.5399C25.7452 20.7369 25.4271 20.7377 25.2312 20.5417L23.9297 19.2403C23.7339 19.0445 23.7345 18.727 23.9309 18.5319L26.4773 16.0032ZM19.6842 32.075C20.1296 32.075 20.3527 31.5364 20.0377 31.2215L17.9877 29.1715C17.792 28.9757 17.7926 28.6582 17.989 28.4631L20.5353 25.9344C20.7317 25.7394 20.7323 25.4219 20.5365 25.2261L19.235 23.9246C19.0391 23.7287 18.721 23.7295 18.5261 23.9265L16.0032 26.4761C15.8082 26.6731 15.4902 26.6739 15.2942 26.4779L13.2448 24.4286C12.9299 24.1136 12.3913 24.3367 12.3913 24.7821V31.575C12.3913 31.8512 12.6152 32.075 12.8913 32.075H19.6842ZM28.4631 26.4773C28.6581 26.6738 28.9757 26.6743 29.1714 26.4786L31.2214 24.4286C31.5364 24.1136 32.075 24.3367 32.075 24.7821V31.575C32.075 31.8512 31.8511 32.075 31.575 32.075H24.7821C24.3366 32.075 24.1135 31.5364 24.4285 31.2215L26.4779 29.1721C26.6739 28.9761 26.673 28.6581 26.476 28.4631L23.9264 25.9402C23.7294 25.7453 23.7286 25.4273 23.9245 25.2313L25.226 23.9298C25.4218 23.7341 25.7393 23.7346 25.9343 23.931L28.4631 26.4773Z" fill="white" />
    </g>
    <defs>
        <filter id="filter0_d_2113_2135" x="0" y="0" width="46" height="46" filterUnits="userSpaceOnUse" color-interpolation-filters="sRGB">
            <feFlood flood-opacity="0" result="BackgroundImageFix" />
            <feColorMatrix in="SourceAlpha" type="matrix" values="0 0 0 0 0 0 0 0 0 0 0 0 0 0 0 0 0 0 127 0" result="hardAlpha" />
            <feOffset dx="1" dy="1" />
            <feGaussianBlur stdDeviation="1.5" />
            <feColorMatrix type="matrix" values="0 0 0 0 0 0 0 0 0 0 0 0 0 0 0 0 0 0 0.25 0" />
            <feBlend mode="normal" in2="BackgroundImageFix" result="effect1_dropShadow_2113_2135" />
            <feBlend mode="normal" in="SourceGraphic" in2="effect1_dropShadow_2113_2135" result="shape" />
        </filter>
    </defs>
</svg>
    