<svg width="25" height="25" viewBox="0 0 25 25" fill="none" xmlns="http://www.w3.org/2000/svg">
<path d="M7.64007 5.32606C6.68642 5.31483 5.74003 5.49296 4.85572 5.85013C3.97142 6.2073 3.16678 6.73641 2.48845 7.40681C1.81011 8.0772 1.27156 8.87555 0.903996 9.75558C0.536433 10.6356 0.347168 11.5799 0.347168 12.5336C0.347168 13.4873 0.536433 14.4315 0.903996 15.3115C1.27156 16.1916 1.81011 16.9899 2.48845 17.6603C3.16678 18.3307 3.97142 18.8598 4.85572 19.217C5.74003 19.5742 6.68642 19.7523 7.64007 19.7411H17.3471C18.3007 19.7523 19.2471 19.5742 20.1314 19.217C21.0157 18.8598 21.8203 18.3307 22.4987 17.6603C23.177 16.9899 23.7156 16.1916 24.0831 15.3115C24.4507 14.4315 24.64 13.4873 24.64 12.5336C24.64 11.5799 24.4507 10.6356 24.0831 9.75558C23.7156 8.87555 23.177 8.0772 22.4987 7.40681C21.8203 6.73641 21.0157 6.2073 20.1314 5.85013C19.2471 5.49296 18.3007 5.31483 17.3471 5.32606H7.64007Z" fill="white"/>
<path d="M17.347 19.888H7.63998C6.66696 19.8993 5.70135 19.7175 4.79911 19.353C3.89687 18.9885 3.07594 18.4485 2.38386 17.7645C1.69178 17.0804 1.14232 16.2658 0.767318 15.3679C0.392314 14.47 0.199219 13.5066 0.199219 12.5335C0.199219 11.5604 0.392314 10.597 0.767318 9.69904C1.14232 8.80111 1.69178 7.98652 2.38386 7.30246C3.07594 6.61841 3.89687 6.07849 4.79911 5.71398C5.70135 5.34947 6.66696 5.16762 7.63998 5.17897H17.347C19.2827 5.20154 21.1314 5.98632 22.4922 7.36311C23.853 8.73989 24.6162 10.5977 24.6162 12.5335C24.6162 14.4693 23.853 16.327 22.4922 17.7038C21.1314 19.0806 19.2827 19.8654 17.347 19.888ZM7.63998 5.32597C6.68633 5.31473 5.73994 5.49286 4.85563 5.85004C3.97133 6.20721 3.1667 6.73632 2.48836 7.40671C1.81002 8.07711 1.27147 8.87545 0.903908 9.75549C0.536345 10.6355 0.34708 11.5798 0.34708 12.5335C0.34708 13.4872 0.536345 14.4314 0.903908 15.3115C1.27147 16.1915 1.81002 16.9898 2.48836 17.6602C3.1667 18.3306 3.97133 18.8597 4.85563 19.2169C5.73994 19.5741 6.68633 19.7522 7.63998 19.741H17.347C18.3006 19.7522 19.247 19.5741 20.1313 19.2169C21.0156 18.8597 21.8203 18.3306 22.4986 17.6602C23.1769 16.9898 23.7155 16.1915 24.083 15.3115C24.4506 14.4314 24.6399 13.4872 24.6399 12.5335C24.6399 11.5798 24.4506 10.6355 24.083 9.75549C23.7155 8.87545 23.1769 8.07711 22.4986 7.40671C21.8203 6.73632 21.0156 6.20721 20.1313 5.85004C19.247 5.49286 18.3006 5.31473 17.347 5.32597H7.63998Z" fill="#2B2422"/>
<path d="M19.0439 12.093L22.2729 15.932C22.983 14.9057 23.3537 13.6828 23.333 12.435C23.3124 11.1872 22.9015 9.97724 22.1579 8.97498L19.0439 12.093Z" fill="#DC0D18"/>
<path d="M9.89994 8.65093C12.3109 8.65093 14.1269 9.26393 14.3139 11.2949L16.8479 8.64993H21.8999C21.3384 7.99105 20.6404 7.46201 19.8543 7.09943C19.0682 6.73684 18.2127 6.54935 17.3469 6.54993H7.63994C6.77404 6.54914 5.91832 6.73653 5.132 7.09912C4.34568 7.46172 3.64755 7.99087 3.08594 8.64993L9.89994 8.65093Z" fill="#DC0D18"/>
<path d="M5.92496 11.2109L5.06396 13.5779H8.53696C9.56396 13.5779 9.87496 13.1529 10.105 12.3349C10.335 11.5169 9.76096 11.2109 9.05896 11.2109H5.92496Z" fill="#DC0D18"/>
<path d="M16.8691 16.2549L14.1861 12.8639C13.6861 15.1759 12.0651 16.2549 9.02112 16.2549H2.95312C3.51323 16.9612 4.22572 17.5317 5.03733 17.924C5.84895 18.3162 6.73871 18.5199 7.64012 18.5199H17.3471C18.2484 18.5199 19.138 18.3162 19.9495 17.9239C20.7609 17.5317 21.4732 16.9612 22.0331 16.2549H16.8691Z" fill="#DC0D18"/>
</svg>
