<svg width="25" height="25" viewBox="0 0 25 25" fill="none" xmlns="http://www.w3.org/2000/svg">
<g clip-path="url(#clip0)">
<path d="M6.1758 20.248V19.226C6.18679 19.0656 6.13368 18.9074 6.02812 18.7861C5.92257 18.6648 5.7732 18.5903 5.6128 18.579C5.58682 18.5775 5.56077 18.5775 5.5348 18.579C5.42221 18.5716 5.3097 18.5946 5.20906 18.6457C5.10842 18.6967 5.02336 18.7738 4.9628 18.869C4.90725 18.7768 4.82789 18.7012 4.73306 18.6501C4.63822 18.5991 4.5314 18.5745 4.4238 18.579C4.33013 18.5746 4.23692 18.5945 4.1533 18.637C4.06968 18.6794 3.99852 18.7428 3.9468 18.821V18.621H3.5918V20.25H3.9498V19.35C3.93641 19.2497 3.9633 19.1481 4.02457 19.0676C4.08585 18.987 4.17653 18.9339 4.2768 18.92C4.30076 18.918 4.32484 18.918 4.3488 18.92C4.5838 18.92 4.7038 19.073 4.7038 19.35V20.256H5.0608V19.356C5.05373 19.3003 5.05895 19.2437 5.07607 19.1902C5.0932 19.1367 5.12182 19.0876 5.15994 19.0464C5.19806 19.0051 5.24474 18.9727 5.29671 18.9514C5.34868 18.9301 5.40469 18.9204 5.4608 18.923C5.7028 18.923 5.8188 19.076 5.8188 19.353V20.259L6.1758 20.248ZM11.4758 18.619H10.8928V18.125H10.5358V18.619H10.2118V18.943H10.5418V19.693C10.5418 20.071 10.6888 20.293 11.1078 20.293C11.2644 20.2939 11.4181 20.2502 11.5508 20.167L11.4508 19.867C11.3554 19.9233 11.2475 19.9549 11.1368 19.959C10.9668 19.959 10.9018 19.85 10.9018 19.686V18.943H11.4818L11.4758 18.619ZM14.4998 18.578C14.4133 18.5757 14.3277 18.5966 14.2521 18.6387C14.1764 18.6807 14.1135 18.7423 14.0698 18.817V18.617H13.7188V20.246H14.0738V19.333C14.0738 19.064 14.1898 18.914 14.4148 18.914C14.4904 18.9131 14.5655 18.927 14.6358 18.955L14.7448 18.614C14.6639 18.5851 14.5787 18.5699 14.4928 18.569L14.4998 18.578ZM9.9288 18.749C9.72816 18.6293 9.49729 18.57 9.2638 18.578C8.8518 18.578 8.5818 18.778 8.5818 19.1C8.5818 19.366 8.7818 19.529 9.1448 19.58L9.3148 19.604C9.5148 19.631 9.6018 19.683 9.6018 19.775C9.6018 19.901 9.4718 19.975 9.2298 19.975C9.03513 19.9811 8.84414 19.9212 8.6878 19.805L8.5178 20.081C8.72408 20.2252 8.97125 20.2991 9.2228 20.292C9.6938 20.292 9.9658 20.071 9.9658 19.761C9.9658 19.451 9.7518 19.324 9.3968 19.273L9.2268 19.249C9.0728 19.229 8.9508 19.198 8.9508 19.089C8.9508 18.98 9.0658 18.898 9.2608 18.898C9.44032 18.9001 9.6163 18.9483 9.7718 19.038L9.9288 18.749ZM19.4228 18.578C19.3364 18.5758 19.251 18.5967 19.1756 18.6388C19.1001 18.6808 19.0373 18.7424 18.9938 18.817V18.617H18.6428V20.246H18.9968V19.333C18.9968 19.064 19.1128 18.914 19.3378 18.914C19.4138 18.9131 19.4892 18.927 19.5598 18.955L19.6688 18.614C19.5879 18.5851 19.5027 18.5699 19.4168 18.569L19.4228 18.578ZM14.8558 19.43C14.8516 19.5381 14.8689 19.6459 14.9064 19.7473C14.944 19.8486 15.0012 19.9416 15.0748 20.0209C15.1484 20.1001 15.2369 20.164 15.3352 20.209C15.4335 20.254 15.5397 20.2792 15.6478 20.283H15.7248C15.9383 20.292 16.1474 20.2207 16.3108 20.083L16.1408 19.797C16.0183 19.8904 15.8688 19.9416 15.7148 19.943C15.5833 19.933 15.4605 19.8738 15.3708 19.7771C15.2812 19.6804 15.2314 19.5534 15.2314 19.4215C15.2314 19.2897 15.2812 19.1627 15.3708 19.066C15.4605 18.9693 15.5833 18.91 15.7148 18.9C15.8688 18.9023 16.0181 18.9538 16.1408 19.047L16.3108 18.761C16.1466 18.6252 15.9376 18.5556 15.7248 18.566C15.6168 18.5599 15.5087 18.5752 15.4067 18.6109C15.3046 18.6466 15.2106 18.7021 15.13 18.7742C15.0494 18.8462 14.9838 18.9335 14.9369 19.0309C14.89 19.1283 14.8628 19.2341 14.8568 19.342C14.8553 19.3677 14.8553 19.3934 14.8568 19.419L14.8558 19.43ZM18.1758 19.43V18.619H17.8208V18.819C17.7606 18.7416 17.6829 18.6795 17.5941 18.6379C17.5053 18.5964 17.4078 18.5765 17.3098 18.58C17.0888 18.5876 16.8793 18.6807 16.7256 18.8398C16.5719 18.9988 16.486 19.2114 16.486 19.4325C16.486 19.6537 16.5719 19.8662 16.7256 20.0253C16.8793 20.1843 17.0888 20.2775 17.3098 20.285C17.4078 20.2885 17.5053 20.2687 17.5941 20.2271C17.6829 20.1856 17.7606 20.1235 17.8208 20.046V20.246H18.1758V19.43ZM16.8568 19.43C16.8619 19.3019 16.9171 19.1808 17.0104 19.0929C17.1038 19.0049 17.2279 18.9571 17.3562 18.9596C17.4844 18.9622 17.6065 19.0149 17.6963 19.1065C17.7861 19.1981 17.8364 19.3213 17.8364 19.4495C17.8364 19.5778 17.7861 19.7009 17.6963 19.7925C17.6065 19.8841 17.4844 19.9369 17.3562 19.9394C17.2279 19.942 17.1038 19.8941 17.0104 19.8062C16.9171 19.7182 16.8619 19.5972 16.8568 19.469C16.8508 19.456 16.8508 19.443 16.8518 19.43H16.8568ZM12.5788 18.578C12.3574 18.5881 12.1486 18.6839 11.9966 18.8452C11.8446 19.0064 11.7614 19.2206 11.7645 19.4422C11.7676 19.6638 11.8569 19.8754 12.0133 20.0324C12.1698 20.1893 12.3812 20.2792 12.6028 20.283C12.8478 20.2951 13.0886 20.216 13.2788 20.061L13.0998 19.8C12.9648 19.9073 12.7982 19.967 12.6258 19.97C12.5085 19.9799 12.392 19.9436 12.3011 19.8689C12.2101 19.7942 12.1519 19.687 12.1388 19.57H13.3488V19.434C13.3488 18.923 13.0318 18.582 12.5748 18.582L12.5788 18.578ZM12.5788 18.895C12.6323 18.8934 12.6856 18.9026 12.7356 18.922C12.7855 18.9413 12.831 18.9706 12.8694 19.0079C12.9079 19.0452 12.9384 19.0898 12.9592 19.1391C12.9801 19.1885 12.9908 19.2415 12.9908 19.295H12.1388C12.1437 19.1848 12.192 19.0809 12.2731 19.006C12.3541 18.9311 12.4615 18.8912 12.5718 18.895H12.5788ZM21.4598 19.434V17.965H21.1188V18.817C21.0586 18.7396 20.9809 18.6775 20.8921 18.6359C20.8033 18.5944 20.7058 18.5745 20.6078 18.578C20.3867 18.5856 20.1773 18.6787 20.0236 18.8378C19.8699 18.9968 19.784 19.2094 19.784 19.4305C19.784 19.6517 19.8699 19.8642 20.0236 20.0233C20.1773 20.1823 20.3867 20.2755 20.6078 20.283C20.7058 20.2865 20.8033 20.2667 20.8921 20.2251C20.9809 20.1836 21.0586 20.1215 21.1188 20.044V20.244H21.4598V19.434ZM22.0508 20.012C22.073 20.011 22.0952 20.0148 22.1158 20.023C22.1356 20.031 22.1537 20.0429 22.1688 20.058C22.1839 20.0726 22.1961 20.0899 22.2048 20.109C22.2132 20.129 22.2175 20.1504 22.2175 20.172C22.2175 20.1937 22.2132 20.2151 22.2048 20.235C22.1958 20.254 22.1836 20.2712 22.1688 20.286C22.1534 20.3005 22.1354 20.312 22.1158 20.32C22.0954 20.3292 22.0732 20.334 22.0508 20.334C22.0185 20.3334 21.987 20.3237 21.9599 20.306C21.9328 20.2883 21.9113 20.2634 21.8978 20.234C21.8894 20.2141 21.885 20.1927 21.885 20.171C21.885 20.1494 21.8894 20.128 21.8978 20.108C21.9065 20.0889 21.9187 20.0716 21.9338 20.057C21.9489 20.0419 21.9669 20.03 21.9868 20.022C22.0092 20.0139 22.033 20.0101 22.0568 20.011L22.0508 20.012ZM22.0508 20.3C22.068 20.2998 22.0851 20.2961 22.1008 20.289C22.1157 20.2831 22.129 20.2739 22.1398 20.262C22.161 20.2388 22.1728 20.2085 22.1728 20.177C22.1728 20.1456 22.161 20.1152 22.1398 20.092C22.1288 20.0802 22.1155 20.0707 22.1008 20.064C22.0849 20.0577 22.0679 20.0544 22.0508 20.054C22.034 20.0543 22.0174 20.0577 22.0018 20.064C21.9866 20.0709 21.9727 20.0804 21.9608 20.092C21.9396 20.1152 21.9278 20.1456 21.9278 20.177C21.9278 20.2085 21.9396 20.2388 21.9608 20.262C21.9725 20.2737 21.9864 20.2829 22.0018 20.289C22.0191 20.2967 22.0379 20.3004 22.0568 20.3H22.0508ZM22.0618 20.1C22.0775 20.0992 22.093 20.1038 22.1058 20.113C22.1111 20.1173 22.1152 20.1228 22.1178 20.1291C22.1205 20.1354 22.1215 20.1423 22.1208 20.149C22.1214 20.1548 22.1207 20.1606 22.1186 20.166C22.1165 20.1714 22.1131 20.1762 22.1088 20.18C22.0992 20.189 22.0869 20.1943 22.0738 20.195L22.1228 20.251H22.0838L22.0378 20.195H22.0218V20.251H21.9898V20.1H22.0618ZM22.0238 20.129V20.17H22.0618C22.0683 20.172 22.0753 20.172 22.0818 20.17C22.0833 20.1676 22.0841 20.1649 22.0841 20.162C22.0841 20.1592 22.0833 20.1564 22.0818 20.154C22.0832 20.1518 22.084 20.1492 22.084 20.1465C22.084 20.1439 22.0832 20.1413 22.0818 20.139C22.0753 20.137 22.0683 20.137 22.0618 20.139L22.0238 20.129ZM20.1488 19.437C20.1538 19.3091 20.2087 19.1882 20.3019 19.1003C20.395 19.0125 20.5189 18.9646 20.6469 18.9671C20.7749 18.9696 20.8969 19.0222 20.9865 19.1136C21.0762 19.205 21.1264 19.328 21.1264 19.456C21.1264 19.5841 21.0762 19.707 20.9865 19.7984C20.8969 19.8898 20.7749 19.9424 20.6469 19.9449C20.5189 19.9474 20.395 19.8996 20.3019 19.8117C20.2087 19.7239 20.1538 19.603 20.1488 19.475C20.1428 19.46 20.1438 19.447 20.1438 19.434L20.1488 19.437ZM8.1798 19.437V18.622H7.8208V18.822C7.76044 18.7445 7.68256 18.6825 7.59355 18.6409C7.50455 18.5994 7.40696 18.5795 7.3088 18.583C7.08775 18.5906 6.87829 18.6837 6.7246 18.8428C6.57091 19.0018 6.485 19.2144 6.485 19.4355C6.485 19.6567 6.57091 19.8692 6.7246 20.0283C6.87829 20.1873 7.08775 20.2805 7.3088 20.288C7.40696 20.2915 7.50455 20.2717 7.59355 20.2301C7.68256 20.1886 7.76044 20.1265 7.8208 20.049V20.249H8.1748L8.1798 19.437ZM6.8608 19.437C6.86628 19.3175 6.91832 19.2049 7.00579 19.1232C7.09326 19.0416 7.2092 18.9974 7.32882 19.0001C7.44844 19.0029 7.56223 19.0523 7.64586 19.1379C7.72949 19.2235 7.77631 19.3384 7.77631 19.458C7.77631 19.5777 7.72949 19.6926 7.64586 19.7781C7.56223 19.8637 7.44844 19.9132 7.32882 19.9159C7.2092 19.9186 7.09326 19.8745 7.00579 19.7928C6.91832 19.7112 6.86628 19.5985 6.8608 19.479C6.85982 19.465 6.85982 19.451 6.8608 19.437Z" fill="#231F20"/>
<path d="M15.1747 6.20294H9.80566V15.8509H15.1747V6.20294Z" fill="#FF5F00"/>
<path d="M10.1469 11.028C10.1454 10.0982 10.3556 9.18032 10.7616 8.34383C11.1675 7.50733 11.7585 6.77422 12.4899 6.20004C11.5848 5.48887 10.4979 5.04668 9.35337 4.92399C8.20886 4.8013 7.05293 5.00307 6.01766 5.50623C4.9824 6.0094 4.10957 6.79366 3.49892 7.7694C2.88828 8.74513 2.56445 9.87298 2.56445 11.024C2.56445 12.1751 2.88828 13.303 3.49892 14.2787C4.10957 15.2544 4.9824 16.0387 6.01766 16.5419C7.05293 17.045 8.20886 17.2468 9.35337 17.1241C10.4979 17.0014 11.5848 16.5592 12.4899 15.848C11.7597 15.2746 11.1693 14.5428 10.7634 13.7078C10.3575 12.8728 10.1467 11.9565 10.1469 11.028Z" fill="#EB001B"/>
<path d="M22.4179 11.028C22.4181 12.1795 22.0942 13.3077 21.4834 14.2838C20.8725 15.2598 19.9993 16.0442 18.9636 16.5474C17.928 17.0505 16.7716 17.252 15.6268 17.1289C14.4819 17.0057 13.3949 16.5629 12.4899 15.851C13.2205 15.277 13.8111 14.5445 14.2173 13.7088C14.6234 12.8732 14.8345 11.9562 14.8345 11.027C14.8345 10.0979 14.6234 9.18091 14.2173 8.34525C13.8111 7.50959 13.2205 6.77709 12.4899 6.20304C13.395 5.49152 14.4821 5.04902 15.6269 4.92612C16.7717 4.80323 17.928 5.0049 18.9635 5.50809C19.9991 6.01127 20.8722 6.79567 21.4831 7.77162C22.0939 8.74757 22.4179 9.87569 22.4179 11.027V11.028Z" fill="#F79E1B"/>
<path d="M21.8319 14.829V14.629H21.9119V14.588H21.7119V14.629H21.7999V14.829H21.8319ZM22.2249 14.829V14.59H22.1639L22.0919 14.761L22.0209 14.59H21.9659V14.829H22.0109V14.65L22.0769 14.805H22.1229L22.1899 14.65V14.83L22.2249 14.829Z" fill="#F79E1B"/>
</g>
<defs>
<clipPath id="clip0">
<rect width="25" height="25" fill="white"/>
</clipPath>
</defs>
</svg>
