<svg width="25" height="25" viewBox="0 0 25 25" fill="none" xmlns="http://www.w3.org/2000/svg">
<path d="M10.915 21.27C10.6243 21.2699 10.3402 21.1837 10.0985 21.0222C9.85685 20.8608 9.6684 20.6314 9.55696 20.363L4.48796 8.12699C4.33923 7.76732 4.3393 7.36333 4.48817 7.00372C4.63704 6.64412 4.92253 6.35828 5.28196 6.20899L10.592 4.00899C10.9511 3.85984 11.3547 3.85938 11.7142 4.0077C12.0736 4.15602 12.3595 4.44099 12.509 4.79999L17.578 17.038C17.7266 17.3975 17.7263 17.8013 17.5772 18.1606C17.4281 18.5199 17.1424 18.8053 16.783 18.954L11.474 21.154C11.2972 21.2293 11.1071 21.2688 10.915 21.27ZM11.153 4.68799C11.064 4.68814 10.976 4.70581 10.894 4.73999L5.58496 6.93999C5.50271 6.97395 5.42797 7.02379 5.365 7.08666C5.30203 7.14954 5.25208 7.22421 5.21799 7.3064C5.18391 7.3886 5.16636 7.47671 5.16636 7.56569C5.16635 7.65467 5.18389 7.74279 5.21796 7.82499L10.287 20.063C10.356 20.2287 10.4879 20.3604 10.6538 20.429C10.8197 20.4976 11.006 20.4976 11.172 20.429L16.481 18.229C16.5632 18.195 16.6379 18.1452 16.7009 18.0823C16.7639 18.0194 16.8138 17.9448 16.8479 17.8626C16.882 17.7804 16.8996 17.6923 16.8996 17.6033C16.8996 17.5143 16.882 17.4262 16.848 17.344L11.779 5.10699C11.7276 4.98315 11.6408 4.87728 11.5294 4.80272C11.418 4.72815 11.287 4.68823 11.153 4.68799Z" fill="#5A78FF"/>
<path opacity="0.7" d="M12.8436 5.61101L12.1138 5.91333L14.1209 10.7591L14.8508 10.4568L12.8436 5.61101Z" fill="url(#paint0_linear)"/>
<path opacity="0.7" d="M14.9686 10.7427L14.2388 11.045L16.5108 16.5301L17.2406 16.2277L14.9686 10.7427Z" fill="url(#paint1_linear)"/>
<path d="M15.589 12.9C14.07 13.529 12.802 14.4 11.972 15.443L9.83203 10.27C10.8079 9.13539 12.0505 8.26117 13.448 7.72601C14.967 7.10001 16.5 6.79101 17.8 6.96901L19.941 12.138C18.4496 12.0272 16.9541 12.2891 15.589 12.9Z" fill="#5A78FF"/>
<g opacity="0.4">
<path opacity="0.9" d="M15.589 12.9C14.07 13.529 12.802 14.4 11.972 15.443L9.83203 10.27C10.8079 9.13539 12.0505 8.26117 13.448 7.72601C14.967 7.10001 16.5 6.79101 17.8 6.96901L19.941 12.138C18.4496 12.0272 16.9541 12.2891 15.589 12.9Z" fill="url(#paint2_linear)"/>
<path opacity="0.7" d="M15.589 12.9C14.07 13.529 12.802 14.4 11.972 15.443L9.83203 10.27C10.8079 9.13539 12.0505 8.26117 13.448 7.72601C14.967 7.10001 16.5 6.79101 17.8 6.96901L19.941 12.138C18.4496 12.0272 16.9541 12.2891 15.589 12.9Z" fill="url(#paint3_linear)"/>
</g>
<path d="M16.2857 14.4709C14.6427 14.4709 13.1377 14.7879 11.9717 15.4359V10.2099C13.3076 9.53582 14.7899 9.2039 16.2857 9.24389C17.9297 9.24389 19.4637 9.54389 20.5997 10.2109V15.4379C19.264 14.7631 17.7816 14.4308 16.2857 14.4709Z" fill="#5A78FF"/>
<defs>
<linearGradient id="paint0_linear" x1="14.071" y1="10.2297" x2="13.722" y2="6.41996" gradientUnits="userSpaceOnUse">
<stop stop-color="#504678"/>
<stop offset="0.3" stop-color="#504678" stop-opacity="0.62"/>
<stop offset="0.61" stop-color="#504678" stop-opacity="0.28"/>
<stop offset="0.85" stop-color="#504678" stop-opacity="0.08"/>
<stop offset="1" stop-color="#504678" stop-opacity="0"/>
</linearGradient>
<linearGradient id="paint1_linear" x1="102717" y1="238398" x2="102647" y2="238464" gradientUnits="userSpaceOnUse">
<stop stop-color="#504678"/>
<stop offset="0.3" stop-color="#504678" stop-opacity="0.62"/>
<stop offset="0.61" stop-color="#504678" stop-opacity="0.28"/>
<stop offset="0.85" stop-color="#504678" stop-opacity="0.08"/>
<stop offset="1" stop-color="#504678" stop-opacity="0"/>
</linearGradient>
<linearGradient id="paint2_linear" x1="11.6842" y1="12.1297" x2="15.6959" y2="9.4029" gradientUnits="userSpaceOnUse">
<stop stop-color="#504678"/>
<stop offset="0.18" stop-color="#504678" stop-opacity="0.87"/>
<stop offset="0.53" stop-color="#504678" stop-opacity="0.54"/>
<stop offset="1" stop-color="#504678" stop-opacity="0"/>
</linearGradient>
<linearGradient id="paint3_linear" x1="15.1371" y1="9.45716" x2="14.9651" y2="8.02801" gradientUnits="userSpaceOnUse">
<stop stop-color="#504678"/>
<stop offset="0.64" stop-color="#504678" stop-opacity="0.33"/>
<stop offset="1" stop-color="#504678" stop-opacity="0"/>
</linearGradient>
</defs>
</svg>
