<svg width="25" height="25" viewBox="0 0 25 25" fill="none" xmlns="http://www.w3.org/2000/svg">
<path d="M24.9999 20.3769H0.399902V4.74994H24.9999V20.3769Z" fill="white"/>
<path d="M0.810059 17.838H24.5901V19.969H0.810059V17.838Z" fill="#FAB400"/>
<path d="M0.810059 7.29191H24.5901V5.15991H0.810059V7.29191Z" fill="#1C2F76"/>
<path d="M12.5002 9.64096L11.2412 15.5H9.72517L10.9792 9.63996L12.5002 9.64096ZM18.8782 13.425L19.6782 11.225L20.1372 13.425H18.8782ZM20.5652 15.5H21.9652L20.7402 9.63996H19.4492C19.3103 9.63812 19.1741 9.67816 19.0583 9.75486C18.9426 9.83156 18.8526 9.94137 18.8002 10.07L16.5282 15.5H18.1212L18.4372 14.625H20.3812L20.5652 15.5ZM16.6072 13.587C16.6142 12.04 14.4692 11.954 14.4842 11.263C14.4842 11.053 14.6842 10.83 15.1272 10.773C15.64 10.724 16.1565 10.8145 16.6222 11.035L16.8872 9.79196C16.4336 9.62215 15.9535 9.53445 15.4692 9.53296C13.9692 9.53296 12.9162 10.333 12.9082 11.47C12.8982 12.313 13.6612 12.784 14.2342 13.07C14.8262 13.357 15.0242 13.541 15.0212 13.798C15.0212 14.191 14.5492 14.365 14.1142 14.372C13.5719 14.3836 13.0357 14.2555 12.5572 14L12.2822 15.285C12.6372 15.447 13.2912 15.585 13.9672 15.596C15.5612 15.596 16.6032 14.809 16.6072 13.591V13.587ZM10.3282 9.64096L7.87217 15.5H6.27217L5.06117 10.824C4.98717 10.537 4.92317 10.431 4.70117 10.309C4.33617 10.109 3.73417 9.92596 3.20117 9.80896L3.23717 9.63896H5.81717C5.98639 9.63848 6.15015 9.69879 6.27863 9.80892C6.40711 9.91905 6.49177 10.0717 6.51717 10.239L7.15617 13.63L8.73617 9.64096H10.3282Z" fill="#1C2F76"/>
</svg>
