<svg width="400" height="220" id="Layer_1" data-name="Layer 1" xmlns="http://www.w3.org/2000/svg" viewBox="0 0 818.96 520.08"><defs><style>.cls-1{fill:#010101;}.cls-2{fill:#fff;}</style></defs><g id="Layer_3" data-name="Layer 3"><path class="cls-1" d="M300.2,158.64c1.79-.32,4.18-1.55,5.26-.83,9.71,6.47,11.56,13.64,7.14,26.87a34.06,34.06,0,0,0,3.91.55c23.27.68,46.55,1.93,69.82,1.8,19.09-.11,38.19-1.66,57.24-3.08,3.31-.25,6.42-3,10.95-5.32-12.5-3.38-16.84-10-15.78-21.65,9.62-2,13.05.72,18.27,14.29,5-4.3,4.31-8.78,1.4-14.32-4.81-9.19-2.4-18.3,6.65-26.46,3,5.53,6.43,10.62,8.57,16.19,2,5.25,1.95,10.74-3.61,14.64-7.44,5.25-8,13.78-11.35,22.86l9.28-2.07V167a15.29,15.29,0,0,1,18.12,11.82,16.25,16.25,0,0,1,.31,2.4c17.16,1.92,34.18,4.14,51.26,5.58,9.49.81,19.08.16,28.62.5q12.3.43,24.55,1.65c5.54.55,11.3,1.46,10.43,10.13,1-1.61,2-3.3,3.16-4.81,2.6-3.45,4.64-8,8.13-9.91,3.78-2,8.91-1.55,13.46-2.16,0,4,1.31,8.59-.24,11.82-4.81,10-8,22-22.85,23.61.6,3,1.2,5.77,1.69,8.42l14-6.4c-.95,6-1.4,9.62-2.12,13-.37,1.81-2,3.6-1.77,5.28,1.2,7.63-1.83,11.57-10.25,11.33,1.12,16.83,2.17,32.95,3.29,49,.5,7.37,1.56,14.72,1.66,22.1.09,7.63-12.6,17.63-20.09,17-15.77-1.32-31.58-2.23-47.37-3.32-4.32-.29-8.64-.54-12.42-.77,9.28,7.88,10.9,8.27,23.16,6.63,6.07-.82,10.3,1.85,12.64,7.49-9.08,7.76-18.24,6.93-27.36-2.23q-1.59,6-3.16,11.89c-12.34-3.26-15.88-9.85-10.4-21.54-15.45-2.73-30.44-5.6-45.51-8-9.41-1.49-18.92-3.1-28.4-3.17-12.64-.09-25.25,1.31-37.94,2-6.28.34-12.8,1.8-18.79.62-19-3.72-36.15,5.91-54.45,5,3.36,8.09,6.28,15.11,9.63,23.1-21.78-3.94-21.78-3.94-27.12-9.33-4,2.79-7.74,7.54-11.32,7.43-7.29-.24-10.83-9-9.47-19.39-17.61-2.55-35.14-5.4-52.77-7.54A38.47,38.47,0,0,1,213.69,286c.73-12.11.13-24.3.13-38.32-12.31,11.79-14.07,16.51-4.58,29.67.78,1.09,1.88,2.31,1.91,3.49.06,3.19.5,6.92-1,9.37-.77,1.29-6.66,1.49-7.73.17-1.86-2.31-2.26-6.17-2.41-9.4a132.67,132.67,0,0,1,.85-13.66c-4.43,6-7.62,10.94-11.55,15.18-.78.84-4.4-.94-6.4-1.43l12.25-10.67-1.72-1.95-10.83,6.39a7.73,7.73,0,0,1,6.69-11.5c4.68-.12,6.85-2.16,9.91-5.43,20.32-21.93,20.66-47.49,14.38-74.14-1.43-6.08-5.85-11.46-8.8-17-11.73,1.39-17.52-5.16-19.71-21.42,10-2.21,20.08,4.34,23,15.42,1.21-1.75,1.94-3.55,3.26-4.62a89.75,89.75,0,0,1,7.81-5.13c1,3.46,3.21,7.11,2.7,10.35-.66,4.31-3.44,8.29-6.2,14.44,2.66.92,5.87,2.81,9.21,3.09,21.78,1.72,43.55,3.27,65.33,4.82,2.73.19,5.47,0,7.13,0-1.2-6.68-3-13.31-3.42-20-.11-1.63,4.19-3.53,6.45-5.29-3.19,6.94-4.4,13.65,1.62,20.07.24-3.23.45-6.09.67-9h2q1.81,5.31,3.61,10.63l3.16-.75c-.89-4-1-8.42-2.88-11.9S303.07,161.57,300.2,158.64Zm293.46,37.92c-28.36-1.52-55-3.39-81.79-4.25-19.15-.63-38.36,0-57.55.19-29.82.36-59.66,1.53-89.48,1.2-42.16-.49-84.34-1.92-126.5-3.28-7.7-.25-10.82,2.49-11.27,10.09-.85,16.39-1.2,32.88-3.61,49.09-2.76,19.49-2.4,38.23,7.77,55.47,2.64,4.48,7.48,9.26,12.21,10.53,9.36,2.47,19.44,2.09,29.06,3.81,28.61,5.09,57.28,2.74,86,1.31,29.74-1.49,59.47-3.2,89.2-4.81,3.61-.19,7.31,0,10.06,0-1.1-6.72-2.67-12.8-2.91-18.92-.26-6.4,4.34-8.57,9.7-4.88,2.88,2,5.19,4.81,8,7.5a34,34,0,0,1,4.93-2.4c3-.9,6-1.46,9-2.16.49,3.61,2.26,7.63,1.2,10.66-1.76,5-5.35,9.33-8.5,14.43,1.84.2,4.16.53,6.5.65,13.94.76,27.88,1.69,41.83,2.13,19,.6,38.07,1.35,57.1,1,12.19-.21,16.07-6.26,14.69-18.36-1.28-11.37-2.4-22.79-2.79-34.22-.47-12.9.22-25.84-.24-38.74-.37-11.6-1.67-23.22-2.68-36.06ZM340.92,348.19c-3.61-13.48-6.25-15.36-17.84-13.23C324.26,346.27,328.74,349.68,340.92,348.19ZM625.51,186c-12.16.21-17.84,6.63-19.94,18.76l12.11-13.07,1.72,1.47L607,211.56l2.74,1.59Q617.61,199.59,625.51,186ZM458.33,294.39c1.32,9.4.59,18.32,9.84,23.24C473.2,308.84,469.42,299,458.33,294.39ZM311,330.92c-9.38,7.76-8.32,14.58,3.09,19.56l4.75-17.59-2.1-.56-5.65,8.31-1.55-.59C309.94,337.37,310.4,334.62,311,330.92ZM466.48,157.3h2.41c4.95-8.09-2.62-13.87-4.38-20.73h-2.4q-.76,8.72-1.51,17.43l1.65.1,2.13-7.74,1.57.35C466.16,150.26,466.33,153.77,466.48,157.3ZM203.16,162l2-2.77-14.17-11-2,2.51C192.53,156,193.31,164.46,203.16,162ZM475,315.16c9.4-6,9.94-7.1,8.35-15.63-8.35,2-10.23,7.53-8.32,15.63ZM445.63,160l-3.75,2.63,8.79,11.81,2.66-1.82q-3.82-6.3-7.67-12.58Z"/><path class="cls-2" d="M593.61,196.56c1,12.84,2.31,24.46,2.73,36.09.46,12.89-.23,25.83.24,38.74.43,11.42,1.51,22.85,2.79,34.21,1.37,12.1-2.5,18.15-14.7,18.37-19,.32-38.06-.42-57.09-1-14-.45-27.89-1.38-41.83-2.13-2.34-.12-4.67-.46-6.51-.65,3.16-5.14,6.75-9.48,8.51-14.43,1.07-3-.7-7.08-1.2-10.66-3,.7-6.09,1.2-9,2.15a34.05,34.05,0,0,0-4.93,2.41c-2.84-2.7-5.15-5.52-8-7.51-5.36-3.69-10-1.51-9.71,4.89.24,6.12,1.82,12.19,2.91,18.91-2.74,0-6.41-.16-10.05,0-29.73,1.57-59.46,3.28-89.21,4.81-28.67,1.44-57.34,3.78-85.95-1.31-9.63-1.72-19.7-1.33-29.06-3.81-4.73-1.2-9.62-6-12.21-10.52-10.16-17.25-10.53-36-7.77-55.47,2.3-16.21,2.71-32.7,3.61-49.1.4-7.6,3.61-10.34,11.27-10.09,42.15,1.36,84.33,2.79,126.5,3.29,29.82.34,59.66-.82,89.48-1.21,19.19-.23,38.39-.81,57.55-.19C538.59,193.17,565.25,195,593.61,196.56Z"/><path class="cls-2" d="M340.92,348.19c-12.18,1.49-16.66-1.92-17.84-13.23C334.67,332.83,337.3,334.71,340.92,348.19Z"/><path class="cls-2" d="M625.51,186q-7.9,13.6-15.76,27.15L607,211.53l12.39-18.41-1.72-1.46-12.1,13.07C607.63,192.63,613.31,186.21,625.51,186Z"/><path class="cls-2" d="M458.33,294.39c11,4.59,14.82,14.44,9.84,23.24C459,312.71,459.7,303.79,458.33,294.39Z"/><path class="cls-2" d="M311,330.92c-.59,3.72-1,6.45-1.46,9.18l1.55.59,5.63-8.36,2.1.56-4.73,17.59C302.65,345.45,301.59,338.68,311,330.92Z"/><path class="cls-2" d="M300.2,158.64c2.87,2.93,6.5,5.43,8.42,8.88s2,7.89,2.88,11.89l-3.16.76q-1.8-5.32-3.61-10.63h-2c-.22,2.87-.43,5.74-.68,9-6-6.42-4.81-13.13-1.61-20Z"/><path class="cls-2" d="M466.48,157.3c-.15-3.53-.32-7-.48-10.56l-1.57-.35-2.13,7.73-1.65-.1,1.5-17.42h2.41c1.76,6.85,9.33,12.64,4.38,20.72Z"/><path class="cls-2" d="M203.16,162c-9.85,2.41-10.63-6-14.14-11.26l2-2.51,14.17,11Z"/><path class="cls-2" d="M475,315.16c-1.91-8.1,0-13.65,8.36-15.63C485,308.06,484.42,309.09,475,315.16Z"/><path class="cls-2" d="M445.66,160.05q3.84,6.28,7.67,12.56l-2.66,1.81-8.79-11.78Z"/></g></svg>