<svg width="400" height="220" id="Layer_1" data-name="Layer 1" xmlns="http://www.w3.org/2000/svg" viewBox="0 0 818.96 460"><defs><style>.cls-1{fill:#010101;}.cls-2{fill:#fff;}</style></defs><g id="Layer_3" data-name="Layer 3"><path class="cls-1" d="M219.49,54.37c3.2-.58,7.46-2.76,9.38-1.48,17.29,11.53,20.59,24.29,12.71,47.85a65.13,65.13,0,0,0,7,1c41.44,1.2,82.91,3.42,124.35,3.19,34-.2,68-3,101.93-5.49C480.71,99,486.26,94,494.31,90c-22.25-6-30-17.82-28.1-38.55,17.13-3.52,23.24,1.28,32.53,25.44,8.91-7.67,7.69-15.64,2.51-25.51C492.68,35,497,18.77,513.09,4.23c5.34,9.85,11.44,18.91,15.25,28.83,3.6,9.36,3.47,19.13-6.42,26.09-13.26,9.34-14.25,24.52-20.22,40.69l16.53-3.68v-27A27.26,27.26,0,0,1,550.5,90.25a28,28,0,0,1,.55,4.28c30.56,3.41,60.87,7.37,91.28,9.94,16.9,1.43,34,.28,51,.88q21.91.77,43.72,2.93c9.87,1,20.13,2.61,18.57,18.06,1.86-2.87,3.55-5.89,5.63-8.57,4.63-6.15,8.27-14.29,14.48-17.65,6.72-3.64,15.87-2.76,24-3.86,0,7.09,2.33,15.3-.43,21.06-8.57,17.82-14.33,39.15-40.7,42,1.07,5.31,2.15,10.28,3,15L786.43,163c-1.69,10.71-2.48,17.13-3.77,23.2-.66,3.23-3.6,6.42-3.15,9.4,2.14,13.6-3.25,20.6-18.25,20.17,2,30,3.86,58.69,5.85,87.35.9,13.13,2.79,26.21,3,39.34.17,13.6-22.43,31.4-35.77,30.29-28.08-2.36-56.25-4-84.37-5.91-7.69-.52-15.38-1-22.1-1.37,16.51,14,19.4,14.71,41.23,11.8,10.81-1.46,18.35,3.3,22.51,13.34-16.17,13.81-32.47,12.34-48.73-4q-2.82,10.59-5.61,21.18c-22-5.81-28.29-17.54-18.52-38.36-27.53-4.86-54.21-10-81.05-14.24-16.75-2.66-33.69-5.53-50.57-5.66-22.51-.15-45,2.34-67.57,3.58-11.18.62-22.79,3.21-33.46,1.11-33.77-6.62-64.38,10.52-97,8.83,6,14.41,11.18,26.92,17.14,41.14-38.79-7-38.79-7-48.3-16.62-7.13,5-13.77,13.43-20.16,13.24-13-.43-19.27-16.05-16.85-34.53-31.36-4.54-62.58-9.62-94-13.43a68.54,68.54,0,0,1-61.52-71.62c1.31-21.57.24-43.29.24-68.24-21.91,21-25.06,29.39-8.16,52.84,1.39,1.93,3.36,4.11,3.4,6.21.11,5.68.9,12.32-1.73,16.69-1.37,2.29-11.87,2.65-13.77.3-3.32-4.12-4-11-4.29-16.75A235,235,0,0,1,42.62,248c-7.88,10.71-13.55,19.47-20.56,27-1.39,1.5-7.84-1.67-11.39-2.55l21.8-19L29.41,250,10.13,261.33A13.74,13.74,0,0,1,22,240.86c8.33-.22,12.21-3.86,17.65-9.68,36.2-39.05,36.8-84.56,25.62-132C62.76,88.32,54.87,78.74,49.63,69c-20.89,2.46-31.21-9.19-35.11-38.15,17.89-3.94,35.77,7.73,41,27.46C57.62,55.14,58.92,52,61.28,50a160,160,0,0,1,13.9-9.14C77,47.07,80.9,53.56,80,59.34,78.82,67,73.87,74.1,69,85c4.73,1.65,10.45,5,16.4,5.51,38.79,3.06,77.56,5.82,116.35,8.58,4.86.35,9.74,0,12.7,0-2.15-11.88-5.36-23.71-6.11-35.68-.19-2.91,7.48-6.29,11.5-9.42-5.69,12.36-7.84,24.31,2.87,35.74.43-5.76.82-10.85,1.2-16h3.62q3.21,9.44,6.43,18.93l5.63-1.35c-1.58-7.13-1.78-15-5.14-21.18S224.61,59.58,219.49,54.37Zm522.6,67.53c-50.5-2.72-98-6-145.64-7.58-34.12-1.11-68.32,0-102.48.34-53.12.65-106.26,2.72-159.35,2.14-75.1-.87-150.21-3.42-225.28-5.84-13.71-.45-19.28,4.43-20.07,18-1.52,29.19-2.14,58.55-6.42,87.43-4.93,34.69-4.29,68.06,13.83,98.78,4.69,8,13.32,16.49,21.74,18.74,16.67,4.41,34.61,3.72,51.75,6.79,51,9.06,102,4.88,153.07,2.33,53-2.66,105.92-5.7,158.86-8.57,6.43-.34,13,0,17.91,0-1.95-12-4.76-22.79-5.19-33.69-.45-11.39,7.73-15.27,17.29-8.69,5.12,3.53,9.23,8.56,14.28,13.36a60.35,60.35,0,0,1,8.78-4.28c5.25-1.61,10.71-2.59,16.09-3.84.88,6.43,4,13.58,2.14,19-3.13,8.89-9.53,16.62-15.14,25.7,3.28.35,7.41.94,11.59,1.16,24.82,1.35,49.64,3,74.49,3.79,33.88,1.07,67.79,2.4,101.67,1.82,21.72-.38,28.61-11.16,26.17-32.7-2.29-20.24-4.28-40.59-5-60.94-.83-23,.39-46-.42-69-.67-20.67-3-41.35-4.78-64.21ZM292,391.92c-6.43-24-11.14-27.35-31.77-23.56C262.35,388.49,270.32,394.58,292,391.92ZM798.81,103.1c-21.65.36-31.76,11.8-35.51,33.39l21.57-23.26,3.06,2.61-22.06,32.77,4.88,2.83Q784.75,127.28,798.81,103.1Zm-297.71,193c2.35,16.72,1,32.62,17.52,41.38C527.57,321.84,520.85,304.28,501.1,296.12Zm-262.42,65c-16.7,13.82-14.82,26,5.51,34.83l8.46-31.31-3.75-1-10.07,14.8-2.76-1.05C236.84,372.64,237.66,367.76,238.68,361.16ZM515.62,52h4.28c8.83-14.39-4.67-24.69-7.79-36.9h-4.29q-1.35,15.51-2.67,31l2.93.17,3.79-13.77,2.81.62C515,39.44,515.34,45.7,515.62,52ZM46.69,60.41l3.56-4.95L25,35.89l-3.51,4.45C27.76,49.62,29.15,64.74,46.69,60.41Zm484.05,272.7c16.75-10.71,17.71-12.66,14.89-27.85-14.89,3.54-18.23,13.41-14.82,27.85ZM478.48,56.81l-6.68,4.67,15.66,21,4.73-3.23q-6.81-11.22-13.64-22.4Z"/><path class="cls-2" d="M742,121.9c1.8,22.86,4.11,43.54,4.86,64.26.81,23-.41,46,.43,69,.77,20.35,2.68,40.7,5,60.94,2.44,21.54-4.46,32.32-26.17,32.7-33.89.58-67.79-.75-101.68-1.82-24.84-.79-49.66-2.44-74.49-3.79-4.17-.21-8.31-.81-11.59-1.15,5.62-9.15,12-16.88,15.15-25.71,1.9-5.39-1.25-12.59-2.14-19-5.38,1.24-10.84,2.14-16.09,3.83a60.37,60.37,0,0,0-8.78,4.28c-5.06-4.79-9.17-9.83-14.29-13.36-9.55-6.58-17.73-2.7-17.28,8.7.43,10.9,3.23,21.71,5.18,33.69-4.88,0-11.41-.3-17.9,0-52.95,2.78-105.89,5.82-158.86,8.56-51.06,2.55-102.12,6.73-153.08-2.33-17.13-3.06-35.08-2.38-51.74-6.79-8.42-2.14-17.14-10.71-21.74-18.74C78.67,284.47,78,251.1,82.93,216.4,87,187.53,87.75,158.16,89.36,129c.7-13.54,6.42-18.42,20.07-18,75.07,2.42,150.18,5,225.27,5.85,53.1.62,106.24-1.46,159.35-2.14,34.16-.41,68.37-1.46,102.49-.35C644,115.86,691.51,119.18,742,121.9Z"/><path class="cls-2" d="M292,391.92c-21.7,2.66-29.67-3.43-31.77-23.56C280.88,364.57,285.57,367.91,292,391.92Z"/><path class="cls-2" d="M798.81,103.1q-14.07,24.2-28.06,48.34l-5-2.89,22.06-32.77-3.06-2.62-21.54,23.28C767,114.9,777.09,103.46,798.81,103.1Z"/><path class="cls-2" d="M501.1,296.12c19.66,8.16,26.39,25.7,17.52,41.38C502.23,328.74,503.54,312.84,501.1,296.12Z"/><path class="cls-2" d="M238.68,361.16c-1.05,6.62-1.84,11.48-2.61,16.35l2.76,1,10-14.88,3.75,1L244.19,396C223.86,387,222,375,238.68,361.16Z"/><path class="cls-2" d="M219.49,54.37c5.12,5.21,11.59,9.66,15,15.81s3.55,14,5.14,21.18L234,92.71q-3.21-9.48-6.42-18.93H224c-.39,5.11-.77,10.21-1.2,16-10.71-11.43-8.57-23.39-2.87-35.7Z"/><path class="cls-2" d="M515.62,52c-.28-6.27-.58-12.53-.86-18.8l-2.8-.62-3.79,13.77-2.94-.17q1.33-15.51,2.68-31h4.28c3.13,12.21,16.62,22.51,7.8,36.9Z"/><path class="cls-2" d="M46.69,60.41C29.15,64.69,27.76,49.7,21.51,40.34L25,35.89,50.25,55.46Z"/><path class="cls-2" d="M530.81,333.11c-3.41-14.44,0-24.31,14.88-27.85C548.52,320.45,547.55,322.29,530.81,333.11Z"/><path class="cls-2" d="M478.55,56.88q6.82,11.17,13.64,22.36l-4.73,3.23-15.66-21Z"/></g></svg>