<svg width="400" height="220" id="Layer_1" data-name="Layer 1" xmlns="http://www.w3.org/2000/svg" viewBox="0 0 818.96 520.08"><defs><style>.cls-1{fill:#010101;}.cls-2{fill:#fff;}</style></defs><g id="Layer_3" data-name="Layer 3"><path class="cls-1" d="M544.25,332.86c0,5.79.54,10.91-.14,15.85-.76,5.58-2.77,10.55-10.08,10.8-1.94,0-4.23,2.3-5.62,4.11-1.71,2.22-2.62,5-5.21,10.33-6.08-9.07-10.79-16.16-15.59-23.2-.73-1.07-1.78-2.68-2.72-2.72-11.11-.48-11.16-8-10-16.7-8.32,0-16.22.17-24.1,0-42.64-1.05-85.29-2.4-127.94-3.22-26.7-.48-53.44-.58-80.13.2-14.07.41-28.09,2.95-42.1,4.74-6.13.78-9.26-1.9-10.15-7.67-2.23-14.39-5.9-28.86-6.25-43.34-.63-26.26.74-52.57,1.2-78.86V197a30.59,30.59,0,0,0-5.65-.58c-17.7,1.68-28-16.79-25.18-33.18.82-4.95,4.06-7.1,8.73-4.47,4.11,2.33,7.77,5.3,11.92.24a2.5,2.5,0,0,1,2.33-.39c5.06,2.58,9.83,6.89,15.11,7.63,8.74,1.2,7.78,7.62,9.06,12h56.37c16.89,0,17.84-.21,32.12-10.47-12.4-14-12.51-23.44.79-29.65,2.59,7,5.14,14,7.75,21.13,5.6-4.56,9.24-10.11,6.25-18.9-3.27-9.6,0-19.19,7.11-21.75,1.72-.62,5.56.85,6.46,2.46a21.92,21.92,0,0,1-4.93,26.68c-1.73,1.46-4.15,2.08-6.25,3.1l2.28,2.62,10-2.16c1.12,7.6-6.31,16.79-13.69,15-9.14-2.16-9.71,4.8-14,9L457.11,178c-2.4-3.32-7.66-7.94-9.35-13.6-1.54-5.17.78-11.49,1.48-18.14,16.8,8.4,28.71,22.22,24.3,33.8l84.6,4c1.68-3.6,3.18-7.2,5.09-10.65a21.21,21.21,0,0,1,4.95-6.6c3.26-2.54,7.91-6.83,10.53-6,6.84,2.21,11.66.76,16-4.08,8.08,6.29,7.09,17.29-2.77,29.74,8.49,0,12,3.71,11.8,12.41-.57,23.45-.24,46.91-.26,70.37a9.65,9.65,0,0,0,1.14,5.32c2.76-10.87,15.59-16.87,12.53-31-1.2-5.42,2.09-12,4.12-17.77.54-1.56,4-2.87,6-2.85,1.2,0,3,2.83,3.37,4.63,2,9.6.15,18.25-6.88,25.49-2.4,2.5-4.59,5.23-7.59,8.69l16.79-3.35c-2.32,10.51-9.66,17.14-18.2,18.75-2.78.53-6.58,3-7.4,5.37-4.53,13.52-8.15,27.34-12.39,40.95-1.88,6.07-4.24,11.76-12.62,11.16C569.41,333.76,556.36,333.41,544.25,332.86ZM268.77,320c7.1-.63,14.11-1.84,21.09-1.77,23.21.26,46.41,1.35,69.57,1.41,16.62,0,33.3-1.93,49.9-1.37,24.43.81,48.8,3.22,73.16,4.71,29.68,1.81,59.36,3.6,89.07,4.92,13.74.61,13.75.12,15.41-13.77.13-1.07.54-2.11.7-3.18,2-11.76,4.62-23.46,5.64-35.29,1.69-19.56,2.4-39.21,3.34-58.77.33-7.2.06-14.55.06-21.08-11.36-1-21.49-1.89-31.62-2.68-15.48-1.2-31-2.55-46.46-3.42-40-2.28-80.07-5.48-120.15-6.17-48.14-.83-96.31.57-144.48,1H236.18c-.3,5.21,0,9.17-.94,12.79-.48,1.81-4.63,2.83-4.8,4.49-1.2,9.51-6.23,10.63-14.3,6.35-.9,6.56-2.4,12.17-2.31,17.75.27,24.33.66,48.67,1.77,73,.32,7.2,3,14.21,5,21.22a4.77,4.77,0,0,0,3.52,2.77c8.73.24,17.49.13,27.43.13-15.49-17.66-17.33-24.06-8.63-27.13-2.4,9.32,3.27,18.7,13.46,21.79L248.68,307l1.67-1.55,10.6,8.91,1.55-1.92-18.35-16.9,1.77-1.63C256.62,299.49,265.47,306.78,268.77,320ZM201.6,185.78c-2.24-13.2-11.82-18.35-21.35-24.31-2.4,15.17,1,24.51,10,28.78,7.56,3.6,10.8,3.41,14.5-.55-11.49-.47-22.19-10.43-20.88-20.44,2.93,3.54,5.15,6.87,8,9.54s6.39,4.7,9.64,7ZM523.12,364.44c7.75-15.47,5.59-28.25-5.32-30.83L521,353.85l-2.4.31c-1.63-5.16-3.26-10.33-5-15.81C508.82,348.13,511.71,356.1,523.12,364.44ZM469.57,179.82c1.08-11.36-6.21-21.68-17.75-27-2.46,9-2.4,8.95,5.7,12.4,1.32.56,2.18,2.27,3.18,3.51C463.39,172,466,175.33,469.57,179.82Zm102.21-14,12.75,20.66V165.84ZM331,143.15c7.2-6.11,7.89-10.52,3.48-21.59C327.16,127.69,326.17,133.88,331,143.15ZM532.35,357.47c9.19-7.51,10.26-12,6.23-18.83l-2.28,8.56-1.52-.24c-.25-3.6-.49-7.19-.73-10.79l-2.72.13C531.65,342.76,532,349.16,532.35,357.47Zm-20.52-24.15-2.6-3.59c-3.6,2.07-7.62,3.74-10.58,6.52-.65.61,2.4,5.16,3.73,7.89Zm51.25-154.4c0,1-.08,2-.13,3l12.77,5.6,2.39-2.7c-2.13-3.19-3.68-7.29-6.64-9.2C570,174.64,566,177.68,563.08,178.92ZM308.65,143c-5.42,11-3.59,16.5,6.42,19.87C312.86,156,310.93,150.06,308.65,143Zm-88.6,43.59c-4.19,13.48-3.19,16.46,6.59,19.57C224.42,199.51,222.56,194,220.05,186.55Zm367-4.35c8.56-6.57,9.08-8.39,5.32-19.88-1.62,5.93-3.2,11.86-5.35,19.88Zm33.74,65.21,3.39.55,3-20.2-3.37-.54q-1.54,10.09-3.07,20.19Zm-426-82.17L205,176.18C204.3,166.29,201.4,163.17,194.84,165.24Z"/><path class="cls-2" d="M268.77,320c-3.3-13.19-12.15-20.52-22.79-26.1l-1.77,1.64,18.37,16.9L261,314.32l-10.61-8.91L248.68,307l7.74,10.58c-10.19-3.1-15.85-12.48-13.46-21.8-8.7,3.07-6.86,9.48,8.64,27.13-9.95,0-18.7.11-27.44-.13a4.77,4.77,0,0,1-3.52-2.77c-1.94-7-4.64-14.08-5-21.22-1.11-24.31-1.5-48.65-1.77-73,0-5.59,1.41-11.19,2.31-17.76,8.07,4.29,13.2,3.16,14.3-6.35.2-1.66,4.35-2.68,4.8-4.49,1-3.6.65-7.58.95-12.78h17.81c48.17-.41,96.34-1.8,144.48-1,40.08.69,80.12,3.89,120.15,6.17,15.51.87,31,2.21,46.46,3.42,10.14.79,20.26,1.71,31.62,2.68,0,6.53.27,13.82-.06,21.08-.91,19.61-1.65,39.26-3.34,58.77-1,11.83-3.69,23.54-5.63,35.29-.17,1.07-.58,2.11-.71,3.18-1.66,13.89-1.67,14.39-15.4,13.77-29.71-1.33-59.4-3.11-89.08-4.92-24.42-1.49-48.79-3.9-73.16-4.71-16.6-.55-33.28,1.42-49.9,1.38-23.21,0-46.41-1.2-69.57-1.42C282.88,318.16,275.87,319.37,268.77,320Z"/><path class="cls-2" d="M201.55,185.81c-3.23-2.31-6.75-4.33-9.59-7s-5.07-6-8-9.54c-1.3,10,9.4,19.93,20.85,20.39-3.6,4-6.95,4.09-14.51.55-9.08-4.24-12.48-13.59-10-28.78C189.73,167.46,199.31,172.64,201.55,185.81Z"/><path class="cls-2" d="M523.12,364.44c-11.41-8.34-14.3-16.31-9.51-26.09,1.74,5.48,3.37,10.65,5,15.81l2.4-.31-3.16-20.24C528.71,336.19,530.87,349,523.12,364.44Z"/><path class="cls-2" d="M469.57,179.82c-3.59-4.49-6.21-7.8-8.87-11.07-1-1.2-1.86-2.95-3.18-3.51-8.12-3.45-8.16-3.37-5.7-12.4C463.39,158.14,470.65,168.46,469.57,179.82Z"/><path class="cls-2" d="M571.78,165.84h12.75V186.5Z"/><path class="cls-2" d="M331,143.15c-4.8-9.27-3.84-15.46,3.48-21.59C338.89,132.63,338.17,137,331,143.15Z"/><path class="cls-2" d="M532.35,357.47c-.39-8.31-.7-14.74-1-21.17l2.72-.13c.24,3.6.48,7.19.73,10.79l1.52.24,2.28-8.56C542.61,345.49,541.54,350,532.35,357.47Z"/><path class="cls-2" d="M511.83,333.32l-9.45,10.8c-1.34-2.74-4.38-7.28-3.73-7.89,3-2.79,7-4.45,10.58-6.53Z"/><path class="cls-2" d="M563.08,178.92c2.9-1.2,6.94-4.28,8.4-3.34,3,1.91,4.51,6,6.65,9.2l-2.4,2.7-12.79-5.6C563,180.84,563,179.9,563.08,178.92Z"/><path class="cls-2" d="M308.65,143c2.31,7.1,4.24,13.08,6.42,19.87C305.06,159.46,303.21,153.93,308.65,143Z"/><path class="cls-2" d="M220.05,186.55c2.51,7.44,4.37,13,6.59,19.57C216.86,203,215.86,200,220.05,186.55Z"/><path class="cls-2" d="M587.06,182.2c2.15-8,3.73-13.95,5.33-19.88C596.14,173.87,595.63,175.63,587.06,182.2Z"/><path class="cls-2" d="M620.8,247.41q1.51-10.09,3.05-20.19l3.37.54-3,20.25Z"/><path class="cls-2" d="M194.84,165.24c6.56-2.11,9.47,1,10.18,10.94Z"/></g></svg>