<svg width="400" height="220" id="Layer_1" data-name="Layer 1" xmlns="http://www.w3.org/2000/svg" viewBox="0 0 818.96 460"><defs><style>.cls-1{fill:#010101;}.cls-2{fill:#fff;}</style></defs><g id="Layer_3" data-name="Layer 3"><path class="cls-1" d="M660.06,372.3c0,10.31,1,19.43-.26,28.23-1.35,9.94-4.94,18.78-17.94,19.23-3.46,0-7.54,4.1-10,7.33-3,4-4.66,9-9.27,18.39-10.83-16.15-19.23-28.78-27.77-41.31-1.3-1.91-3.16-4.79-4.85-4.85-19.78-.86-19.86-14.19-17.75-29.74-14.82,0-28.88.3-42.91,0-75.94-1.88-151.89-4.27-227.85-5.74-47.55-.86-95.16-1-142.69.36-25.05.73-50,5.26-75,8.44C72.87,374,67.29,369.26,65.71,359c-4-25.63-10.51-51.39-11.13-77.2-1.13-46.75,1.3-93.6,2.14-140.42v-11a55.81,55.81,0,0,0-10.06-1c-31.53,3-49.84-29.91-44.86-59.09,1.47-8.82,7.24-12.64,15.55-8,7.33,4.14,13.84,9.44,21.23.42A4.48,4.48,0,0,1,42.73,62c9,4.59,17.51,12.26,26.91,13.59C85.21,77.76,83.5,89.19,85.77,97H186.16c30.07,0,31.76-.37,57.2-18.65-22.08-25-22.28-41.74,1.41-52.8,4.62,12.54,9.14,24.9,13.8,37.63,10-8.11,16.45-18,11.13-33.66-5.83-17.09,0-27.18,12.67-31.73,3.05-1.11,9.89,1.52,11.49,4.38,8.4,16,4.77,28.6-8.78,40.51-3.08,2.6-7.39,3.71-11.13,5.53L278,52.86,295.84,49c2,13.54-11.23,29.91-24.39,26.77-16.28-3.85-17.28,8.54-24.88,16.1l258.3,4.7c-4.27-5.92-13.65-14.14-16.66-24.22-2.73-9.21,1.39-20.46,2.65-32.3C520.77,55,542,79.62,534.14,100.25l150.65,7c3-6.4,5.66-12.81,9.06-19a37.53,37.53,0,0,1,8.82-11.75c5.81-4.53,14.07-12.18,18.75-10.68,12.18,4,20.76,1.36,28.45-7.27,14.4,11.22,12.63,30.81-4.93,53,15.12,0,21.36,6.6,21,22.08-1,41.76-.43,83.54-.47,125.32a17.32,17.32,0,0,0,2,9.49c4.91-19.38,27.77-30.06,22.32-55.18-2.14-9.65,3.72-21.36,7.33-31.65,1-2.78,7-5.11,10.68-5.06,2.13,0,5.34,5,6,8.24,3.52,17.09.25,32.49-12.26,45.39-4.27,4.44-8.18,9.32-13.52,15.47l29.9-6c-4.12,18.71-17.19,30.52-32.4,33.38-5,.94-11.73,5.28-13.18,9.57-8.08,24.08-14.53,48.68-22.07,72.93-3.35,10.8-7.56,20.93-22.47,19.86C704.85,373.9,681.61,373.28,660.06,372.3ZM169.48,349.36c12.64-1.14,25.12-3.29,37.55-3.17,41.33.47,82.64,2.42,123.89,2.53,29.6,0,59.29-3.44,88.86-2.46,43.51,1.45,86.91,5.74,130.29,8.39,52.85,3.23,105.71,6.41,158.62,8.76,24.46,1.09,24.48.21,27.43-24.52.23-1.9,1-3.76,1.26-5.66,3.46-20.93,8.22-41.78,10-62.84,3-34.84,4.27-69.83,5.94-104.67.59-12.81.1-25.91.1-37.53-20.23-1.73-38.25-3.37-56.3-4.78-27.56-2.14-55.11-4.53-82.73-6.09-71.3-4.06-142.6-9.76-214-11-85.74-1.47-171.53,1-257.31,1.73H111.44c-.53,9.27,0,16.32-1.69,22.77-.85,3.23-8.24,5-8.54,8-2.14,16.94-11.09,18.95-25.46,11.32-1.6,11.69-4.27,21.66-4.12,31.61.49,43.32,1.17,86.66,3.16,130,.57,12.82,5.38,25.31,8.84,37.79a8.56,8.56,0,0,0,6.28,4.93c15.55.43,31.14.23,48.85.23-27.6-31.44-30.86-42.84-15.38-48.31-4.27,16.59,5.83,33.3,24,38.81L133.7,326.24l3-2.75,18.88,15.87,2.76-3.42-32.68-30.09,3.16-2.91C147.84,312.87,163.6,325.86,169.48,349.36Zm-119.62-239c-4-23.5-21.06-32.68-38-43.3-4.27,27,1.71,43.66,17.88,51.27,13.46,6.4,19.22,6.06,25.82-1C35.08,116.53,16,98.78,18.35,81c5.22,6.3,9.17,12.24,14.25,17S44,106.32,49.78,110.44ZM622.42,428.54c13.8-27.56,10-50.31-9.46-54.9l5.61,36-4.27.55c-2.9-9.18-5.81-18.39-8.91-28.15C597,399.49,602.11,413.69,622.42,428.54ZM527.07,99.76c1.92-20.22-11.07-38.59-31.62-48-4.37,16.09-4.27,15.94,10.15,22.09,2.35,1,3.89,4,5.66,6.24C516.05,85.88,520.68,91.77,527.07,99.76Zm182-24.88,22.7,36.78V74.88ZM280.29,34.47c12.82-10.88,14.06-11.74,6.2-31.45C273.46,13.93,271.69,18,280.29,34.47ZM638.87,416.13c16.36-13.37,18.26-21.36,11.08-33.54l-4.06,15.25-2.71-.42q-.66-9.62-1.3-19.23l-4.83.24C637.61,389.94,638.16,401.33,638.87,416.13Zm-36.55-43-4.64-6.41c-6.4,3.7-13.56,6.67-18.84,11.62-1.15,1.09,4.28,9.19,6.65,14.06Zm91.27-275c0,1.75-.15,3.5-.23,5.28l22.72,10,4.27-4.8c-3.8-5.69-6.55-13-11.83-16.39C705.94,90.54,698.74,96,693.59,98.16Zm-453.09-64c-9.65,19.55-6.41,29.4,11.43,35.4C248,57.43,244.56,46.77,240.5,34.12ZM82.71,111.75c-7.45,24-5.68,29.32,11.73,34.86C90.49,134.84,87.18,125.07,82.71,111.75ZM736.33,104c15.25-11.7,16.17-15,9.49-35.41-2.89,10.57-5.71,21.12-9.53,35.41Zm60.09,116.12,6,1,5.39-36-6-1q-2.75,18-5.46,35.95ZM37.81,73.81,56,93.29C54.67,75.67,49.5,70.12,37.81,73.81Z"/><path class="cls-2" d="M169.48,349.36c-5.88-23.5-21.64-36.55-40.59-46.48l-3.16,2.9,32.73,30.1-2.76,3.42-18.88-15.88-3.12,2.82,13.78,18.84c-18.14-5.51-28.22-22.21-24-38.81-15.49,5.47-12.22,16.88,15.38,48.32-17.71,0-33.3.19-48.85-.24a8.54,8.54,0,0,1-6.28-4.93c-3.46-12.47-8.27-25.08-8.84-37.79-2-43.29-2.67-86.63-3.16-129.95,0-10,2.52-19.93,4.12-31.61,14.37,7.62,23.49,5.61,25.46-11.32.36-2.95,7.75-4.77,8.54-8,1.71-6.41,1.16-13.5,1.69-22.77h31.72c85.78-.73,171.56-3.21,257.3-1.73,71.37,1.21,142.67,6.92,214,11,27.62,1.56,55.17,3.93,82.73,6.08,18.05,1.41,36.07,3.06,56.3,4.79,0,11.62.49,24.6-.11,37.53-1.62,34.92-2.92,69.91-5.93,104.66-1.82,21.06-6.58,41.91-10,62.84-.3,1.9-1,3.76-1.26,5.66-3,24.74-3,25.64-27.43,24.53-52.91-2.38-105.77-5.54-158.62-8.76-43.49-2.65-86.89-6.94-130.3-8.4-29.56-1-59.25,2.55-88.85,2.46-41.34,0-82.65-2.14-123.89-2.52C194.6,346.13,182.12,348.29,169.48,349.36Z"/><path class="cls-2" d="M49.78,110.44c-5.77-4.12-12-7.71-17.09-12.49s-9-10.68-14.25-17c-2.31,17.81,16.75,35.48,37.12,36.31-6.4,7-12.36,7.28-25.82,1C13.57,110.7,7.5,94.06,11.86,67,28.71,77.76,45.78,87,49.78,110.44Z"/><path class="cls-2" d="M622.42,428.54c-20.31-14.85-25.46-29.05-16.94-46.46,3.1,9.76,6,19,8.91,28.15l4.27-.55-5.62-36C632.37,378.23,636.22,401,622.42,428.54Z"/><path class="cls-2" d="M527.07,99.76c-6.41-8-11.07-13.88-15.81-19.71-1.77-2.14-3.31-5.26-5.66-6.24-14.46-6.15-14.52-6-10.15-22.09C516.05,61.17,529,79.54,527.07,99.76Z"/><path class="cls-2" d="M709.08,74.88h22.7v36.78Z"/><path class="cls-2" d="M280.29,34.47C271.75,18,273.46,13.93,286.49,3,294.35,22.73,293.07,23.59,280.29,34.47Z"/><path class="cls-2" d="M638.87,416.13c-.71-14.8-1.26-26.25-1.82-37.7l4.83-.24q.63,9.62,1.3,19.23l2.71.42L650,382.59C657.13,394.79,655.23,402.76,638.87,416.13Z"/><path class="cls-2" d="M602.32,373.13l-16.83,19.22c-2.4-4.87-7.8-13-6.65-14.05,5.28-5,12.39-7.93,18.84-11.62Z"/><path class="cls-2" d="M693.59,98.16c5.15-2.13,12.35-7.62,14.95-5.94,5.28,3.4,8,10.68,11.84,16.39l-4.28,4.8-22.77-10C693.44,101.58,693.5,99.91,693.59,98.16Z"/><path class="cls-2" d="M240.5,34.12c4.1,12.65,7.54,23.31,11.43,35.4C234.09,63.52,230.8,53.67,240.5,34.12Z"/><path class="cls-2" d="M82.71,111.75c4.47,13.26,7.78,23.09,11.73,34.86C77,141.07,75.26,135.75,82.71,111.75Z"/><path class="cls-2" d="M736.29,104c3.82-14.29,6.64-24.84,9.48-35.41C752.46,89.17,751.54,92.31,736.29,104Z"/><path class="cls-2" d="M796.38,220.13q2.68-18,5.42-35.95l6,1-5.38,36.06Z"/><path class="cls-2" d="M37.81,73.81C49.5,70.05,54.69,75.6,56,93.29Z"/></g></svg>