<svg width="400" height="220" id="Layer_1" data-name="Layer 1" xmlns="http://www.w3.org/2000/svg" viewBox="0 0 818.96 460"><defs><style>.cls-1{fill:#010101;}.cls-2{fill:#fff;}</style></defs><g id="Layer_3" data-name="Layer 3"><path class="cls-1" d="M236.27,369.34c4.25,19.28-1.94,34.66-16.61,46.54-11.55,9.36-18.2,7.78-25.52-4.25a14.91,14.91,0,0,0-8.1-5.34c-12.76-3.82-11.44-15.22-13.56-24.6-.56-2.42,1.34-5.4,2.89-10.91-14.69.73-27.92,1.73-41.17,1.94-12.75.19-25.75,0-38.57-.83-12.35-.74-15.73-9.42-16.09-20.22-1-30.05-.75-60.22-3.45-90.09s-8.23-59-12.88-88.48c-.58-3.63-3.36-6.91-5.66-11.42-13,7.53-22.9,2.32-30.3-8.71-2.12-3.11-3.8-9-2.25-11.4,2.23-3.36,8.14-7,11.56-6.38,6.6,1.43,12.89,5.32,18.63,9.19,3.4,2.29,5.53,6.48,9.78,11.82,2.13-11.95,4-21.5,5.3-31.13,3.63-27.9,9-33.11,44.31-40.53C111.9,77,108.2,69.66,107,62.15c-1.11-7.27.49-14.88,1.13-26.94l23.38,17.4.22-2.7c7.91.89,21.79.1,22.62,3,2.83,10,1.09,21.27,1.09,33.24,28.93,0,60.79,3.44,91.57-.73,67.49-9.12,134.28-13.18,201,4.26a29.37,29.37,0,0,0,5.76.57l172.85,6.64c3.29.12,6.61,0,10.78,0,.64-7.66,1.19-14.23,1.83-21.95h13.52c12.21-30.21,20.54-35.63,32.58-23.39,7.31-4,14.18-10.63,21.26-10.63,5.21,0,14,7.38,15.18,12.76,3,13.22,2.44,27.22,3.47,42.91,6.37,0,13.35-.36,20.34,0,14.74.89,21.46,8.23,22.08,22.64.78,17.93,2,35.83,3.08,55.07L789,167.23c9.59,11,6.83,31.28-8.08,39.13s-17,19.39-16.41,33.66c1.15,31,1.89,62,3,93,.55,15.82-10.19,26.9-25.65,26.5-20.09-.53-40.18-.58-60.28-1-8.69-.22-17.45-1.68-26.09-1.15a60.79,60.79,0,0,0-21.88,6.38c11.78,5.25,20.61,11.29,16.5,24.79a13.3,13.3,0,0,1-8.39,7.63c-12.53,2.81-20-4.25-24.22-15.92l-4.26,1c.32,5.31.45,10.63,1,15.95,1.39,13.14-5.84,20.9-16.56,26-9.5,4.48-16-1.21-20.62-8.51-5.79-9.16,2.23-22.75,15.69-30.23,9.52-5.3,18.14-12.27,28.47-19.4-13-12.6-24.67-5-35.3-5.52-2.74-.15-5.55,2.12-8.38,2.12-49.73,2.28-99.46,5.62-149.24,6.23-46.93.58-93.88-2.12-140.82-2.51C270.71,365.21,253.93,367.89,236.27,369.34ZM100.18,274.61C99,285.24,96.57,299.51,96,313.84c-.41,11.12,1.7,22.33,2.34,33.51C99,358,105.31,360,114.3,358.81c17.71-2.27,35.4-5.8,53.16-6.38,75.16-2.27,150.33-4.25,225.51-5.12,46.59-.55,93.2,1.81,139.79,1.36,29-.28,58-4.25,87-5,38.27-1,76.7-1.66,114.93.38,11.84.64,13.9-2.75,14.05-11.38.38-21.26.13-42.67.13-57.66-12.44-12.34-22.52-20.16-29.41-30.2-3-4.42.41-13.31.9-20.17,6.38.59,12.75.91,18.94,1.89a41.36,41.36,0,0,1,8.51,3.38c2.4-21.14,5-41.25,6.89-61.43,1.1-11.89,2.31-23.6-9.08-33-9.19-7.55-6.38-16.39,3.61-24.49a123.65,123.65,0,0,0-28-1.53c-27.11,1.72-54.2,5.61-81.27,5.33-32.28-.32-64.51-4.4-96.81-6.18-14.35-.81-28.88,1.08-43.16-.2-22.5-2.12-44.76-6.95-67.26-8.33C397.4,98,362,97.56,326.65,96.79c-17.94-.4-36.14-1.64-53.85.47a846.68,846.68,0,0,1-160.2,4.14c-11.8-.8-22,6.66-23.24,18.63-4.72,44.1-9.06,88.22,11.18,131.09V185.48c25.29,12,29.88,34,14.44,56,4.06,7.46,7.72,14.14,11.36,20.79Zm111.87,98.3c-11.08,7.76-17,25-11.21,35.3a11.32,11.32,0,0,0,9.93,4c15.71-4.49,22.92-28.28,13-42.15l-10.64,22.86-3.63-1.19c.78-6.21,1.61-12.42,2.49-18.84ZM690.91,87.8l3.44,2.51c6.38-7.72,13.8-14.89,18.29-23.39,2.13-4-1.87-11-3.08-16.67-4.41,2-9.93,2.85-12.93,6.1-4,4.25-5.93,10.4-10.38,18.77l13.23-9.44a15.17,15.17,0,0,1-2.28,11.46C695.16,80.69,693,84.22,690.91,87.8Zm-564-1c9.06-16.12,1.53-30.22-17.6-38.94C115.28,61,120.36,72.23,126.93,86.78ZM670.84,50.84c-4,13.74-7.11,24.45-10.21,35.19l5.1,2.49,18.63-25.24Zm75.59,207.23c2.74-14.88-5-24.22-20.76-25.35C725.57,246.44,730.61,255.56,746.43,258.07ZM200.18,369.47c-18.24,0-23.62,10.63-13.5,28.76Zm390,28.79-4.82.46c.4,5-.28,10.46,1.76,14.61.81,1.68,9.36,2.13,11.25.21,4.25-4.4,6.38-10.63,9.48-16.22l-4.1-2.34a52.9,52.9,0,0,1-3.87,5.74c-1.72,2-3.78,3.66-6.48,6.21C592,403.27,591,400.76,590.16,398.26ZM108.31,234.77c11.78-14.89,11.22-20.4-4.11-34.28C105.73,213.25,106.88,222.94,108.31,234.77Zm661.63-33.6,4.26,2.28,14-21.46-5-3.32c-10.82,3.11-11.86,12.93-13.29,22.5ZM716.79,78.65C709.7,85.44,705,89.92,698.88,95.77h17.91Z"/><path class="cls-2" d="M100.16,274.61l26.18-12.31C122.7,255.65,119,249,115,241.51c15.44-21.95,10.85-44.08-14.44-56v65.64c-20.24-42.87-15.9-87-11.18-131.09,1.28-12,11.44-19.43,23.24-18.63a846.35,846.35,0,0,0,160.17-4.1c17.74-2.13,35.92-.87,53.86-.47,35.34.77,70.74,1.17,106,3.34,22.5,1.38,44.76,6.38,67.25,8.34,14.29,1.27,28.82-.62,43.17.19,32.3,1.78,64.53,5.87,96.81,6.19,27.07.27,54.15-3.62,81.26-5.34a124.28,124.28,0,0,1,28.05,1.53c-10,8.1-12.76,17-3.61,24.49,11.39,9.38,10.18,21.1,9.07,33-1.87,20.18-4.48,40.3-6.88,61.43a41.59,41.59,0,0,0-8.51-3.38c-6.25-1-12.63-1.3-18.94-1.89-.49,6.87-3.94,15.75-.9,20.18,6.89,10,17,17.86,29.41,30.19,0,14.88.25,36.32-.13,57.66-.15,8.64-2.13,12-14.05,11.38-38.28-2.13-76.55-1.34-114.93-.38-29,.72-58,4.7-87,5-46.58.45-93.19-1.91-139.78-1.36-75.18.9-150.35,2.85-225.51,5.13-17.76.53-35.45,4.06-53.16,6.38-9,1.14-15.33-.77-15.93-11.47C97.72,336.21,95.61,325,96,313.88,96.55,299.51,99,285.26,100.16,274.61Z"/><path class="cls-2" d="M212,372.91c-.88,6.38-1.71,12.63-2.53,18.84l3.63,1.19,10.63-22.86c9.89,13.87,2.68,37.66-13,42.15a11.31,11.31,0,0,1-9.93-4C195.12,397.87,201.05,380.67,212,372.91Z"/><path class="cls-2" d="M690.91,87.8c2.12-3.58,4.25-7.11,6.38-10.64a15.21,15.21,0,0,0,2.27-11.46l-13.22,9.44c4.44-8.37,6.38-14.5,10.37-18.77,3-3.25,8.51-4.15,12.93-6.1,1.21,5.65,5.13,12.75,3.08,16.67-4.48,8.65-12,15.73-18.28,23.39Z"/><path class="cls-2" d="M126.93,86.78c-6.57-14.55-11.65-25.8-17.6-38.94C128.46,56.56,136,70.66,126.93,86.78Z"/><path class="cls-2" d="M670.84,50.84l13.52,12.44L665.73,88.63l-5.1-2.49C663.73,75.29,666.84,64.58,670.84,50.84Z"/><path class="cls-2" d="M746.43,258.07c-15.82-2.51-20.86-11.63-20.76-25.35C741.45,233.85,749.17,243.16,746.43,258.07Z"/><path class="cls-2" d="M200.18,369.47l-13.5,28.76C176.56,380.1,181.92,369.59,200.18,369.47Z"/><path class="cls-2" d="M590.16,398.26c.94,2.5,1.9,5,3.3,8.73,2.7-2.55,4.76-4.25,6.49-6.2a54.52,54.52,0,0,0,3.87-5.75l4,2.28c-3,5.53-5.27,11.82-9.48,16.22-1.89,2-10.44,1.47-11.25-.21-2.12-4.15-1.36-9.65-1.76-14.61Z"/><path class="cls-2" d="M108.31,234.77c-1.43-11.83-2.58-21.52-4.11-34.28C119.53,214.37,120.09,219.8,108.31,234.77Z"/><path class="cls-2" d="M769.94,201.17c1.43-9.57,2.47-19.39,13.23-22.5l5,3.32-14,21.46Z"/><path class="cls-2" d="M716.7,78.65V95.77H698.8C705,89.92,709.62,85.44,716.7,78.65Z"/></g></svg>