<svg width="400" height="220" id="Layer_1" data-name="Layer 1" xmlns="http://www.w3.org/2000/svg" viewBox="0 0 818.96 520.08"><defs><style>.cls-1{fill:#010101;}.cls-2{fill:#fff;}</style></defs><g id="Layer_3" data-name="Layer 3"><path class="cls-1" d="M307.46,335.28c2.38,10.83-1.09,19.46-9.33,26.13-6.48,5.26-10.22,4.37-14.33-2.38a8.34,8.34,0,0,0-4.55-3c-7.16-2.15-6.42-8.55-7.61-13.82-.31-1.36.75-3,1.62-6.12-8.25.4-15.68,1-23.12,1.08-7.16.11-14.46,0-21.65-.46-6.94-.42-8.84-5.29-9-11.36-.55-16.87-.42-33.81-1.94-50.59s-4.62-33.14-7.23-49.68c-.33-2-1.89-3.88-3.18-6.41-7.33,4.23-12.86,1.3-17-4.9-1.2-1.74-2.14-5.07-1.27-6.4,1.25-1.88,4.57-3.94,6.5-3.58,3.7.8,7.23,3,10.46,5.16,1.91,1.29,3.1,3.64,5.49,6.64,1.19-6.71,2.27-12.07,3-17.48,2-15.67,5.06-18.59,24.88-22.76-1.5-4.25-3.58-8.36-4.25-12.57s.28-8.36.64-15.13l13.13,9.77.12-1.52c4.44.5,12.24.06,12.7,1.68,1.59,5.63.61,11.94.61,18.67,16.25,0,34.14,1.93,51.43-.41,37.9-5.12,75.4-7.4,112.84,2.39a16.79,16.79,0,0,0,3.24.32l97.06,3.73c1.85.07,3.71,0,6.05,0,.36-4.3.67-8,1-12.33h7.59c6.86-17,11.54-20,18.3-13.13,4.1-2.24,8-6,11.94-6,2.92,0,7.84,4.14,8.52,7.16,1.66,7.43,1.37,15.29,1.95,24.1,3.58,0,7.5-.2,11.42,0,8.28.5,12,4.62,12.4,12.72.44,10.06,1.11,20.11,1.73,30.92l10.26-4c5.38,6.17,3.83,17.56-4.54,22s-9.55,10.89-9.22,18.9c.65,17.41,1.06,34.84,1.68,52.25.31,8.88-5.72,15.1-14.4,14.87-11.28-.29-22.56-.32-33.85-.57-4.88-.12-9.8-.94-14.65-.64a34.09,34.09,0,0,0-12.28,3.58c6.61,3,11.57,6.34,9.26,13.92a7.49,7.49,0,0,1-4.71,4.29c-7,1.57-11.21-2.39-13.6-8.95l-2.39.58c.18,3,.25,6,.57,8.95.78,7.38-3.28,11.74-9.3,14.58-5.34,2.52-9-.68-11.58-4.78-3.25-5.14,1.25-12.77,8.81-17,5.35-3,10.19-6.89,16-10.89-7.27-7.08-13.85-2.8-19.82-3.11-1.54-.08-3.12,1.2-4.71,1.2-27.92,1.27-55.85,3.15-83.8,3.49-26.35.33-52.72-1.19-79.08-1.4C326.8,333,317.38,334.46,307.46,335.28ZM231,282.08c-.67,6-2,14-2.33,22-.22,6.25,1,12.54,1.32,18.82.33,6,3.89,7.08,8.94,6.44,9.94-1.28,19.88-3.26,29.85-3.59,42.21-1.27,84.41-2.38,126.63-2.87,26.16-.31,52.34,1,78.5.76,16.28-.15,32.55-2.39,48.84-2.79,21.5-.54,43.07-.93,64.54.21,6.65.36,7.81-1.54,7.89-6.39.22-11.94.07-24,.07-32.38-7-6.92-12.64-11.32-16.51-16.95-1.71-2.49.23-7.48.5-11.33,3.59.33,7.17.51,10.64,1.06a22.91,22.91,0,0,1,4.78,1.9c1.35-11.87,2.82-23.17,3.87-34.5.62-6.67,1.3-13.25-5.1-18.52-5.16-4.23-3.58-9.2,2-13.75a69.83,69.83,0,0,0-15.75-.86c-15.22,1-30.44,3.15-45.64,3-18.12-.18-36.22-2.48-54.36-3.48-8.06-.45-16.21.61-24.24-.11-12.63-1.19-25.13-3.9-37.76-4.68-19.81-1.19-39.69-1.44-59.54-1.87-10.07-.23-20.29-.92-30.24.26a475.34,475.34,0,0,1-90,2.33c-6.62-.45-12.33,3.74-13,10.46-2.65,24.76-5.08,49.54,6.28,73.61V232c14.2,6.71,16.78,19.11,8.11,31.46,2.28,4.19,4.33,7.94,6.38,11.68Zm62.82,55.2c-6.22,4.36-9.56,14-6.3,19.82a6.37,6.37,0,0,0,5.58,2.26c8.82-2.52,12.87-15.88,7.32-23.67l-6,12.84-2-.67c.44-3.49.91-7,1.39-10.58Zm268.9-160.1,1.93,1.41c3.58-4.34,7.75-8.36,10.27-13.14,1.19-2.22-1.05-6.18-1.73-9.36-2.47,1.1-5.58,1.6-7.26,3.43-2.22,2.39-3.33,5.84-5.83,10.54l7.43-5.3a8.53,8.53,0,0,1-1.28,6.44C565.15,173.19,563.94,175.17,562.76,177.18Zm-316.7-.57c5.09-9.06.86-17-9.89-21.87C239.52,162.12,242.37,168.44,246.06,176.61Zm305.43-20.18c-2.25,7.71-4,13.73-5.73,19.76l2.86,1.39,10.46-14.17Zm42.44,116.36c1.54-8.35-2.79-13.6-11.65-14.23C582.22,266.26,585.05,271.39,593.93,272.79ZM287.19,335.35c-10.24,0-13.26,6-7.58,16.15Zm219,16.16-2.71.27c.22,2.78-.16,5.87,1,8.2.45.94,5.25,1.19,6.31.12,2.39-2.47,3.59-6,5.33-9.11l-2.31-1.31a30.24,30.24,0,0,1-2.17,3.22c-1,1.11-2.12,2.05-3.64,3.49C507.2,354.33,506.66,352.92,506.19,351.51ZM235.6,259.71c6.62-8.36,6.31-11.45-2.3-19.25C234.16,247.62,234.8,253.07,235.6,259.71Zm371.54-18.87,2.39,1.28,7.87-12.05-2.8-1.86c-6.08,1.74-6.66,7.26-7.46,12.63ZM577.29,172c-4,3.81-6.6,6.33-10,9.62h10Z"/><path class="cls-2" d="M231,282.08l14.7-6.91c-2-3.74-4.1-7.49-6.38-11.68,8.67-12.32,6.09-24.75-8.11-31.46v36.86c-11.36-24.07-8.93-48.85-6.28-73.61.72-6.72,6.43-10.91,13-10.46a476.87,476.87,0,0,0,89.95-2.3c10-1.2,20.16-.49,30.24-.27,19.85.43,39.73.66,59.53,1.88,12.64.77,25.14,3.58,37.77,4.68,8,.71,16.18-.35,24.24.11,18.14,1,36.24,3.29,54.36,3.47,15.2.16,30.41-2,45.64-3a69.83,69.83,0,0,1,15.75.86c-5.62,4.55-7.17,9.55-2,13.76,6.4,5.26,5.72,11.84,5.09,18.52-1,11.33-2.52,22.62-3.86,34.49a23.47,23.47,0,0,0-4.78-1.9c-3.51-.55-7.09-.73-10.64-1.06-.27,3.86-2.21,8.85-.5,11.33,3.87,5.64,9.55,10,16.51,17,0,8.35.15,20.39-.07,32.38-.08,4.85-1.19,6.74-7.89,6.39-21.49-1.2-43-.76-64.54-.22-16.3.41-32.56,2.64-48.84,2.79-26.16.26-52.34-1.07-78.5-.76-42.22.5-84.43,1.6-126.63,2.88-10,.3-19.91,2.28-29.85,3.58-5.05.64-8.61-.43-9-6.44-.35-6.28-1.54-12.57-1.31-18.81C229,296.07,230.37,288.07,231,282.08Z"/><path class="cls-2" d="M293.84,337.28c-.48,3.58-.95,7.09-1.42,10.58l2.05.67,6-12.84c5.55,7.79,1.5,21.15-7.32,23.67a6.36,6.36,0,0,1-5.58-2.26C284.35,351.3,287.68,341.64,293.84,337.28Z"/><path class="cls-2" d="M562.76,177.18c1.19-2,2.39-4,3.58-6a8.53,8.53,0,0,0,1.28-6.44l-7.43,5.3c2.5-4.7,3.58-8.14,5.83-10.54,1.68-1.83,4.77-2.33,7.26-3.43.68,3.18,2.87,7.17,1.73,9.37-2.52,4.85-6.74,8.83-10.27,13.13Z"/><path class="cls-2" d="M246.06,176.61c-3.69-8.17-6.54-14.49-9.89-21.87C246.92,159.64,251.15,167.55,246.06,176.61Z"/><path class="cls-2" d="M551.49,156.43l7.59,7-10.46,14.23-2.86-1.39C547.5,170.16,549.24,164.14,551.49,156.43Z"/><path class="cls-2" d="M593.93,272.79c-8.88-1.4-11.71-6.53-11.65-14.23C591.14,259.19,595.47,264.42,593.93,272.79Z"/><path class="cls-2" d="M287.19,335.35l-7.58,16.15C273.93,341.32,276.94,335.42,287.19,335.35Z"/><path class="cls-2" d="M506.19,351.51c.52,1.41,1.06,2.82,1.85,4.91,1.51-1.43,2.67-2.39,3.64-3.48a30.36,30.36,0,0,0,2.17-3.23l2.26,1.28c-1.71,3.1-3,6.64-5.33,9.11-1.06,1.11-5.86.82-6.31-.12-1.2-2.33-.77-5.42-1-8.2Z"/><path class="cls-2" d="M235.6,259.71c-.8-6.64-1.44-12.09-2.3-19.25C241.91,248.26,242.22,251.3,235.6,259.71Z"/><path class="cls-2" d="M607.14,240.84c.8-5.37,1.38-10.89,7.43-12.63l2.79,1.86-7.87,12.05Z"/><path class="cls-2" d="M577.24,172v9.62h-10C570.66,178.37,573.27,175.85,577.24,172Z"/></g></svg>