<svg width="400" height="220" id="Layer_1" data-name="Layer 1" xmlns="http://www.w3.org/2000/svg" viewBox="0 0 818.96 520.08"><defs><style>.cls-1{fill:#010101;}.cls-2{fill:#fff;}</style></defs><g id="Layer_3" data-name="Layer 3"><path class="cls-1" d="M414.9,154.33c-3.84.32-5,.16-6.06.55-5.33,2.06-10.35,1.79-11.79-4.46-1.31-5.66,1.64-10.3,7.43-12.12,4.85-1.55,11.25,3,12.12,8.48a37.71,37.71,0,0,1,.1,5.82V159c1.89-.69,3.37-1.14,4.85-1.77,4.37-1.92,10.15-4.08,12,1.13,1.06,2.95-2.79,8.92-6,11.75-2.81,2.42-7.83,2.42-12.44,3.63.57,1,1,2.93,2.05,3.48,8.27,4.27,76,10.82,85.27,8.49-.87-3.38-2.23-6.72-2.5-10.14-.66-8.48,4-12.12,12.25-10.2a11.11,11.11,0,0,0,4.79-.45c4-.92,8-2,12.12-3,.77,4.16,2.14,8.33,2.12,12.47,0,3.09-1.86,6.17-3.22,10.29h29.73c10.8,0,21.63.39,32.41-.12,8.48-.38,12.28,3.52,12.71,11.34.74,13.1,1.48,26.22,1.67,39.35.28,19.1.08,38.23.08,57.34l2.57.29c.39-5.12,1.82-10.42,1-15.31-2.14-12.13.26-18.45,11.7-23.27.54,6.32,2.2,12.37,1.22,17.93-1,5.26-4.73,10-6.7,13.84a119.49,119.49,0,0,1,12.45,6c.43.26-.71,4.67-2.14,6.21-4.08,4.4-9.07,6.17-15.54,1.95-1.57,4.27-4,7.95-4.09,11.67-.22,13-9.93,17.53-19.39,20.27a138.08,138.08,0,0,1-34.8,5.31c-30.14.72-60.32.44-90.48.17-19.08-.17-38.15-1-57.23-1.61-4.08-.12-6.23.78-8.59,5.24-2.53,4.79-8.3,8.63-13.51,11-6.58,3-14.25-3.11-10-17.89-36.27,0-71.92.23-107.56-.11-13.09-.13-26.21-1.37-39.25-2.69-1.87-.19-4.55-3.53-4.85-5.71-1.57-10.29-2.66-20.68-3.52-31.08-.56-6.83-1.86-11.72-9.7-14.73-5.38-2.07-9.4-8.35-13.21-13.33-1.08-1.45-.07-5.88,1.48-7.45,1.1-1.1,5.07-.34,7.16.74,3.56,1.82,6.64,4.55,11.25,7.86-1-14.84-1.91-28.44-2.87-42-.13-1.92-1-3.88-.73-5.73.77-5.91-1.46-9.33-6.72-12.47-9.11-5.52-11.22-14.46-5.65-23.2l11.94,8.81c-.29-11.13,8.69-9.76,16.24-10.63-.68-3.76-2.77-8-1.53-10.55s5.83-3.73,10.49-6.39c-1.56-.49-2.91-1-4.29-1.34s-2.74-.22-3.83-.84c-9.63-5.39-12-22.64-3.66-30.81,7.43,6.79,16,12.45,12.62,25.14-.56,2.08,2.13,5.19,3.63,7.64,6.9,11.37,17,16.29,30.31,15.95,33.74-.89,67.49-1.21,101.22-1.92,10.49-.21,21-.76,31.44-1.57,2.42-.18,6-1.52,6.76-3.3C410.83,168.45,412.48,161.92,414.9,154.33ZM423.39,327c1.31-3.52,1.67-8.72,4.33-10.54,3-2,8-1,14.18-1.43,3.16-2.69,8.33-10.91,15.13-5.44,8.56,6.87-.85,13.17-4.46,19,10.73.79,20.92,2.35,31.07,2.14,28.68-.65,57.4-1.4,86-3.43,10.08-.72,21.37-3.46,25.53-15,2.08-5.79,2.61-12.43,2.55-18.66-.26-30.39-.89-60.77-1.6-91.15-.11-6.18-2.86-9.81-10.24-9.16-16.22,1.33-32.49,2.68-48.74,2.75-22.65.1-45.31-.8-67.89-1.61-6.27-.23-12.46-1.89-18.73-2.55-18-1.9-36-4.51-54-5.12-13.41-.45-26.89,2.15-40.37,2.71-21.82.89-43.64,1.38-65.46,1.71-20.77.3-41.54.17-62.3.22H214.81c.48,6.91.66,12.41,1.32,17.87s1.78,10.91,2.74,16.57l7.53-6.22c5.77,6.64,6.7,16.5,0,22.72-6.14,5.76-5.91,12-5.58,18.69.45,9,1.48,18,2.35,28a34.15,34.15,0,0,1,2.79-3.33c7-6.17,11.17-5,12.12,4.25.52,5-1.82,10.35-2.87,15.54l1.43-1.45c2.42,3.16,7,6.74,6.57,9.39-.75,4.17-5,7.74-9.18,13.58ZM222.44,138.31c-3.29,9.88-.06,17.5,7.5,19.3C232.62,149.43,229.33,143.61,222.44,138.31ZM444,329.47l15-15.41C448.15,312.28,443,317.47,444,329.47Zm64.76-142.93,2.87-.75c0-3.73.39-7.53-.14-11.19-.32-2.11-2.12-4-3.25-6.06-1.56,2.25-4.67,4.75-4.35,6.69C504.5,179.16,507,182.76,508.73,186.54ZM387.3,337.18l-1.32-3a113.12,113.12,0,0,0-12.22,7.16c-.58.43,1.51,6.13,2,6.06a103.33,103.33,0,0,0,12.41-2.75l-.66-1.84H377.41l-.26-1.86ZM518.11,184.63c8.79-4,9.56-11.21,6.4-20.44l-9.21,11.74L517,177l8.29-3.53C522.13,178.4,520.13,181.51,518.11,184.63ZM210.13,277l1.72-2-14.21-13.92C198.2,271.16,200,273.07,210.13,277Zm218.58,42.82c-.62,7.28,1.58,10.77,9,8.84C439.51,321,437,318,428.71,319.79ZM616.2,258.5c-6.22,10.73-6.28,12.37,0,20.54ZM399.66,146.27l1.48,5.3,11.24-2.84c-1-1.8-2.18-5.22-3-5.14C406.06,143.87,402.88,145.33,399.66,146.27ZM223.43,298.82c10.91-.51,11.62-1.83,9.09-15Zm3.8-71.7-3-1-5.7,15.76,3.81,1.34Q224.81,235.15,227.23,227.12Zm-27.94-37.51-3.19,2.06,10.11,15.08,2.6-1.67ZM233.94,320l5.51-7.73-1.61-2.15-12.34,5.45ZM430.7,162.48l-2.29-3.9-12.13,7,1.94,3.48Z"/><path class="cls-2" d="M423.44,327H234c4.21-5.84,8.43-9.41,9.18-13.58.47-2.65-4.21-6.23-6.57-9.39l-1.43,1.45c1.05-5.19,3.39-10.52,2.87-15.54-1-9.28-5.18-10.42-12.12-4.25a32.89,32.89,0,0,0-2.8,3.33c-.87-10-1.91-19-2.35-28-.33-6.72-.56-12.93,5.57-18.69,6.65-6.22,5.71-16.08,0-22.72l-7.53,6.22c-1-5.7-2.08-11.11-2.74-16.57s-.83-10.91-1.32-17.87h13.54c20.77,0,41.54.08,62.3-.22,21.82-.33,43.64-.82,65.46-1.71,13.48-.56,27-3.16,40.37-2.71,18.05.61,36.05,3.22,54.06,5.12,6.26.66,12.46,2.32,18.73,2.55,22.63.81,45.28,1.71,67.88,1.61,16.26-.07,32.53-1.42,48.75-2.75,7.27-.61,10.13,2.92,10.29,9.16.7,30.38,1.33,60.76,1.6,91.15,0,6.23-.47,12.87-2.56,18.66-4.16,11.54-15.44,14.28-25.53,15-28.61,2-57.33,2.78-86,3.43-10.15.21-20.34-1.35-31.07-2.14,3.64-5.8,13-12.12,4.46-19-6.8-5.45-12,2.75-15.13,5.44-6.14.44-11.2-.59-14.18,1.43C425.11,318.24,424.77,323.44,423.44,327Z"/><path class="cls-2" d="M222.44,138.31c6.89,5.3,10.18,11.12,7.5,19.3C222.38,155.81,219.15,148.19,222.44,138.31Z"/><path class="cls-2" d="M444,329.47c-1-12,4.18-17.19,15-15.41Z"/><path class="cls-2" d="M508.73,186.54c-1.73-3.73-4.23-7.33-4.85-11.25-.31-1.93,2.79-4.44,4.35-6.69,1.13,2,2.94,3.89,3.25,6.06.54,3.64.15,7.46.15,11.19Z"/><path class="cls-2" d="M387.3,337.18,377.15,341l.26,1.85h10.07l.66,1.84a103.33,103.33,0,0,1-12.41,2.75c-.46.06-2.55-5.64-2-6.06A113.2,113.2,0,0,1,386,334.2Z"/><path class="cls-2" d="M518.11,184.63c2-3.12,4-6.23,7.17-11.14L517,177l-1.69-1.09,9.21-11.74C527.67,173.42,526.9,180.63,518.11,184.63Z"/><path class="cls-2" d="M210.13,277c-10.15-3.9-11.93-5.81-12.49-15.92L211.85,275Z"/><path class="cls-2" d="M428.71,319.79c8.3-1.84,10.8,1.22,9,8.84C430.29,330.56,428.09,327.07,428.71,319.79Z"/><path class="cls-2" d="M616.2,258.5V279C609.92,270.87,610,269.23,616.2,258.5Z"/><path class="cls-2" d="M399.66,146.27c3.22-1,6.4-2.42,9.7-2.68.86-.08,2,3.34,3,5.14l-11.23,2.84Z"/><path class="cls-2" d="M223.43,298.82l9.09-15C235.05,297,234.31,298.31,223.43,298.82Z"/><path class="cls-2" d="M227.23,227.12q-2.41,8-4.85,16.07l-3.86-1.31,5.71-15.76Z"/><path class="cls-2" d="M199.29,189.61l9.52,15.47-2.6,1.67-10.06-15.08Z"/><path class="cls-2" d="M233.94,320l-8.49-4.43,12.34-5.45,1.61,2.15Z"/><path class="cls-2" d="M430.7,162.48l-12.43,6.62-2-3.48,12.13-7Z"/></g></svg>