<svg width="400" height="220" id="Layer_1" data-name="Layer 1" xmlns="http://www.w3.org/2000/svg" viewBox="0 0 818.96 460"><defs><style>.cls-1{fill:#010101;}.cls-2{fill:#fff;}</style></defs><g id="Layer_3" data-name="Layer 3"><path class="cls-1" d="M418.75,47.54c-6.84.57-9,.28-10.79,1-9.5,3.67-18.44,3.19-21-8-2.33-10.08,2.94-18.35,13.23-21.59,8.64-2.76,20,5.31,21.59,15.12a65.14,65.14,0,0,1,.17,10.36V55.77c3.37-1.23,6-2,8.64-3.15,7.79-3.44,18.09-7.28,21.41,2,1.88,5.24-5,15.88-10.68,20.91-5,4.32-13.95,4.32-22.15,6.48,1,1.84,1.73,5.2,3.65,6.2,14.72,7.59,135.35,19.25,151.85,15.11-1.56-6-4-12-4.45-18C569,70.17,577.29,63.69,592,67.1a19.57,19.57,0,0,0,8.53-.8c7.19-1.64,14.34-3.58,21.59-5.39,1.38,7.4,3.82,14.83,3.78,22.21,0,5.51-3.31,11-5.75,18.33h53c19.23,0,38.51.69,57.7-.22,15.11-.69,21.87,6.26,22.65,20.19,1.32,23.33,2.63,46.69,3,70.07.49,34,.13,68.09.13,102.11l4.57.52c.7-9.11,3.24-18.54,1.71-27.26-3.82-21.59.45-32.86,20.83-41.43.95,11.25,3.91,22,2.16,31.93-1.7,9.37-8.42,17.81-11.92,24.63a214.91,214.91,0,0,1,22.18,10.64c.75.45-1.28,8.31-3.83,11.05-7.25,7.84-16.14,11-27.67,3.48-2.79,7.6-7.15,14.16-7.28,20.79-.39,23.23-17.68,31.22-34.54,36.09a246.07,246.07,0,0,1-61.95,9.46c-53.69,1.27-107.43.78-161.14.3-34-.3-67.93-1.81-101.91-2.87-7.28-.22-11.1,1.38-15.31,9.33-4.49,8.52-14.76,15.37-24.05,19.6-11.72,5.35-25.38-5.55-17.79-31.87-64.59,0-128.08.41-191.54-.19-23.32-.24-46.68-2.44-69.91-4.79-3.32-.35-8.09-6.28-8.63-10.17-2.79-18.33-4.73-36.83-6.26-55.35-1-12.16-3.33-20.88-17.27-26.23-9.59-3.69-16.75-14.87-23.53-23.75-1.92-2.57-.13-10.47,2.63-13.25,2-2,9-.61,12.76,1.31,6.32,3.24,11.81,8.1,20,14-1.79-26.42-3.41-50.64-5.11-74.86-.24-3.41-1.73-6.91-1.3-10.19,1.36-10.54-2.61-16.63-12-22.22-16.21-9.82-20-25.75-10.06-41.32l21.26,15.7c-.51-19.82,15.48-17.38,28.93-18.93C79.45,91,75.72,83.55,77.94,79s10.39-6.64,18.68-11.37c-2.79-.89-5.19-1.77-7.65-2.4s-4.88-.39-6.82-1.49C65,54.09,60.69,23.37,75.63,8.82,88.87,20.9,104.17,31,98.1,53.59c-1,3.71,3.8,9.24,6.48,13.6,12.28,20.25,30.22,29,54,28.41,60.08-1.58,120.18-2.16,180.26-3.41,18.67-.39,37.37-1.36,56-2.81,4.31-.32,10.64-2.7,12-5.87C411.5,72.67,414.43,61.06,418.75,47.54ZM433.86,355c2.33-6.27,3-15.53,7.71-18.76,5.31-3.61,14.31-1.77,25.26-2.55,5.63-4.79,14.83-19.43,26.94-9.69,15.24,12.24-1.51,23.44-7.95,33.78,19.11,1.4,37.26,4.19,55.33,3.8,51.08-1.14,102.22-2.48,153.17-6.11,18-1.27,38.06-6.15,45.46-26.7,3.72-10.32,4.67-22.13,4.56-33.23-.48-54.12-1.6-108.22-2.85-162.32-.2-11-5.1-17.48-18.24-16.32-28.89,2.38-57.86,4.77-86.81,4.9-40.32.18-80.67-1.42-120.89-2.87-11.16-.41-22.19-3.37-33.35-4.53-32.06-3.39-64.12-8-96.26-9.13-23.88-.8-47.89,3.84-71.89,4.83-38.86,1.58-77.72,2.46-116.58,3-37,.54-74,.3-110.94.39H62.42c.86,12.3,1.19,22.1,2.35,31.82s3.18,19.42,4.88,29.51l13.41-11.08c10.27,11.83,11.94,29.38,0,40.46-10.93,10.25-10.52,21.33-9.93,33.29.8,16,2.63,32,4.19,49.82a59.8,59.8,0,0,1,5-5.94c12.39-11,19.88-8.95,21.59,7.58.93,8.94-3.24,18.44-5.12,27.68l2.55-2.59c4.32,5.63,12.54,12,11.7,16.73-1.34,7.42-8.85,13.77-16.34,24.18ZM76,19c-5.87,17.59-.11,31.17,13.34,34.36C94.13,38.8,88.28,28.44,76,19Zm394.5,340.41L497.22,332C478,328.81,468.7,338.05,470.52,359.42ZM585.84,104.9l5.12-1.34c0-6.64.69-13.4-.26-19.92-.56-3.76-3.78-7.15-5.79-10.79-2.78,4-8.31,8.46-7.75,11.91C578.31,91.76,582.75,98.17,585.84,104.9ZM369.59,373.15l-2.35-5.31a201.61,201.61,0,0,0-21.76,12.76c-1,.76,2.7,10.93,3.52,10.8a185.12,185.12,0,0,0,22.08-4.9l-1.16-3.29H352l-.46-3.3Zm233-271.66c15.65-7.12,17-20,11.4-36.39L597.54,86l3,2,14.77-6.29C609.69,90.4,606.13,95.94,602.55,101.49ZM54.09,265.93l3.06-3.56-25.3-24.79C32.84,255.59,36,259,54.09,265.93ZM443.34,342.2c-1.1,12.95,2.8,19.17,16.1,15.73C462.57,344.4,458.13,338.92,443.34,342.2ZM777.22,233.05c-11.08,19.1-11.19,22,0,36.57ZM391.61,33.19l2.64,9.43,20-5c-1.84-3.22-3.89-9.3-5.42-9.15C403,28.91,397.33,31.5,391.61,33.19ZM77.77,304.85c19.43-.91,20.7-3.26,16.19-26.75Zm6.78-127.69-5.38-1.84L69,203.39l6.8,2.39Q80.22,191.47,84.55,177.16Zm-49.76-66.8L29.11,114l18,26.86,4.62-3ZM96.49,342.5l9.82-13.77-2.87-3.82-22,9.69ZM446.88,62.05,442.8,55.1,421.21,67.64l3.45,6.2Z"/><path class="cls-2" d="M434,355H96.64c7.49-10.41,15-16.76,16.34-24.18.84-4.73-7.49-11.1-11.7-16.73l-2.55,2.59c1.88-9.24,6-18.74,5.12-27.68-1.73-16.53-9.22-18.56-21.59-7.58a60.1,60.1,0,0,0-5,5.94c-1.55-17.81-3.39-33.78-4.19-49.82-.58-12-1-23,9.93-33.29,11.83-11.08,10.17-28.63,0-40.46l-13.4,11.08c-1.71-10.15-3.71-19.78-4.88-29.51s-1.49-19.43-2.35-31.82H86.49c37,0,74,.15,110.94-.39,38.86-.59,77.72-1.47,116.57-3,24-1,48-5.63,71.89-4.83,32.15,1.1,64.2,5.74,96.26,9.13,11.16,1.16,22.2,4.12,33.36,4.53,40.3,1.45,80.65,3,120.89,2.87,29-.13,57.92-2.52,86.8-4.9,13-1.08,18,5.21,18.33,16.32,1.25,54.1,2.38,108.2,2.85,162.32,0,11.1-.84,22.91-4.55,33.23-7.41,20.55-27.51,25.43-45.47,26.7-51,3.63-102.09,5-153.16,6.11-18.07.39-36.23-2.4-55.33-3.8,6.47-10.34,23.18-21.59,7.94-33.78-12.11-9.72-21.31,4.9-26.94,9.69-10.95.78-19.95-1.06-25.26,2.55C436.93,339.43,436.32,348.69,434,355Z"/><path class="cls-2" d="M76,19C88.28,28.44,94.13,38.8,89.36,53.37,75.91,50.18,70.15,36.6,76,19Z"/><path class="cls-2" d="M470.52,359.42C468.75,338,478,328.81,497.22,332Z"/><path class="cls-2" d="M585.84,104.9c-3.09-6.65-7.53-13.06-8.64-20-.56-3.45,5-7.92,7.75-11.92,2,3.54,5.23,6.93,5.79,10.8,1,6.47.26,13.27.26,19.92Z"/><path class="cls-2" d="M369.59,373.15l-18.07,6.78.46,3.31h17.94l1.16,3.28a185.12,185.12,0,0,1-22.08,4.9c-.82.11-4.56-10.06-3.52-10.8a201.77,201.77,0,0,1,21.76-12.78Z"/><path class="cls-2" d="M602.55,101.49c3.58-5.55,7.14-11.09,12.76-19.84l-14.77,6.29-3-2L614,65.1C619.56,81.52,618.2,94.37,602.55,101.49Z"/><path class="cls-2" d="M54.09,265.93C36,259,32.84,255.59,31.85,237.58l25.3,24.79Z"/><path class="cls-2" d="M443.34,342.2c14.79-3.28,19.23,2.16,16.1,15.73C446.14,361.37,442.24,355.15,443.34,342.2Z"/><path class="cls-2" d="M777.22,233.05v36.57C766,255.07,766.14,252.15,777.22,233.05Z"/><path class="cls-2" d="M391.61,33.19c5.72-1.75,11.4-4.32,17.27-4.77,1.54-.15,3.59,5.93,5.42,9.15l-20,5Z"/><path class="cls-2" d="M77.77,304.85,94,278.1C98.47,301.59,97.15,303.94,77.77,304.85Z"/><path class="cls-2" d="M84.55,177.16l-8.64,28.62L69,203.45l10.16-28.06Z"/><path class="cls-2" d="M34.79,110.36l16.94,27.55-4.62,3L29.2,114Z"/><path class="cls-2" d="M96.49,342.5l-15.12-7.9,22-9.69,2.87,3.82Z"/><path class="cls-2" d="M446.88,62.05,424.75,73.84l-3.54-6.2L442.8,55.1Z"/></g></svg>