<svg width="400" height="220" id="Layer_1" data-name="Layer 1" xmlns="http://www.w3.org/2000/svg" viewBox="0 0 818.96 460"><defs><style>.cls-1{fill:#fff;}.cls-2{fill:#010101;}</style></defs><g id="Layer_3" data-name="Layer 3"><path class="cls-1" d="M81.48,101.85c18.57-12.75,31.77-13.2,40.27-11.18,15,3.58,19.92,15.66,33.56,15.66,12.09,0,19.69-9.62,26.85-15.66,27.08-22.15,65.33-2.91,154.38,6.71,28.19,2.91,49,3.8,71.6,4.47a1062.9,1062.9,0,0,0,116.34-2.23H710.19L737,110.8h11.19v85l13.43,87.26v58.17l-2.24,29.09-24.61,9H544.62l-123.06-6.71-138.71-2.24-67.13-6.71H139.65l-35.8,6.71L81.48,356.92Z"/><path class="cls-2" d="M446.4,367.65c.22-16.78,9.17-31.54,22.82-35.12,5.37-1.34,13.65-.23,17.45,3.13,2.46,2.24.22,11-1.56,16.11-1.35,4-5.82,6.94-9.85,11.41,19,1.57,36.92,3.36,54.82,4.25,56.83,3.36,113.88,6.71,170.71,9.4A115,115,0,0,0,732.34,373c20.58-4.92,25.06-11.41,23.27-33.56-2.69-34.45-5.82-68.68-9.4-103.14-.23-3.36-3.36-6.71-5.6-9.4-5.59-6-13.87-10.51-16.78-17.45-3.35-8.05-2.46-17.9-3.35-26.85l23-1.12c0-14.54.45-31.32-.22-48.1-.22-9.84-4.48-18.12-15.66-19.24-35.35-3.36-70.7-8.28-106-9-48.33-.9-96.88,1.57-145.43,2.68-30,.68-60.19,2.47-90.17,2.91a250,250,0,0,1-160.2-53c-26.85,18.34-38,20.58-42.06,6.71-5.37-18.35,15-16.11,25.51-26-23.5-5.36-39.61-11.34-48.33-32.6,18.57-4.47,37.59.61,45.86,16.72,5.6,11.19,15.89,21.25,26.41,28.64,12.08,8.5,26.84,13.2,44.52,21.48C267.41,54.42,267,36.52,247.27,28.91c-7.83-3.13-13.65-7.76-17.23-16.71C226,2.35,234.29-4.36,244.59-1c15,4.7,30.42,7.76,21.92,28.8a8,8,0,0,0-.22,5.59C274.57,47.26,282.4,61.58,292,74.56c3.8,5.14,12.3,6.71,19,10.29-1.12-14.32-2-26.18-3.14-40.72,24.17,9.4,31.1,24.39,31.55,43.63,37.14,9.84,74.28,6.93,111.87,5.59,60.19-2.24,120.6.45,180.78.9,25.73.22,51.68,0,76.3,0-9.18-18.8-8.28-25.29,4.25-31.1,1.56-11.86,2.91-22.38,4.25-32.67l7.16-1.79,28,43.63a14.78,14.78,0,0,1,3.8-2.69c6-2.23,12.3-4.25,18.57-6.26,0,8.05.22,16.33.22,24.39a1.5,1.5,0,0,1-.89,1.12c-19.91,12.53-16.33,30.87-15.22,50.78,2,38,.67,76.3.67,114.34l4.48.22c7.61-8.5,14.32-17.9,22.82-25.51,3.8-3.35,10.74-3.13,16.33-4.47-.22,4.47.45,9.4-.44,13.87-5.15,21.93-14.32,41.39-38,52.35,2,12.76,3.8,26.18,6.27,39.61,6.71,38.48-6.49,60.18-49.45,62-31.77,1.34-63.77-3.13-95.76-4.92-5.59-.22-11.19,0-13.2,0-4.92,7.38-7.83,16.33-12.53,17.68-6.71,1.79-18.79,0-21.48-4.48-11.86-20.36-30.43-15-47.43-16.56-1.12,6.49-1.34,12.09-3.36,16.78-6.93,16.34-21.7,19.25-29.08,3.58-10.07-21-25.51-21.92-44.53-20.58-27.07,1.57-53.92,3.8-80.77,2.68-35.8-1.34-71.59-6.48-107.39-8.5-47.88-2.46-96-3.35-143.87-4.92l-1.34,5.37c4.7,1.79,9.17,3.58,13.87,5.37,6,2.24,14.77,2.68,17.68,6.94,5.37,7.83,8.28,17.89,9.84,27.29.45,2-10.07,8.73-14.09,7.83-9.18-2.23-17.9-7.38-26.4-12.3-2.24-1.35-2.24-6.49-2.24-7.16-8.73-.67-19.47,1.34-22.15-2.46-4.25-6-3.13-16.11-4.92-28.42-13-6.49-17.68-19.69-13.65-40.05,3.13-15.88-.9-33.33-1.79-51-11.41,2.68-21.26,19.24-30.43,1.34-8.5-16.33-5.37-22.37,16.56-33.78-2.69-6.94-4.48-14.55-8.28-21a19,19,0,0,0-10.52-8.06C20.4,217.53,19,210.14,23.28,186.2,3.59,173-1.06,156.89,7,128.7c26.85,9,25.9,30.65,32.17,57.28l9.42-46.54C66,154.43,64.25,173,58.66,184.86c-10.29,21.7,2.91,33.34,13.87,48.1,1.12-9,3.13-17.67,3.13-26.62-.44-28-1.34-55.94-2.91-84.13-1.11-21.7,6.49-32,30-37.58.22-1.57,0-4,.89-5.37,3.8-5.15,8.05-9.85,12.08-14.77,4.92,4,12.08,7.16,14.32,12.53,6,14.32,26.18,21.25,39.16,12.08,19-13.65,31.32-12.08,48.32,3.8,4.7,4.48,13,4.7,18.13,8.73s9.39,10.51,13.87,15.88c-7.61,2.69-15.44,7.16-23.27,7.39a20.84,20.84,0,0,1-15.44-8.5c-9.17-15.67-23-11.19-34-11.41-3.35,6.26-4.92,13.2-8.72,15s-13,.44-15.22-2.69c-13.87-20.36-33.33-11.86-51.23-11-4,.22-7.83,1.79-13.88,3.13,1.12,13.2,3.14,26.18,3.36,39.15.45,27.52-.22,55.27.22,82.79.68,36.24,2,72.49,3.14,108.73.44,13.88,9.62,18.58,21.48,18.13,19.69-.45,39.82-.23,59.29-3.36,35.57-5.59,69.58.45,104.26,6.49A465.62,465.62,0,0,0,343,367.21C376.82,368.33,411.05,367.65,446.4,367.65ZM797.67,237l-7.61-4.92-28,46.09c2.46,1.57,4.93,2.91,7.39,4.47ZM726.3,41.67l-4.48,1.79c-.89,19,6,34.45,18.57,47.65l5.82-2.46C739.5,73,733,57.33,726.3,41.67ZM129.36,405.91l-2,5.15,25.28,9.4c.45-22.15-3.58-27.08-19.24-26.63,2.68,4.7,5.37,9.4,9.62,17ZM17.29,140.56,11,144.81c1.11,15.89,3.08,24.61,14.49,33.11L30,175ZM498.75,380.18l-6,6.49,19,17.9,8.73-11.19ZM60,258c-5.59,7.83-10.07,12.08-11.63,17.45-.67,2,7.6,8.95,8.5,8.51a46.3,46.3,0,0,0,13-12.53C70.52,270.1,65.15,265,60,258ZM235.19,11.08l23.49,18.28C261.81,7.66,256,8.39,235.19,11.08ZM451.77,358.71l4.92,4.92c8.95-6.94,24.61-7.39,19.47-28.19ZM746.88,96.48l6.94,4c6.26-9,12.52-17.67,19-26.62l-6.26-4.26ZM716.67,67.84,712,67.62c-.45,4.92-2.91,11.19-.9,14.32,4,5.82,10.52,9.84,16.11,14.54l2.46-3.13C725.4,84.85,721.15,76.35,716.67,67.84Zm31.78,151c-7.39-13.65-12.31-23.05-18.35-34.23-6.94,15.21-2,24.61,18.35,34.23ZM317.52,54c-2,19.69,2,26.18,16.11,27.75ZM40.31,215.29l5.6-6.27L33.35,195.38c-1.57,2.23-4.7,6-4.25,6.26C33.8,206.34,35.17,210.81,40.31,215.29Z"/><path class="cls-1" d="M797.67,237l-28.42,45.64c-2.46-1.56-4.92-3.13-7.38-4.47l28-46.09Z"/><path class="cls-1" d="M726.3,41.67C733,57.33,739.5,73,746,88.65l-5.81,2.46c-12.31-13.2-19.47-28.64-18.57-47.65Z"/><path class="cls-1" d="M129.36,405.91,143,410.84c-4.25-7.61-6.94-12.31-9.62-17,15.66-.45,19.69,4.48,19.24,26.63l-25.28-9.4Z"/><path class="cls-1" d="M17.29,140.56,30.22,175l-4.48,2.9c-11.41-8.5-13.37-17.45-14.49-33.11Z"/><path class="cls-1" d="M498.75,380.18l21.71,13.2-8.73,11.19-19-17.9Z"/><path class="cls-1" d="M60,258c5.15,6.94,10.52,12.08,9.85,13.2a40.74,40.74,0,0,1-13,12.53c-.9.45-8.95-6.71-8.5-8.5C49.93,270.1,54.41,265.85,60,258Z"/><path class="cls-1" d="M235.19,11.08C256,8.39,261.81,7.44,258.68,29.36Z"/><path class="cls-1" d="M451.77,358.71l24.39-23c5.37,20.81-10.52,21.26-19.47,28.19Z"/><path class="cls-1" d="M746.88,96.48l19.46-26.85,6.49,4.26L754,100.73Z"/><path class="cls-1" d="M716.67,67.84c4.48,8.51,8.73,17,13,25.51l-2.46,2.91c-5.59-4.7-12.08-8.73-16.11-14.54-2-3.14.45-9.4.9-14.32Z"/><path class="cls-1" d="M748.45,218.87c-20.36-9.62-25.29-19-18.35-34.23C735.92,195.82,741.06,205.22,748.45,218.87Z"/><path class="cls-1" d="M317.52,54l16.11,27.75C319.54,80.15,315.29,73.44,317.52,54Z"/><path class="cls-1" d="M40.31,215.29c-5.14-4.48-6.29-8.73-11.21-13.65-.23-.45,2.91-4,4.25-6.26L45.91,209Z"/></g></svg>