<svg width="400" height="220" id="Layer_1" data-name="Layer 1" xmlns="http://www.w3.org/2000/svg" viewBox="0 0 818.96 520.08"><defs><style>.cls-1{fill:#fff;}.cls-2{fill:#010101;}</style></defs><g id="Layer_3" data-name="Layer 3"><path class="cls-1" d="M219,177.75c10.43-7.17,17.85-7.42,22.62-6.29,8.42,2,11.18,8.8,18.85,8.8,6.78,0,11-5.4,15.07-8.8,15.2-12.43,36.69-1.63,86.69,3.77,15.83,1.64,27.52,2.14,40.21,2.52a598.59,598.59,0,0,0,65.33-1.26H572.06l15.08,6.28h6.28v47.74l7.54,49v32.67l-1.26,16.33-13.82,5H479.09L410,329.77l-77.9-1.26-37.69-3.77H251.68l-20.1,3.77L219,321Z"/><path class="cls-2" d="M423.93,327c.13-9.42,5.15-17.71,12.82-19.72,3-.75,7.66-.13,9.8,1.76,1.38,1.25.12,6.15-.88,9-.76,2.27-3.27,3.9-5.53,6.41,10.68.88,20.73,1.89,30.78,2.39,31.91,1.88,63.95,3.77,95.86,5.28A64.74,64.74,0,0,0,584.5,330c11.56-2.76,14.07-6.41,13.06-18.85-1.5-19.34-3.26-38.57-5.27-57.92-.13-1.88-1.89-3.76-3.14-5.27-3.14-3.39-7.79-5.91-9.43-9.8-1.88-4.52-1.38-10.05-1.88-15.08l12.94-.63c0-8.16.25-17.59-.13-27-.12-5.53-2.51-10.18-8.79-10.8-19.85-1.89-39.7-4.65-59.55-5-27.14-.5-54.4.88-81.67,1.51-16.83.38-33.79,1.38-50.63,1.63a140.32,140.32,0,0,1-90-29.77c-15.07,10.3-21.36,11.55-23.62,3.76-3-10.3,8.42-9,14.32-14.57-13.19-3-22.23-10.3-27.13-22.24,10.42-2.51,21.1,4.27,25.75,13.32,3.14,6.28,8.92,11.94,14.83,16.08,6.78,4.78,15.07,7.41,25,12.06-5.78-10.3-6-20.35-17.09-24.62-4.39-1.76-7.66-8.29-9.67-13.32-2.26-5.53,2.39-9.3,8.17-7.41,8.41,2.64,17.08,8.29,12.31,20.1a4.53,4.53,0,0,0-.13,3.14c4.65,7.79,9,15.83,14.45,23.12,2.14,2.89,6.91,3.77,10.68,5.78-.63-8-1.13-14.7-1.76-22.87,13.57,5.28,17.47,13.7,17.72,24.5,20.85,5.53,41.71,3.9,62.82,3.14,33.79-1.25,67.72.25,101.51.5,14.45.13,29,0,42.85,0-5.16-10.55-4.65-14.19,2.38-17.46.88-6.66,1.64-12.56,2.39-18.34l4-1,15.7,24.5a8.41,8.41,0,0,1,2.14-1.51c3.39-1.25,6.91-2.38,10.43-3.51,0,4.52.12,9.17.12,13.69a.85.85,0,0,1-.5.63c-11.18,7-9.17,17.34-8.54,28.52,1.13,21.36.38,42.84.38,64.2l2.51.13c4.27-4.78,8-10.06,12.81-14.33,2.14-1.88,6-1.76,9.17-2.51-.12,2.51.26,5.28-.25,7.79-2.89,12.31-8,23.24-21.36,29.4,1.14,7.16,2.14,14.7,3.52,22.24,3.77,21.61-3.64,33.79-27.76,34.8-17.84.75-35.81-1.76-53.78-2.76-3.14-.13-6.28,0-7.41,0-2.76,4.14-4.4,9.17-7,9.92-3.76,1-10.55,0-12.06-2.51-6.66-11.43-17.08-8.42-26.63-9.3-.63,3.64-.76,6.79-1.89,9.42-3.89,9.18-12.18,10.81-16.33,2-5.65-11.81-14.32-12.31-25-11.55-15.2.87-30.28,2.13-45.36,1.5-20.1-.75-40.2-3.64-60.3-4.77-26.89-1.38-53.9-1.89-80.79-2.77l-.75,3c2.63,1,5.15,2,7.79,3,3.39,1.25,8.29,1.5,9.92,3.89,3,4.4,4.65,10.05,5.53,15.33.25,1.13-5.65,4.9-7.92,4.4-5.15-1.26-10-4.15-14.82-6.91-1.26-.76-1.26-3.65-1.26-4-4.9-.37-10.93.76-12.44-1.38-2.38-3.39-1.75-9-2.76-16-7.29-3.65-9.93-11.06-7.66-22.49,1.75-8.92-.51-18.72-1-28.65-6.41,1.51-11.93,10.81-17.09.76-4.77-9.18-3-12.57,9.3-19-1.51-3.89-2.51-8.16-4.65-11.81a10.66,10.66,0,0,0-5.9-4.52c-13.19-2.89-16.21-7-13.82-20.48-11.06-7.41-18.72-16.46-14.2-32.29C185,197.85,189.49,210,193,225l7.54-26.14c9.8,8.42,8.79,18.85,5.65,25.51-5.78,12.18,1.63,18.72,7.79,27,.63-5,1.76-9.93,1.76-15-.25-15.71-.76-31.41-1.63-47.24-.63-12.19,3.64-18,16.83-21.11.13-.88,0-2.26.5-3,2.14-2.89,4.53-5.53,6.79-8.3,2.76,2.27,6.78,4,8,7,3.39,8,14.7,11.94,22,6.78,10.67-7.66,17.58-6.78,27.13,2.14,2.64,2.51,7.29,2.64,10.18,4.9s5.28,5.91,7.79,8.92c-4.27,1.51-8.67,4-13.07,4.15a11.7,11.7,0,0,1-8.67-4.78c-5.15-8.79-12.94-6.28-19.09-6.41-1.89,3.52-2.77,7.42-4.9,8.42s-7.29.25-8.55-1.5c-7.79-11.44-18.72-6.66-28.77-6.16-2.26.12-4.39,1-7.79,1.76.63,7.41,1.76,14.7,1.89,22,.25,15.46-.13,31,.12,46.49.38,20.35,1.13,40.71,1.76,61.06.25,7.79,5.4,10.43,12.06,10.18,11.06-.25,22.37-.13,33.3-1.89,20-3.14,39.07.25,58.55,3.65a262,262,0,0,0,35.68,3.26C384.86,327.38,404.08,327,423.93,327Zm197.26-73.37-4.28-2.76-15.7,25.88c1.38.88,2.76,1.63,4.14,2.51ZM581.11,144l-2.52,1c-.5,10.68,3.4,19.35,10.43,26.77l3.27-1.39C588.52,161.54,584.88,152.74,581.11,144ZM245.9,348.49l-1.13,2.89,14.2,5.28c.25-12.44-2-15.21-10.81-15,1.51,2.64,3,5.28,5.41,9.55Zm-70.23-149-3.52,2.39c.63,8.92,6.79,13.82,13.19,18.59l2.52-1.63ZM453.33,334l-3.39,3.64,10.68,10.06,4.9-6.29ZM207,265.44c-3.14,4.4-5.65,6.79-6.53,9.8-.38,1.13,4.27,5,4.77,4.78a26,26,0,0,0,7.29-7C212.86,272.23,209.84,269.34,207,265.44Zm98.38-142.6L318.52,137C320.28,124.85,317,121.33,305.33,122.84ZM427,322l2.76,2.76c5-3.89,13.82-4.14,10.93-15.83ZM592.67,174.73l3.89,2.26c3.52-5,7-9.92,10.68-15l-3.52-2.39Zm-17-16.08-2.63-.13c-.26,2.77-1.64,6.29-.51,8,2.26,3.27,5.91,5.53,9.05,8.17L583,173C580.6,168.2,578.22,163.42,575.7,158.65Zm17.84,84.81c-4.14-7.67-6.91-13-10.3-19.23-3.89,8.55-1.13,13.82,10.3,19.23Zm-242-92.6c-1.13,11.06,1.13,14.7,9.05,15.58ZM195.9,241.44l3.14-3.51-9.3-7.67c-.88,1.26-2.64,3.4-2.39,3.52C190,236.42,193,238.93,195.9,241.44Z"/><path class="cls-1" d="M621.19,253.63l-16,25.63c-1.38-.88-2.77-1.76-4.15-2.51l15.71-25.88Z"/><path class="cls-1" d="M581.11,144c3.77,8.79,7.41,17.59,11,26.38l-3.26,1.39C582,164.3,578,155.63,578.47,145Z"/><path class="cls-1" d="M245.9,348.49l7.67,2.76c-2.39-4.27-3.9-6.91-5.41-9.55,8.8-.25,11.06,2.52,10.81,15l-14.2-5.28Z"/><path class="cls-1" d="M175.67,199.48,188,218.83l-2.51,1.63c-6.41-4.77-12.56-9.8-13.19-18.59Z"/><path class="cls-1" d="M453.33,334l12.19,7.41-4.9,6.29-10.68-10.06Z"/><path class="cls-1" d="M207,265.44c2.89,3.9,5.91,6.79,5.53,7.41a22.89,22.89,0,0,1-7.29,7c-.5.25-5-3.77-4.77-4.77C201.3,272.23,203.81,269.84,207,265.44Z"/><path class="cls-1" d="M305.33,122.84c11.68-1.51,14.95,1.89,13.19,14.2Z"/><path class="cls-1" d="M427,322,440.64,309c3,11.68-5.9,11.93-10.93,15.83Z"/><path class="cls-1" d="M592.67,174.73l10.93-15.08,3.64,2.39q-5.28,7.54-10.55,15.08Z"/><path class="cls-1" d="M575.7,158.65c2.52,4.77,4.9,9.55,7.29,14.32l-1.38,1.63c-3.14-2.63-6.79-4.89-9.05-8.16-1.13-1.76.25-5.28.51-8Z"/><path class="cls-1" d="M593.54,243.46c-11.43-5.41-14.19-10.68-10.3-19.23C586.51,230.51,589.4,235.79,593.54,243.46Z"/><path class="cls-1" d="M351.56,150.86l9.05,15.58C352.69,165.56,350.31,161.79,351.56,150.86Z"/><path class="cls-1" d="M195.9,241.44c-2.89-2.51-5.78-4.9-8.55-7.66-.12-.25,1.64-2.26,2.39-3.52l9.3,7.67Z"/></g></svg>