<svg width="400" height="220" id="Layer_1" data-name="Layer 1" xmlns="http://www.w3.org/2000/svg" viewBox="0 0 818.96 460"><defs><style>.cls-1{fill:#fff;}.cls-2{fill:#010101;}</style></defs><g id="Layer_3" data-name="Layer 3"><polygon class="cls-1" points="766.75 90.09 786.55 78.6 797.55 69.4 804.15 67.1 804.15 78.6 797.55 101.59 777.75 106.18 760.15 106.18 766.75 90.09"/><path class="cls-2" d="M740.8,331.43v12.65c0,20.51-9.29,30.54-29.35,29-22.46-1.7-44.75-5.33-67.14-7.92-45.21-5.24-90.33-11.13-136.06-5.86-13.9,1.6-28.38-2.67-42.39-1.52-27.61,2.26-55,6.42-82.3,9.74-1.63,9.41-2.2,18.33-4.9,26.43-1.83,5.42-5.88,11.36-10.52,14s-11,1-16.57,1.25c0-5.27-1.4-10.91,0-15.69,2-6.7,5.92-12.77,9.05-19.11l-2.45-3.4c-5.41,4.71-10.36,10.25-16.34,14-13.44,8.33-27.26,16.08-41.31,23.19-2.2,1.11-6.6-2.37-8.23-3.05l42.13-20.67L332,378.57C310,372,297,391,281.38,402.73l-2.64-3.28c3.23-5.31,6.44-10.6,8-13.1L247.41,355.2l2.2-6.38c-50.59,2.81-101,5.17-151.48,8.68C76.13,359,72,357.11,71.51,334c-.35-17.6,2.6-35.31,2-52.89-.46-13.3,2.62-28.19-14.34-36.74-8.8-4.47-15.18-16-20.64-25.61-2.2-3.82-.35-12.31,2.62-16.16,1.63-2,9.83-.23,14.26,1.8s7.54,6.48,15.11,8.41c-6.82-32.48-13.57-65-20.66-97.4-.57-2.65-3.43-4.76-5.23-7.12-3.15-4.1-8.25-7.73-9-12.3-1.3-7.91,0-16.4.35-24.48L57.21,81.66C61.13,68,73.34,53.79,68.72,33.12,65.29,17.41,72.83,4,86.73-4.57c11,16.41,7.73,38.7-10.55,65.85,7.28-2.05,12.47-4.45,17.77-4.72,4.33-.19,8.73,2.11,13.13,3.3-2,4.66-2.77,11-6.18,13.58-5.83,4.47-13.37,6.45-20.06,9.82A26.34,26.34,0,0,0,69,93.69h94.68c-3.43-22.43-3.19-22.72,17.84-23.84a23.08,23.08,0,0,1,1.39-2.53c4.4-6.25,9-12.46,13.46-18.7,3.54,7.45,8.1,14.56,10.25,22.44,1.52,5.51-.22,12-.5,18.21H375.47c-1.81-21,5.74-36.77,23.09-45.4,5.24-2.63,15.27-2.92,18.48.49S420.41,58,418.38,64c-2.88,8.49-8.95,15.81-14.78,25.51,12.85,0,24.2-.45,35.49,0,39.48,1.91,78.93,4.1,118.39,6.3,36.89,2,71.56-8.76,104.6-18-2.42-9.7-4.53-18.23-6.6-26.66,8.21-1.92,16.79-6.39,24.51-5.12,9.2,1.52,11.79,10.25,6.45,22.06,13.35-3.42,25-3.34,31.81-18.66,4.53-10.25,13.44-19.27,22.28-26.16,4.05-3.14,13.33-1.36,18.94,1.25,2.44,1.15,3.08,10.25,2,15.23C758,56,745.7,65.15,730.1,65.73a185.7,185.7,0,0,0-20.5,2.68c-1.36,12.06-2.37,20.9-3.45,30.33,1.34,0,7.72,1.35,9.57-1,11.41-14.88,27.19-9.8,41.6-11.87,7.15-1,14-5.33,20.72-8.63,6.09-3,11.9-6.6,19.91-7.49l-29.22,31c28.32,7,24.71-21.41,37.2-32.81,2.6,26.78-14.69,48-37.06,45.62-.75,7-1.28,14.07-2.2,21-.93,6.48-2.34,12.9-.62,21.67,7.63-9.41,15.4-18.74,22.88-28.25,11-13.86,12-22,29.8-17.1-.64,19.66-1.47,34.86-18.05,35.41-19.45.55-39.6,16.53-44.68,36-4.18,16.4-7.57,33-11.42,49.89,1.38-.13,2.2-.15,2.77-.27,8.8-1.76,17.6-4.1,26.4-4.8,1.78-.12,6.36,8.66,5.7,9.39-6.6,7.24-13,17-21.34,19.55-13.79,4.22-18.68,11.42-17.45,25.44.6,6.77.11,13.64.11,21.82,6.16-3,11.31-7.18,16.77-7.73s10.62,2.83,16,4.47c-1.83,6.15-1.9,14.8-5.92,18.11C760.44,324,750.8,326.74,740.8,331.43Zm-53-201.73c-13.39-6.79-24.59-12.73-36-18.15-5.56-2.62-11.57-6-17.36-6-30.07.26-60.18,2.66-90.19,2-33.53-.62-67-4.72-100.51-5.27-53.72-.88-107.49-.31-161.23,0-29.61.2-59.2,1.27-88.78,2-41.38,1-82.76,2.05-127.4,3,3.39,21.8,4.78,41,9.46,59.12,11.13,43.22,15.73,86.68,11.29,131.36-1.43,14.35.88,29.26,1.36,40.72h72.71c14.05,0,28.13-.14,42.19-.21l73.19-.22c15.2,0,29.78,2.3,44.5-8,11.31-7.93,26.64-11.75,40.54-13,17.32-1.54,35,1.33,52.49,2.59a40,40,0,0,1,11.4,2.68c16.8,6.5,16.76,6.58,3.5,19.28-.51.49-.38,1.74-.84,4.1,98.27-16.84,195.28,0,295.09,6.15V306.87l-21.47-26.5,23.36-16.89c2-15.42,11.26-35.76-4.2-55.49-2.51-3.2,0-14.17,3.58-18,2.69-2.83,11,0,18,.53,3-13.66,6.45-28.6,9.55-43.63S764,116.41,747,103.43c-15.66,25.23-35.06,2.06-52.58,2.06ZM381.73,359c0-1.68,0-3.34.11-5l-86.47-4.22C323.61,384.56,352.87,369.14,381.73,359Zm45.74-27c-21.23-11.08-37.62-3.55-53.9,5.25,9.46.51,21.23-4.1,27.59,0,11.53,7.62,16.45,0,26.31-5.25ZM397,77.41l3.85,2.87,15.4-31.43c-23.06,2.67-31.37,12.73-32.61,33.38L399.38,62.9l3.83,3.38ZM731,56.37l1.85,2.71c4.4-2.77,10.38-4.51,13-8.57,4-6.15,5.63-14,8.27-21.2a179,179,0,0,0-19.4,8.61c-2.73,1.58-4.16,5.64-7,9.78l17.2-7.83,1.85,3.75ZM368.6,332.15v-4.88c-16.26-7.52-28.42,2.05-41.25,9.17.31,1.39.6,2.81.88,4.22ZM808,114.1l-18.18,21.32C808.22,139.81,803.28,134.73,808,114.1ZM46.48,209.67l-4.25,3.26q9.39,13,18.83,26l3.76-2.87C65.29,222.47,59.39,213.47,46.48,209.67Zm729.36,28.5c-16-8.2-23.85-4-31.08,16.06ZM275.26,350.73c-.28.82-.59,1.66-.9,2.5l12,20.51,14.3-3.63.22-4.1Zm402-278.44,4-2.73c-1.21-5.64-.88-13-4.21-16.4-2.33-2.42-9.65.49-14.74,1-.24,1.64-.48,3.3-.74,4.94ZM75.8,42.57l6.25.7,4.62-32.21-7.55-1Q77.47,26.34,75.8,42.57ZM742.58,314c1.23,2.2,2.46,4.41,3.71,6.61l23-11.67-3.15-6.77ZM375.07,382.25l-7.46-3.72q-5.81,11.88-11.59,23.79l6.33,3.57Z"/><path class="cls-1" d="M687.84,129.7l6.6-24.34c17.6,0,36.92,23.19,52.58-2,16.94,13,8.12,28.57,5.06,43.47s-6.6,30-9.55,43.64c-7.1-.43-15.4-3.36-18-.54-3.6,3.82-6.09,14.79-3.58,18,15.4,19.72,6.18,40.07,4.2,55.49L701.7,280.5,723.17,307V352.1c-99.8-6.15-196.82-23-295.08-6.15.46-2.44.33-3.69.83-4.1,13.2-12.69,13.2-12.77-3.5-19.28A39.93,39.93,0,0,0,414,319.89c-17.49-1.25-35.2-4.1-52.49-2.59-13.9,1.24-29.24,5.05-40.54,13-14.72,10.26-29.31,8-44.51,8q-36.6,0-73.19.23c-14.05,0-28.13.18-42.19.2H88.41c-.49-11.46-2.8-26.28-1.37-40.72,4.4-44.68-.15-88.17-11.28-131.36-4.69-18.19-6.07-37.32-9.46-59.11l127.39-3c29.59-.7,59.18-1.76,88.79-2,53.74-.37,107.5-.94,161.22,0,33.53.55,67,4.66,100.52,5.27,30,.55,60.16-1.85,90.19-2,5.79,0,11.79,3.38,17.36,6C663.25,117,674.45,122.91,687.84,129.7Z"/><path class="cls-1" d="M381.73,359c-28.86,10.11-58.12,25.53-86.36-9.22L381.84,354C381.8,355.75,381.78,357.35,381.73,359Z"/><path class="cls-1" d="M427.47,332c-9.86,5.25-14.78,12.87-26.4,5.27-6.36-4.23-18.13.49-27.58,0C389.85,328.46,406.26,320.89,427.47,332Z"/><path class="cls-1" d="M397,77.41l6.27-11.13L399.4,62.9,383.63,82.23c1.23-20.65,9.54-30.76,32.6-33.38l-15.4,31.43Z"/><path class="cls-1" d="M731,56.37l15.73-12.79-1.85-3.75-17.2,7.83c2.83-4.1,4.26-8.2,7-9.78a178.74,178.74,0,0,1,19.4-8.57c-2.64,7.15-4.4,15-8.27,21.2-2.57,4.1-8.51,5.8-13,8.57Z"/><path class="cls-1" d="M368.6,332.15l-40.39,8.51c-.28-1.41-.57-2.83-.88-4.22,12.83-7,25-16.69,41.25-9.17Z"/><path class="cls-1" d="M808,114.1c-4.75,20.63.19,25.71-18.18,21.32Z"/><path class="cls-1" d="M46.48,209.67c12.91,3.8,18.81,12.76,18.34,26.43L61.06,239q-9.44-13-18.83-26Z"/><path class="cls-1" d="M775.84,238.17l-31.08,16.06C751.93,234.2,759.74,229.87,775.84,238.17Z"/><path class="cls-1" d="M275.26,350.73,300.85,366l-.22,4.1-14.26,3.61-12-20.51C274.67,352.39,275,351.65,275.26,350.73Z"/><path class="cls-1" d="M677.29,72.29,661.45,59.16c.26-1.64.5-3.3.74-4.94,5.09-.53,12.41-3.44,14.74-1,3.33,3.4,3,10.72,4.21,16.4Z"/><path class="cls-1" d="M75.8,42.57q1.7-16.23,3.32-32.52l7.55,1L82.05,43.27Z"/><path class="cls-1" d="M742.58,314l23.51-11.83,3.15,6.77-23,11.67C745,318.45,743.81,316.24,742.58,314Z"/><path class="cls-1" d="M375.07,382.25l-12.8,23.64-6.34-3.57q5.79-11.91,11.59-23.79Z"/></g></svg>