<svg width="400" height="220" id="Layer_1" data-name="Layer 1" xmlns="http://www.w3.org/2000/svg" viewBox="0 0 818.96 520.08"><defs><style>.cls-1{fill:#fff;}.cls-2{fill:#010101;}</style></defs><g id="Layer_3" data-name="Layer 3"><polygon class="cls-1" points="607.69 186.54 618.81 180.1 624.99 174.93 628.69 173.64 628.69 180.1 624.99 193 613.87 195.58 603.99 195.58 607.69 186.54"/><path class="cls-2" d="M593.11,322.07v7.11c0,11.51-5.21,17.14-16.48,16.29-12.61-1-25.12-3-37.7-4.44-25.38-2.95-50.72-6.26-76.4-3.3-7.81.9-15.94-1.49-23.81-.85-15.5,1.27-30.88,3.6-46.21,5.47-.91,5.28-1.23,10.29-2.75,14.84-1,3-3.3,6.38-5.91,7.84s-6.17.56-9.3.71c0-3-.79-6.13,0-8.81,1.1-3.77,3.32-7.18,5.08-10.73l-1.37-1.92c-3,2.65-5.82,5.76-9.18,7.87-7.55,4.67-15.31,9-23.2,13-1.24.62-3.71-1.33-4.62-1.71l23.65-11.61-1.37-3.31c-12.35-3.67-19.65,7-28.41,13.57l-1.48-1.84c1.81-3,3.62-6,4.48-7.36l-22.07-17.49,1.23-3.58c-28.41,1.57-56.73,2.9-85.06,4.87-12.35.85-14.7-.22-14.95-13.2-.2-9.88,1.46-19.83,1.11-29.69-.26-7.48,1.47-15.84-8-20.64-4.94-2.51-8.52-9-11.59-14.38-1.23-2.14-.2-6.91,1.47-9.07.92-1.16,5.52-.13,8,1s4.23,3.64,8.48,4.72c-3.83-18.24-7.62-36.49-11.6-54.69-.32-1.49-1.92-2.68-2.94-4-1.76-2.3-4.63-4.34-5-6.91-.72-4.44,0-9.21.2-13.75l11.92,5.7c2.2-7.68,9.06-15.65,6.46-27.25-1.92-8.82,2.31-16.36,10.12-21.17,6.18,9.22,4.34,21.73-5.93,37,4.09-1.15,7-2.5,10-2.65,2.44-.1,4.91,1.18,7.38,1.85-1.11,2.62-1.56,6.16-3.47,7.63-3.28,2.51-7.51,3.62-11.27,5.51a14.78,14.78,0,0,0-6.67,5.86H269c-1.93-12.6-1.79-12.76,10-13.39a13,13,0,0,1,.77-1.42c2.47-3.51,5-7,7.56-10.5,2,4.18,4.55,8.18,5.76,12.6.85,3.1-.12,6.76-.28,10.22H388c-1-11.81,3.22-20.64,13-25.49,2.94-1.47,8.57-1.63,10.37.28s1.89,7.68.76,11c-1.62,4.76-5,8.87-8.31,14.32,7.22,0,13.59-.25,19.93,0,22.17,1.07,44.32,2.3,66.49,3.53,20.71,1.16,40.18-4.91,58.73-10.12-1.35-5.44-2.54-10.23-3.7-15,4.61-1.08,9.42-3.59,13.76-2.87,5.16.85,6.62,5.75,3.62,12.39,7.5-1.93,14.06-1.88,17.86-10.48C583,157.92,588,152.85,593,149c2.27-1.76,7.48-.76,10.63.71,1.37.64,1.73,5.75,1.14,8.55-2,9.14-8.87,14.3-17.63,14.63a103.22,103.22,0,0,0-11.51,1.5c-.77,6.77-1.34,11.74-1.94,17,.75,0,4.33.76,5.37-.57,6.41-8.36,15.27-5.51,23.36-6.67,4-.57,7.85-3,11.64-4.85,3.42-1.67,6.68-3.7,11.18-4.2L608.8,192.49c15.9,3.91,13.87-12,20.89-18.43,1.46,15-8.25,26.95-20.81,25.62-.42,3.94-.72,7.9-1.24,11.82-.52,3.64-1.31,7.24-.34,12.17,4.28-5.29,8.64-10.53,12.84-15.87,6.18-7.78,13.45-12.38,23.47-9.6-.35,11-7.56,19.57-16.87,19.88-10.92.31-22.24,9.28-25.09,20.23-2.35,9.22-4.25,18.52-6.41,28,.78-.07,1.23-.08,1.55-.15,5-1,9.89-2.3,14.83-2.69,1-.07,3.57,4.85,3.2,5.27-3.71,4.06-7.31,9.55-12,11-7.75,2.37-10.49,6.42-9.8,14.29.33,3.8.06,7.66.06,12.25,3.46-1.69,6.35-4,9.41-4.34s6,1.59,9,2.51c-1,3.46-1.06,8.32-3.32,10.17C604.15,317.92,598.73,319.44,593.11,322.07ZM563.38,208.79c-7.52-3.81-13.81-7.15-20.23-10.19-3.13-1.47-6.5-3.4-9.75-3.37-16.89.15-33.8,1.49-50.65,1.15-18.83-.35-37.61-2.65-56.44-3-30.17-.5-60.36-.17-90.54,0-16.62.11-33.24.71-49.85,1.15-23.24.54-46.48,1.15-71.54,1.7,1.9,12.24,2.68,23,5.31,33.2,6.25,24.27,8.83,48.67,6.34,73.76-.8,8.06.49,16.44.76,22.87h40.83c7.89,0,15.8-.08,23.69-.11l41.1-.13c8.54,0,16.73,1.29,25-4.5,6.35-4.46,15-6.6,22.77-7.29,9.72-.86,19.65.75,29.48,1.45A22.49,22.49,0,0,1,416,317c9.44,3.65,9.42,3.69,2,10.82-.29.28-.21,1-.47,2.31,55.18-9.46,109.66,0,165.7,3.45V308.28l-12-14.88,13.12-9.49c1.11-8.66,6.32-20.08-2.36-31.16-1.41-1.79,0-7.95,2-10.09,1.51-1.59,6.18,0,10.13.3,1.69-7.67,3.62-16.07,5.36-24.51s6.67-17.12-2.84-24.41c-8.8,14.16-19.69,1.15-29.52,1.15ZM391.49,337.57c0-.94,0-1.88.06-2.81L343,332.39C358.85,351.91,375.28,343.25,391.49,337.57Zm25.68-15.18c-11.92-6.21-21.13-2-30.27,2.95,5.31.29,11.92-2.3,15.49,0,6.48,4.29,9.24,0,14.78-2.95ZM400,179.43,402.2,181l8.64-17.65c-12.94,1.5-17.61,7.15-18.3,18.75l8.85-10.86,2.15,1.9Zm187.6-11.81,1,1.52c2.47-1.56,5.83-2.54,7.27-4.82,2.23-3.45,3.17-7.89,4.65-11.9a100.23,100.23,0,0,0-10.9,4.83c-1.53.89-2.33,3.17-3.93,5.49l9.66-4.39,1,2.1ZM384.11,322.48v-2.75c-9.13-4.22-16,1.16-23.16,5.15.17.78.33,1.58.49,2.37ZM637.61,200l-17,12C631,214.47,634.94,211.61,637.61,200ZM203.22,253.7l-2.38,1.83,10.57,14.62,2.12-1.61C213.79,260.88,210.48,255.83,203.22,253.7Zm409.57,16c-9-4.6-13.39-2.23-17.45,9ZM331.7,332.91c-.16.46-.34.93-.51,1.4l6.75,11.52,8-2,.13-2.3ZM557.45,176.55l2.22-1.53c-.68-3.17-.49-7.28-2.36-9.21-1.31-1.36-5.42.27-8.27.57-.14.92-.27,1.86-.42,2.78ZM219.69,159.87l3.51.39,2.59-18.09-4.23-.57Q220.63,150.75,219.69,159.87ZM594.11,312.31c.7,1.23,1.39,2.47,2.09,3.71l12.89-6.56-1.77-3.8Zm-206.37,38.3-4.18-2.09q-3.27,6.68-6.51,13.36l3.55,2Z"/><path class="cls-1" d="M563.38,208.79l3.71-13.67c9.88,0,20.72,13,29.52-1.15,9.51,7.29,4.56,16,2.84,24.41s-3.71,16.84-5.36,24.51c-4-.25-8.65-1.89-10.13-.3-2,2.14-3.42,8.3-2,10.1,8.64,11.07,3.47,22.49,2.36,31.15l-13.15,9.63,12.06,14.88v25.33c-56.05-3.46-110.52-12.91-165.71-3.46.26-1.37.19-2.07.47-2.3,7.42-7.13,7.42-7.17-2-10.82a22.63,22.63,0,0,0-6.4-1.51c-9.82-.7-19.76-2.3-29.47-1.45-7.81.69-16.42,2.83-22.77,7.29-8.27,5.75-16.46,4.49-25,4.5q-20.56,0-41.1.13c-7.89,0-15.8.1-23.69.11H226.77c-.27-6.44-1.57-14.76-.77-22.87,2.47-25.09-.08-49.51-6.33-73.76-2.63-10.21-3.41-21-5.32-33.2l71.54-1.7c16.62-.39,33.23-1,49.86-1.15,30.18-.21,60.37-.53,90.53,0,18.83.31,37.62,2.61,56.45,3,16.87.31,33.78-1,50.64-1.15,3.25,0,6.63,1.9,9.75,3.37C549.57,201.64,555.86,205,563.38,208.79Z"/><path class="cls-1" d="M391.49,337.57c-16.21,5.68-32.64,14.34-48.5-5.18l48.56,2.37C391.52,335.73,391.51,336.63,391.49,337.57Z"/><path class="cls-1" d="M417.17,322.39c-5.54,2.95-8.3,7.24-14.83,3-3.57-2.37-10.17.28-15.49,0C396,320.4,405.26,316.15,417.17,322.39Z"/><path class="cls-1" d="M400,179.43l3.52-6.25-2.14-1.9-8.86,10.86c.69-11.6,5.36-17.28,18.31-18.75L402.21,181Z"/><path class="cls-1" d="M587.63,167.62l8.83-7.19-1-2.11-9.66,4.4c1.6-2.3,2.4-4.6,3.93-5.49a100.11,100.11,0,0,1,10.9-4.81c-1.48,4-2.47,8.41-4.65,11.9-1.44,2.3-4.78,3.26-7.27,4.82Z"/><path class="cls-1" d="M384.11,322.48l-22.68,4.77c-.16-.79-.32-1.59-.49-2.37,7.2-3.95,14-9.37,23.16-5.15Z"/><path class="cls-1" d="M637.61,200c-2.67,11.58-6.63,14.44-17,12Z"/><path class="cls-1" d="M203.22,253.7c7.26,2.13,10.57,7.16,10.31,14.84l-2.12,1.61q-5.29-7.31-10.57-14.62Z"/><path class="cls-1" d="M612.79,269.7l-17.45,9C599.36,267.47,603.75,265,612.79,269.7Z"/><path class="cls-1" d="M331.7,332.91l14.36,8.58-.12,2.3-8,2-6.75-11.52C331.36,333.84,331.54,333.43,331.7,332.91Z"/><path class="cls-1" d="M557.45,176.55l-8.89-7.37.42-2.77c2.85-.3,7-1.94,8.27-.58,1.87,1.91,1.68,6,2.36,9.21Z"/><path class="cls-1" d="M219.69,159.87q1-9.12,1.87-18.27l4.23.57-2.59,18.09Z"/><path class="cls-1" d="M594.11,312.31l13.21-6.65,1.77,3.8L596.2,316C595.5,314.78,594.81,313.54,594.11,312.31Z"/><path class="cls-1" d="M387.74,350.61l-7.19,13.27-3.55-2q3.24-6.69,6.51-13.36Z"/></g></svg>