<?xml version="1.0" encoding="utf-8"?>
<!-- Generator: Adobe Illustrator 24.3.0, SVG Export Plug-In . SVG Version: 6.00 Build 0)  -->
<svg width="400" height="220" version="1.1" id="Layer_1"
	xmlns="http://www.w3.org/2000/svg"
	xmlns:xlink="http://www.w3.org/1999/xlink" x="0px" y="0px" viewBox="0 0 400 220" style="enable-background:new 0 0 400 220;" xml:space="preserve">
	<style type="text/css">
	.st0{fill:#FFFFFF;}
	</style>
	<g id="Layer_3">
		<path class="st0" d="M59,56.5c8.3-5.7,14.2-5.9,18-5c6.7,1.6,8.9,7,15,7c5.4,0,8.8-4.3,12-7c12.1-9.9,29.2-1.3,69,3
		c12.6,1.3,21.9,1.7,32,2c17.3,0.6,34.7,0.3,52-1h83l12,5h5v38l6,39v26l-1,13l-11,4h-85l-55-3l-62-1l-30-3H85l-16,3l-10-6V56.5z"/>
		<path d="M222.1,175.3c0.1-7.5,4.1-14.1,10.2-15.7c2.4-0.6,6.1-0.1,7.8,1.4c1.1,1,0.1,4.9-0.7,7.2c-0.6,1.8-2.6,3.1-4.4,5.1
		c8.5,0.7,16.5,1.5,24.5,1.9c25.4,1.5,50.9,3,76.3,4.2c4.8,0.1,9.5-0.5,14.1-1.7c9.2-2.2,11.2-5.1,10.4-15
		c-1.2-15.4-2.6-30.7-4.2-46.1c-0.1-1.5-1.5-3-2.5-4.2c-2.5-2.7-6.2-4.7-7.5-7.8c-1.5-3.6-1.1-8-1.5-12l10.3-0.5
		c0-6.5,0.2-14-0.1-21.5c-0.1-4.4-2-8.1-7-8.6c-15.8-1.5-31.6-3.7-47.4-4c-21.6-0.4-43.3,0.7-65,1.2c-13.4,0.3-26.9,1.1-40.3,1.3
		c-25.9,0.6-51.2-7.7-71.6-23.7c-12,8.2-17,9.2-18.8,3c-2.4-8.2,6.7-7.2,11.4-11.6c-10.5-2.4-17.7-8.2-21.6-17.7
		c8.3-2,16.8,3.4,20.5,10.6c2.5,5,7.1,9.5,11.8,12.8c5.4,3.8,12,5.9,19.9,9.6c-4.6-8.2-4.8-16.2-13.6-19.6
		c-3.5-1.4-6.1-6.6-7.7-10.6c-1.8-4.4,1.9-7.4,6.5-5.9c6.7,2.1,13.6,6.6,9.8,16c-0.3,0.8-0.4,1.7-0.1,2.5
		c3.7,6.2,7.2,12.6,11.5,18.4c1.7,2.3,5.5,3,8.5,4.6c-0.5-6.4-0.9-11.7-1.4-18.2c10.8,4.2,13.9,10.9,14.1,19.5
		c16.6,4.4,33.2,3.1,50,2.5c26.9-1,53.9,0.2,80.8,0.4c11.5,0.1,23.1,0,34.1,0c-4.1-8.4-3.7-11.3,1.9-13.9c0.7-5.3,1.3-10,1.9-14.6
		l3.2-0.8l12.5,19.5c0.5-0.5,1.1-0.9,1.7-1.2c2.7-1,5.5-1.9,8.3-2.8c0,3.6,0.1,7.3,0.1,10.9c0,0.2-0.2,0.4-0.4,0.5
		c-8.9,5.6-7.3,13.8-6.8,22.7c0.9,17,0.3,34.1,0.3,51.1l2,0.1c3.4-3.8,6.4-8,10.2-11.4c1.7-1.5,4.8-1.4,7.3-2
		c-0.1,2,0.2,4.2-0.2,6.2c-2.3,9.8-6.4,18.5-17,23.4c0.9,5.7,1.7,11.7,2.8,17.7c3,17.2-2.9,26.9-22.1,27.7
		c-14.2,0.6-28.5-1.4-42.8-2.2c-2.5-0.1-5,0-5.9,0c-2.2,3.3-3.5,7.3-5.6,7.9c-3,0.8-8.4,0-9.6-2c-5.3-9.1-13.6-6.7-21.2-7.4
		c-0.5,2.9-0.6,5.4-1.5,7.5c-3.1,7.3-9.7,8.6-13,1.6c-4.5-9.4-11.4-9.8-19.9-9.2c-12.1,0.7-24.1,1.7-36.1,1.2c-16-0.6-32-2.9-48-3.8
		c-21.4-1.1-42.9-1.5-64.3-2.2l-0.6,2.4c2.1,0.8,4.1,1.6,6.2,2.4c2.7,1,6.6,1.2,7.9,3.1c2.4,3.5,3.7,8,4.4,12.2
		c0.2,0.9-4.5,3.9-6.3,3.5c-4.1-1-8-3.3-11.8-5.5c-1-0.6-1-2.9-1-3.2c-3.9-0.3-8.7,0.6-9.9-1.1c-1.9-2.7-1.4-7.2-2.2-12.7
		c-5.8-2.9-7.9-8.8-6.1-17.9c1.4-7.1-0.4-14.9-0.8-22.8c-5.1,1.2-9.5,8.6-13.6,0.6c-3.8-7.3-2.4-10,7.4-15.1c-1.2-3.1-2-6.5-3.7-9.4
		c-1.1-1.7-2.7-3-4.7-3.6c-10.5-2.3-12.9-5.6-11-16.3c-8.8-5.9-14.9-13.1-11.3-25.7c12,4,15.6,13.7,18.4,25.6l6-20.8
		c7.8,6.7,7,15,4.5,20.3c-4.6,9.7,1.3,14.9,6.2,21.5c0.5-4,1.4-7.9,1.4-11.9c-0.2-12.5-0.6-25-1.3-37.6c-0.5-9.7,2.9-14.3,13.4-16.8
		c0.1-0.7,0-1.8,0.4-2.4c1.7-2.3,3.6-4.4,5.4-6.6c2.2,1.8,5.4,3.2,6.4,5.6c2.7,6.4,11.7,9.5,17.5,5.4c8.5-6.1,14-5.4,21.6,1.7
		c2.1,2,5.8,2.1,8.1,3.9c2.3,1.8,4.2,4.7,6.2,7.1c-3.4,1.2-6.9,3.2-10.4,3.3c-2.8-0.2-5.3-1.6-6.9-3.8c-4.1-7-10.3-5-15.2-5.1
		c-1.5,2.8-2.2,5.9-3.9,6.7s-5.8,0.2-6.8-1.2c-6.2-9.1-14.9-5.3-22.9-4.9c-1.8,0.1-3.5,0.8-6.2,1.4c0.5,5.9,1.4,11.7,1.5,17.5
		c0.2,12.3-0.1,24.7,0.1,37c0.3,16.2,0.9,32.4,1.4,48.6c0.2,6.2,4.3,8.3,9.6,8.1c8.8-0.2,17.8-0.1,26.5-1.5
		c15.9-2.5,31.1,0.2,46.6,2.9c9.4,1.5,18.9,2.4,28.4,2.6C191,175.6,206.3,175.3,222.1,175.3z M379.1,116.9l-3.4-2.2l-12.5,20.6
		c1.1,0.7,2.2,1.3,3.3,2L379.1,116.9z M347.2,29.6l-2,0.8c-0.4,8.5,2.7,15.4,8.3,21.3l2.6-1.1C353.1,43.6,350.2,36.6,347.2,29.6z
		 M80.4,192.4l-0.9,2.3l11.3,4.2c0.2-9.9-1.6-12.1-8.6-11.9c1.2,2.1,2.4,4.2,4.3,7.6L80.4,192.4z M24.5,73.8l-2.8,1.9
		c0.5,7.1,5.4,11,10.5,14.8l2-1.3L24.5,73.8z M245.5,180.9l-2.7,2.9l8.5,8l3.9-5L245.5,180.9z M49.4,126.3c-2.5,3.5-4.5,5.4-5.2,7.8
		c-0.3,0.9,3.4,4,3.8,3.8c2.3-1.5,4.3-3.4,5.8-5.6C54.1,131.7,51.7,129.4,49.4,126.3z M127.7,12.8l10.5,11.3
		C139.6,14.4,137,11.6,127.7,12.8z M224.5,171.3l2.2,2.2c4-3.1,11-3.3,8.7-12.6L224.5,171.3z M356.4,54.1l3.1,1.8
		c2.8-4,5.6-7.9,8.5-11.9l-2.8-1.9L356.4,54.1z M342.9,41.3l-2.1-0.1c-0.2,2.2-1.3,5-0.4,6.4c1.8,2.6,4.7,4.4,7.2,6.5l1.1-1.4
		C346.8,48.9,344.9,45.1,342.9,41.3z M357.1,108.8c-3.3-6.1-5.5-10.3-8.2-15.3C345.8,100.3,348,104.5,357.1,108.8L357.1,108.8z
		 M164.5,35.1c-0.9,8.8,0.9,11.7,7.2,12.4L164.5,35.1z M40.6,107.2l2.5-2.8l-7.4-6.1c-0.7,1-2.1,2.7-1.9,2.8
		C35.9,103.2,38.3,105.2,40.6,107.2z"/>
		<path class="st0" d="M379.1,116.9l-12.7,20.4c-1.1-0.7-2.2-1.4-3.3-2l12.5-20.6L379.1,116.9z"/>
		<path class="st0" d="M347.2,29.6c3,7,5.9,14,8.8,21l-2.6,1.1c-5.5-5.9-8.7-12.8-8.3-21.3L347.2,29.6z"/>
		<path class="st0" d="M80.4,192.4l6.1,2.2c-1.9-3.4-3.1-5.5-4.3-7.6c7-0.2,8.8,2,8.6,11.9l-11.3-4.2L80.4,192.4z"/>
		<path class="st0" d="M24.5,73.8l9.8,15.4l-2,1.3c-5.1-3.8-10-7.8-10.5-14.8L24.5,73.8z"/>
		<path class="st0" d="M245.5,180.9l9.7,5.9l-3.9,5l-8.5-8L245.5,180.9z"/>
		<path class="st0" d="M49.4,126.3c2.3,3.1,4.7,5.4,4.4,5.9c-1.5,2.3-3.5,4.2-5.8,5.6c-0.4,0.2-4-3-3.8-3.8
		C44.9,131.7,46.9,129.8,49.4,126.3z"/>
		<path class="st0" d="M127.7,12.8c9.3-1.2,11.9,1.5,10.5,11.3L127.7,12.8z"/>
		<path class="st0" d="M224.5,171.3l10.9-10.3c2.4,9.3-4.7,9.5-8.7,12.6L224.5,171.3z"/>
		<path class="st0" d="M356.4,54.1l8.7-12L368,44c-2.8,4-5.6,8-8.4,12L356.4,54.1z"/>
		<path class="st0" d="M342.9,41.3c2,3.8,3.9,7.6,5.8,11.4l-1.1,1.3c-2.5-2.1-5.4-3.9-7.2-6.5c-0.9-1.4,0.2-4.2,0.4-6.4L342.9,41.3z" />
		<path class="st0" d="M357.1,108.8c-9.1-4.3-11.3-8.5-8.2-15.3C351.5,98.5,353.8,102.7,357.1,108.8z"/>
		<path class="st0" d="M164.5,35.1l7.2,12.4C165.4,46.8,163.5,43.8,164.5,35.1z"/>
		<path class="st0" d="M40.6,107.2c-2.3-2-4.6-3.9-6.8-6.1c-0.1-0.2,1.3-1.8,1.9-2.8l7.4,6.1L40.6,107.2z"/>
	</g>
</svg>
