<svg width="400" height="220" id="Layer_1" data-name="Layer 1" xmlns="http://www.w3.org/2000/svg" viewBox="0 0 818.96 520.08"><defs><style>.cls-1{fill:#fff;}.cls-2{fill:#010101;}</style></defs><g id="Layer_3" data-name="Layer 3"><path class="cls-1" d="M186.87,200.93c-2.14-3.7-4.05-7-7.41-7.41a7.57,7.57,0,0,0-6.17,2.47c-3.79,4.09-1.71,11.31,0,17.28,1.63,5.66,4.75,16.55,11.11,17.28a7.51,7.51,0,0,0,6.17-2.47c.85-1,2-2.83,1.23-9.87C191.28,213.21,190.63,207.42,186.87,200.93Z"/><path class="cls-2" d="M318.73,361.19c-5.73,3.6-10.17,7.1-15.17,9.34s-10.36-2.68-9.41-8.12c1.23-7,8-13.57,15.4-13,6.74.48,10.51-2.21,14.25-7.11,2.47-3.23,6.17-5.53,9.54-8.46-33.63,1.23-65.85,2.53-98.08,3.48-14,.42-19.75-5.69-20.77-20-.94-13.67-1.34-27.48-3.56-41-3-18.33-12.83-33.14-28.1-43.72-9.23-6.42-16-23.55-11.85-33.49.9-2.13,3-3.7,5.71-5.56-5.53,13-3.09,23.9,7.4,34.55-2.18-7.08-4-12.83-5.75-18.58l2.75-1.06,6.53,14.81,2.95-1.13-8.64-26.51.88-1c2.34,3,5.94,5.69,6.77,9.07,2,8.23,2.47,16.84,4.11,25.2a19.61,19.61,0,0,0,3.95,7.53c2.47,3.28,5.43,6.17,9.76,11.11,1.09-23.57-1.31-45.2,11.26-62.94-3.35-4.56-7.49-9.47-10.7-14.93-1.32-2.25-.61-5.69-.8-8.64,2.82,0,5.66,0,8.5.15a12.28,12.28,0,0,1,2.86.74c1.51-5.26,2.47-10.82,4.74-15.79,1.48-3.28,4.7-7.9,7.29-8,2.87-.1,7.17,3.7,8.64,6.8a91.64,91.64,0,0,1,5.72,19.74c.8,4,.14,8.33.14,12.81l138.68-3.45c-2.91-7.95-6.08-16.56-9.24-25.17l1.84-1.33,18.36,14c4.66-5.13,9.27-11.43,16.67-5.41,4.94,4,3.06,9.5-6.17,19.44h60.15c-4.08-8.42-7-17.28,3.53-24.43,7.53,6.17,8.06,14.95,8,24.37a24.36,24.36,0,0,0,3.87.88c29.38,1.74,58.78,3.32,88.15,5.24,6.93.45,13.78,2.79,20.68,2.82,9.79,0,11.48,6.83,12.21,13.69,1.23,11.34,1.11,22.81,1.87,34.21,1.59,23.68,3.4,47.35,5.64,71,3.93-20.52-2.84-42.33,8.85-62,5.48,5.41,5.43,12.35,2.63,19.19-4.44,10.84-6.89,21.77-4.47,34.87,6.75-10.34-2.74-28.87,16.7-31.5,2.08,12-.19,20.37-8.85,29.44s-15,21.32-13.93,35.65c.69,9.56-4.22,12.28-13.87,11.05-7-.91-14.33.51-21.51.43-9-.11-18.64,1.23-26.94-1.46-22.68-7.22-45.43-6-68.24-3.15-19.74,2.47-38.88,0-58.45-2.28a406.52,406.52,0,0,0-69.59-2.17c-8.93.48-17.47,8.64-25.65,13,2.3,6.27,4.4,10.2,5,14.33.38,2.55-1.48,5.43-2.35,8.17-2.82-1.23-5.71-2.22-8.45-3.58C319.43,363.07,319.09,361.77,318.73,361.19ZM237.9,324.91c41.2,3.7,83.43-2.62,125.8-7.19,11.11-1.23,22.44-.34,33.59.56,16.13,1.31,32.16,4,48.29,5.2,30,2.16,60,3.6,89.94,5.39,5.84.34,11.65,1.23,17.49,1.41,11.69.23,23.45-.39,35.06.27,5.95.34,9.46-1.45,10.3-7a130.24,130.24,0,0,0,1.74-20.77c-.21-15.48-.61-31-1.78-46.42-1-13.57-3.22-27.09-4.94-40.72l-10.88,8.14-5.57-19.45c-6.35-.91-11.32-3.86-9.87-12.15-2.57-.69-4.94-1.79-7.41-1.94-21.19-1.23-42.38-2.47-63.59-3.43-18.26-.79-36.54-1.59-54.82-1.62-16.6,0-33.2,1.17-49.81,1.54-54,1.24-108,2.25-162,3.71-2.24,0-5.55,2.87-6.42,5.14-9.2,24.11-7.52,49-4.94,74,1.11,10.59,2.35,21.17,3.59,32.26l16.18-14.12Zm-2.26-143.8c8.93-12.34,6.24-28.8-5.12-39.18-7.69,13-8.2,20.83-1.56,25.72.63-2.6,1.24-5.14,1.88-7.68l2.8-.17C234.26,166.37,234.87,172.94,235.64,181.11Zm-9.26,0c2.64-8.94-1.52-13.16-15.15-15.92,1.29,9,6.8,13.46,15.15,16ZM230.23,321c6-7.05,8.31-14.81,3.1-24.17-4,5.4-11.43,8.72-6.59,17,1.62-2.56,3.1-4.88,4.58-7.2l2.05,1q-1.58,6.69-3.14,13.37Zm74,34.18a12.1,12.1,0,0,0-3.26,3.16c-1.06,1.9-1.23,4.26-1.87,6.42,2.24.07,4.93,1,6.65,0,3.58-1.93,6.62-4.8,9.87-7.28ZM589.83,196.86l-2.87-.23c-5.51,6.18-4.34,12.9-2.36,19.75l3.44.32ZM399.51,173.41c4.32-5.14,12.57-6.58,8.15-15.85-7.43,2.41-10,7.19-8.15,15.84Zm-17.64-16.27-1.77,1.24,12,16.45C395,164.41,385.79,162.7,381.87,157.14Zm87,17.37,4.41-.68q-1.59-7.41-3.2-14.81l-3.7.67ZM622.8,286l3.33,1.11q1.79-8.14,3.53-16.27l-3.27-.79Z"/><path class="cls-1" d="M237.9,324.91V287.58l-16.18,14.11c-1.24-11.1-2.47-21.67-3.59-32.26-2.61-24.94-4.29-49.85,4.93-74,.88-2.27,4.19-5.09,6.42-5.14,54-1.42,108-2.47,162-3.7,16.61-.37,33.21-1.56,49.81-1.55,18.27,0,36.55.83,54.82,1.62,21.21.93,42.4,2.17,63.59,3.43,2.47.15,4.85,1.23,7.4,1.94-1.44,8.29,3.52,11.24,9.88,12.15l5.56,19.45,10.89-8.14c1.7,13.68,3.88,27.15,4.93,40.72,1.18,15.43,1.57,30.94,1.78,46.42a129.21,129.21,0,0,1-1.74,20.78c-.84,5.57-4.34,7.41-10.29,7-11.65-.65-23.38,0-35.06-.27-5.84-.11-11.65-1.06-17.49-1.41-30-1.79-60-3.23-89.94-5.39-16.13-1.16-32.16-3.89-48.29-5.2-11.11-.9-22.54-1.75-33.59-.55C321.33,322.29,279.1,328.58,237.9,324.91Z"/><path class="cls-1" d="M235.64,181.11c-.77-8.17-1.38-14.74-2-21.31l-2.8.17c-.63,2.54-1.24,5.08-1.88,7.68-6.64-4.94-6.17-12.75,1.56-25.72C241.88,152.31,244.57,168.78,235.64,181.11Z"/><path class="cls-1" d="M226.38,181.15c-8.35-2.47-13.86-7-15.15-15.92C224.86,168,229,172.21,226.38,181.15Z"/><path class="cls-1" d="M230.23,321q1.58-6.66,3.14-13.34l-2.05-1-4.58,7.19c-4.84-8.28,2.64-11.6,6.59-17C238.54,306.19,236.26,314,230.23,321Z"/><path class="cls-1" d="M304.3,355.23l11.41,2.33c-3.26,2.47-6.31,5.36-9.88,7.28-1.71.93-4.4,0-6.65,0,.59-2.16.82-4.51,1.88-6.41A12,12,0,0,1,304.3,355.23Z"/><path class="cls-1" d="M589.83,196.86,588,216.66l-3.44-.28c-2-6.85-3.15-13.57,2.36-19.75Z"/><path class="cls-1" d="M399.51,173.4c-1.85-8.64.72-13.43,8.15-15.85C412.11,166.82,403.83,168.25,399.51,173.4Z"/><path class="cls-1" d="M381.87,157.14c3.92,5.56,13.16,7.27,10.25,17.74l-12-16.5Z"/><path class="cls-1" d="M468.88,174.51l-2.46-14.81,3.7-.67q1.59,7.41,3.19,14.81Z"/><path class="cls-1" d="M622.8,286l3.59-16,3.27.79q-1.75,8.15-3.53,16.27Z"/></g></svg>