<svg width="400" height="220" id="Layer_1" data-name="Layer 1" xmlns="http://www.w3.org/2000/svg" viewBox="0 0 818.96 460"><defs><style>.cls-1{fill:#fff;}.cls-2{fill:#010101;}</style></defs><g id="Layer_3" data-name="Layer 3"><path class="cls-1" d="M33.08,135.87c-3.8-6.59-7.21-12.44-13.18-13.19a13.4,13.4,0,0,0-11,4.4c-6.75,7.27-3.06,20.13,0,30.77,2.9,10.08,8.46,29.47,19.78,30.76a13.36,13.36,0,0,0,11-4.39c1.51-1.74,3.47-5,2.19-17.58C41,157.74,39.79,147.43,33.08,135.87Z"/><path class="cls-2" d="M257.91,421.26c-10.2,6.42-18.11,12.64-27,16.64s-18.46-4.77-16.77-14.46c2.2-12.42,14.17-24.18,27.43-23.19,12,.86,18.72-3.93,25.38-12.66,4.39-5.75,11-9.84,17-15.07-59.89,2.19-117.27,4.5-174.68,6.19-24.9.75-35.16-10.13-37-35.55-1.67-24.35-2.38-49-6.33-73-5.34-32.63-12.86-59-40-77.86C9.46,180.92-2.67,150.42,4.8,132.73c1.6-3.81,5.32-6.6,10.15-9.91-9.84,23.09-5.49,42.56,13.19,61.53-3.89-12.61-7.06-22.86-10.24-33.1l4.9-1.89,11.62,26.38,5.26-2L24.29,126.53l1.56-1.72C30,130.16,36.45,135,37.92,141c3.58,14.66,4.39,30,7.32,44.87a35.06,35.06,0,0,0,7,13.41c4.39,5.85,0,1,7.74,9.83C62,167.11,57.32,138.55,79.7,107c-6-8.11-13.34-16.86-19.06-26.59-2.35-4-1.08-10.14-1.43-15.39,5,0,10.09,0,15.15.27a23,23,0,0,1,5.09,1.31c2.69-9.36,4.4-19.25,8.44-28.1,2.64-5.85,8.38-14.07,13-14.22,5.1-.18,12.77,6.59,15.39,12.11A162.9,162.9,0,0,1,126.44,71.5c1.43,7.16.26,14.83.26,22.81l247-6.15C368.47,74,362.82,58.66,357.2,43.35L360.47,41l32.71,24.92c8.3-9.12,16.5-20.35,29.69-9.62,8.79,7.14,5.45,16.92-11,34.61H519c-7.27-15-12.52-30.77,6.29-43.49,13.4,11,14.35,26.61,14.28,43.38a44,44,0,0,0,6.88,1.58c52.33,3.1,104.68,5.92,157,9.32,12.35.82,24.55,5,36.84,5,17.42,0,20.44,12.15,21.73,24.37,2.2,20.2,2,40.61,3.34,60.92,2.84,42.17,6,84.32,10,126.48,7-36.55-5.06-75.39,15.75-110.37,9.76,9.62,9.67,22,4.69,34.17-7.92,19.3-12.27,38.77-8,62.09,12-18.42-4.88-51.41,29.73-56.09,3.72,21.32-.33,36.26-15.75,52.42s-26.66,38-24.82,63.49c1.24,17-7.51,21.87-24.7,19.67-12.52-1.61-25.51.92-38.3.77-16.07-.2-33.19,2.19-48-2.6-40.37-12.85-80.9-10.68-121.51-5.6-35.16,4.39-69.25,0-104.08-4.07a724.81,724.81,0,0,0-123.93-3.86c-15.91.85-31.12,15.38-45.69,23.12,4.11,11.16,7.85,18.15,8.94,25.51.69,4.55-2.63,9.67-4.17,14.55-5-2.2-10.18-4-15.06-6.37C259.16,424.6,258.54,422.3,257.91,421.26ZM114,356.65c73.38,6.59,148.58-4.66,224-12.79,19.78-2.2,40-.62,59.82,1,28.73,2.33,57.27,7.18,86,9.25,53.34,3.85,106.78,6.42,160.17,9.6,10.39.62,20.74,2.2,31.14,2.51,20.81.42,41.75-.68,62.43.48,10.6.62,16.84-2.57,18.33-12.48a229.2,229.2,0,0,0,3.1-37c-.37-27.56-1.08-55.18-3.16-82.65C754,210.39,750.08,186.33,747,162l-19.39,14.51-9.91-34.64c-11.32-1.62-20.15-6.88-17.58-21.64-4.57-1.24-8.79-3.19-13.19-3.45-37.73-2.2-75.47-4.4-113.24-6.11-32.53-1.41-65.08-2.84-97.63-2.88-29.55,0-59.11,2.08-88.69,2.74-96.15,2.2-192.33,4-288.47,6.6-4,0-9.87,5.12-11.43,9.16C71.12,169.25,74.11,213.62,78.71,258c2,18.86,4.17,37.69,6.39,57.45l28.81-25.14Zm-4-256.08c15.91-22,11.12-51.29-9.12-69.77-13.7,23.1-14.6,37.09-2.77,45.8,1.12-4.62,2.19-9.14,3.34-13.67l5-.31C107.47,74.33,108.57,86,109.94,100.57Zm-16.49,0c4.71-15.91-2.7-23.42-27-28.35,2.3,16,12.1,24,27,28.42Zm6.86,249.14c10.72-12.55,14.79-26.38,5.52-43-7,9.61-20.35,15.52-11.74,30.27,2.88-4.55,5.52-8.68,8.15-12.82l3.65,1.83-5.58,23.82Zm131.86,60.87a21.58,21.58,0,0,0-5.8,5.63c-1.89,3.38-2.2,7.58-3.34,11.43,4,.13,8.79,1.71,11.85,0,6.37-3.43,11.8-8.55,17.58-13Zm508.5-282-5.09-.4c-9.83,11-7.74,23-4.2,35.16l6.11.58ZM401.77,86.86c7.69-9.14,22.37-11.71,14.5-28.22-13.23,4.29-17.8,12.79-14.5,28.2Zm-31.43-29-3.14,2.19,21.4,29.3C393.79,70.84,377.33,67.78,370.34,57.9Zm155,30.92,7.85-1.21q-2.83-13.19-5.7-26.37l-6.59,1.18ZM799.4,287.33l5.93,2q3.17-14.51,6.29-29l-5.83-1.4Z"/><path class="cls-1" d="M114,356.65V290.17L85.15,315.31c-2.2-19.78-4.4-38.59-6.4-57.45-4.64-44.41-7.63-88.78,8.79-131.7,1.56-4,7.45-9.08,11.43-9.17,96.15-2.53,192.32-4.39,288.47-6.59,29.58-.66,59.14-2.77,88.7-2.75,32.55,0,65.09,1.47,97.62,2.88,37.78,1.65,75.51,3.87,113.25,6.11,4.39.26,8.63,2.2,13.18,3.45-2.57,14.77,6.27,20,17.58,21.65l9.92,34.63,19.38-14.5c3,24.37,6.92,48.35,8.79,72.52,2.09,27.47,2.79,55.1,3.17,82.66a230.68,230.68,0,0,1-3.1,37c-1.5,9.91-7.74,13.18-18.33,12.48-20.75-1.17-41.63,0-62.44-.48-10.39-.2-20.74-1.89-31.14-2.51-53.38-3.19-106.83-5.76-160.17-9.6-28.72-2.07-57.27-6.93-86-9.26-19.78-1.6-40.13-3.12-59.83-1C262.54,352,187.34,363.2,114,356.65Z"/><path class="cls-1" d="M109.94,100.57c-1.37-14.54-2.47-26.24-3.56-37.95l-5,.31c-1.12,4.53-2.2,9.05-3.34,13.67-11.83-8.79-11-22.7,2.77-45.8C121.06,49.28,125.85,78.62,109.94,100.57Z"/><path class="cls-1" d="M93.45,100.64c-14.88-4.4-24.68-12.39-27-28.35C90.75,77.21,98.16,84.73,93.45,100.64Z"/><path class="cls-1" d="M100.31,349.77q2.79-11.86,5.58-23.76l-3.65-1.82c-2.63,4.13-5.27,8.26-8.15,12.81-8.61-14.74,4.7-20.66,11.74-30.26C115.1,323.31,111,337.22,100.31,349.77Z"/><path class="cls-1" d="M232.22,410.65l20.3,4.15c-5.8,4.4-11.23,9.54-17.58,13-3.05,1.65-7.84,0-11.84,0,1.05-3.85,1.45-8,3.34-11.43A21.43,21.43,0,0,1,232.22,410.65Z"/><path class="cls-1" d="M740.67,128.62l-3.18,35.27-6.11-.51c-3.54-12.19-5.63-24.17,4.2-35.16Z"/><path class="cls-1" d="M401.77,86.84c-3.3-15.39,1.27-23.91,14.5-28.22C424.21,75.13,409.46,77.67,401.77,86.84Z"/><path class="cls-1" d="M370.34,57.9c7,9.88,23.45,12.94,18.26,31.58L367.2,60.09Z"/><path class="cls-1" d="M525.3,88.82l-4.39-26.38,6.59-1.18q2.84,13.18,5.69,26.37Z"/><path class="cls-1" d="M799.4,287.33l6.39-28.41,5.83,1.4q-3.12,14.51-6.29,29Z"/></g></svg>