<svg width="400" height="220" id="Layer_1" data-name="Layer 1" xmlns="http://www.w3.org/2000/svg" viewBox="0 0 818.96 520.08"><defs><style>.cls-1{fill:#010101;}.cls-2{fill:#fff;}</style></defs><g id="Layer_3" data-name="Layer 3"><path class="cls-1" d="M417.92,359.55c5.92,5.67,5.82,10.75-.33,17.25-4.63,4.91-11.44,5.8-14.89,1.36-4.6-6-4.85-11.44,1.45-17.08,2.06-1.86,4.77-3,7.11-4.56s4.71-3.38,7.19-5.15c-1.57-1.77-1.74-2-2-2.2-3.26-2.29-11.31-1.26-8.11-7.73,1.43-2.82,9.14-2.65,14.06-3.4,2.1-.33,4.37.43,6.57.69,0-1.18.09-2.36.14-3.54-12.56-.93-25.13-2.44-37.75-2.68-23.81-.43-47.62-.11-71.43-.11-19.36,0-38.74-.25-58.1.12-7.34.14-14.64,2-22,2.52-6.67.57-13.48,1.38-20.1.55-5.15-.64-8.21-4.73-8.68-10.62-.24-2.79-2.52-7.71-4-7.71-9.74,0-9.2-7.1-9.44-13.09-.3-7.42,5.22-8.55,10.76-8.06V243.5l-2.82,2c-5.47-4.63-12-8.54-16-14.23-2-2.84-.66-11.91,1.62-13,4.47-2.13,10.65-.63,16.63-.63,0-9.27.35-19.87-.11-30.42-.36-8,2.51-12.73,10.63-13.48,13.32-1.26,26.64-3.07,40-3.33,24.6-.5,49.23-.3,73.83.09,11.67.19,23.32,1.46,35.75,2.27-1.58-7.8-8.47-15.62.94-20.59,6.81-3.59,11.72,1.33,14.3,6.28l17.45-11.28c7.31,9.75,6.62,13.82-4.19,28.17,16.76,1.19,33.16,3.39,49.5,3,5.66-.14,11.15-6.78,15.89-9.9-1.68-6.28-3.87-11.09-3.9-15.84,0-3.77,1.66-9,4.41-10.78,1.95-1.26,6.93,2.05,9.73,3,1.26-5.81,1.8-13.27,4.59-19.77,1.5-3.52,7.28-8,10.27-7.47,5.38,1,5.19,6.56,4,12-1.63,7.53-3.77,13.55-11.83,17.16-3.19,1.42-4.19,7.75-6,11.48l15.67,2.69.49,4.2c-5.23,1.76-10.4,4.68-15.72,5-6,.33-9.8,2-11.75,9,7,.56,13.82,1.13,20.7,1.66,29.84,2.25,59.67,4.58,89.52,6.64a65,65,0,0,0,15.26-.91c6.84-1.15,12.39,1.25,14.44,7.22s2.21,12.91,2.51,19.44c.38,9.35.1,18.72.1,28.08l3.57.21c1-8.58,2.74-17.15,2.85-25.75.11-8.31,2.59-14.26,10.45-17.49,10.32,10.27,7.14,30.69-5.38,36.33-2.05.92-3.9,3.77-4.47,6.16-5.5,22-7.27,44.2-2.71,66.74a56.79,56.79,0,0,1,.36,18c-1.14,9.21-5.23,12.28-16.16,12.1-18-.28-36-1.42-54-1.72-19.47-.31-39,0-58.39,0,1.14,6.8,2.61,12.8,2.92,18.85a12.7,12.7,0,0,1-3.28,8.2c-5.93,6.6-11.81,5.79-14.22-2.51-2-7-1.8-14.6-2.6-22.28-30.62-1.7-34.67,1.47-45,21.88-4.26,2.3-9.09,4-12.57,7.16-1.48,1.35,0,5.84,0,8.91,2.73-.49,7.15-.16,7.87-1.63C415.77,369.74,416.56,364.51,417.92,359.55Zm183.44-32.3c-.93-11-2-20.11-2.4-29.22-1.36-28-2.43-56-3.77-84-.28-5.67.6-12.94-2.51-16.47-2.78-3.19-10.27-2.21-15.66-3.15-2.51-.44-5-1.46-7.54-1.58q-42.87-1.84-85.76-3.49c-19.73-.74-39.48-1.08-59.2-1.93C416,187.05,407.45,186,399,185c-22-2.51-44-7.08-66-7.32-34.76-.37-69.64,2.15-104.51,3.4-8.15.28-11.9,4.3-11.88,12.32V255l13.63-12.41c-.14,15.07,4.22,28.79-10.44,37.28a3.74,3.74,0,0,0-1.36,2.92c.78,14.73,1.67,29.45,2.51,43.81,77.6-4.49,153.73-3.61,230.65.85-2-4.46-4.86-8-4.83-11.56,0-4.26,2.52-8.5,4-12.73,3,2.06,7,3.49,8.73,6.28,3.31,5.48,5.28,11.74,7.87,17.82ZM471,363c10.54-4.38,11.5-10.73,3.77-25.25C466.72,341.56,465.11,352.39,471,363ZM205.71,240.12l2.18-1.7c0-3.4,1.16-7.43-.29-10.06-1.83-3.28-5.52-5.8-8.93-7.77-1.26-.69-5.64,1.25-5.6,1.88.21,3.38.41,7.44,2.36,9.88C198,235.64,202.26,237.61,205.71,240.12Zm409-8.23c10.62-8.79,8.33-17.95,5.75-27.51-7.56,7.51-6.11,16.61-5.75,27.53ZM391.45,172.28c7.35-5,10.78-10.62,8.67-19C388,158.32,386.72,161.08,391.45,172.28ZM218.2,274.38l3.26,1.25,6.66-22.45-2.83-.88C220.83,259,214.48,264.94,218.2,274.38ZM478.68,142.32c8.67-6,8.72-13.35,7.93-22.14C478.29,125.68,477.76,132.9,478.68,142.32ZM376,174.12l1.63-1.25c-.76-4-1.61-7.94-2.23-12a24.62,24.62,0,0,1,.12-4.54c-1.77.07-4-.5-5.21.34s-2.21,3.52-1.69,4.6C370.76,165.76,373.52,169.89,376,174.12ZM208.7,299.81l-3.37-.53c-1.37,2.62-4.28,5.69-3.71,7.78.77,2.71,4.31,4.63,6.66,6.89l2.41-1.37Zm245.15,7.7c-4.83,8.6-2.76,13.19,8.3,18.06-3-6.6-5.5-11.94-8.3-18.06Z"/><path class="cls-2" d="M601.36,327.25h-134c-2.59-6.09-4.56-12.34-7.86-17.82-1.71-2.83-5.76-4.26-8.74-6.28-1.44,4.23-3.95,8.47-4,12.73,0,3.53,2.84,7.09,4.82,11.55-76.92-4.46-153-5.34-230.64-.84-.85-14.36-1.75-29.08-2.51-43.81a3.8,3.8,0,0,1,1.35-2.93c14.67-8.48,10.31-22.15,10.44-37.28L216.55,255V193.39c0-8,3.77-12,11.89-12.32,34.86-1.25,69.74-3.77,104.58-3.39,22,.24,44,4.8,66,7.32,8.51,1,17,2.07,25.57,2.43,19.73.85,39.48,1.26,59.21,1.93q42.88,1.59,85.76,3.5c2.51.11,5,1.13,7.54,1.57,5.39.94,12.88,0,15.65,3.15,3.1,3.53,2.22,10.81,2.52,16.47,1.33,28,2.4,56,3.77,84C599.4,307.14,600.43,316.21,601.36,327.25Z"/><path class="cls-2" d="M471,363c-5.93-10.58-4.32-21.36,3.77-25.25C482.54,352.24,481.58,358.59,471,363Z"/><path class="cls-2" d="M205.71,240.12c-3.51-2.51-7.69-4.49-10.28-7.74-2-2.42-2.15-6.48-2.36-9.85,0-.57,4.41-2.51,5.6-1.88,3.41,2,7.1,4.5,8.93,7.78,1.45,2.59.29,6.62.29,10Z"/><path class="cls-2" d="M417.92,359.55c-1.36,5-2.15,10.19-4.36,14.72-.72,1.47-5.14,1.14-7.87,1.63-.1-3.07-1.52-7.54,0-8.91,3.43-3.18,8.26-4.87,12.57-7.16Z"/><path class="cls-2" d="M614.74,231.91c-.4-10.92-1.81-20,5.75-27.52C623.07,214,625.36,223.11,614.74,231.91Z"/><path class="cls-2" d="M391.45,172.28c-4.73-11.16-3.46-13.92,8.67-19C402.23,161.62,398.8,167.25,391.45,172.28Z"/><path class="cls-2" d="M218.2,274.38c-3.77-9.44,2.63-15.45,7.09-22.09l2.83.88-6.66,22.45Z"/><path class="cls-2" d="M478.68,142.32c-.88-9.42-.35-16.64,7.93-22.14C487.36,129,487.31,136.27,478.68,142.32Z"/><path class="cls-2" d="M376,174.12c-2.51-4.23-5.27-8.36-7.38-12.79-.52-1.08.54-3.77,1.69-4.6s3.44-.27,5.21-.33a24.48,24.48,0,0,0-.12,4.53c.62,4,1.47,8,2.23,11.95Z"/><path class="cls-2" d="M208.7,299.81l2,12.77L208.28,314c-2.35-2.26-5.89-4.18-6.66-6.89-.57-2.09,2.34-5.16,3.71-7.78Z"/><path class="cls-2" d="M453.85,307.51c2.8,6.12,5.27,11.46,8.3,18.06C451,320.7,449,316.11,453.85,307.51Z"/></g></svg>