<svg width="400" height="220" id="Layer_1" data-name="Layer 1" xmlns="http://www.w3.org/2000/svg" viewBox="0 0 818.96 460"><defs><style>.cls-1{fill:#010101;}.cls-2{fill:#fff;}</style></defs><g id="Layer_3" data-name="Layer 3"><path class="cls-1" d="M424,421.75c10.54,10.09,10.36,19.16-.58,30.72-8.25,8.75-20.38,10.34-26.51,2.42-8.19-10.58-8.64-20.36,2.57-30.41,3.67-3.31,8.5-5.32,12.66-8.12s8.4-6,12.8-9.17a50.33,50.33,0,0,0-3.49-3.92c-5.79-4.07-20.13-2.24-14.43-13.76,2.55-5,16.27-4.72,25-6.06,3.74-.58,7.78.76,11.7,1.23,0-2.1.16-4.21.25-6.31-22.38-1.66-44.75-4.34-67.24-4.77-42.4-.76-84.8-.2-127.2-.2-34.48,0-69-.45-103.46.23-13.07.24-26.07,3.46-39.16,4.47-11.88,1-24,2.46-35.8,1-9.17-1.15-14.61-8.42-15.46-18.91-.42-5-4.47-13.74-7-13.74-17.34,0-16.37-12.64-16.8-23.31-.54-13.21,9.29-15.22,19.15-14.35V215.1l-5,3.49c-9.75-8.26-21.41-15.21-28.5-25.35C14,188.18,16.35,172,20.4,170.1c8-3.78,19-1.11,29.63-1.11,0-16.52.62-35.38-.2-54.17-.65-14.23,4.47-22.67,18.92-24,23.72-2.24,47.44-5.46,71.22-5.93,43.81-.9,87.67-.54,131.48.16,20.78.33,41.53,2.59,63.65,4-2.79-13.9-15.08-27.82,1.68-36.68,12.13-6.4,20.88,2.38,25.46,11.19l31.08-20.09c13,17.36,11.79,24.61-7.45,50.16,29.85,2.13,59.05,6,88.14,5.28,10.09-.24,19.87-12.08,28.3-17.63-3-11.19-6.89-19.76-6.94-28.21,0-6.72,3-16,7.86-19.2,3.47-2.24,12.33,3.65,17.32,5.39,2.23-10.34,3.2-13.63,8.16-25.19C531.4,7.84,541.69-.19,547,.79c9.57,1.82,9.24,11.68,7.16,21.28-2.91,13.43-6.72,14.14-21.08,20.57-5.69,2.52-7.45,13.8-10.7,20.45l27.9,4.78.88,7.48c-9.31,3.13-18.53,8.34-28,9-10.79.58-17.46,3.62-20.92,16,12.41,1,24.61,2,36.85,3,53.14,4,106.25,8.17,159.42,11.84a116.22,116.22,0,0,0,27.18-1.64c12.17-2,22.06,2.24,25.71,12.87s3.94,23,4.48,34.61c.67,16.65.17,33.34.17,50l6.36.38c1.81-15.28,4.88-30.54,5.08-45.87.18-14.79,4.61-25.39,18.59-31.14,18.39,18.3,12.73,54.66-9.57,64.71-3.65,1.63-6.94,6.71-8,11-9.78,39.24-12.93,78.71-4.81,118.85a101.18,101.18,0,0,1,.63,32c-2,16.4-9.31,21.86-28.78,21.55-32.11-.49-64.17-2.53-96.21-3.07-34.68-.56-69.36,0-104,0,2,12.11,4.63,22.8,5.19,33.57a22.67,22.67,0,0,1-5.84,14.61c-10.56,11.74-21,10.31-25.33-4.48-3.58-12.44-3.2-26-4.63-39.67-54.53-3-61.74,2.62-80.17,39-7.59,4.09-16.18,7.09-22.38,12.75-2.64,2.42,0,10.4,0,15.86,4.86-.87,12.73-.27,14-2.88C420.22,439.9,421.63,430.59,424,421.75Zm326.68-57.52c-1.66-19.65-3.5-35.8-4.28-52-2.41-49.85-4.32-99.73-6.71-149.58-.49-10.09,1.07-23-4.48-29.33-4.94-5.68-18.28-3.94-27.87-5.62-4.48-.78-9-2.59-13.43-2.79q-76.34-3.31-152.73-6.22c-35.13-1.32-70.3-1.93-105.43-3.45-15.21-.65-30.38-2.57-45.53-4.32-39.18-4.47-78.31-12.62-117.56-13-61.91-.65-124,3.82-186.11,6.06-14.52.49-21.19,7.65-21.17,21.93V235.48l24.28-22.1c-.25,26.85,7.52,51.28-18.6,66.38A6.72,6.72,0,0,0,68.69,285c1.38,26.22,3,52.44,4.47,78,138.19-8,273.76-6.45,410.74,1.5-3.54-7.95-8.66-14.3-8.6-20.59,0-7.58,4.48-15.12,7.12-22.66,5.3,3.67,12.51,6.22,15.55,11.18,5.88,9.76,9.4,20.9,14,31.73ZM518.64,427.84c18.78-7.79,20.48-19.11,6.72-44.95C511,389.71,508.08,409,518.64,427.84ZM46.13,209.08l3.9-3c0-6,2.06-13.22-.52-17.9-3.26-5.84-9.84-10.34-15.91-13.85-2.23-1.23-10,2.24-10,3.36.39,6,.74,13.24,4.21,17.58C32.44,201.09,40,204.61,46.13,209.08Zm728.41-14.65c18.91-15.67,14.84-32,10.25-49-13.47,13.38-10.89,29.57-10.25,49ZM376.9,88.26c13.09-9,19.2-18.91,15.44-33.88C370.75,63.4,368.49,68.32,376.9,88.26ZM68.37,270.08l5.82,2.23,11.86-40-5-1.57C73.07,242.64,61.75,253.27,68.37,270.08ZM532.25,34.92c15.44-10.79,15.53-13.79,14.12-29.43C531.55,15.27,530.61,18.14,532.25,34.92ZM349.45,91.55l2.9-2.24c-1.36-7.09-2.86-14.14-4-21.28A44.53,44.53,0,0,1,348.6,60c-3.16.12-7.07-.89-9.29.61s-3.94,6.26-3,8.19C340.07,76.65,345,84,349.45,91.55Zm-298,223.81-6-.94c-2.44,4.68-7.63,10.14-6.6,13.85,1.37,4.83,7.68,8.26,11.86,12.29l4.3-2.44ZM488,329.08c-8.62,15.32-4.93,23.49,14.76,32.17C497.41,349.48,493,340,488,329.08Z"/><path class="cls-2" d="M750.72,364.23H512.11c-4.61-10.83-8.12-22-14-31.73-3-5-10.24-7.58-15.55-11.19-2.57,7.54-7,15.08-7.11,22.67,0,6.29,5.06,12.64,8.59,20.58-137-7.94-272.55-9.51-410.73-1.5-1.52-25.57-3.11-51.79-4.48-78a6.72,6.72,0,0,1,2.42-5.21c26.11-15.1,18.35-39.45,18.59-66.39l-24.39,22V125.85c0-14.28,6.72-21.44,21.17-21.93,62.09-2.24,124.2-6.71,186.25-6,39.24.42,78.31,8.55,117.55,13,15.15,1.75,30.32,3.67,45.54,4.32,35.13,1.52,70.3,2.24,105.43,3.45q76.38,2.82,152.73,6.22c4.47.2,8.95,2,13.42,2.79,9.6,1.68,22.94,0,27.88,5.62,5.5,6.29,3.94,19.24,4.48,29.33,2.37,49.86,4.27,99.73,6.71,149.58C747.22,328.43,749.06,344.58,750.72,364.23Z"/><path class="cls-2" d="M518.64,427.84c-10.56-18.84-7.69-38,6.72-44.95C539.12,408.73,537.42,420.05,518.64,427.84Z"/><path class="cls-2" d="M46.13,209.08c-6.24-4.47-13.69-8-18.3-13.78C24.34,191,24,183.75,23.62,177.76c0-1,7.86-4.48,10-3.36,6.07,3.51,12.65,8,15.91,13.85,2.58,4.61.52,11.79.52,17.9Z"/><path class="cls-2" d="M424,421.75c-2.41,8.84-3.82,18.15-7.76,26.23-1.28,2.61-9.15,2-14,2.88-.18-5.46-2.7-13.42,0-15.86,6.11-5.66,14.7-8.66,22.38-12.75Z"/><path class="cls-2" d="M774.54,194.45c-.71-19.45-3.22-35.64,10.25-49C789.38,162.48,793.45,178.79,774.54,194.45Z"/><path class="cls-2" d="M376.9,88.26c-8.41-19.87-6.15-24.79,15.44-33.88C396.1,69.28,390,79.31,376.9,88.26Z"/><path class="cls-2" d="M68.37,270.08c-6.71-16.81,4.7-27.5,12.65-39.34l5,1.57-11.86,40Z"/><path class="cls-2" d="M532.25,34.92c-1.57-16.78-.63-19.65,14.12-29.43C547.71,21.13,547.62,24.13,532.25,34.92Z"/><path class="cls-2" d="M349.45,91.55C345,84,340.07,76.65,336.31,68.77c-.94-1.92,1-6.71,3-8.19s6.13-.49,9.29-.6a44.42,44.42,0,0,0-.23,8.07c1.12,7.14,2.62,14.19,4,21.28Z"/><path class="cls-2" d="M51.46,315.36,55,338.12l-4.3,2.44c-4.18-4-10.49-7.46-11.86-12.29-1-3.71,4.16-9.17,6.6-13.85Z"/><path class="cls-2" d="M488,329.08c5,10.89,9.37,20.4,14.76,32.17C483,352.57,479.42,344.4,488,329.08Z"/></g></svg>