<svg width="1000" height="1000" viewBox="0 0 1000 1000" fill="none" xmlns="http://www.w3.org/2000/svg">
<path d="M830.897 222.633C834.746 227.252 845.138 236.106 853.221 241.88C865.923 251.504 872.081 253.044 893.635 253.044C919.039 253.429 950.215 257.663 954.064 261.898C955.219 263.052 954.064 270.751 951.37 278.835C945.212 297.698 923.657 317.716 905.952 320.795C878.239 325.415 875.545 327.339 894.02 330.804C919.808 335.423 930.201 340.813 937.899 353.131C943.672 363.14 943.672 364.68 938.668 364.68C935.589 364.68 932.125 363.14 930.971 361.215C929.431 359.29 923.657 362.755 917.499 368.914C907.107 379.308 905.182 379.693 881.704 377.383C862.074 375.843 856.3 376.613 852.066 381.618C849.372 385.082 842.829 387.777 838.21 387.777C826.278 387.777 822.429 403.56 830.512 419.343C833.976 426.657 835.516 436.281 833.976 445.134C832.822 452.834 834.361 468.232 837.44 479.395C841.674 494.408 842.059 502.877 838.98 510.576C835.901 518.66 837.44 528.284 845.523 555.231C856.685 593.726 857.07 597.19 851.682 593.726C849.372 592.186 847.833 597.575 847.833 606.814C847.833 618.363 846.293 621.827 842.444 620.287C838.98 619.133 836.671 622.212 834.746 630.296C832.437 642.615 820.505 656.088 791.253 679.185C782.4 686.114 770.468 701.897 762 717.68C754.302 731.923 747.759 741.162 747.759 738.083C746.989 723.839 732.748 761.18 732.363 777.348C732.363 787.356 730.439 796.595 728.129 798.135C725.05 800.06 724.665 807.759 726.59 822.387C728.129 834.32 729.284 848.949 729.284 855.493C728.899 876.665 735.827 891.678 746.989 894.373C780.475 901.687 792.022 909.001 788.173 920.165C784.709 928.249 741.216 932.483 726.205 925.939C720.046 923.244 713.888 919.395 712.348 917.085C710.424 914.775 709.269 915.545 709.269 919.395C709.269 929.403 718.122 937.487 735.057 942.107C753.533 946.726 762.77 958.275 755.072 967.514C752.763 970.593 747.374 972.903 743.525 972.903C739.291 972.903 732.748 974.828 728.899 977.522C719.662 982.912 676.938 974.058 668.47 964.819C663.082 958.66 660.002 946.726 659.617 927.479C659.233 922.474 656.923 919.01 653.459 919.01C650.38 919.01 647.686 916.315 647.686 913.235C647.686 910.156 644.221 907.461 639.603 907.461C635.369 907.461 632.675 906.306 633.444 904.382C634.599 902.842 633.059 882.054 630.75 857.802L626.516 813.918L614.969 830.856C606.117 843.944 603.422 846.254 602.268 840.865C601.498 836.63 598.804 834.705 595.339 835.86C592.645 837.015 581.098 838.94 570.321 840.48C548.382 843.559 544.148 848.564 553.386 862.807C557.619 869.351 559.159 876.28 557.235 883.979C554.925 894.373 556.08 896.298 564.933 900.532C572.63 903.997 574.555 907.461 573.785 914.775C572.63 924.399 571.476 924.784 552.231 924.014L531.446 923.244L543.378 934.023C553.001 943.262 554.54 946.726 551.846 955.965C549.152 965.974 547.227 967.129 531.831 967.899C522.594 967.899 484.489 969.438 447.154 971.363C369.019 974.443 359.012 973.288 359.012 959.43C359.012 952.501 355.933 948.651 349.39 945.956C342.461 943.262 339.767 939.412 339.767 932.483C339.767 920.165 334.764 920.165 326.296 932.868C317.443 946.726 290.5 957.505 258.939 960.2C228.917 962.894 152.707 955.195 130.383 947.496C122.3 944.417 114.602 942.877 112.677 944.032C109.213 946.341 86.5043 929.403 79.1912 919.01C74.5724 912.466 72.6479 911.696 69.9536 915.545C67.6443 919.395 65.7198 917.47 62.6406 909.386C59.5614 900.917 57.6369 899.377 54.9426 903.227C53.0181 906.691 50.7087 898.992 48.7843 882.054C46.4749 860.882 45.3202 857.417 42.6259 865.117C40.7014 871.661 40.3165 869.736 41.4712 858.187C43.3957 842.789 54.1728 815.843 63.4104 804.679C66.4896 800.83 70.3385 805.834 78.0365 822.387C100.745 870.506 132.307 890.138 191.966 894.758C216.215 896.683 221.988 895.528 245.082 885.519C259.324 878.975 270.87 872.431 270.486 870.891C270.101 868.966 272.41 866.271 275.489 864.732C278.568 862.807 282.417 857.033 283.572 851.643C285.112 846.254 291.27 833.935 297.428 824.312C303.587 814.688 309.745 801.215 311.285 794.285C316.673 769.264 336.303 737.698 366.71 706.901C397.502 674.566 402.506 666.097 383.261 678.415C374.408 683.804 375.178 682.265 387.495 669.176C395.962 660.707 401.736 652.238 400.196 651.084C399.041 649.544 412.898 636.455 431.373 621.827C467.553 592.956 476.021 585.257 466.784 589.491C463.704 591.031 467.938 586.797 476.406 579.483C504.888 556.001 571.476 489.789 580.328 476.316C584.947 469.001 600.343 449.754 614.584 433.971C628.441 418.188 639.988 403.175 639.988 400.48C639.988 397.785 644.221 389.317 649.61 381.618C660.002 366.219 661.542 360.83 654.999 360.83C652.689 360.83 654.229 356.211 658.463 350.051C672.319 330.804 681.557 308.862 684.251 289.614C686.56 273.061 690.024 266.902 709.654 245.73L732.363 221.478L760.076 218.013C808.188 212.624 822.814 213.394 830.897 222.633Z" fill="black"/>
</svg>
