<svg width="1000" height="1000" viewBox="0 0 1000 1000" fill="none" xmlns="http://www.w3.org/2000/svg">
<path d="M710.89 315.105C704.085 322.348 700.354 335.737 704.085 339.469C708.475 343.859 717.914 342.103 722.962 335.737C727.132 330.689 728.888 330.03 734.595 331.128C740.083 332.445 742.497 331.786 746.009 328.274C748.643 325.64 750.619 322.129 750.619 320.373C750.619 315.105 737.449 308.3 726.913 308.3C719.011 308.3 716.158 309.617 710.89 315.105Z" fill="black"/>
<path fill-rule="evenodd" clip-rule="evenodd" d="M503.244 311.592C527.389 275.814 568.435 246.621 607.506 236.963C624.188 233.012 650.308 233.012 665.673 236.963C672.477 238.719 686.086 244.426 695.744 249.475C710.45 257.157 716.157 258.913 728.23 259.571C741.4 260.23 746.448 259.132 776.958 248.377C817.346 234.11 825.467 232.573 839.076 236.085C853.563 239.597 865.416 251.889 875.952 273.839C887.805 298.642 891.975 320.592 890.439 351.102C889.122 381.393 883.634 399.172 869.147 420.683C851.807 446.584 833.369 459.754 777.178 486.532C757.203 495.971 740.083 503.873 738.985 504.312C737.888 504.531 738.766 523.408 740.741 548.65C747.107 621.304 744.692 646.546 724.498 730.394C715.938 765.514 704.524 828.51 704.524 840.143C704.524 856.386 709.133 865.825 725.815 883.604C750.838 910.383 757.204 927.723 752.155 955.16L751.617 958.389C749.978 960.021 747.173 962.07 740.128 963H725.49C721.449 962.172 720.198 960.429 720.253 958.654C725.356 952.319 727.923 937.895 725.596 928.162C724.718 924.87 716.596 914.553 707.817 905.334C697.281 894.798 689.379 884.043 685.428 875.702C679.721 863.41 679.282 860.776 679.501 835.095C679.501 809.414 680.599 803.487 695.086 738.516C715.718 647.863 719.889 616.475 716.816 582.233L715.279 566.21L659.966 565.991C629.783 565.991 614.417 566.041 599.498 563.484C583.386 560.722 567.796 554.918 534.633 542.724C514.878 535.261 503.684 532.188 503.025 533.944C502.586 535.261 498.196 542.504 493.367 550.187C481.295 568.844 453.418 596.062 413.47 628.328C374.838 659.277 352.01 682.763 334.451 709.103C295.819 767.051 281.771 844.094 295.38 921.797C299.506 945.466 299.335 951.949 294.018 958.673C291.848 960.273 288.742 961.963 284.802 963H267.771C260.093 961.611 251.008 959.008 243.849 956.699L243.578 956.477C223.385 939.795 192.216 907.968 178.388 889.969C164.779 871.971 142.39 829.827 139.317 816.657L138 810.292L148.536 811.609C160.608 812.926 168.73 820.608 183.217 844.753C200.118 873.288 223.824 896.774 250.822 911.919L263.333 918.943V878.556C263.333 812.487 271.235 775.172 295.16 726.443C318.208 679.251 345.206 648.302 407.324 597.598C440.249 570.6 467.247 543.163 474.051 529.993C476.466 525.164 479.319 514.628 480.417 506.946C481.295 498.824 483.709 491.142 485.685 488.727C489.197 484.776 488.977 484.118 481.514 476.216C468.564 462.388 464.613 450.754 464.613 427.926C464.832 392.148 479.978 346.054 503.244 311.592ZM642.084 959.321C641.643 960.853 642.017 962.276 644.115 963H669.709C671.285 962.266 673.483 960.861 675.275 958.651L675.55 957.355C676.428 953.624 677.087 942.429 677.087 932.771C677.087 917.626 676.209 913.895 671.16 904.895C665.014 894.579 653.82 884.482 641.748 878.336C634.065 874.385 629.895 865.386 629.895 853.313C629.895 849.143 633.846 830.266 638.455 811.389C648.772 770.343 655.137 732.589 653.161 724.468C649.869 711.079 631.651 712.835 627.919 726.882C620.017 755.856 601.36 848.923 601.36 858.581C601.36 878.775 606.847 886.896 632.748 904.676C646.138 913.895 651.845 923.333 651.845 936.283C651.845 945.539 647.88 954.315 642.084 959.321ZM689.159 277.351C677.745 271.644 663.039 265.937 656.673 264.62C640.431 261.327 627.041 261.766 608.823 266.595C556.363 280.204 523.438 315.763 501.488 381.393C488.538 420.902 489.197 436.048 504.561 453.608C512.024 461.949 513.122 462.607 520.804 461.071C525.414 460.193 532.438 456.461 536.828 452.73C545.608 444.828 575.679 408.391 591.044 387.1C601.36 372.393 604.653 369.759 612.554 369.759C618.481 369.759 625.505 377.661 625.505 384.246C625.505 391.49 577.874 458.876 563.167 472.484C552.412 482.362 544.291 486.752 529.584 490.483C523.877 492.02 520.146 494.215 520.146 495.971C520.146 504.751 558.338 524.725 591.483 533.724C610.798 538.773 617.822 539.431 649.65 539.651C678.623 539.87 688.501 538.992 698.598 535.919C712.206 531.749 712.865 530.651 708.694 515.945C705.182 503.214 696.622 495.751 682.135 492.898C665.453 489.386 642.406 472.484 641.309 463.046C639.553 448.12 656.674 447.023 685.647 459.973C703.866 468.314 707.378 468.972 724.279 469.192C746.887 469.411 765.325 464.802 789.031 453.169C836.881 429.902 863.88 390.612 863.441 344.517C863.221 333.542 862.124 322.128 860.807 318.616C858.392 313.129 857.295 312.69 846.759 312.69C832.052 312.69 820.419 309.397 815.59 304.13C813.395 301.715 810.322 294.252 808.347 287.009C806.591 279.985 804.396 273.619 803.518 272.741C802.859 271.863 789.909 275.156 774.763 279.985C749.96 288.106 745.79 288.984 728.669 288.106C711.548 287.448 708.036 286.57 689.159 277.351Z" fill="black"/>
<path fill-rule="evenodd" clip-rule="evenodd" d="M377.032 700.543C391.08 693.299 400.958 690.226 417.42 688.251C436.955 685.617 438.272 685.617 455.393 688.031C499.951 694.397 530.9 720.078 541.217 759.368C544.948 772.758 545.168 798.878 541.875 812.706C539.241 823.242 524.096 856.386 515.316 870.654L510.268 878.556L516.853 883.604C529.583 893.262 542.534 907.968 546.704 917.846C551.671 929.471 551.754 944.81 548.617 957.593C546.835 959.712 544.188 962.06 541.044 963.065H527.839C524.154 962.428 520.917 960.995 519.576 957.788C519.762 957.277 519.952 956.766 520.145 956.258C529.583 931.674 524.535 918.724 500.171 905.993C491.61 901.383 481.952 895.457 478.879 893.042C473.612 888.652 473.392 887.774 476.026 882.067C477.563 878.556 483.489 868.239 489.196 859.24C512.463 823.023 521.682 797.341 519.267 777.148C515.097 744.223 489.196 720.517 451.442 714.371C434.102 711.737 422.469 713.274 396.787 721.834C387.568 724.907 379.008 727.541 377.691 727.541C372.862 727.541 366.497 718.542 366.497 712.176C366.497 706.689 368.033 704.933 377.032 700.543Z" fill="black"/>
</svg>
