<svg width="1000" height="1000" viewBox="0 0 1000 1000" fill="none" xmlns="http://www.w3.org/2000/svg">
<path d="M736.907 373.989C721.993 375.325 674.803 381.335 671.909 382.448C671.909 382.671 670.573 385.787 669.238 389.349C664.786 402.704 648.759 423.851 636.739 432.309C630.284 437.207 620.267 446.333 614.479 453.011C599.788 470.151 575.08 489.516 568.179 489.516C565.063 489.516 559.721 491.965 556.159 494.859C547.701 501.982 541.245 505.098 535.235 505.098C532.564 505.098 524.773 508.437 517.873 512.221L505.407 519.567L458.662 521.125C433.064 522.015 393.442 523.351 370.737 524.019L329.557 525.577L347.81 506.879C367.843 486.4 370.737 481.058 370.737 465.699C370.737 447.891 360.498 437.429 336.235 430.306C312.64 423.628 285.928 432.087 262.778 454.124C239.851 475.716 231.392 502.204 238.515 529.584C242.3 544.72 242.3 545.165 237.625 563.418C234.731 574.548 226.718 593.914 217.369 611.944C198.893 648.227 197.558 652.679 194.887 686.068C193.774 700.314 191.325 717.454 189.322 723.91C187.541 730.142 185.092 743.053 183.757 752.179C179.528 780.226 173.072 795.808 159.049 810.944C152.148 818.513 145.47 826.749 144.135 829.197C141.241 834.54 144.358 894.863 148.142 906.883C149.255 910.445 151.258 919.348 152.594 926.472C155.71 942.498 158.826 944.279 185.092 944.279C207.352 944.502 210.246 943.166 215.811 932.036L219.15 925.581L208.688 920.907C202.9 918.458 195.109 916.232 191.103 916.01C184.647 915.787 183.757 914.897 181.754 906.438C177.969 891.524 178.86 881.507 184.87 870.823C187.986 865.703 191.325 861.251 192.438 861.251C193.329 861.251 195.554 869.932 197.558 880.839C202.9 910.222 203.791 911.78 216.256 913.784C230.279 915.787 251.203 911.78 259.439 905.325C263.001 902.431 265.895 899.537 265.895 898.647C266.117 895.753 252.316 889.743 242.077 888.185C232.505 886.85 232.06 886.404 229.166 876.833C222.266 854.573 229.612 840.995 270.124 801.15C283.257 788.24 299.952 769.987 307.075 760.415C314.198 750.844 321.321 742.385 322.657 741.94C324.215 741.272 353.375 745.056 387.654 749.953C421.712 754.85 462.892 759.525 478.696 760.193C500.288 761.083 514.979 763.086 536.126 768.206C564.173 774.884 564.618 775.107 568.625 783.12C576.638 798.924 586.432 867.706 583.316 886.182C582.203 892.637 582.648 894.863 585.097 895.976C586.877 896.644 592.22 907.106 596.894 919.348C602.237 933.817 606.911 942.498 609.805 944.057C618.263 948.731 675.693 946.283 675.693 941.385C675.693 940.495 672.577 935.598 669.015 930.701L662.337 921.352H672.132C677.919 921.352 682.816 920.016 684.597 918.235C685.932 916.455 688.604 915.564 690.384 916.232C695.727 918.236 693.723 913.561 686.378 906.438C674.58 895.753 668.793 892.637 662.56 893.75C656.995 894.863 656.327 894.195 651.653 879.726C647.869 867.484 647.201 862.809 648.982 856.799C650.317 852.57 651.208 838.991 651.208 826.526C651.208 811.835 653.211 793.582 656.772 774.439C659.889 758.189 662.337 742.608 662.337 739.936C662.337 734.817 699.733 694.304 704.408 694.304C708.86 694.304 715.538 676.052 717.096 659.802C717.764 651.121 720.88 634.871 723.996 623.296C727.78 609.05 729.116 599.479 728.226 593.691C727.558 589.017 728.003 580.781 729.339 575.438L731.787 565.644L748.704 562.973C758.276 561.415 776.084 560.079 788.326 559.857C806.579 559.634 811.922 558.966 815.26 555.627C817.709 553.624 823.051 551.843 827.281 551.843C837.965 551.843 852.879 539.155 855.995 527.358C857.331 522.683 857.999 508.882 857.331 496.862C856.441 475.716 856.218 474.825 849.54 469.26C844.643 465.254 842.64 461.692 842.64 457.018C842.64 444.997 820.158 396.472 811.699 390.239C805.466 385.564 774.748 374.212 765.844 373.322C760.947 372.654 748.037 373.099 736.907 373.989ZM326.663 479.5C328.667 484.174 327.554 487.958 318.427 507.324C306.407 532.032 301.955 534.926 293.051 523.796C282.812 510.663 284.37 498.198 298.171 483.952C305.962 475.716 309.078 473.935 315.979 473.935C322.434 473.935 324.66 475.048 326.663 479.5Z" fill="black"/>
</svg>
