<svg width="15" height="16" viewBox="0 0 15 16" fill="none" xmlns="http://www.w3.org/2000/svg">
<path fill-rule="evenodd" clip-rule="evenodd" d="M14.127 4.3355C13.8604 4.3355 13.6045 4.307 13.3584 4.2536C12.5693 4.08634 11.876 3.65918 11.3633 3.07184C11.3633 3.07135 11.3613 3.07086 11.3613 3.07037C10.7998 2.42631 10.4629 1.58684 10.4629 0.669189H9.75586H7.82812L7.82422 11.2302C7.78223 12.412 6.80762 13.3624 5.61621 13.3624C4.87598 13.3624 4.22559 12.9958 3.82031 12.4405L3.82324 12.4369C3.56055 12.0738 3.4043 11.6289 3.4043 11.1448C3.4043 9.92389 4.39648 8.93077 5.61621 8.93077C5.84375 8.93077 6.06445 8.96992 6.27051 9.034V6.34305C6.18066 6.33104 6.08984 6.32093 5.99805 6.31324C5.87305 6.30269 5.74609 6.29672 5.61621 6.29672L5.50195 6.30029L5.49902 6.30387C2.88086 6.36082 0.768555 8.51076 0.768555 11.1484C0.768555 12.4227 1.2627 13.5831 2.07031 14.4516C2.95605 15.402 4.21875 16 5.61621 16C8.28711 16 10.4639 13.8251 10.4639 11.1484V5.79131C11.4951 6.53171 12.7607 6.9695 14.127 6.9695V4.3355Z" fill="black"/>
</svg>
