<svg id="Layer_1" data-name="Layer 1" xmlns="http://www.w3.org/2000/svg" viewBox="0 0 818.96 520.08"><defs><style>.cls-1{fill:#fff;}</style></defs><path d="M213.69,186.43c7.66-.92,14.25-2.18,20.88-2.4,17.06-.55,34.14-.66,51.21-.91,29-.43,58-1.29,87-1.12,35.31.21,70.61,1.56,105.92,1.93,28.2.3,56.4-.32,84.6-.13,11.09.08,22.17,1.17,33.23,2,6.36.46,10.2,3.44,10.71,9.52.38,4.64,1.53,9.26,1.5,13.88-.06,9.7-.82,19.39-1,29.08q-.63,30.13-.94,60.26c-.08,7.55.53,15.1.24,22.63-.38,9.72-1.89,11-12.6,11.31q-51.76,1.29-103.54,2.31c-59.54,1.19-119.08,2.59-178.63,3.3-24.18.29-48.38-1-72.57-1.55-5.95-.13-11.91.06-17.86-.08-7.88-.18-10.12-1.54-10.67-8.69-.8-10.37-.9-20.81-.8-31.22q.39-42.49,1.27-85C211.74,203.67,212.87,195.82,213.69,186.43Zm12.55,137.86c12.29.61,24.09,1.47,35.9,1.72q47.61,1,95.23,1.61c20.23.25,40.52.94,60.71.09,28.11-1.18,56.12-4.3,84.23-5.34,25.76-.94,51.59-.19,77.39-.25,4.57,0,9.14-.32,14-.5.73-42.31,1.44-83.36,2.14-123.39-33.8.6-66.71,2.18-99.56,1.53-40.43-.8-80.8-4.16-121.24-5.1-44.82-1-89.69-.66-134.54-.75-4.55,0-9.09.93-14.67,1.54C226.87,238.41,220.52,280.24,226.24,324.29Z"/><path class="cls-1" d="M226.24,324.29c-5.72-44.05.63-85.88-.38-128.84,5.58-.61,10.12-1.55,14.67-1.54,44.85.09,89.72-.3,134.54.75,40.44.94,80.81,4.3,121.24,5.1,32.85.65,65.76-.93,99.56-1.53-.7,40-1.41,81.08-2.14,123.39-4.89.18-9.46.49-14,.5-25.8.06-51.63-.69-77.39.25-28.11,1-56.12,4.16-84.23,5.34-20.19.85-40.48.16-60.71-.09Q309.75,327,262.14,326C250.33,325.76,238.53,324.9,226.24,324.29Z"/></svg>