<svg id="Layer_1" data-name="Layer 1" xmlns="http://www.w3.org/2000/svg" viewBox="0 0 818.96 520.08"><defs><style>.cls-1{fill:#fff;}</style></defs><path d="M219,190c4.49-.58,9.07-1.52,13.68-1.72,18.26-.79,36.53-1.35,54.79-2,48-1.69,96-4.14,144-4.79,29.73-.41,59.51,1.75,89.25,3,19,.82,38,2.07,57.06,3.33a110,110,0,0,1,17.6,2.3c8.7,2,13.29,7.87,13.31,15.8.08,28.39-.15,56.78-.44,85.17-.1,9.7-.72,19.39-1.16,29.09-.15,3.54-.46,7.07-.7,10.63-9.25,4.45-18.81,5-28.24,5.12-38.14.6-76.29.83-114.44,1.34-23.41.3-46.84,1.59-70.24,1.15-55.19-1-110.37-2.81-165.56-4.36-11.37-.32-14.31-2.08-15.4-12.41-1.47-13.92-1.61-28-2.06-41.95a357.58,357.58,0,0,1,7-84.74C217.78,193.67,218.3,192.34,219,190ZM592.57,323.51c5.28-41,2.26-81.69,3-122.11-56.8-7.32-347.85-7.5-367.76-3.28-1.88,41.42-3.83,82.91-2.44,125.19,15,.88,29.13,2.43,43.28,2.39,38.89-.08,77.78-.77,116.66-1.34,27.39-.4,54.77-1.47,82.15-1.39,40.07.11,80.14,1,120.21,1.5C588.81,324.49,589.94,324,592.57,323.51Z"/><path class="cls-1" d="M592.57,323.51c-2.63.53-3.76,1-4.89,1-40.07-.51-80.14-1.39-120.21-1.5-27.38-.08-54.76,1-82.15,1.39-38.88.57-77.77,1.26-116.66,1.34-14.15,0-28.3-1.51-43.28-2.39-1.39-42.28.56-83.77,2.44-125.19,19.91-4.22,311-4,367.76,3.28C594.83,241.82,597.85,282.47,592.57,323.51Z"/></svg>