<svg id="Layer_1" data-name="Layer 1" xmlns="http://www.w3.org/2000/svg" viewBox="0 0 818.96 520.08"><defs><style>.cls-1{fill:#fff;}</style></defs><path d="M338.8,181.33c35.79,0,69.17-.39,102.54.16,18.62.3,37.21,2.27,55.83,3.28,10.3.56,20.64.66,30.95,1q30.36,1.08,60.72,2.25a64,64,0,0,1,8.26,1c8.92,1.53,11.16,3.86,11.39,12.31.35,12.93.53,25.87.77,38.8.36,19.76.87,39.52,1,59.28A183.52,183.52,0,0,1,609,322c-1,8.57-3.38,11.05-12.36,11.91-19.32,1.86-38.68,4-58.07,4.49-29.78.75-59.6.49-89.39.11-46.46-.59-92.92-1.34-139.35-2.61-28.56-.78-57.08-2.64-85.62-4.06-8.55-.42-10.11-1.59-11.11-9.58s-1.63-15.75-2-23.65c-1-21.17-2.24-42.35-2.4-63.53-.1-14.34,1.64-28.67,2.23-43,.23-5.46,3.42-7.69,8.78-8.3,2-.22,4-.21,6-.25ZM227,320c41.79,5.88,335.87,7.55,366.25,2.36V201.56c-124-9.9-246.75-9-371.32-4.05,1.73,20.63,4.06,40.58,4.88,60.58C227.69,278.53,227,299,227,320Z"/><path class="cls-1" d="M227,320c0-21,.65-41.5-.19-61.94-.82-20-3.15-39.95-4.88-60.58,124.57-4.93,247.36-5.85,371.32,4.05V322.39C562.91,327.58,268.83,325.91,227,320Z"/></svg>