<svg id="Layer_1" data-name="Layer 1" xmlns="http://www.w3.org/2000/svg" viewBox="0 0 818.96 520.08"><defs><style>.cls-1{fill:#fff;}</style></defs><path d="M212.55,335.21c-.73-5.36-2-10.3-2-15.25-.16-42-.09-84-.09-126.59,9.27-4.82,19.92-4.21,29.9-4.81,46.32-2.76,92.67-5.49,139.06-6.89,28.13-.85,56.36.64,84.54,1.3q41.68,1,83.36,2.4,23.79.84,47.54,2.5c10.23.7,13.77,4.13,13.61,12.78-.75,41.32-1.52,82.63-2.57,123.94-.3,11.7-2.12,13.18-15.54,13.55-15.48.43-31,.74-46.47.35-46-1.18-92.07-3.34-138.12-3.95-36.53-.48-73.08.82-109.63,1.22-26.22.29-52.44.4-78.67.54C216.37,336.31,215.24,335.82,212.55,335.21Zm383.29-136.8c-26.24-.8-50-1.42-73.78-2.26-36.5-1.29-73-4.25-109.47-3.77-60.31.8-120.58,3.75-180.86,5.88-3,.1-6,1-9.55,1.62.42,42.16-1.06,83.65,1.21,126.37,62.16-.71,123.23-2.22,184.29-1.88,61.34.35,122.66,2.54,184.57,3.94.76-16.57,1.35-31.63,2.17-46.67.66-11.82,1.65-23.62,2.4-35.43.39-6.08,1-12.19.79-18.27C597.33,218.36,596.49,208.79,595.84,198.41Z"/><path class="cls-1" d="M595.84,198.41c.65,10.38,1.49,20,1.77,29.53.18,6.08-.4,12.19-.79,18.27-.75,11.81-1.74,23.61-2.4,35.43-.82,15-1.41,30.1-2.17,46.67-61.91-1.4-123.23-3.59-184.57-3.94-61.06-.34-122.13,1.17-184.29,1.88-2.27-42.72-.79-84.21-1.21-126.37,3.52-.62,6.52-1.52,9.55-1.62,60.28-2.13,120.55-5.08,180.86-5.88,36.46-.48,73,2.48,109.47,3.77C545.82,197,569.6,197.61,595.84,198.41Z"/></svg>