<svg id="Layer_1" data-name="Layer 1" xmlns="http://www.w3.org/2000/svg" viewBox="0 0 818.96 520.08"><defs><style>.cls-1{fill:#fff;}</style></defs><path d="M481.15,336.56q-46.45,0-92.91,0c-46-.06-92-.1-138-.38a209.43,209.43,0,0,1-24.86-2c-8.62-1.08-11.14-3.42-11.59-11.14-1.37-23.64-2.9-47.28-3.4-70.94-.39-18.27.51-36.58,1.15-54.87.43-12.12,1.92-13.67,15.43-13.69,51.6-.11,103.2.09,154.8.19,39.29.07,78.58-.09,117.86.29,32.53.32,65.06,1.24,97.58,2,7.74.18,9.17,1.21,9.5,8.08.5,10.4.38,20.83.58,31.25.49,25.84,1.21,51.69,1.41,77.54a135.09,135.09,0,0,1-2.07,23.55c-1.25,7.32-2.75,8.09-11.15,8.32-13.09.36-26.19.69-39.28.75-25,.12-50,0-75,0ZM225.81,324.45c10.06,0,18.75-.15,27.42,0,10.33.22,20.64,1,31,1,21.85.09,43.7.19,65.54-.31,20.62-.48,41.24-2.7,61.83-2.44,48.46.6,96.89,2.31,145.34,3.36,12.57.27,25.16-.25,37.83-.41.36-4.17.8-7,.82-9.87.08-14,0-27.93.09-41.9.22-21.92.61-43.84.84-65.77,0-3.51-.31-7-.55-11.89l-372.57-2.94a41.12,41.12,0,0,0-1.1,5.69c-2.72,39.54-.79,79,1.29,118.53C223.69,320.19,225.23,322.76,225.81,324.45Z"/><path class="cls-1" d="M225.81,324.45c-.58-1.69-2.12-4.26-2.26-6.9-2.08-39.49-4-79-1.29-118.53a41.12,41.12,0,0,1,1.1-5.69l372.57,2.94c.24,4.87.59,8.38.55,11.89-.23,21.93-.62,43.85-.84,65.77-.13,14,0,27.94-.09,41.9,0,2.85-.46,5.7-.82,9.87-12.67.16-25.26.68-37.83.41-48.45-1.05-96.88-2.76-145.34-3.36-20.59-.26-41.21,2-61.83,2.44-21.84.5-43.69.4-65.54.31-10.32,0-20.63-.8-31-1C244.56,324.3,235.87,324.45,225.81,324.45Z"/></svg>