<svg id="Layer_1" data-name="Layer 1" xmlns="http://www.w3.org/2000/svg" viewBox="0 0 818.96 520.08"><defs><style>.cls-1{fill:#fff;}</style></defs><path d="M461.52,336.26c-25,0-50.07-.43-75.09.09-51.23,1-102.45,2.66-153.67,3.93-15.57.38-20-2.46-22.84-16.12a128.91,128.91,0,0,1-2.87-26.74c.1-30.89.69-61.79,1.39-92.69.37-16.12,1.43-16.58,19.17-17.47,45.18-2.28,90.33-5.55,135.54-7,34.1-1.08,68.29-.21,102.43.32,40.51.62,81,1.92,121.53,2.68,24,.45,25.35,1.08,24.69,22.44-.71,23-2.52,45.93-3.72,68.89-.75,14.34-1.16,28.69-2,43a28.56,28.56,0,0,1-2.16,9.47c-2.4,5.63-6.44,9.93-13.78,10.28-5.94.29-11.89.71-17.83.6q-55.41-1-110.82-2.2Zm-236.33-8.67c3.89,0,5.46.08,7,0,40-2.12,80-5.73,120.11-6.09,73.91-.67,147.84.56,221.77,1,5.42,0,10.83,0,17,0,1-8,2.77-15.5,2.55-22.93-.89-29.54,1.34-58.92,4.27-88.3.43-4.34-1-8.84-1.53-13.21-4-.35-6.31-.67-8.66-.74-40.92-1.22-81.82-2.58-122.74-3.56-28.19-.67-56.43-1.73-84.6-1-49.23,1.27-98.43,3.78-147.65,5.8-2.28.09-4.54.49-7.7.84C222.85,242.2,223.87,284.42,225.19,327.59Z"/><path class="cls-1" d="M225.19,327.59c-1.32-43.17-2.34-85.39-.13-128.2,3.16-.35,5.42-.75,7.7-.84,49.22-2,98.42-4.53,147.65-5.8,28.17-.73,56.41.33,84.6,1,40.92,1,81.82,2.34,122.74,3.56,2.35.07,4.7.39,8.66.74.55,4.37,2,8.87,1.53,13.21-2.93,29.38-5.16,58.76-4.27,88.3.22,7.43-1.6,14.9-2.55,22.93-6.2,0-11.61,0-17,0-73.93-.43-147.86-1.66-221.77-1-40.06.36-80.08,4-120.11,6.09C230.65,327.67,229.08,327.59,225.19,327.59Z"/></svg>