<svg width="400" height="220" id="Layer_1" data-name="Layer 1" xmlns="http://www.w3.org/2000/svg" viewBox="0 0 818.96 460"><defs><style>.cls-1{fill:#fff;}</style></defs><path d="M57.92,98.91c8.22-1.07,16.6-2.77,25-3.14,33.41-1.45,66.83-2.48,100.25-3.65,87.84-3.1,175.66-7.56,263.53-8.77,54.39-.74,108.88,3.21,163.3,5.57,34.83,1.51,69.63,3.78,104.41,6.09,10.8.71,21.75,1.77,32.2,4.22C762.58,103,771,113.63,771,128.13c.15,52-.26,103.9-.8,155.85-.18,17.74-1.32,35.48-2.11,53.22-.29,6.48-.85,12.95-1.29,19.46-16.93,8.13-34.42,9.08-51.68,9.36-69.79,1.09-139.59,1.53-209.39,2.45-42.85.56-85.71,2.91-128.52,2.1-101-1.89-202-5.13-302.94-8-20.81-.59-26.2-3.81-28.19-22.71-2.68-25.46-2.93-51.15-3.77-76.75A656,656,0,0,1,55.19,108.07C55.71,105.56,56.66,103.11,57.92,98.91ZM741.49,343.13c9.67-75.1,4.13-149.48,5.51-223.44-103.93-13.38-636.48-13.72-672.92-6-3.43,75.79-7,151.72-4.46,229.08,27.4,1.6,53.3,4.43,79.19,4.38,71.16-.16,142.31-1.42,213.47-2.46,50.1-.74,100.21-2.7,150.3-2.56,73.33.21,146.64,1.83,220,2.77C734.6,344.92,736.68,344.11,741.49,343.13Z"/><path class="cls-1" d="M741.49,343.13c-4.81,1-6.89,1.79-9,1.77-73.32-.94-146.63-2.56-220-2.77-50.09-.14-100.2,1.82-150.3,2.56-71.16,1-142.31,2.3-213.47,2.46-25.89.05-51.79-2.78-79.19-4.38-2.54-77.36,1-153.29,4.46-229.08,36.44-7.72,569-7.38,672.92,6C745.62,193.65,751.16,268,741.49,343.13Z"/></svg>