<svg width="400" height="220" id="Layer_1" data-name="Layer 1" xmlns="http://www.w3.org/2000/svg" viewBox="0 0 818.96 460"><defs><style>.cls-1{fill:#fff;}</style></defs><path d="M504.45,372.07c-45.68,0-91.38-.77-137,.17-93.48,1.92-186.93,4.85-280.4,7.17-28.41.7-36.44-4.48-41.67-29.4a234.8,234.8,0,0,1-5.25-48.8c.19-56.38,1.27-112.76,2.54-169.14.67-29.42,2.61-30.25,35-31.88C160.06,96,242.43,90.07,324.94,87.46c62.22-2,124.61-.36,186.9.59,73.94,1.14,147.85,3.5,221.78,4.9,43.7.82,46.25,2,45,41-1.3,41.93-4.6,83.8-6.79,125.71-1.37,26.16-2.11,52.34-3.56,78.5a51.86,51.86,0,0,1-3.93,17.26c-4.38,10.28-11.75,18.12-25.15,18.78-10.83.53-21.7,1.29-32.54,1.09q-101.1-1.8-202.21-4ZM73.2,356.27c7.1,0,10,.13,12.8,0,73.06-3.88,146.08-10.46,219.17-11.12,134.87-1.23,269.79,1,404.68,1.81,9.89.06,19.77,0,31.08,0,1.73-14.64,5.06-28.28,4.65-41.83C744,251.21,748,197.6,753.37,144c.79-7.93-1.79-16.14-2.79-24.11-7.22-.64-11.51-1.23-15.81-1.35-74.65-2.23-149.3-4.7-224-6.49-51.44-1.23-103-3.17-154.36-1.84-89.85,2.32-179.62,6.9-269.42,10.59-4.16.17-8.3.89-14.06,1.54C68.93,200.45,70.79,277.49,73.2,356.27Z"/><path class="cls-1" d="M73.2,356.27c-2.41-78.78-4.27-155.82-.24-233.94,5.76-.65,9.9-1.37,14.06-1.54,89.8-3.69,179.57-8.27,269.42-10.59,51.4-1.33,102.92.61,154.36,1.84,74.67,1.79,149.32,4.26,224,6.49,4.3.12,8.59.71,15.81,1.35,1,8,3.58,16.18,2.79,24.11C748,197.6,744,251.21,745.58,305.12c.41,13.55-2.92,27.19-4.65,41.83-11.31,0-21.19.05-31.08,0-134.89-.79-269.81-3-404.68-1.81-73.09.66-146.11,7.24-219.17,11.12C83.16,356.4,80.3,356.27,73.2,356.27Z"/></svg>