<svg width="400" height="220" id="Layer_1" data-name="Layer 1" xmlns="http://www.w3.org/2000/svg" viewBox="0 0 818.96 460"><defs><style>.cls-1{fill:#fff;}</style></defs><path d="M451.59,363.26c-113.59,2-209.77,4-306,5.08-26.57.3-53.2-1.95-79.76-3.55-13.78-.83-22.67-7.56-23.19-20-1.93-45.46-3.58-91-3.58-136.45,0-27.38,2.9-54.78,5.15-82.13C46.3,101.06,50.14,97,77.51,96c46.53-1.68,93.11-2.53,139.68-3,76.22-.8,152.45-1.75,228.67-1.27,68.8.44,137.58,2.8,206.37,4.15,28.11.55,56.24.58,84.35,1,31.2.44,35.29,6.45,35.45,35.3.25,45.46,3.44,90.9,4.9,136.37.72,22.7,1.63,45.5.15,68.14-1.42,21.6-7.62,26.38-32.18,26.64-48.81.51-97.63,0-146.45-.06C543.68,363.22,488.91,363.26,451.59,363.26ZM749.93,119c-59.42-1-116.2-1.9-173-2.81-1.48,0-3,.2-4.43.24-42.14,1.15-84.28,3.47-126.4,3.21-120.67-.75-241.33-2.58-362-3.83-4.82,0-9.65,1.42-16.74,2.54,0,15,.49,29-.09,43-2,48.12-5,96.22-6.21,144.36-.36,13.74,3.8,27.58,6.22,43.56,28.26,0,54.78.55,81.25-.1,85.07-2.1,170.1-5.43,255.17-6.79,91.05-1.45,182.13-.94,273.19-1.88,25-.26,49.94-2.65,77.82-4.23C753.12,263.75,751.56,193.09,749.93,119Z"/><path class="cls-1" d="M749.93,119c1.63,74.05,3.19,144.71,4.79,217.25-27.88,1.58-52.84,4-77.82,4.23-91.06.94-182.14.43-273.19,1.88-85.07,1.36-170.1,4.69-255.17,6.79-26.47.65-53,.1-81.25.1-2.42-16-6.58-29.82-6.22-43.56,1.25-48.14,4.21-96.24,6.21-144.36.58-14,.09-28,.09-43,7.09-1.12,11.92-2.59,16.74-2.54,120.67,1.25,241.33,3.08,362,3.83,42.12.26,84.26-2.06,126.4-3.21,1.47,0,3-.27,4.43-.24C633.73,117.14,690.51,118.07,749.93,119Z"/></svg>