<svg width="400" height="220" id="Layer_1" data-name="Layer 1" xmlns="http://www.w3.org/2000/svg" viewBox="0 0 818.96 460"><defs><style>.cls-1{fill:#fff;}</style></defs><path d="M45.33,94.19c14.17-1.69,26.35-4,38.62-4.43,31.55-1,63.14-1.22,94.72-1.68,53.61-.79,107.23-2.39,160.84-2.07,65.31.39,130.6,2.88,195.91,3.56,52.16.56,104.33-.59,156.49-.24,20.51.15,41,2.17,61.47,3.65,11.76.85,18.87,6.36,19.8,17.62.7,8.57,2.84,17.12,2.79,25.67-.11,17.93-1.52,35.85-1.9,53.79q-1.16,55.73-1.74,111.46c-.15,14,1,27.93.44,41.85-.7,18-3.49,20.42-23.3,20.92q-95.75,2.4-191.52,4.28c-110.13,2.2-220.27,4.79-330.42,6.1-44.72.53-89.48-1.89-134.22-2.87-11-.24-22,.11-33-.14-14.59-.34-18.73-2.85-19.75-16.07-1.48-19.19-1.66-38.5-1.48-57.75q.72-78.61,2.35-157.23C41.72,126.08,43.8,111.58,45.33,94.19Zm23.21,255c22.73,1.13,44.56,2.72,66.41,3.19q88.05,1.9,176.13,3c37.44.48,74.95,1.75,112.3.18,52-2.19,103.82-8,155.82-9.88,47.64-1.75,95.42-.36,143.14-.46,8.45,0,16.9-.59,25.94-.92,1.36-78.26,2.68-154.2,4-228.25-62.52,1.12-123.38,4-184.14,2.83-74.8-1.47-149.47-7.69-224.27-9.44C260.92,107.48,177.92,108.2,95,108c-8.4,0-16.81,1.72-27.12,2.86C69.7,190.35,58,267.71,68.54,349.19Z"/><path class="cls-1" d="M68.54,349.19c-10.58-81.48,1.16-158.84-.7-238.3C78.15,109.75,86.56,108,95,108c83,.17,166-.55,248.87,1.38,74.8,1.75,149.47,8,224.27,9.44,60.76,1.2,121.62-1.71,184.14-2.83-1.28,74.05-2.6,150-4,228.25-9,.33-17.49.9-25.94.92-47.72.1-95.5-1.29-143.14.46-52,1.91-103.82,7.69-155.82,9.88-37.35,1.57-74.86.3-112.3-.18q-88.06-1.11-176.13-3C113.1,351.91,91.27,350.32,68.54,349.19Z"/></svg>