<svg width="400" height="220" id="Layer_1" data-name="Layer 1"
    xmlns="http://www.w3.org/2000/svg" viewBox="0 0 818.96 520.08">
    <defs>
        <style>.cls-1{fill:#fff;}</style>
    </defs>
    <path d="M432.62,331.57c-61,1.06-112.6,2.15-164.24,2.73-14.26.16-28.56-1.05-42.82-1.9-7.39-.45-12.16-4.06-12.44-10.75-1-24.41-1.93-48.83-1.92-73.24,0-14.7,1.55-29.41,2.76-44.09,1.11-13.49,3.17-15.66,17.86-16.19,25-.9,50-1.35,75-1.61,40.91-.43,81.83-.94,122.74-.68,36.93.23,73.86,1.5,110.78,2.22,15.09.3,30.19.32,45.28.53,16.75.23,18.94,3.46,19,18.94.13,24.41,1.84,48.8,2.63,73.2.39,12.19.87,24.43.08,36.58-.76,11.59-4.09,14.16-17.27,14.3-26.2.27-52.41,0-78.62,0C482.05,331.55,452.66,331.57,432.62,331.57ZM592.77,200.48,499.91,199c-.8,0-1.59.11-2.38.13-22.62.62-45.24,1.86-67.85,1.72-64.77-.4-129.55-1.38-194.32-2-2.58,0-5.18.76-9,1.36,0,8.05.26,15.57,0,23.07-1.07,25.83-2.66,51.65-3.34,77.49-.19,7.38,2,14.81,3.35,23.38,15.16,0,29.4.3,43.61-.05,45.66-1.13,91.3-2.91,137-3.64,48.87-.78,97.76-.51,146.64-1,13.41-.14,26.81-1.43,41.78-2.28C594.48,278.16,593.64,240.23,592.77,200.48Z"/>
    <path class="cls-1" d="M592.77,200.48c.87,39.75,1.71,77.68,2.57,116.61-15,.85-28.37,2.14-41.78,2.28-48.88.5-97.77.23-146.64,1-45.67.73-91.31,2.51-137,3.64-14.21.35-28.45.05-43.61.05-1.3-8.57-3.54-16-3.35-23.38.68-25.84,2.27-51.66,3.34-77.49.31-7.5,0-15,0-23.07,3.8-.6,6.4-1.39,9-1.36,64.77.67,129.55,1.65,194.32,2,22.61.14,45.23-1.1,67.85-1.72.79,0,1.58-.14,2.38-.13Z"/>
</svg>