<svg width="400" height="220" id="Layer_1" data-name="Layer 1" xmlns="http://www.w3.org/2000/svg" viewBox="0 0 818.96 460"><defs><style>.cls-1{fill:#fff;}</style></defs><path d="M277.64,85.32c65.95,0,127.46-.72,188.94.29,34.32.56,68.57,4.18,102.88,6,19,1,38,1.22,57,1.9q55.95,2,111.88,4.15a117.89,117.89,0,0,1,15.22,1.8c16.44,2.82,20.56,7.11,21,22.68.65,23.83,1,47.66,1.41,71.5.68,36.41,1.62,72.82,1.87,109.23a335,335,0,0,1-2.37,41.63c-1.87,15.79-6.22,20.36-22.76,21.95-35.6,3.41-71.27,7.38-107,8.27-54.87,1.37-109.82.89-164.72.19-85.6-1.09-171.21-2.46-256.78-4.8-52.62-1.44-105.17-4.86-157.75-7.48C50.72,361.9,47.85,359.74,46,345c-1.82-14.46-3-29-3.68-43.57-1.81-39-4.14-78-4.42-117.07-.19-26.42,3-52.84,4.11-79.28.41-10.06,6.3-14.16,16.18-15.28,3.62-.41,7.3-.39,11-.46ZM71.7,340.9c77,10.84,618.89,13.92,674.89,4.34V122.6c-228.42-18.25-454.69-16.55-684.22-7.46,3.17,38,7.48,74.77,9,111.63C72.9,264.43,71.7,302.18,71.7,340.9Z"/><path class="cls-1" d="M71.7,340.9c0-38.72,1.2-76.47-.34-114.13-1.51-36.86-5.82-73.62-9-111.63,229.53-9.09,455.8-10.79,684.22,7.46V345.24C690.59,354.82,148.71,351.74,71.7,340.9Z"/></svg>