<svg width="400" height="220" id="Layer_1" data-name="Layer 1"
    xmlns="http://www.w3.org/2000/svg" viewBox="0 0 818.96 520.08">
    <defs>
        <style>.cls-1{fill:#fff;}</style>
    </defs>
    <path d="M611.62,332.6c-19.81,4.36-39.46,5.87-59.39,5.76-50.08-.28-100.16-.5-150.23-.27-54.83.26-109.66,1.08-164.49,1.58-5.56.05-11.11-.35-16.67-.58s-8.81-2.87-9.63-7.78c-1.83-11-4.75-22-5.05-33-.8-29.81-.48-59.64-.56-89.47a48.19,48.19,0,0,1,.51-6.45c1.72-13.28,2.81-13.94,17.15-15.61,70.85-8.25,141.94-6.87,213.07-4.7,38.12,1.16,76.27,1.74,114.4,2.83,12.68.37,25.34,1.46,38,2.39a31.45,31.45,0,0,1,8.07,1.8c7.87,2.8,13.13,7.08,13.3,15.75.34,18.33,1.67,36.64,2.18,55,.62,22.26.85,44.53,1.09,66.8C613.38,328.63,612.21,330.66,611.62,332.6Zm-15.34-8.39c4.5-12.73,5.73-23.68,4.68-34.93-.7-7.51-1.07-15-1.28-22.58-.52-19-.8-38-1.31-57.06-.19-7.2-2.59-9.43-10.7-9.73-11.11-.4-22.23-.47-33.35-.75-43.67-1.11-87.33-2.83-131-3.24-61.56-.57-123.14-.21-184.71-.15-5.86,0-11.72.68-18.59,1.11.64,43.79-1.41,86.7,2.36,129.72,5.89,0,10.2,0,14.52,0,18.25-.21,36.5-.53,54.75-.64,16.27-.1,32.54.24,48.81,0,33.76-.46,67.52-1.82,101.27-1.62,40.51.24,81,2,121.5,2.5C574.2,327,585.21,325.16,596.28,324.21Z"/>
    <path class="cls-1" d="M596.28,324.21c-11.07,1-22.08,2.8-33.06,2.65-40.5-.53-81-2.26-121.5-2.5-33.75-.2-67.51,1.16-101.27,1.62-16.27.22-32.54-.12-48.81,0-18.25.11-36.5.43-54.75.64-4.32,0-8.63,0-14.52,0-3.77-43-1.72-85.93-2.36-129.72,6.87-.43,12.73-1.1,18.59-1.11,61.57-.06,123.15-.42,184.71.15,43.68.41,87.34,2.13,131,3.24,11.12.28,22.24.35,33.35.75,8.11.3,10.51,2.53,10.7,9.73.51,19,.79,38,1.31,57.06.21,7.53.58,15.07,1.28,22.58C602,300.53,600.78,311.48,596.28,324.21Z"/>
</svg>