<?xml version="1.0" encoding="utf-8"?>
<!-- Generator: Adobe Illustrator 25.2.1, SVG Export Plug-In . SVG Version: 6.00 Build 0)  -->
<svg version="1.1" id="Layer_1" xmlns="http://www.w3.org/2000/svg" xmlns:xlink="http://www.w3.org/1999/xlink" x="0px" y="0px"
	 viewBox="0 0 1270.1 287.6" style="enable-background:new 0 0 1270.1 287.6;" xml:space="preserve">
<style type="text/css">
	.st0{display:none;fill:#934141;}
	.st1{fill:#FFFFFF;}
	.st2{fill:#010101;}
</style>
<rect x="-72.5" y="-87" class="st0" width="1372.7" height="471.4"/>
<path d="M1269.1,222.3c-1.4-2-3.1-3.6-5.5-4c-3-0.5-5.9-0.9-8.9-1.2c-4-0.3-8-0.4-12-0.7c-6.3-0.4-12.6-1.6-18.6-3.7
	c-8-2.9-11.4-7.2-11.6-15.5c-0.1-4.7,0.1-9.3,0.6-14c2-19.2,4.2-38.4,6.5-57.6c0.8-6.3,0.2-12.7-1.6-18.8
	c-3.4-11.3-10.4-19.9-21.8-24.4c-8-3.3-16.4-5.5-25-6.6c-12.7-1.5-25.5,0.7-36.9,6.3c-3,1.5-5.9,3-8.8,4.8
	c-5.9,3.5-11.8,7-17.7,10.6c-2.1,1.3-4.2,2.5-6.3,3.8c-6.3,3.8-12.5,7.7-18.8,11.5c-4.2,2.6-8.8,4.8-13.4,6.6
	c-1.3,0.5-2.9-0.3-3-1.6c-0.1-2.7-0.2-5.3-0.2-8c-0.1-5.3-0.2-10.7-0.4-16c-0.3-8.3-0.8-16.7-1.2-25c-0.4-9-0.7-18-1.1-27
	c-0.1-2.3-0.3-4.7-0.5-7c-0.6-5.4-3.2-10.3-7.5-13.7c-1.8-1.5-3.7-2.8-5.8-3.8c-5.2-2.7-10.8-4.7-16.5-5.9c-0.1,0-0.2,0-0.2,0
	c-0.2,0-0.3-0.1-0.5-0.1c-2.5-0.5-5-0.7-7.5-0.8c-0.2,0-0.3,0-0.5,0L376.9,9.5h0l-28.2,0c-3,0-6.1-0.1-9.1-0.3l-0.1,0L316,9
	l-25.5-0.2c-0.3,0-0.7,0-1.1,0c-0.4,0-0.8,0-1.2,0c-3.4,0-5.4,0.2-6.6,0.3c0,0,0,0,0,0c-0.5,0.1-1,0.2-1.4,0.3
	c-0.5,0.1-0.9,0.2-1.4,0.3c-15.6,3.2-21.6,10.2-23.9,25.4c-0.3,2-0.3,4-0.5,6c0,0-2.2,33.6-2.2,34.4c0,1.3,0.2,18.4,0.3,20.4
	c0.2,15,1.4,30,3.5,44.8c0.4,2.9,0,6,0,8.9c0,1.2-2,2.1-3.1,1.6c-1.5-0.7-3-1.4-4.4-2.3c-5.1-3.2-9.8-7-14-11.3
	c-0.5-0.5-0.9-0.9-1.4-1.4c-4.2-4.3-8.2-8.8-12.2-13.2c-6.5-7.2-12.7-14.6-19.3-21.6c-5-5.3-10.3-10.4-15.8-15.3
	c-5.7-5.2-12.1-9.5-18.9-13c-10.2-5.1-21.7-7.1-33-5.5c-5.3,0.6-10.5,2.3-15.1,5c-5,2.9-8.6,7.5-10.3,13c-1,3.5-1.5,7.2-1.5,10.9
	c-0.2,6.3-0.6,12.7-1,19c-0.4,6-0.9,12-1.2,18c-0.5,10.3-0.8,20.7-1.2,31c-0.8,18.4-0.3,36.7,4.9,54.5c0.5,1.9,0.7,3.9,0.6,5.9
	c0.1,3.1-2,5.9-5,6.7c-6.1,1.9-12.5,2.2-18.8,1c-6.2-1.3-12.4-2.6-18.5-4c-11.7-2.6-23.4-5.2-35.1-7.8c-1-0.2-2-0.3-2.9-0.2
	c-0.5,0.1-1,0.8-1.2,1.3c-0.2,0.6-0.2,1.3,0,1.9c1.5,5.4,4.8,9.5,9.2,12.8c3.5,2.6,7.1,4.9,10.6,7.5c1.5,1.1,4.3,2.1,3.7,4.1
	c-0.8,2.9-3.9,1.5-6,1.6c-3.7,0.2-7.3-0.3-10.8-1.4c-1-0.3-2-0.5-3-0.6c-1.3,0-2.5,1-2.5,2.3v0.1C28,258.8,32,267,39.1,271.7
	c1.9,1.4,3.9,2.6,5.9,3.7c8,4.1,16.6,7,25.5,8.4c12.3,2.1,24.6,1.5,36.8-0.3c10.3-1.5,16.8-7.5,19.5-17.6c1.1-4.2,1.7-8.5,1.9-12.8
	c0.8-15.8-1.2-31.2-4.7-46.6c-0.8-3.6-1.8-7.1-2.4-10.7c-0.7-4.3-1.2-8.6-1.4-12.9c-0.2-5.5,2.4-8.5,7.9-10c3.5-1,7.3-1.1,10.9-0.5
	c5.3,0.8,10.4,2.6,15,5.3c2.3,1.4,4.5,2.8,6.7,4.4c11.1,8,22.2,15.9,33.2,24c14.1,10.7,29.5,19.5,45.8,26.4
	c12.6,5.2,25.9,8.8,39.5,10.6c10.6,1.5,21.3,1.9,31.9,1.3c10-0.5,19.9-1.5,29.8-3c5.9-1,11.9-1.7,17.6-3.5c8.6-2.8,14-8.5,16.6-17.2
	c1.2-4.5,1.8-9.2,1.6-13.9c0-12.6,0-25.2,0-37.9c0-1.7,0-3.4,0-5.1c0-3,0.1-6,0.2-9c0-0.2,0-0.4,0.1-0.6v-9.5c0,0,0,0-0.1,0l0.1-9.3
	c0,0,1.5-3.6-6.3-7.2c-5.8-2.7-17.6-6.7-23.3-8.6c60.5,0.2,261.7,0.2,290,0.2c27.4,0.1,255.9-0.7,336.6-2
	c-11.7,3.1-23.1,7.4-34,12.7c0,0,0,0,0,0c-0.4,0.4-1,1.1-1.1,2.6c0,0,0,0,0,0l-0.2,12.6l0,0c0.1,1.8,0.1,3.6,0.1,5.3
	c0,6-0.1,12-0.2,18c-0.1,12.7-0.2,25.4-0.3,38c-0.1,3.7,0.1,7.4,0.5,11c0.5,4.4,3.1,8.3,6.9,10.5c1.1,0.7,2.3,1.3,3.6,1.8
	c7.8,3.1,15.7,5.5,24.2,5.5c13.7,0,27.3,0.3,41,0c12-0.1,24-1.6,35.7-4.3c20.8-5,40.3-14.3,57.3-27.4c5-3.8,9.8-8,14.8-11.9
	c6.6-5.1,13.2-10.2,20.1-14.9c4.4-3,9.1-5.6,14-7.7c13.6-5.7,26.1-2.9,37.4,6c1.8,1.5,3.4,3.2,4.7,5.1c3.1,4.3,4.3,9.1,2.4,14.2
	c-2.3,6.2-4.8,12.4-7.4,18.5c-1.7,4-3.7,7.8-5.4,11.8c-3.7,8.3-5.4,17.2-5.1,26.3c0.1,6.4,1.6,12.6,4.1,18.4c2.7,6.3,8,11,14.6,12.7
	c3.2,1,6.5,1.5,9.8,1.6c3.3,0,6.7,0,10-0.2c9.7-0.6,19.1-3.4,27.6-8.1c7.1-3.9,13.1-9.1,17-16.2c-0.3-1.4-1.3-2.5-2.6-3.1
	c-5.1-2.5-10.2-4.9-15.3-7.4c-1.5-0.7-2.9-1.6-4.2-2.6c-0.4-0.5-0.5-1.1-0.3-1.6c1.2-1.2,2.4-2.2,3.8-3.1
	c6.9-4.6,13.9-9.2,20.8-13.8C1270.5,226.7,1270.7,224.7,1269.1,222.3z M120.5,269.6c-1.3,3.1-4.1,5.4-7.4,6.2
	c-10.1,2.2-20.2,4-31.2,4c-8.4,0.3-16.8-1-24.7-3.9c-5.3-1.9-10.3-4.6-14.9-7.9c-3.6-2.5-6.5-5.8-8.5-9.6c-0.4-0.8,0.3-2.2,1.2-2.2
	c3.6,0,7.3-0.1,11-0.1c4,0,7.9-1.7,10.7-4.6c0.9-1,1.1-2.4,0.6-3.7c-0.9-2.2-2.4-4-4.2-5.4c-2.4-1.8-4.8-3.5-7.3-5.3
	c-2.7-2-5.4-3.9-7.1-6.8c-0.3-0.5-0.5-1.4-0.2-1.8c0.5-0.4,1.2-0.6,1.8-0.5c5.5,1.4,10.9,2.8,16.3,4.3c7.3,2.1,14.8,3.6,22.4,4.6
	c8.6,1.2,17.3,1,25.8-0.6c9.5-1.8,8.7-2.3,12.2,6.7c1.8,4.6,3.5,9.3,4.9,14.1C123.1,261.3,122.6,265.8,120.5,269.6z M122.8,226.8
	L122.8,226.8c0.1,0.7,0.1,1.4,0.2,2c-0.1,0.6-0.2,1.3-0.4,1.9c-0.1,0.3-0.4,0.6-0.6,0.7c-0.6,0.1-1.2,0.1-1.8-0.1
	c-0.6-0.3-1-0.8-1.3-1.4c-3.1-7-5.5-14.3-7.1-21.8c-0.9-4.2-1.1-8.6-0.5-12.9c0.2-1.3,0.7-2.5,1.4-3.7c0.4-0.5,1-0.8,1.6-0.8
	c0.6,0,1.1,0.6,1.6,1c0.2,0.2,0.4,0.5,0.5,0.9C118.5,203.9,120.6,215.3,122.8,226.8z M363.6,226.8L363.6,226.8
	c-2.4,1.8-5,3.3-7.7,4.7c-9.3,4.6-19.4,7.3-29.8,7.8c-11.3,0.8-22.7,0.5-33.9-0.8c-9.6-1-19.2-2.5-28.6-4.7
	c-17.9-4.1-35-11.2-50.5-21.1c-10.9-7.1-21.6-14.5-32.3-21.8c-8.6-5.8-17-11.7-25.6-17.4c-4.1-2.8-8.7-5-13.5-6.5
	c-7-2.4-14.7-1.8-21.3,1.6c-1.8,0.9-3.5,2-5.3,2.7c-0.9,0.3-2,0.4-2.9,0.2c-1,0-1.9-0.8-2.2-1.8c-0.2-1-0.4-2-0.5-2.9
	c0-5,0-10,0.2-15c0.2-5.3,0.5-10.7,0.8-16h-0.4l2.5-42.9c0.1-2,0.3-4,0.6-6c1.3-7.4,5.8-12,13.1-13.3c4.2-0.9,8.6-1.3,12.9-1.3
	c12.1,0.1,23.9,3.8,33.9,10.6c4.4,3,8.6,6.4,12.3,10.2c5.6,5.7,11.2,11.5,16.5,17.4c8.3,9.1,16.9,18,26,26.3
	c1.7,1.6,3.4,3.1,5.1,4.7c9.1,8.3,18.4,16.5,27.5,24.8c1,0.9,2,1.8,3,2.7c1,0.9,2,1.8,2.9,2.8c6.7,6.5,14.8,11.4,23.7,14.2
	c8.8,3.1,18,5.1,27.2,6c11.6,1,23.2,2.2,34.5,5.4c2.6,0.7,5.2,1.4,7.6,2.3c4.8,1.8,8.2,6,9.2,11c0.2,1,0.4,2,0.5,3
	C370,218.8,367.8,223.9,363.6,226.8z M352.3,126.1c6.8,2.5,13.1,5.1,14.2,6.6c0.6,0.8,1.2,1.7,1.6,2.7c0.9,2,1.3,4,1.4,5.1
	c0,0,0,0,0.1,0l0.1,0.9l1,15l0,0.1c0.1,0.8,0.1,1.6,0.1,2.5c0.1,2.7-0.1,5.3-0.5,7.9v0.1c-0.1,0.7-0.3,1.3-0.4,2
	c-0.9,5.3-0.8,10.5-0.6,15.9c0.1,2,0,4-0.3,5.9c-0.2,0.6-0.7,1.1-1.3,1.3c-1,0.2-2,0.2-3,0c-7.6-0.9-15.2-1.7-22.7-2.8
	c-11.8-1.8-23.6-3.6-35.4-5.6c-8.5-1.6-16.8-4.2-24.6-7.9c-3.7-1.5-6.9-3.9-9.5-6.8c-2-2.3-3.5-5-4.5-7.9c-3.1-8.8-2-17,4.3-24.2
	c4.8-5.6,11.3-9.5,18.6-11.1c2.2-0.5,4.5-1,6.6-1.4l-0.1,0c0,0,2.2-0.5,5.7-1.1c6.2-1.1,16.3-2.8,24.5-3.4c2.1-0.1,4-0.2,5.7-0.2
	C333,119.6,343.1,122.8,352.3,126.1z M352.2,115.2c-31-0.4-35,0.9-43.1,1.7c-2,0.2-4,0.4-6,0.7c0,0-0.1,0-0.1,0
	c-11,1.1-21.1,5-30.5,11.1c-2.5,1.6-4.9,3.5-7.4,5.1c-0.8,0.5-1.8,0.9-2.8,1c-0.6,0-1.2-0.3-1.5-0.8c-0.5-1.6-0.9-3.2-1.1-4.8
	c-1.4-14.9-2-29.9-1.8-44.9c0.2-15.3,1.2-30.6,2.7-45.9c0.3-2.7,0.9-5.3,1.8-7.8c2-6.5,7.2-11.6,13.8-13.2c5.4-1.4,11.2-2.7,17-2.7
	h0.2l1.4,0l0.4,0l34.5,0.7h0.3l667.8,2.4c4.2,0,8.5-0.3,12.7-0.9c2.7-0.4,5.5-0.6,8.2-0.7h0.4c0.8,0,1.6,0,2.4,0
	c2.3,0,4.5,0.2,6.8,0.4c7.7,0.7,15,3.4,21.4,7.8c2.2,1.6,4.1,3.4,5.9,5.4c1.8,2,2.8,4.6,2.8,7.3c0.1,3.7,0.2,7.3,0.3,11
	c0.4,11.3,0.8,22.7,1.2,34h0.2c0.2,13.7,0.5,27.3,0.6,41c-0.1,1.3-0.3,2.6-0.7,3.8c0,0.2-0.6,0.3-0.9,0.3c-0.3,0-0.6,0-0.9-0.1
	c-1.2-0.6-2.3-1.3-3.4-2c-12.9-8.5-26.7-12.4-41.2-12.8c-0.1,0-0.2,0-0.2,0h0l-5.4,0h-0.1L352.2,115.2z M943,194.4L943,194.4
	c-1.6-4.6-0.4-9.2-0.4-13.8c0-3.9,0.2-7.7,0.5-11.6c0.1-1.5,0.2-2.9,0.2-4.4h0.3c0.3-6.7,0.7-13.3,1-20c0.1-2.7,0.2-5.3,0.4-8
	c0-1.7,1.1-3.2,2.7-3.9c17.9-7.4,36-13.9,55.6-15.3c0.3,0,0.5,0,0.8,0h0c2.5-0.2,4.9-0.2,7.4-0.1h0.1c11.2,0.3,22.3,2.8,32.6,7.5
	c4.9,2.1,9.3,5.3,12.9,9.3c6,6.6,7.3,15.8,3.4,23.2c-1.9,3.5-4.8,6.4-8.4,8.3c-2.5,1.4-5.2,2.6-7.9,3.5c-1.7,0.5-3.4,1-5.1,1.4
	c-6.5,1.5-13,2.8-19.5,4c-11.5,2-22.9,4-34.4,5.8c-9.9,1.6-19.5,4.7-28.5,9C952.2,191.3,948.3,194.9,943,194.4z M1194.2,167.1
	c-5.7-3.5-12-5.9-18.5-7.1c-6.9-1.1-14-0.5-20.7,1.7c-6,2-11.7,4.9-16.8,8.7c-3.8,2.7-7.4,5.7-11,8.6c-7.8,6.2-15.5,12.6-23.3,18.8
	c-21.1,16.9-45.3,26.4-71.9,30.3c-16.8,2.3-33.9,2.9-50.9,1.6c-3.7-0.2-7.3-0.6-11-0.9c-6.7-0.6-13.1-2.8-18.8-6.2
	c-1.7-1-3.2-2.3-4.5-3.8c-2.4-2.6-2.7-6.4-0.7-9.3c1-1.7,2.3-3.2,3.7-4.6c8.4-7.9,18-13.7,29.5-16c7.2-1.5,14.4-2.9,21.6-4.2
	c16.7-3,33.2-7.1,49.4-12.3c2.2-0.7,4.4-1.5,6.5-2.5c0.7-0.3,1.4-0.7,2.1-1.1c2.2-1.3,4.2-3,5.8-4.9c2.6-3.2,4.2-6.9,4-11
	c-0.2-3-0.6-6-1.2-8.9c-1.8-9.9,1.5-17.7,9.7-23.4c2.7-1.9,5.6-3.5,8.7-4.9c7.5-3.4,14.8-7.2,21.9-11.4c5-2.9,9.9-5.9,14.7-9
	c0.9-0.5,1.7-1,2.5-1.6c13.2-8.8,27.9-12.4,43.6-12c3,0.1,6,0.4,9,0.5c16.8,1,36.4,14.3,35.9,40.5c0,2.3-0.3,4.6-0.5,7.9
	c-0.7,13.4-2.7,27.6-4.6,41.8c-0.2,1.1-1.2,1.8-2.3,1.6c-0.2,0-0.5-0.1-0.7-0.2C1201.6,171.6,1197.9,169.3,1194.2,167.1z
	 M1251.2,228.2L1251.2,228.2c-2.7,2.5-5.3,5-8,7.4c-3,2.7-5.8,5.5-7.5,9.2c-0.6,1.5-1.1,3.1-1.4,4.7c-0.2,1.3,0.5,2.7,1.6,3.3
	c1.2,0.6,2.4,1.2,3.6,1.7c3.7,1.5,7.4,2.9,11.1,4.5c1.1,0.6,2.2,1.4,3.1,2.2c-0.5,1-1.1,1.9-1.9,2.7c-10,9.5-23.3,14.7-37.1,14.5
	c-3-0.1-6-0.5-8.8-1.3c-4.9-1.2-9.2-4.2-11.9-8.4c-5.3-7.9-7.1-16.4-4-25.6c0.6-1.9,1.3-3.8,2.2-5.6c4.9-9.1,9.9-18.1,15-27
	c0.4-0.7,1.5-1,2.3-1.5c0.9,0.8,1.8,1.3,2.4,2c5,4.9,11.3,8.3,18.2,9.9c5.5,1.4,11,2.4,16.5,3.6c1.3,0.3,2.5,0.7,3.8,1.1
	C1251.2,226.1,1251.8,227.7,1251.2,228.2z"/>
<path class="st1" d="M1253.7,261.3c-0.5,1-1.1,1.9-1.9,2.7c-10,9.5-23.3,14.7-37.1,14.5c-3-0.1-6-0.5-8.8-1.3
	c-4.9-1.2-9.2-4.2-11.9-8.4c-5.3-7.9-7.1-16.4-4-25.6c0.6-1.9,1.3-3.8,2.2-5.6c4.9-9.1,9.9-18.1,15-27c0.4-0.7,1.5-1,2.3-1.5
	c0.9,0.8,1.8,1.3,2.4,2c5,4.9,11.3,8.3,18.2,9.9c5.5,1.4,11,2.4,16.5,3.6c1.3,0.3,2.5,0.7,3.8,1.1c0.8,0.3,1.4,1.9,0.8,2.4l0,0
	c-2.7,2.5-5.3,5-8,7.4c-3,2.7-5.8,5.5-7.5,9.2c-0.6,1.5-1.1,3.1-1.4,4.7c-0.2,1.3,0.5,2.7,1.6,3.3c1.2,0.6,2.4,1.2,3.6,1.7
	c3.7,1.5,7.4,2.9,11.1,4.5C1251.7,259.7,1252.8,260.5,1253.7,261.3z"/>
<path class="st1" d="M1213.6,122.9c0,2.3-0.3,4.6-0.5,7.9c-0.7,13.4-2.7,27.6-4.6,41.8c-0.2,1.1-1.2,1.8-2.3,1.6
	c-0.2,0-0.5-0.1-0.7-0.2c-3.8-2.3-7.5-4.6-11.2-6.8c-5.7-3.5-12-5.9-18.5-7.1c-6.9-1.1-14-0.5-20.7,1.7c-6,2-11.7,4.9-16.8,8.7
	c-3.8,2.7-7.4,5.7-11,8.6c-7.8,6.2-15.5,12.6-23.3,18.8c-21.1,16.9-45.3,26.4-71.9,30.3c-16.8,2.3-33.9,2.9-50.9,1.6
	c-3.7-0.2-7.3-0.6-11-0.9c-6.7-0.6-13.1-2.8-18.8-6.2c-1.7-1-3.2-2.3-4.5-3.8c-2.4-2.6-2.7-6.4-0.7-9.3c1-1.7,2.3-3.2,3.7-4.6
	c8.4-7.9,18-13.7,29.5-16c7.2-1.5,14.4-2.9,21.6-4.2c16.7-3,33.2-7.1,49.4-12.3c2.2-0.7,4.4-1.5,6.5-2.5c0.7-0.3,1.4-0.7,2.1-1.1
	c2.2-1.3,4.2-3,5.8-4.9c2.6-3.2,4.2-6.9,4-11c-0.2-3-0.6-6-1.2-8.9c-1.8-9.9,1.5-17.7,9.7-23.4c2.7-1.9,5.6-3.5,8.7-4.9
	c7.5-3.4,14.8-7.2,21.9-11.4c5-2.9,9.9-5.9,14.7-9c0.9-0.5,1.7-1,2.5-1.6c13.2-8.8,27.9-12.4,43.6-12c3,0.1,6,0.4,9,0.5
	C1194.5,83.4,1214.1,96.7,1213.6,122.9z"/>
<path class="st1" d="M1060.4,157.2c-1.9,3.5-4.8,6.4-8.4,8.3c-2.5,1.4-5.2,2.6-7.9,3.5c-1.7,0.5-3.4,1-5.1,1.4
	c-6.5,1.5-13,2.8-19.5,4c-11.5,2-22.9,4-34.4,5.8c-9.9,1.6-19.5,4.7-28.5,9c-4.4,2.1-8.3,5.8-13.6,5.3l0,0
	c-1.6-4.6-0.3-9.2-0.3-13.8c0-3.9,0.2-7.7,0.5-11.6c0.1-1.5,0.2-2.9,0.2-4.4h0.3c0.3-6.7,0.7-13.3,1-20c0.1-2.7,0.2-5.3,0.4-8
	c0-1.7,1.1-3.2,2.7-3.9c17.9-7.4,36-13.9,55.6-15.3c0.3,0,0.5,0,0.8,0h0c2.5-0.2,4.9-0.2,7.4-0.1h0.1c11.2,0.3,22.3,2.8,32.6,7.5
	c4.9,2.1,9.3,5.3,12.9,9.3C1063,140.6,1064.3,149.8,1060.4,157.2z"/>
<path class="st1" d="M120.5,269.6c-1.3,3.1-4.1,5.4-7.4,6.2c-10.1,2.2-20.2,4-31.2,4c-8.4,0.3-16.8-1-24.7-3.9
	c-5.3-1.9-10.3-4.6-14.9-7.9c-3.6-2.5-6.5-5.8-8.5-9.6c-0.4-0.8,0.3-2.2,1.2-2.2c3.6,0,7.3-0.1,11-0.1c4,0,7.9-1.7,10.7-4.6
	c0.9-1,1.1-2.4,0.6-3.7c-0.9-2.2-2.4-4-4.2-5.4c-2.4-1.8-4.8-3.5-7.3-5.3c-2.7-2-5.4-3.9-7.1-6.8c-0.3-0.5-0.5-1.4-0.2-1.8
	c0.5-0.4,1.2-0.6,1.8-0.5c5.5,1.4,10.9,2.8,16.3,4.3c7.3,2.1,14.8,3.6,22.4,4.6c8.6,1.2,17.3,1,25.8-0.6c9.5-1.8,8.7-2.3,12.2,6.7
	c1.8,4.6,3.5,9.3,4.9,14.1C123.1,261.3,122.6,265.8,120.5,269.6z"/>
<path class="st1" d="M122.9,228.8c-0.1,0.6-0.2,1.3-0.4,1.9c-0.1,0.3-0.4,0.6-0.6,0.7c-0.6,0.1-1.2,0.1-1.8-0.1
	c-0.6-0.3-1-0.8-1.3-1.4c-3.1-7-5.5-14.3-7.1-21.8c-0.9-4.2-1.1-8.6-0.5-12.9c0.2-1.3,0.7-2.5,1.4-3.7c0.4-0.5,1-0.8,1.6-0.8
	c0.6,0,1.1,0.6,1.6,1c0.2,0.2,0.4,0.5,0.5,0.9c2.2,11.3,4.4,22.7,6.5,34.2v0C122.9,227.4,122.9,228.1,122.9,228.8z"/>
<path class="st1" d="M363.6,226.8L363.6,226.8c-2.4,1.8-5,3.3-7.7,4.7c-9.3,4.6-19.4,7.3-29.8,7.8c-11.3,0.8-22.7,0.5-33.9-0.8
	c-9.6-1-19.2-2.5-28.6-4.7c-17.9-4.1-35-11.2-50.5-21.1c-10.9-7.1-21.6-14.5-32.3-21.8c-8.6-5.8-17-11.7-25.6-17.4
	c-4.1-2.8-8.7-5-13.5-6.5c-7-2.4-14.7-1.8-21.3,1.6c-1.8,0.9-3.5,2-5.3,2.7c-0.9,0.3-2,0.4-2.9,0.2c-1,0-1.9-0.8-2.2-1.8
	c-0.2-1-0.4-2-0.5-2.9c0-5,0-10,0.2-15c0.2-5.3,0.5-10.7,0.8-16h-0.4l2.5-42.9c0.1-2,0.3-4,0.6-6c1.3-7.4,5.8-12,13.1-13.3
	c4.2-0.9,8.6-1.3,12.9-1.3c12.1,0.1,23.9,3.8,33.9,10.6c4.4,3,8.6,6.4,12.3,10.2c5.6,5.7,11.2,11.5,16.5,17.4
	c8.3,9.1,16.9,18,26,26.3c1.7,1.6,3.4,3.1,5.1,4.7c9.1,8.3,18.4,16.5,27.5,24.8c1,0.9,2,1.8,3,2.7c1,0.9,2,1.8,2.9,2.8
	c6.7,6.5,14.8,11.4,23.7,14.2c8.8,3.1,18,5.1,27.2,6c11.6,1,23.2,2.2,34.5,5.4c2.6,0.7,5.2,1.4,7.6,2.3c4.8,1.8,8.2,6,9.2,11
	c0.2,1,0.4,2,0.5,3C370,218.8,367.8,223.9,363.6,226.8z"/>
<path class="st2" d="M1013.4,112.3L1013.4,112.3c-0.1,0-0.2,0-0.2,0H1013.4z"/>
<path class="st1" d="M1060.5,123.1c-0.1,1.3-0.3,2.6-0.7,3.8c0,0.2-0.6,0.3-0.9,0.3c-0.3,0-0.6,0-0.9-0.1c-1.2-0.6-2.3-1.3-3.4-2
	c-12.9-8.5-26.7-12.4-41.2-12.8v0h-0.2c-1.8-0.1-3.6,0-5.4,0h-0.1l-655.4,2.9c-31-0.4-35,0.9-43.1,1.7c-2,0.2-4,0.4-6,0.7
	c0,0-0.1,0-0.1,0c-11,1.1-21.1,5-30.5,11.1c-2.5,1.6-4.9,3.5-7.4,5.1c-0.8,0.5-1.8,0.9-2.8,1c-0.6,0-1.2-0.3-1.5-0.8
	c-0.5-1.6-0.9-3.2-1.1-4.8c-1.4-14.9-2-29.9-1.8-44.9c0.2-15.3,1.2-30.6,2.7-45.9c0.3-2.7,0.9-5.3,1.8-7.8c2-6.5,7.2-11.6,13.8-13.2
	c5.4-1.4,11.2-2.7,17-2.7h0.2l1.4,0l0.4,0l34.5,0.7h0.3l667.8,2.4c4.2,0,8.5-0.3,12.7-0.9c2.7-0.4,5.5-0.6,8.2-0.7h0.4
	c0.8,0,1.6,0,2.4,0c2.3,0,4.5,0.2,6.8,0.4c7.7,0.7,15,3.4,21.4,7.8c2.2,1.6,4.1,3.4,5.9,5.4c1.8,2,2.8,4.6,2.8,7.3
	c0.1,3.7,0.2,7.3,0.3,11c0.4,11.3,0.8,22.7,1.2,34h0.2C1060.1,95.8,1060.3,109.4,1060.5,123.1z"/>
<path class="st1" d="M370.2,166.9L370.2,166.9c-0.1,0.7-0.3,1.4-0.4,2.1c-0.9,5.3-0.8,10.5-0.6,15.9c0.1,2,0,4-0.3,5.9
	c-0.2,0.6-0.7,1.1-1.3,1.3c-1,0.2-2,0.2-3,0c-7.6-0.9-15.2-1.7-22.7-2.8c-11.8-1.8-23.6-3.6-35.4-5.6c-8.5-1.6-16.8-4.2-24.6-7.9
	c-3.7-1.5-6.9-3.9-9.5-6.8c-2-2.3-3.5-5-4.5-7.9c-3.1-8.8-2-17,4.3-24.2c4.8-5.6,11.3-9.5,18.6-11.1c2.2-0.5,4.5-1,6.6-1.4l-0.1,0
	c0,0,2.2-0.5,5.7-1.1c6.2-1.1,16.3-2.8,24.5-3.4c2.1-0.1,4-0.2,5.7-0.2c0,0,10.1,3.2,19.3,6.5c6.8,2.5,13.1,5.1,14.2,6.6
	c0.6,0.8,1.2,1.7,1.6,2.7c0.9,2,1.3,4,1.4,5.1c0.1,0.5,0.1,0.7,0.1,0.7l0,0.2l1,15l0,0.1c0.1,0.8,0.1,1.6,0.1,2.5
	C370.8,161.7,370.7,164.3,370.2,166.9z"/>
<path class="st1" d="M369.6,141.3l0-0.2c0,0,0-0.3-0.1-0.7c0,0,0,0,0.1,0L369.6,141.3z"/>
<path d="M369.6,141.3l0-0.2c0,0,0-0.3-0.1-0.7c0,0,0,0,0.1,0L369.6,141.3z"/>
</svg>
