<svg id="Layer_1" data-name="Layer 1"
    xmlns="http://www.w3.org/2000/svg" viewBox="0 0 1222 297">
    <defs>
        <style>.cls-1{fill:#fff;}</style>
    </defs>
    <g id="Layer_3" data-name="Layer 3">
        <path class="cls-1" d="M1219.66,231.7c-6.92,4.64-13.9,9.19-20.83,13.82a27.22,27.22,0,0,0-3.81,3.13,1.7,1.7,0,0,0,.28,1.63,29.85,29.85,0,0,0,4.24,2.56c5.07,2.52,10.18,5,15.27,7.42a4.36,4.36,0,0,1,2.57,3.09c-3.93,7.07-9.92,12.27-17,16.18a64.07,64.07,0,0,1-27.57,8.12c-3.33.19-6.67.16-10,.21a34.29,34.29,0,0,1-9.83-1.57,22.11,22.11,0,0,1-14.57-12.71,48.64,48.64,0,0,1-4.11-18.42,60.42,60.42,0,0,1,5.14-26.27c1.69-4,3.72-7.82,5.38-11.82q3.84-9.21,7.37-18.55c1.92-5.11.7-9.88-2.37-14.17a25.57,25.57,0,0,0-4.72-5.13c-11.32-8.92-23.8-11.74-37.41-6a80.47,80.47,0,0,0-14,7.67c-6.88,4.68-13.46,9.81-20.07,14.88-5,3.85-9.8,8-14.83,11.86A152.12,152.12,0,0,1,1001.51,235a167.69,167.69,0,0,1-35.67,4.27c-13.65.3-27.32,0-41,0-8.49,0-16.44-2.41-24.2-5.55a25.4,25.4,0,0,1-3.56-1.82,13.65,13.65,0,0,1-6.92-10.45,91.32,91.32,0,0,1-.46-11c.13-18.67.35-37.33.5-56,0-3.32-.11-6.65-.23-10a1.93,1.93,0,0,0-2.91-1.49c-1.82.81-3.64,1.63-5.43,2.53q-35.7,18-71.4,36c-2.07,1-4.09,2.2-6.1,3.36l-27.4,8.6c-2.42,1.12-4.9,2.1-7.34,3.16a208.18,208.18,0,0,1-61.7,15.76c-18,1.88-36,1.38-53.93.73-1,0-2-.15-3-.18-29.64-.94-59.24-3.13-88.92-3.32a278.75,278.75,0,0,1-67.23-8.76c-14.84-3.77-29.56-8-44.35-12-3.53-1-7.1-1.78-10.66-2.59l-18.36-4.71a28.63,28.63,0,0,0-3.44-2Q386.88,163.26,355.89,147c-.88-.46-1.81-.82-2.73-1.21-1.35-.58-3,.2-3,1.49-.09,3-.19,6-.19,9q0,21.51.05,43a48.42,48.42,0,0,1-1.67,13.84c-2.54,8.68-7.94,14.43-16.57,17.19-5.74,1.84-11.72,2.5-17.62,3.5a288.76,288.76,0,0,1-29.82,3,165.26,165.26,0,0,1-31.92-1.35A159.36,159.36,0,0,1,213,224.85a209.56,209.56,0,0,1-45.82-26.29c-11-8.15-22.11-16.05-33.2-24-2.17-1.55-4.44-3-6.71-4.35a40.64,40.64,0,0,0-15-5.35,25.57,25.57,0,0,0-10.9.52c-5.46,1.45-8.11,4.49-7.86,10a116.65,116.65,0,0,0,1.4,12.9c.57,3.61,1.53,7.16,2.35,10.73,3.51,15.34,5.5,30.82,4.71,46.59a60.93,60.93,0,0,1-1.86,12.83c-2.7,10.08-9.21,16-19.49,17.56-12.24,1.82-24.5,2.39-36.83.31a84.33,84.33,0,0,1-25.51-8.38,49.75,49.75,0,0,1-5.94-3.68C5,258.92,1.47,251.77,1.78,242.74a2.42,2.42,0,0,1,2.5-2.39,23.72,23.72,0,0,1,2.93.58,30.59,30.59,0,0,0,10.85,1.39c2.1-.11,5.2,1.32,6-1.59.57-2-2.2-3-3.72-4.13-3.46-2.59-7.13-4.91-10.58-7.53-4.33-3.3-7.67-7.41-9.15-12.77a3.37,3.37,0,0,1,0-1.94c.2-.55.74-1.28,1.22-1.35a8.14,8.14,0,0,1,2.94.2c11.71,2.59,23.4,5.23,35.11,7.82,6.17,1.37,12.35,2.73,18.55,4a38.78,38.78,0,0,0,18.77-1.17,6.63,6.63,0,0,0,5-6.66,23.34,23.34,0,0,0-.62-5.93c-5.27-17.85-5.73-36.11-4.94-54.5.44-10.32.72-20.65,1.2-31,.27-6,.83-12,1.2-18,.38-6.31.75-12.63,1-19a41.49,41.49,0,0,1,1.55-10.83,22.49,22.49,0,0,1,10.29-13,38.07,38.07,0,0,1,15.08-5,56.2,56.2,0,0,1,33,5.5,86.19,86.19,0,0,1,18.94,12.92c5.45,4.9,10.78,10,15.8,15.29,6.62,7,12.85,14.43,19.32,21.61,4.46,5,8.95,9.88,13.61,14.64a79.51,79.51,0,0,0,14,11.28,45.06,45.06,0,0,0,4.42,2.29c1.14.55,3.06-.4,3.09-1.58.07-3,.45-6,0-8.94a350.15,350.15,0,0,1-3.48-44.82c0-2-.24-19.09-.28-20.38,0-.8,2.19-34.4,2.19-34.4.27-2,.25-4,.54-6C230.39,12.3,236.36,5.29,252,2.09a84.48,84.48,0,0,1,47.21,3.57c3.43,1.28,6.8,2.72,10.25,4,2.81,1,5.68,1.9,8.56,2.7l90.81,52.85q17,9.47,34.12,18.75S476.1,97.67,482,100a131,131,0,0,0,31.91,8q11.39,1.51,22.83,2.67,17.89,1.81,35.81,3.4c12.61,1.13,25.23,2.17,37.85,3.2q4.49.36,9,.42l34-2c14,.56,28,.87,42-.16a168.24,168.24,0,0,0,24.76-3.19c9.74-2.21,19.52-4.27,29.23-6.58L786.16,93c1.2-.59,2.37-1.21,3.55-1.83l81.93-43.45a35.66,35.66,0,0,0,4.22-2.6l12.81-7.66a33.55,33.55,0,0,0,14.19-6.36L911.63,28c2.53-.87,5-1.67,7.52-2.59,5.93-2.22,11.79-4.63,17.76-6.72,13.72-4.8,27.8-6.77,42.31-4.79a67,67,0,0,1,21.8,6.91,32.07,32.07,0,0,1,5.82,3.85,20,20,0,0,1,7.49,13.66c.24,2.32.43,4.65.53,7,.39,9,.71,18,1.1,27,.36,8.32.82,16.64,1.15,25,.21,5.32.25,10.66.38,16,.06,2.66.1,5.32.21,8,0,1.28,1.62,2.06,3,1.58a74.7,74.7,0,0,0,13.44-6.58c6.27-3.8,12.5-7.66,18.78-11.45,8-4.82,16-9.64,24-14.38q4.3-2.55,8.8-4.75a65.41,65.41,0,0,1,36.9-6.31,97.57,97.57,0,0,1,25,6.57c11.37,4.51,18.33,13,21.82,24.45a45,45,0,0,1,1.64,18.78c-2.33,19.18-4.44,38.39-6.49,57.6a108.74,108.74,0,0,0-.57,14c.19,8.32,3.54,12.68,11.58,15.54a69.22,69.22,0,0,0,18.57,3.67c4,.27,8,.35,12,.68,3,.24,5.95.68,8.91,1.16,2.45.39,4.14,1.95,5.52,3.95C1222.22,228.09,1222,230.12,1219.66,231.7Z"/>
    </g>
    <path d="M1220.59,225.73c-1.38-2-3.07-3.56-5.52-3.95-3-.48-5.93-.92-8.91-1.16-4-.33-8-.41-12-.68a69.22,69.22,0,0,1-18.57-3.67c-8-2.86-11.39-7.22-11.58-15.54a108.74,108.74,0,0,1,.57-14c2.05-19.21,4.16-38.42,6.49-57.6a45,45,0,0,0-1.64-18.78C1166,99,1159,90.43,1147.63,85.92a97.57,97.57,0,0,0-25-6.57,65.41,65.41,0,0,0-36.9,6.31q-4.49,2.2-8.8,4.75c-8,4.74-16,9.56-24,14.38-6.28,3.79-12.51,7.65-18.78,11.45a74.7,74.7,0,0,1-13.44,6.58c-1.35.48-2.92-.3-3-1.58-.11-2.66-.15-5.32-.21-8-.13-5.33-.17-10.67-.38-16-.33-8.33-.79-16.65-1.15-25-.39-9-.71-18-1.1-27-.1-2.32-.29-4.65-.53-7a20,20,0,0,0-7.49-13.66,32.07,32.07,0,0,0-5.82-3.85,67,67,0,0,0-21.8-6.91c-14.51-2-28.59,0-42.31,4.79-6,2.09-11.83,4.5-17.76,6.72-2.47.92-5,1.72-7.52,2.59l-8.77,3.08a33.55,33.55,0,0,1-14.19,6.36l-12.81,7.66a35.66,35.66,0,0,1-4.22,2.6L789.71,91.18c-1.18.62-2.35,1.24-3.55,1.83l-36.84,12.72c-9.71,2.31-19.49,4.37-29.23,6.58a168.24,168.24,0,0,1-24.76,3.19c-14,1-28,.72-42,.16l-34,2q-4.5-.06-9-.42c-12.62-1-25.24-2.07-37.85-3.2q-17.91-1.59-35.81-3.4-11.43-1.16-22.83-2.67A131,131,0,0,1,482,100c-5.85-2.36-39-16.11-39-16.11q-17.1-9.3-34.12-18.75L318,12.32c-2.88-.8-5.75-1.69-8.56-2.7-3.45-1.24-6.82-2.68-10.25-4A84.48,84.48,0,0,0,252,2.09c-15.65,3.2-21.62,10.21-23.87,25.42-.29,2-.27,4-.54,6,0,0-2.22,33.6-2.19,34.4,0,1.29.24,18.39.28,20.38a350.15,350.15,0,0,0,3.48,44.82c.43,2.92.05,6,0,8.94,0,1.18-2,2.13-3.09,1.58a45.06,45.06,0,0,1-4.42-2.29,79.51,79.51,0,0,1-14-11.28c-4.66-4.76-9.15-9.69-13.61-14.64-6.47-7.18-12.7-14.58-19.32-21.61-5-5.33-10.35-10.39-15.8-15.29A86.19,86.19,0,0,0,140,65.57a56.2,56.2,0,0,0-33-5.5,38.07,38.07,0,0,0-15.08,5,22.49,22.49,0,0,0-10.29,13,41.49,41.49,0,0,0-1.55,10.83c-.24,6.33-.61,12.65-1,19-.37,6-.93,12-1.2,18-.48,10.32-.76,20.65-1.2,31-.79,18.39-.33,36.65,4.94,54.5a23.34,23.34,0,0,1,.62,5.93,6.63,6.63,0,0,1-5,6.66A38.78,38.78,0,0,1,58.46,225c-6.2-1.27-12.38-2.63-18.55-4-11.71-2.59-23.4-5.23-35.11-7.82a8.14,8.14,0,0,0-2.94-.2c-.48.07-1,.8-1.22,1.35a3.37,3.37,0,0,0,0,1.94c1.48,5.36,4.82,9.47,9.15,12.77,3.45,2.62,7.12,4.94,10.58,7.53,1.52,1.14,4.29,2.09,3.72,4.13-.82,2.91-3.92,1.48-6,1.59a30.59,30.59,0,0,1-10.85-1.39,23.72,23.72,0,0,0-2.93-.58,2.42,2.42,0,0,0-2.5,2.39c-.31,9,3.25,16.18,10.56,21.42a49.75,49.75,0,0,0,5.94,3.68,84.33,84.33,0,0,0,25.51,8.38c12.33,2.08,24.59,1.51,36.83-.31,10.28-1.52,16.79-7.48,19.49-17.56A60.93,60.93,0,0,0,102,245.52c.79-15.77-1.2-31.25-4.71-46.59-.82-3.57-1.78-7.12-2.35-10.73a116.65,116.65,0,0,1-1.4-12.9c-.25-5.46,2.4-8.5,7.86-10a25.57,25.57,0,0,1,10.9-.52,40.64,40.64,0,0,1,15,5.35c2.27,1.39,4.54,2.8,6.71,4.35,11.09,8,22.24,15.88,33.2,24A209.56,209.56,0,0,0,213,224.85a159.36,159.36,0,0,0,39.45,10.64,165.26,165.26,0,0,0,31.92,1.35,288.76,288.76,0,0,0,29.82-3c5.9-1,11.88-1.66,17.62-3.5,8.63-2.76,14-8.51,16.57-17.19A48.42,48.42,0,0,0,350,199.27q0-21.5-.05-43c0-3,.1-6,.19-9,0-1.29,1.66-2.07,3-1.49.92.39,1.85.75,2.73,1.21q31,16.26,61.93,32.54a28.63,28.63,0,0,1,3.44,2l18.36,4.71c3.56.81,7.13,1.63,10.66,2.59,14.79,4,29.51,8.22,44.35,12a278.75,278.75,0,0,0,67.23,8.76c29.68.19,59.28,2.38,88.92,3.32,1,0,2,.14,3,.18,18,.65,35.94,1.15,53.93-.73a208.18,208.18,0,0,0,61.7-15.76c2.44-1.06,4.92-2,7.34-3.16l27.4-8.6c2-1.16,4-2.32,6.1-3.36q35.7-18,71.4-36c1.79-.9,3.61-1.72,5.43-2.53a1.93,1.93,0,0,1,2.91,1.49c.12,3.33.26,6.66.23,10-.15,18.67-.37,37.33-.5,56a91.32,91.32,0,0,0,.46,11,13.65,13.65,0,0,0,6.92,10.45,25.4,25.4,0,0,0,3.56,1.82c7.76,3.14,15.71,5.52,24.2,5.55,13.66,0,27.33.31,41,0a167.69,167.69,0,0,0,35.67-4.27,152.12,152.12,0,0,0,57.28-27.39c5-3.84,9.81-8,14.83-11.86,6.61-5.07,13.19-10.2,20.07-14.88a80.47,80.47,0,0,1,14-7.67c13.61-5.72,26.09-2.9,37.41,6a25.57,25.57,0,0,1,4.72,5.13c3.07,4.29,4.29,9.06,2.37,14.17q-3.51,9.34-7.37,18.55c-1.66,4-3.69,7.84-5.38,11.82a60.42,60.42,0,0,0-5.14,26.27,48.64,48.64,0,0,0,4.11,18.42A22.11,22.11,0,0,0,1153,286.29a34.29,34.29,0,0,0,9.83,1.57c3.33-.05,6.67,0,10-.21a64.07,64.07,0,0,0,27.57-8.12c7.1-3.91,13.09-9.11,17-16.18a4.36,4.36,0,0,0-2.57-3.09c-5.09-2.46-10.2-4.9-15.27-7.42a29.85,29.85,0,0,1-4.24-2.56,1.7,1.7,0,0,1-.28-1.63,27.22,27.22,0,0,1,3.81-3.13c6.93-4.63,13.91-9.18,20.83-13.82C1222,230.12,1222.22,228.09,1220.59,225.73ZM93.83,262a10.54,10.54,0,0,1-7.38,6.15c-10.07,2.19-20.19,4-31.25,4a64.91,64.91,0,0,1-24.74-3.87,59.56,59.56,0,0,1-14.9-7.92,26.71,26.71,0,0,1-8.46-9.61c-.39-.78.33-2.18,1.19-2.19,3.65-.05,7.3-.08,11-.11a15,15,0,0,0,10.68-4.6,3.64,3.64,0,0,0,.63-3.69,13.05,13.05,0,0,0-4.25-5.42c-2.35-1.85-4.84-3.5-7.26-5.26-2.68-2-5.4-3.89-7.13-6.83-.28-.49-.45-1.44-.18-1.77a2.08,2.08,0,0,1,1.79-.49c5.46,1.39,10.93,2.76,16.34,4.34a151.15,151.15,0,0,0,22.43,4.56,80.28,80.28,0,0,0,25.78-.61c9.54-1.83,8.69-2.31,12.21,6.67,1.81,4.63,3.48,9.34,4.91,14.1A17,17,0,0,1,93.83,262Zm2.22-42.82a16.35,16.35,0,0,1,.16,2,19.21,19.21,0,0,1-.42,1.89c-.09.27-.37.64-.59.66a3.56,3.56,0,0,1-1.85-.13,3.08,3.08,0,0,1-1.27-1.42A106.78,106.78,0,0,1,85,200.41a36.9,36.9,0,0,1-.46-12.87,11.39,11.39,0,0,1,1.39-3.67,2,2,0,0,1,1.58-.77c.55,0,1.09.58,1.57,1a1.54,1.54,0,0,1,.46.86Q92.82,202,96.05,219.16Zm240.79.06a58.72,58.72,0,0,1-7.67,4.66,76.15,76.15,0,0,1-29.76,7.83,186.88,186.88,0,0,1-33.94-.76,244.67,244.67,0,0,1-28.57-4.66,158.73,158.73,0,0,1-50.45-21.09c-10.9-7.06-21.57-14.48-32.33-21.77-8.55-5.79-17-11.71-25.61-17.43a52.74,52.74,0,0,0-13.46-6.47,27.75,27.75,0,0,0-21.34,1.6c-1.79.88-3.5,2-5.33,2.71a5.85,5.85,0,0,1-2.94.23,2.3,2.3,0,0,1-2.15-1.75,15.61,15.61,0,0,1-.45-2.94c0-5,0-10,.16-15,.17-5.33.51-10.65.78-16l-.42,0q1.23-21.45,2.46-42.9a49.31,49.31,0,0,1,.6-6c1.35-7.36,5.75-12,13.07-13.34a64.43,64.43,0,0,1,12.9-1.28A61.11,61.11,0,0,1,146.24,75.5a79.14,79.14,0,0,1,12.31,10.17c5.59,5.72,11.17,11.46,16.55,17.37,8.3,9.13,16.91,17.95,26,26.27,10.82,9.89,21.78,19.63,32.67,29.44,2,1.79,4,3.52,5.91,5.4a59.45,59.45,0,0,0,23.77,14.26,120.77,120.77,0,0,0,27.24,6.05c11.61,1,23.22,2.17,34.5,5.38,2.56.73,5.17,1.35,7.64,2.31,5,2,8,5.82,9.18,11a24.59,24.59,0,0,1,.45,3C343.07,211.56,341.25,216,336.84,219.22Zm6.62-59.88c-1.24,5.93-1.18,11.88-.94,17.86a39.32,39.32,0,0,1-.27,5.94,2,2,0,0,1-1.31,1.33,8.9,8.9,0,0,1-3,0c-7.59-.91-15.19-1.73-22.74-2.84-11.83-1.75-23.65-3.58-35.44-5.6a105.92,105.92,0,0,1-24.62-7.86,24.68,24.68,0,0,1-14-14.77c-3.12-8.84-2-17,4.29-24.2A34.72,34.72,0,0,1,264,118.1c5.82-1.4,11.72-2.45,15.9-2.08a85.28,85.28,0,0,1,32,6.14c4.63,1.82,9.25,3.69,13.8,5.71a52.25,52.25,0,0,1,7.89,4.2A22.46,22.46,0,0,1,344,151.4,36.29,36.29,0,0,1,343.46,159.34ZM876.66,142a539.22,539.22,0,0,1-129.58,56.7,243.57,243.57,0,0,1-61,9.41c-16,.43-32-.23-48-.85-13.65-.53-27.31-.79-41-1.36-18.31-.76-36.63-1.37-54.91-2.65-25-1.74-49.36-7.27-73.35-14.44-16.93-5.06-33.47-11.18-50-17.37-25.74-9.64-26.35-10-50.47-23.86-13-7.48-25.94-15-39-22.43-5.21-3-10.5-5.81-16-8.28a75.15,75.15,0,0,0-29.91-7.1c-13.82-.23-26.21,4-37.66,11.38-2.51,1.63-4.89,3.47-7.4,5.1a6.56,6.56,0,0,1-2.75,1,1.83,1.83,0,0,1-1.52-.84,24.28,24.28,0,0,1-1.06-4.82,421.09,421.09,0,0,1-1.84-44.92c.19-15.33,1.25-30.62,2.71-45.88A35.09,35.09,0,0,1,235.77,23,19.44,19.44,0,0,1,249.61,9.75c10.4-2.84,20.93-4,31.59-1.4,13.61,3.39,26.92,7.63,39.28,14.41q21.88,12,43.66,24.28,29.64,16.59,59.23,33.26c2.33,1.31,4.7,2.52,7,3.84a241.59,241.59,0,0,0,68,25.52q21.47,4.68,43,9a234.22,234.22,0,0,0,27.72,3.57c20.3,1.62,40.61,1.39,60.93,1.22,14.66-.12,29.33-.16,44,.22a108.59,108.59,0,0,0,24.84-2c19.56-4,39.14-8,58.5-12.93a229.14,229.14,0,0,0,48.48-18.32c11-5.65,21.72-11.64,32.54-17.52,13.46-7.32,26.79-14.88,40.36-22,18-9.44,36.54-17.77,56-23.72,7.31-2.24,14.78-4,22.18-5.9s15.2-2,22.85-1.27a44.24,44.24,0,0,1,21.37,7.75A32.34,32.34,0,0,1,1007,33.2a11.25,11.25,0,0,1,2.8,7.32c.08,3.66.19,7.33.31,11q.57,17,1.17,34h.15c.21,13.66.45,27.32.61,41a16.29,16.29,0,0,1-.67,3.82c0,.18-.58.29-.9.33a1.71,1.71,0,0,1-.93-.09c-1.17-.63-2.35-1.25-3.45-2-18.19-12.07-38.32-14.81-59.39-11.68A188,188,0,0,0,876.66,142Zm17.77,55.82c-1.59-4.57-.34-9.21-.32-13.82,0-5.32.45-10.64.7-16l.26,0q.48-10,.95-20c.12-2.66.23-5.32.42-8a4.34,4.34,0,0,1,2.67-3.9c17.89-7.41,36-13.92,55.57-15.28a85.52,85.52,0,0,1,40.87,7.3,38,38,0,0,1,12.9,9.26c6,6.61,7.32,15.78,3.44,23.17a21,21,0,0,1-8.38,8.34,45.16,45.16,0,0,1-13,4.88c-6.49,1.45-13,2.83-19.55,4-11.46,2-22.94,4-34.45,5.76a104.28,104.28,0,0,0-28.45,9C903.64,194.66,899.79,198.28,894.43,197.81Zm251.31-27.3a53.87,53.87,0,0,0-18.56-7.07,43.68,43.68,0,0,0-20.69,1.71,58.09,58.09,0,0,0-16.81,8.67c-3.78,2.73-7.42,5.66-11,8.58-7.8,6.25-15.53,12.59-23.33,18.85-21.09,16.89-45.34,26.43-71.88,30.33a241,241,0,0,1-50.87,1.62c-3.66-.24-7.31-.58-11-.87a44.54,44.54,0,0,1-18.81-6.23,18.87,18.87,0,0,1-4.55-3.81,7.48,7.48,0,0,1-.7-9.27,25.39,25.39,0,0,1,3.76-4.63c8.4-7.92,18-13.69,29.45-16,7.17-1.49,14.37-2.86,21.58-4.17a394.14,394.14,0,0,0,49.41-12.3,54.16,54.16,0,0,0,6.54-2.46,21.54,21.54,0,0,0,7.9-6c2.61-3.23,4.21-6.85,4-11a76.23,76.23,0,0,0-1.2-8.89c-1.8-9.91,1.48-17.72,9.72-23.38a54.55,54.55,0,0,1,8.68-4.91c12.81-5.73,24.85-12.83,36.64-20.39.85-.54,1.71-1,2.54-1.6,13.22-8.79,27.86-12.42,43.61-12,3,.08,6,.37,9,.53,16.82,1,36.42,14.3,35.93,40.46,0,2.33-.31,4.65-.54,7.88-.67,13.43-2.71,27.61-4.61,41.81a2,2,0,0,1-3,1.34C1153.13,175,1149.46,172.71,1145.74,170.51Zm57,61.11c-2.66,2.48-5.31,5-8,7.4-3,2.66-5.82,5.5-7.52,9.19a25.35,25.35,0,0,0-1.43,4.73,3.35,3.35,0,0,0,1.63,3.34c1.19.59,2.37,1.2,3.59,1.71,3.69,1.51,7.43,2.9,11.09,4.49a18.72,18.72,0,0,1,3.15,2.25,15.45,15.45,0,0,1-1.86,2.73,52.79,52.79,0,0,1-37.14,14.45,38,38,0,0,1-8.85-1.32,19.5,19.5,0,0,1-11.92-8.42c-5.33-7.87-7.15-16.35-4-25.57a34.57,34.57,0,0,1,2.15-5.56q7.38-13.57,15-27c.4-.71,1.55-1,2.35-1.46.92.76,1.75,1.33,2.45,2a38.42,38.42,0,0,0,18.16,9.92c5.47,1.37,11,2.41,16.53,3.63,1.28.29,2.55.68,3.81,1.06C1202.71,229.46,1203.31,231.08,1202.73,231.62Z"/>
</svg>