<svg id="Layer_1" data-name="Layer 1" xmlns="http://www.w3.org/2000/svg" viewBox="0 0 500 500"><g id="_3KRd9V" data-name="3KRd9V"><path d="M88,460.65c-6.08,0-9.89-3.57-13.14-7.93-2.49-3.35-4.71-6.9-7.15-10.29a41.51,41.51,0,0,0-4.17-5A17.29,17.29,0,0,0,60,435c-1.11-.65-1.47-1.53-.74-2.6,1.27-1.87,2.6-3.71,3.9-5.57l3.7-5.21-1.06.11c-2.35.22-4.71.48-7.07.65-7.39.54-13.5-2.17-18.58-7.45a54.31,54.31,0,0,1-9.47-13.66c-3.42-6.89-6.65-13.88-10-20.82-.31-.66-.73-1.26-1-1.92a1.5,1.5,0,0,1,.44-1.95,1.45,1.45,0,0,1,2,0c5.33,4.58,11.76,6.73,18.43,8.37a54.17,54.17,0,0,0,12.24,1.24,94.11,94.11,0,0,1,11.52.68,35.7,35.7,0,0,1,15.54,5.61c.08,0,.16-.06.18-.11,1.51-4.8,4.24-9,6.95-13.12,1.36-2.1,2.79-4.15,4.13-6.26.71-1.1,1.31-2.27,1.93-3.43a1.69,1.69,0,0,1,1.76-1,26.93,26.93,0,0,0,5.38.09c4.4-.7,8.77-1.67,13.15-2.53a52.72,52.72,0,0,1,15.79-1.1c1.07.11,2.12.46,3.19.61a1.94,1.94,0,0,0,1.2-.25,49.91,49.91,0,0,1,5.24-3.3c3.82-1.76,7.7-1.31,11.48.35a1.62,1.62,0,0,0,1.62-.11,34.25,34.25,0,0,1,22.06-3.73,7.68,7.68,0,0,1,2.32.79,1.82,1.82,0,0,1,1,2.31,6.53,6.53,0,0,0,2.24,7.11,66.13,66.13,0,0,0,6.29,4.72c3.41,2.34,6.95,4.51,10.31,6.92a13.88,13.88,0,0,1,4.73,5.84,11.94,11.94,0,0,1-.69,10.58c-1,1.88-2.28,3.6-3.44,5.39-.19.3-.43.57-.72,1l1.28.38a14.93,14.93,0,0,1,9.69,7.65c1.76,3.34,3.43,6.67,3.86,10.49.69,6.12-1.15,11.56-4.41,16.64a47.37,47.37,0,0,1-7.77,9,9.47,9.47,0,0,0-3.17,6.69c-.09,1.74-.09,3.48-.19,5.22a15.41,15.41,0,0,1-3.19,8.57,8.83,8.83,0,0,1-5.7,3.4c-1.25.25-2.51.48-3.78.71a5.58,5.58,0,0,0-4.8,4.82c-.21,1-.23,2.09-1.49,2.43a3.41,3.41,0,0,1-3.56-.88,21.48,21.48,0,0,1-2.06-3,8.41,8.41,0,0,1-.51-1.15l-.37,1c-.66,1.68-1.24,3.4-2,5.05A14.39,14.39,0,0,1,156.45,489a33.09,33.09,0,0,1-5.69.59,44.8,44.8,0,0,0-18.07,3.49,21.43,21.43,0,0,1-2.54.8c-6.79,2-12.57.14-17.3-4.94-2.15-2.3-3.93-4.93-5.9-7.39-1.48-1.85-2.89-3.77-4.53-5.46a16.78,16.78,0,0,0-11.09-5A51.74,51.74,0,0,0,85.9,471c-1.94,0-2.57-.7-2.07-2.61a18.4,18.4,0,0,1,3.39-6.74Zm80.64-57.93a11.11,11.11,0,0,0-.52,2.67,29.48,29.48,0,0,0,.7,5c.59,2.59,1.56,5.11,2,7.72,1.48,8.83.54,17.3-4,25.22-1.54,2.68-3,5.43-5.2,7.63-2.88,2.84-6.16,4-10.16,2.53a16.44,16.44,0,0,0-3.75-.84c-3.88-.49-7.78-.88-11.67-1.32a19.25,19.25,0,0,0-8.64,1c-1.61.56-2.22.43-3.27-.89-1.27-1.6-2.46-3.25-3.65-4.91-2-2.75-3.88-5.55-5.89-8.28a55.56,55.56,0,0,1-5.91-9.32,35.87,35.87,0,0,0-1.9-3.19c-.76,6.24-1.77,12.19-1,18.24a18.1,18.1,0,0,0,.64,3.18,42.11,42.11,0,0,0,7.2,14,16.42,16.42,0,0,0,8.26,5.74c7.82,2.34,15.82,2.73,23.86,2.48,6.66-.2,12.76-2.51,18.66-5.55,3.84-2,7.28-4.31,9.69-8a16.21,16.21,0,0,0,1.46-2.42c2.3-5.36,4.51-10.77,7.67-15.68a6.61,6.61,0,0,0,.9-5.55,3.72,3.72,0,0,0-.11-.48c-1-2.8-1.83-5.62-2.88-8.38a82,82,0,0,0-8.27-17A8.27,8.27,0,0,0,168.65,402.72Zm.55,62c-.57.29-.86.42-1.14.58-4.56,2.51-9.2,4.85-14.33,6-11.08,2.47-22,1.55-32.87-1.49a27.82,27.82,0,0,1-10.58-5.72,52.7,52.7,0,0,0-5.85-4.34,9,9,0,0,0-8-1,14.55,14.55,0,0,0-9,8.72s0,.11.08.21c.24,0,.5,0,.76,0,8.6-.17,15.18,3.46,20.09,10.45a96.3,96.3,0,0,0,6.27,8.11c3.78,4.31,8.48,6.22,14.24,4.61a21.94,21.94,0,0,0,2.54-.78,48.68,48.68,0,0,1,19.32-3.73,29.86,29.86,0,0,0,5.86-.69,10.66,10.66,0,0,0,7.88-6A54.53,54.53,0,0,0,169.2,464.75ZM135.51,383.7c-1.61-.58-3.16-1.1-4.67-1.72a33.59,33.59,0,0,0-11.28-2.62c-2.32-.1-4.36.17-6,1.93-.2.21-.5.39-.58.64-.89,2.84-3.08,4.6-5.29,6.33q-2.45,1.9-5,3.66-3.66,2.5-7.41,4.88c-1.37.88-2.9,1.54-4.24,2.46-2.06,1.42-4,3.06-4.3,5.75a13.92,13.92,0,0,0,0,3.92,93.33,93.33,0,0,0,2.08,10.53,15.38,15.38,0,0,1-.52,10.22,39.33,39.33,0,0,0-1.62,5.07c-1.3,5.56-.11,10.53,4.17,14.4a71.05,71.05,0,0,0,7.1,5.11,6.45,6.45,0,0,0,2.93,1,30.32,30.32,0,0,1,3.89,1.06l.79.28a1.67,1.67,0,0,0,0-.31,5.2,5.2,0,0,0-.26-.53,34,34,0,0,1-4.15-13.38,66.45,66.45,0,0,1,9.65-41.26c4.44-7.23,10.3-12.46,18.37-15.16C131.22,385.26,133.31,384.48,135.51,383.7Zm-11.78-7.18c.55.11.83.15,1.1.22,3.3.78,6.65,1.38,9.88,2.38,9.74,3,18.68,7.77,27.35,13.08,2.63,1.61,5.22,3.33,8,4.69a16.46,16.46,0,0,1,8.35,9.29c1,2.45,1.79,5,3,7.31a61.17,61.17,0,0,1,5,13.66c.33,1.46.68,2.92,1,4.39a1.33,1.33,0,0,0,.26-.12A5.82,5.82,0,0,0,188,431c2.34-3.62,3.71-7.47,2.85-11.86-.21-1.06-.43-2.13-.72-3.17-1-3.65-2.14-7.26-2.25-11.08a2.31,2.31,0,0,0-.27-.83c-2-4.2-4.07-8.4-6.15-12.58a3,3,0,0,0-1.08-1.32c-1.78-1-3.59-1.94-5.44-2.76a21.7,21.7,0,0,1-7.74-5.64c-2.69-3.1-5.5-6.1-8.38-9a31.62,31.62,0,0,0-9.94-7.32c-3.79-1.65-7.52-1.62-11,.83a57.46,57.46,0,0,0-4.84,4,33,33,0,0,1-7.28,5.37C125.18,375.84,124.57,376.12,123.73,376.52Zm22.33,57.77a36.5,36.5,0,0,1-4.61-2.19,14.58,14.58,0,0,1-5-6.44,7.66,7.66,0,0,1,1.28-8.65,28.82,28.82,0,0,1,4.25-4.09c3.26-2.49,6.5-2.12,9.14,1a27.21,27.21,0,0,1,5.21,9.34,9.45,9.45,0,0,1-3.47,11,23.77,23.77,0,0,1-10.23,4.43,83.31,83.31,0,0,1-19.94,1.39c-.28,0-.57,0-1,0a5,5,0,0,0,.3.5c1.74,1.92,3.44,3.88,5.25,5.74a6,6,0,0,0,4.28,1.69c4.47.22,8.93.56,13.39.91a35.29,35.29,0,0,0,11.09-.39,5.47,5.47,0,0,0,3.76-2.72,72.52,72.52,0,0,0,7.59-19.32,20.41,20.41,0,0,0,0-4.37c-1.81.84-2.41.71-3.25-.81-1.14-2.07-2.26-4.17-3.21-6.33a38.12,38.12,0,0,0-4.29-8.07c-2.75-3.6-6.1-5.23-10.65-4a34.65,34.65,0,0,0-9.23,3.91,12,12,0,0,0-3.9,3.7c-1.65,2.54-3.29,5.08-5,7.55a5.46,5.46,0,0,0-.28,5.7c1.87,4.24,4.94,7.58,8.29,10.68a5.16,5.16,0,0,0,2,1C140.78,436.34,143.4,435.07,146.06,434.29Zm-17.43-.61c-.94-1.57-1.95-3-2.75-4.61a18.08,18.08,0,0,1,2.38-20.47,32.65,32.65,0,0,1,20.79-10.34,10.1,10.1,0,0,1,9.37,4.42,49.19,49.19,0,0,1,3.42,6.31c.85,1.75,1.5,3.59,2.29,5.52a2.54,2.54,0,0,0,.22-.41,21.88,21.88,0,0,0-3.8-18.52,5.23,5.23,0,0,0-1.46-1.43,138.55,138.55,0,0,0-16.93-8.9,3.36,3.36,0,0,0-3.17.31,30.67,30.67,0,0,1-3,1.41c-.88.35-1.87.47-2.7.9-2.68,1.4-5.37,2.8-8,4.38a12.11,12.11,0,0,0-5.15,5.55,19.26,19.26,0,0,1-4.39,6.38,30.14,30.14,0,0,0-5.94,8.18,6.76,6.76,0,0,0-.69,4.68c.6,2.53,1.07,5.1,1.91,7.54a32.41,32.41,0,0,0,3,6.61C117.24,436.32,123.71,437.39,128.63,433.68Zm45.94,42.37a6.59,6.59,0,0,0,.38-.83,8.62,8.62,0,0,1,7.2-6.34c1.42-.27,2.84-.54,4.26-.83a5.17,5.17,0,0,0,3.21-2.11,12,12,0,0,0,2.46-6.46c.11-1.77.12-3.55.2-5.32a12.89,12.89,0,0,1,4.35-9.2,40.43,40.43,0,0,0,7.49-8.85c6.3-10.43,3.69-17.71-1.15-25.16a8.54,8.54,0,0,0-4.19-3.32c-1.47-.56-3-1-4.49-1.48-1.09-.32-1.32,0-1.07,1.07A61,61,0,0,1,194.48,421a19,19,0,0,1-4.5,12.54,62,62,0,0,0-8.71,14.61c-1,2.13-1.93,4.26-2.8,6.42-1.38,3.44-2.84,6.8-5.49,9.5a3.47,3.47,0,0,0-.89,3q.57,3.28,1.37,6.53A13.79,13.79,0,0,0,174.57,476.05Zm-91-59c-.08-1.91-.2-3.7-.21-5.49A1.7,1.7,0,0,0,82,409.78c-4.56-1.86-9.38-2.52-14.19-3.31s-9.5-1.31-14-2.69c-9.6-2.93-17.8-8.37-25-15.33-.38-.38-.77-.75-1.16-1.12l-.22.16c2.24,4.53,4.38,9.12,6.75,13.6a50.39,50.39,0,0,0,8.39,11.77c4.38,4.5,9.6,6.8,15.93,6.34,2.29-.16,4.59-.36,6.87-.65C71.32,417.8,77.2,416.55,83.56,417Zm107.66-13.29c2.72-2.88,5.14-5.73,6.56-9.27,1.22-3,1.15-6-.89-8.61a18.11,18.11,0,0,0-3.63-3.58c-2.68-1.94-5.56-3.62-8.3-5.49a83.53,83.53,0,0,1-7.24-5.26,10,10,0,0,1-3.82-9.45s-.05-.11-.08-.16c-4.48-1.42-15.31,0-18.77,2.49,0,.08.08.19.15.24a56.35,56.35,0,0,1,8.76,8.5c3.56,4.12,7.52,7.62,12.8,9.37a8.56,8.56,0,0,1,1.32.66,14.38,14.38,0,0,1,6.07,6.42c1.8,3.7,3.5,7.45,5.29,11.15C189.92,401.75,190.56,402.66,191.22,403.75ZM82.82,407c-.21-1.39-.44-2.68-.6-4-.57-4.77-3.24-7.91-7.55-9.8a37,37,0,0,0-12-3.31c-5-.38-9.92-.32-14.88-.6a29.71,29.71,0,0,1-12.29-2.9c-2.3-1.2-4.69-2.23-7-3.33-.24-.11-.5-.19-.86-.33a1.62,1.62,0,0,0,.15.32c9.76,10.78,21.43,18.05,36.1,20.05,5.21.7,10.36,1.79,15.53,2.77A29,29,0,0,1,82.82,407Zm8.93,49.48-3.89-4.51a23.51,23.51,0,0,1-4.8-7.63c-1.38-4.16-.88-8.31.13-12.45.45-1.82,1-3.63,1.27-5.48a14.08,14.08,0,0,0,0-4.1c-.23-1.57-1-2.14-2.56-2.12-2.23,0-4.46.22-6.69.25a6.74,6.74,0,0,0-4.29,1.76,13.7,13.7,0,0,0-2.16,2.28c-1.91,2.59-3.75,5.24-5.61,7.86-.11.16-.17.34-.28.54A22.52,22.52,0,0,1,69.14,439c2.44,3.47,4.78,7,7.22,10.48a22.88,22.88,0,0,0,6.5,6.65C85.68,457.81,88.58,457.78,91.75,456.44Zm37.33-88-.05-.23c-.52,0-1-.1-1.55-.13a57,57,0,0,0-16.68,1.95A55.93,55.93,0,0,1,96,372.12a1.16,1.16,0,0,0-.83.45c-1.59,2.38-3.21,4.74-4.68,7.19-2.26,3.74-4.46,7.51-6.56,11.34a11.31,11.31,0,0,0-1,3.48c-.17,1,.25,1.53,1.29,1.56a17.11,17.11,0,0,0,3.72-.2,27.67,27.67,0,0,0,13.76-7.48c2.13-2,3.87-4.39,6-6.38a67.32,67.32,0,0,1,14.78-10.44C124.67,370.51,126.89,369.52,129.08,368.47Zm21.35,52.17a15.15,15.15,0,0,0-4.61-4.58c-.29-.16-.85-.25-1-.08a53,53,0,0,0-4.58,4.14,3.48,3.48,0,0,0-.52,4.32,36.26,36.26,0,0,0,3.41,4.53,3.57,3.57,0,0,0,3.62,1.06c1.28-.28,2.53-.72,3.82-.95a1.78,1.78,0,0,0,1.63-1.95A7,7,0,0,0,152,425C151.56,423.51,151,422.09,150.43,420.64Zm-17,16.08c-1.1-1.4-2-1.34-3.41.21Zm33.23-36.55.93-.9-1.66-.86Z"/></g><g id="_7b3FDk" data-name="7b3FDk"><path d="M34,318.37a5,5,0,0,1,.63.18c8.64,2.78,16.22,7.48,23.31,13a59,59,0,0,1,12.8,14.51c3.53,5.36,5.61,11.3,7.32,17.36a48.61,48.61,0,0,1,1.54,14.82c-.15,4.49-.46,9-.73,13.47a8,8,0,0,1-.57,1.63,5.41,5.41,0,0,1-.33-.83,5.29,5.29,0,0,1-.07-1.19c.45-5.3-.93-10.23-3.1-15-2.33-5.1-6-9.16-10.13-12.89-4.52-4.06-8.88-8.3-13.16-12.61A15.34,15.34,0,0,1,48,345.79,118.85,118.85,0,0,0,35.8,322.23c-.81-1.23-1.58-2.49-2.46-3.86A4.25,4.25,0,0,1,34,318.37ZM58.77,348q4.33,3.57,8.62,7.21a23.14,23.14,0,0,1,5.35,7.46c1.43,2.82,2.69,5.73,4.24,8.57-.28-1.59-.48-3.21-.85-4.78a31.92,31.92,0,0,0-8.08-14.95c-2-2.07-4.58-3.53-6.87-5.31s-4.73-3.8-7.1-5.69c-.44-.35-.9-.65-1.35-1l-.27.28A27.2,27.2,0,0,0,58.77,348Z"/><path d="M49.88,255.26a99.39,99.39,0,0,1,8.79,5.55,83.78,83.78,0,0,1,8.92,8c3.37,3.48,5.72,7.69,7.87,12a52.45,52.45,0,0,1,4.67,17.54c.77,6.82-.32,13.58-1.4,20.29-.31,1.94-.94,3.83-1.42,5.73l-.41-.06a6.65,6.65,0,0,1,0-1.26,30.68,30.68,0,0,0-.26-11.3,29.85,29.85,0,0,0-5.51-12.16c-3-3.95-6.31-7.61-9.22-11.59a34.36,34.36,0,0,1-4.36-7.8c-1.28-3.31-1.83-6.9-2.91-10.29-1-3.23-2.3-6.39-3.54-9.55-.7-1.78-1.56-3.51-2.47-5.52A5.88,5.88,0,0,1,49.88,255.26ZM66.72,283.8c2.15,2.32,4.57,4.52,6.18,7.19,1.77,2.93,2.81,6.32,4,9.55.52,1.34.72,2.79,1.37,4.2,0-1.51,0-3-.14-4.54a27.34,27.34,0,0,0-4.62-12.81,62.74,62.74,0,0,0-5.46-5.86c-2-2.11-4-4.23-6-6.35A19.12,19.12,0,0,0,66.72,283.8Z"/><path d="M125.38,335.05c-4.58-6.17-10.58-9.57-18.31-8.82-4.82.48-8.72,3.08-10.36,7.76s-.67,9.76,4.3,11.53a11,11,0,0,0,7.55-.36c3.71-1.37,7.38-2.89,11-4.54,1.77-.8,3.57-1.74,4.3-3.87C124.08,336.07,124.86,335.59,125.38,335.05Z"/><path d="M117.3,363.15c1.65-.17,3.31-.28,4.94-.52a5.61,5.61,0,0,0,4.07-3.1,16.84,16.84,0,0,0,1.91-7.48,30.89,30.89,0,0,0-.74-8.64c-.09-.41-.61-.78-1-1.07-.84-.6-1.72-1.14-2.61-1.67-.35-.21-.85-.55-1.14-.44-3.81,1.4-7.72,2.71-10.73,5.54-2.6,2.43-4.47,5.31-3.9,9.23C108.56,358.26,113.19,362.63,117.3,363.15Z"/><path d="M128.38,342.61c.69,3.7,1.2,7.32,2.08,10.86a19.64,19.64,0,0,0,2.42,5.12c1.36,2.29,5.13,3.52,8.66,2.66a8.36,8.36,0,0,0,6.31-7.72c.09-2.19.61-4.38-.38-6.5-1.53-3.29-3.69-6-7.36-6.84a52.22,52.22,0,0,0-6.27-.85c-.25,0-.69.08-.78.26C132.18,341.42,130.53,342.08,128.38,342.61Z"/><path d="M88.35,351.29a5.83,5.83,0,0,1-.56-1c-.69-2.5-1.49-5-2-7.52-2.15-10.35.32-19.68,6.44-28.15a54.71,54.71,0,0,1,11.6-11.34c1.31-1,2.8-1.77,4.53-2.85-.41,1.08-.7,1.76-.94,2.46-1.45,4.2-3.16,8.35-4.26,12.64a28.43,28.43,0,0,1-5.21,11,111,111,0,0,0-6.78,9.12,19,19,0,0,0-3,12.89c.11.9.33,1.78.51,2.66Zm.82-20.69c1.19-3.22,3.73-5.52,5.89-8.06A16.59,16.59,0,0,0,98.58,316c-2.88,3.16-5.81,6-8.22,9.15A17.66,17.66,0,0,0,86.7,337.3a7.08,7.08,0,0,0,.11.74C87.58,335.59,88.27,333.06,89.17,330.6Z"/><path d="M27.54,286c2.09,1,2.9,2.36,2.5,4.41-.05.26.43.87.73.93,3.9.73,7.78,1.82,11.81,1.43,2.44-.23,4.76-.75,6.64-2.57a7.56,7.56,0,0,0,1.25-8.55c-3.64-7.46-15.59-7.73-20.39-.15C29.2,282.93,28.44,284.42,27.54,286Z"/><path d="M34.71,292.75c-1.27-.11-2.55-.26-3.83-.33s-3.31,1.86-3.33,3.29a44.72,44.72,0,0,0,.71,8.93c.67,3.61,4.89,6.91,8.83,7.19s6.32-1.93,8.46-4.73a9,9,0,0,0,1.59-6.79,5.58,5.58,0,0,0-3.22-4,97.38,97.38,0,0,0-9.09-3.83Z"/><path d="M111.12,282.3a8.09,8.09,0,0,0,9-4.74c1.22-2.61.19-6.25-2.15-8.58s-5.17-3.44-8.13-4.49c-.46-.16-.9-.36-1.34-.55-1.26-.53-2.54-1.33-3.57.38a1,1,0,0,1-.69.35c-1.68.08-1.56,1.17-1.54,2.4.08,3.46.27,6.87,2,10A10.26,10.26,0,0,0,111.12,282.3Z"/><path d="M101.72,272.42c0-2.2,0-4.39-.18-6.57,0-.41-.59-.84-1-1.14-.8-.58-1.65-1.08-2.49-1.59-.29-.18-.61-.46-.9-.44-3.35.18-6.76.41-9.69,2.16a8.15,8.15,0,0,0-2.54,11.34c1.42,2,3.64,2.68,5.81,3.44C96.24,281.56,100.81,277.16,101.72,272.42Z"/><path d="M82.06,393.22a62.84,62.84,0,0,0,3.1-19.17,79.09,79.09,0,0,0-4.23-25.2A100.81,100.81,0,0,0,72,329a81.35,81.35,0,0,0-15.25-18.87,36.22,36.22,0,0,0-6.65-4.18c-.47-.26-1.28.08-1.94.14.16.68.09,1.59.52,2,1.29,1.3,2.78,2.4,4.17,3.62,2.24,2,4.71,3.77,6.61,6,3.49,4.15,6.7,8.53,9.9,12.91,3.43,4.69,5.76,10,7.89,15.37a112.93,112.93,0,0,1,4,11.9,58.59,58.59,0,0,1,2.07,18.59c-.29,5.29-.82,10.56-1.23,15.85A8.58,8.58,0,0,0,82.06,393.22Z"/><path d="M105.08,350.37a4,4,0,0,1-.75.92,24.46,24.46,0,0,0-2.8,3.16,68.71,68.71,0,0,0-5.22,9.31,54.67,54.67,0,0,0-3.64,11.72c-.09.54-3.53,6.88-3.33,2.13.41-9.58,3.46-17.24,8.92-25a22.78,22.78,0,0,1,4.7-4.37,1.75,1.75,0,0,1,2.42-.2C106.29,348.88,105.4,349.62,105.08,350.37Z"/><path d="M26.22,296.08c-1.48-.45-2.72-.86-4-1.19a1.5,1.5,0,0,0-.87.2c-5.27,2.34-7.18,6.77-7.35,12.15A7.27,7.27,0,0,0,19.2,314c.88.25,1.81.38,2.71.56,2.88.58,5.87-2.5,5.53-5.42C26.93,304.75,26.6,300.31,26.22,296.08Z"/><path d="M119.55,321.53a6,6,0,0,0,1,5.46c1.76,2.41,3.61,4.76,5.49,7.07a2.38,2.38,0,0,0,1.42.5c.47.06,1-.2,1.43-.07,1.29.39,1.78-.27,2.24-1.32a15.2,15.2,0,0,0,1-9.42c-.71-3.4-4.43-7.3-9.13-5.66A5.4,5.4,0,0,0,119.55,321.53Z"/><path d="M135.83,338.34c2.52.31,5.07.82,7.57-.19,3.39-1.37,4.64-4.6,2.64-7.62-2.78-4.19-5.52-4.85-9.7-2.9A7,7,0,0,0,134,330c-.89,1.26-1.56,2.66-2.34,4a1.1,1.1,0,0,0,.33,1.69,1,1,0,0,1,.43.48C132.81,338,134.26,338.28,135.83,338.34Z"/><path d="M98.63,259.72c-2.74-3.67-6.1-6.18-10.94-6.07-3,.07-6.82,3.19-7.35,6.19a3.69,3.69,0,0,0,4.76,4.4c2.52-.62,5-1.29,7.56-1.84a17.49,17.49,0,0,1,3.4-.32c.84,0,1.41-.15,1.65-1.09C97.82,260.56,98.25,260.22,98.63,259.72Z"/><path d="M34.18,206.74C56,218.15,69.9,235.51,76.41,258.87c1.11-4.23-6.16-22.56-13.19-31.57C54.13,215.67,39.22,207,34.18,206.74Z"/><path d="M82.62,291.21a75,75,0,0,0-9.05-27.12A66.89,66.89,0,0,0,45,236.23l-.4.44c1.07.78,2.12,1.59,3.2,2.35a77.78,77.78,0,0,1,17.31,16.22,118.73,118.73,0,0,1,7.12,10.82,56.94,56.94,0,0,1,4.31,8C78,277.63,79,281.35,80.15,285c.68,2.11,1.29,4.25,1.93,6.38Z"/><path d="M86.26,320.09c1.77-2.73,3.53-5.47,5.32-8.19a41.8,41.8,0,0,1,11.74-11.85A43.55,43.55,0,0,1,124,292.86a50.57,50.57,0,0,1,7.26.3c1.49.09,3,.26,4.73.41-8-3.51-21.65-2.36-30.79,2.53-9.8,5.24-15.43,13.81-19.21,23.84Z"/><path d="M24.12,276.18c-2.87-.4-4.86.08-6.55,1.59a4.48,4.48,0,0,0-.42,6.32,34.76,34.76,0,0,0,5.15,3.8c.25.17.85,0,1.21-.22.54-.28,1-.88,1.53-1,1.32-.33,1.59-1.24,1.77-2.39.35-2.11.78-4.25-.59-6.13A11.78,11.78,0,0,0,24.12,276.18Z"/><path d="M107.62,263c1.75-.1,3.5-.1,5.24-.3a4.82,4.82,0,0,0,4-4.7,5.12,5.12,0,0,0-4-5c-3-.62-5.45-.21-7,2.76-.41.83-.89,1.63-1.23,2.48s-.66,1.79.47,2.75C107,262.49,106.85,262.64,107.62,263Z"/><path d="M21.85,289.09a10.91,10.91,0,0,0-7-2.25c-2,0-4.5,2.91-4.74,5.25-.36,3.62,2.69,6.09,6.12,4.76A26.42,26.42,0,0,0,20.93,294a1.75,1.75,0,0,0,.47-1.12C21.57,291.73,21.68,290.57,21.85,289.09Z"/><path d="M82.86,332.74c0-1.47-.06-2.94-.07-4.41A117.88,117.88,0,0,1,88.57,290c.79-2.38,1.92-4.64,2.75-7a7.82,7.82,0,0,0,0-2.47,7.5,7.5,0,0,0-1.72,1.53,33.51,33.51,0,0,0-3.94,10.76c-1.45,7.26-2.94,14.54-4,21.88a57.26,57.26,0,0,0,.52,17.52,4,4,0,0,0,.22.57Z"/><path d="M104.66,255.43a6.37,6.37,0,0,0-4.11-7.24,4.6,4.6,0,0,0-5.79,2.73c-.51,1.48.19,2.71.94,3.82s1.92,2.08,2.71,3.23c1,1.53,2.58,1.41,4.09,1.42a.93.93,0,0,0,.7-.45C103.72,257.78,104.18,256.6,104.66,255.43Z"/><path d="M29.44,343.17C40.19,348.32,48,356.88,55.74,366,54.14,358.06,38.3,344.33,29.44,343.17Z"/><path d="M43.93,232c1.7,2.25,3.22,4.64,6.4,5.24a22.4,22.4,0,0,1,3.87,1.46,6.55,6.55,0,0,0-5-6.41c-1.67-.32-3.36-.62-5-.93Z"/><path d="M59.37,230.7a43,43,0,0,0-3.87,2.94c-1.18,1.11-1.2,4.05-.18,5.29a1.15,1.15,0,0,0,1,.38A7.48,7.48,0,0,0,59,237.76C60,236.55,60.17,232.65,59.37,230.7Z"/><path d="M64.4,247c-1-5.12-3.22-7.71-8.21-6.8C58.61,242.87,59.92,246.79,64.4,247Z"/><path d="M86.64,312.58c2-3.67,3.68-7.13,5.68-10.4s4.29-6.31,6.3-9.24C94.14,295,87,306.29,86.64,312.58Z"/><path d="M126.85,289.93c-1.84-2.84-6.66-2.91-8.64-.13C121.05,292,124,290.44,126.85,289.93Z"/><path d="M126.75,283.19a23.71,23.71,0,0,0-1.11,2.9,3,3,0,0,0,2,3.47,1,1,0,0,0,.8-.15,2,2,0,0,0,.8-2.57c-.57-1.29-1.31-2.5-2-3.75Z"/><path d="M128.79,290.06c2.51,1,4.85,2.41,7.58,1C133.64,288.1,131.34,287.79,128.79,290.06Z"/></g></svg>