<svg id="Layer_1" data-name="Layer 1" xmlns="http://www.w3.org/2000/svg" viewBox="0 0 500 500"><g id="YYsIYW"><path d="M294.92,404.73a8.49,8.49,0,0,1,4.89,5.09c.41,1,2,1.51,3,2.25-.79,1-2.32,2.11-2.26,3.09.32,5.32-2.35,9.6-4.2,14.22-1.5,3.78.57,6.27,4.72,6.29s7.76-1.42,10-4.76c2.57-3.88,4.43-8.24,6.53-12.42.18-.36-.08-1-.31-1.44-.07-.12-.83,0-1.17.21-1,.58-1.95,1.33-3,1.86a4.24,4.24,0,0,1-1.61.11,6.19,6.19,0,0,1,.28-1.53c.17-.38.61-.62.91-.94,3.25-3.44,3.25-6.35,0-9.86a10.42,10.42,0,0,1-1.18-1.31,3.46,3.46,0,0,1-.23-1.2c.39,0,.83-.2,1.15-.06,1.2.54,2.35,1.21,3.55,1.75a3,3,0,0,0,1.16,0c0-.4.1-.9-.1-1.18a39.61,39.61,0,0,1-6-15.5c-.58-3.09-5.62-5.46-9.47-4.81-1.58.27-3.11.85-4.68,1.24a4.43,4.43,0,0,1-1.25-.06,4.41,4.41,0,0,1,.28-1.11c1-1.78,2.45-3.07,4.53-3a34.61,34.61,0,0,1,7.76,1c1.73.49,2.44.86,3-1.34,1.65-6.18,6.89-9.73,13.54-9.57,6.1.16,12.4,5,13.67,10.69a25.2,25.2,0,0,1,.51,6.13c-.1,3.51-.22,3.5,3.17,1.88,2.83-1.34,5.76-2.31,8.95-1.85a8.86,8.86,0,0,1,2.92.85c.49.26,1.06,1.2.92,1.61s-1.15,1.16-1.59,1c-8.28-2.22-13.2,3.16-18.23,8.09a46.35,46.35,0,0,0-4.39,5.53,4.13,4.13,0,0,0-.57,1.47c3.7,1.79,1.2,2.1-.57,2.73-.2.08-.29,1.17-.06,1.59a13.69,13.69,0,0,0,1.72,2.11c-.84,0-1.68-.13-2.51-.12a5.94,5.94,0,0,0-1.22.27,5.75,5.75,0,0,0,1,.67c9.32,3.85,17,3.8,25.55-4.24a11.93,11.93,0,0,0,4.22-9.36c-.05-1.64-.13-4,1.79-3.91,2.09.06,1.34,2.52,1.4,4,.16,4.22-1.91,7.6-4.45,10.75a7.58,7.58,0,0,0-.71,1.39,6.74,6.74,0,0,0,1.63-.2c2.33-.9,4.66-1.8,6.94-2.84a4.3,4.3,0,0,1,4.57.11l-.14-.16c-.75,3.09-3.84,2.82-5.89,4-1.29.74-1.56,1.05-.28,2a36.27,36.27,0,0,1,3.94,3.49c2.31,2.35,4.77,4.4,8.18,4.91a2.46,2.46,0,0,1,1.25.39,11.59,11.59,0,0,1,1.29,1.57c-.53.41-1.06,1.18-1.59,1.17-4.71,0-9.45.1-14.13-.36a9.87,9.87,0,0,1-8.78-6.48c-.71-1.89-1.67-2.62-3.62-1.85a21.91,21.91,0,0,1-2.55.73c-3.25.88-3.34.9-2.26,4.35,1.64,5.21.62,10.24-1.17,15.11a10.19,10.19,0,0,1-10.21,6.27c-9.9-.85-14.74-7.36-15.45-14.77-.07-.73,0-1.48-.1-2.2a3.34,3.34,0,0,0-.54-1c-.32.23-.76.39-.93.69-.66,1.15-1.11,2.43-1.86,3.51-3.35,4.82-8.05,7.46-13.88,7.16-2.75-.14-3.1.93-3.47,3.06a15.13,15.13,0,0,1-1.92,5.79c-1.44,2.13-3.25,4.39-5.45,5.51a61,61,0,0,1-12.38,4.54,10.55,10.55,0,0,0-4.54,2.28c-5.75,5-11.42,5.46-18.36,2.08a24.45,24.45,0,0,0-7.93-2.41c-4.65-.5-8-2.67-9.15-7-.91-3.33-2.64-3.77-5.69-3.9-2.67-.12-5.39-1.34-7.88-2.51-2.22-1-3.28-3.2-3.88-5.62-.75-3-1.74-5.92-2.7-8.84a4.81,4.81,0,0,0-1.27-2.26,3.69,3.69,0,0,0-2.41-.59c-.26,0-.63,1.21-.61,1.85.22,6.58-3.88,9.75-9.27,12-6.44,2.69-17-1.43-19-10.4-.19-.86-.26-1.74-.42-2.61-.59-3.21-.55-3.16-3.07-1.21-3.8,2.95-7.71,5.36-12.94,3.75-5.08-1.56-7.91-4.76-8.66-10-.27-1.92,0-4.08-2.83-4.82-3.32-.89-3.05-1-5,2.06a25.65,25.65,0,0,1-4.85,4.86,2.33,2.33,0,0,1-2,.25c-.6-.23-1-1-1.48-1.52a5.06,5.06,0,0,1,1.22-1,7.57,7.57,0,0,0,4.65-4.42c.4-1.05.2-1.74-1-1.79-2.22-.1-4.38-.2-6.09,1.75s-3.9,3.64-5.51,5.72c-2.06,2.66-4.85,2.44-7.62,2.5-.45,0-1.3-.59-1.29-.87a2.82,2.82,0,0,1,.85-1.74,3.09,3.09,0,0,1,1.62-.61c3.39-.57,5.91-2.53,8.14-5,.5-.55,1-1.09,1.52-1.61,1.06-1.07,3-2.13,3-3.16,0-1.46-7.41-3-8.65-1.8-6.39,6.19-14.07,5.86-22,4.56a61.59,61.59,0,0,1-6-1.19c-.7-.19-1.22-1-1.82-1.55.49-.5.89-1.25,1.48-1.46,5.73-2.07,10.24-7.26,17-6.7.23,0,.48-.24.71-.37-.16-.23-.28-.54-.5-.66-3.36-1.8-6.71-3.63-10.14-5.28-.5-.24-1.53.24-2.13.65-8.57,5.83-17,2.26-25.33-.49-.62-.21-1-1.25-1.45-1.9.7-.43,1.39-1.22,2.1-1.24a26.42,26.42,0,0,0,12.19-3.54,22.69,22.69,0,0,1,3-1.15c-.9-.73-1.8-1.46-2.72-2.19-1.15-.91-2.38-1.74-3.47-2.73a8.6,8.6,0,0,0-6-2.27c-5.27-.09-9.59-2.55-13.2-6.29-.41-.41-1-.94-1-1.41a2.9,2.9,0,0,1,.8-1.83c.16-.18,1.24,0,1.41.35,2,3.6,5.75,4.38,9.17,5.6,1.1.39,2.45.08,3.69.09a25.61,25.61,0,0,0-1-3.4c-.4-.93-1.28-1.68-1.57-2.62-.17-.52.36-1.34.75-1.89a2,2,0,0,1,1.42.52c1.5,2.18,3.25,4.28,4.21,6.69a10.17,10.17,0,0,0,4.47,5.18c2.25,1.39,4.38,3,6.59,4.44a3,3,0,0,0,1.15.21A3.08,3.08,0,0,0,106,388a19.62,19.62,0,0,1-2.72-14c.35-1.92.86-4.82,2.09-5.34,2.31-1,2.38,2.3,3.63,3.55.72.73,1.25,1.66,2,2.35,5.44,4.95,6.41,11.12,4.47,17.79-.69,2.35-.32,3.46,1.74,4.47,2.51,1.22,4.92,2.65,7.39,3.94a3.77,3.77,0,0,0,1.23.17,4.34,4.34,0,0,0-.28-1.44C122,394,121.32,388,122,381.71a8.17,8.17,0,0,1,.4-2.16c.56-1.41,2-1.7,2.63-.38,2.26,4.47,6.12,7.5,9.39,11.08s3.58,7.94,3.14,12.45c-.39,4-.45,4,3.34,5.68a2.87,2.87,0,0,0,.39.2l4.1,1.19a36.27,36.27,0,0,1-1.41-3.85,44.5,44.5,0,0,1-1-5.6c-.37-3.05-.63-6.12-.84-9.19a9.45,9.45,0,0,1,.38-2.32c.81.15,1.82.05,2.39.5,7.06,5.58,11.94,12.33,10.45,21.9-.38,2.43.54,3.1,2.46,3.73,1.62.52,2.44.09,3.06-1.45a23.13,23.13,0,0,1,10.82-11.81c1.64-.89,1.51-1.58.45-3-3.77-5.06-4.16-10.92-3.29-16.89.79-5.5,5.4-8.84,11.06-8.52a17.12,17.12,0,0,1,8,2,6.38,6.38,0,0,1,1.93,1.94c.11.16-.64,1.3-.93,1.28-.81-.07-2.08-.32-2.29-.85-.75-1.84-1.71-2-3.43-1.32-.86.32-2.06-.41-3-.22a16.44,16.44,0,0,0-5.27,1.63,6.63,6.63,0,0,0-3.25,6,39,39,0,0,0,1.37,9.94c1.31,4.26,3,4.91,7.48,4.93,2.79,0,5.58.4,8.37.6a14.15,14.15,0,0,0,1.72-.08c-.3-.61-.56-1.24-.9-1.83-.22-.37-.76-.68-.76-1a2,2,0,0,1,.65-1.1c2.29,1,2.41-.16,2.14-1.94,0-.31.31-.7.49-1.05a4.75,4.75,0,0,1,.93.85c.29.5.38,1.12.68,1.61a4.26,4.26,0,0,0,1,.83,6.57,6.57,0,0,0,.61-1c.22-.53.21-1.24.58-1.61a19.11,19.11,0,0,1,2.37-1.79c.19.92.43,1.84.54,2.77.08.72-.07,1.47,0,2.2,0,.41.12,1,.38,1.14a1.35,1.35,0,0,0,1.15-.32c1.28-1.08,2.15-2.9,4.33-2.21-.64,1.43-1.25,2.88-1.92,4.29-1.06,2.21-.71,3.1,1.58,3a11.68,11.68,0,0,0,5-1.16,20.2,20.2,0,0,0,10.43-14.59,13.45,13.45,0,0,0-.06-5.25c-.94-4.33-4.34-6.25-8.67-5.17-3.94,1-6.66,3.4-8.84,6.81a68.6,68.6,0,0,1-6.11,7.46c-.81.94-1.48.72-1.81-.5a20.48,20.48,0,0,1-.65-2.11c-.15-.93-.15-1.88-.21-2.83.94.45,2.15.67,2.77,1.39,1.12,1.3,1.3.42,1.68-.43.73-1.6,1.46-3.2,2.21-4.79,2.51-5.35,6.95-7.83,12.63-8.25,5.21-.39,9.13,2.78,10,7.93.19,1.15.09,2.35.21,3.52a6.39,6.39,0,0,0,.49,1.41,4,4,0,0,0,1.08-.66c2-2.25,4.62-3,7.36-3.72s5.42-1.37,8.09-2.21c3-.95,5.91-1.68,9.07-.76a8.25,8.25,0,0,0,3.5.05c4.88-.81,9.28.42,13.64,2.54,2.59,1.27,5.49,1.88,8.25,2.81a4.67,4.67,0,0,1,1.91.81,5.81,5.81,0,0,1,.78,2,6.51,6.51,0,0,1-1.93.42,32.66,32.66,0,0,1-12.06-4c-6.4-3.41-12.69-2.17-17.61,3.14-1.07,1.15-1.8,1.79.56,2.45,5,1.39,9.78,2.77,15.12,1.62a11,11,0,0,1,6.78,1.32,18.72,18.72,0,0,0,8.4,1.92c5.72.2,8.54,3,9.26,8.64a3.07,3.07,0,0,0,.08.87c.5,1.08,1.05,2.14,1.58,3.21.55-1,1.51-2,1.56-3a31.39,31.39,0,0,0-.52-6c-.1-.69-1-1.45-.87-2a22.11,22.11,0,0,1,1.86-3.66c.26.76.55,1.51.78,2.29.34,1.08,1.19,2.44.83,3.22-1.08,2.3-1.25,3.15,1.76,2.3.41-.12,1.6,1.78,2.08,2.89a9.49,9.49,0,0,1,.32,2.95,11.14,11.14,0,0,0-1.6-1.48c-.37-.22-1-.1-1.45-.14-.19,2.88-3.37,4.89-1.57,8.57a14.76,14.76,0,0,1-.46,14.42,24.05,24.05,0,0,0-3.65,8.82,17,17,0,0,1-1.5,3.64c-1.32,3.09-2.74,6.14-3.92,9.28a54.54,54.54,0,0,0-1.54,5.71c1.93-.62,3.9-1.16,5.79-1.88,7.71-2.95,10.89-8.84,8.71-16.7A12.46,12.46,0,0,1,294.93,425a18.18,18.18,0,0,0,1-16.94A27,27,0,0,1,294.92,404.73Zm-37.71,33.58c-.17-.76-.91-1.54.64-1.91a87,87,0,0,0,9.3-2.71c4-1.47,5.31-4.12,4.46-8.12-.24-1.11-.46-1-1.34-.59-3.48,1.49-7,3-10.55,4.2-4.64,1.59-8.65-.44-12-3.21-1.94-1.58-3.58-4.44-2.28-7,2-4-.52-7.77.28-11.61,0-.21-.75-.9-1.08-.85-3.94.56-6.46,5-5.5,8.81a71.88,71.88,0,0,1,1.47,9.95c.13,1.16-.66,2.71-.14,3.47.74,1.1,2.28,1.67,3.53,2.38.63.36,1.46.4,2,.81a6.18,6.18,0,0,1,1.15,1.57c-.59.37-1.16,1-1.79,1.07-2.19.25-5.3-1.53-6-3.66a71.12,71.12,0,0,1-1.65-7.14c-.58-2.72-1.09-5.45-1.73-8.15-.5-2.16-1.54-1.86-3.11-.77-5.89,4.09-8,13.25-4.08,19.27.66,1,1.89,2.25,2.95,2.35,4.8.47,9,2.42,13.1,4.7a45,45,0,0,1,4.49,3.23c-1,0-1.93.12-2.89.06-1.83-.1-6.63,2.9-7,4.45-.47,1.85,1.51,5.45,3.71,6.51a8.14,8.14,0,0,0,3.34,1.05c4.12,0,7.62,1.69,11.24,3.43,4,1.93,7.91,2.24,12-.91a24,24,0,0,0,8.41-12.55c.48-1.58,0-2.39-1.56-2.05-2.57.55-5.08,1.38-7.63,2s-4.81,1.16-7.24,1.63c-.37.07-.86-.46-1.3-.71a4,4,0,0,1,.66-1.09,4.4,4.4,0,0,1,1.48-.89c4.77-1.43,9.56-2.78,14.31-4.27,1.35-.42,3-.87,3.8-1.87,5.84-7.27,3.72-15.11-3.12-20.86a1.4,1.4,0,0,0-1.05.05c-.52,3.11-1.37,6.25-1.29,9.36a6.74,6.74,0,0,1-1.71,5.19c-4.07,4.37-9.51,5.48-15.12,6.05C258,439,257.59,438.54,257.21,438.31ZM184,401.9c-8.71-1.22-19.66,6.64-21.27,15.84-.7,4,.67,8.11,3.67,10.14,3.6,2.45,7.16,2.13,10.68-.22.49-.32,1-.64,1.44-1,5.14-4.08,7.81-9.81,10.31-15.62a1.79,1.79,0,0,0-.7-1.6c-2.39-.49-1.49-1.23-.16-1.87,2.47-1.18,1.76-1.86-.3-2.44a.91.91,0,0,1-.39-.2c-.31-.28-.6-.58-.89-.88a10.88,10.88,0,0,1,1.07-.56c.7-.27,1.42-.51,2.13-.76a16,16,0,0,0-2.32-.64C186.14,401.94,185,402,184,401.9Zm9.54,13.45.47-.11c-.35-1.15-.69-2.29-1-3.43-.64.88-1.34,1.72-1.9,2.65a32.74,32.74,0,0,0-1.87,3.51,20,20,0,0,0-1.54,12.92A12.05,12.05,0,0,0,199,440.3c5.76.25,11.75-4.58,11.05-9.57-1-7.23-3.49-14-9.32-19a9.65,9.65,0,0,0-1.46-.86,9.49,9.49,0,0,0,0,1.6c.24,1.3.64,2.57.79,3.88,0,.47-.43,1-.66,1.5-.32-.4-.65-.79-.94-1.21-.56-.81-1.1-1.64-1.64-2.46-.47.84-.94,1.67-1.39,2.51-.21.38-.33.82-.57,1.18s-.57.51-.68.44a1.3,1.3,0,0,1-.64-.79A17.92,17.92,0,0,1,193.57,415.35Zm120.3-29.63a31.75,31.75,0,0,0,4.55,15.91,12.28,12.28,0,0,0,1.73,1.81c.15-.75.37-1.49.46-2.25.13-1.16.15-2.34.28-3.51a.79.79,0,0,1,.51-.54c.22,0,.64.16.69.34.38,1.24.69,2.5,1,3.75.94-1,1.83-2.12,2.84-3.08.33-.31,1-.29,1.5-.42a6.23,6.23,0,0,1-.08,1.15c-.13.57-.42,1.11-.5,1.68-.16,1.25-.23,2.5-.33,3.76a35.84,35.84,0,0,0,2.79-2.42c3.72-3.95,6.32-8.44,6.68-14,.33-5.29-2-9.09-6.55-11.55C321.92,372.23,313.77,377.19,313.87,385.72Zm29.18,44.6a65.63,65.63,0,0,0-2.12-7.71,4.87,4.87,0,0,0-2.88-2.3c-3.21-1-6.52-1.71-9.79-2.51a13.13,13.13,0,0,0-1.67-.2c.08.64.13,1.29.24,1.93s.26,1.06.39,1.59c-.4.06-1,.32-1.16.16-1.88-1.7-2.41-.93-2.38,1.18,0,.35-.32.7-.5,1.05-.21-.38-.43-.75-.61-1.14s-.29-.84-.5-1.22a8.18,8.18,0,0,0-.78-1,5.64,5.64,0,0,0-.48,1.14c-1,5.87-.21,11.53,3.18,16.4,2.48,3.58,6.56,4.88,10.83,4.68a6.16,6.16,0,0,0,5.82-4.07C341.56,435.72,342.24,433,343.05,430.32Zm-86.57-32.84,9.4,1.85c4.5.88,8.48,2.47,10.12,7.34.15.44.76.73,1.15,1.09a5,5,0,0,0,.2-1.68c-1.85-8-11.07-14.24-19.49-12.84a13.67,13.67,0,0,1-8.56-.92c-3.67-1.77-7.14-1.15-10.51.78a18.58,18.58,0,0,0-9.1,11.91,12.3,12.3,0,0,0,.24,5.14c.25,1.28,1.14,2.07,2.58,1.05,1.67-1.18,3.33-2.37,5.06-3.47,2.7-1.7,5.43-3.37,8.2-5,1.89-1.09,3.85-2.06,5.81-3C253.39,398.85,255.24,398.05,256.48,397.48ZM218,421.05c.32,1.7.49,3.32.94,4.86,1.24,4.21,2.77,8.35,3.86,12.6,1.68,6.57,11.87,10.09,17.17,5.79.12-.09.24-.17.35-.27.81-.72,1.06-1.61-.08-2a29.06,29.06,0,0,0-7-2.12c-3.81-.4-6.29-2.07-7.59-5.65-1.87-5.2-1.35-10.4-.06-15.6a80.44,80.44,0,0,0,.86-10.61c-.05-.29.07-.77-.07-.85-.44-.24-1.22-.63-1.43-.45C220.55,410.54,219,415.69,218,421.05Zm-.09-10.6a9.91,9.91,0,0,0,.89-1c3.78-5.39,9.9-8.7,13.06-14.67a4.69,4.69,0,0,1,1.85-1.87c4.53-2.36,7.71-6.08,10.57-10.16.4-.58.82-1.15,1.24-1.73a10.48,10.48,0,0,0-2.51.07c-3.41.88-6.76,2.08-10.21,2.77-3.79.75-6.62,2.69-8.08,6.14-2.52,5.93-4.74,12-7.05,18a5.07,5.07,0,0,0-.21,1.74C217.41,410,217.67,410.18,217.87,410.45ZM215.49,421l.4-.08c-.39-1.95-.86-3.9-1.15-5.87a15.36,15.36,0,0,1-.3-4.76c.45-2.58,1.38-5.07,2-7.62a6.65,6.65,0,0,0-.2-2.1c-.54.18-1.09.32-1.61.55-2.79,1.22-5.56,2.49-8.36,3.69-1.51.64-.73,1.07,0,1.72a21.92,21.92,0,0,1,1.83,2.12c-1-.08-2-.12-3-.26-.73-.11-1.42-.41-2.14-.52a4,4,0,0,0-1.21.18c.11.38.1.91.36,1.13,4.44,3.86,7.14,8.84,9.5,14.11.43,1,1.95,1.44,3,2.14.24-1,.49-2.07.71-3.12C215.42,421.88,215.44,421.44,215.49,421Zm57.73-10.49c.21-3.95-1.77-6.56-5.71-7.58-2.42-.63-5-.68-7.32-1.59-5.38-2.14-10.63,3.18-11.79,7.87a1.47,1.47,0,0,0,.3,1.19c.17.16.78,0,1.12-.14,2.51-1.2,5-2.46,7.49-3.67,2.81-1.35,5.45-1.07,6.41,1.57,1.24,3.4,4.22,3.8,6.64,5.27,1.74,1.05,2.37.05,2.66-1.49C273.14,411.36,273.18,410.77,273.22,410.51Zm15.7,7.76.51-.24c-1.13-2.65-1.85-5.6-3.5-7.87-1.79-2.47-3.14-4.78-3.33-7.9a6.54,6.54,0,0,0-4.79-6.22,7.68,7.68,0,0,0-2.15-.07,15.2,15.2,0,0,0,.84,2.09c.81,1.39,1.8,2.69,2.55,4.11,2.37,4.54,2,6.58-1.94,9.81-1.67,1.38-.93,1.75.35,2.8a73.81,73.81,0,0,1,6.55,6.33c1.13,1.18,2.07,2.54,3.09,3.82.55-1.64,1.13-3.27,1.63-4.92A9.09,9.09,0,0,0,288.92,418.27Zm-32,8.74a110.89,110.89,0,0,0,11-4.18c1.52-.75,2.42-2.78,3.61-4.23-1.45-1.11-2.85-2.28-4.36-3.3-1.14-.77-2.24-.73-2.72.85-1.64,5.47-5.76,7.46-11,7.91a10.29,10.29,0,0,0-1.64.39,7.59,7.59,0,0,0,1.59,1.32C254.41,426.25,255.55,426.55,256.91,427ZM134.53,399c.56-3.53-1.85-6.59-5.06-9.23-1.5-1.23-3-2.42-4.54-3.63a36.38,36.38,0,0,0,.7,6,18.59,18.59,0,0,0,6.23,9.43,13.15,13.15,0,0,0,2.26,1.2c.19-.8.38-1.6.55-2.4A9.28,9.28,0,0,0,134.53,399ZM125,408l-1.76-.08a14.11,14.11,0,0,0-9.83,3.27,4.46,4.46,0,0,0-.73,1.05,8.35,8.35,0,0,0,1.17.46c1,.22,2,.44,3,.56,4.83.55,9.42,0,13.46-3a5.1,5.1,0,0,0,.94-1.31,4.65,4.65,0,0,0-1.42-.69C128.21,408.11,126.59,408.07,125,408Zm-11.35-21c.44-5.31-3.15-8.39-6.19-11.73-.22-.24-1-.38-1.14-.22s-.27.8-.32,1.23c-.6,4.35,1.53,7.92,3.44,11.51a34.15,34.15,0,0,0,2.93,4Zm39.18,20.65a32.2,32.2,0,0,0-1.56-5.39,46.51,46.51,0,0,0-3.9-6.28c-.12-.19-1.39,0-1.41.19-.78,5.57.62,10.47,4.76,14.44,1,1,1.51.3,1.79-.65A17.38,17.38,0,0,0,152.8,407.65Zm98.79,13.68a5.81,5.81,0,0,0,1.32,0c1.27-.29,2.52-.66,3.78-1-.58-.93-1.21-1.83-1.73-2.79s-.88-1.85-1.28-2.78-.69-1.72-1-2.58a11.06,11.06,0,0,0-2.68,2.09,10.65,10.65,0,0,0-1.11,3.29C247.84,421.15,248,421.38,251.59,421.33ZM100.16,399.21a27,27,0,0,0,5-.9c1.08-.41,1.91-1.49,2.85-2.28a17.59,17.59,0,0,0-3.21-1.21c-1.54-.27-3.3-.73-4.69-.27-2,.65-3.64,2.08-5.44,3.17Zm263.77,25a4.41,4.41,0,0,0,1.52-.14c.3-.12.66-.86.54-1.1-1.58-3.31-5.75-5.77-8.91-5.38-1.13.14-1.5.61-1.06,1.75C357.15,422.29,360.1,424.19,363.93,424.25Zm-40.16-17.5c-3.25.09-5.14,1.75-5.39,4.46a3.86,3.86,0,0,0,1.09,3c1.24.95,3.94-.68,5.25-3a4.39,4.39,0,0,0,.71-2C325.44,407.66,324.61,406.76,323.77,406.75Zm-126.32-6.21c-2.19.2-5.18,4.69-4.28,6.49a3.53,3.53,0,0,0,2.58,1.76,3.73,3.73,0,0,0,3.6-3.3c.16-1.44-.56-3-1-4.46C198.27,400.76,197.66,400.64,197.45,400.54Zm64.42,12c-.14-1.42,0-3.28-2.21-3.5-1.62-.16-3.34,2-3.34,4,0,1.64,1.75,4.58,3,4.51,2.09-.1,2.1-2,2.45-3.53A11.19,11.19,0,0,0,261.87,412.57Z"/><path d="M382.07,403.87c.14-.67.08-1.52.47-1.95a10,10,0,0,1,2.24-1.36c1.87-1.15,4.47-1.9,5.38-3.58.75-1.36-.67-3.81-.85-5.81-.46-5.14.24-9.93,4.25-13.8,1.67-1.61,2.82-3.74,4.34-5.53a10.73,10.73,0,0,1,2.3-1.61,7.84,7.84,0,0,1,1.35,2.09c1.3,5.24,1.73,10.45-1,15.44-.35.65-.69,1.3-1,2a6.6,6.6,0,0,0-.24,1.19c.38,0,.85.08,1.13-.11,3.06-2,6.14-4.06,9.09-6.24a7.54,7.54,0,0,0,1.6-2.55c1-1.8,1.81-3.7,2.91-5.43a10.65,10.65,0,0,1,8.7-5.3,22.47,22.47,0,0,0,10.45-3.12,6,6,0,0,1,2.37-.29c0,.82.4,1.82.06,2.43-4.61,8.29-10.4,15-20.93,15.29a5.25,5.25,0,0,0-2.76.85c-2.42,1.66-4.73,3.49-7.07,5.27a7.88,7.88,0,0,0-.88.94,8.06,8.06,0,0,0,1.06.53c4.83,1.63,9.39,4.22,14.72,4.12a2,2,0,0,1,1.57,1.14,2.06,2.06,0,0,1-1.07,1.63c-6.34,3-13,4.79-20,3.45a15.52,15.52,0,0,1-5.43-2.79,2.7,2.7,0,0,0-3.51-.13c-1.84,1.2-3.89,2.08-5.76,3.24a2.68,2.68,0,0,1-3.6-.13Zm10.09-15.28c.12,1.31.17,2.64.39,3.93.07.44.58.81.89,1.21.31-.27.75-.48.91-.82,1.67-3.42,3.44-6.8,4.84-10.33.55-1.42.29-3.17.25-4.77,0-.19-1.23-.65-1.39-.49C395,380.46,391.52,383.47,392.16,388.59Zm36.11-15a40.79,40.79,0,0,1-5,.76c-3.73.08-5.9,2.31-7.62,5.22-.33.56-.65,1.7-.41,1.91a3.09,3.09,0,0,0,2.27.8,18.41,18.41,0,0,0,11.26-7.23,6.63,6.63,0,0,0,.53-1.18Zm-24.11,27.57c2.11-.37,3.71-.61,5.28-1a4.44,4.44,0,0,0,1.25-.81,10.24,10.24,0,0,0-1.32-1c-.64-.33-1.51-.38-2-.84-2.67-2.55-5.54-1.15-8.3-.44-1.17.29-1.76,1.45-.28,2.15A47.84,47.84,0,0,0,404.16,401.18Z"/><path d="M369.32,410l.14.16c-1.28-3.6-2.57-7.2-.45-11a2.72,2.72,0,0,0,.19-1.72c-.54-2.83,1.12-4.59,2.82-6.48,2.84-3.14,5.47-6.47,8.23-9.67.43-.5,1.18-1.13,1.67-1a2.15,2.15,0,0,1,1.34,1.48c.92,5.88.85,11.68-2,17.14-.61,1.17-1.26,2.59-3,1.56-1.86-1.12-.26-2.2.13-3.33.81-2.34,1.55-4.7,2.18-7.09a5.64,5.64,0,0,0-.29-2.06,7.12,7.12,0,0,0-1.73.91q-3.36,3.16-6.61,6.44c-1.31,1.32-1.88,7.45-.86,8.7.16.19.55.41.71.34,3.31-1.47,2.37,1.72,3.27,2.92,1.58,2.11-1.21,2.9-1.36,4.51a2.21,2.21,0,0,1-1.81.42A16.71,16.71,0,0,1,369.32,410Z"/><path d="M390,418.09l-1.69-1a6.72,6.72,0,0,1,1.38-1.78,25.34,25.34,0,0,1,3.28-1.57c-1.05-.75-2.09-1.53-3.18-2.23-.61-.4-1.38-.56-1.95-1a6.93,6.93,0,0,1-1.13-1.51,8.19,8.19,0,0,1,2.42-1.21c.61-.08,1.33.53,2,.88,2.7,1.45,5.42,2.88,8.08,4.4A10.88,10.88,0,0,1,401,414.7a9.09,9.09,0,0,1-2.32,1.44C395.84,416.88,393,417.44,390,418.09Z"/><path d="M428,341.37c0,2.74-2.32,5.51-4.66,5.54-2.1,0-4.16-2.44-4.07-4.89a4.8,4.8,0,0,1,4.48-4.55A3.74,3.74,0,0,1,428,341.37Z"/><path d="M82.06,342.88c0,2.68-2,4.79-4.23,4.62s-4.69-3.12-4.55-5.68a3.85,3.85,0,0,1,4.13-3.64A4.41,4.41,0,0,1,82.06,342.88Z"/><path d="M382,403.72c-.69,2.19,0,3.2,2.39,2.94.42-.05.91.48,1.37.75-.3.43-.54,1.18-.92,1.26-2.22.46-4.56,1.26-6.68.9-1-.18-1.88-2.62-2.31-4.17a4.35,4.35,0,0,1,.92-3c.25-.35,1.52-.22,2.23,0a23.44,23.44,0,0,1,3.12,1.49Z"/><path d="M61,359.42c-.62-.84-1.83-1.91-2.27-3.24s2.51-4.39,4.18-4.5c1.38-.1,3,1.59,3.07,3.19S63.52,359.3,61,359.42Z"/><path d="M434.48,353.5a3.78,3.78,0,0,1,3.47-3.77,3.46,3.46,0,0,1,3.38,3.73,3.43,3.43,0,0,1-3.66,3.47A3.24,3.24,0,0,1,434.48,353.5Z"/><path d="M428.92,355.61c-.1,2.29-1.61,4.05-3.39,3.78s-2.72-1.6-2.74-3.43c0-2.25,1.47-3.78,3.48-3.65C428.11,352.43,429,353.55,428.92,355.61Z"/><path d="M78.52,356.88c.09,1.5-.66,2.32-2.34,2.24-2-.11-4-1.85-3.79-3.53a2.87,2.87,0,0,1,2.94-2.71C77.33,352.75,78.59,354.34,78.52,356.88Z"/><path d="M72.42,368a9.65,9.65,0,0,1,2.44,0,25.94,25.94,0,0,1,3.1,1.28c-.64.71-1.25,1.45-1.93,2.14-2.63,2.67-2.64,2.67-4.6-.27a20.16,20.16,0,0,1-1.14-1.89,7.82,7.82,0,0,1-.41-1.21,9.8,9.8,0,0,1,1.49-.29A4,4,0,0,1,72.42,368Z"/><path d="M84.22,372.91c-1.65-.32-3.08-.48-4.45-.87s-.9-1.25-.19-1.87c1.4-1.23,5-1,6.4.45.31.33.47,1.38.32,1.47A10.3,10.3,0,0,1,84.22,372.91Z"/><path d="M310.42,407.51l2.17,2.29a11.22,11.22,0,0,1-1.95,1.13,40,40,0,0,1-4.16,1.15c-.35.07-1-.07-1.11-.31a1.22,1.22,0,0,1,.2-1.16C307,409.59,308.58,408.67,310.42,407.51Z"/><path d="M379.41,415.13c1.75,0,3.49,0,5.23.13.44,0,1.22.65,1.18.89-.11.61-.56,1.63-.92,1.65a17,17,0,0,1-5.15-.26c-1.47-.39-.56-1.63-.23-2.53Z"/><path d="M357.1,390.92a19.47,19.47,0,0,1,2.34,3.53c.15.38-.88,1.21-1.37,1.83a13.79,13.79,0,0,1-2.34-2.71C355.53,393.16,356.4,392.21,357.1,390.92Z"/><path d="M72,347.74a15.14,15.14,0,0,1-3.38,1.81c-.4.1-1.46-1-1.58-1.61-.22-1.23,1.89-3,2.94-2.54C70.66,345.69,71.06,346.58,72,347.74Z"/><path d="M434.71,346c-1.32.95-2,1.8-2.8,1.94a1.73,1.73,0,0,1-2.13-2.06c.14-.77,1.25-2,1.84-1.93C432.5,344,433.32,345,434.71,346Z"/><path d="M379.52,415c-1.58.35-3,2-4.78.47a9.92,9.92,0,0,1-1.2-1.56c.62-.31,1.38-1,1.83-.85a32.69,32.69,0,0,1,4,2.06Z"/><path d="M140.68,426.13l-2.82-1.3c.8-.74,1.57-2,2.4-2.06s1.77,1.13,2.66,1.77Z"/><path d="M192,378.57a31.89,31.89,0,0,1,2.06,2.58,7.08,7.08,0,0,1,.65,1.93c0,.06-.26.29-.3.27a7.68,7.68,0,0,1-2.52-1.41,6.37,6.37,0,0,1-.78-2.67C191.09,379.15,191.53,378.94,192,378.57Z"/><path d="M277.83,385.38a8,8,0,0,1,1.84-.58c1.72.15,4,1.89,3.5,2.63a1.61,1.61,0,0,1-1.49.52A43.93,43.93,0,0,1,277.83,385.38Z"/><path d="M287.52,390c-1,.83-1.73,1.9-2.2,1.78-.83-.21-1.5-1.12-2.23-1.75.58-.51,1.17-1.46,1.72-1.43C285.63,388.66,286.41,389.4,287.52,390Z"/><path d="M249.19,444.45c0-2.32-.12-4.68,1.92-6.39l-.15.11-.12-.1c1.08,3.37,3,5.8,6.7,6.56.63.13,1.15.73,1.73,1.11-.65.5-1.24,1.29-2,1.44a4.93,4.93,0,0,1-2.51-.47C252.91,446,251.06,445.21,249.19,444.45Z"/><path d="M250.81,438.29c2.14-1.77,4.32-1.11,6.5-.11-1.14,1.46-2.56,1.07-4,.62-.81-.26-1.64-.49-2.46-.73l.12.1Z"/><path d="M250.81,438.29l.15-.12.15-.11c-2.79.65-2.41-1.78-3-3.2-.06-.16,1.19-1.2,1.58-1.07a19.74,19.74,0,0,1,3.33,1.77c-.61.66-1.23,1.31-1.82,2A4,4,0,0,0,250.81,438.29Z"/></g></svg>