<svg id="Layer_1" data-name="Layer 1" xmlns="http://www.w3.org/2000/svg" viewBox="0 0 500 500"><path d="M250.59,483.4H21.81c-.35,0-.69,0-1,0-3.52-.34-4.28-1.9-4.79-4.7a11.79,11.79,0,0,1,0-2.06c0-13.47.09-26.94-.16-40.4-.59-32.68-.22-65.36-.21-98,0-23.16-.06-46.33-.07-69.49a30.78,30.78,0,0,1,.34-7.17,9.86,9.86,0,0,0,.07-2.31c0-25.22.06-50.44-.16-75.66-.32-37.4-.18-74.8-.2-112.2,0-11,.25-21.95.35-32.93.05-5.32,0-10.63,0-16a10,10,0,0,0,0-1.55c-.35-2.22,1.12-3.25,2.72-4.18a2.31,2.31,0,0,1,1-.2c.69,0,1.38,0,2.06,0,15.18,0,30.37.08,45.55-.17,19-.31,38.08-.19,57.13-.18,10.72,0,21.44.27,32.16.3,21.53.05,43.06,0,64.59,0,12.7,0,25.39.07,38.09.07H476.39a22.51,22.51,0,0,1,3.58.24c2.9.48,3.54,1.88,4,4.56a7.92,7.92,0,0,1,0,1.29c.17,31.39.43,62.78.48,94.18.06,36.37-.07,72.74-.11,109.11,0,3.61.11,7.21,0,10.81-.46,14.84-.11,29.67-.15,44.51s0,29.68.06,44.52q.06,50.06.09,100.11c0,17.41-.13,34.82-.2,52.24,0,.43,0,.86,0,1.28.1,1.94-1.17,2.92-2.61,3.77a2.19,2.19,0,0,1-1,.23c-.68,0-1.37,0-2.06.05-6.77,0-13.55,0-20.33,0-12.09.09-24.18.3-36.27.34-17.85.06-35.69,0-53.53,0-7.72,0-15.44,0-23.16-.15-21.19-.4-42.37-.12-63.56-.18-1,0-2.05.13-3.08.13q-3.21,0-6.42-.05c-1.46,0-2.91-.17-4.37-.18-5.75,0-11.5,0-17.24,0Zm186-382-.75.16c-1.23.27-1.93,0-2.28-1-.23-.68-.34-1.26-1.1-1.57s-1-1.06-1.82-1.34c-1.11-.37-2.07-1-3.36-.63-.69.19-1.49-.67-1.62-1.38a1.74,1.74,0,0,1,.94-1.93,2.18,2.18,0,0,1,2.64.12c.12.11.29.26.44.25a1.22,1.22,0,0,0,.65-.25c.06,0,0-.37-.06-.45-.84-.72-1.7-1.42-2.57-2.1-.32-.25-.62-.13-.78.3-.1.23-.09.51-.19.74-.63,1.37-2.66,1.13-3.3.36a1.63,1.63,0,0,1,.64-2.56c.24-.09.52-.05.76-.12a3.37,3.37,0,0,0,.56-.3,1.6,1.6,0,0,0-.26-.44c-.71-.62-1.5-1.16-2.15-1.83-.87-.92-1.61-1.65-2.93-.58-.57.46-1.54,0-2-.62a1.6,1.6,0,0,1,.06-2.12,4.07,4.07,0,0,1,.54-.56.56.56,0,0,0,.08-.87c-.77-.92-1.52-1.86-2.29-2.78-.45-.54-.65-.61-1.22-.11a1.74,1.74,0,0,1-1.88.47,2.45,2.45,0,0,0-2.83.52,1.67,1.67,0,0,1-2.11.32,2.06,2.06,0,0,1-.8-2,2.34,2.34,0,0,1,0-.26,1.71,1.71,0,0,1,1.68-1.64,7,7,0,0,1,3,.27,2,2,0,0,0,.74.09.77.77,0,0,0,.68-1.08q-.62-1-1.29-1.92c-.3-.42-.52-.4-.72.08a3.31,3.31,0,0,1-1.34,1.82,1.2,1.2,0,0,1-1.43-.08,1.83,1.83,0,0,1-.84-1.51c0-1.09.48-1.73,1.77-2.19,1.05-.37,1.06-.38.51-1.29-.44-.74-.91-1.46-1.36-2.18,0-.08-.11-.14-.16-.21-.24-.34-.48-.45-.71,0a2.1,2.1,0,0,1-1.72,1.37,1.89,1.89,0,0,1-1.74-1.61A1.75,1.75,0,0,1,405.86,67a7.67,7.67,0,0,1,1.27-.09c.43,0,.57-.29.46-.68-1.2-4.37-2.78-8.64-3.6-13.11a.3.3,0,0,0-.12-.22c-.2-.12-.46-.35-.62-.3-.57.17-1.1.47-1.67.66a2.55,2.55,0,0,1-3.15-1.47,4,4,0,0,1-.27-2c.5-2.28,1.24-4.47,3.36-5.84.07,0,.18-.09.19-.16a1,1,0,0,0,0-.41c0-.06-.14-.12-.21-.12a6.2,6.2,0,0,0-2.89,1,41.65,41.65,0,0,1-6.88,2.83,6.3,6.3,0,0,1-2.79.21,2.22,2.22,0,0,1-1.89-1.56,11,11,0,0,1-.54-4.31c.16-1.28.13-1.29-.95-1.31-.43,0-.86,0-1.29,0H218.56c-.85,0-1.71-.06-2.56-.12s-1.7-.22-2.55-.22q-45.8,0-91.61,0a7.1,7.1,0,0,0-1.79.06,6.06,6.06,0,0,1-3.53,0,6.68,6.68,0,0,0-2,0c-.47,0-.73.36-.7.88,0,.34.12.68.12,1A3,3,0,0,1,111.33,45a7.78,7.78,0,0,1-3.56,0,22.59,22.59,0,0,1-6.65-2.68c-.67-.37-1.34-.76-2-1.11-.1-.05-.31.08-.45.15a.24.24,0,0,0-.06.21c.12.32.27.63.38.95.87,2.32,1.75,4.64,2.59,7a4.51,4.51,0,0,1,.31,1.49,2.17,2.17,0,0,1-3.16,2.08c-.23-.1-.45-.33-.68-.34s-.51.21-.53.36c-.09.68-.07,1.37-.15,2.05a2,2,0,0,0,.6,1.86,1.9,1.9,0,0,1,.33,2.16,1.66,1.66,0,0,1-1.63,1,1.22,1.22,0,0,0-1.12.91,35,35,0,0,1-2.77,6.07.35.35,0,0,0,0,.25c0,.07.07.17.13.19s.42.08.44,0c.47-1.16,1-2.17,2.54-2.11.13,0,.33-.33.4-.54s.07-.69.2-1a1.81,1.81,0,0,1,1.81-1.17,1.92,1.92,0,0,1,1.63,1.73c.11,1.11-.33,1.75-1.7,2.17-.54.16-.93.27-1,.91a1.93,1.93,0,0,1-1.64,1.74,1.19,1.19,0,0,0-.65.36c-1.17,1.66-2.51,3.25-2.21,5.51a2.68,2.68,0,0,1-.13,1,1.79,1.79,0,0,1-2,1.21A6.69,6.69,0,0,1,89.37,77c-.1.48-.19,1-.29,1.43A2.15,2.15,0,0,1,89,79a1.82,1.82,0,0,1-1.51,1.23,1.53,1.53,0,0,1-1.53-.75,5.94,5.94,0,0,1-.43-.92c-.23-.48-.39-.52-.67-.18-.56.65-1,1.36-1.66,2a1.68,1.68,0,0,0-.36,2.46A2.16,2.16,0,0,1,82.93,84a1.53,1.53,0,0,1-1.49,1.49A4.4,4.4,0,0,1,80,85.22c-.22-.08-.38-.34-.57-.51a.63.63,0,0,0-.9.08c-.19.17-.47.36-.49.56,0,.54.45.33.72.38A3,3,0,0,1,80.87,87a1.75,1.75,0,0,1,0,2.15,1.81,1.81,0,0,1-2.07.64,8.31,8.31,0,0,1-1.36-.7c-.34-.22-.59-.32-.71.19s-.19.83-.28,1.25a3.14,3.14,0,0,0,1.27,3.11.7.7,0,0,0,.48.06,8.8,8.8,0,0,1,1-.25,1.6,1.6,0,0,1,.81,3c-.5.36-1,.32-1.64-.15a1.8,1.8,0,0,1-.37-.36.69.69,0,0,0-1.07-.18,2.45,2.45,0,0,1-3.28-.35c-.12-.11-.22-.3-.37-.34a1,1,0,0,0-.67,0c-.47.18-.92.45-1.38.66s-.55.32-.38.75a6.91,6.91,0,0,1,.47,1.46,1.85,1.85,0,0,1-1.23,2,1.87,1.87,0,0,1-2.18-.94c-.75-1.33-.29-2.53,1.33-3.24.41-.19.55-.28.28-.67a2.61,2.61,0,0,1-.39-.66c-.17-.48-.13-1.22-.45-1.41-.58-.35-1,.34-1.53.63a10.31,10.31,0,0,0-1.27.89c-.27.22-.42.5,0,.8a4.09,4.09,0,0,1,.72.72,1.82,1.82,0,0,1,.12,2.16,1.77,1.77,0,0,1-1.8.75,1.55,1.55,0,0,1-1.57-1.41c0-.25,0-.52,0-.77-.09-.77-.12-.8-.72-.61-4,1.22-8,2.58-12.07,3.53-.7.16-.8.43-.57,1.08a8.79,8.79,0,0,1,.53,1.7,2.68,2.68,0,0,1-2.73,3.26,5.53,5.53,0,0,1-2-.25,9.53,9.53,0,0,1-4.32-2.67c-.1-.13-.19-.28-.31-.41a.14.14,0,0,0-.14,0c0,.07-.11.17-.09.24.28.8.54,1.61.86,2.4.79,2,1.61,4,2.41,6,.18.47.15,1.16.48,1.41s.81-.39,1.26-.54a4.5,4.5,0,0,1,.49-.14,1.74,1.74,0,0,1,2.07,1.09,1.86,1.86,0,0,1-1.12,2.31,1.72,1.72,0,0,1-1.69-.28c-.33-.21-.62-.32-.76.17a3.19,3.19,0,0,1-3.14,2.56,11.93,11.93,0,0,0-1.23.34,3.17,3.17,0,0,1-2.47-.4,5.45,5.45,0,0,0-.68-.35,3.44,3.44,0,0,0-.35.88c0,.77,0,1.54,0,2.31q0,22.65.06,45.3.06,46.83.1,93.67a24.28,24.28,0,0,0,.08,3.08,75.31,75.31,0,0,1,.57,9.49q.12,13.51.2,27c0,3.35,0,6.69,0,10s0,6.69,0,10,0,6.69,0,10,0,6.69,0,10,0,6.86,0,10.29,0,6.69,0,10,.06,6.69,0,10,.37,6.67,0,10a2.9,2.9,0,0,0,0,.51c0,1.36,0,1.37,1.45,1.2a2.76,2.76,0,0,1,3.29,1.8,3.89,3.89,0,0,1,.43,1.46,16.46,16.46,0,0,1-.2,3.06,20,20,0,0,1-2.28,6.25c-.45.83-.92,1.65-1.36,2.48-.1.2-.3.5.07.64a1.2,1.2,0,0,0,.72.06c.4-.13.76-.39,1.16-.55,1.81-.75,3.62-1.55,5.47-2.22a7.57,7.57,0,0,1,2.51-.38,1.69,1.69,0,0,1,1.75,2,15.76,15.76,0,0,1-.5,1.71.45.45,0,0,0,.22.35c.5.11,1,.13,1.51.26a2.6,2.6,0,0,0,3-.69,1.47,1.47,0,0,1,2.33.65,1.4,1.4,0,0,1,.11.49c0,.92.53,1.33,1.33,1.65a24.39,24.39,0,0,1,5.51,2.73c.32.23.83.08.81-.19a1.77,1.77,0,0,0-.34-.89c-.14-.17-.46-.18-.7-.29a1.49,1.49,0,0,1-.93-1.65,6.86,6.86,0,0,1,.22-1,.22.22,0,0,0,.16-.19,3.4,3.4,0,0,1,.49-.15c1.53-.14,1.75,0,2.32,1.35a2.38,2.38,0,0,0,.43.89,8.33,8.33,0,0,0,2.22,1.61c1,.37,1.94,1.15,3.15.71a1.54,1.54,0,0,1,.76.05,1.88,1.88,0,0,1,1.34,1.41,1.63,1.63,0,0,1-.7,1.56,2.48,2.48,0,0,1-2.65.33c-.31-.13-.56-.39-.87-.53a.51.51,0,0,0-.45.16c-.09.18-.18.55-.08.63.83.72,1.7,1.42,2.57,2.09.47.36.68.3.8-.34a1.89,1.89,0,0,1,1.36-1.67,2,2,0,0,1,2.11.57,1.52,1.52,0,0,1-.21,2.42,6,6,0,0,1-.94.4c-.64.27-.7.44-.3.81,1,.91,2,1.82,3.09,2.7a.86.86,0,0,0,.7.1c.39-.14.74-.41,1.13-.58a1.65,1.65,0,0,1,1.85.51,1.61,1.61,0,0,1,.3,1.89,5.27,5.27,0,0,1-.64.79c-.47.55-.51.74,0,1.25s1,1,1.44,1.44l-.07-.08a6.37,6.37,0,0,0,.52.88c.67.82.76.87,1.62.25.53-.38,1.08-.7,1.65-.41a2.51,2.51,0,0,0,3.23-.68,2.56,2.56,0,0,1,.66-.39c.38-.18.51-.4.2-.75a.78.78,0,0,1-.16-.2c-.46-.89-.35-1.51.33-2a1.26,1.26,0,0,1,1.64.16c.53.57.46,1.27-.21,2.05a.8.8,0,0,1-.21.15c-.62.37-.48.73-.08,1.22a2.2,2.2,0,0,1,0,2.86,2.31,2.31,0,0,1-2.48,1c-.66-.15-1.32-.35-2-.44a4.34,4.34,0,0,0-1.24.11c-.11,0-.29.31-.26.36.58.93,1.19,1.84,1.81,2.74a.52.52,0,0,0,.39,0,9.4,9.4,0,0,1,.5-1.44,1.64,1.64,0,0,1,2.21-.68,1.83,1.83,0,0,1,.8,2.21,2,2,0,0,1-2.17,1.44c-.46,0-.63.31-.44.64.42.74.85,1.49,1.32,2.2.27.39.39,1.08,1,1,.32-.05.57-.58.86-.89a1.54,1.54,0,0,1,.19-.17A1.69,1.69,0,0,1,94.5,430a1.65,1.65,0,0,1,.72,1.79,1.85,1.85,0,0,1-1.84,1.46c-1.15,0-1.12,0-.82,1,.88,2.95,1.76,5.91,2.61,8.87.26.9.42,1.83.59,2.75.33,1.72.32,1.72,2,1.11,2.41-.85,4.25.38,4,2.91a7.78,7.78,0,0,1-3.27,6.1c-.28.19-.69.32-.44.72s.62.11.92,0c1.18-.49,2.38-1,3.53-1.53a36.51,36.51,0,0,1,5-2,8.22,8.22,0,0,1,3.55-.33,1.89,1.89,0,0,1,1.74,1.33c.37,1.55,1.17,3.08.6,4.75-.31.94-.06,1.11.73,1.13h2.06l170.84.11q45.16,0,90.32,0a22,22,0,0,0,2.57,0,16.48,16.48,0,0,1,3.58,0,11.93,11.93,0,0,0,2.31-.07c.14,0,.36-.34.37-.53a9.13,9.13,0,0,0-.15-1A3.16,3.16,0,0,1,389,455c.34,0,.68,0,1-.07a13.63,13.63,0,0,1,6.68,1.58c1.08.52,2.11,1.13,3.17,1.7.3.17.58.36.89.51s.47.3.64-.05a.66.66,0,0,0,0-.48c-.84-2.15-1.73-4.29-2.55-6.45a11.68,11.68,0,0,1-.65-2.47,2.12,2.12,0,0,1,2.68-2.47c.41.08.8.29,1.21.39.09,0,.34-.14.34-.23.12-1.49.65-3-.59-4.37a1.68,1.68,0,0,1,.77-2.57,4.57,4.57,0,0,1,1-.31,1.28,1.28,0,0,0,1-1,29.81,29.81,0,0,1,2.5-5.63c.08-.13-.11-.42-.17-.63-.14.09-.35.15-.4.28-.4.9-.89,1.67-2,1.69a.79.79,0,0,0-.8.82,1.8,1.8,0,0,1-3.42.86c-.51-1-.18-2.37.87-2.54a2.21,2.21,0,0,0,2.06-2.05c.07-.3.62-.52,1-.74s.71-.22.87-.46c1.2-1.71,2.72-3.31,2.23-5.68a1.28,1.28,0,0,1,0-.51,1.87,1.87,0,0,1,2.05-1.54,2.39,2.39,0,0,1,.74.2c.41.19.62.05.69-.36a7.56,7.56,0,0,1,.23-1.26,1.72,1.72,0,0,1,1.52-1.21,1.69,1.69,0,0,1,1.71.89c.68,1.09.7,1.08,1.4.29.52-.58,1-1.17,1.52-1.75s.77-1.09.17-1.79a1.82,1.82,0,0,1-.22-1.95c.56-1.41,2-1.59,3.32-.43.54.47.68.46,1.2-.07.32-.33.3-.7-.07-.75a3.6,3.6,0,0,1-2.09-.9,2.14,2.14,0,0,1-.42-2.37,1.66,1.66,0,0,1,1.95-.86,6.72,6.72,0,0,1,1.63.71c.35.19.49-.05.57-.26a7.78,7.78,0,0,0,.42-1.48,3.79,3.79,0,0,0-1.36-2.89.78.78,0,0,0-.48,0,5.12,5.12,0,0,1-.73.23,1.57,1.57,0,0,1-1.73-1.95,1.37,1.37,0,0,1,1.74-1.06,1.33,1.33,0,0,1,.67.36c.53.68,1.05.54,1.78.26a2.46,2.46,0,0,1,3.18.92c.14.21.34.35.61.14a3.45,3.45,0,0,1,.63-.45,1.36,1.36,0,0,0,.94-1.74,4.33,4.33,0,0,1-.08-1.52,1.68,1.68,0,0,1,1.34-1.41,1.5,1.5,0,0,1,1.6.55,2.62,2.62,0,0,1,.58,1.12,2.18,2.18,0,0,1-1.38,2.7c-.38.17-.49.37-.28.77s.39.94.59,1.41.47.58,1,.26.72-.47,1.08-.71c1.09-.73,1.09-.73.23-2a4,4,0,0,1-.38-.67,1.52,1.52,0,0,1,.22-1.68,1.85,1.85,0,0,1,3.29.45,4.18,4.18,0,0,1,.16,1c.09.66.22.8.68.66,4.1-1.23,8.13-2.71,12.33-3.6.38-.08.51-.39.36-.78a12,12,0,0,1-.64-1.69,2.91,2.91,0,0,1,3-3.6,5.8,5.8,0,0,1,1.75.31,9.78,9.78,0,0,1,4.34,2.65,1.87,1.87,0,0,0,.35.26,1.26,1.26,0,0,0,.12-.48,2.66,2.66,0,0,0-.21-.73,66.33,66.33,0,0,1-3.39-8.61c-.09-.32-.32-.29-.54-.11a6.81,6.81,0,0,1-.79.65,1.61,1.61,0,0,1-2.11-.27,1.71,1.71,0,0,1-.42-1.89,1.63,1.63,0,0,1,1.58-1.1,2.2,2.2,0,0,1,1,.18c.59.32,1,.22,1.17-.41a3.09,3.09,0,0,1,2.84-2.23,7.56,7.56,0,0,0,1.25-.29,2.78,2.78,0,0,1,2.46.32c.29.17.55.4.85.56.07,0,.33-.11.33-.18.05-.85.09-1.7.09-2.56q-.12-51.08-.25-102.14c0-14.67,0-29.34-.08-44,0-5.4-.15-10.8-.24-16.2a2.88,2.88,0,0,0-.07-1,11.7,11.7,0,0,1-.35-4.08l-.15-85.16a16.56,16.56,0,0,0-.16-2.82,6.94,6.94,0,0,1,0-2.53,15.44,15.44,0,0,0,.12-2.81.74.74,0,0,0-.84-.75c-.43,0-.86.1-1.28.12a2.6,2.6,0,0,1-2.65-1.66,6.48,6.48,0,0,1-.4-4,25.87,25.87,0,0,1,3.2-8.35,11.58,11.58,0,0,0,.65-1.38c0-.09-.12-.28-.21-.4a.24.24,0,0,0-.23-.07,6,6,0,0,0-.71.25c-2.21.93-4.4,1.9-6.63,2.77a6.11,6.11,0,0,1-2.25.36,1.86,1.86,0,0,1-1.76-2.11,7.21,7.21,0,0,1,.47-1.45.53.53,0,0,0-.46-.74,15.54,15.54,0,0,0-2.55-.27,2.54,2.54,0,0,0-1.15.45c-1.8,1.07-2.49.81-3-1.23-.12-.44-.26-.83-.71-1A38.49,38.49,0,0,1,435,97a.41.41,0,0,0-.39.11.71.71,0,0,0-.09.48.72.72,0,0,0,.6.72,1.69,1.69,0,0,1,1.41,2.08c0,.34,0,.69-.05,1Zm-417,339.49h0v34.73a17.65,17.65,0,0,0,.07,2.06.74.74,0,0,0,.46.51,7.83,7.83,0,0,0,1.53.11c10.72.07,21.44,0,32.16.25,12.26.26,24.52.09,36.79.1.68,0,1.37,0,2.06,0s1-.18,1.1-.83a19.86,19.86,0,0,0,.43-3c.06-3,0-6,0-9a40.8,40.8,0,0,0-.65-6.63c-.45-3.3-1.25-6.55-1.94-9.81A72.09,72.09,0,0,0,87.92,437a57.72,57.72,0,0,0-8.83-14.42,53.1,53.1,0,0,0-11.35-10.75c-2.89-2-5.92-3.79-9-5.52a22.79,22.79,0,0,0-8.51-2.68,37.56,37.56,0,0,0-6.35-.74,6.24,6.24,0,0,1-2-.43,15.83,15.83,0,0,0-5.85-.5c-2,.15-4.09.12-6.14.44-2.61.39-5.28.41-7.93.61s-2.41.46-2.41,2.6ZM480.38,59.21h0v-35a10.65,10.65,0,0,0-.06-1.79,1,1,0,0,0-.61-.68,9,9,0,0,0-1.8-.08l-27-.05c-9.08,0-18.17-.22-27.25-.16-5,0-10,0-14.92.07a9.68,9.68,0,0,0-1.79.09,1.2,1.2,0,0,0-.7.63,3.23,3.23,0,0,0-.18,1,59.55,59.55,0,0,0-.28,9.25,58.22,58.22,0,0,0,1.24,12c.7,3.17,1.41,6.34,2.15,9.51,3.13,13.38,10.49,24.08,21,32.69a70.45,70.45,0,0,0,11.95,7.52A18.42,18.42,0,0,0,449,96.27c1.38.14,2.65.64,4,.87s2.9.17,4.35.27a6.84,6.84,0,0,1,1,.21c2.1.45,4.19.93,6.35.36a6.73,6.73,0,0,1,1.28-.07l11.54-.73a4.83,4.83,0,0,0,.76-.13c2.05-.49,2.15.07,2.14-2.6Q480.37,76.83,480.38,59.21Zm-460.72-.5h0V93.44c0,.86,0,1.72.06,2.57a1.13,1.13,0,0,0,1.08,1.21,7.16,7.16,0,0,0,1,.09c3.5,0,7,.34,10.51.15a56.61,56.61,0,0,0,8.92-1.09c3.76-.83,7.53-1.66,11.22-2.72a49.81,49.81,0,0,0,12.71-5.46,68.87,68.87,0,0,0,8.27-6.1A52,52,0,0,0,83.53,70.82c2.1-3.23,3.93-6.63,5.76-10a24.21,24.21,0,0,0,2.42-8.09c.13-.84.25-1.69.46-2.51a12.08,12.08,0,0,0,.45-3.28,19.25,19.25,0,0,1,.43-4.34,18.05,18.05,0,0,0,.28-4.09c-.1-2.65-.33-5.29-.52-7.94-.18-2.48-.4-5-.58-7.43s-.08-2.44-2.51-2.44l-67.66-.1c-2.42,0-2.4-.07-2.4,2.38Q19.68,40.84,19.66,58.71ZM480.29,441.4h0V414.89q0-5.14,0-10.29c0-1.4-.08-1.47-1.38-1.67a25.24,25.24,0,0,0-3.57-.35c-3.94,0-7.87-.24-11.8.39-2.62.42-5.26.7-7.84,1.34-1.92.47-3.84.91-5.74,1.41a58.5,58.5,0,0,0-14.06,5.55,60.12,60.12,0,0,0-9,6.43,54.73,54.73,0,0,0-11.05,12.47c-1.55,2.47-2.92,5.05-4.38,7.57a23.8,23.8,0,0,0-2.86,7.94,44.4,44.4,0,0,0-1.16,8.36,10.52,10.52,0,0,1-.44,3,15.47,15.47,0,0,0-.4,4.59q.08,3.46.48,6.92c.31,2.72.41,5.47.61,8.2,0,.43.07.85.13,1.28.15.95.38,1.16,1.33,1.2.42,0,.85,0,1.28,0,8.75.09,17.5.23,26.24.26,13.73.05,27.45,0,41.18,0,2.4,0,2.41,0,2.41-2.42Q480.31,459.28,480.29,441.4ZM253,35.49h42.45a22.26,22.26,0,0,0,2.31-.05,1,1,0,0,0,.7-.55,6.5,6.5,0,0,0,.09-1.53c0-2.32,0-4.63,0-6.95a4,4,0,0,1,.28-1.2c0-.11.29-.15.44-.19s.14.1.15.16a8.65,8.65,0,0,1,.23,1.5c0,2.23,0,4.46,0,6.69a11.23,11.23,0,0,0,0,1.54.74.74,0,0,0,.48.49,11.93,11.93,0,0,0,1.79.09c4.89,0,9.78,0,14.67,0,3.84,0,3.48.47,3.38-3.39,0-1.46-.06-2.92,0-4.38a4.77,4.77,0,0,1,.63-2.71.59.59,0,0,1,.45-.15.52.52,0,0,1,.37.29,3.75,3.75,0,0,1,.18,1c0,1.71,0,3.43,0,5.14.06,5.13-.84,4.08,4.38,4.21h.52c.64,0,.92-.31,1-1s0-1.2,0-1.8c0-3.51.05-7,.09-10.54a.57.57,0,0,0-.63-.63q-3.84-.15-7.7-.24c-.94,0-1.89,0-2.83.09-1.83.13-1.9.2-1.94,1.94,0,2.14,0,4.28-.09,6.43a4.31,4.31,0,0,1-.27,1.22.54.54,0,0,1-.4.27.52.52,0,0,1-.43-.2,2.75,2.75,0,0,1-.29-.95c-.07-1.37-.08-2.74-.15-4.11-.28-5.79.55-4.57-5.17-4.73a2.91,2.91,0,0,0-.51,0,.93.93,0,0,0-.92,1c0,1.37,0,2.75,0,4.12s0,2.91-.07,4.37c0,.1-.21.28-.3.27a.52.52,0,0,1-.38-.27,6.67,6.67,0,0,1-.15-1.26c0-1.72,0-3.43,0-5.15,0-3.51.35-3.15-3.18-3.15q-25.74,0-51.46,0c-3.17,0-6.34-.16-9.51-.24l-3.33-.06c-2.31,0-4.63-.05-6.94-.12-1.45,0-2.91-.2-4.36-.2q-12.48,0-25,0c-.6,0-1.2,0-1.8,0a.93.93,0,0,0-.93,1,11.68,11.68,0,0,0,.06,2.05,9.49,9.49,0,0,1-.32,3.56c0,.13-.19.22-.29.33-.17-.17-.46-.32-.49-.51a13.34,13.34,0,0,1-.12-1.79c0-1.2,0-2.4,0-3.6,0-.81-.26-1.06-1.09-1.06-3.09,0-6.18,0-9.26,0l-.26,0a.81.81,0,0,0-.85.77c-.06.6-.05,1.2-.06,1.8a13.25,13.25,0,0,1-.05,2.82,27.62,27.62,0,0,0-.37,5.37,1.65,1.65,0,0,1-.17.72c0,.11-.26.15-.4.2s-.16-.09-.17-.15a8.86,8.86,0,0,1-.19-1.24c0-2.14,0-4.29,0-6.43-.06-4.64.64-3.81-4-3.87-1.3,0-1.49.27-1.44,1.5.09,2.14.14,4.28.19,6.42a3.36,3.36,0,0,1-.68,2.41.57.57,0,0,1-.45.16.47.47,0,0,1-.31-.32,6.89,6.89,0,0,1-.16-1.28q0-3.07,0-6.17c0-2.89,0-2.75-2.63-2.73-3.9,0-3.4-.49-3.43,3.39,0,2.58,0,5.15,0,7.72a5.67,5.67,0,0,1-.35,1.72.74.74,0,0,1-.62.32.69.69,0,0,1-.49-.46,19.87,19.87,0,0,1-.13-2.31c0-3.09,0-6.17,0-9.26,0-.82-.28-1.1-1.07-1.11-3.86,0-7.71,0-11.57,0-.79,0-1,.34-1,1.16.07,2.48.17,5,.16,7.45a9.41,9.41,0,0,1-.5,2.49,1.11,1.11,0,0,1-1.19.78,1,1,0,0,1-.79-.9,22.13,22.13,0,0,1-.28-2.8c-.05-2.4,0-4.81-.06-7.21a.88.88,0,0,0-.95-1,20,20,0,0,0-2.57.06c-.24,0-.56.37-.65.63a4.48,4.48,0,0,0-.08,1.27c0,4,0,8.07,0,12.1,0,.8.21,1,1.08,1q5.27,0,10.55,0c.94,0,1.18-.28,1.21-1.25,0-.6,0-1.2,0-1.8,0-2.66,0-5.32.05-8a4,4,0,0,1,.25-1.22c0-.12.26-.22.41-.24a.66.66,0,0,1,.46.17,2.29,2.29,0,0,1,.43,1.7c0,2.74,0,5.48.06,8.23a11.87,11.87,0,0,0,.1,1.79.82.82,0,0,0,.52.49,7.14,7.14,0,0,0,1.53.13h23.41c.86-.05,1.1-.26,1.13-1s0-1.37,0-2.06c0-1.89,0-3.77,0-5.66a7,7,0,0,1,.14-1.52c0-.18.35-.31.56-.42,0,0,.26.21.28.35a9.06,9.06,0,0,1,.1,1.27c0,2.06,0,4.12,0,6.18,0,.68,0,1.37,0,2a.87.87,0,0,0,.83.82,6.69,6.69,0,0,0,.77,0h6.69a12.54,12.54,0,0,0,3.58-.1c1.16-.36,2.13.31,3.19.11a4.9,4.9,0,0,1,.77-.07c1.19-.06,2.39-.16,3.59-.16Q232.32,35.47,253,35.49Zm-6.82,429.24H204.28c-.52,0-1,0-1.55,0-1.22,0-1.36.15-1.36,1.31,0,2.4,0,4.8,0,7.2a8.68,8.68,0,0,1-.2,1.51.4.4,0,0,1-.36.21.48.48,0,0,1-.37-.27,9.43,9.43,0,0,1-.17-1.51c0-2.48,0-5,0-7.46,0-.66-.27-.94-.9-1-.43,0-.86,0-1.29,0q-8,0-16,0c-.43,0-.86,0-1.29,0a.85.85,0,0,0-.91,1c0,1.89.1,3.77.17,5.66a8.65,8.65,0,0,1-.42,3c-.15.44-.29.88-.77.86-.16,0-.4-.52-.42-.82-.11-1.1-.18-2.22-.2-3.33,0-1.8,0-3.6,0-5.4,0-.66-.29-1-.92-1-1.29,0-2.58,0-3.86,0-.83,0-1.06.24-1.06,1.08,0,3.94,0,7.89,0,11.83,0,.77.24,1,1.13,1l10.55,0c1.17,0,1.28-.46,1.3-1.44,0-2.14.06-4.28.11-6.43a5.86,5.86,0,0,1,.23-1.5.56.56,0,0,1,1.08.09c.17,2,.3,4.1.45,6.15.07.93.16,1.86.23,2.79.93.67,2,.27,3,.35a13.51,13.51,0,0,0,1.8,0c1.18,0,1.38-.19,1.39-1.3,0-2.32,0-4.63,0-6.95a6.65,6.65,0,0,1,.19-1.24.24.24,0,0,1,.18-.13c.14,0,.37.1.38.18a17.36,17.36,0,0,1,.15,1.77c0,2.23,0,4.46,0,6.69,0,.66.29,1,.91,1s1.54,0,2.31,0l57.12.05a7.08,7.08,0,0,1,1.79.1,17.67,17.67,0,0,0,4.35.33c3.85.06,7.72-.21,11.56.38a9.1,9.1,0,0,0,1.28,0h24.45c.6,0,1.2,0,1.79-.06a.92.92,0,0,0,.91-1c0-1.11,0-2.23,0-3.34a15.76,15.76,0,0,1,.32-2.26.46.46,0,0,1,.39-.22.44.44,0,0,1,.29.33c.06.68.08,1.37.09,2.05,0,1.21,0,2.41.05,3.61a.86.86,0,0,0,.8.85,2.94,2.94,0,0,0,.51.05h9a1.7,1.7,0,0,0,.75-.13c.21-.1.47-.3.51-.5a9.76,9.76,0,0,0,.12-1.53c.1-2.91.19-5.82.29-8.73a1.87,1.87,0,0,1,.18-.73c.06-.12.25-.19.39-.27a.32.32,0,0,1,.14.16,13.09,13.09,0,0,1,.17,1.52c0,2.57,0,5.15,0,7.72s0,2.5,2.59,2.5c.69,0,1.37,0,2.06-.07a.86.86,0,0,0,.83-.83,10.92,10.92,0,0,0,0-1.28c-.07-1.8-.16-3.6-.23-5.4a5.36,5.36,0,0,1,.55-2.73c.07-.12.3-.27.41-.24s.54.21.57.37a11.58,11.58,0,0,1,.23,2c0,2.31,0,4.63,0,6.95,0,.83.29,1.16,1,1.18,1.29,0,2.58,0,3.86,0a.85.85,0,0,0,1-.95c0-1.72,0-3.43,0-5.15s-.05-3.43,0-5.14a5.15,5.15,0,0,1,.47-1.69c.06-.15.44-.21.67-.22a.46.46,0,0,1,.38.29,8.83,8.83,0,0,1,.27,1.75c0,2.83,0,5.67,0,8.5a17.75,17.75,0,0,0,.05,1.79.84.84,0,0,0,.85.8c.34,0,.68,0,1,0,3.18,0,6.35,0,9.53,0a11.1,11.1,0,0,0,1.28-.07.84.84,0,0,0,.77-.86c0-.43,0-.86,0-1.29q0-3.47,0-6.95a3.44,3.44,0,0,1,.63-2.43,1.31,1.31,0,0,1,.83-.47,1.23,1.23,0,0,1,.76.56,4.39,4.39,0,0,1,.41,2.5c0,2.58,0,5.15,0,7.72,0,.91.34,1.23,1.25,1.27.69,0,1.38,0,2.06,0a.89.89,0,0,0,.94-1c0-1.2,0-2.41,0-3.61q0-5,.13-10c0-.44-.18-.62-.56-.62-3.77,0-7.54,0-11.32,0-.73,0-1,.35-1.08,1.13,0,.6,0,1.2,0,1.8,0,2.66,0,5.32-.06,8a4.94,4.94,0,0,1-.13,1.27c-.05.18-.34.34-.56.42s-.3-.13-.4-.26a3.41,3.41,0,0,1-.5-2.21c0-2.32,0-4.63,0-6.95,0-.68,0-1.37,0-2.05,0-.91-.21-1.1-1-1.15-.34,0-.69,0-1,0H310.93a4.48,4.48,0,0,0-1.27.07,1,1,0,0,0-.66.62,14,14,0,0,0-.08,2c0,2.06,0,4.11,0,6.17a8.54,8.54,0,0,1-.19,1.51.45.45,0,0,1-.36.25.46.46,0,0,1-.37-.23,14.92,14.92,0,0,1-.16-1.77c0-2.57,0-5.14,0-7.72q0-.92-1-.93H296a1.19,1.19,0,0,0-1.11.49c-.15.22-.21.2-.34,0-.73-.92-1.77-.62-2.6-.41a16,16,0,0,1-3.83.3ZM33.15,246.31h-.08V211.83c0-.69,0-1.37,0-2.06,0-1-.21-1.24-1.18-1.24-2.4,0-4.8,0-7.2,0a7.6,7.6,0,0,1-1.51-.18c-.12,0-.26-.23-.28-.37s.11-.36.2-.37a11.84,11.84,0,0,1,1.77-.2c2.4,0,4.8,0,7.2,0,.65,0,1-.3,1-.92,0-2.06,0-4.12,0-6.18,0-4.2,0-8.41,0-12.61,0-1-.22-1.24-1.18-1.26-1.63,0-3.26,0-4.89,0-.77,0-1.54,0-2.31,0a2.46,2.46,0,0,1-1.82-.8c-.08-.1-.09-.39,0-.45a1.69,1.69,0,0,1,.68-.31,25,25,0,0,1,6.91-.2c2.64.22,2.65.34,2.63-2.29,0-.6,0-1.21,0-1.81,0-.25,0-.51,0-.77,0-.87-.24-1.13-1-1.13-3.77,0-7.55,0-11.32,0-.61,0-.91.3-.91,1,0,3.69,0,7.38,0,11.07,0,1,.32,1.28,1.46,1.3,2,0,3.94,0,5.92.05a5.9,5.9,0,0,1,1.52.14,1,1,0,0,1,.64.67.9.9,0,0,1-.59.68,37.52,37.52,0,0,1-3.82.44c-1.29.08-2.58,0-3.86.07-1,0-1.27.22-1.29,1.15,0,1.38,0,2.75,0,4.12,0,.78.31,1.07,1.1,1.11l6.42.25c.51,0,1,.07,1.52.14.09,0,.16.21.2.34s-.1.16-.17.17a4.94,4.94,0,0,1-1,.16c-1.88,0-3.77,0-5.66,0-2.41,0-2.42,0-2.42,2.42q0,29.6,0,59.19c0,1.37.15,2.74.17,4.11a50.92,50.92,0,0,1,0,6.42c-.17,1.63-.25,3.24-.27,4.87a19.4,19.4,0,0,1-.09,3.33c-.67,3.42-.2,6.84-.3,10.26,0,.6.35.92,1,.93,1.11,0,2.23-.06,3.34,0a11.39,11.39,0,0,1,2,.33c.13,0,.21.23.31.37s-.1.13-.16.13a7.76,7.76,0,0,1-1.26.16c-1.37,0-2.75,0-4.12,0-.76,0-1.08.33-1.11,1.1s0,1.72,0,2.58c0,2.23,0,4.46,0,6.69,0,1.7.12,1.79,1.71,1.83l8.21.25a3.85,3.85,0,0,1,1,.12c.2.06.34.32.5.48a1,1,0,0,1-.38.24,3.94,3.94,0,0,1-.77.06H21.8a9.68,9.68,0,0,0-1.79.07c-.26.05-.65.41-.66.64-.06,1.45-.06,2.91,0,4.36a.73.73,0,0,0,.71.64c.42,0,.85,0,1.28,0,2,0,4-.05,5.92,0a7,7,0,0,1,1.75.28.56.56,0,0,1-.11,1.07c-1.63.05-3.26,0-4.89.08-1.44,0-2.89.12-4.34.18-.77,1.55-.21,3.2-.37,4.79a2.27,2.27,0,0,0,0,.52,1,1,0,0,0,1.17,1.07c1.8,0,3.6,0,5.39-.11a22,22,0,0,1,5.13.13,3.43,3.43,0,0,1,.94.35c.11.05.18.3.16.44s-.18.33-.3.34a11.15,11.15,0,0,1-1.53.13c-2.74,0-5.49,0-8.23,0H20.73c-1.14,0-1.4.27-1.46,1.31,0,.43,0,.86,0,1.28,0,3,.12,6,.15,9s-.15,2.68,2.61,2.68c2.06,0,4.12,0,6.18,0a3.63,3.63,0,0,1,2.41.71.89.89,0,0,1-.06,1.34,3.83,3.83,0,0,1-2.22.5c-2.4,0-4.8,0-7.21,0-1.63,0-1.69.07-1.69,1.78,0,3.2-.24,3,2.87,2.94.6,0,1.2,0,1.81,0,3.08,0,6.16,0,9.25,0,.67,0,1-.18,1-.87q0-5.79-.14-11.58c0-.78-.28-1-1.13-1-2.66,0-5.32,0-8,0-.69,0-1.38,0-2.06,0-.49,0-1-.46-.85-.74a1.21,1.21,0,0,1,.71-.61,26.35,26.35,0,0,1,2.82-.2c2.39-.1,4.79-.16,7.19-.26,1.12,0,1.26-.2,1.3-1.42,0-.34,0-.69,0-1l0-22.9c0-.52,0-1,0-1.55s-.3-.88-1-.89c-2.31,0-4.63,0-7,0-.68,0-1.36-.08-2-.15-.08,0-.15-.21-.19-.33s.11-.17.18-.17a15.09,15.09,0,0,1,1.77-.15c2.49,0,5,0,7.46-.05a.68.68,0,0,0,.7-.61,5,5,0,0,0,.07-1c-.09-2.06-.19-4.11-.28-6.16l-.48-10c-.08-1.79-.21-3.59-.22-5.39Q33.13,261.5,33.15,246.31ZM465.8,185.25h.05c0,4.29,0,8.58,0,12.87,0,.88.21,1.09,1,1.1,2.14,0,4.29,0,6.43,0,.77,0,1.55,0,2.32.05.25,0,.53.39.4.52s-.23.3-.35.31c-.77.05-1.54.07-2.31.08-2.23,0-4.46,0-6.69,0a.72.72,0,0,0-.79.8c.05,2.14.13,4.28.2,6.42a5.89,5.89,0,0,1,0,1.51,8.62,8.62,0,0,0,0,3.32,60.12,60.12,0,0,1,.68,8.69q0,33.59.05,67.17c0,.77,0,1.54,0,2.32s.3.93.93.95,1.38,0,2.06,0c1.89,0,3.78,0,5.66,0a4.73,4.73,0,0,1,1.23.26c.13,0,.32.28.29.38s-.2.53-.37.56a6.41,6.41,0,0,1-1.51.16h-6.44a6,6,0,0,0-1.27.09.84.84,0,0,0-.51.48,3.46,3.46,0,0,0-.08,1q0,8.76,0,17.5c0,.26,0,.52,0,.77a.8.8,0,0,0,.77.85c.51,0,1,0,1.54,0,1.72,0,3.43,0,5.15,0a5.57,5.57,0,0,1,2.69.71c.13.07.29.3.26.41a.92.92,0,0,1-.39.57,4.06,4.06,0,0,1-1.25.22c-1.37,0-2.75,0-4.11.1s-3.05-.49-4.5.31c-.06,1.54-.12,3.07-.17,4.6a1,1,0,0,0,.08.5,1.24,1.24,0,0,0,.47.54,1.69,1.69,0,0,0,.75.11l11.07,0c.62,0,.89-.28.91-1,0-.95,0-1.89,0-2.83,0-2.66,0-5.32,0-8,0-1.47-.1-1.54-1.66-1.57-.6,0-1.2,0-1.8,0-1.37,0-2.75,0-4.12-.08a7.58,7.58,0,0,1-1.72-.42.5.5,0,0,1-.26-.4c0-.23.13-.55.3-.63a3.26,3.26,0,0,1,1.21-.36c1.11-.07,2.23,0,3.34-.12,1.51-.14,3.07.36,4.52-.38.07-1.53.14-3.06.2-4.59a4.51,4.51,0,0,0,0-.52c0-.82-.28-1.09-1.07-1.11-1.63,0-3.26-.06-4.89-.08-.77,0-1.54,0-2.31,0a2.41,2.41,0,0,1-.73-.2c-.06,0-.14-.12-.13-.17s.08-.37.18-.4a3.62,3.62,0,0,1,1-.19c1.72,0,3.43,0,5.15,0,3.06,0,2.84.21,2.84-2.71V257q0-15.06,0-30.1a9.84,9.84,0,0,1,.11-2.31,24.21,24.21,0,0,0,.36-5.63c0-3.09,0-6.18,0-9.27,0-.51,0-1,0-1.54,0-.95-.25-1.15-1.28-1.17s-1.89.07-2.83,0c-.76,0-1.52-.16-2.28-.25-.06,0-.16-.12-.15-.14s.13-.38.24-.41a5.19,5.19,0,0,1,1.24-.21c1.37,0,2.74,0,4.11,0,.64,0,.94-.3.94-.94,0-3.35,0-6.69,0-10a.83.83,0,0,0-.93-.95,22.56,22.56,0,0,1-4.36-.11,29.28,29.28,0,0,0-5.35-.4,3.14,3.14,0,0,1-.73-.19c-.05,0-.07-.13-.07-.2s0-.21.07-.22a4.65,4.65,0,0,1,1.2-.28c2.92,0,5.83,0,8.75,0,1.33,0,1.41-.11,1.43-1.51,0-.69,0-1.37,0-2.06,0-2.16,0-2.17-2.08-2.16-1.89,0-3.78,0-5.66,0a12.69,12.69,0,0,1-2-.19.69.69,0,0,1-.41-.55.76.76,0,0,1,.49-.51,10.71,10.71,0,0,1,1.78-.16c1.89,0,3.78,0,5.67,0a6.5,6.5,0,0,0,1.53-.09,1,1,0,0,0,.63-.66c.05-1.63.05-3.26,0-4.88a1,1,0,0,0-.63-.66,8.88,8.88,0,0,0-1.79-.1l-7.72,0a12.68,12.68,0,0,1-2-.18.58.58,0,0,1-.49-.75.83.83,0,0,1,.51-.48,20,20,0,0,1,2.05-.07c3,0,6,0,9,0,1,0,1.17-.21,1.17-1.25q0-5.79,0-11.58c0-1-.25-1.2-1.23-1.21-2.23,0-4.46,0-6.69,0a8.66,8.66,0,0,1-2-.17c-.71-.2-1.57-.38-1.67-1.35-.07-.56.66-.95,1.83-1,.51,0,1,0,1.54,0h5.66c.52,0,1,0,1.55,0a1,1,0,0,0,1-.94,6.52,6.52,0,0,0,0-.77c0-3.37.3-3.32-3.44-3.17-2.83.12-5.66.22-8.48.28a11.61,11.61,0,0,1-2-.25c-.72-.11-.95,0-.95.72,0,3.94,0,7.89,0,11.83a.92.92,0,0,0,.09.5c.12.2.31.46.5.5a8.79,8.79,0,0,0,1.54.08c2.74,0,5.49,0,8.23,0a7.61,7.61,0,0,1,1.51.19.46.46,0,0,1,.25.38.5.5,0,0,1-.2.41,7.41,7.41,0,0,1-3,.55l-6.44.05a9.68,9.68,0,0,0-1.79.09,1,1,0,0,0-.62.65,10.64,10.64,0,0,0-.07,1.79ZM329.32,28.51h0c0,2,0,3.94,0,5.91,0,.81.26,1.06,1.09,1.06q5.26,0,10.53,0c1.1,0,1.28-.21,1.28-1.43,0-2-.05-3.94-.06-5.91,0-1.11,0-2.23,0-3.33a3.3,3.3,0,0,1,.46-1.43,1.07,1.07,0,0,1,.87-.41,1,1,0,0,1,.74.59,6.12,6.12,0,0,1,.23,1.76c0,2.57,0,5.14,0,7.7a8.08,8.08,0,0,0,.14,1.78,1,1,0,0,0,.68.63c1.28.07,2.56.05,3.85,0,.62,0,.89-.3.89-1q0-5.89,0-11.81c0-.79-.26-1-1.12-1q-5.27,0-10.53,0c-.86,0-1.11.25-1.15,1,0,.51,0,1,0,1.54,0,2.14,0,4.28,0,6.42a7.52,7.52,0,0,1-.21,1.77.83.83,0,0,1-1,.62,1.26,1.26,0,0,1-.81-.52A3.75,3.75,0,0,1,335,31c-.08-2.22-.11-4.44-.17-6.67a13.88,13.88,0,0,0-.11-2,1,1,0,0,0-.65-.64c-1.19-.09-2.39-.11-3.58-.1-.83,0-1.1.26-1.11,1.05C329.31,24.58,329.32,26.55,329.32,28.51ZM473.71,323.28h-5.65c-.88,0-1.12.21-1.12,1q0,5.54,0,11.05c0,1,.2,1.25,1.17,1.26,1.89,0,3.77,0,5.66,0,1.2,0,2.39,0,3.59,0a2.85,2.85,0,0,1,1.21.34,1,1,0,0,1,.54,1.07,1.7,1.7,0,0,1-.72,1,3.72,3.72,0,0,1-1.5.21c-2.48,0-5,0-7.45,0a10.63,10.63,0,0,0-1.79.09,1,1,0,0,0-.63.65c-.08,1.28-.08,2.57-.06,3.85,0,.78.28,1,1.14,1,1.8,0,3.6,0,5.4,0s3.77,0,5.66-.08a.92.92,0,0,0,1-1c0-1.45,0-2.91,0-4.37,0-2.14,0-4.28,0-6.42,0-1.05-.32-1.34-1.42-1.36-1.71,0-3.43,0-5.14,0-1.11,0-2.23,0-3.34-.1-.85-.06-1.36-.62-1.29-1.28a1.38,1.38,0,0,1,1.19-1.17,8.91,8.91,0,0,1,1-.07l3.6-.07c1.45,0,2.91,0,4.36,0a.92.92,0,0,0,1-1c.05-1.28.06-2.57.06-3.85a.75.75,0,0,0-.81-.78C477.48,323.27,475.6,323.28,473.71,323.28ZM170.79,471.59h0c0-1.89,0-3.77,0-5.66,0-1-.25-1.2-1.22-1.21-3.52,0-7,0-10.55,0-.17,0-.39,0-.5,0a1.8,1.8,0,0,0-.65.7,4.11,4.11,0,0,0-.06,1.27c0,2.48.11,5,.14,7.45a8.22,8.22,0,0,1-.19,1.78,1.28,1.28,0,0,1-1.21,1.12c-.54,0-1-.53-1-1.26,0-.43,0-.86,0-1.29,0-1.88,0-3.77,0-5.65-.08-5,.79-4.07-4.46-4.16h-.26a.86.86,0,0,0-.9,1c0,3.86,0,7.71,0,11.57,0,.77.29,1,1.13,1,3.26,0,6.51,0,9.77,0,1.93,0,1.94,0,1.95-2.06,0-2.4,0-4.8,0-7.2a4.8,4.8,0,0,1,.24-1.5.92.92,0,0,1,1-.66,1.51,1.51,0,0,1,.8.56,3,3,0,0,1,.44,2c0,1.72,0,3.43,0,5.15.08,4.5-.69,3.92,4.23,4h.26c.76-.05,1.08-.33,1.09-1.12C170.8,475.53,170.79,473.56,170.79,471.59ZM26.32,176.69h0c1.8,0,3.6,0,5.4,0,1.09,0,1.29-.21,1.3-1.39,0-3.42,0-6.85,0-10.27a1.59,1.59,0,0,0-.07-.76,1.26,1.26,0,0,0-.67-.62,6,6,0,0,0-1.53-.08c-2,0-4.1.06-6.16.07a14.61,14.61,0,0,1-2.29-.16c-.91-.15-1.56-.92-1.44-1.53s.69-1,1.64-1c2,0,3.93,0,5.9,0,1.2,0,2.4,0,3.59,0a.91.91,0,0,0,1-1c0-1.2,0-2.4,0-3.6,0-.75-.32-1-1.16-1q-5.38,0-10.78.05c-.79,0-1.06.28-1.06,1.11,0,3.59,0,7.19,0,10.78,0,.78.3,1,1.13,1.05,2.22,0,4.45,0,6.67,0a14.53,14.53,0,0,1,2.29.17,1.16,1.16,0,0,1,.9,1.35,1.13,1.13,0,0,1-1,1c-1.19.08-2.39.14-3.59.17-1.71,0-3.42,0-5.13,0-.92,0-1.24.35-1.27,1.24s0,1.89-.1,2.82c-.23,1.45.33,1.57,1.56,1.53C23.07,176.66,24.7,176.69,26.32,176.69Zm446.78-29v.15h-6.42c-.53,0-.88.26-.88.71,0,1.54,0,3.08,0,4.62,0,.46.36.64.92.58a30.74,30.74,0,0,1,3.31-.26c1.88,0,3.77.23,5.65.23,5.95,0,4.87.87,4.95-5a2.13,2.13,0,0,0,0-.25.8.8,0,0,0-.84-.79C477.56,147.72,475.33,147.73,473.1,147.73ZM27.18,346.35v0H22.81c-.86,0-1.72,0-2.57.08-.26,0-.67.37-.68.59a16.46,16.46,0,0,0,.11,5.1c1.39.65,2.86.23,4.29.3.77,0,1.54-.07,2.31-.1,1.8-.08,3.6-.2,5.4-.23,2.88,0,2.68.42,2.68-2.81,0-.69,0-1.37,0-2.06s-.31-.89-1-.89Zm119.94-318h0c0-2.22,0-4.45,0-6.68a.93.93,0,0,0-.92-1c-1.28,0-2.57,0-3.84.06-.24,0-.48.39-.67.64s-.06.33-.06.5c0,4.28.09,8.56.16,12.84,0,.74.33,1,1.15,1,1.11,0,2.23,0,3.34,0,.68,0,.89-.27.89-1ZM358.38,472h-.12c0-2.22,0-4.45,0-6.67,0-.68-.28-1-.89-1-.86,0-1.71,0-2.57,0a3.76,3.76,0,0,0-1.73.2c-.63.38,0,1.07,0,1.63s0,1.2,0,1.79c0,2.83,0,5.65,0,8.47,0,3.4-.34,3.22,3.45,3.15a7.07,7.07,0,0,0,1-.11.91.91,0,0,0,.88-1.05C358.39,476.24,358.38,474.1,358.38,472ZM352.57,28.59h0c0,2,0,3.94,0,5.91,0,.66.31,1,.92,1,1.2,0,2.4,0,3.6,0a.91.91,0,0,0,1-.91,17.77,17.77,0,0,0,0-1.79c-.09-2.65-.21-5.3-.29-8-.1-3.67.43-3.12-3.39-3.19-.26,0-.52,0-.77,0-.85,0-1.1.25-1.11,1.05C352.56,24.66,352.57,26.62,352.57,28.59ZM26.45,147.2h0c-.86,0-1.72,0-2.57,0-4.72.09-3.82-.67-3.92,4.19,0,.09,0,.17,0,.26.06.74.33,1,1.16,1,2.57,0,5.13.05,7.7,0,5,0,4.1.55,4.15-4.52,0-.78-.27-1-1.14-1C30,147.18,28.24,147.2,26.45,147.2ZM473.6,347.44v0h-1.54c-1.36,0-2.73,0-4.1,0-.67,0-1,.3-1,.91,0,1.2,0,2.39,0,3.59a.93.93,0,0,0,.95,1l.51,0,10.77-.22c.08,0,.19,0,.24,0,.24-.22.63-.44.64-.68.08-1.19.07-2.39.06-3.59a.84.84,0,0,0-.92-1C477.36,347.43,475.48,347.44,473.6,347.44ZM147.39,472.21c.09-1.38.2-2.24.19-3.09,0-5.23.64-4.35-4.54-4.39-.8,0-1,.27-1,1.12,0,3.25.06,6.51.09,9.76,0,3-.21,2.67,2.84,2.74.51,0,1,0,1.54,0a.88.88,0,0,0,.91-1C147.4,475.45,147.39,473.57,147.39,472.21ZM27.29,354.82v-.11H22.16c-2.9,0-2.71-.15-2.7,2.85a6,6,0,0,0,.11,1.27.75.75,0,0,0,.5.48,7.82,7.82,0,0,0,1.53.09c3.67-.06,7.35-.13,11-.21,1.59,0,1.72-.18,1.74-1.8a15.22,15.22,0,0,0-.06-1.79.8.8,0,0,0-.85-.78ZM473.07,145.19v.09h5.12c2.6,0,2.47,0,2.45-2.58,0-.25,0-.51,0-.77-.06-1.12-.26-1.32-1.36-1.38-4.27-.19-8.52.35-12.78.51a.93.93,0,0,0-.65.6,14.7,14.7,0,0,0-.08,2.3c0,1.07.16,1.22,1.17,1.23ZM361,471.77h0c0,2.14,0,4.28,0,6.41,0,.93.31,1.19,1.24,1.23h.51c2.76,0,2.71.1,2.62-2.67-.1-3.59-.27-7.17-.4-10.75-.06-1.64-.09-1.69-1.79-1.7-.34,0-.68,0-1,0-.82,0-1.13.29-1.14,1.06C361,467.5,361,469.64,361,471.77ZM139,28.13h0V23.26c0-2.91.15-2.66-2.87-2.64-1.15,0-1.43.25-1.41,1.3.07,4.27.17,8.53.27,12.8a.89.89,0,0,0,.94,1,17.87,17.87,0,0,0,1.79,0c1,0,1.24-.26,1.25-1.19C139,32.39,139,30.26,139,28.13ZM27,367v0h6.15c1,0,1.16-.18,1.19-1.21,0-.51,0-1,0-1.54a.89.89,0,0,0-1-.95c-3.75-.14-7.49-.29-11.25-.39-2.92-.08-2.65-.18-2.64,2.84a2.92,2.92,0,0,0,0,.51.8.8,0,0,0,.85.76ZM472.76,133v.2c-1.88,0-3.76.06-5.64,0-1,0-1.43-.31-1.39,1.4,0,.43,0,.86,0,1.28,0,.8.29,1.07,1.09,1.09q6.17.1,12.31.17c1.24,0,1.44-.22,1.47-1.51q0-.76,0-1.53a1,1,0,0,0-1.17-1.07C477.2,133,475,133,472.76,133ZM383,28.39h0c0,2,0,3.94,0,5.9,0,1,.22,1.18,1.24,1.2a14.83,14.83,0,0,0,2.31-.07,1,1,0,0,0,.61-.67,8.91,8.91,0,0,0,0-1.79c-.07-2.91-.2-5.82-.22-8.72s-.15-2.63-2.73-2.63a4.36,4.36,0,0,0-.51,0,.79.79,0,0,0-.75.85C383,24.45,383,26.42,383,28.39ZM473.76,379v0h-4.09c-2.83,0-2.72,0-2.67,2.91,0,.93.27,1.18,1.26,1.17q5-.06,10-.15c1.88,0,2-.14,2-2.08,0-.34,0-.69,0-1a.77.77,0,0,0-.81-.79ZM117,471.72h0v-4.1c0-3.23.26-2.92-3.14-2.9a1,1,0,0,0-.49.08c-.21.12-.49.29-.52.48a7.11,7.11,0,0,0-.07,1.53c.12,3.32.27,6.65.39,10,.06,1.56.2,1.71,1.81,1.74a9.14,9.14,0,0,0,1.28-.06.8.8,0,0,0,.75-.86Zm252.15.3H369v5.39c0,.35,0,.69,0,1s.25.84.75.87c3,.17,2.91.22,2.88-2.61,0-3.51-.17-7-.1-10.52,0-2-.2-1.91-2-1.89-1.18,0-1.39.2-1.4,1.32C369.13,467.75,369.15,469.88,369.15,472ZM27,370.74v0H26c-1.79,0-3.59,0-5.38,0-.77,0-1,.3-1,1.13,0,.42,0,.85,0,1.28,0,1,.25,1.23,1.22,1.22,2.39,0,4.78-.12,7.17-.16,1.71,0,3.42,0,5.13,0,1.05,0,1.29-.3,1.32-1.42,0-.26,0-.52,0-.77,0-.93-.31-1.23-1.23-1.24C31.09,370.72,29,370.74,27,370.74ZM360.37,28.38h-.05v1.28c0,1.62,0,3.24,0,4.86,0,.64.3.94.92,1s1.19,0,1.79,0c.93,0,1.19-.29,1.24-1.23,0-.51,0-1,0-1.53-.09-3-.24-6-.28-8.94,0-2.26-.15-2.17-2.36-2.16a4.36,4.36,0,0,0-.51,0,.83.83,0,0,0-.78.85C360.36,24.47,360.37,26.42,360.37,28.38Zm-229.58-.2H131V22.27a4.26,4.26,0,0,0,0-1,.92.92,0,0,0-.47-.52,1.9,1.9,0,0,0-.76-.1c-.42,0-.85,0-1.28,0-.77,0-1.14.34-1.14,1.09,0,2.39.08,4.79.13,7.18,0,1.88.15,3.77.06,5.65,0,.88.22,1.18,1.16,1.16.35,0,.69,0,1,0,.78,0,1.08-.32,1.09-1.11C130.8,32.46,130.79,30.32,130.79,28.18Zm244.5.22h0c0,2,0,3.94,0,5.9,0,1,.22,1.16,1.24,1.19q.64,0,1.29,0c.82,0,1.09-.26,1.09-1.07q0-6,0-12.06a.61.61,0,0,0-.61-.67c-.94,0-1.88,0-2.81,0-.22,0-.35.2-.34.54C375.2,24.29,375.24,26.35,375.29,28.4ZM26,121v0h2c1.19,0,2.39,0,3.58,0s1.27-.22,1.3-1.39c0-.6,0-1.2,0-1.79s-.36-.89-1-.89-1.36,0-2,0c-2.64.1-5.28.24-7.92.29-2.08,0-2.25.09-2.19,2.38,0,.09,0,.17,0,.26.07.77.35,1.06,1.13,1.06C22.62,121,24.33,121,26,121Zm98.8,350.74h-.11c0-1.63,0-3.25,0-4.87,0-2.22-.06-2.26-2.31-2.18a2,2,0,0,0-.75.11c-.21.1-.47.31-.5.51a9.74,9.74,0,0,0-.07,1.53c0,3.5,0,7,0,10.5,0,.66.23.95.88,1s1.53,0,2.3,0c.36,0,.58-.21.57-.66C124.81,475.68,124.83,473.72,124.83,471.76Zm348.64-97.41c1.53,0,3.07,0,4.6,0,2.18.06,2.18.08,2.14-2.16,0-.17,0-.34,0-.51,0-.66-.27-.9-.95-.9-3.33,0-6.65,0-10,0-.34,0-.68,0-1,0-.89.09-1.21.42-1.25,1.29,0,.42,0,.85,0,1.27,0,.76.38,1.11,1.11,1.09ZM139.59,471.47h0v-4.36c0-2.56.11-2.42-2.61-2.39h-.26a.87.87,0,0,0-.94.95c0,3.43.09,6.85.11,10.28,0,2.52,0,2.44,2.68,2.36a.88.88,0,0,0,1-.94C139.6,475.41,139.59,473.44,139.59,471.47Zm333.72-112.2v-.08c1.88,0,3.76,0,5.64,0,.93,0,1.2-.31,1.24-1.25,0-.43,0-.86,0-1.28,0-.62-.32-1-.94-1-3.67-.06-7.34-.1-11-.15l-.25,0a.93.93,0,0,0-1,1c0,.59,0,1.19,0,1.79a.86.86,0,0,0,.95.95C469.72,359.28,471.52,359.27,473.31,359.27Zm-.27-230v0h2c1.45,0,2.9,0,4.35,0a.88.88,0,0,0,1-.89c0-.42,0-.85,0-1.27,0-1.26-.23-1.46-1.52-1.46-.93,0-1.87,0-2.81.08l-8.67.33c-.25,0-.51,0-.76,0a.88.88,0,0,0-.94,1c0,.42,0,.85,0,1.27,0,.67.27.95.91.95C468.78,129.25,470.91,129.24,473,129.24ZM26.29,125.61H20.92c-.65,0-.93.27-1,.92s0,1.19,0,1.79.3.86,1,.86c3.58,0,7.17,0,10.75,0a1,1,0,0,0,.5,0c.25-.18.62-.39.67-.64a8.75,8.75,0,0,0,.08-1.78c0-.83-.26-1.1-1-1.11C30,125.6,28.17,125.61,26.29,125.61Zm.14,15.29V141H21.55a3.84,3.84,0,0,0-1,.1.83.83,0,0,0-.48.51,10.72,10.72,0,0,0-.07,1.79.94.94,0,0,0,.91,1c.68.07,1.36.13,2.05.14,2.57,0,5.14.06,7.71.08.43,0,.86,0,1.29,0,.78,0,1-.29,1-1.14,0-.6,0-1.2,0-1.8a.78.78,0,0,0-.85-.77C30.21,140.89,28.32,140.9,26.43,140.9ZM120.36,28h.13c0,1.28,0,2.56,0,3.84,0,1,0,2.06.06,3.08a.85.85,0,0,0,.34.64,2.67,2.67,0,0,0,2.23,0c.42-.21.36-.73.37-1.16,0-3.93,0-7.86,0-11.8a4.92,4.92,0,0,0-.1-1.27.77.77,0,0,0-.48-.51,7.67,7.67,0,0,0-1.52-.1c-.79,0-1,.3-1.06,1.12C120.35,23.85,120.36,25.9,120.36,28ZM376.69,471.4h-.23c0,2.31,0,4.61,0,6.91a.87.87,0,0,0,.93,1,13,13,0,0,0,1.53,0,.8.8,0,0,0,.82-.8q0-.9,0-1.8c-.09-2.72-.19-5.45-.27-8.18,0-.85,0-1.7,0-2.56,0-1.56-.19-1.69-1.81-1.66l-.51,0a.63.63,0,0,0-.61.68C376.57,467.14,376.63,469.27,376.69,471.4Zm-245,.12h0V469c0-1.11,0-2.22,0-3.32,0-.62-.32-.87-1-.92h-.26c-1,0-1.26.21-1.26,1.12,0,2.3,0,4.59,0,6.89a10.71,10.71,0,0,1-.69,5c-.18.36.16.46.37.5a6.67,6.67,0,0,0,1.27.07c1.31,0,1.51-.19,1.53-1.43C131.73,475.1,131.71,473.31,131.71,471.52ZM26.63,136.33v.07c1.71,0,3.41,0,5.12,0,1,0,1.21-.21,1.22-1.19s-.18-1.34-1.31-1.35c-2.22,0-4.44,0-6.65,0a10.52,10.52,0,0,1-4.28-.45c-.37-.15-.65.12-.71.49a7.67,7.67,0,0,0-.06,1.27c0,.83.27,1.12,1.05,1.13C22.89,136.35,24.76,136.33,26.63,136.33ZM469,103.46c-.86-.07-1.8-.15-2.73-.19-.12,0-.25.19-.35.31s-.06.19,0,.23c.73.94,1.39,1.83,2.86,1.75,2.29-.14,4.6,0,6.91,0,1.28,0,2.56,0,3.84,0a.83.83,0,0,0,.66-.3,2.3,2.3,0,0,0,.05-2.19c-.36-.6-.89.06-1.31.18a7.8,7.8,0,0,1-3.78.08,4.2,4.2,0,0,0-2-.14A14.56,14.56,0,0,1,469,103.46ZM368.42,28.53h0c0,2,0,3.94,0,5.91,0,.78.29,1,1.11,1.05h.52a.78.78,0,0,0,.82-.78c-.05-2.74-.09-5.48-.17-8.21a9.34,9.34,0,0,1,.46-3.28c.49-1.56.47-1.57-1-1.56h-.77c-.64.05-.93.31-.94,1C368.41,24.6,368.42,26.57,368.42,28.53ZM473.19,118.9v0c-1.89,0-3.77,0-5.66,0a7.8,7.8,0,0,0-1.27.12c-.32,0-.56.62-.5,1.08a.75.75,0,0,0,.62.71,9.82,9.82,0,0,0,1.54.07l9,.06a6.61,6.61,0,0,1,2.79.31c.41.19.61-.09.66-.47a3.94,3.94,0,0,0,0-.77c0-.82-.28-1.12-1-1.12C477.3,118.89,475.24,118.9,473.19,118.9ZM399.51,472.58h0c0,1.88,0,3.77,0,5.65,0,.79.28,1,1.13,1a2.15,2.15,0,0,0,.51,0c.31-.07.72-.09.55-.59a10.61,10.61,0,0,1-.26-4.08c.2-3.16-.21-6.32,0-9.48,0-.08,0-.2-.06-.24s-.31-.19-.37-.15a2.77,2.77,0,0,0-1.5,2.49C399.56,469,399.51,470.78,399.51,472.58Zm74.23-108.72v-.06c-2,0-3.92,0-5.88,0-.64,0-.91.45-.88,1.28,0,.64.3,1,.9,1,2.3,0,4.61.05,6.91,0a9.4,9.4,0,0,1,4.74.69c.34.18.62-.08.64-.52s0-.86,0-1.28c0-.81-.28-1.09-1.07-1.1C477.32,363.84,475.53,363.86,473.74,363.86ZM391.28,28.49h-.07c0,2.06,0,4.11,0,6.17,0,.57.38.83,1.06.82s1-.26,1-.87c0-2.57,0-5.14,0-7.71,0-1.45.18-2.9.3-4.35.06-.64-.15-.9-.84-.93-1.16-.05-1.47.19-1.49,1.21C391.26,24.72,391.28,26.6,391.28,28.49ZM27.33,381.25c1.61-.06,3.75-.12,5.89-.21.78,0,1.05-.26,1.12-.8s-.31-.93-1.21-.94c-3.17,0-6.34-.06-9.51-.08a7,7,0,0,1-3.51-.54c-.34-.19-.47.13-.5.35a7.8,7.8,0,0,0,0,1.28.86.86,0,0,0,.8.85,9.07,9.07,0,0,0,1.28.08Zm-.93,13.41H22.81c-.78,0-1.55,0-2.32,0-.58,0-.86.36-.89,1,0,.34,0,.69,0,1a.52.52,0,0,0,.71.48,8.09,8.09,0,0,1,4.54-.38,5.43,5.43,0,0,0,1.79.08c2.13-.53,4.25-.18,6.38-.1a3.82,3.82,0,0,0,1-.11.44.44,0,0,0,.14-.39,3.11,3.11,0,0,0-2.92-1.68C29.67,394.75,28,394.66,26.4,394.66Zm82.25,76.89h.09c0-1.95,0-3.91,0-5.87a1.05,1.05,0,1,0-2.1,0c0,.17,0,.34,0,.51,0,3.83-.1,7.65-.14,11.48a.33.33,0,0,0,0,.24c.16.18.31.44.51.5.9.27,1.6-.16,1.61-1C108.67,475.47,108.65,473.51,108.65,471.55ZM26.45,110.7v.06c-2-.09-3.91-.2-5.87-.27a.89.89,0,0,0-.63.29,1.19,1.19,0,0,0,.73,1.8,6.44,6.44,0,0,0,.76,0l10,0a3.07,3.07,0,0,0,1-.1,1,1,0,0,0-.35-1.83C30.2,110.69,28.32,110.7,26.45,110.7ZM386.39,471.87h-.19c0-1.45,0-2.9,0-4.36,0-.85-.06-1.7-.14-2.55a.57.57,0,0,0-.68-.57.79.79,0,0,0-.54.46,10.49,10.49,0,0,0-.15,1.77c-.05,3.08-.07,6.15-.12,9.22a26,26,0,0,1-.21,2.8c-.07.52.26.59.57.62,1,.11,1.44-.2,1.45-1.25C386.41,476,386.39,473.92,386.39,471.87ZM100.45,27.7h0c0-1.95,0-3.91,0-5.87,0-.89-.38-1.16-1.32-1.1-.53,0-.88.35-.77.77a11.75,11.75,0,0,1,.07,5.56,2.45,2.45,0,0,0,0,1.26,11,11,0,0,1,.26,3.29c0,1,0,2,0,3.06a1,1,0,0,0,.34.58s.29-.12.42-.22a2.22,2.22,0,0,0,1-2C100.42,31.28,100.45,29.49,100.45,27.7Zm13.28.37h.07c0,2,0,3.92,0,5.88a4,4,0,0,0,.18,1.24.76.76,0,0,0,.57.41.71.71,0,0,0,.56-.39,11.53,11.53,0,0,0,.17-1.76c.18-4.08-.18-8.17.35-12.24,0-.13-.28-.42-.47-.45-.92-.19-1.42.13-1.43.92C113.71,23.81,113.73,25.94,113.73,28.07ZM474.25,389.33c.47,0,1.41.13,2.35.18s2,.08,3.07.05c.37,0,.51-.38.53-.74s0-.91-.43-1.11a2.38,2.38,0,0,0-1-.14l-10.26,0a2.75,2.75,0,0,0-1,.13.73.73,0,0,0-.41.56,1.28,1.28,0,0,0,.33.87,1.7,1.7,0,0,0,1,.22ZM399.45,28.49h0c0,1.54,0,3.08,0,4.61,0,.6,0,1.2.07,1.79,0,.39.33.56.7.6a.9.9,0,0,0,1.1-1,41.26,41.26,0,0,1,0-11.21,3.5,3.5,0,0,0,0-1,.76.76,0,0,0-.72-.6.9.9,0,0,0-1.16,1C399.44,24.57,399.45,26.53,399.45,28.49ZM27.09,388.21v0c2.15,0,4.29,0,6.43,0a1.1,1.1,0,0,0,.76-.51c.19-.3-.26-.83-.69-.89a4.4,4.4,0,0,0-.51-.05l-12.35-.08a1.35,1.35,0,0,0-.73.15.9.9,0,0,0-.37.61.77.77,0,0,0,.31.62,2.17,2.17,0,0,0,1,.19C23,388.22,25,388.21,27.09,388.21ZM473.28,113.28v.06h5.41a4.33,4.33,0,0,0,1.25-.15.78.78,0,0,0,.36-.59.8.8,0,0,0-.3-.63,2.12,2.12,0,0,0-1-.21q-6,0-12.1,0a1.5,1.5,0,0,0-.74.12.91.91,0,0,0-.39.59.77.77,0,0,0,.33.61,2.48,2.48,0,0,0,1,.19C469.17,113.29,471.22,113.28,473.28,113.28ZM100.53,471.5h0c0-1.2,0-2.4,0-3.59,0-.86,0-1.71-.06-2.56,0-.42-.45-.67-.94-.62a.73.73,0,0,0-.7.6,2.86,2.86,0,0,0,0,.51c0,2.3.14,4.61.14,6.91,0,1.54-.15,3.07-.21,4.61,0,.71.24,1.07.75,1.14s1-.3,1-1.11C100.54,475.43,100.53,473.46,100.53,471.5Zm373.3-75.57v0h-3.59c-.68,0-1.36,0-2.05,0-.25,0-.58,0-.72.17a1.51,1.51,0,0,0-.34.89c0,.15.33.45.51.45,1.28,0,2.56-.07,3.84-.05a49.16,49.16,0,0,1,7.67.3.88.88,0,0,0,1-1.08.9.9,0,0,0-1-.66ZM392,471.6h-.17c0,2.14,0,4.29,0,6.43a2.71,2.71,0,0,0,.24,1,.6.6,0,0,0,.44.21A.53.53,0,0,0,393,479a2.71,2.71,0,0,0,.27-.95c0-1.54,0-3.09,0-4.63,0-2.57,0-5.14,0-7.71a3.61,3.61,0,0,0-.31-1.19c0-.06-.39-.08-.42,0a2.32,2.32,0,0,0-.33.92C392.06,467.5,392,469.55,392,471.6ZM108,28.19h.12c0-2,0-3.92,0-5.87,0-.56.19-1.26-.58-1.5-.49-.14-.83.45-.82,1.57,0,4.09.13,8.17.21,12.26a2.14,2.14,0,0,0,.25.69c0,.06.13.15.17.13s.38-.08.42-.19a2.75,2.75,0,0,0,.23-1C108,32.27,108,30.23,108,28.19ZM26.28,104.05v0H30.9c.43,0,.86,0,1.28,0a.77.77,0,0,0,.72-.87.79.79,0,0,0-.92-.67c-.42,0-.85.1-1.27.13-.94.06-1.88.17-2.81.15-2.06-.07-4.1-.21-6.16-.3a5.88,5.88,0,0,0-1.51.11c-.17,0-.36.39-.37.6a.82.82,0,0,0,.31.65,2.3,2.3,0,0,0,1,.21C22.86,104.06,24.57,104.05,26.28,104.05ZM89.39,72.84c-.07-.06-.11-.14-.18-.16s-.2,0-.23,0c-.61.78-1.21,1.57-1.79,2.38,0,.08,0,.38.09.41a3.18,3.18,0,0,0,1.37.48c.51-.06.26-.66.34-1,.12-.57.27-1.12.39-1.69A1.62,1.62,0,0,0,89.39,72.84Zm338,334.92c-.17.11-.36.17-.42.29-.46,1-.48,2.27,0,2.34.75.12,1.13-.6,1.7-.89a1.75,1.75,0,0,0,.38-.34.36.36,0,0,0-.08-.62C428.41,408.24,427.88,408,427.37,407.76ZM72.76,92.39c.09-.08.24-.15.29-.27s.11-.5.21-.73c.23-.56.5-1.17-.14-1.58s-.91.23-1.31.48a4.89,4.89,0,0,0-.93.83c-.06.07,0,.35.05.38C71.53,91.82,72.14,92.09,72.76,92.39Zm340,332.18c-.14-.09-.33-.3-.54-.31s-.86.05-.88.16a11.4,11.4,0,0,1-.87,2.86s.09.14.15.19.18.08.22,0a7.23,7.23,0,0,0,1.94-2.61C412.82,424.85,412.78,424.75,412.77,424.57ZM76.56,86.64c-.33.27-.59.38-.66.57s.09.39.15.6c.18-.06.51-.08.53-.17A4.29,4.29,0,0,0,76.56,86.64ZM423.78,413.2l.34-.52-.49-.31a4.41,4.41,0,0,0-.26.59S423.59,413.1,423.78,413.2Z"/><path d="M63.61,398.84a11.35,11.35,0,0,1-1.54,0,1.58,1.58,0,0,1-1.34-1.63,1.77,1.77,0,0,1,1.58-1.73,1.62,1.62,0,0,1,1.61,1.37,10.78,10.78,0,0,1-.15,1.78A.22.22,0,0,1,63.61,398.84Z"/><path d="M402.14,424.7a2.61,2.61,0,0,1,2.13,1.34,2.08,2.08,0,0,1-.16,2.38,2,2,0,0,1-2.27.7,5.25,5.25,0,0,1-1.14-.56,2,2,0,0,1-.91-2.41A2.34,2.34,0,0,1,402.14,424.7Z"/><path d="M64.47,106.06a6.78,6.78,0,0,1-1-.14,2.06,2.06,0,0,1-1.59-1.79,2,2,0,0,1,.71-2,2,2,0,0,1,2.38-.16,2.6,2.6,0,0,1,1.55,2.17C66.54,105.29,65.87,106,64.47,106.06Z"/><path d="M438.17,396.42a2,2,0,0,1-3.09,1.73,4.26,4.26,0,0,1-1.38-1.45,1.81,1.81,0,0,1,1.62-2.7,5.13,5.13,0,0,1,1.94.51C438,394.87,438.15,395.67,438.17,396.42Z"/><path d="M97.57,71c1.59.05,2.87,1.17,2.78,2.42A2.18,2.18,0,0,1,98,75.32,2.46,2.46,0,0,1,95.45,73,2,2,0,0,1,97.57,71Z"/><path d="M416.24,415a2,2,0,0,1-2.18,2,2.53,2.53,0,0,1-2.16-2.72,2,2,0,0,1,1.9-1.77A2.59,2.59,0,0,1,416.24,415Z"/><path d="M393.59,449.85a2.29,2.29,0,0,1-2.47,2.08,2,2,0,0,1-1.94-2.23,2.21,2.21,0,1,1,4.41.15Z"/><path d="M108.49,52.57A1.84,1.84,0,0,1,106.55,51a2.13,2.13,0,0,1,1.14-2.54,3.06,3.06,0,0,1,.73-.21,1.89,1.89,0,0,1,2.35,1.94A2.14,2.14,0,0,1,108.49,52.57Z"/><path d="M83.86,85.23a2.14,2.14,0,0,1,1.34-2.17,2,2,0,0,1,2.25.77,3.57,3.57,0,0,1,.47.91,2,2,0,0,1-1.22,2.67A2.27,2.27,0,0,1,84,86,4.79,4.79,0,0,1,83.86,85.23Z"/><path d="M397.88,67.84a6.23,6.23,0,0,1,.29-1.28,2,2,0,0,1,3.35-.41,1.75,1.75,0,0,1,.33,1.67,3.23,3.23,0,0,1-1.6,1.88,1.62,1.62,0,0,1-2.33-1.15C397.91,68.38,397.9,68.21,397.88,67.84Z"/><path d="M394.43,430.59a2.16,2.16,0,0,1,2.2,1.6,2.9,2.9,0,0,1-1.34,2.81,1.68,1.68,0,0,1-2.07-.4,2.82,2.82,0,0,1,.23-3.49A5,5,0,0,1,394.43,430.59Z"/><path d="M103.42,67.3a2.61,2.61,0,0,1,1.2-2.18,1.6,1.6,0,0,1,2.43.91,5.73,5.73,0,0,1,.09,1.75,1.87,1.87,0,0,1-1.87,1.7,1.91,1.91,0,0,1-1.85-2Z"/><path d="M72.41,397.3a2.82,2.82,0,0,1-1,2.12,1.85,1.85,0,0,1-2.93-1.21,2.76,2.76,0,0,1,.91-2.53,1.76,1.76,0,0,1,2.88.77A6.24,6.24,0,0,1,72.41,397.3Z"/><path d="M427.73,103.23a2.55,2.55,0,0,1,1-2.58,1.93,1.93,0,0,1,2.16,0,2,2,0,0,1,.77,2,5.68,5.68,0,0,1-.8,1.57,1.56,1.56,0,0,1-1.56.68,2,2,0,0,1-1.51-1.54C427.72,103.22,427.72,103.05,427.73,103.23Z"/><path d="M48.48,388.28a1.86,1.86,0,0,1-2.11-2,2,2,0,0,1,1.75-2.14,2.4,2.4,0,0,1,2.32,2.27A1.81,1.81,0,0,1,48.48,388.28Z"/><path d="M451.47,111.72a1.83,1.83,0,0,1,2.09,2c.05,1.3-.54,2.07-1.65,2.13a2.24,2.24,0,0,1-2.37-2.16A2,2,0,0,1,451.47,111.72Z"/><path d="M393.25,442.12a1.92,1.92,0,0,1,1.72-1.9,2,2,0,0,1,1.92,1.73,6,6,0,0,1,0,1.27,1.49,1.49,0,0,1-1,1.38,1.75,1.75,0,0,1-1.9-.39A2.46,2.46,0,0,1,393.25,442.12Z"/><path d="M418.15,88.18A2,2,0,0,1,420,90.25a2.35,2.35,0,0,1-2.58,1.91c-1-.07-1.53-.84-1.45-2A2.22,2.22,0,0,1,418.15,88.18Z"/><path d="M103,57.56a7.9,7.9,0,0,1,.1-.86,1.75,1.75,0,0,1,2.84-.89,2.5,2.5,0,0,1,.83,2.54,1.63,1.63,0,0,1-1.34,1.38,1.94,1.94,0,0,1-2.24-1.27A6.35,6.35,0,0,1,103,57.56Z"/><path d="M90.38,80.44a2.18,2.18,0,0,1,2.28,1.91,2,2,0,0,1-2.13,2,2,2,0,0,1-.15-3.92Z"/><path d="M100.36,434.57a1.94,1.94,0,0,1-1.94-.8,2,2,0,0,1,0-2.17,2.88,2.88,0,0,1,1.52-1.29,1.58,1.58,0,0,1,2.09,1.27,5.72,5.72,0,0,1-.17,1.75A1.54,1.54,0,0,1,100.36,434.57Z"/><path d="M84,409.64a2,2,0,0,1-2.41,2.17,1.79,1.79,0,0,1-1.27-2.69,3.24,3.24,0,0,1,1.08-1A1.64,1.64,0,0,1,84,409.64Z"/><path d="M417.29,83a10.81,10.81,0,0,1-.79,1.44,1.79,1.79,0,0,1-2.09.41,1.66,1.66,0,0,1-.79-2,5.32,5.32,0,0,1,.86-1.52,1.55,1.55,0,0,1,1.85-.4A2,2,0,0,1,417.29,83Z"/><path d="M409.65,419.53a2.1,2.1,0,0,1-2.35-1.82,2,2,0,0,1,2-1.89c1.27-.06,2,.55,2.08,1.69A1.69,1.69,0,0,1,409.65,419.53Z"/><path d="M66.59,389.85a1.7,1.7,0,0,1-1.69,1.8,2.42,2.42,0,0,1-2.37-2.15,2,2,0,0,1,1.93-1.66A2,2,0,0,1,66.59,389.85Z"/><path d="M82.94,419.05c0-.6-.12-1.2-.13-1.79a2.47,2.47,0,0,1,.85-1.82,1.63,1.63,0,0,1,2.6.44,2.34,2.34,0,0,1-1.61,3.2,8.92,8.92,0,0,1-1.78-.11Z"/><path d="M410.51,410a1.92,1.92,0,0,1-1.12,1.6,1.65,1.65,0,0,1-1.85-.54,3.86,3.86,0,0,1-.68-1.34,1.61,1.61,0,0,1,.77-1.77,1.56,1.56,0,0,1,1.7-.07A2.34,2.34,0,0,1,410.51,410Z"/><path d="M57.75,106.7a8.42,8.42,0,0,1-.13.87,1.51,1.51,0,0,1-1.3,1.07,1.59,1.59,0,0,1-1.57-.65,2.22,2.22,0,0,1,.15-2.83,1.7,1.7,0,0,1,1.86-.49,1.46,1.46,0,0,1,1,1.38C57.73,106.22,57.74,106.39,57.75,106.7Z"/><path d="M455,368.16a1.78,1.78,0,0,1-1.91-1.92,2,2,0,0,1,2.1-1.78,1.85,1.85,0,1,1-.19,3.7Z"/><path d="M60.83,99.85a1.85,1.85,0,0,1-1.8,2A2,2,0,0,1,57.26,100,2.08,2.08,0,0,1,59,97.86,1.84,1.84,0,0,1,60.83,99.85Z"/><path d="M433.4,110.32a1.61,1.61,0,0,1,1.69-1.8,2.27,2.27,0,0,1,2.38,1.86,1.86,1.86,0,0,1-1.79,1.8A2,2,0,0,1,433.4,110.32Z"/><path d="M105.18,75.72a3.47,3.47,0,0,1,1.1.56,2.14,2.14,0,0,1,0,3,1.6,1.6,0,0,1-1.37.5c-.93-.09-1.46-.85-1.44-2S104,75.8,105.18,75.72Z"/><path d="M443.93,391.33l.25,0a2,2,0,0,1,1.44,2.59,1.86,1.86,0,0,1-2.35,1.37,1.09,1.09,0,0,1-.46-.22,2.27,2.27,0,0,1-.5-2.36,1.77,1.77,0,0,1,1.37-1.37Z"/><path d="M117.92,53.8a1.82,1.82,0,0,1-1.9,1.93,1.75,1.75,0,0,1-1.68-1.86,2,2,0,0,1,2.07-2.08A1.76,1.76,0,0,1,117.92,53.8Z"/><path d="M57.26,390.14a2.09,2.09,0,0,1-2,2,2,2,0,0,1-2-1.66,2.4,2.4,0,0,1,2.17-2.14A1.87,1.87,0,0,1,57.26,390.14Z"/><path d="M440.88,402.11a1.79,1.79,0,0,1-1.76-2.06,1.79,1.79,0,0,1,3.58.06A1.79,1.79,0,0,1,440.88,402.11Z"/><path d="M411.26,404.06a1.83,1.83,0,1,1,1.81,2A1.79,1.79,0,0,1,411.26,404.06Z"/><path d="M385.6,446.19a2,2,0,0,1-.64,1.59,1.66,1.66,0,0,1-2.62-.3,2.26,2.26,0,0,1,1.12-3.16A1.76,1.76,0,0,1,385.6,446.19Z"/><path d="M43.11,133.75a1.82,1.82,0,0,1,1.9-1.92,1.9,1.9,0,0,1,1.82,2.25A1.79,1.79,0,0,1,45,135.54,1.62,1.62,0,0,1,43.11,133.75Z"/><path d="M92.38,427.17a1.92,1.92,0,0,1,1.92-1.95,1.76,1.76,0,0,1,1.89,1.64,1.93,1.93,0,0,1-3.81.31Z"/><path d="M446.71,109.76a2.31,2.31,0,0,1-2.14,1.92,1.74,1.74,0,0,1-1.75-1.18,2.06,2.06,0,0,1,0-1.23,1.92,1.92,0,0,1,1.79-1.18,1.82,1.82,0,0,1,1.87,1A2.8,2.8,0,0,1,446.71,109.76Z"/><path d="M91.46,92.3a1.83,1.83,0,0,1-1.66-1,2.1,2.1,0,0,1,.2-2.36,1.74,1.74,0,0,1,.87-.45,1.77,1.77,0,0,1,1.92.9,2,2,0,0,1,.14,2.14A1.64,1.64,0,0,1,91.46,92.3Z"/><path d="M102.43,60.33a1.89,1.89,0,0,1,1.87,1.74,2,2,0,0,1-1.83,2.06,1.91,1.91,0,0,1-1.7-1.91A1.76,1.76,0,0,1,102.43,60.33Z"/><path d="M88.79,95.89a1.81,1.81,0,0,1-1.86,1.94A1.89,1.89,0,0,1,85,95.92a1.83,1.83,0,0,1,1.76-1.79A1.75,1.75,0,0,1,88.79,95.89Z"/><path d="M399.34,437.91a1.77,1.77,0,0,1-1.81,1.74,1.67,1.67,0,0,1-1.74-2,1.69,1.69,0,0,1,1.87-1.64A1.91,1.91,0,0,1,399.34,437.91Z"/><path d="M419.43,392.37a2,2,0,0,1,1.77-2.12,1.91,1.91,0,0,1,1.75,1.87,2,2,0,0,1-2,2A1.69,1.69,0,0,1,419.43,392.37Z"/><path d="M78.88,109.73A1.63,1.63,0,0,1,77.15,108a1.77,1.77,0,0,1,3.53-.31A2,2,0,0,1,78.88,109.73Z"/><path d="M430.23,387.91a1.92,1.92,0,0,1-2.08,1.74,1.55,1.55,0,0,1-1.49-1.69,1.78,1.78,0,0,1,1.87-1.9A1.87,1.87,0,0,1,430.23,387.91Z"/><path d="M407.62,73.12c0,1-.89,1.69-2.11,1.68a1.67,1.67,0,0,1-1.71-1.52,1.88,1.88,0,0,1,2-1.83A1.71,1.71,0,0,1,407.62,73.12Z"/><path d="M396.62,422.25c0,1.46-1,2.33-2.25,1.93a1.39,1.39,0,0,1-1-1,4,4,0,0,1-.09-1.25,1.64,1.64,0,0,1,1.72-1.5,1.49,1.49,0,0,1,1.55,1.37C396.56,421.93,396.59,422.1,396.62,422.25Z"/><path d="M81.14,405.08a2.08,2.08,0,0,1-1.69,2,1.9,1.9,0,0,1-1.76-1.84,1.92,1.92,0,0,1,1.78-2.1A2,2,0,0,1,81.14,405.08Z"/><path d="M116.25,61.74a2,2,0,0,1-1.64,2,1.77,1.77,0,1,1,0-3.53A1.54,1.54,0,0,1,116.25,61.74Z"/><path d="M71.63,110.39a1.84,1.84,0,0,1,1.81,1.77,2.16,2.16,0,0,1-1.79,1.9,1.72,1.72,0,0,1-1.75-1.8A1.84,1.84,0,0,1,71.63,110.39Z"/><path d="M102.84,439.15a1.6,1.6,0,0,1,1.63,1,1.74,1.74,0,0,1-.26,1.7,1.59,1.59,0,0,1-2.06.46,1.8,1.8,0,0,1-1.13-2.07A1.65,1.65,0,0,1,102.84,439.15Z"/><path d="M92.45,407.13a1.65,1.65,0,0,1,1.71,1.79,1.82,1.82,0,0,1-1.82,1.74,1.89,1.89,0,0,1-1.59-1.73A1.68,1.68,0,0,1,92.45,407.13Z"/><path d="M437.35,388.75a1.88,1.88,0,0,1,1.7,1.85,1.61,1.61,0,0,1-1.78,1.67,1.79,1.79,0,0,1-1.74-1.78A1.91,1.91,0,0,1,437.35,388.75Z"/><path d="M444.85,385a1.53,1.53,0,0,1-1.59-1.59,2,2,0,0,1,1.74-1.85,1.84,1.84,0,0,1,1.74,1.8A1.79,1.79,0,0,1,444.85,385Z"/><path d="M407.57,89.5a1.64,1.64,0,0,1,1.64,1.85,1.75,1.75,0,0,1-1.82,1.71,2,2,0,0,1-1.54-2A1.65,1.65,0,0,1,407.57,89.5Z"/><path d="M420.59,96.9A1.77,1.77,0,0,1,418.93,95a1.73,1.73,0,0,1,1.87-1.89,1.83,1.83,0,0,1,1.57,1.71A1.91,1.91,0,0,1,420.59,96.9Z"/><path d="M372.63,47.76a1.62,1.62,0,0,1-1.47,1.73,2,2,0,0,1-2-1.84A1.88,1.88,0,0,1,371,45.89,1.86,1.86,0,0,1,372.63,47.76Z"/><path d="M64.42,109.59a1.6,1.6,0,0,1-1.61,1.64,1.83,1.83,0,0,1-1.9-1.93,1.88,1.88,0,0,1,1.76-1.55A1.83,1.83,0,0,1,64.42,109.59Z"/><path d="M53.44,378.58a1.75,1.75,0,1,1-3.5-.18,1.52,1.52,0,0,1,1.64-1.52A1.89,1.89,0,0,1,53.44,378.58Z"/><path d="M89.58,103.54a1.8,1.8,0,0,1-1.6,1.93,1.75,1.75,0,1,1,0-3.5A1.54,1.54,0,0,1,89.58,103.54Z"/><path d="M55,118.41a1.76,1.76,0,0,1-1.74-1.56A1.87,1.87,0,0,1,55,115a1.6,1.6,0,0,1,1.69,1.56A1.71,1.71,0,0,1,55,118.41Z"/><path d="M391.24,438.6a1.54,1.54,0,0,1-1.6,1.63,2,2,0,0,1-2-1.93,2.14,2.14,0,0,1,1.83-1.55A1.83,1.83,0,0,1,391.24,438.6Z"/><path d="M397.52,60.83h-.47c-1.13-.06-1.8-.76-1.68-1.76a1.81,1.81,0,1,1,3.54.79A1.4,1.4,0,0,1,397.52,60.83Z"/><path d="M129,450.47a2,2,0,0,1,1.8,1.84,1.6,1.6,0,0,1-1.44,1.78,1.75,1.75,0,0,1-1.94-1.61A1.89,1.89,0,0,1,129,450.47Z"/><path d="M88.85,404.25A2,2,0,0,1,86.91,406a1.56,1.56,0,0,1-1.57-1.67,2,2,0,0,1,2.18-1.71A1.76,1.76,0,0,1,88.85,404.25Z"/><path d="M387.15,438.22a1.94,1.94,0,0,1-1.81,1.78,1.73,1.73,0,0,1-1.57-1.68,1.84,1.84,0,0,1,2-1.87A1.62,1.62,0,0,1,387.15,438.22Z"/><path d="M412.24,379.11a1.7,1.7,0,1,1-3.39-.25,1.74,1.74,0,0,1,2-1.54A1.71,1.71,0,0,1,412.24,379.11Z"/><path d="M427,110a1.79,1.79,0,1,1-3.56-.37c.25-.83,1-1.21,2.05-1.09A1.61,1.61,0,0,1,427,110Z"/><path d="M74.91,388.34A2.08,2.08,0,0,1,76.66,390a1.79,1.79,0,0,1-1.88,1.68,1.58,1.58,0,0,1-1.67-1.81A1.87,1.87,0,0,1,74.91,388.34Z"/><path d="M112.25,61.68a1.84,1.84,0,0,1-2,1.6,1.91,1.91,0,0,1-1.58-1.76,1.76,1.76,0,0,1,1.82-1.75A1.94,1.94,0,0,1,112.25,61.68Z"/><path d="M413.81,396.28a1.65,1.65,0,0,1-1.75,1.77,1.59,1.59,0,0,1-1.67-1.58,1.71,1.71,0,0,1,1.5-1.77A1.64,1.64,0,0,1,413.81,396.28Z"/><path d="M401.06,443.49a1.63,1.63,0,0,1-1.6,1.62,1.65,1.65,0,0,1-1.67-1.8,1.64,1.64,0,1,1,3.27.18Z"/><path d="M100.63,55.05a1.66,1.66,0,0,1,1.68,1.52,1.68,1.68,0,0,1-1.75,1.72,1.62,1.62,0,1,1,.07-3.24Z"/><path d="M89.61,122.81a1.78,1.78,0,0,1-1.8-1.44,1.72,1.72,0,0,1,1.53-1.94,1.61,1.61,0,0,1,1.77,1.41A1.73,1.73,0,0,1,89.61,122.81Z"/><path d="M449.3,389.59a1.61,1.61,0,0,1-1.8,1.69,1.59,1.59,0,0,1-1.53-1.43,1.76,1.76,0,0,1,1.7-1.84A1.54,1.54,0,0,1,449.3,389.59Z"/><path d="M104.26,418.87a1.7,1.7,0,0,1-1.82-1.68,1.59,1.59,0,0,1,1.25-1.67,1.86,1.86,0,0,1,2,1.56A1.6,1.6,0,0,1,104.26,418.87Z"/><path d="M412.57,97.54a1.75,1.75,0,0,1-1-2.65c.52-.85,2.51-1.1,3,.12a1.64,1.64,0,0,1,.18.73A2.25,2.25,0,0,1,412.57,97.54Z"/><path d="M380.27,452.61a1.76,1.76,0,0,1-1.59,1.69,1.68,1.68,0,0,1-1.76-1.48A1.74,1.74,0,0,1,378.6,451,1.85,1.85,0,0,1,380.27,452.61Z"/><path d="M405.48,62.52a1.87,1.87,0,0,1-2,1.56A1.76,1.76,0,0,1,402,62.31a1.6,1.6,0,0,1,1.92-1.51A1.82,1.82,0,0,1,405.48,62.52Z"/><path d="M54,110.25a1.83,1.83,0,0,1-1.63,1.89,1.63,1.63,0,0,1-1.66-1.55,1.76,1.76,0,0,1,1.61-1.88A1.7,1.7,0,0,1,54,110.25Z"/><path d="M387,419.14a1.74,1.74,0,0,1-1.58,1.69,1.82,1.82,0,0,1-1.77-1.5,1.68,1.68,0,1,1,3.35-.19Z"/><path d="M436.5,101.45a5.45,5.45,0,0,1,1.48-.21,1.59,1.59,0,0,1,1.3,1.86,1.68,1.68,0,0,1-1.82,1.41,1.58,1.58,0,0,1-1.45-1.75,5.5,5.5,0,0,1,.56-1.37Z"/><path d="M393.34,75.55A1.58,1.58,0,0,1,391.87,77a1.77,1.77,0,0,1-1.64-1.88,1.53,1.53,0,0,1,1.49-1.44A1.62,1.62,0,0,1,393.34,75.55Z"/><path d="M390.56,47.92a1.54,1.54,0,0,1,1.65,1.55,1.8,1.8,0,0,1-1.44,1.82,1.82,1.82,0,0,1-1.67-1.62A1.61,1.61,0,0,1,390.56,47.92Z"/><path d="M96.41,436A1.63,1.63,0,0,1,97.92,438a1.43,1.43,0,0,1-1.61,1.26,1.57,1.57,0,0,1-1.67-1.77A1.63,1.63,0,0,1,96.41,436Z"/><path d="M103.13,70.63a1.5,1.5,0,0,1,1.51,1.4A1.7,1.7,0,0,1,103.07,74a1.65,1.65,0,0,1-1.56-1.4A1.8,1.8,0,0,1,103.13,70.63Z"/><path d="M441.81,107.38a1.63,1.63,0,0,1-1.63,1.61,1.59,1.59,0,0,1-1.6-1.61,1.7,1.7,0,0,1,1.62-1.64A1.68,1.68,0,0,1,441.81,107.38Z"/><path d="M66.79,137.16a1.74,1.74,0,0,1-1.33,1.67,1.64,1.64,0,0,1-1.73-1.52,1.57,1.57,0,0,1,1.39-1.81A1.84,1.84,0,0,1,66.79,137.16Z"/><path d="M450,121.65a1.37,1.37,0,0,1-1.43,1.45c-1.16,0-1.87-.56-1.89-1.59a1.53,1.53,0,0,1,1.57-1.63A1.66,1.66,0,0,1,450,121.65Z"/><path d="M61.35,392.82a1.46,1.46,0,0,1-1.67,1.47,1.5,1.5,0,0,1-1.48-1.67,1.46,1.46,0,0,1,1.68-1.46A1.44,1.44,0,0,1,61.35,392.82Z"/><path d="M121.49,45.82a1.6,1.6,0,1,1-.06,3.19,1.53,1.53,0,0,1-1.57-1.63A1.49,1.49,0,0,1,121.49,45.82Z"/><path d="M107.1,434a1.46,1.46,0,0,1-1.66,1.46,1.4,1.4,0,0,1-1.35-1.5,1.5,1.5,0,0,1,1.54-1.61A1.47,1.47,0,0,1,107.1,434Z"/><path d="M392.85,66.17a1.74,1.74,0,0,1,1.56-1.68,1.43,1.43,0,0,1,1.44,1.43,1.52,1.52,0,1,1-3,.25Z"/><path d="M116.35,80.8a1.51,1.51,0,0,1-1.51,1.66A1.48,1.48,0,0,1,113.18,81a1.51,1.51,0,0,1,1.5-1.67A1.54,1.54,0,0,1,116.35,80.8Z"/><path d="M397.5,82.83A1.45,1.45,0,0,1,396,84.49a1.66,1.66,0,0,1-1.69-1.56,1.59,1.59,0,0,1,3.18-.1Z"/><path d="M396.69,405a1.77,1.77,0,0,1-1.83-1.72,1.69,1.69,0,0,1,1.7-1.56,1.63,1.63,0,0,1,1.49,1.48A1.53,1.53,0,0,1,396.69,405Z"/><path d="M99,86a1.5,1.5,0,0,1-1.65,1.53A1.54,1.54,0,0,1,95.85,86a1.52,1.52,0,0,1,1.53-1.65A1.49,1.49,0,0,1,99,86Z"/><path d="M396.75,429.36a1.45,1.45,0,0,1-1.41-1.7,1.56,1.56,0,0,1,1.7-1.47,1.45,1.45,0,0,1,1.4,1.71A1.53,1.53,0,0,1,396.75,429.36Z"/><path d="M101.93,96.62a1.41,1.41,0,0,1,1.63-1.47,1.51,1.51,0,0,1,1.54,1.63,1.53,1.53,0,0,1-1.65,1.51A1.58,1.58,0,0,1,101.93,96.62Z"/><path d="M109.73,424.83a1.44,1.44,0,0,1-1.47,1.45,1.56,1.56,0,0,1-1.65-1.57,1.5,1.5,0,0,1,1.61-1.59A1.57,1.57,0,0,1,109.73,424.83Z"/><path d="M109.27,452.05a1.49,1.49,0,0,1-1.51-1.43,1.7,1.7,0,0,1,1.53-1.75,1.73,1.73,0,0,1,1.65,1.89A1.53,1.53,0,0,1,109.27,452.05Z"/><path d="M436.39,363a1.43,1.43,0,0,1-1.43,1.45,1.46,1.46,0,0,1-1.61-1.53,1.42,1.42,0,0,1,1.51-1.61A1.66,1.66,0,0,1,436.39,363Z"/><path d="M404.1,414.29a1.6,1.6,0,0,1-1.49,1.47,1.72,1.72,0,0,1-1.62-1.65,1.57,1.57,0,1,1,3.11.18Z"/><path d="M114.12,442a1.67,1.67,0,0,1-1.49,1.46,1.65,1.65,0,0,1-1.52-1.69,1.46,1.46,0,0,1,1.44-1.45A1.76,1.76,0,0,1,114.12,442Z"/><path d="M440.49,118.37a1.53,1.53,0,0,1,1.58,1.6,1.59,1.59,0,0,1-1.5,1.44,1.52,1.52,0,0,1-1.53-1.64A1.34,1.34,0,0,1,440.49,118.37Z"/><path d="M442.29,115.45a1.48,1.48,0,1,1-2.92.38,1.69,1.69,0,0,1,1.44-1.83A1.51,1.51,0,0,1,442.29,115.45Z"/><path d="M454.45,392a1.75,1.75,0,0,1-1.73,1.53,1.57,1.57,0,0,1-1.31-1.61,1.66,1.66,0,0,1,1.69-1.54A1.73,1.73,0,0,1,454.45,392Z"/><path d="M59.24,382.92a1.43,1.43,0,0,1,1.43,1.48A1.71,1.71,0,0,1,59,386a1.46,1.46,0,0,1-1.37-1.53A1.44,1.44,0,0,1,59.24,382.92Z"/><path d="M61.05,380.33a1.53,1.53,0,0,1-1.48,1.44,1.78,1.78,0,0,1-1.63-1.63,1.4,1.4,0,0,1,1.49-1.38A1.57,1.57,0,0,1,61.05,380.33Z"/><path d="M400,90.67a1.46,1.46,0,0,1,1.51,1.38,1.41,1.41,0,0,1-1.4,1.69,1.51,1.51,0,0,1-1.57-1.33A1.65,1.65,0,0,1,400,90.67Z"/><path d="M55,102.33a1.61,1.61,0,0,1-1.35,1.58A1.42,1.42,0,0,1,52,102.62a1.44,1.44,0,0,1,1.42-1.69A1.53,1.53,0,0,1,55,102.33Z"/><path d="M101.43,408a1.47,1.47,0,0,1-1.51,1.38,1.5,1.5,0,0,1-1.48-1.67,1.5,1.5,0,1,1,3,.29Z"/><path d="M118.28,406.35a1.47,1.47,0,0,1-1.5,1.39,1.43,1.43,0,0,1-1.43-1.68,1.53,1.53,0,0,1,1.58-1.31A1.7,1.7,0,0,1,118.28,406.35Z"/><path d="M45.45,371.64A1.31,1.31,0,0,1,46.87,373a1.46,1.46,0,0,1-1.25,1.6A1.64,1.64,0,0,1,44,373.06,1.5,1.5,0,0,1,45.45,371.64Z"/><path d="M445.49,107a1.55,1.55,0,0,1-1.35-1.59,1.4,1.4,0,0,1,1.42-1.47,1.56,1.56,0,0,1,1.54,1.66A1.76,1.76,0,0,1,445.49,107Z"/><path d="M54.57,393.18A1.58,1.58,0,0,1,56,394.74a1.69,1.69,0,0,1-1.49,1.51A1.58,1.58,0,0,1,53,394.51,1.44,1.44,0,0,1,54.57,393.18Z"/><path d="M456,127a1.68,1.68,0,0,1-1.46,1.53,1.54,1.54,0,0,1-1.46-1.5,1.36,1.36,0,0,1,1.43-1.45A1.42,1.42,0,0,1,456,127Z"/><path d="M74.15,101.73a8.84,8.84,0,0,1,.11-1,1.32,1.32,0,0,1,1.34-.94,1.19,1.19,0,0,1,1.21.74,1.36,1.36,0,0,1-.29,1.62,6.49,6.49,0,0,1-1.61.66c-.16,0-.48-.17-.59-.34A2.31,2.31,0,0,1,74.15,101.73Z"/><path d="M93.14,390.24a1.54,1.54,0,0,1,1.39,1.51,1.61,1.61,0,0,1-1.47,1.45,1.43,1.43,0,0,1-1.35-1.51A1.47,1.47,0,0,1,93.14,390.24Z"/><path d="M425.82,398.41a9.62,9.62,0,0,1-.2,1.15,1.37,1.37,0,0,1-1.2.81,1.43,1.43,0,0,1-1.2-.83,1.5,1.5,0,0,1,.91-2.06,3.12,3.12,0,0,1,1-.24.74.74,0,0,1,.55.33A2.53,2.53,0,0,1,425.82,398.41Z"/><path d="M387.37,59.71A1.48,1.48,0,0,1,386,58.15a1.43,1.43,0,0,1,1.4-1.52,1.7,1.7,0,0,1,1.58,1.7A1.63,1.63,0,0,1,387.37,59.71Z"/><path d="M106.41,443.18a1.58,1.58,0,0,1,1.57,1.6,1.47,1.47,0,0,1-2.93-.12A1.39,1.39,0,0,1,106.41,443.18Z"/><path d="M71,392.18a1.54,1.54,0,0,1-1.56,1.36,1.67,1.67,0,0,1-1.26-1.68,1.33,1.33,0,0,1,1.42-1.17A1.45,1.45,0,0,1,71,392.18Z"/><path d="M47,109.62a1.53,1.53,0,1,1,.25-3,1.53,1.53,0,0,1-.25,3Z"/><path d="M422.09,118.54a1.62,1.62,0,0,1,1.47,1.51,1.42,1.42,0,0,1-1.5,1.41,1.56,1.56,0,0,1-1.35-1.33A1.63,1.63,0,0,1,422.09,118.54Z"/><path d="M383.21,92.23a1.46,1.46,0,0,1,1.39,1.53,1.4,1.4,0,0,1-1.37,1.52,1.46,1.46,0,0,1-1.41-1.51A1.52,1.52,0,0,1,383.21,92.23Z"/><path d="M406.15,419.94a1.35,1.35,0,1,1-2.67,0,1.39,1.39,0,0,1,1.21-1.37A1.36,1.36,0,0,1,406.15,419.94Z"/><path d="M133.74,431.32a1.55,1.55,0,0,1-1.39,1.54,1.53,1.53,0,0,1-1.44-1.47,1.67,1.67,0,0,1,1.54-1.43A1.57,1.57,0,0,1,133.74,431.32Z"/><path d="M95.2,81.43A1.37,1.37,0,0,1,93.82,80a1.35,1.35,0,0,1,1.31-1.26,1.36,1.36,0,1,1,.07,2.7Z"/><path d="M430.3,106.6a1.43,1.43,0,0,1,1.53,1.33,1.36,1.36,0,0,1-1.34,1.48,1.59,1.59,0,0,1-1.44-1.48A1.39,1.39,0,0,1,430.3,106.6Z"/><path d="M446.53,396.24a1.35,1.35,0,0,1,1.42,1.42,1.43,1.43,0,0,1-1.38,1.5,1.4,1.4,0,0,1-1.41-1.45A1.35,1.35,0,0,1,446.53,396.24Z"/><path d="M394.92,55.6a1.46,1.46,0,0,1-1.31,1.33A1.68,1.68,0,0,1,392,55.28a1.44,1.44,0,0,1,1.6-1.29A1.5,1.5,0,0,1,394.92,55.6Z"/><path d="M369.05,68.79A1.43,1.43,0,0,1,367.44,70a1.35,1.35,0,0,1-1.16-1.4,1.39,1.39,0,1,1,2.77.17Z"/><path d="M436,382.24a1.53,1.53,0,0,1-1.29-1.34,1.48,1.48,0,0,1,1.44-1.44,1.51,1.51,0,0,1,1.29,1.32A1.54,1.54,0,0,1,436,382.24Z"/><path d="M79.26,380.18a1.41,1.41,0,0,1-1.59,1.26,1.49,1.49,0,0,1-1.23-1.38,1.61,1.61,0,0,1,1.49-1.45A1.51,1.51,0,0,1,79.26,380.18Z"/><path d="M406.81,109.76a1.25,1.25,0,0,1-1.24-1.31,1.36,1.36,0,1,1,2.7-.12A1.48,1.48,0,0,1,406.81,109.76Z"/><path d="M101.53,80.67a1.36,1.36,0,0,1-1.07,1.49,1.53,1.53,0,0,1-1.53-1.37,1.34,1.34,0,0,1,1.1-1.45A1.35,1.35,0,0,1,101.53,80.67Z"/><path d="M399.81,418a1.4,1.4,0,0,1-.15,2.79,1.43,1.43,0,0,1-1.23-1.61A1.3,1.3,0,0,1,399.81,418Z"/><path d="M84,397.83a1.3,1.3,0,1,1-2.58.15,1.5,1.5,0,0,1,1.25-1.41A1.32,1.32,0,0,1,84,397.83Z"/><path d="M417.37,103.45a1.33,1.33,0,0,1-1.43-1.16,1.55,1.55,0,0,1,1.31-1.61,1.43,1.43,0,0,1,1.27,1.35A1.3,1.3,0,0,1,417.37,103.45Z"/><path d="M65.33,119.21a1.36,1.36,0,0,1-1.26,1.33,1.24,1.24,0,0,1-1.35-1.19,1.26,1.26,0,0,1,1.08-1.44A1.38,1.38,0,0,1,65.33,119.21Z"/><path d="M409.72,83.23a1.38,1.38,0,0,1-1.52,1.3,1.08,1.08,0,0,1-1-1.16,1.41,1.41,0,0,1,1.33-1.49A1.45,1.45,0,0,1,409.72,83.23Z"/><path d="M397,49.89a1.31,1.31,0,0,1-1.09,1.46,1.51,1.51,0,0,1-1.42-1.2,1.47,1.47,0,0,1,1.15-1.45A1.3,1.3,0,0,1,397,49.89Z"/><path d="M105.52,450a1.36,1.36,0,0,1-1.19,1.37,1.32,1.32,0,0,1-1.32-1.23,1.21,1.21,0,0,1,1.18-1.33A1.24,1.24,0,0,1,105.52,450Z"/><path d="M99.91,443.45a1.25,1.25,0,0,1-1.1,1.19,1.38,1.38,0,0,1-1.26-1.33,1.32,1.32,0,0,1,1.26-1.05A1.25,1.25,0,0,1,99.91,443.45Z"/><path d="M97.56,419.47a1.37,1.37,0,0,1,1.2,1.4,1,1,0,0,1-1,.93,1.35,1.35,0,0,1-1.37-1.22A1.2,1.2,0,0,1,97.56,419.47Z"/><path d="M403.59,79.34a1.32,1.32,0,0,1-.9,1.3,1,1,0,0,1-1.08-.51,2.35,2.35,0,0,1-.33-.95.88.88,0,0,1,.27-.65,1.14,1.14,0,0,1,1.42,0A2.94,2.94,0,0,1,403.59,79.34Z"/><path d="M119.93,91.32a1.13,1.13,0,0,1-1,1.26,1,1,0,0,1-1.07-.87,1.2,1.2,0,0,1,.83-1.4A1.1,1.1,0,0,1,119.93,91.32Z"/><path d="M382.27,408.71a1.12,1.12,0,0,1-1.21,1,1.1,1.1,0,0,1-1-1.19,1.34,1.34,0,0,1,1.2-1.07A1.39,1.39,0,0,1,382.27,408.71Z"/><path d="M400.08,56.66a1.42,1.42,0,0,1,1.05-1.26c.56-.09,1.3.63,1.3,1.26a1.18,1.18,0,0,1-2.35,0Z"/><path d="M78.07,400.46a1,1,0,0,1-1.1.82,1.15,1.15,0,0,1-.74-1.21,1.09,1.09,0,0,1,.8-.88A1.27,1.27,0,0,1,78.07,400.46Z"/><path d="M423,100.83a.88.88,0,0,1-1-.9.94.94,0,0,1,.83-1.05,1,1,0,0,1,.13,2Z"/><path d="M385.06,66.52a1,1,0,0,1,.9,1,1,1,0,0,1-1.08.87,1,1,0,0,1-.77-.9A1,1,0,0,1,385.06,66.52Z"/><path d="M115,433.48c-.54,0-1-.48-1-.92a1.29,1.29,0,0,1,1-.95c.32,0,.75.47.79.86A.89.89,0,0,1,115,433.48Z"/><path d="M423.49,104.94a8.28,8.28,0,0,1-1.21.87,1.3,1.3,0,0,1-.55-.67c-.09-.42.45-.76,1.07-.67C423,104.5,423.16,104.71,423.49,104.94Z"/><path d="M78.2,394.75c-.06.63-.53,1-1,.91a.7.7,0,0,1-.4-.51.78.78,0,0,1,1-.79C78,394.41,78.09,394.65,78.2,394.75Z"/><path d="M109.37,72a2.53,2.53,0,0,1,.58.51c.15.27-.25.69-.59.58a.72.72,0,0,1-.42-.5C108.93,72.4,109.19,72.22,109.37,72Z"/><path d="M391.29,427.5c-.3.25-.44.45-.63.51s-.59-.28-.5-.6.33-.49.4-.46A3.39,3.39,0,0,1,391.29,427.5Z"/><path d="M40,457.38a14.93,14.93,0,0,1,1.21-6.13c.5-1.06.4-1.21-.7-1.74l-.95-.4a8.6,8.6,0,0,1-4.51-4.37,18.59,18.59,0,0,1-1.72-13,9.82,9.82,0,0,1,7.85-7.61c4.56-1,10,1,12.19,5.09.12.23.28.43.42.65.72,1.07.79,1.1,2.11.84.58-.11,1.16-.3,1.76-.36A14.61,14.61,0,0,1,70,434.44a21.44,21.44,0,0,1,6.47,12.27,5.5,5.5,0,0,1-.07,2c-1.07,4.6-4,7.42-8.46,8.79a9.53,9.53,0,0,1-6.79-.3l-1.43-.58c-1.35-.52-1.38-.52-1.55.86a11.88,11.88,0,0,1-3,6.71,34.31,34.31,0,0,1-3.26,2.87,1.42,1.42,0,0,1-.7.3c-1.81.16-3.61.24-5.22-.8a15.89,15.89,0,0,1-4.93-5.16A6.7,6.7,0,0,1,40,457.38Zm5.77-13.2.09.09c-.29-.87-1.18-1.21-1.69-1.87a21.56,21.56,0,0,1-1.75-2.5,2,2,0,0,1,0-1.23c0-.18.35-.35.57-.43s.34.1.42.23a9.07,9.07,0,0,0,1.33,2.15c1.34,1.18,2.84,2.18,4.27,3.25.06,0,.21.06.22,0a.93.93,0,0,0,.19-.45c0-.42-.12-.84-.19-1.27-.49-3.06-.22-6,1.79-8.51a2.61,2.61,0,0,0,.43-.63,1.06,1.06,0,0,0,0-.74,8.21,8.21,0,0,0-4.88-4.62c-.95-.29-1.26-.18-1.33.82A2.64,2.64,0,0,1,43,431.17a4.57,4.57,0,0,1-3.66-.76c-1.27-.9-1.45-.88-2.19.39A7.6,7.6,0,0,0,36,434.43a18.19,18.19,0,0,0,1.51,8,8.11,8.11,0,0,0,7.75,4.86,10.89,10.89,0,0,1,4.81.49.78.78,0,0,0,.5,0c.15,0,.4-.23.39-.27a15.45,15.45,0,0,0-1-2.33c-.29-.5-.75.1-1.13.07a3.89,3.89,0,0,1-1.22-.24C47,444.8,46.41,444.47,45.8,444.18Zm19,10.48a8.24,8.24,0,0,0,4.84-1.46c.89-.61,1-.93.78-1.93-.1-.42-.28-.82-.35-1.24-.36-2.23-.16-4.29,1.89-5.73.07-.05.18-.11.18-.17a2.94,2.94,0,0,0-.07-.94.55.55,0,0,0-.8-.36c-.16.07-.3.24-.45.23a.92.92,0,0,1-.65-.2.94.94,0,0,1,0-.69.7.7,0,0,1,.35-.35c.43-.24.63-.55.37-1-2.47-4.6-6.2-7.23-11.52-7.3a8.07,8.07,0,0,0-4.67,1.19c-2.33,1.57-2.88,3.94-2.45,6.56a14.79,14.79,0,0,0,3.1,6.69c.93,1.21,2.13,2.24,2.63,3.76a1.19,1.19,0,0,0,.49.58A11.57,11.57,0,0,0,64.83,454.66Zm-20.76,2.71a5,5,0,0,0,.6,3,8.07,8.07,0,0,0,3.93,3.5,1.8,1.8,0,0,0,1.23.08A6.57,6.57,0,0,0,51.9,463,8.69,8.69,0,0,0,55,457.81a5.1,5.1,0,0,0-.18-2.25c-.51-2-2.1-3-3.82-3.86a.69.69,0,0,0-.92.17,4.41,4.41,0,0,1-3.08,1.6c-.41.09-.85.12-1.26.23a1.69,1.69,0,0,0-1.33,1.39C44.25,455.84,44.17,456.61,44.07,457.37Zm-2.14-27.81h.6a1.22,1.22,0,0,0,1.19-1.1c0-.79-.57-1.38-1.3-1.2a18.56,18.56,0,0,0-2.37.84c-.27.11-.23.74.06.85C40.81,429.21,41.53,429.42,41.93,429.56Zm31.31,17.9a3.49,3.49,0,0,0,0-.66,5.85,5.85,0,0,0-.3-.68c-.28.13-.67.18-.83.4a3.26,3.26,0,0,0-.28,3.34.43.43,0,0,0,.77.08A4.16,4.16,0,0,0,73.24,447.46Zm-26.95,4.38a2.13,2.13,0,0,0,1.91-.67.46.46,0,0,0,0-.44,1.3,1.3,0,0,0-2.09.52C46,451.41,46.21,451.65,46.29,451.84Z"/><path d="M31.55,453.35a7.64,7.64,0,0,1-1.14.58,1.92,1.92,0,0,1-2.46-.71,2.12,2.12,0,0,1,.61-2.74,3.41,3.41,0,0,1,3.28-.82,2,2,0,0,0,1.93-.26,2.83,2.83,0,0,1,1.89-.63,1,1,0,0,1,.64.35.83.83,0,0,1,0,.69c-.1.22-.34.36-.5.56s-.27.63.11.84.63.23.93.38c.56.29.73.85.31,1.24-1.24,1.16-2.5,2.3-3.79,3.4a1.13,1.13,0,0,1-1.42,0,1.25,1.25,0,0,1-.52-1.34c.07-.42.27-.8.36-1.21C31.78,453.59,31.62,453.46,31.55,453.35Zm-.78-1.58c-.12-.13-.16-.22-.22-.25a.71.71,0,0,0-1,.43c0,.06,0,.19,0,.21s.32.2.41.16A7.14,7.14,0,0,0,30.77,451.77Z"/><path d="M29.19,449.32a3.93,3.93,0,0,1-2.89-1.18,1.22,1.22,0,0,1,.23-2,4.71,4.71,0,0,1,2.66-.68,5.37,5.37,0,0,1,1.5.27,8.3,8.3,0,0,0,3.72.59.61.61,0,0,1,.66.62,1.59,1.59,0,0,1-.24.68.6.6,0,0,1-.19.16A22.1,22.1,0,0,1,29.19,449.32Z"/><path d="M69.5,458.6a3.22,3.22,0,0,1,.71.09,6.09,6.09,0,0,1,3.21,3.79,1.78,1.78,0,0,1-.51,1.87,1.42,1.42,0,0,1-1.86.18,4.93,4.93,0,0,1-1.88-5.41A2,2,0,0,1,69.5,458.6Z"/><path d="M79.11,460.41c-.34.36-.6.87-1,1a3.27,3.27,0,0,1-4-1.83,8.4,8.4,0,0,1-.19-1c-.22-1.21.39-1.84,1.52-1.53a5.66,5.66,0,0,1,3.14,2.05A6.15,6.15,0,0,1,79.11,460.41Z"/><path d="M67.08,462.06a8.81,8.81,0,0,1-.37,1.13,1.52,1.52,0,0,1-2.52.42,2.38,2.38,0,0,1-.7-2.32,6.49,6.49,0,0,1,.58-1.39c.65-1.29,1.4-1.34,2.14,0A15.06,15.06,0,0,1,67.08,462.06Z"/><path d="M52.57,423.05c.19-.79.34-1.55.56-2.27a.91.91,0,0,1,1.48-.28c1.48,1.54,1.24,3.24-.64,4.48a.67.67,0,0,1-.88-.25C52.89,424.18,52.74,423.61,52.57,423.05Z"/><path d="M59.22,425.87a1.91,1.91,0,0,1-.32.71A3.56,3.56,0,0,1,56,427.84c-.2,0-.54-.27-.54-.41a3.87,3.87,0,0,1,2.28-3.05A1.29,1.29,0,0,1,59.22,425.87Z"/><path d="M435.21,42.21a9.7,9.7,0,0,1,4.25.84c.57.17,1.11.46,1.68.62a.68.68,0,0,0,.59-.3,13.1,13.1,0,0,0,.37-1.76,11.76,11.76,0,0,1,4.16-7.18c.2-.17.41-.31.62-.47.81-.62,1.51-1.44,2.64-1.46a7.77,7.77,0,0,1,4.46,1,14.69,14.69,0,0,1,5.3,5.81,6.77,6.77,0,0,1,.78,4,16.23,16.23,0,0,1-1.18,5.23,3.85,3.85,0,0,0-.19.47c-.26.74-.11,1.14.56,1.47l.94.41A8.88,8.88,0,0,1,465,55.36a20.23,20.23,0,0,1,2.22,8.12,15.18,15.18,0,0,1-.71,5.57,10.24,10.24,0,0,1-10.73,7.1c-3.89-.31-7.09-1.89-9.14-5.38-.18-.29-.37-.57-.57-.86-.59-.87-.6-.89-1.67-.64a15.3,15.3,0,0,1-10.5-1,14.44,14.44,0,0,1-5.21-4.09,29.66,29.66,0,0,1-4.33-7.55c-1.8-4.55-.27-8.55,2.93-11.39A10.92,10.92,0,0,1,435.21,42.21Zm19.38,14-.1-.09c.43.52.87,1,1.3,1.54a16.38,16.38,0,0,1,1.42,1.81,3.27,3.27,0,0,1,.43,1.45.94.94,0,0,1-.44.78.89.89,0,0,1-.81-.38c-.55-1.67-1.9-2.6-3.18-3.6-.74-.58-1.53-1.1-2.3-1.65a1.22,1.22,0,0,0-.23-.1c-.06.15-.18.3-.16.44.09.68.28,1.34.35,2,.25,2.7.1,5.36-1.61,7.61-1.12,1.48-1.06,1.42,0,3.1a7.91,7.91,0,0,0,3.64,3.13c1.26.57,1.46.47,1.88-1a1.83,1.83,0,0,1,.06-.25,2.54,2.54,0,0,1,2.82-2.09c1.39,0,2.75.1,3.7,1.36.27.36.67.14.88-.12a7.48,7.48,0,0,0,1.83-5,19.78,19.78,0,0,0-1.43-7.27,6.86,6.86,0,0,0-4.15-4.28c-.57-.21-1.13-.41-1.67-.67a2.74,2.74,0,0,0-2-.2,7.24,7.24,0,0,1-4.29-.31,5.78,5.78,0,0,0-1-.29.55.55,0,0,0-.45.11.51.51,0,0,0-.14.43c.28.63.58,1.24.89,1.85.17.35.45.56.81.35a1.63,1.63,0,0,1,1.69.09C453.11,55.36,453.66,56.14,454.59,56.18ZM440.47,66.51a9.52,9.52,0,0,0,3.77-.58,5.3,5.3,0,0,0,3.34-3.61,8.33,8.33,0,0,0,.07-4.06,15.05,15.05,0,0,0-3.18-6.36A16.68,16.68,0,0,1,442.35,49a4,4,0,0,0-1.7-1.81c-.74-.42-1.52-.77-2.29-1.14a7.69,7.69,0,0,0-7.16.31c-2,1-2.16,1.37-1.44,3.15a4.22,4.22,0,0,1,.21,1,5.16,5.16,0,0,1-1.51,4.9c-.24.23-.63.47-.65.73a2.34,2.34,0,0,0,.4,1.12c0,.07.41,0,.62-.08s.28-.26.42-.25a.58.58,0,0,1,.61.91c0,.14-.23.25-.38.31-.49.17-.7.46-.44,1C431.49,63.7,435.09,66.49,440.47,66.51ZM456,42.8a6.64,6.64,0,0,0-3.52-6,3.21,3.21,0,0,0-4.44.32,8.94,8.94,0,0,0-2.93,5,4.55,4.55,0,0,0,1.15,4.28A12.22,12.22,0,0,0,449,48.31a1,1,0,0,0,.92-.14,4.7,4.7,0,0,1,3.39-1.62c2.53-.4,2.11-1,2.51-2.6A10.77,10.77,0,0,0,456,42.8Zm2,27.71c-.3,0-.55,0-.8.07a1.08,1.08,0,0,0-.85,1.31c.17.84.59,1.12,1.42.93a7.74,7.74,0,0,0,1.45-.39,2.43,2.43,0,0,0,.92-.76c.19-.25-.42-.89-.95-1S458.34,70.56,458,70.51ZM426.72,52.4a7.12,7.12,0,0,0,0,.84c.06.32.1.76.54.68a1.07,1.07,0,0,0,.75-.54,7.63,7.63,0,0,0,.42-2c.06-.86-.36-1.55-.72-1.4a1.55,1.55,0,0,0-.81,1.2A7.44,7.44,0,0,0,426.72,52.4Zm25.92-2.78a10.62,10.62,0,0,0,1.05-.43.54.54,0,0,0,.18-.44c0-.13-.15-.35-.26-.36a1.68,1.68,0,0,0-1.82.51.41.41,0,0,0,0,.4A4.39,4.39,0,0,0,452.64,49.62Z"/><path d="M468.35,50.49a2.82,2.82,0,0,0-2.4.37,5.32,5.32,0,0,1-1.17.51.92.92,0,0,1-1.11-.39c-.24-.36,0-.64.2-.9s.43-.32.53-.53a.62.62,0,0,0-.11-.59,6.5,6.5,0,0,0-.91-.47c-.68-.37-.87-.93-.39-1.4C464.1,46,465.26,45,466.42,44a1.76,1.76,0,0,1,.7-.29A1.2,1.2,0,0,1,468.65,45a11.1,11.1,0,0,1-.44,1.46c0,.06.22.27.28.24.55-.21,1.07-.52,1.63-.69a1.6,1.6,0,0,1,1.8.67,1.74,1.74,0,0,1,.32,1.91,3.37,3.37,0,0,1-2.82,1.93A7.78,7.78,0,0,1,468.35,50.49Zm1.12-1.73a1,1,0,0,0,.95-.68c0-.06,0-.16,0-.23s-.16-.19-.17-.18c-.33.24-.65.49-1,.75a.23.23,0,0,0,0,.21C469.29,48.69,469.39,48.71,469.47,48.76Z"/><path d="M470.41,50.87a4.39,4.39,0,0,1,2.9.68,1.56,1.56,0,0,1,.74,1.52,1.5,1.5,0,0,1-1,1.06,5.31,5.31,0,0,1-4,.14,5.55,5.55,0,0,0-3.45-.52c-.18,0-.64-.34-.69-.58a1,1,0,0,1,.37-.85A15,15,0,0,1,470.41,50.87Z"/><path d="M426.58,37.05a8,8,0,0,1,.19-.85,1.44,1.44,0,0,1,2.1-.72c1.65,1.27,2.82,3.14,1.9,5.62a.67.67,0,0,1-.83.38,6.22,6.22,0,0,1-3-3A6.37,6.37,0,0,1,426.58,37.05Z"/><path d="M422.73,38.54c2.3,0,3.47,1.28,3.43,3.56a1.07,1.07,0,0,1-1.2,1,6.14,6.14,0,0,1-3.58-2.25,2.41,2.41,0,0,1-.29-.7,1.28,1.28,0,0,1,1-1.55C422.29,38.58,422.55,38.56,422.73,38.54Z"/><path d="M436.52,38.7c-.12.32-.31.88-.54,1.42s-.39,1-1,1a1.4,1.4,0,0,1-1.16-.9,7.13,7.13,0,0,1-.76-1.88A1.86,1.86,0,0,1,434.48,36a2,2,0,0,1,2,1.89C436.54,38.09,436.52,38.26,436.52,38.7Z"/><path d="M447.34,77.34a11.19,11.19,0,0,1-.32,1.71,1.29,1.29,0,0,1-.65.69,1,1,0,0,1-1.13-.33c-1.08-1.21-1.13-2-.19-3.39a2.11,2.11,0,0,1,.49-.57,1.4,1.4,0,0,1,.9-.28,1.1,1.1,0,0,1,.67.65A8.06,8.06,0,0,1,447.34,77.34Z"/><path d="M444.54,72.52c0,.16.07.27,0,.33-.4.74-.74,1.52-1.21,2.22a1.56,1.56,0,0,1-1.59.59,1.21,1.21,0,0,1-.93-1.72A3.57,3.57,0,0,1,444,72.17C444.19,72.16,444.39,72.42,444.54,72.52Z"/><path d="M32.23,60.24c0-4,1.54-7.37,3.58-10.58a8.15,8.15,0,0,1,4.6-3.51c.58-.18,1.15-.34,1.72-.54a.8.8,0,0,0,.53-1c-.24-1.17-.5-2.34-.69-3.51a9,9,0,0,1,2.82-8.39A28.15,28.15,0,0,1,48,30.13,6.85,6.85,0,0,1,52.13,29a5.34,5.34,0,0,1,4.08,1.76,13.68,13.68,0,0,1,3.62,6.1,20.16,20.16,0,0,1,.43,3.29c.1,1.12.31,1.29,1.46,1,.33-.09.65-.23,1-.31a12,12,0,0,1,14.13,7.83,8.83,8.83,0,0,1-.14,6.53A23.48,23.48,0,0,1,69,65c-3.68,2.71-7.87,3.12-12.25,2.29a5.75,5.75,0,0,1-.74-.21,7.47,7.47,0,0,0-2.46-.56c-.87.1-1.15,1.17-1.72,1.79-3,3.29-6.75,4.21-11,3.4S34,68.06,32.68,64A19,19,0,0,1,32.23,60.24Zm14.53-8.51c1.11-.32,2.13-1.24,3.41-.51.1.06.32-.08.47-.14a.51.51,0,0,0,.19-.17,2.13,2.13,0,0,0,.3-.42l.66-1.35a1.61,1.61,0,0,0-1.48,0,4.76,4.76,0,0,1-3,0c-1.7-.65-3.32-.26-5,.15a6.28,6.28,0,0,0-4,3,18,18,0,0,0-2.62,7.45,7.94,7.94,0,0,0,.57,4c.23.53.37,1.25,1,1.37.3.06.67-.44,1-.56a6.38,6.38,0,0,1,4.27,0A2.59,2.59,0,0,1,44.23,67c.11,1.52.1,1.44,1.39,1.17,2.09-.44,3.39-1.88,4.69-3.38a1,1,0,0,0,.1-1.37,9.28,9.28,0,0,1-1.52-5.85,12.76,12.76,0,0,1,.85-4.25c0-.13-.05-.31-.1-.46s-.15,0-.21,0c-2.19,1.1-4.68,1.81-5.82,4.33a.35.35,0,0,1-.17.19c-.23.08-.49.24-.69.18a.81.81,0,0,1-.46-.51,2.68,2.68,0,0,1,.77-2.35c.51-.67,1.34-1.1,1.51-2,.22,0,.6.11.63,0C45.49,52,46.3,52.14,46.76,51.73Zm22.72-6.46.08.07A5.67,5.67,0,0,0,64.85,44a14.15,14.15,0,0,0-4.62,1.46,1.59,1.59,0,0,0-.78.62c-.61,1.41-1.9,2.17-2.9,3.2a14.27,14.27,0,0,0-4.22,7.46A6.71,6.71,0,0,0,52.56,60a3.07,3.07,0,0,0,2.11,2.36l-.1-.08c.21.24.37.58.63.71a11.47,11.47,0,0,0,6.7,1.11c3.61-.46,6.28-2.43,8.49-5.18.49-.61.65-1.08-.11-1.63a.75.75,0,0,1,0-1.13c.37-.41.78-.25,1.12.05s.56.33.82,0,.37-.59.12-.92a6.91,6.91,0,0,0-.51-.57A5,5,0,0,1,71,49.42c.18-.48.38-1,.57-1.42.4-1,.38-1.12-.34-1.75A2.94,2.94,0,0,0,69.48,45.27Zm-23.19-5.7c0,.21.05.55.05.89a1.86,1.86,0,0,0,1.59,2,9.47,9.47,0,0,1,1.45.48,3.62,3.62,0,0,1,1.87,1.28,1.22,1.22,0,0,0,1.75.49,12.28,12.28,0,0,0,2.2-1.26,4.32,4.32,0,0,0,1.72-3.82,8.59,8.59,0,0,0-2.73-5.89,3.17,3.17,0,0,0-3.32-.7A6.65,6.65,0,0,0,46.29,39.57ZM42.27,67c-.1-.18-.23-.68-.53-.84a2.65,2.65,0,0,0-2.68.07c-.28.17-.34.7-.06.84.76.38,1.52.76,2.31,1.07C41.8,68.35,42.24,67.9,42.27,67ZM72.46,51.27a8.88,8.88,0,0,0,.26,1.44c.1.27.43.45.66.67a2.56,2.56,0,0,0,.43-.58,3.71,3.71,0,0,0-.2-2.92c-.06-.13-.29-.33-.34-.3-.21.1-.48.25-.55.44A8.89,8.89,0,0,0,72.46,51.27ZM47.74,44.52c0,.14-.16.31-.12.42.35.8.77,1,1.57.7.1,0,.24-.29.2-.37A1.76,1.76,0,0,0,47.74,44.52Z"/><path d="M37.3,46.23a2.5,2.5,0,0,1-2-.79,2.34,2.34,0,0,0-2.09-.69,3.8,3.8,0,0,0-.47.18c.08.12.12.31.23.36.85.41,1.72.77,2.55,1.2a3.42,3.42,0,0,1,.77.66c.26.26.05.93-.32,1.07a1.26,1.26,0,0,1-.49.12,15.07,15.07,0,0,0-2-.31c-.58,0-1.15.3-1.74.35a6.17,6.17,0,0,1-3.5-.42A4.65,4.65,0,0,1,27.1,47a1.13,1.13,0,0,1,.06-1.42,2.1,2.1,0,0,1,1.52-.85c.68-.06,1.36,0,2-.07a1.87,1.87,0,0,0,.25,0,1.07,1.07,0,0,0-.16-.36,13.76,13.76,0,0,1-1.08-1.08,2.53,2.53,0,0,1-.27-2.44,1.83,1.83,0,0,1,2.12-1,12.43,12.43,0,0,1,1.39.64c.23.11.34.06.34-.19s0-.68,0-1c0-1.11.85-1.3,1.57-1.12a2.31,2.31,0,0,1,1.08.6c1,1.06,1.94,2.16,2.86,3.28a.81.81,0,0,1-.38,1.4c-.4.15-.81.25-1.21.4s-.35.42,0,.66a1.94,1.94,0,0,1,.53.54.89.89,0,0,1,.1.7A2.31,2.31,0,0,1,37.3,46.23Zm-5.1-4c-.27-.15-.54-.31-.82-.44,0,0-.16.07-.2.13a.2.2,0,0,0,.05.19,4.92,4.92,0,0,0,.58.44c.05,0,.17,0,.23,0S32.11,42.41,32.2,42.25Z"/><path d="M71.14,38.93A4.93,4.93,0,0,1,74,34.71,1.63,1.63,0,0,1,76.11,36a2.8,2.8,0,0,1-.49,2.19,7,7,0,0,1-2.89,2.44c-.88.42-1.54,0-1.59-.9C71.13,39.45,71.14,39.19,71.14,38.93Z"/><path d="M79.35,38.5l.26,0a1.74,1.74,0,0,1,1.62,1,1.69,1.69,0,0,1-.56,1.83A5.24,5.24,0,0,1,76.79,43a1,1,0,0,1-1-1.37c0-.17.11-.32.16-.48C76.46,39.17,77.39,38.46,79.35,38.5Z"/><path d="M69.55,37A3.8,3.8,0,0,1,68,39.59c-.7.55-1.31.45-1.58-.36A14.87,14.87,0,0,1,65.93,37,2.43,2.43,0,0,1,66,36a2,2,0,0,1,2.33-1.48C69.13,34.72,69.59,35.46,69.55,37Z"/><path d="M50.44,74.83c.22-.9.4-1.81.67-2.7a.82.82,0,0,1,1.29-.23,3.5,3.5,0,0,1,1.18,2.72,2.41,2.41,0,0,1-1.11,1.91,1.19,1.19,0,0,1-1.88-.9c0-.26,0-.51,0-.77Z"/><path d="M57.64,71.93a1.27,1.27,0,0,1-1.52,1.26,2.22,2.22,0,0,1-1.22-.77,15.62,15.62,0,0,1-1.17-2.48c-.13-.3.43-.89.77-.82a4.26,4.26,0,0,1,3.09,2.32A1.32,1.32,0,0,1,57.64,71.93Z"/><path d="M458.13,460.7a8.43,8.43,0,0,1-3,6.82c-.76.7-1.58,1.32-2.38,2-1.95,1.58-4.22,1.73-6.58,1.46a3.19,3.19,0,0,1-1.76-1,13.86,13.86,0,0,1-4.74-10.45c0-.68-.27-.81-1-.62-.5.12-1,.21-1.49.37-4.09,1.39-9.66-.87-12.23-4.58a17.43,17.43,0,0,1-1.4-2.45,8.47,8.47,0,0,1-.12-7.46,22.83,22.83,0,0,1,7.74-9.76,15,15,0,0,1,13.51-1.82c.63.19,1.25.82,1.91.44a5.09,5.09,0,0,0,1.18-1.33c3.09-3.88,7.28-4.8,11.8-3.79,5.93,1.33,8.51,6.65,8.26,11.53a21,21,0,0,1-3.25,9.91,8.82,8.82,0,0,1-5.37,4.13c-.49.13-1,.3-1.46.48a.59.59,0,0,0-.37.82A15.07,15.07,0,0,1,458.13,460.7Zm-3.29-13a.73.73,0,0,1-.95.31c-.08,0-.23.12-.34.19-.48.19-1,.34-1.43.55-.72.32-1.4.67-2.19.18a.71.71,0,0,0-.65.18,12.79,12.79,0,0,0-1,1.47.57.57,0,0,0-.06.45.5.5,0,0,0,.45.11,9.72,9.72,0,0,1,5.32.09,4.16,4.16,0,0,0,1.76,0,18,18,0,0,0,2-.45,6.23,6.23,0,0,0,4-3,18.5,18.5,0,0,0,2.4-5.92,9,9,0,0,0-.32-5.54,3.3,3.3,0,0,0-.81-1.27c-.54-.4-.89.27-1.31.49a4.85,4.85,0,0,1-2.76.3c-2.09-.09-2.95-1.07-3-3.28,0-.68-.25-.86-.92-.79a5.83,5.83,0,0,0-3.45,1.55c-.55.53-1.07,1.11-1.58,1.69-.68.78-.75.94-.19,1.79a8.81,8.81,0,0,1,1.3,5.13,13,13,0,0,1-.63,4.55.51.51,0,0,0,.12.45.45.45,0,0,0,.42.12c2-1.09,4.29-1.79,5.37-4.11.09-.21.57-.35.86-.35s.6.52.55,1a3.74,3.74,0,0,1-1.4,2.37C455.79,446.56,455.11,447,454.84,447.74Zm-9-9.4c-.22-1.13-1.19-1.45-2.05-1.72-5.64-1.8-10.93-.16-14.57,5.11-.29.41-.19.73.3,1a.74.74,0,0,1,.16,1.12c-.22.33-.56.31-.9.17-.16-.07-.31-.22-.46-.21a1,1,0,0,0-.63.22,1,1,0,0,0-.12.68.87.87,0,0,0,.29.41c1.71,1.76,1.79,3.78,1,5.95-.18.48-.42.94-.57,1.43a.93.93,0,0,0,.05.72c.51.68,1,1.41,2,1.35l-.09-.1c.2.26.35.61.62.75a7,7,0,0,0,5,.75,31.81,31.81,0,0,0,3.85-1.32,1.38,1.38,0,0,0,.81-.58c.62-1.51,2-2.27,3.08-3.37a14.6,14.6,0,0,0,4.05-7,6.81,6.81,0,0,0-.41-4.25,1.75,1.75,0,0,0-1.34-1.07Zm7.9,22.24a9.38,9.38,0,0,1-.16-1.15,1.69,1.69,0,0,0-1.27-1.7c-.4-.14-.79-.3-1.2-.43a4.48,4.48,0,0,1-2.67-1.85.67.67,0,0,0-.88-.3,14.81,14.81,0,0,0-2.3,1.12,4.53,4.53,0,0,0-2.16,4.36,8.28,8.28,0,0,0,2.48,5.47,7,7,0,0,0,1.72,1.07,1.75,1.75,0,0,0,1,.1A7,7,0,0,0,453.78,460.58Zm5.76-26.47a6.38,6.38,0,0,0,1-.15.88.88,0,0,0,.54-.43.7.7,0,0,0-.21-.63,15.84,15.84,0,0,0-2-1,.92.92,0,0,0-1.12.76.94.94,0,0,0,.59,1.22C458.73,434,459.15,434.05,459.54,434.11Zm-33.42,14.68c0,.18.16.84.33,1.5a.54.54,0,0,0,.38.28.48.48,0,0,0,.35-.24,3.49,3.49,0,0,0,.36-2.24c-.12-.49-.19-1-.77-1.23-.36-.13-.63.36-.65,1.17Zm26.21,6.45a1.11,1.11,0,0,0-.18-.46,1.05,1.05,0,0,0-1.37-.24.42.42,0,0,0-.14.37,1.21,1.21,0,0,0,1.52.51C452.23,455.39,452.28,455.3,452.33,455.24Z"/><path d="M463.13,453.92a8.94,8.94,0,0,1,1.33.53c.52.27,1,.83,1.48.94a8,8,0,0,0,2.12-.1c-.53-.27-1.05-.54-1.59-.79s-1.1-.45-1.64-.72a2.13,2.13,0,0,1-.83-.57,1.14,1.14,0,0,1-.23-.9c.08-.26.56-.64.71-.58,1.38.53,2.69,0,4-.15a5.46,5.46,0,0,1,3.7.74,1.61,1.61,0,0,1,.86,1.47,1.39,1.39,0,0,1-1,1.34,20.55,20.55,0,0,1-2.24.4,4.42,4.42,0,0,0-.48.15,1.84,1.84,0,0,0,.19.4,9.92,9.92,0,0,1,1,1.14,2,2,0,0,1-.13,2.39,1.87,1.87,0,0,1-2.07.63,8.63,8.63,0,0,1-1-.37c-.36-.15-.44.14-.5.35s0,.52-.07.77a1.37,1.37,0,0,1-2.1,1c-.07,0-.17-.06-.22-.12-1.15-1.37-2.32-2.73-3.44-4.12a.7.7,0,0,1,.37-1c.32-.12.68-.12,1-.26s.56-.4.28-.8a4.35,4.35,0,0,1-.46-.6C461.93,454.57,462.25,454,463.13,453.92Z"/><path d="M428.82,461.15a4.56,4.56,0,0,1-2.35,4,1.58,1.58,0,0,1-1.92-.06,1.63,1.63,0,0,1-.68-1.8,5.85,5.85,0,0,1,.9-1.8,7.36,7.36,0,0,1,2.82-2.14c.61-.3,1.18.09,1.23.81C428.83,460.47,428.82,460.81,428.82,461.15Z"/><path d="M423,457.06c.29.06.59,0,.77.17s.59.51.57.75a12.35,12.35,0,0,1-.46,2,1.43,1.43,0,0,1-.25.45,3.79,3.79,0,0,1-4.19.83,1.36,1.36,0,0,1-.53-2A5.24,5.24,0,0,1,423,457.06Z"/><path d="M434.05,462.63c0,1.37-.18,2.17-1,2.67a1.71,1.71,0,0,1-2.58-1.14,4,4,0,0,1,1.93-3.89.83.83,0,0,1,1.09.37C433.72,461.44,433.94,462.26,434.05,462.63Z"/><path d="M449.36,426.07c0,.09-.07.77-.22,1.42a.88.88,0,0,1-.89.77,1.27,1.27,0,0,1-.88-.36,6.64,6.64,0,0,1-.93-1.79,2.47,2.47,0,0,1,1.65-2.82,1,1,0,0,1,1.2.67,1.29,1.29,0,0,1,.06.25C449.36,424.63,449.36,425.06,449.36,426.07Z"/><path d="M443.93,426.8a4.47,4.47,0,0,1,.88.52,5.43,5.43,0,0,1,1.42,2.92c0,.14-.24.4-.42.55a.68.68,0,0,1-.49.06,3.94,3.94,0,0,1-2.9-2.25C442.08,427.86,442.88,426.77,443.93,426.8Z"/><path d="M205.48,30c0,1-.08,2-.15,3a.44.44,0,0,1-.3.29.52.52,0,0,1-.4-.2,1.54,1.54,0,0,1-.26-.69c0-1.77,0-3.55,0-5.32a1.89,1.89,0,0,1,.28-.68.26.26,0,0,1,.2-.1c.14,0,.34.08.39.18a1.79,1.79,0,0,1,.19.71c0,.93,0,1.86,0,2.79Z"/><path d="M291.3,28.36c0,.77,0,1.54,0,2.31,0,.12-.17.33-.26.33s-.39-.13-.41-.23a13.46,13.46,0,0,1,0-5.06.45.45,0,0,1,.37-.24.45.45,0,0,1,.3.33c0,.85,0,1.71,0,2.56Z"/><path d="M294.56,470.28c0-1.11,0-2.21,0-3.31,0-.13.21-.38.28-.36a1.66,1.66,0,0,1,.61.3c.06,0,.09.14.1.22a17.61,17.61,0,0,1,0,6.31.4.4,0,0,1-.12.22.85.85,0,0,1-.43.19c-.13,0-.35-.18-.36-.29-.1-1.09-.16-2.18-.23-3.28Z"/><path d="M209.5,471.85c0,.75,0,1.51,0,2.27a1,1,0,0,1-.31.57c-.14.15-.53-.32-.54-.72q0-1.52,0-3a14.71,14.71,0,0,1,.11-1.49.51.51,0,0,1,.34-.3.38.38,0,0,1,.34.2c.09.83.14,1.66.21,2.49Z"/><path d="M28.53,286.24c.93,0,1.86,0,2.79,0a.39.39,0,0,1,.27.3.62.62,0,0,1-.25.4.78.78,0,0,1-.46.18c-1.69,0-3.38,0-5.07,0a.39.39,0,0,1-.24-.06c-.19-.15-.45-.28-.52-.47-.14-.36.23-.4.43-.41,1,0,2,0,3.05,0Z"/><path d="M26.47,216.15c.67,0,1.35,0,2,0,.2,0,.38.22.57.34-.16.18-.31.51-.48.52-1.26.08-2.52.13-3.78.12a3.89,3.89,0,0,1-1.19-.4c-.06,0-.14-.15-.12-.2s.12-.31.2-.32c.92-.07,1.85-.11,2.77-.16Z"/><path d="M471.52,214.15c-1-.12-2-.22-3-.35-.11,0-.2-.25-.29-.4s.09-.13.15-.16a4.22,4.22,0,0,1,1.2-.36c1.52,0,3,0,4.56.11a1.91,1.91,0,0,1,.86.44c.19.14-.45.6-.94.6-.85,0-1.7,0-2.54,0Z"/><path d="M473.81,284.13c-.74-.05-1.59-.1-2.43-.18-.11,0-.26-.22-.28-.35s.11-.36.21-.38a7.81,7.81,0,0,1,5,0,.46.46,0,0,1,.2.39c0,.12-.18.32-.3.33C475.46,284.05,474.69,284.08,473.81,284.13Z"/><path d="M44.57,52.63a15.65,15.65,0,0,0-4.52,3.31,1,1,0,0,1-.91,0,1,1,0,0,1-.23-.88,4.16,4.16,0,0,1,.94-1.48A21.72,21.72,0,0,1,45.6,49.8c.77-.33,1.35.07,1.33.92a5.92,5.92,0,0,1-.17,1c-.46.41-1.27.23-1.56,1C45.17,52.74,44.79,52.65,44.57,52.63Z"/><path d="M445.89,438.4a.7.7,0,0,1-.36,1,2.39,2.39,0,0,1-1,.15,16,16,0,0,0-8.91,2.66c-.14.09-.3.26-.44.24a1.59,1.59,0,0,1-.89-.31,1,1,0,0,1-.17-.91,2.66,2.66,0,0,1,1-1.13c3.39-1.81,6.94-2.77,10.8-1.8Z"/><path d="M454.84,447.74a15.59,15.59,0,0,0,5.17-3.67.67.67,0,0,1,.66-.11,1.33,1.33,0,0,1,.47.81,2.12,2.12,0,0,1-1,1.72,24.16,24.16,0,0,1-5.06,3.44,4.77,4.77,0,0,1-.69.32,1,1,0,0,1-1.18-.15,1,1,0,0,1-.06-1.18c.11-.23.24-.45.36-.68.11-.07.26-.22.34-.19A.73.73,0,0,0,454.84,447.74Z"/><path d="M56,435.14a19.22,19.22,0,0,1,9,3.35,4.47,4.47,0,0,1,.91,1.21c.08.12,0,.33,0,.5,0,.38-.66.77-1,.59a3.89,3.89,0,0,1-.63-.43,14.32,14.32,0,0,0-4.4-2.58,10.73,10.73,0,0,0-3.21-.85,7.1,7.1,0,0,1-1.7-.48c-.28-.1-.28-.72,0-.87A10,10,0,0,1,56,435.14Z"/><path d="M55.09,438.31a5.36,5.36,0,0,1,.77.13,25.59,25.59,0,0,1,6.71,3.66.92.92,0,0,1,.33.38,2.24,2.24,0,0,1,.2.94c0,.31-.73.44-1.13.26l-.23-.1c-2.28-1.35-4.55-2.69-6.81-4.06a.77.77,0,0,1-.29-.63C54.66,438.68,54.92,438.51,55.09,438.31Z"/><path d="M59.75,446.24c-.22.2-.36.43-.55.49a1.1,1.1,0,0,1-.74,0,8.7,8.7,0,0,1-3.83-3.9.33.33,0,0,1,0-.25,1.93,1.93,0,0,1,.37-.62c.07-.08.35-.06.46,0a10.56,10.56,0,0,1,1,.8c.92.87,1.85,1.73,2.75,2.62A6,6,0,0,1,59.75,446.24Z"/><path d="M66.86,448.93c.22.11.58.18.62.33.27,1,.49,2.1.67,3.16,0,.15-.26.4-.45.53a.48.48,0,0,1-.46,0,3.88,3.88,0,0,1-.94-3.44C66.38,449.26,66.64,449.13,66.86,448.93Z"/><path d="M68.36,444.19c-.16.16-.33.45-.57.54a.52.52,0,0,1-.71-.45.59.59,0,0,1,.49-.72C67.94,443.48,68.18,443.67,68.36,444.19Z"/><path d="M45.8,444.18c0,.08,0,.17,0,.25,0,.53.73,1.09,0,1.59-.51.34-1,0-1.41-.26a23.88,23.88,0,0,1-4.77-4.2,3.88,3.88,0,0,1-.74-1.33,1.18,1.18,0,0,1,.32-.89.55.55,0,0,1,.87.16,17.39,17.39,0,0,0,4.68,4.29,6.19,6.19,0,0,0,1.15.48Z"/><path d="M48.34,431.46c-.14.1-.34.33-.53.33a1.42,1.42,0,0,1-1.42-1.21.7.7,0,0,1,.35-.6,1.48,1.48,0,0,1,.95.13A1.18,1.18,0,0,1,48.34,431.46Z"/><path d="M46.34,433.35a.65.65,0,0,1-.66.59,1.05,1.05,0,0,1-.79-1.5.51.51,0,0,1,.39-.22A1.1,1.1,0,0,1,46.34,433.35Z"/><path d="M39.42,432.36l.43.27-.45.54L39,432.6Z"/><path d="M53.08,456a2.7,2.7,0,0,1-.51.45.47.47,0,0,1-.46-.08c-.58-.79-1.15-1.6-1.67-2.44-.09-.13,0-.51.18-.64a.68.68,0,0,1,.64-.11,3.42,3.42,0,0,1,1.74,2A4.36,4.36,0,0,1,53.08,456Z"/><path d="M50.53,456.92c-.1.16-.23.54-.35.54a1.1,1.1,0,0,1-.83-.32,6.48,6.48,0,0,1-.73-1.58.71.71,0,0,1,.27-.6.81.81,0,0,1,.68,0A2,2,0,0,1,50.53,456.92Z"/><path d="M443.75,64.92a10.6,10.6,0,0,1-1.93-.28,28.18,28.18,0,0,1-5.66-2.32,10.51,10.51,0,0,1-1.43-1,1.72,1.72,0,0,1-.55-.84,1.31,1.31,0,0,1,.2-.92.63.63,0,0,1,.9-.12c.35.25.65.56,1,.8a16.64,16.64,0,0,0,7.23,3,10.69,10.69,0,0,1,1.46.35c.27.08.31.74,0,.87A13,13,0,0,1,443.75,64.92Z"/><path d="M445.78,61.24c-.32.18-.52.38-.75.41a1.83,1.83,0,0,1-1,0,29.8,29.8,0,0,1-6.48-3.56,2.19,2.19,0,0,1-.63-.79,1,1,0,0,1,0-.71c.16-.37.53-.39.87-.28a2.89,2.89,0,0,1,.67.36,50.5,50.5,0,0,0,6.41,3.73C445.17,60.5,445.35,60.81,445.78,61.24Z"/><path d="M445.39,57.83a2.28,2.28,0,0,1-.61.28.61.61,0,0,1-.46-.15c-1.23-1.16-2.47-2.32-3.66-3.52a1.15,1.15,0,0,1-.22-.89c.06-.32.72-.4,1.12-.21a9,9,0,0,1,2.88,2.46,10.54,10.54,0,0,1,1,1.48C445.48,57.39,445.41,57.59,445.39,57.83Z"/><path d="M433.94,50a3,3,0,0,1-.36.76,1.18,1.18,0,0,1-.67.24.51.51,0,0,1-.39-.26,7.77,7.77,0,0,1-.62-3.22c0-.15.17-.38.28-.4a1,1,0,0,1,.7.11C433.66,48,433.58,49.06,433.94,50Z"/><path d="M432.09,55.24c.55,0,.79.22.81.58a.57.57,0,0,1-.53.68c-.37,0-.68-.18-.65-.55S432,55.43,432.09,55.24Z"/><path d="M454.59,56.18c-.07-.69-1.25-1.32-.31-2,.73-.53,1.5.13,2.05.61,1.43,1.24,2.79,2.54,4.15,3.84a3.08,3.08,0,0,1,.55.86,1,1,0,0,1-.16,1.18c-.27.27-.75.17-1.09-.31a16.58,16.58,0,0,0-4.34-4,3.52,3.52,0,0,0-.95-.3Z"/><path d="M453.49,69.77c-.15.08-.34.3-.54.3a1.37,1.37,0,0,1-1.39-1.15c-.05-.28.31-.72.57-.7A1.49,1.49,0,0,1,453.49,69.77Z"/><path d="M454.6,67.85a1.1,1.1,0,0,1-.93-1.43.75.75,0,0,1,.58-.35c.68.1,1.21.92.94,1.45A.74.74,0,0,1,454.6,67.85Z"/><path d="M460.29,67.32c.11-.09.22-.24.35-.26s.47.31.32.5a.51.51,0,0,1-.43.15C460.42,67.67,460.37,67.46,460.29,67.32Z"/><path d="M447.41,43.48c.22.06.44.05.52.15.6.82,1.19,1.64,1.76,2.48.17.26-.16.76-.46.76A2.76,2.76,0,0,1,447,44C447,43.8,447.27,43.64,447.41,43.48Z"/><path d="M451.43,44.83c-.24.14-.47.39-.63.35a1.78,1.78,0,0,1-1.26-2.33c.1-.28.65-.46.83-.29A4.24,4.24,0,0,1,451.43,44.83Z"/><path d="M54.67,62.36c-.09-.14-.17-.29-.25-.44-.42-.85-.23-1.41.52-1.51a5.92,5.92,0,0,1,1,0,14.43,14.43,0,0,0,7.81-2.14c.23-.12.43-.28.66-.4a1,1,0,0,1,1.38.2,1.2,1.2,0,0,1-.3,1.4,7.65,7.65,0,0,1-1.71,1.1,19,19,0,0,1-7.7,1.71c-.52,0-1,0-1.54,0Z"/><path d="M55,59.1a5.57,5.57,0,0,1-.55-.3.61.61,0,0,1-.09-.89,4.21,4.21,0,0,1,.85-.54L62,54.47c.24-.09.49-.28.71-.24a1.52,1.52,0,0,1,.83.43.7.7,0,0,1,0,.69,2.82,2.82,0,0,1-.85.9,28.86,28.86,0,0,1-7.36,2.84A1.25,1.25,0,0,1,55,59.1Z"/><path d="M59.76,50.89c.25.07.48.06.56.17s.26.48.18.6a3.72,3.72,0,0,1-.83.94c-1.14.89-2.3,1.75-3.46,2.61-.14.1-.31.26-.45.23a1.79,1.79,0,0,1-.89-.31.7.7,0,0,1-.07-.7,9.56,9.56,0,0,1,4-3.41A3.14,3.14,0,0,1,59.76,50.89Z"/><path d="M69.48,45.27c.45,1.5-.32,2.81-.7,4.17-.06.22-.49.43-.78.47s-.88-.46-.8-.81A26.71,26.71,0,0,1,68,46.46a1.81,1.81,0,0,1,1.57-1.12Z"/><path d="M68.24,53.59a4.93,4.93,0,0,1,.61,1.18c.06.39-.43.73-.84.7s-.78-.49-.62-.87A5.71,5.71,0,0,1,68.24,53.59Z"/><path d="M47.62,64.94a1.87,1.87,0,0,1-.24.63c-.56.69-1.18.94-1.74.66a.8.8,0,0,1-.4-.59c0-.69.69-1.25,1.59-1.31a.82.82,0,0,1,.48.14A2,2,0,0,1,47.62,64.94Z"/><path d="M45.3,61.8c.13.16.43.38.47.64a1.14,1.14,0,0,1-1.11,1.36.82.82,0,0,1-.64-.25.83.83,0,0,1-.12-.67A1.44,1.44,0,0,1,45.3,61.8Z"/><path d="M38.65,61.75c.21.23.42.36.49.55s-.29.66-.62.53a.68.68,0,0,1-.35-.52C38.18,62.13,38.44,62,38.65,61.75Z"/><path d="M42.35,61.92c-.25.15-.42.34-.61.37s-.63-.42-.45-.64a.75.75,0,0,1,.59-.27C42,61.41,42.16,61.69,42.35,61.92Z"/><path d="M55.1,41a3,3,0,0,1-.07.68,3.86,3.86,0,0,1-2.11,2.09c-.37.15-1,0-1.09-.38a1.27,1.27,0,0,1,.21-.91,18.86,18.86,0,0,1,1.69-1.89,1,1,0,0,1,.88-.21C54.86,40.41,55,40.8,55.1,41Z"/><path d="M52.27,38.78a1.82,1.82,0,0,1,.27.5,2.09,2.09,0,0,1-1.1,2.54.81.81,0,0,1-.68,0c-.18-.12-.39-.43-.35-.6a3.83,3.83,0,0,1,1.37-2.3A2.36,2.36,0,0,1,52.27,38.78Z"/><path d="M444.86,441c.09,0,.2,0,.25,0a2.25,2.25,0,0,1,.63.68c.07.15-.13.45-.27.64a1,1,0,0,1-.43.24c-2.26.95-4.53,1.89-6.79,2.85-.56.24-1.12.52-1.64,0s-.08-1.26.66-1.67a28.13,28.13,0,0,1,7.09-2.73A4,4,0,0,1,444.86,441Z"/><path d="M440,449.34c-.22-.19-.49-.31-.55-.51a.78.78,0,0,1,.15-.67,5,5,0,0,1,.93-.85c.94-.72,1.9-1.41,2.85-2.12a3.91,3.91,0,0,1,.41-.3,1,1,0,0,1,1.18,0,.83.83,0,0,1,0,1.14,11.47,11.47,0,0,1-3.72,3A5.26,5.26,0,0,1,440,449.34Z"/><path d="M430.37,454.57c-.19-1.5.51-2.78,1-4.12a.71.71,0,0,1,.57-.36,1.52,1.52,0,0,1,.77.53.93.93,0,0,1,.12.71,17.94,17.94,0,0,1-.85,2.36,1.42,1.42,0,0,1-1.69.78Z"/><path d="M432.22,444.72c.12.12.43.31.51.56a.75.75,0,0,1-.9.85,1.15,1.15,0,0,1-.56-.69C431.16,445.06,431.61,444.68,432.22,444.72Z"/><path d="M454.9,434.36c-.07.24-.07.44-.17.54a5.85,5.85,0,0,1-1,.75c-.35.22-.76.38-1.12,0a1,1,0,0,1,.18-1.33,1.52,1.52,0,0,1,1.6-.38C454.62,434,454.76,434.23,454.9,434.36Z"/><path d="M456.12,436.72a1.6,1.6,0,0,1-1,1.5.77.77,0,0,1-.67-.11.86.86,0,0,1-.3-.63,1.44,1.44,0,0,1,1.07-1.26C455.62,436.08,456.14,436.46,456.12,436.72Z"/><path d="M462,437.85c-.16.11-.4.38-.67.42s-.6-.27-.6-.63.3-.56.66-.58A.67.67,0,0,1,462,437.85Z"/><path d="M458,437.65c.49-.06.75.12.85.48s-.32.79-.55.67a1.47,1.47,0,0,1-.62-.66C457.64,438,457.92,437.78,458,437.65Z"/><path d="M448.29,457a2.44,2.44,0,0,1-.29.64c-.61.7-1.23,1.38-1.87,2.06a.7.7,0,0,1-1.17-.36,1.64,1.64,0,0,1,0-1,4.08,4.08,0,0,1,2.14-2.07c.23-.1.62.09.9.22C448.16,456.58,448.2,456.81,448.29,457Z"/><path d="M449.76,459a6,6,0,0,1-1.49,2.17.7.7,0,0,1-.85-.32,2.08,2.08,0,0,1,1.39-2.59c.18-.06.47.09.67.21S449.64,458.7,449.76,459Z"/></svg>