<svg width="1000" height="1000" viewBox="0 0 1000 1000" fill="none" xmlns="http://www.w3.org/2000/svg">
<path d="M647.317 53.9035C645.727 55.621 645.981 60.2645 647.826 65.1624C649.416 69.5514 662.265 94.1682 664.046 96.331C664.364 96.7126 667.227 102.31 670.407 108.735C673.588 115.223 676.387 120.948 676.705 121.457C676.959 121.966 679.313 125.973 681.921 130.362C685.864 136.977 687.773 139.394 693.815 145.437C700.113 151.735 701.385 153.325 703.929 158.414C706.601 163.82 709.336 171.136 708.891 171.581C708.573 171.899 697.632 163.502 694.261 160.449C693.179 159.495 690.699 157.396 688.854 155.869C686.946 154.279 684.719 152.434 684.02 151.735C683.256 150.971 679.249 147.218 675.178 143.402C671.043 139.522 666.909 135.578 666.018 134.624C664.301 132.715 658.003 121.329 656.731 117.704C655.523 114.269 652.215 107.335 651.134 105.872C650.37 104.855 649.989 104.791 649.353 105.363C648.398 106.318 649.798 111.852 652.597 118.022C653.614 120.248 654.314 122.093 654.187 122.093C653.932 122.093 641.083 107.017 636.567 101.42C628.743 91.6239 627.153 83.7363 632.051 79.4109C636.503 75.5307 642.101 78.3931 640.129 83.5455C639.684 84.6904 637.267 84.8813 636.249 83.8635C635.867 83.4819 635.168 83.3547 634.722 83.6091C633.641 84.3088 635.804 85.8354 637.966 85.8354C642.292 85.8354 644.009 81.1919 640.765 78.1387C639.493 76.9301 638.475 76.6121 635.74 76.6121C631.924 76.6121 630.079 77.8206 628.68 81.1919C626.644 86.0262 628.807 93.723 634.341 100.911C637.903 105.554 648.653 118.276 650.943 120.566C651.642 121.329 655.141 125.019 658.64 128.835C665.827 136.659 670.853 141.684 677.023 147.218C679.376 149.318 682.048 151.735 683.065 152.625C688.918 157.905 700.558 167.637 702.784 169.036C704.82 170.372 706.855 172.344 706.537 172.726C706.41 172.853 705.138 172.153 703.739 171.263C701.131 169.482 697.314 167.192 694.579 165.856C693.688 165.411 690.635 163.693 687.773 162.103C675.75 155.17 658.131 146.9 645.918 142.384C643.182 141.303 640.511 140.158 640.066 139.776C639.557 139.394 639.048 139.267 638.793 139.458C638.603 139.713 638.094 139.649 637.712 139.331C636.822 138.568 626.008 135.005 607.434 129.281C605.844 128.835 603.999 128.199 603.299 127.881C600.373 126.673 594.839 125.273 585.489 123.365C578.937 122.029 574.103 120.63 573.276 119.803C572.831 119.358 572.258 118.912 572.004 118.785C571.686 118.721 570.922 117.449 570.223 116.05C569.523 114.65 567.424 111.534 565.579 109.18C562.144 104.855 562.144 104.791 561.953 99.9567C561.572 89.3339 556.674 81.8916 543.189 71.0781C526.714 57.9745 518.508 55.0485 511.002 59.692C509.73 60.4553 508.649 61.8547 508.203 63.2541C506.995 66.9434 508.331 69.8695 513.928 75.8488C520.48 82.8458 543.507 99.7022 555.847 106.572C558.709 108.162 560.109 109.625 563.098 113.824C566.597 118.912 567.487 120.757 566.088 119.866C563.226 118.085 526.905 114.523 507.822 114.142C500.125 114.014 493.128 113.569 492.238 113.251C491.411 112.933 487.976 110.834 484.668 108.608C479.134 104.855 478.625 104.346 478.434 102.247C478.18 99.0025 475.89 97.0307 473.028 97.5395C471.819 97.794 470.547 98.3028 470.165 98.7481C468.893 100.275 468.638 103.519 469.656 105.427C470.674 107.463 471.819 108.099 474.236 108.099C475.063 108.099 477.798 109.434 480.279 111.088C483.968 113.633 484.477 114.142 483.269 114.269C482.442 114.396 479.961 114.714 477.671 115.032C475.381 115.414 471.564 115.859 469.084 116.05C466.667 116.241 463.486 116.686 462.087 117.004C460.687 117.322 457.952 117.64 456.044 117.64C451.464 117.64 436.897 119.421 432.508 120.502C423.858 122.602 424.303 122.729 418.514 117.64C409.736 109.816 405.347 105.3 404.902 103.519C404.711 102.565 404.075 101.42 403.566 100.847C403.057 100.338 402.612 99.7659 402.612 99.5114C402.612 98.6845 397.523 92.3236 394.597 89.5884C387.219 82.655 378.122 76.9301 374.369 76.9301C370.807 76.9301 369.153 82.5277 371.38 87.1712C372.906 90.2881 377.741 95.6313 382.575 99.575C388.682 104.473 392.244 106.318 397.905 107.463C400.513 108.035 402.167 108.798 403.693 110.325L405.856 112.424L403.439 111.852C387.664 108.162 372.906 110.134 368.009 116.559C365.21 120.248 366.355 123.429 370.998 124.701C374.051 125.528 386.137 125.528 390.081 124.701C391.544 124.383 395.17 123.937 398.159 123.683C401.149 123.429 405.602 122.856 408.019 122.347C411.645 121.584 412.917 121.52 414.825 122.156C417.179 122.92 417.56 124.001 415.397 124.001C414.761 124.001 411.008 124.955 407.001 126.164C402.994 127.372 395.488 129.535 390.208 130.998C378.886 134.178 370.426 136.977 366.037 138.949C364.319 139.713 361.711 140.73 360.312 141.176C358.912 141.621 354.651 143.402 350.898 145.056C344.409 147.918 343.773 148.045 341.038 147.536C339.384 147.155 336.522 146.582 334.614 146.201C332.196 145.755 329.843 144.61 326.981 142.575C324.691 140.921 322.21 139.267 321.51 138.886C320.81 138.504 319.665 137.931 318.966 137.55C314.577 135.26 311.714 134.369 304.654 133.288C292.695 131.443 285.253 135.133 288.242 141.366C289.26 143.529 294.985 147.155 299.183 148.236C300.265 148.491 302.745 149.19 304.654 149.763C310.506 151.544 316.485 151.925 325.517 151.289C333.723 150.653 337.158 150.908 336.077 151.989C335.186 152.88 322.401 159.05 320.938 159.368C319.411 159.686 314.322 158.795 308.788 157.269C306.244 156.569 304.272 155.488 302.873 154.088C300.392 151.607 298.42 151.417 296.003 153.452C294.794 154.533 294.285 155.551 294.285 157.014C294.285 160.576 296.13 161.467 302.427 160.831C303.827 160.704 305.862 161.085 308.788 162.039C309.87 162.421 311.523 162.866 312.541 163.121C314.259 163.502 313.813 163.82 306.371 167.891C289.96 176.86 269.859 191.045 252.367 205.993C249.695 208.22 248.995 208.601 248.423 207.902C247.151 206.248 238.246 203.894 230.867 203.195C228.259 202.94 225.842 202.559 225.46 202.24C225.142 201.986 222.852 201.095 220.371 200.269C216.809 199.124 214.519 198.806 208.604 198.806C201.988 198.742 200.97 198.933 197.79 200.396C192.765 202.749 189.521 206.184 189.521 208.983C189.521 212.418 192.192 213.308 201.925 213.181C213.756 212.927 219.544 212.1 224.379 209.874C227.75 208.347 229.277 207.965 231.503 208.22C236.91 208.729 240.472 209.428 240.79 209.937C240.981 210.255 241.044 210.51 240.917 210.51C240.79 210.51 236.083 211.337 230.485 212.291C224.824 213.308 219.735 213.881 219.099 213.69C218.463 213.499 216.364 213.563 214.392 213.881C183.86 218.588 168.721 223.486 158.797 231.882C152.309 237.416 150.91 243.459 154.981 248.548C157.271 251.41 159.243 252.428 163.314 252.937C165.922 253.255 167.385 252.873 172.728 250.711C176.226 249.311 182.206 246.258 186.022 243.905C189.902 241.487 195.182 238.371 197.79 236.908C203.197 233.918 214.837 225.776 220.053 221.323C222.534 219.224 224.315 218.206 226.096 217.952C230.549 217.316 239.581 215.662 240.79 215.217C241.935 214.835 230.294 226.666 221.643 234.745C213.501 242.378 190.602 271.257 181.506 285.441C172.601 299.181 153.263 315.847 119.296 339.064C115.543 341.672 110.391 345.298 107.846 347.206C102.948 350.895 96.9056 354.012 93.5979 354.648C89.6541 355.412 85.2015 352.168 85.2015 348.606C85.2015 345.998 87.4278 342.817 89.3361 342.817C91.3716 342.817 93.0254 345.298 92.4529 347.524C92.0077 349.305 93.089 349.878 93.7251 348.16C94.9337 345.043 92.6438 341.545 89.3997 341.545C83.6112 341.545 82.021 351.277 87.237 354.966C88.8272 356.111 89.7177 356.302 92.8982 355.984C96.0787 355.73 97.7325 355.03 102.567 352.168C105.811 350.196 110.073 347.397 112.045 345.87C114.08 344.344 119.296 340.718 123.685 337.728C128.138 334.739 133.608 330.859 135.962 329.077C138.315 327.296 140.923 325.452 141.814 325.006L143.404 324.18L141.877 325.897C140.987 326.788 136.598 331.367 132.018 336.011C123.749 344.407 116.37 354.585 117.324 356.175C118.914 358.719 126.675 351.85 133.545 341.799C134.053 341.036 136.916 336.838 139.842 332.512C147.348 321.444 148.747 319.854 157.716 312.348C161.024 309.549 165.667 305.478 168.084 303.252C170.438 301.026 172.346 299.308 172.346 299.372C172.346 299.626 167.576 308.023 165.922 310.694C162.042 316.992 144.358 353.885 144.358 355.793C144.358 355.984 143.658 357.638 142.832 359.483C140.096 365.716 134.88 380.728 131.954 391.287C130.746 395.358 130.619 395.613 127.693 396.949C126.039 397.712 123.494 399.175 121.968 400.129C120.505 401.147 118.978 401.719 118.66 401.401C117.579 400.638 111.981 399.557 106.956 399.048C103.33 398.73 102.122 398.348 101.231 397.267C99.0683 394.595 94.9337 393.959 77.3775 393.386C65.1009 393.005 56.9589 394.086 51.0433 396.949C45.064 399.811 40.8022 405.472 42.8377 407.953C45.9545 411.77 50.5344 411.833 75.9781 408.653C79.8583 408.144 84.6926 407.635 86.7917 407.381C88.8908 407.19 93.0254 406.236 96.0151 405.345C100.468 403.946 102.567 403.628 107.656 403.691C111.345 403.691 114.207 404.009 114.653 404.454C115.034 404.836 115.098 405.154 114.716 405.218C106.511 405.917 101.104 408.398 91.2444 415.968C86.8553 419.339 73.2429 427.863 65.8006 431.997C52.1246 439.503 39.2119 452.098 30.5611 466.346C26.2356 473.407 25.7268 478.687 28.9072 481.867C31.9605 484.92 35.5226 483.521 44.5551 475.888C47.8628 473.089 53.7149 467.555 57.5314 463.548C64.1468 456.741 80.3672 441.602 105.175 419.212C111.154 413.805 116.37 409.098 116.688 408.653C117.769 407.381 128.519 400.511 128.837 400.892C129.028 401.083 128.901 401.783 128.519 402.483C128.138 403.246 127.12 407.762 126.293 412.596C125.403 417.431 123.685 426.527 122.477 432.824C120.377 443.447 119.614 449.172 117.579 467.809C117.07 472.198 116.497 474.997 115.988 475.315C115.543 475.57 114.144 477.287 112.935 479.132C111.727 480.976 109.055 484.284 107.083 486.574C105.048 488.864 101.994 492.871 100.277 495.479L97.16 500.25H93.2162C87.3006 500.314 81.0033 503.558 76.2962 508.965C70.5077 515.516 69.0447 517.679 64.5284 526.012C55.0507 543.377 49.7075 555.336 43.2193 573.719C38.7667 586.377 37.8761 591.784 39.6572 595.219C40.9294 597.7 43.1557 598.845 45.382 598.272C49.3258 597.318 58.4856 585.041 68.345 567.676C70.6985 563.478 73.4337 558.898 74.3879 557.498C91.626 532.309 97.9869 520.096 100.086 508.328C101.104 502.095 103.457 497.833 109.946 490.263C112.235 487.592 114.207 485.493 114.207 485.493C114.271 485.556 113.635 490.263 112.872 495.925C109.818 516.979 104.221 541.214 100.977 547.003C98.8775 550.692 94.4248 557.053 93.2162 558.135C91.2444 559.788 85.8376 568.948 85.8376 570.538C85.8376 573.083 92.7074 566.658 96.5875 560.488C97.7325 558.707 98.7503 557.18 98.8139 557.18C99.0047 557.18 95.5062 567.994 94.8065 569.584C94.4884 570.284 93.4707 572.828 92.6438 575.309C89.018 585.487 88.3183 587.268 87.1734 589.494C85.2651 593.183 81.0033 597.636 78.2681 598.717C73.6246 600.626 68.6631 597.636 68.6631 592.929C68.6631 591.466 69.0447 590.893 70.5713 590.257C72.8613 589.303 74.3879 590.194 74.3879 592.547C74.3879 593.501 74.7695 594.074 75.342 594.074C77.5684 594.074 75.8509 589.494 73.2429 588.413C70.6349 587.331 68.7267 588.031 67.7089 590.575C66.6912 592.929 67.3273 596.491 69.0447 598.208C72.9249 602.025 78.0772 601.516 83.2932 596.873C86.8553 593.629 88.3183 590.893 92.4529 579.762C94.4248 574.482 96.2695 569.648 96.6512 568.948C96.9692 568.248 98.1142 564.686 99.2591 560.997C106.383 536.762 107.656 532.373 108.101 529.828C108.419 528.238 109.373 523.531 110.264 519.333C111.154 515.135 112.744 505.657 113.826 498.342C114.907 490.963 115.861 484.539 115.925 484.03C116.052 483.521 116.179 491.345 116.179 501.522C116.243 525.694 117.261 536.889 122.158 566.404C122.413 568.121 123.367 573.019 124.321 577.217C125.212 581.416 126.229 586.123 126.548 587.713C128.329 596.936 130.619 605.905 133.799 615.701C135.771 621.871 137.361 627.66 137.361 628.614C137.361 629.631 136.598 631.731 135.707 633.321C134.817 634.911 133.163 638.537 132.018 641.272C130.173 645.725 129.601 646.552 126.993 648.015C119.487 652.467 114.843 658.892 112.299 668.497C109.182 680.201 108.037 701.128 110.2 706.662C111.599 710.224 115.352 713.469 118.724 714.041C125.021 714.995 129.41 706.217 131.891 687.898C133.099 679.374 134.181 664.235 134.435 654.057C134.562 648.46 134.944 645.915 135.771 644.007C136.407 642.608 137.488 640.254 138.188 638.791C138.824 637.265 139.587 635.929 139.905 635.738C140.16 635.547 141.687 638.664 143.277 642.608C150.91 661.754 165.794 692.096 170.883 698.902C172.346 700.81 172.41 701.319 172.092 706.535C171.265 718.812 171.074 719.829 169.42 720.593C168.021 721.229 166.621 723.519 166.621 725.173C166.621 725.491 167.321 726.508 168.212 727.335C170.311 729.498 173.555 729.498 175.781 727.272C177.626 725.363 177.88 723.201 176.481 721.038C175.718 719.893 175.654 718.748 176.099 715.504C176.354 713.278 176.481 711.115 176.354 710.733C175.718 708.952 177.435 709.398 178.644 711.306C179.852 713.15 183.796 718.684 190.666 728.035C192.192 730.134 195.436 734.65 197.917 738.149C202.179 744.128 205.678 748.517 211.402 754.942C213.756 757.55 213.82 757.804 213.438 760.985C213.183 762.766 212.102 767.664 211.021 771.862C209.939 776.06 208.922 780.195 208.731 781.085C208.54 781.976 208.031 782.93 207.522 783.184C206.377 783.884 203.324 790.054 201.734 795.079C198.172 806.275 197.217 817.661 199.444 822.177C200.589 824.53 200.843 824.658 203.197 824.53C208.985 824.149 212.229 818.996 214.901 806.02C216.046 800.422 215.791 792.471 214.265 787.891C213.056 784.138 212.993 783.63 213.883 780.704L214.837 777.587L215.283 780.131C217.891 793.68 229.976 809.073 237.927 809.073C241.935 809.073 243.843 805.766 242.38 801.504C241.426 798.832 236.21 789.545 234.874 788.209C234.365 787.701 233.475 786.492 232.902 785.601C232.33 784.711 228.768 780.004 225.015 775.233C220.371 769.381 218.145 765.946 218.145 764.865C218.145 763.974 218.272 763.275 218.399 763.275C218.527 763.275 223.361 767.918 229.086 773.579C240.217 784.647 248.741 792.471 254.021 796.67C255.802 798.069 257.837 799.723 258.537 800.359C259.237 801.059 263.562 804.366 268.078 807.801L276.347 813.971L278.574 820.587C280.418 825.93 280.737 827.711 280.355 829.746C278.828 838.397 280.673 850.229 284.935 859.134C289.006 867.403 294.094 870.202 297.975 866.258C299.056 865.177 299.247 864.223 299.183 858.816C299.12 851.628 297.593 845.331 294.349 838.652C291.677 832.99 286.08 824.403 285.189 824.34C284.808 824.34 284.299 823.576 284.108 822.559C283.917 821.604 283.535 820.332 283.281 819.632C282.836 818.488 282.899 818.488 284.68 819.569C287.352 821.223 293.204 824.912 295.621 826.502C298.293 828.156 300.265 832.545 302.364 841.196C302.936 843.74 302.936 844.695 302.3 845.967C301.155 848.257 301.282 849.465 302.936 851.31C304.908 853.663 307.961 854.109 309.679 852.391C311.523 850.547 311.46 846.984 309.552 845.076C308.343 843.868 304.654 834.263 304.654 832.418C304.654 832.227 307.071 833.499 310.06 835.344C319.284 840.942 319.92 841.323 330.606 846.603C341.674 852.137 347.335 854.681 358.404 859.07C362.284 860.597 365.846 862.123 366.355 862.378C366.864 862.696 369.344 863.523 371.761 864.35L376.214 865.749L376.278 869.375C376.341 871.856 377.168 875.036 378.758 879.362C380.094 882.86 381.685 887.885 382.384 890.493C387.155 909.067 392.816 916.637 402.866 917.654C405.602 917.909 406.301 917.782 407.255 916.7C409.227 914.538 408.146 910.975 403.312 903.597C400.958 900.098 398.287 896.027 397.396 894.628C395.297 891.384 391.608 887.694 388.3 885.595C386.137 884.26 385.374 883.178 383.656 878.98C380.285 870.647 380.985 870.584 387.409 878.535C389.954 881.779 392.88 885.277 393.834 886.231C394.788 887.249 395.615 888.521 395.615 889.03C395.615 890.175 398.986 894.755 404.775 901.625C421.377 921.217 433.971 931.394 444.594 933.748C452.609 935.529 458.588 931.012 458.588 923.252C458.588 919.563 457.316 917.146 453.499 913.456C448.665 908.813 444.594 906.205 424.875 895.391C418.96 892.147 409.1 887.313 408.4 887.313C408.019 887.313 406.81 886.931 405.665 886.422C404.52 885.913 402.294 885.023 400.704 884.387C399.113 883.751 397.014 882.224 395.933 880.952C394.915 879.743 392.244 876.69 390.081 874.146C386.264 869.757 385.247 868.294 386.773 869.184C387.155 869.439 390.081 870.265 393.261 871.092C396.505 871.856 401.34 873.255 404.075 874.209C411.899 876.881 420.995 879.107 427.42 879.998C429.71 880.316 434.671 881.079 441.605 882.224C445.039 882.86 450.128 883.56 456.998 884.45C463.868 885.277 471.246 886.041 477.035 886.422C482.951 886.804 485.686 887.249 494.209 889.221C496.945 889.794 511.638 894.691 514.246 895.836C515.328 896.282 517.172 897.045 518.381 897.49C524.042 899.589 533.266 903.533 539.181 906.459C542.807 908.177 545.86 909.576 545.987 909.576C546.305 909.576 552.03 912.248 564.18 917.972C579.573 925.224 582.308 927.45 582.308 932.921C582.308 935.274 581.99 936.038 580.527 937.31C578.301 939.218 574.421 939.409 572.831 937.628C571.431 936.101 572.449 933.302 574.739 932.412C575.947 932.03 576.265 931.585 575.82 931.14C574.866 930.185 572.004 931.712 571.177 933.684C570.286 935.91 571.177 938.391 573.339 939.79C575.375 941.19 579.573 940.109 582.118 937.564C585.489 934.193 584.344 928.722 579.319 924.651C577.092 922.807 566.915 917.209 565.897 917.209C565.77 917.209 561.953 915.492 557.437 913.329C552.921 911.23 546.942 908.367 544.143 907.032C539.245 904.742 535.619 903.088 531.294 901.243C529.131 900.353 528.24 898.89 530.34 899.717C530.912 899.907 532.884 900.544 534.601 900.989C536.382 901.498 539.372 902.325 541.28 902.897C549.868 905.314 559.536 907.032 565.007 907.032C569.268 907.032 569.968 906.904 569.777 906.014C569.65 905.441 568.823 904.36 567.933 903.724C565.961 902.261 555.783 900.098 548.913 899.717C544.715 899.462 538.927 899.017 531.739 898.444C527.541 898.063 519.144 896.345 517.045 895.391C513.229 893.737 508.013 891.893 502.161 890.112C499.044 889.221 495.736 888.203 494.846 887.949C493.382 887.44 498.471 887.249 516.791 886.995C522.325 886.931 540.199 885.532 545.733 884.705C548.023 884.387 552.221 883.878 555.084 883.496C557.946 883.178 562.399 882.478 564.943 881.97C567.487 881.397 571.622 880.697 574.039 880.316C576.52 879.934 582.754 878.662 587.906 877.39L597.32 875.227L599.992 876.944C601.455 877.962 603.999 879.425 605.653 880.316C607.816 881.397 608.579 882.16 608.388 882.924C608.006 883.941 611.314 892.656 613.222 895.836C614.113 897.299 614.177 897.999 613.668 898.953C612.586 901.052 613.668 905.632 616.785 912.057C624.163 926.941 629.443 935.338 634.468 940.299C638.603 944.307 642.165 946.215 646.745 946.851C650.816 947.36 652.597 946.151 652.597 942.971C652.597 938.773 651.324 936.546 641.02 922.552C629.443 906.904 624.609 900.989 620.601 897.808C618.311 895.964 616.912 893.992 615.004 890.175C613.668 887.376 612.523 884.832 612.523 884.578C612.523 883.433 613.795 884.323 615.067 886.422C616.912 889.348 622.128 893.228 628.425 896.282C631.224 897.681 633.641 898.762 633.832 898.762C634.659 898.762 648.144 905.632 653.042 908.558C671.234 919.499 680.267 922.998 696.805 925.478C713.407 928.023 721.358 926.369 722.885 920.199C723.457 917.972 722.058 915.81 718.75 913.711C715.252 911.484 702.148 906.841 694.579 905.06C688.536 903.724 669.58 898.126 665.955 896.663C665.064 896.345 663.537 895.836 662.456 895.582C661.438 895.328 656.413 893.737 651.324 892.083C646.236 890.43 641.274 888.839 640.193 888.585C639.175 888.331 633.641 886.486 627.98 884.514C622.255 882.542 617.103 880.952 616.53 880.952C615.449 880.952 604.508 875.672 603.427 874.591C603.109 874.336 604.508 873.637 606.607 873.064C608.643 872.492 612.332 871.22 614.749 870.202C617.23 869.184 622.319 867.467 626.199 866.385C636.185 863.459 659.212 854.172 669.962 848.766C671.743 847.811 673.27 847.366 673.524 847.748C673.715 848.066 675.941 848.511 678.358 848.702C680.839 848.956 685.61 849.72 689.045 850.419C692.543 851.119 696.869 851.692 698.713 851.692C704.438 851.692 705.71 852.2 706.601 854.681C709.4 862.378 719.068 866.64 735.289 867.339C748.647 867.912 779.052 865.495 791.519 862.887C794 862.378 798.644 861.424 801.76 860.851C809.012 859.516 813.719 857.353 815.373 854.618C820.398 846.476 810.857 843.55 779.497 843.422C773.2 843.422 764.04 843.104 759.142 842.723C754.244 842.341 744.385 842.023 737.197 842.023C725.238 841.959 723.585 842.087 717.351 843.613C713.598 844.567 709.463 845.776 708.128 846.285C705.52 847.366 698.523 847.239 690.317 845.967C682.684 844.758 682.684 844.695 694.388 840.115C704.12 836.235 725.111 829.174 734.144 826.629C739.741 825.039 751 825.166 758.315 826.884C761.623 827.647 770.719 827.711 771.164 827.011C772.246 825.23 768.747 823.894 759.778 822.813L753.417 822.05L756.916 821.223C759.969 820.587 764.167 819.823 778.543 817.343C785.095 816.198 793.173 816.452 796.417 817.851C801.697 820.141 803.542 824.594 800.997 828.856C799.598 831.209 798.071 831.655 796.099 830.382C793.746 828.856 793.619 827.647 795.527 825.866C797.371 824.149 797.181 823.195 795.209 824.276C793.3 825.294 792.155 828.538 793.11 830.255C794.573 832.99 796.099 833.436 799.153 832.1C802.269 830.7 804.368 827.266 803.732 824.467C802.079 817.406 797.435 814.735 787.385 815.053C779.37 815.307 752.145 820.396 736.179 824.658C724.157 827.838 701.83 835.344 691.144 839.733C685.228 842.15 680.33 843.995 680.203 843.868C680.076 843.804 683.511 841.832 687.773 839.606C705.838 830.001 726.129 816.579 742.286 803.412C749.41 797.687 752.272 795.143 763.531 784.965C778.988 770.971 780.706 769.254 788.212 760.539C791.837 756.341 795.209 753.097 795.781 753.097C796.417 753.097 797.117 752.843 797.308 752.461C797.499 752.143 798.453 752.016 799.407 752.207C800.361 752.397 804.241 752.079 808.058 751.571C814.928 750.68 815.055 750.68 817.281 752.079C822.052 755.005 825.55 755.896 832.293 755.896C839.799 755.832 844.442 754.751 854.811 750.616C867.914 745.4 875.929 740.121 878.346 735.096C881.59 728.417 878.028 721.929 871.158 721.929C868.169 721.929 859.963 724.091 852.966 726.826C847.05 729.053 820.525 741.775 816.073 744.51C812.892 746.418 800.17 748.454 800.17 746.991C800.17 746.8 802.142 744.192 804.623 741.139C810.857 733.378 818.363 723.137 822.752 716.458C824.787 713.341 827.777 708.761 829.431 706.281C831.084 703.864 834.201 698.584 836.428 694.704C838.718 690.569 841.198 686.88 842.407 686.053C844.951 684.081 856.019 678.674 857.482 678.674C858.118 678.674 858.818 678.929 859.009 679.31C859.2 679.628 860.345 679.946 861.553 679.946C863.08 679.946 864.034 679.501 864.988 678.293C866.515 676.384 866.642 675.557 865.624 673.395C864.797 671.55 862.571 670.405 860.027 670.405C858.246 670.405 856.146 672.059 856.146 673.458C856.146 673.904 855.765 674.222 855.383 674.222C854.938 674.222 852.584 675.239 850.104 676.384C847.686 677.593 845.587 678.483 845.46 678.42C845.396 678.293 846.605 675.557 848.132 672.25C849.658 668.942 851.757 664.426 852.648 662.136C853.602 659.846 855.447 655.838 856.783 653.23C859.581 647.633 864.797 634.72 867.278 627.342L868.996 622.126L874.53 620.154C883.753 616.782 893.167 614.365 893.994 615.065C894.821 615.765 904.617 615.001 909.769 613.793C914.667 612.711 924.463 608.704 927.834 606.414C933.432 602.597 934.322 600.117 931.269 596.809C928.534 593.756 924.908 593.438 916.766 595.537C907.734 597.827 899.337 602.089 895.266 606.414C892.467 609.404 889.351 611.248 887.061 611.248C886.743 611.248 887.697 609.913 889.287 608.259C897.493 599.608 902.581 589.049 902.581 580.398C902.581 577.154 902.39 576.581 900.419 574.609C899.21 573.401 897.747 572.447 897.111 572.447C895.203 572.447 890.368 578.235 887.188 584.278C885.598 587.395 882.672 593.819 880.763 598.526C875.293 611.884 874.148 614.238 872.812 615.001C872.049 615.383 871.349 615.701 871.222 615.701C871.095 615.701 872.049 611.884 873.448 607.241C877.265 594.201 880.7 579.953 882.226 570.538C883.753 561.315 885.343 550.247 885.725 545.922C886.234 540.642 887.061 538.861 891.513 534.09C893.867 531.546 896.03 530.019 899.655 528.302C908.433 524.231 914.54 519.206 920.901 510.618C924.717 505.466 925.99 501.459 924.845 498.66C923.763 496.115 920.901 494.589 918.102 495.161C914.476 495.797 905.126 503.749 899.719 510.746C897.111 514.117 892.467 522.704 891.45 526.012C890.877 527.92 887.888 531.928 887.442 531.482C887.124 531.101 887.251 523.658 887.633 517.87C887.888 514.053 889.287 511.891 895.839 505.148C898.956 501.968 900.037 501.204 901.691 501.204C905.507 501.204 907.225 496.879 904.871 493.317C903.408 491.09 900.8 491.154 898.129 493.444C896.666 494.78 896.157 495.607 896.475 496.497C896.729 497.451 895.839 498.787 892.531 502.031L888.142 506.357L888.078 493.062C888.078 485.684 887.76 476.905 887.379 473.407C886.997 469.972 886.234 462.593 885.725 456.996C885.152 451.398 884.071 443.511 883.371 439.503C881.527 428.88 881.272 426.527 882.099 427.036C883.435 427.799 891.577 419.848 894.885 414.441C895.648 413.233 898.065 410.752 900.228 408.907C912.25 398.92 916.83 387.598 912.886 377.675C912.059 375.639 909.515 374.749 907.352 375.767C905.189 376.784 903.217 379.71 898.51 388.934C893.994 397.776 892.404 402.419 892.404 407.126C892.404 410.243 891.259 412.215 886.488 417.558C883.562 420.866 883.498 419.657 886.361 412.406C887.633 409.289 889.223 405.027 889.923 402.928C890.623 400.892 891.768 398.793 892.467 398.284C893.103 397.839 893.676 397.076 893.676 396.631C893.676 396.185 894.821 392.941 896.157 389.443C902.2 374.049 905.126 363.554 906.461 352.613C908.688 334.039 902.963 323.48 892.149 326.342C886.87 327.742 884.135 332.067 882.799 340.972C881.59 349.305 882.417 380.156 884.198 391.669L885.534 400.765L883.18 407.253C880 416.095 879.109 417.94 879.109 416.222C879.046 415.459 878.155 412.151 877.074 408.907C875.993 405.599 874.848 401.21 874.53 399.111C872.367 385.817 860.917 355.412 848.195 329.141C844.442 321.444 839.862 305.288 838.272 294.156C836.682 283.215 835.728 275.137 835.155 268.076C834.774 263.878 833.883 254.018 833.184 246.131C831.466 228.129 831.466 222.214 833.247 218.779C834.837 215.662 837.573 214.135 840.499 214.644C844.061 215.344 846.669 220.369 844.57 222.468C843.615 223.422 840.499 223.486 839.926 222.595C839.735 222.214 839.036 221.959 838.463 221.959C837.573 221.959 837.636 222.15 838.781 223.359C841.58 226.158 846.605 224.377 846.605 220.56C846.605 214.772 839.354 210.891 834.965 214.326C830.321 217.952 829.558 222.532 830.957 237.544C831.53 243.523 832.293 251.665 832.675 255.672C832.993 259.68 833.565 265.595 833.947 268.839C834.265 272.083 834.519 275.646 834.456 276.791C834.456 278.508 834.201 278.126 833.184 274.755C832.547 272.465 831.275 267.631 830.321 263.942C827.968 254.655 824.596 245.749 821.925 242.06C819.826 239.197 819.571 239.07 818.808 240.152C818.363 240.788 817.981 241.869 817.981 242.632C817.981 246.067 825.232 264.45 830.257 273.737C834.265 281.052 835.728 285.696 837.318 295.746C837.827 299.054 838.845 304.588 839.608 308.023C840.371 311.521 840.88 314.447 840.753 314.575C840.562 314.702 839.099 312.348 837.445 309.231C833.82 302.552 828.731 294.156 824.215 287.541C817.281 277.363 813.91 272.529 813.274 271.829C812.892 271.384 812.065 270.43 811.493 269.603C807.295 263.751 805.132 260.888 804.114 259.807C803.478 259.107 801.824 257.072 800.425 255.354C799.089 253.573 795.527 249.502 792.601 246.195C789.675 242.887 786.812 239.643 786.24 239.007C785.667 238.371 783.886 236.399 782.232 234.618L779.179 231.501V225.14V218.779L782.423 215.471C784.204 213.627 786.494 210.637 787.639 208.792C789.229 206.121 789.993 205.421 791.774 205.103C794.127 204.658 798.898 200.269 800.616 196.897C801.188 195.816 803.478 192.063 805.768 188.564C815.945 172.98 819.062 162.93 816.454 154.279C815.309 150.462 813.846 148.809 811.556 148.809C808.121 148.809 804.75 153.516 799.916 165.029C799.28 166.428 798.58 168.146 798.262 168.846C797.944 169.545 797.117 171.517 796.354 173.298C790.502 186.72 786.876 196.897 786.558 200.905C786.431 202.431 785.413 204.658 783.759 207.075C778.479 214.708 777.335 215.408 779.815 209.556C781.724 205.103 781.978 199.251 780.897 187.229C780.324 181.313 779.752 169.036 779.561 159.94C779.179 140.031 778.034 133.288 772.755 120.184C768.493 109.498 764.04 102.565 760.096 100.656C756.789 99.0025 756.28 98.9389 754.117 99.8931C750.809 101.42 750.364 107.781 752.718 118.976C753.545 122.983 754.69 127.5 755.198 129.09C755.771 130.68 756.789 134.497 757.552 137.677C758.315 140.794 759.969 147.982 761.305 153.579C762.641 159.177 764.422 166.746 765.185 170.436C766.012 174.125 767.03 178.705 767.475 180.613C767.92 182.522 769.002 187.801 769.956 192.381C770.846 196.897 771.991 202.24 772.437 204.149C774.663 212.736 775.426 217.443 775.235 222.087L775.045 226.984L771.164 223.359C769.065 221.387 765.058 217.888 762.259 215.598C759.524 213.308 756.153 210.382 754.88 209.047C753.545 207.711 751.255 205.612 749.792 204.403C748.265 203.131 746.039 201.286 744.83 200.269C740.059 196.198 735.352 192.699 734.716 192.699C734.335 192.699 734.017 192.445 734.017 192.127C734.017 191.809 733.062 190.982 731.981 190.218C730.836 189.519 729.309 188.564 728.61 188.119C727.91 187.674 726.002 186.211 724.412 184.875C722.758 183.603 721.231 182.522 721.04 182.522C719.895 182.522 716.842 179.596 716.842 178.578C716.842 177.942 716.27 176.224 715.57 174.825C714.807 173.425 713.407 169.8 712.326 166.746C711.244 163.693 709.145 158.604 707.555 155.36L704.693 149.508L706.41 146.9C711.117 139.776 710.354 130.553 703.993 117.958C702.212 114.46 700.24 110.834 699.604 109.88C698.904 108.989 698.395 108.035 698.395 107.717C698.395 106.826 682.429 83.5455 678.549 78.7112C676.323 76.0396 671.743 70.442 668.372 66.2437C664.81 61.8547 660.484 57.3384 658.258 55.6846C654.95 53.1402 653.932 52.7586 651.388 52.7586C649.225 52.7586 648.017 53.0766 647.317 53.9035ZM533.329 119.23C545.033 120.502 555.338 121.838 560.045 122.665C567.551 123.937 578.492 125.846 579.764 126.164C592.041 129.09 595.857 130.044 600.437 131.316C603.427 132.143 607.498 133.161 609.533 133.606C611.505 134.115 613.159 134.624 613.159 134.815C613.159 135.387 609.088 136.723 607.243 136.723C606.353 136.723 604.826 136.405 603.808 136.023C602.854 135.642 600.628 135.069 598.847 134.751C597.129 134.433 594.839 133.733 593.758 133.224C588.478 130.553 568.441 129.599 554.956 131.316C543.061 132.843 538.736 135.005 538.736 139.458C538.736 141.939 540.39 144.165 543.443 145.819C545.797 147.028 547.005 147.218 554.956 147.218C560.045 147.155 565.515 146.837 567.678 146.328C571.622 145.437 591.214 139.522 592.168 138.949C592.804 138.568 600.882 139.713 601.836 140.349C603.172 141.112 599.801 142.32 595.03 142.702C588.733 143.211 574.357 146.264 568.314 148.363C555.274 153.007 547.132 157.46 535.874 166.301C519.526 179.087 510.303 191.618 509.603 201.986C509.348 205.612 509.539 206.884 510.621 209.047C512.02 211.718 513.038 212.418 515.519 212.418C517.109 212.418 519.653 209.492 519.653 207.647C519.653 204.912 516.409 202.304 514.755 203.64C513.419 204.721 513.801 205.357 515.709 205.23C517.172 205.103 517.427 205.357 517.618 207.011C518.063 211.591 513.865 212.545 511.829 208.283C509.476 203.385 511.066 195.434 515.709 188.755C518.19 185.257 526.65 175.97 530.785 172.28L533.965 169.482L532.184 171.899C530.021 174.761 526.841 181.44 526.269 184.239C525.95 185.893 526.078 186.338 526.841 186.338C527.859 186.338 529.131 184.43 533.202 176.797C537.337 169.164 542.171 163.057 546.56 160.067C551.076 157.078 562.653 151.862 571.049 149.063C577.22 147.028 585.68 144.865 586.443 145.119C586.825 145.247 584.471 146.455 581.227 147.791C565.643 154.279 551.267 163.312 544.079 171.072C538.99 176.606 537.782 178.959 537.782 183.667C537.782 187.419 537.909 187.865 539.881 189.582C541.089 190.664 542.616 191.427 543.697 191.427C546.369 191.427 551.521 188.628 554.32 185.702C557.246 182.649 559.981 180.804 566.724 177.242C580.782 169.927 590.705 161.531 597.575 151.099C599.737 147.855 600.946 146.773 605.208 144.356C609.915 141.684 616.657 138.631 619.901 137.741C620.665 137.486 623.464 138.186 626.58 139.331C629.506 140.412 632.623 141.43 633.514 141.621C634.404 141.812 635.677 142.384 636.376 142.829C637.076 143.338 638.03 143.72 638.475 143.72C638.984 143.72 640.256 144.102 641.338 144.61C642.483 145.056 646.236 146.71 649.734 148.173C653.233 149.699 657.558 151.544 659.276 152.307C661.057 153.07 663.728 154.215 665.318 154.852C669.708 156.633 677.531 160.386 679.313 161.594C680.203 162.167 684.21 164.584 688.218 166.937C692.225 169.291 695.66 171.326 695.787 171.454C696.551 172.153 695.088 172.153 691.08 171.326C683.829 169.863 679.376 169.164 672.634 168.528C665.382 167.764 664.682 167.637 664.682 166.492C664.682 166.047 663.919 165.093 662.965 164.457C661.502 163.375 661.12 163.312 659.721 164.138C657.049 165.602 655.586 168.209 655.268 171.835C655.077 174.57 655.268 175.525 656.413 176.924C659.021 180.232 664.682 178.578 665.637 174.189C666.018 172.535 666.273 172.344 667.736 172.662C668.69 172.853 671.043 173.107 672.952 173.298C679.694 173.807 692.225 176.161 697.759 177.942C698.586 178.196 698.586 178.26 697.759 178.578C697.25 178.769 693.37 180.55 689.172 182.522C682.175 185.829 681.03 186.147 675.814 186.529C670.407 186.911 660.739 188.946 653.551 191.236C651.833 191.745 646.236 194.226 641.147 196.706C633.259 200.587 631.288 201.859 627.725 205.421C625.435 207.711 622.891 210.955 622.064 212.672L620.601 215.789L622.128 217.061C623.464 218.143 624.29 218.27 628.107 217.952C630.588 217.761 634.277 216.998 636.376 216.235C642.228 214.263 655.968 207.393 666.082 201.414C674.733 196.325 684.02 191.363 686.5 190.536C687.073 190.346 687.836 189.519 688.154 188.755C688.727 187.292 695.469 183.921 703.484 181.059C708.764 179.214 710.672 179.786 717.923 185.002C721.358 187.483 725.875 190.727 727.974 192.19C732.363 195.307 753.354 212.1 755.707 214.39C756.598 215.217 760.796 219.161 765.122 223.168C772.5 230.101 775.172 233.091 773.327 232.455C772.882 232.328 770.846 232.073 768.811 231.946C766.839 231.819 764.676 231.246 764.04 230.737C762.005 229.084 755.771 226.857 748.329 225.203C740.441 223.486 714.934 222.532 711.499 223.868C710.608 224.186 709.4 225.203 708.827 226.094C706.537 229.529 710.29 233.409 718.051 235.635C721.422 236.653 733.508 237.671 748.392 238.18C757.043 238.498 759.079 238.371 761.305 237.48C762.704 236.908 763.913 236.208 763.913 235.89C763.913 235.508 766.903 235.445 771.101 235.699L778.225 236.144L782.042 240.342C784.141 242.632 786.431 245.113 787.13 245.876C791.647 250.584 802.015 262.987 804.623 266.804C805.831 268.521 807.549 270.811 808.439 271.893C809.394 272.91 810.602 274.501 811.175 275.391C811.747 276.282 815.627 282.007 819.698 288.113C823.833 294.22 827.331 299.499 827.459 299.881C827.586 300.199 828.922 302.234 830.385 304.333C831.848 306.433 833.692 309.422 834.392 311.012C835.155 312.603 836.3 314.702 837.064 315.783C837.763 316.801 838.336 317.946 838.336 318.327C838.336 319.218 833.502 313.938 829.113 308.086C827.013 305.351 824.087 301.853 822.624 300.262C821.098 298.736 819.889 297.018 819.889 296.446C819.889 294.856 819.126 294.029 816.454 292.947C813.083 291.548 812.447 291.675 810.284 293.774C807.867 296.191 807.931 298.291 810.475 301.217C812.192 303.188 812.765 303.443 814.419 303.125C815.5 302.87 816.836 302.616 817.345 302.552C818.235 302.425 821.988 306.305 825.105 310.504C825.678 311.33 828.222 314.32 830.703 317.246C833.12 320.172 835.155 322.653 835.155 322.844C835.155 323.162 834.901 322.971 830.385 320.236C827.968 318.709 818.553 314.002 809.712 309.867C806.34 308.277 799.089 303.57 796.036 300.962C795.145 300.199 786.176 294.474 785.922 294.474C785.795 294.474 784.013 293.52 781.914 292.375C773.772 287.795 763.849 284.233 755.326 282.706C745.466 280.989 729.818 281.752 721.231 284.296C714.17 286.396 710.099 292.057 712.389 296.446C713.534 298.545 716.46 299.499 733.699 303.379C742.222 305.351 744.83 305.987 748.011 306.878C763.913 311.521 762.832 311.33 774.408 311.14C802.587 310.631 800.107 310.567 803.987 312.412L807.485 314.066L799.852 313.748C786.176 313.112 770.274 315.211 766.394 318.2C764.676 319.472 762.641 323.289 762.641 325.197C762.641 331.431 768.747 332.64 784.268 329.395C787.576 328.696 794.064 327.424 798.58 326.597C803.16 325.77 808.885 324.625 811.302 324.116C813.783 323.607 817.79 322.971 820.271 322.717C825.55 322.271 825.55 322.271 838.908 330.986L846.732 336.138L850.803 344.662C859.772 363.363 869.504 392.496 874.975 416.922C876.883 425.382 879.173 438.358 878.791 438.74C878.664 438.803 877.265 436.959 875.611 434.605C874.021 432.252 871.667 429.008 870.459 427.417C868.678 425.064 868.359 424.173 868.614 422.329C869.25 417.876 864.988 414.25 860.599 415.65C857.8 416.54 855.701 422.265 857.546 424.11C857.928 424.491 858.118 425 857.928 425.191C857.228 425.891 853.475 423.346 848.068 418.321C841.962 412.724 834.519 406.681 831.975 405.218C824.723 401.147 819.38 399.557 818.299 401.274C817.79 402.165 825.169 408.335 826.695 408.335C826.95 408.335 827.586 408.716 828.095 409.225C829.176 410.116 833.82 412.724 840.817 416.349C844.951 418.512 847.623 420.484 845.015 419.466C840.371 417.685 831.212 414.696 823.388 412.406C819.126 411.133 808.885 409.607 804.814 409.607C798.008 409.607 791.901 413.296 791.901 417.494C791.901 421.247 797.69 423.156 800.743 420.357C802.269 418.894 802.397 415.968 800.87 415.459C800.234 415.268 800.107 415.65 800.488 417.113C800.806 418.639 800.616 419.212 799.407 420.039C797.562 421.375 796.163 421.311 794.382 419.848C792.219 418.13 793.3 415.014 796.926 412.533C799.471 410.815 800.17 410.688 805.005 410.752C807.867 410.752 811.366 411.07 812.701 411.452C814.037 411.833 816.963 412.533 819.253 413.105C821.543 413.614 825.423 414.696 827.84 415.395C830.321 416.095 833.184 416.922 834.201 417.176C840.499 418.957 846.096 421.184 854.238 425.318C859.263 427.926 863.843 430.407 864.416 430.916C864.988 431.425 865.751 431.87 866.07 431.87C869.441 432.061 881.463 450.571 881.972 456.55C882.099 458.204 882.544 462.657 882.862 466.537C883.244 470.354 883.689 483.139 883.88 494.843L884.198 516.152L882.735 513.608C881.908 512.209 880.763 509.473 880.127 507.502C878.537 502.286 873.703 496.179 864.352 487.528C859.899 483.457 857.737 482.121 854.747 481.74C852.139 481.358 851.821 481.485 850.231 483.394C846.987 487.21 847.814 488.991 857.737 499.232C864.479 506.229 868.996 509.855 874.339 512.527C877.71 514.244 878.41 514.944 879.873 517.87C882.481 523.213 883.435 527.22 883.117 531.419C881.845 549.038 878.728 572.256 876.374 581.67C873.321 594.137 873.13 594.646 872.367 592.038C871.731 590.13 868.55 585.423 866.197 582.879C864.797 581.352 863.843 579.126 862.444 573.973C859.772 563.859 857.737 558.516 853.157 548.911C850.867 544.204 848.704 539.624 848.386 538.734C848.068 537.907 846.796 535.808 845.524 534.154C843.043 530.91 840.626 529.892 838.399 531.101C834.138 533.327 833.947 539.115 837.636 550.501C839.036 554.7 841.325 561.824 842.725 566.404C846.987 580.143 851.567 584.787 861.871 585.932C863.97 586.186 867.214 591.021 870.077 598.081C871.095 600.626 870.967 602.152 869.186 608.45C866.26 618.818 856.019 646.233 851.567 655.648C849.913 659.273 848.513 662.327 848.513 662.454C848.513 663.217 842.598 674.858 842.152 674.858C841.898 674.858 840.308 671.296 838.654 666.906C835.791 659.21 835.728 658.828 836.618 656.856C840.117 649.414 841.135 639.3 839.544 628.041C838.145 617.736 830.194 593.629 824.533 582.179C821.225 575.564 815.882 569.33 812.447 568.058C809.902 567.167 809.648 567.167 807.994 568.376C805.259 570.475 805.132 572.319 807.231 581.606C809.839 592.802 810.475 596.618 813.528 616.337C815.755 631.031 816.009 632.43 817.027 637.01C818.363 643.371 818.235 643.625 815.627 640.127C814.292 638.346 812.892 636.501 812.447 635.992C802.524 624.161 800.425 622.316 796.481 621.68C794.191 621.299 793.809 621.489 792.855 622.952C791.011 625.688 791.774 633.957 794.318 639.236C798.58 648.015 800.87 651.449 805.577 656.093C809.521 659.973 812.701 662.772 813.274 662.772C813.528 662.772 814.164 663.217 814.737 663.726C816.2 665.189 823.197 670.087 824.405 670.532C824.978 670.787 826.314 672.059 827.268 673.395C829.812 676.83 835.283 683.318 836.364 684.145C837.255 684.844 835.537 688.47 828.794 700.301C824.533 707.807 823.451 709.461 819.762 714.613C817.726 717.412 815.118 720.974 814.037 722.565C809.775 728.544 794.509 747.372 787.448 755.323C778.861 764.992 763.977 780.067 763.531 779.622C763.34 779.431 763.404 778.286 763.595 777.014C764.104 774.47 771.482 765.628 774.536 763.847C776.444 762.829 784.204 753.034 787.639 747.372C790.438 742.792 795.336 732.424 797.499 726.699C799.725 720.847 799.598 715.695 797.244 713.341C795.654 711.815 791.774 712.133 788.848 714.105C782.105 718.684 776.953 729.562 772.818 748.008C769.638 762.13 770.083 761.048 765.694 766.073L763.977 768.045L763.913 766.391C763.913 765.501 765.058 762.066 766.457 758.758C771.928 746.1 775.299 731.597 776.444 716.267C776.826 710.797 775.363 698.393 773.136 687.77C771.673 680.71 766.521 666.525 764.803 664.807C764.295 664.362 763.913 663.726 763.913 663.408C763.913 662.454 758.697 657.429 756.216 655.902C753.354 654.185 748.71 653.421 746.802 654.439C743.622 656.157 743.876 660.673 747.311 662.39C750.301 663.98 753.799 662.199 752.781 659.719C752.4 658.765 752.272 658.828 751.764 660.037C751.127 661.754 749.537 661.881 747.502 660.482C745.784 659.273 745.657 656.665 747.311 655.775C752.654 652.976 761.369 659.273 765.44 668.878C768.302 675.748 772.182 687.77 772.182 689.933C772.182 691.46 771.864 691.078 769.829 687.58C766.839 682.554 762.45 677.847 762.132 679.438C761.941 680.519 764.167 685.035 768.366 692.032C769.701 694.322 771.737 698.457 772.818 701.192C774.727 705.963 774.79 706.599 774.663 714.295C774.599 718.812 774.281 724.409 773.963 726.763C773.264 732.36 769.129 749.09 767.92 751.189C767.411 752.079 767.157 752.27 767.348 751.571C767.984 749.599 769.638 730.897 769.638 725.809C769.638 710.861 766.139 696.23 761.559 691.905C758.506 688.979 756.534 688.279 753.545 688.979C747.82 690.251 746.548 693.622 748.519 702.337C749.919 708.443 750.046 710.415 749.983 723.773C749.855 736.559 752.209 748.008 756.98 757.931L759.651 763.402L759.269 770.781C759.079 774.852 758.57 779.877 758.125 781.849C757.298 785.856 756.661 786.619 746.675 794.888C735.925 803.794 710.481 822.368 705.71 824.785C703.993 825.675 699.922 827.965 696.742 829.81C688.727 834.517 688.027 834.644 691.716 830.637C697.314 824.53 706.092 813.208 707.873 809.9C708.446 808.819 709.145 808.501 710.799 808.564C714.807 808.692 716.015 806.084 713.916 801.758C710.672 794.825 701.576 794.507 701.576 801.313C701.576 802.84 702.021 804.239 702.848 805.13C703.548 805.893 704.12 806.656 704.12 806.847C704.12 807.419 699.222 814.544 696.296 818.297C692.671 823.004 684.274 832.1 683.956 831.718C683.829 831.591 684.02 827.329 684.465 822.304C685.101 814.607 685.483 812.699 686.946 809.709C689.108 805.32 692.289 796.67 693.625 791.326C696.36 780.513 697.25 765.247 695.469 757.741C694.515 753.479 690.826 746.482 689.299 745.909C687.9 745.4 686.31 746.736 684.783 749.789C682.048 755.26 680.712 761.239 680.012 771.226C679.249 782.675 678.931 817.215 679.631 818.806C679.885 819.442 679.758 823.449 679.376 827.711C678.804 834.008 678.358 836.107 676.895 838.842L675.178 842.277L664.046 847.366C651.961 852.837 650.752 853.345 632.051 860.342C621.046 864.477 602.472 870.138 599.992 870.138C599.483 870.138 599.992 868.866 601.455 866.64C602.727 864.731 604.126 863.141 604.572 863.141C605.844 863.141 615.767 854.172 618.884 850.165C620.474 848.193 622.509 845.649 623.4 844.504C624.29 843.359 626.326 840.369 627.853 837.825C637.14 822.431 637.33 822.113 637.33 819.76C637.33 817.024 635.422 814.798 633.069 814.798C631.288 814.798 625.817 818.233 622.764 821.223C619.52 824.467 604.19 848.193 601.646 853.918C600.755 855.89 600.437 857.607 600.691 858.816C601.009 860.279 600.564 861.297 598.592 863.968C597.257 865.813 595.73 868.166 595.094 869.311C594.521 870.456 593.567 871.601 592.931 871.919C589.178 873.891 564.052 878.726 549.868 880.252C525.505 882.86 495.227 884.323 493.064 882.924C492.492 882.606 494.846 881.97 499.425 881.334C503.369 880.761 509.539 879.68 513.101 878.98C517.554 878.153 520.035 877.962 521.116 878.344C522.325 878.789 523.088 878.662 524.615 877.581C527.668 875.481 528.368 873.192 526.968 870.138C525.632 867.149 524.424 866.64 520.989 867.594C518.254 868.294 516.473 870.202 516.473 872.428C516.473 874.082 514.056 874.782 505.023 875.863C501.715 876.245 497.39 877.008 495.418 877.517C489.121 879.107 489.375 878.535 496.881 874.018C500.888 871.601 507.122 867.53 510.811 864.922C514.564 862.251 520.162 859.007 523.661 857.416C531.93 853.727 543.825 846.984 550.567 842.087C556.928 837.443 565.07 828.983 569.141 822.749C572.258 817.915 577.41 807.483 579.128 802.394C582.499 792.471 579.573 784.011 573.212 785.22C571.304 785.538 569.777 786.81 565.452 791.39C562.462 794.57 554.893 802.458 548.595 808.946C533.138 824.721 530.276 828.729 524.424 842.723C522.134 848.193 518.381 853.6 515.582 855.572C514.31 856.399 513.292 857.289 513.292 857.48C513.292 857.734 512.847 858.116 512.274 858.307C511.193 858.752 511.448 858.18 513.61 855.19C514.374 854.109 516.727 850.101 518.89 846.285C528.876 828.411 530.467 818.169 523.915 814.098C521.561 812.635 519.462 812.954 517.236 814.989C513.992 817.979 512.72 821.095 504.323 846.285C502.606 851.501 499.998 858.816 498.598 862.505L495.99 869.184L489.184 873.128C485.431 875.354 480.215 878.089 477.607 879.298L472.837 881.524L464.631 880.952C446.057 879.743 424.875 875.8 400.704 869.184C386.71 865.368 386.264 865.24 380.985 863.141C379.077 862.378 375.26 860.915 372.525 859.961C369.79 859.007 367.436 858.116 367.309 857.925C367.118 857.798 371.253 857.353 376.341 856.908C385.31 856.208 385.756 856.208 387.028 857.416C389.318 859.579 395.424 858.561 396.505 855.826C398.159 851.437 394.343 845.776 390.463 846.921L388.936 847.303L390.526 846.03C391.417 845.267 396.505 843.295 401.912 841.514C414.062 837.57 418.196 835.726 423.985 831.909C428.628 828.792 430.918 826.184 430.346 824.594C429.71 822.94 420.931 827.011 410.69 833.627C404.329 837.761 400.704 839.86 400.704 839.351C400.704 839.224 403.375 836.807 406.619 834.072C418.323 824.022 427.61 813.717 430.727 807.292C431.554 805.575 432.254 802.712 432.381 800.486C432.699 795.779 431.109 793.171 427.992 793.171C425.066 793.171 423.73 794.189 422.967 797.051C422.394 799.15 422.458 799.914 423.285 801.186C423.794 802.013 424.812 802.712 425.511 802.712C427.102 802.712 427.165 801.695 425.575 801.249C423.794 800.804 423.158 797.242 424.621 795.652C426.72 793.362 430.091 794.443 431.173 797.751C431.999 800.486 431.236 804.366 429.137 807.992C424.939 815.116 401.594 838.206 394.788 841.832C394.025 842.277 390.526 844.313 386.964 846.476C375.324 853.409 376.659 853.027 363.938 853.091L352.679 853.155L349.498 851.246C347.781 850.229 343.455 848.129 339.957 846.603C336.458 845.076 332.705 843.359 331.624 842.723C330.543 842.15 329.016 841.323 328.253 840.942C327.553 840.56 326.281 839.924 325.581 839.542C324.818 839.161 323.291 838.334 322.21 837.761C321.128 837.125 318.33 835.598 315.976 834.326C311.905 832.1 308.407 830.128 305.608 828.347C304.908 827.902 303.254 826.948 301.982 826.248C300.71 825.548 299.501 824.721 299.247 824.34C298.738 823.449 302.3 823.513 307.834 824.467C313.559 825.485 321.637 824.467 330.415 821.732C339.702 818.869 344.091 815.943 344.091 812.572C344.091 810.155 342.183 807.865 339.83 807.419C333.469 806.211 311.714 812.826 304.59 818.106C303.063 819.251 302.236 819.378 298.484 818.996C290.66 818.297 289.133 817.851 286.016 815.689C284.362 814.48 282.836 813.526 282.581 813.526C282.39 813.526 281.754 813.081 281.182 812.508C280.609 811.999 278.065 810.027 275.584 808.246C260.509 797.433 241.49 781.785 237.991 777.269L236.719 775.678L241.617 775.615C244.288 775.615 248.487 775.488 250.904 775.36C253.385 775.233 256.501 775.488 257.901 775.869C263.562 777.46 271.513 779.05 275.711 779.495C278.192 779.686 281.627 780.131 283.345 780.449C288.179 781.34 300.837 781.721 303.699 781.085C307.007 780.322 308.661 778.35 308.089 775.742C306.88 770.272 302.745 768.363 283.345 764.547C281.245 764.102 276.984 763.211 273.93 762.511C266.933 760.857 259.809 761.112 255.929 763.147C253.512 764.356 249.123 768.554 248.614 770.144C248.487 770.59 246.578 771.099 244.416 771.289C239.136 771.862 231.376 770.462 229.467 768.681C227.559 766.9 218.972 757.359 215.919 753.733C214.583 752.143 213.311 750.744 213.056 750.553C212.675 750.235 203.324 738.721 200.652 735.223C199.953 734.332 198.108 731.852 196.518 729.816C193.337 725.618 193.083 725.236 186.022 714.995L181.061 707.744L183.541 708.189C184.877 708.443 188.821 709.016 192.192 709.398L198.362 710.161L200.716 713.278C207.713 722.437 218.527 728.735 233.729 732.488C249.059 736.304 256.819 737.831 265.216 738.658C278.192 739.93 287.097 738.531 290.023 734.841C293.458 730.452 290.405 727.59 278.892 724.155C274.376 722.819 268.587 720.847 266.806 720.02C266.106 719.702 263.816 718.875 261.717 718.176C259.555 717.476 257.137 716.649 256.311 716.331C240.917 710.288 234.365 707.807 229.022 706.026C225.842 705.008 222.788 704.118 222.216 704.118C221.707 704.118 221.453 703.8 221.643 703.482C221.834 703.1 222.916 702.846 223.933 702.846C225.015 702.846 227.05 702.591 228.513 702.21C229.976 701.892 234.302 701.001 238.118 700.301C245.306 698.902 247.978 697.884 250.458 695.658C252.494 693.813 252.24 691.841 249.632 689.551C245.243 685.735 240.217 684.463 229.34 684.335C220.117 684.208 213.183 686.053 200.97 691.778C193.083 695.467 191.238 696.103 186.658 696.548C183.732 696.866 179.979 697.375 178.326 697.757C176.735 698.139 175.336 698.33 175.272 698.266C175.209 698.139 174.318 696.803 173.237 695.213C172.155 693.622 170.438 690.824 169.42 688.915C168.402 687.007 167.321 685.035 166.939 684.463C162.805 677.72 159.752 672.059 157.971 667.733C146.012 639.173 137.107 615.065 134.435 603.679C133.545 599.989 132.272 595.092 131.573 592.865C129.855 587.204 129.982 586.695 132.463 588.603C134.181 589.939 134.88 591.339 136.598 596.745C137.806 600.371 138.57 603.742 138.315 604.315C137.107 607.432 147.92 628.868 155.744 638.918C162.805 648.078 166.367 650.686 170.311 649.668C176.799 648.078 175.781 638.791 167.894 627.214C165.476 623.716 157.016 614.874 147.475 605.842C143.595 602.152 142.577 600.816 141.687 597.954C141.05 596.046 140.669 594.328 140.796 594.201C141.496 593.565 143.658 595.6 145.948 598.972C147.348 601.007 148.684 602.852 148.938 603.043C149.256 603.234 150.147 604.315 150.974 605.396C152.627 607.686 158.861 614.238 162.487 617.609C166.24 620.981 178.326 630.331 179.025 630.331C179.28 630.331 180.297 630.967 181.379 631.667C185.195 634.402 201.988 641.208 210.83 643.562C221.389 646.424 228.641 646.933 235.51 645.343C242.317 643.753 248.105 638.346 247.151 634.529C246.769 632.939 244.352 631.603 241.998 631.603C238.882 631.603 236.655 635.865 238.627 637.837C239.581 638.791 241.044 638.855 241.044 637.964C241.044 637.583 240.663 637.328 240.154 637.328C239.645 637.328 239.136 636.883 238.882 636.374C238.373 635.038 242.189 632.748 243.907 633.257C245.433 633.766 245.243 633.575 245.751 635.165C246.388 637.328 243.716 640.572 239.454 642.735C233.475 645.725 225.269 645.725 214.01 642.735C212.293 642.226 208.985 641.399 206.695 640.827C201.225 639.364 199.825 638.537 203.642 638.982C205.359 639.236 209.112 639.046 212.102 638.6C217.127 637.901 218.845 637.201 217.891 636.183C217.636 635.992 212.675 635.738 206.823 635.611C195.564 635.483 189.457 634.529 185.704 632.43C178.962 628.614 171.01 623.271 168.402 620.853C167.83 620.281 165.985 618.691 164.331 617.291C162.678 615.892 160.26 613.602 159.052 612.266C157.78 610.867 155.999 609.022 155.045 608.195C153.327 606.605 152.755 605.524 153.772 605.524C154.027 605.524 155.235 606.478 156.444 607.623C157.716 608.704 159.434 610.167 160.26 610.803C173.491 620.154 187.549 627.405 196.009 629.123C200.462 630.077 207.713 629.886 209.812 628.805C216.873 625.115 215.791 617.1 207.84 614.302C206.314 613.793 203.96 612.966 202.561 612.584C200.016 611.757 192.638 608.195 192.065 607.495C191.62 606.987 190.157 606.096 183.923 602.597C172.919 596.491 162.741 593.183 152.627 592.547C147.793 592.293 146.712 591.975 142.513 589.685C138.315 587.395 130.3 581.352 128.583 579.253C127.693 578.171 124.194 556.735 123.049 545.413C122.477 540.133 121.713 534.281 121.332 532.373C120.505 527.984 119.869 496.752 120.695 496.752C121.014 496.752 122.222 499.55 123.367 502.922C125.784 510.173 127.756 515.071 130.746 521.114L132.845 525.376L131.573 527.602C130.555 529.32 130.428 530.019 131 531.037C132.4 533.772 135.262 534.281 140.033 532.627C143.595 531.419 144.931 530.083 145.44 527.157C145.758 525.185 145.503 524.74 143.658 523.404C142.068 522.323 140.732 521.941 138.761 522.004L136.089 522.068L133.608 516.916C129.982 509.346 127.247 502.222 126.166 497.642C125.657 495.479 125.085 493.126 124.83 492.49C124.512 491.726 125.403 492.108 127.502 493.762C131.763 496.942 139.079 501.84 139.715 501.84C139.969 501.904 141.241 503.494 142.45 505.466C147.475 513.417 152.373 518.76 161.215 526.012C174.064 536.507 184.432 541.278 192.701 540.515C196.963 540.07 197.599 539.433 196.581 536.253C195.182 531.546 189.394 525.948 178.58 518.824C174.191 515.962 169.993 513.226 169.166 512.781C168.402 512.272 166.812 511.382 165.731 510.746C164.65 510.11 159.815 507.311 154.981 504.448C150.147 501.649 146.076 499.296 145.885 499.296C145.694 499.296 144.295 498.278 142.832 497.07C141.114 495.67 139.715 495.034 138.888 495.225C136.725 495.734 122.985 485.111 121.077 481.358C120.505 480.277 120.25 478.75 120.441 477.796C120.632 476.842 121.268 471.499 121.777 465.901C123.812 443.383 126.102 430.153 132.272 405.154C132.972 402.228 133.735 399.684 133.863 399.557C133.99 399.429 134.817 400.702 135.644 402.483C136.661 404.582 137.361 407.444 137.616 410.688C138.506 420.675 142.45 431.17 151.991 448.727C156.253 456.614 158.098 458.586 160.96 458.586C167.894 458.586 167.512 449.681 159.942 434.096C150.274 414.187 145.376 406.49 142.45 406.426C141.877 406.363 140.224 403.755 138.442 400.002L135.326 393.705L137.043 387.789C139.142 380.347 143.404 368.134 145.694 362.854C146.012 362.154 146.966 359.546 147.857 357.129C152.182 345.425 175.463 299.308 176.544 300.39C176.863 300.644 173.237 310.822 171.201 315.529C170.502 317.183 169.42 320.299 168.784 322.526C168.148 324.879 167.067 327.233 166.176 328.06C164.586 329.65 164.586 331.113 166.049 335.057C167.448 338.682 173.11 338.364 175.018 334.548C176.544 331.367 176.417 330.286 174.255 328.06C172.41 326.279 172.346 326.024 173.046 323.543C173.428 322.144 174.445 319.472 175.336 317.755C176.226 315.974 178.007 311.267 179.343 307.259L181.697 300.008L182.078 312.03C182.333 318.646 182.778 326.024 183.096 328.505C183.541 331.558 183.541 334.866 183.033 339C182.587 342.308 182.269 351.213 182.269 358.719C182.333 374.813 183.287 380.601 187.931 392.178C192.129 402.61 196.454 409.416 204.087 417.431C208.985 422.583 213.247 424.364 217.382 422.901C221.262 421.565 221.58 418.512 218.845 409.543C217.891 406.236 215.664 398.666 214.01 392.75C209.558 376.721 207.649 370.233 206.059 366.353C204.66 362.79 200.907 356.175 198.999 353.949C193.337 347.206 189.076 338.746 188.567 333.403C188.249 330.286 188.312 329.968 188.948 331.367C190.666 334.93 197.408 346.506 199.38 349.369C207.268 360.5 211.911 364.19 216.936 363.426C220.499 362.854 223.234 360.437 223.234 357.829C223.234 354.394 219.035 348.097 211.021 339.573C209.558 337.919 206.123 334.103 203.515 330.986C200.907 327.932 198.172 324.816 197.472 324.052C196.772 323.289 193.973 319.981 191.238 316.61L186.34 310.504V305.478C186.34 302.68 186.658 296.764 186.976 292.311C187.676 284.296 187.676 284.106 190.348 280.098C192.892 276.154 201.797 263.942 204.215 261.143C219.29 243.141 218.272 244.286 228.004 234.172C237.546 224.249 250.077 212.863 259.3 205.803C260.89 204.594 260.89 204.594 258.982 208.347C256.056 214.263 253.13 220.56 253.13 221.196C253.13 221.45 252.176 222.087 250.967 222.468C249.504 222.977 248.487 223.995 247.787 225.458C246.833 227.43 246.833 227.811 247.787 230.165C248.614 232.328 249.25 232.9 251.349 233.409C254.466 234.3 255.802 233.854 257.964 231.31L259.682 229.274L259.237 234.045C258.982 236.653 258.346 240.215 257.837 241.996C256.311 247.149 254.402 259.362 254.402 263.687C254.402 269.03 255.484 273.737 257.01 275.137C257.646 275.709 258.346 276.091 258.537 275.9C259.682 274.819 260.254 266.295 259.873 255.863C259.682 249.502 259.745 244.159 260.064 243.968C260.318 243.777 260.763 245.24 261.018 247.276C262.353 259.616 268.714 279.335 273.358 285.759C275.711 289.067 279.973 291.93 282.518 291.93C284.744 291.93 286.779 290.149 287.225 287.731C287.988 283.851 282.2 280.098 279.528 282.77C278.765 283.597 278.637 283.978 279.21 284.169C279.592 284.296 280.291 284.106 280.673 283.724C283.408 280.989 287.797 286.523 285.253 289.385C283.599 291.23 281.055 290.975 277.556 288.558C274.058 286.205 271.195 281.307 269.096 273.865C268.396 271.384 267.124 267.313 266.297 264.896C264.771 260.507 262.799 251.22 261.399 241.551C260.572 235.826 260.382 221.896 261.081 216.934C261.654 212.927 265.343 204.976 269.541 198.742C272.276 194.671 273.421 193.717 283.663 186.847C293.395 180.232 306.816 171.962 319.793 164.457C323.546 162.294 323.8 162.294 323.418 163.63C323.164 164.393 322.21 166.047 321.256 167.255C315.976 173.998 314.831 175.779 313.368 179.786C310.951 186.211 308.915 195.625 308.852 200.523C308.788 204.721 308.852 204.976 310.951 206.82C312.605 208.283 313.432 208.601 314.768 208.283C318.457 207.393 319.475 205.548 322.719 194.035C326.09 182.394 326.344 180.741 326.344 173.998L326.281 167.573L329.016 164.011C334.677 156.505 333.278 157.46 351.725 149.127C355.414 147.473 359.485 145.755 360.757 145.247C362.029 144.801 366.609 142.957 370.807 141.176C377.804 138.249 393.961 132.906 395.997 132.906C396.505 132.906 395.933 134.306 394.661 136.468C393.452 138.44 391.926 141.684 391.226 143.784C390.208 146.773 389.19 148.236 386.137 151.099C377.868 158.732 360.375 182.585 358.722 188.501C357.64 192.381 358.785 194.226 362.538 194.862C367.245 195.625 370.171 193.399 382.575 179.786C385.756 176.288 389.381 172.28 390.717 170.881C394.216 167.065 396.824 162.93 397.587 160.004C398.541 156.569 398.032 150.335 396.633 147.409C395.551 145.183 395.551 145.056 396.887 142.066C398.477 138.631 402.93 132.27 404.457 131.316C408.464 128.835 436.643 123.492 463.677 120.184C466.285 119.866 471.883 119.421 476.081 119.23L483.714 118.785L481.742 120.948C480.661 122.093 478.243 125.019 476.335 127.5C472.264 132.779 472.201 132.906 469.72 132.906C467.303 132.906 461.005 134.497 457.634 135.896C453.436 137.677 445.167 143.275 440.332 147.6C435.562 151.925 425.193 163.184 418.769 171.072C410.69 180.931 405.156 191.554 405.156 197.088C405.156 199.06 405.538 200.014 406.874 201.286C410.118 204.212 412.471 203.195 421.122 194.989C424.43 191.809 429.455 187.356 432.127 185.066C434.862 182.776 438.297 179.914 439.696 178.641C441.159 177.433 443.004 175.97 443.767 175.461C444.531 174.952 446.82 173.107 448.792 171.326C450.764 169.609 453.245 167.637 454.199 166.937C455.153 166.238 458.652 163.375 461.832 160.576C465.076 157.778 467.493 156.06 467.239 156.76C460.242 173.489 458.143 181.631 459.797 185.829C460.687 188.246 463.613 188.183 467.812 185.766C473.473 182.522 478.625 175.97 482.06 167.891C485.686 159.368 486.831 154.152 487.848 141.875C488.294 136.087 488.93 132.461 489.757 130.68C490.393 129.217 491.665 125.909 492.556 123.301L494.146 118.594L498.153 118.276C505.468 117.704 524.297 118.213 533.329 119.23ZM486.449 126.863C484.859 130.68 483.841 132.143 482.124 133.224C480.915 133.988 478.88 136.023 477.671 137.613C475.508 140.539 475.445 140.603 474.936 139.013C474.491 137.741 474.872 136.914 476.844 134.369C478.18 132.588 480.088 130.108 481.106 128.708C483.968 124.955 488.103 120.693 488.357 121.393C488.485 121.711 487.594 124.192 486.449 126.863ZM830.194 658.51C832.039 659.909 838.845 678.674 837.509 678.674C837.318 678.674 835.537 676.639 833.629 674.094C830.703 670.405 830.067 669.069 830.067 667.097C830.067 665.762 829.494 663.217 828.794 661.372C828.095 659.528 827.522 657.938 827.522 657.81C827.522 657.365 829.24 657.81 830.194 658.51ZM193.655 701.319C195.5 702.528 202.115 704.118 203.324 703.673C204.533 703.227 204.342 704.118 203.07 705.136C201.288 706.472 196.645 706.153 185.704 703.991C180.743 702.973 179.852 702.401 182.524 701.892C184.432 701.574 190.093 700.619 191.62 700.365C191.874 700.365 192.828 700.747 193.655 701.319Z" fill="black"/>
</svg>
