<svg id="Layer_1" data-name="Layer 1" xmlns="http://www.w3.org/2000/svg" viewBox="0 0 500 500"><g id="jGRSEJ"><path d="M345.27,117.63c.87.64,2.18,1.09,2.54,2a60.18,60.18,0,0,1,4.33,28.89c-.26,3-.36,6-.57,8.94a5.12,5.12,0,0,1-.5,2.11,27.45,27.45,0,0,1-2.12,2.83c-.84-.81-2.1-1.47-2.42-2.45-.92-2.81-3.15-4.67-4.66-7-2.15-3.38-4.25-6.64-3.87-10.91,0-.51-1.35-1-1.47-1.68-.93-4.83-1.91-9.67-2.47-14.56a23.55,23.55,0,0,1,.47-8c.37-1.52,1.88-3,3.2-4,3.3-2.66,2.5-6,2.12-9.44-.47-4.37-4.61-4.77-7.05-7-1.18-1.07-2.9-1.54-4.38-2.28a56.22,56.22,0,0,0,.56,7.91c.17.89.27,2.51,1.95,3,.33.1.38,3-.29,4-.91,1.39-2.68,1.2-3.68-.28-.85-1.27-3-2.4-1-4.39-2.31-2,1.42-2.93.85-4.87s-.19-4-.48-6a3.4,3.4,0,0,0-1.47-2.06c-3.05-1.83-6.19-3.53-9.31-5.23a10,10,0,0,0-1.72-.59c-.22.81-.86,1.81-.6,2.4,1.16,2.63,2.58,5.14,3.9,7.69.11.2.19.58.32.61,1.67.29,2.39,1.43,1.49,2.71a3.37,3.37,0,0,1-3.06.94c-1.06-.36-2.7-2.1-2.52-2.48,1.85-3.83-.69-7-1.42-10.32-.41-1.93-.84-3.24,2-3,2.53.23,5.09.18,7.64.19,2.86,0,5.72-.07,8.58-.13,3.26-.06,6.53-.16,9.79-.22a2.83,2.83,0,0,1,.87.24,2.57,2.57,0,0,1-.77.49c-2.17.5-4.35,1-6.52,1.43-.53.12-1,.3-1.56.45.38.36.71.89,1.17,1,3.21,1,6.41,2.09,9.69,2.75,6.84,1.38,13.48-.49,20.16-1.6,2.28-.39,4.61-.48,6.92-.71a7.38,7.38,0,0,0,.78-.19,3.47,3.47,0,0,0-.74-.43c-3.09-1-6.19-1.86-9.28-2.81a4.83,4.83,0,0,1-.9-.47,3.84,3.84,0,0,1,.92-.18c2.31.17,4.62.46,6.93.52,1.31,0,2.71-.65,3.92-.37a15.07,15.07,0,0,1,4.93,2.2c1,.72,1.67,2,2.49,3.09a17.46,17.46,0,0,1-4.33.77,44.53,44.53,0,0,0-14.16.86c-4.51,1.09-9.39.66-14.11.81a49,49,0,0,1-7.57-.13c-3.86-.48-7.14-2.34-10.43-4.47-2-1.3-4.88-1.22-7.37-1.73-.19,0-.42.11-.63.17a4.12,4.12,0,0,0,.75.85c4.46,2.83,9.34,5.18,13.32,8.58,4.66,4,9.95,1.42,14.8,2.63.3.07.88-.43,1.14-.8,1.45-2,3.57-1.42,5.41-1.24,1.68.17,2.21,1.56,1.63,3.13-.84,2.29-4.5,2.69-6.64,1.85-2.64-1-5.69-1-8.57-1.39,0,0-.36.85-.22,1a23.65,23.65,0,0,0,3.83,4,23.35,23.35,0,0,0,5.9,3,24.57,24.57,0,0,0,6.43,1.12,5.28,5.28,0,0,0,3-1.29,45.8,45.8,0,0,1,5.32-2.9c3-1.68,6-1.79,9.09-2.17,5.18-.66,10.24-.23,15,2.26,1,.54,2.36.47,3.44.94,5.94,2.56,10.83,6.62,15.38,11.11.4.4.84,1.39.65,1.61a3.14,3.14,0,0,1-1.77.82,2.91,2.91,0,0,1-1.68-.14c-9-4-18.58-1.64-27.82-2.91-4.17-.58-8.23-1-12.11-3.34-3.16-1.93-6.92-4-11.13-2.53a6.21,6.21,0,0,1-.85.21,3,3,0,0,0,.47.75c3.35,3.18,6.7,6.37,10.09,9.51,1.34,1.23,8.11,1.28,10,.11,2.88-1.8,7.3-.44,9.12,1.52,1.25,1.35.83,3-.84,4.11-2.51,1.59-6.22.59-8.6-1.29-1.53-1.21-3.95-1.3-6-1.89,0,.53-.29,1.25-.05,1.55,2.81,3.35,5.73,6.63,8.54,10a8.39,8.39,0,0,1,.8,2c.14.3.44.72.69.73a21.27,21.27,0,0,0,3.91,0c2-.27,4-1,6-1.07a14.15,14.15,0,0,1,5.51,1.13,3,3,0,0,1,.8,2.88c-.76,1.1-2,2.86-3.73.89a1.17,1.17,0,0,0-.75-.26,9.09,9.09,0,0,1-2.69-.19c-.93-.4-1.59-1.53-2.53-1.81a20.87,20.87,0,0,0-4.21-.42,28.73,28.73,0,0,0,1.29,3.14c1.73,3.16,3.42,6.35,5.35,9.39a12.63,12.63,0,0,0,3.31,3.29c1.71,1.25,2.42,3,1.41,4.59a5.4,5.4,0,0,1-4,1.89,4.15,4.15,0,0,1-4.53-3.57,3,3,0,0,1,2.4-3.6.78.78,0,0,0,.2-.69c-.69-.9-1.53-1.68-2.15-2.61-3.36-5.11-6.67-10.26-10-15.38a3.76,3.76,0,0,0-.88-.74,4,4,0,0,0-.29,1.23c.35,3.07.39,6.25,1.3,9.16.46,1.47,2.29,2.68.9,4.34-.93,1.09-2.46,2.47-3.63,2.39a5.29,5.29,0,0,1-5.17-4.39c-.26-1.75.24-3.69,2.62-4.22,1.32-.29,1.85-1,1.6-2.64-.47-3.12-.45-6.32-.69-9.48a2.86,2.86,0,0,0-.63-1.45c-2.29-2.77-4.58-5.55-7-8.22a8.19,8.19,0,0,0-2.44-1.28,18.59,18.59,0,0,0,.25,2.12c.55,2.38.54,5.23,1.91,7s2.2,2.79.86,4.29c-.93,1-2.69,2.13-3.91,2-1.48-.21-3.53-1.47-3.95-2.73s.45-3.54,1.53-4.55a3.85,3.85,0,0,0,1.39-4.44c-.38-1.77-.91-3.51-1.31-5.28a9.72,9.72,0,0,0-4.16-6.09c-3.23-2.28-6.12-5.06-9.19-7.57a5.3,5.3,0,0,0-1.65-.59,5.13,5.13,0,0,1,.1,1.55c-1,4.07,2.15,6.45,3.68,9.51.29.57-.19,1.53-.32,2.31-.67-1-1.33-2-2-3a3.12,3.12,0,0,0-.68-.57,5,5,0,0,0-.24.84,23.63,23.63,0,0,0,.37,8.2c1.37,5.66,2.27,11.42,4.25,17,1.07,3,1.46,6.27,2.19,9.4a4.45,4.45,0,0,0,.59,1.06,3.84,3.84,0,0,0,.52-1.16c.06-.95,0-1.91,0-2.86,0-4.37.63-8.85-.16-13.06C349.1,128.09,346.94,122.91,345.27,117.63Zm-5.27.56.66-.17-.75-2.54c-.79.61-2.15,1.13-2.25,1.84a73.15,73.15,0,0,0-.77,9.69c0,3.44.26,6.88.44,10.32,0,.26.27.52.43.77a11.94,11.94,0,0,1,1.62,2.7c.87,3,1.17,6.15,2.4,8.94,1,2.34,3.06,4.24,4.66,6.32a9.19,9.19,0,0,0,1,1,4.15,4.15,0,0,0,.25-1.3c-.76-5.16-1.43-10.35-2.41-15.47-.94-5-2.19-9.88-3.36-14.8C341.34,123,340.64,120.61,340,118.19Zm50.48-2.69.06-.52c1.21,0,2.42.15,3.63.14a9.45,9.45,0,0,0,1.72-.32,6.79,6.79,0,0,0-1.52-1c-3.2-1.11-6.69-1.68-9.57-3.33a11.82,11.82,0,0,0-8.4-1.4,26.49,26.49,0,0,1-3.81.61,8,8,0,0,1-2.38-.7c-.3,2-1.86,1.18-3,1.31a1.86,1.86,0,0,0-.54.28c.16.15.31.42.49.44,1.9.29,3,2.06,5.15,2.23C378.39,113.69,384.42,114.7,390.48,115.5ZM401.59,114l-.41-.61c-1.55-2.11-12.7-7.6-15.65-7.81-1.31-.1-2.61-.72-3.92-.71-3.07,0-6.21.77-9.19.33-2.38-.36-3.64,1.42-5.56,1.69-.35,0-.89.95-.81,1.35.63,3.21,1.29-.18,1.77-.24,7.54-1,15-1.24,22.25,1.47,3.51,1.31,6.95,2.83,10.42,4.25A9,9,0,0,0,401.59,114Z"/><path d="M104.32,163.68c-5.77-.05-10.69,2.18-15.52,5.15a12.05,12.05,0,0,0-5.1,5.75c-.59,1.36-2,2.34-2.77,3.65-.37.62,0,1.65-.2,2.4-.45,1.38-1.12,2.68-1.68,4a4.22,4.22,0,0,0-.18.9,2.89,2.89,0,0,0,1-.28c1.18-1,2.26-2.11,3.48-3,3.72-2.79,7.39-5.67,11.28-8.2,1.88-1.21,4.2-1.48,5.8.9,1.23,1.84,1.29,5.39-.28,6.14-2.07,1-4.17,3-6.84,1.25-.12-.08-.41,0-.6.09-1.14.45-2.25,1-3.42,1.37-2.85.89-6.66.87-8.35,2.77s-3.26.7-4.75,1.21c-.14.05-1-1.08-.87-1.32,4.16-7.76,2.14-15.92,1.62-24,0-.44-.54-.87-.86-1.28A11,11,0,0,1,78.52,145c1.15-.78,3.34-1.17,4.43-.58a5,5,0,0,1,2,4,69.49,69.49,0,0,1-2.12,10.73c-.28,1.06-1.78,1.77-2.17,2.84a17.86,17.86,0,0,0-.89,5c-.14,2.34,0,4.7,0,7.05a1.16,1.16,0,0,0,.54.83.92.92,0,0,0,.82-.31c1.43-2.79,2.78-5.61,4.21-8.4,2-3.93,4.11-7.8,6.06-11.75,1-2.14,2.34-4.34,2.68-6.63a132.47,132.47,0,0,0,1.59-16.85c.07-3.93-1.31-7.88-1.26-11.8a40.44,40.44,0,0,1,1.94-10.57c.33-1.12,2.28-2.64,3.27-2.5a5.68,5.68,0,0,1,3.69,2.85,12.66,12.66,0,0,1-.27,12.16,31.42,31.42,0,0,0-4.69,14.29,3.6,3.6,0,0,1-.85,1.56c-.16.23-.69.37-.68.54.11,1.82.27,3.65.46,5.47a4.82,4.82,0,0,0,.32,1,5.85,5.85,0,0,0,.85-.79c2.67-3.75,5.27-7.56,8-11.24.65-.88,1.9-1.29,2.67-2.11.41-.43.35-1.28.57-1.91,1.36-3.93,3.1-7.78,4-11.8,1.2-5.2,1.51-10.61,2.72-15.8.74-3.15,2.56-6,6.08-7a3.59,3.59,0,0,1,2.81.48c.67.57,2,1.68.26,2.85-.16.12.91,1.56.72,2.17a16.9,16.9,0,0,1-2.08,4.5c-2.16,3.22-4.72,6.18-6.66,9.51-1.26,2.16-1.73,4.78-2.53,7.21a1.78,1.78,0,0,0,0,.65c.19-.16.39-.29.56-.46,6.39-6.28,12.85-12.49,19.1-18.9,1.6-1.64,2.49-4,3.75-5.92,2.29-3.56,5.3-6.23,9.67-6.56,1.15-.09,3.18.79,3.41,1.62a7,7,0,0,1-.64,4.7,6.26,6.26,0,0,1-3.39,2.6c-5.84,1.84-10.25,5.77-14.8,9.56-2.34,2-4.84,3.7-7.13,5.7-.68.6-.9,1.72-1.33,2.61.33.06.74.27,1,.15,3.11-1.51,6.18-3.08,9.28-4.61,1.92-1,4.11-2.88,5.75-2.5,2,.46,3.6-2,6,.35,1.78,1.73,4.18,4.18,2,6.41-2.37,2.47-5.33,4.44-9,3.86-3.09-.49-6.08-1.85-9.15-2-1.76-.08-3.86-.85-5.76,1a10.11,10.11,0,0,1-6,2.85c-2.27.09-.67,1.46-1.18,2.08-3.46,4.16-6.3,8.88-10.06,12.71-1.38,1.4-1.83,3-2.85,4.39-.17.24.18.84.3,1.28a5,5,0,0,0,1.19-.37c.57-.37,1-1.09,1.61-1.23,4.1-.91,7.4-3.25,10.8-5.53a30.56,30.56,0,0,1,8.08-4.26c2.28-.68,4.8-2.16,7.45-.51.52.32,1.65-.51,2.39-.33,3.14.73,4.11,4.7,1.91,7.18a13.56,13.56,0,0,1-9.69,4.37c-4.66.33-9.34.59-14,.48-1.67,0-3.3,2.36-5,.1-4,3.76-10.86,3.53-13.2,10.11-1.62,4.56-4.88,8.53-7.35,12.8a6.29,6.29,0,0,0-.41,1.88,10.43,10.43,0,0,1,1.31-.93c2.3-1.08,4.61-2.13,6.93-3.18.24-.1.67,0,.8-.13a23.68,23.68,0,0,1,12.61-8,5.58,5.58,0,0,1,4.14.69c.7.48.81,2.34.6,3.47-.65,3.36-4.2,5.69-8.12,5.59C105.94,163.8,105.13,163.73,104.32,163.68Zm27.21-32.17c-3.35,1.36-6.6,2.64-9.79,4a2.4,2.4,0,0,0-1,1.49c0,.19.62.85,1,.84a71.13,71.13,0,0,0,10.45-.76c1.54-.29,2.79-2.07,4.17-3.18ZM76,153.18a34.11,34.11,0,0,0,.68,4.7c.2.66,1,1.16,1.57,1.68.06.06.56-.17.65-.37,1.38-3.07,2.91-6.1,4-9.27.61-1.74-1-2.86-2.77-2.21C77.79,148.58,76,151.28,76,153.18Zm26.7-39.67-.61-.28a33.66,33.66,0,0,0-.53-3.34c-.14-.52-.65-1.35-1-1.34a2.13,2.13,0,0,0-1.67.91,24.34,24.34,0,0,0-1.6,5.56,31.79,31.79,0,0,0,.14,5.68,6.27,6.27,0,0,0,.31,1.26c.46-.17,1.19-.22,1.34-.54C100.39,118.81,101.54,116.16,102.73,113.51Zm37.36,2.42a41.46,41.46,0,0,0,5-1.15c.69-.25,1.13-1.16,1.69-1.77-.6-.48-1.12-1.2-1.8-1.4-3.59-1-6.8.2-9.84,2-.14.07,0,1,.13,1.09C136.82,115.16,138.44,115.52,140.09,115.93Zm-29,39.46c-2.41,1.36-4.83,2.69-7.22,4.1-.34.2-.51.71-.76,1.08.46.12,1,.42,1.38.32,2.61-.61,5.24-1.22,7.79-2A2.32,2.32,0,0,0,113.3,157C113.29,156.55,112.24,156.18,111.05,155.39Zm6.7-49.54c.73-.27,1-.28,1.15-.43,1.55-2.22,3.15-4.42,4.55-6.73.25-.42-.33-1.34-.52-2-.76.22-2,.24-2.19.69-.76,2-3.78,2.89-2.58,5.72.16.38-.29,1-.39,1.5A7.22,7.22,0,0,0,117.75,105.85Zm-25.55,75c1.6-.49,3.78-1,5.84-1.88.57-.22.78-1.32,1.15-2-.75-.33-1.73-1.14-2.19-.91a66.41,66.41,0,0,0-6.06,3.71c-.27.18-.36.66-.53,1ZM150.71,93c-.35-.31-.5-.47-.67-.59-2.17-1.52-8,.6-8.68,3.19-.08.35.24.83.43,1.21.05.1.4.14.54.07l7.31-3.68A4.85,4.85,0,0,1,150.71,93Z"/><path d="M202.48,438.67c1.58-.33,3.17-.62,4.73-1a8.77,8.77,0,0,0,1.62-.75,8.35,8.35,0,0,0-1.54-.67c-4.26-1-8.6-1.74-12.79-3-6.51-1.89-12.92-4.09-19.38-6.13a.91.91,0,0,0-.67.13c-3,1.72-6,3.46-9,5.19l1.32-2.71a10.6,10.6,0,0,0-2.2.29c-3.19,1.1-6.29,2.54-9.56,3.36-4.8,1.21-9.72,2-14.59,2.95a4,4,0,0,1-1.51-.39c.37-.37.69-1,1.13-1.07a50.23,50.23,0,0,1,7.29-1.76c3.68-.44,7.06-2.94,11-1.68.95-2.55,3.65-1.93,5.4-3a2.36,2.36,0,0,0-.34-.64c-1.41-1.86-3.25.27-5.29-.68-2.63-1.22-6.4.23-9.65,0a51.39,51.39,0,0,0-13.21.86c-9.42,1.88-17.45,6.89-25.87,11-.34.17-.45.82-.67,1.25a3.89,3.89,0,0,0,1.19-.08c3.36-1.27,7-1.17,10.44-2.26,2.73-.86,5.73-.86,8.6-1.3,1.75-.26,3.48-.65,5.23-.91.29,0,.64.29,1,.45-.22.3-.39.71-.68.87a5.29,5.29,0,0,1-1.61.55c-4.65.88-9.32,1.7-14,2.61-3.48.69-7,1.47-10.41,2.28a5.58,5.58,0,0,0-1.52,1,7,7,0,0,0,1.49.44c6.78.42,13.55,1.1,20.33,1.11a49.93,49.93,0,0,0,13.46-1.68c4.66-1.32,9-3.73,13.46-5.74,2.81-1.27,5.56-2.68,8.34-4-1.21,3.85-4.6,4.94-7.88,6.06s-6.75,1.94-10.07,3.08c-2.9,1-5.64,2.54-8.59,3.33-6.42,1.74-13,1.59-19.57.88-4.75-.5-9.51-.9-14.26-1.35a3.37,3.37,0,0,1-1-.13c-.79-.33-1.55-.72-2.32-1.09.6-.49,1.16-1,1.8-1.47,5.22-3.48,10.26-7.31,15.75-10.29a89.79,89.79,0,0,1,14.39-5.75c9.1-3.08,18.46-1.44,27.73-1.08,2.27.09,4.54.23,6.81.29a5.61,5.61,0,0,0,1.5-.38,7.78,7.78,0,0,0-1.16-.77c-3.24-1.46-6.77-2.47-9.65-4.44-3.73-2.54-7.7-2.49-11.72-2.25-6.83.42-12.86-2-18.26-5.59-2.12-1.41-4.57-2.57-6.45-4.48-2.16-2.19-4.59-4.11-6.77-6.28s-4.14-4.35-6.1-6.62a9.24,9.24,0,0,1-1.09-2.38c1,.35,2.4.43,3.07,1.14,1.19,1.26,1.82,3,3,4.35.73.84,2.14,1.08,2.91,1.9a55.43,55.43,0,0,0,20.85,14.43,54.11,54.11,0,0,0,8.93,2c.53.11,1.17-.29,1.76-.46-.36-.57-.6-1.35-1.12-1.67-3-1.87-6.28-3.37-9.11-5.47-6.37-4.72-12.54-9.7-18.76-14.62a5.14,5.14,0,0,1-.94-1.64c.79,0,1.86-.23,2.34.18,1.86,1.59,3.44,3.5,5.3,5.1a62.71,62.71,0,0,0,5.43,4c3.06,2.11,6.27,4,9.2,6.29,1.57,1.22,3,2.58,4.9,3.24.71.24,1.44.4,2.17.6a11.61,11.61,0,0,0-.42-2.08,47.93,47.93,0,0,0-9.52-15.13,26.89,26.89,0,0,1-1.66-2.16c1.34.27,3.13.09,3.94.9a27.07,27.07,0,0,1,5,6.53,95.89,95.89,0,0,1,5.44,12.43,3.93,3.93,0,0,0,2.52,2.83,98,98,0,0,1,12.08,5.71c3.3,1.94,7,2.38,10.41,4a4.19,4.19,0,0,0,1.39.14,3.47,3.47,0,0,0-.39-1.3c-1.8-2.15-3.36-4.67-5.56-6.28a56.79,56.79,0,0,1-15-16.82c-1.29-2.12-2.39-4.36-3.48-6.59-.2-.42.06-1.07.1-1.61.65.27,1.64.37,1.9.85,1.55,2.91,2.5,6.26,4.49,8.8,2.86,3.65,6.45,6.73,9.74,10a2.67,2.67,0,0,0,.77.4,5.61,5.61,0,0,0-.25-.89c-2.53-5.62-5.09-11.23-7.62-16.85-.33-.74-.56-1.52-.84-2.28,1.21-.31,1.41.5,2.15,1.29,4.41,4.62,5.29,10.81,7.89,16.21a25.83,25.83,0,0,0,2.84,3.92,25.72,25.72,0,0,0,.07-4.72c-.72-4.38-1.65-8.72-2.52-13.08-.22-1.08-.57-2.14-.78-3.22,0-.12.48-.53.62-.48.67.26,1.67.48,1.86,1a27.63,27.63,0,0,1,1.3,4.92,79.48,79.48,0,0,1,1.63,9.86,68,68,0,0,1-.53,9c0,.4-.34,1-.18,1.15,3.13,2.85,4.35,7.54,8.65,9.21,1.8.7,3.78.91,5.61,1.53a7.43,7.43,0,0,1,2,1.51c.16.13.37.48.4.46,3.18-1.8,5.84.94,8.83,1A31,31,0,0,1,209.2,434a49.45,49.45,0,0,0,5.2,1.22,8.84,8.84,0,0,0,1.36.15c-.3-.42-.56-.87-.89-1.25-3.5-4-8.58-5.6-12.81-8.49A32.73,32.73,0,0,1,195.5,419a46.39,46.39,0,0,1-5.26-7.9,85.14,85.14,0,0,1-3.28-8.49c-1-2.69-2.19-5.35-3.14-8.07-.16-.45.46-1.16.71-1.75.62.4,1.66.69,1.77,1.2.35,1.52,0,3.26.54,4.66,1.33,3.39,3.09,6.61,4.56,10,3.4,7.68,8.92,13.53,15.67,18.32a5.86,5.86,0,0,0,2.25.46,12,12,0,0,0-.67-1.66c-3.19-5.2-6.38-10.4-9.62-15.58-3.14-5-6.38-10-9.5-15a5.76,5.76,0,0,1-.26-2.28c1,0,1.58-.49,1.85,1.47.41,2.91,1.71,6.44,3.87,8.18,3.31,2.7,5.08,6.24,7.22,9.55,2.72,4.22,5.54,8.36,8.17,12.64.59,1,1.29,1.89,2,2.83a19.39,19.39,0,0,0,.45-3.76A42.13,42.13,0,0,0,201.55,398c-1.29-1.44-2.54-2.92-3.76-4.41-.08-.1.31-.74.35-.73a6.22,6.22,0,0,1,2.57.95,49.1,49.1,0,0,1,5.2,5.78c4.43,6,8.77,12.17,9.18,20,.19,3.54.06,7.1,0,10.65,0,1.89,3.12,5.34,5,5.58,5.86.74,11.71,1.51,17.55,2.36.59.08,1.08.76,1.62,1.17-.62.47-1.29,1.4-1.84,1.33-3.12-.35-6.19-1-9.3-1.43-4.93-.62-9.88-1.61-14.8-1.47-3.6.1-5.92,3.27-7.93,6.2a29,29,0,0,1-2.51,2.81c.43-1.21.84-2.43,1.3-3.63a12.44,12.44,0,0,1,.71-1.35,10.18,10.18,0,0,0-1.54.48c-3.3,1.69-6.58,3.43-9.9,5.08a4.87,4.87,0,0,1-1.84.06c.35-.56.58-1.41,1.08-1.62,2-.85,4.2-1.33,6.14-2.3a37.71,37.71,0,0,0,4.77-3.36l-1.24-1.53Z"/><path d="M280.65,436.89c-4.64,1-9.3,2-13.93,3.11-5.06,1.21-10.15,2.28-15.18.22-1.29-.52-2.14-2.11-3.19-3.21,1.1-1,2-2.43,3.33-3,4.79-2.15,9.76-1,14.57-.06a98.66,98.66,0,0,0,18,1.42,5.1,5.1,0,0,0,.67-.08c-.21-.19-.38-.47-.62-.55-1.84-.61-3.84-.91-5.51-1.82-2.75-1.5-5.94-2.11-8.45-4a18.13,18.13,0,0,1-4.91-5c-1.33-2.28-.22-3.71,2.39-3.28a24.06,24.06,0,0,1,7.82,2.29c4.52,2.55,8.78,5.59,13.05,8.57,4.1,2.85,8.47,2.94,13.07,1.78,1.33-.33,2.71-.47,4.05-.74.73-.15,1.43-.39,2.15-.59-.7-.35-1.39-.75-2.12-1-4.31-1.76-8.85-3.1-12.88-5.35-2.95-1.65-5.23-4.5-7.81-6.82-.12-.1-.22-.26-.35-.29a2.23,2.23,0,0,1-1.66-3.35,4.45,4.45,0,0,1,3.37-2.08c2.07.14,4.06,1.26,6.13,1.74,7,1.63,10.08,8.13,15.15,12.13,1.82,1.44,3.53,3,5.38,4.43.2.14,1.07-.84,1.54-.77,4.5.68,8.09-2.21,12.19-3a30.13,30.13,0,0,0,3.19-1c-1-.54-2-1.18-3.05-1.62-3.64-1.49-7.37-2.79-11-4.4-4.68-2.1-9.3-4.44-12.43-8.71-2.09-2.83-1.28-4.74,2.23-4.64a22.46,22.46,0,0,1,9,2.16c2.41,1.16,4.2,3.58,6.37,5.32.64.52,1.86.35,2.43.9,1.9,1.86,4.18,3.64,5.27,5.94a4.06,4.06,0,0,0,4.63,2.49,44.32,44.32,0,0,0,9.15-2.73c3-1.18,5.8-2.81,8.72-4.17a1.3,1.3,0,0,1,1.21.24,1.46,1.46,0,0,1,.16,1.29,2.2,2.2,0,0,1-1,1c-4.24,2.13-8.53,4.18-12.75,6.35a5.28,5.28,0,0,0-2.44,2c-3,6.65-5.8,13.39-8.75,20.06-.5,1.12-1.54,2-2.11,3.1-.29.57.12,1.49-.14,2.1a11.54,11.54,0,0,1-7.25,7c-2.41.79-4.7.36-5.68-1.66a7.48,7.48,0,0,1,.09-5.69,54.43,54.43,0,0,1,5.87-9.81c2.08-2.78,3.16-6.61,7.13-7.67.07,0,0-.46.09-.59,1-1.21,2-2.41,3-3.56a3.54,3.54,0,0,1,1-.54c-.42-.26-.91-.8-1.27-.73-1.73.36-3.49,1.4-5.14,1.23-3-.3-3.56,2.45-5.34,3.59-2.15,1.38-3.78,3.55-5.69,5.32-1,.91-2.06,1.68-3.09,2.52-.16.13-.44.27-.45.42-.62,5.69-4.46,9.2-8.57,12.42a5.39,5.39,0,0,1-7.74-.82c-.65-.82-1.86-2.14.32-2.85.16-.05.38-.43.33-.51-1.85-3.06,1-4.79,2.35-6.38,2.59-3,5.88-5.36,8.85-8a12.57,12.57,0,0,0,1.36-1.69,7.23,7.23,0,0,1-2,.29c-4-.62-6.92,2.14-10.31,3.39-.41.14-.69.61-1,.93-1,.94-2,1.86-2.93,2.81a9.5,9.5,0,0,0-1,1.25,9.56,9.56,0,0,1-1,1.53c-1.55,1.52-3.11,3-4.77,4.41-2.46,2.05-5,4-7.51,5.95-2.16,1.64-4.61,2.71-7.22,1.4a4.48,4.48,0,0,1-2.16-3c-.14-1.17.2-3,2.43-2.46.1,0,.33-.32.44-.53.35-.67.48-1.63,1-2,4.85-3.28,9.77-6.44,14.65-9.67a9.29,9.29,0,0,0,1.47-1.47,10,10,0,0,0-1.69-.38c-1.13-.06-2.27,0-3.41,0Zm34.29,19c.3.86.36,1.92.89,2.27s1.58-.17,2.09-.65a13.94,13.94,0,0,0,3.33-3.76c2.07-4.28,3.8-8.72,5.75-13.06.83-1.85,1.95-3.57,2.78-5.42a6.75,6.75,0,0,0,.14-2.27,9.17,9.17,0,0,0-1.41,1.21,45.71,45.71,0,0,1-3.14,4c-4,3.87-6.16,9-9,13.59A19.77,19.77,0,0,0,314.94,455.91Zm-26.38-41.05c-.72.43-2,.75-2.23,1.45a2.81,2.81,0,0,0,1.06,2.41c3.13,2.2,6.32,4.33,9.63,6.25a45.4,45.4,0,0,0,6.53,2.88c.48.19,1.18-.16,1.78-.27-.09-.33-.06-.82-.27-1-3.93-2.82-6.75-7-11.09-9.27C292.23,416.42,290.39,415.69,288.56,414.86Zm18.53-5.53-2.17,1c.15.32.21.78.46.94a112.86,112.86,0,0,0,10.18,6.42c3.11,1.58,6.57,2.46,9.88,3.64a2.76,2.76,0,0,0,.65.07c-.1-.27-.13-.62-.31-.78a91.94,91.94,0,0,0-7.64-6.49C315,412,311.8,409.65,307.09,409.33Zm-6.67,41.94.56.53a6.43,6.43,0,0,1,.47-2c1.28-2,2.68-3.85,4-5.77s2.93-4.07,4.35-6.14c.16-.23,0-.66,0-1-1.66.81-3.59,1.31-4.92,2.49a54.61,54.61,0,0,0-6.22,6.76,42.78,42.78,0,0,0-3.61,5.63c-.26.45,0,1.2,0,1.82a6.08,6.08,0,0,0,2-.25C298.23,452.75,299.3,452,300.42,451.27Zm-13.64-18.7a9.16,9.16,0,0,0-1.36-1.46c-5.13-3.29-10.14-6.85-16.26-8.17a4.29,4.29,0,0,0-1.51.31c.31.58.46,1.37.93,1.71a48,48,0,0,0,16.95,7.6A7,7,0,0,0,286.78,432.57Zm-1.13,10.48c-.62-.11-1-.3-1.2-.19a86.88,86.88,0,0,0-8,4.58,67.68,67.68,0,0,0-6.37,5.5,9.51,9.51,0,0,0-1.19,1.65,5.4,5.4,0,0,0,2-.29c2.51-1.58,5.38-2.48,7.45-4.92,1.77-2.09,4.18-3.65,6.3-5.45C284.93,443.74,285.14,443.52,285.65,443.05Zm-28.09-7.77-.11-.43c-1.72.51-3.46,1-5.16,1.57-.46.15-.8.67-1.19,1,.51.19,1,.59,1.52.55,4-.28,8-.63,12-1,.34,0,.65-.48,1-.73-.5-.32-1-.9-1.5-.92C261.92,435.22,259.74,435.28,257.56,435.28Z"/><path d="M67.75,290.58c-4.81.47-8.11-1.37-11.54-3.93-5.89-4.39-11.06-9.35-14.37-15.85a189.76,189.76,0,0,1-8.94-20.47c-1-2.64-.43-5.89-.34-8.85a2.44,2.44,0,0,1,1.73-1.62c4.81-.08,9.62,0,14.44.1a11,11,0,0,1,1.14.11,6.08,6.08,0,0,1-.58,1c-2,2.22-5.13,2.67-8.26,1.18-5.18-2.45-6.09-1.65-5.85,4.3.28,6.78,3.41,12.5,6.36,18.29,1.94,3.79,4.18,7.44,6.35,11.12.21.37.83.5,1.26.74a8.77,8.77,0,0,0-.39-1.26C45.9,269.9,43,264.36,40.2,258.75c-.34-.69,0-1.71,0-2.57,0-.21-.48-.37-.55-.61-.29-1-.52-2.11-.78-3.17.36.07,1,.06,1.06.25.67,1.8,1.25,3.64,1.87,5.47s1.28,3.8,2,5.67c.14.36.67.57,1,.85a3.71,3.71,0,0,0,.35-1.22c-.37-3-1-6-1.13-9a26.74,26.74,0,0,1,1-7.26c.15-.63,1.72-1.31,2.61-1.26,1.14.06,2.2,1,3.36,1.26a6.66,6.66,0,0,0,3.54.23,39.2,39.2,0,0,0,5.69-2.92,1.49,1.49,0,0,0,.72-.92c.43-3,2.52-3.73,5-3.71,5.66,0,11.32,0,17,.3,3.73.18,6.07,3.31,6.2,7.26.09,2.94,1.06,6,.66,8.79-.78,5.44-1.15,11.11-4.83,15.73-.43.55,0,1.74-.34,2.4-1.12,2-3.21,3.77-3.53,5.84-.58,3.74-3.77,4.89-5.74,7.19S70.85,291.75,67.75,290.58Zm19.93-40.32-.6-.13a21.72,21.72,0,0,0,0-2.91c-.45-3.3-2.61-5.53-4.89-4.67-3.67,1.38-7,.75-10.46-.61-2.29-.89-4.49-1-6.54.91-1.32,1.22-1.65,2.2.23,2.75a10.18,10.18,0,0,0,4.43.21c3.31-.57,6.57,1.1,6.87,4.08a29.41,29.41,0,0,1,0,8.38C75.58,264.18,74,270,72.55,275.85a3.11,3.11,0,0,0,.15,1.07c.27-.1.66-.12.78-.31,1.92-3,4-6,5.64-9.15,1-1.94,1.44-4.21,2.26-6.28.21-.53,1-.85,1.47-1.26.2.71.71,1.52.53,2.12-.44,1.45-1.26,2.78-1.84,4.2-1.41,3.5-1.89,7.4-5.13,10.08-1.14.94-1.52,2.8-2.22,4.26a2.69,2.69,0,0,0-.08.91c.2-.06.49-.07.58-.21,2.21-3.19,4.54-6.31,6.52-9.63,1.41-2.37.67-5.88,3.84-7.38.09,0,0-.4,0-.62a15.07,15.07,0,0,1,.13-2.61C86,257.43,86.85,253.85,87.68,250.26Zm-29,17.14h-.41a35.79,35.79,0,0,0,0,4.86c.41,3,1,6,1.63,9,.05.29.35.53.54.79.19-.22.47-.41.54-.67.54-1.94,1.39-3.89,1.45-5.86s1.61-3,2.06-4.82c1.17-4.66,3.41-9,3.79-13.93.15-2,.68-3.89,1-5.84a.94.94,0,0,0-.43-.79,36,36,0,0,0-4.6-1.65c-2-.48-4.2-1.53-5.38,1.29a7.12,7.12,0,0,0-.47,2.34c0,.79.23,1.59.23,2.39C58.69,258.83,58.68,263.11,58.68,267.4Zm-1.93-10.86h.14a40.41,40.41,0,0,0-.06-4.12c0-.39-.69-.92-1.14-1-2.31-.56-4.71-.79-6.93-1.56-1.3-.45-1.79-.54-1.71.93.23,4.51.44,9,.76,13.52a13.36,13.36,0,0,0,.82,4.14,79.3,79.3,0,0,0,3.57,7.22,9.71,9.71,0,0,0,1.73,1.85c.14-.29.44-.62.39-.87-.78-3.34-1.68-6.65-2.42-10q-1.27-5.78-2.3-11.61c-.1-.56.53-1.25.82-1.88.34.65,1,1.31,1,2a33.64,33.64,0,0,0,2.13,12.27c1,2.72,1.57,5.6,2.36,8.4.07.26.33.47.5.71.12-.24.35-.48.35-.72Q56.76,266.15,56.75,256.54Zm17.37-3.2-.26,0a8,8,0,0,0-.08-2.65,2.22,2.22,0,0,0-1.7-1.06,1.79,1.79,0,0,0-1.37,1.1C69.63,256.31,69,262,67.58,267.56c-1,3.95-2.88,7.65-4.24,11.51-.22.63.23,1.5.36,2.27a8.58,8.58,0,0,0,1-2.13c.34-2.07.83-2.45,3-2,.13,0,.39-.1.4-.18.33-1.67,1.09-4.71.86-4.79-2.51-.86-.89-2.29-.39-3.05.76-1.13,2.32-1.77,3-2.93a16,16,0,0,0,1.38-4.78C73.39,258.77,73.72,256.05,74.12,253.34Z"/><path d="M251.65,79.66c-5.68-.12-9.35-1.27-11.67-5.29a2.74,2.74,0,0,0-2.18-.93c-12.07,1-24.15,2-36.2,3.22a91.48,91.48,0,0,0-9.78,2,2.71,2.71,0,0,0-.75.46c.2.22.36.54.6.63,4.57,1.56,8.74,3.82,14.13,3,5.21-.78,10.71.3,16.07.63.43,0,.82.52,1.23.79a4.73,4.73,0,0,1-1.32.39c-6.07-.05-12.17-.51-18.21-.11S192.38,83,187.16,80.55c-.63-.3-1.68.17-2.49.42-3.59,1.13-7.14,2.38-10.75,3.42a10.9,10.9,0,0,1-3.11-.09c-.78,0-1.57,0-2.35.07a15.19,15.19,0,0,1,2.4-1.31c2.49-.84,5.06-1.46,7.51-2.39a4.69,4.69,0,0,0,1.84-2,54.32,54.32,0,0,0,3.71-6.82,10.26,10.26,0,0,0,.51-4.46,22.38,22.38,0,0,1,2.26-11.24c3-6.56,7.67-10.64,13.39-13.92,4.94-2.84,10-5.62,15.88-6.31,2-.24,2.57.68,2,2.15-3.83,9.46-8.05,18.79-16.43,25.17-1.84,1.4-3.35,3.4-5.74,4.2a54,54,0,0,0-7.61,3.07c-1.11.56-1.89,1.82-2.74,2.82s-1.49,2-2.22,3a4.44,4.44,0,0,0-.34.65c.63.16,1.33.59,1.88.46,3.43-.84,6.79-2.08,10.26-2.66,5.4-.91,10.88-1.37,16.32-2.08,5.69-.74,11.35-1.68,17.05-2.27a39.09,39.09,0,0,1,7.48.28c2.32.21,4.07-.16,5.7-2.2,3.53-4.42,8.47-3.83,13.22-2.74a15,15,0,0,1,5.13,2.76c3.76,2.74,1.14,8-1.9,9.28A57.39,57.39,0,0,1,251.65,79.66ZM185.9,64.17l.45.18c.05.4.13.8.16,1.21.15,1.67,0,3.3,2.55,1.51,1.85-1.29,4.62-1.36,6.31-2.77A108.63,108.63,0,0,0,207,53.14c1.83-2.07,3.78-4.27,4.72-7.13a35.43,35.43,0,0,1,2.87-5.79c.16-.3.79-.33,1.21-.49-.72-.26-1.54-.89-2.14-.73a32.25,32.25,0,0,0-5.35,2c-5.58,2.65-11.24,5-15.59,9.84A29.13,29.13,0,0,0,189,56.37,58.91,58.91,0,0,0,185.9,64.17Zm64.4,3.1-.27.58h-.49c-3.15,0-6.83,1.82-6.21,3.33a11.32,11.32,0,0,0,4.81,5.47c1.66.86,4.2-.1,6.33,0A2.88,2.88,0,0,0,257.78,74a4.76,4.76,0,0,0-1.39-3.74C254.6,68.93,252.36,68.23,250.3,67.27Z"/><path d="M412.36,382.68c.73-5.05,1.43-10,2.17-15,.3-1.93.79-3.83,1-5.76.05-.46-1.09-1.13-1-1.48.93-3.06-1-6-.36-9,.21-1,1.57-1.94.27-3.13-.22-.19-.1-.76-.13-1.16a6.27,6.27,0,0,0-.88,1.06c-2.42,4.65-4.74,9.36-7.28,13.95-.7,1.27-2.14,2.11-3,3.3-.49.66-.39,1.74-.82,2.47a62.58,62.58,0,0,1-3.88,6.12c-3.05,4.1-1.32,8.71-1.59,13.1-.08,1.36.18,2.75.12,4.12,0,.4-.61.78-.94,1.17-.32-.34-.91-.68-.91-1-.06-2.87,0-5.75,0-8.62a6.78,6.78,0,0,0-.48-1.7c-.54.23-1.26.31-1.6.72-2.54,3-5.16,6-7.45,9.26-1.6,2.25-3.64,1.07-5.51,1.32,0-.35-.11-.82.07-1,3.5-4.15,7.19-8.16,10.5-12.45,1.85-2.39,4.21-4.47,5.26-7.43.12-.33-.14-.8-.22-1.2a3.88,3.88,0,0,0-1,.32c-.53.34-.95.95-1.52,1.12-5.75,1.69-11.45,3.7-17.31,4.84-4.18.82-8.12,1.44-12.15,3.35-5,2.37-10.83,3.23-16.39,4.08-3.44.53-7.09,0-10.6-.39a13.85,13.85,0,0,1-5.1-2c-2.15-1.29-2.56-4.25-1.13-6.66,1.57-2.64,4.06-3.84,7-4.29,6.47-1,12.85-.26,19.18,1.08,3.25.69,6.41,2,9.69,2.41,3.05.37,6.21-.2,9.33-.22,5.3,0,9.74-3.32,15-3.78,1.48-.14,2.74-2,4.27-2.42,5.43-1.54,7.24-6.35,9.73-10.47,1.9-3.15,3.31-6.58,5.08-9.81.73-1.33,1.62-2.45,1.81-4.11.31-2.72,2.53-1.64,4-1.38.45.07.95,1.44,1,2.24.34,7.5.52,15,.9,22.5a9.84,9.84,0,0,0,1.35,3.6c1.47,3,3.42,5.73,4.48,8.82A98.73,98.73,0,0,1,426.11,391c.09.42-.45,1-.69,1.47-.42-.45-1.15-.86-1.2-1.34-.65-5.83-2.7-11.27-4.6-16.74a5.07,5.07,0,0,0-1.67-1.92c-.15-.14-1,.18-1.09.4-1.09,4.89-2,9.81-1.41,14.87.16,1.31.36,2.63.41,4,0,.25-.72.81-.86.74-.55-.27-1.33-.68-1.41-1.15C413.09,388.42,412.75,385.53,412.36,382.68ZM344.1,372.54c-4.78.67-9-.49-11.79,3.46-1.47,2.08-1.32,3.46,1.16,4.18,2.15.62,4.1,1.65,6.59,1.65,4.71,0,9.38.21,13.93-1.13,3.28-1,6.48-2.16,9.71-3.3.33-.11.58-.48.87-.74-.31-.2-.62-.39-.92-.61-1.57-1.17-4.56.91-5.24-2.29a3.58,3.58,0,0,1-.52.34c-.48.19-1,.55-1.45.48C352,373.89,347.61,373.13,344.1,372.54Z"/><path d="M413.93,242.36c1.25-.67,2.49-1.37,3.76-2a5.26,5.26,0,0,1,1.26-.29c0,.43,0,.86-.11,1.27-.26,1.38-.69,2.73-.81,4.12-.45,5.22,0,10.68-1.46,15.59-1.11,3.76-2.29,7.72-5.24,11.22-2.36,2.81-4.5,6.07-7.22,8.68-1.44,1.39-3.6,2-5.24,3.2s-3.1,2.92-4.76,4.24a12.08,12.08,0,0,1-2.85,1.28c-.27-1.08-.91-2.21-.77-3.24.9-6.6,1.6-13.27,3.1-19.74,1.39-5.95,3.13-12,7.2-16.82C404.15,245.92,407.49,241.52,413.93,242.36Zm-17.34,26.26c4-.15,8-2.61,8.69-5.36.08-.32-.63-1.22-.93-1.2-1.69.11-3.36.42-5,.65-1.28.18-3.88,4.31-3.38,5.48C396,268.45,396.49,268.56,396.59,268.62ZM411,256.68l.28-.06-.13-.85c-.15.25-.28.52-.45.76-2.63,3.71-.92,7.53-.24,11.31,0,.22.71.33,1.08.49.28-2.09,2.71-3.63,1.29-6.22A31.51,31.51,0,0,1,411,256.68Zm-1.55-1.12a7,7,0,0,0-1.68-.54c-2.16.12-4.51-.18-6.4.61-1.26.53-1.86,2.63-2.76,4,.31.09.65.32.93.26a49.34,49.34,0,0,0,6.78-1.52C407.44,258,408.2,256.77,409.49,255.56Zm6.85-4.95c-.1-1.22-.1-2-.24-2.83a6.2,6.2,0,0,0-.55-1.34,8.17,8.17,0,0,0-.9,1.63c-.08.3.29.73.43,1.11.67,1.91.64,1.92-1.34,1.61a1.13,1.13,0,0,0-.83.45c-1,1.42-.08,7.81,1.33,8.84a1.12,1.12,0,0,0,.88.11c.14-.05.17-.47.2-.73a18.22,18.22,0,0,0,.38-3C415.66,254.33,413.94,252.07,416.34,250.61Zm-10.78,19c.42,1.46.87,3.05,1.33,4.64.85-.92,1.77-1.8,2.53-2.8a1.93,1.93,0,0,0,.07-1.45c-.37-1.47-.82-2.92-1.28-4.37-.21-.66-.51-1.29-.77-1.93a12.44,12.44,0,0,0-.83,1.73C406.23,266.71,405.94,268,405.56,269.59Zm-11.27,5.83.39,1.09c.31-.19.63-.37.95-.55a23.92,23.92,0,0,0,2.72-1.51,30.15,30.15,0,0,0,3.18-2.81c.12-.12-.31-1.1-.39-1.08a26.79,26.79,0,0,0-6.1,1.29C394.44,272.11,394.55,274.05,394.29,275.42Zm16.81-23.69.43-.24c-.43-.66-.73-1.74-1.3-1.9-2.41-.67-5-1.47-6.7,1.43-.25.43-.52.85-.79,1.28a5.38,5.38,0,0,0,1.35.23C406.18,252.32,408.26,252.06,411.1,251.73Zm-6.63,19.6c-1.07.48-1.55.57-1.58.73-.39,2.08-.73,4.18-1,6.27,0,.12.82.55.93.45.86-.73,2.2-1.48,2.32-2.37C405.34,274.88,404.76,273.26,404.47,271.33Z"/><path d="M340.44,395.51c8.14.45,16.27,1,24.42,1.32,4.8.18,9.73.79,13.58-3.48.79-.87,3.05-.41,4.63-.5.11,0,.42.63.33.75-3,4.26-2.43,9.28-3,14-.32,3-.05,6.06-.8,8.89-1.75,6.61-3.72,13.19-6.1,19.6-1,2.71-3.12,5.06-5,7.34a4,4,0,0,1-3.22.93c-.61-.1-1.35-1.53-1.43-2.41-.68-7.28-.8-14.6,1.56-21.58,1-2.93,1.25-6.09,2.77-8.85s3.07-5.82,4.58-8.74a7.63,7.63,0,0,0,.32-1.06,5.66,5.66,0,0,0-1.17.08c-4.74,1.29-9.42,2.88-14.22,3.85-6.94,1.39-14,1.62-20.81-.67a11.9,11.9,0,0,1-3.9-1.85c-.93-.79-2-2.26-1.84-3.27a5,5,0,0,1,2.39-3.44c2.11-.87,4.53-1,6.83-1.42Zm24.94,40.36.37.05c0,1.3,0,2.6,0,3.9,0,.53.13,1.07.19,1.61a6.7,6.7,0,0,0,1.59-.85c4.16-3.95,5.93-9.23,7.39-14.48,1.65-5.93,3.21-12,3.53-18.17.11-2.11.37-4.21.52-6.32a7.67,7.67,0,0,0-.18-1.41,9.41,9.41,0,0,0-1.16,1.11A62.63,62.63,0,0,0,366.9,425C366.15,428.58,365.87,432.25,365.38,435.87Zm-3.07-33.59c.58-.26,1.91-.86,3.22-1.49.15-.07.21-.33.31-.5l-.72-.09c-2.58-.17-5.17-.22-7.73-.54-1.2-.15-2.33-1.13-3.51-1.19-2-.11-3.95.37-5.92.33-4.65-.09-9.3-.36-13.95-.51-.17,0-.42.33-.52.57-.69,1.57-.37,2.62,1.42,3.24a36.53,36.53,0,0,0,16.52,1.77C354.78,403.47,358.12,402.9,362.31,402.28Z"/><path d="M67.27,290.94a9.77,9.77,0,0,1,1.21,0,11.7,11.7,0,0,1,1.31.27,3.92,3.92,0,0,0-1.2.64c-.58.65-1.51,1.45-1.46,2.12a103.52,103.52,0,0,0,1.41,11.8c1.14,5.81,2.59,11.57,4,17.31a55.37,55.37,0,0,0,2.24,6.16,8.92,8.92,0,0,0,.93,1.48,7.78,7.78,0,0,0,1.17-1.93c.31-1.13.14-2.4.54-3.47a19.82,19.82,0,0,0,1.4-9.11,5.94,5.94,0,0,1,.71-3c.78-1.6,1.92-3,4-2.2,1.56.58,2.09,3.63,1.69,5.38-.54,2.4-1.28,4.18-4.12,4.2-.2,0-.48.53-.58.86A105.7,105.7,0,0,0,77,333c-.34,1.66.78,3.62,1.27,5.43.25.91.57,1.79.87,2.69a22.16,22.16,0,0,0-2.56-.17c-1.89.1-3.78.32-5.68.41a5.15,5.15,0,0,1-1.53-.39,12.92,12.92,0,0,1,1.23-.86c.36-.18.8-.18,1.15-.37a7,7,0,0,0,1-.78,4.91,4.91,0,0,0-1-.6c-3.78-1.14-7.52-2.47-11.36-3.34-7.46-1.71-14.52-4-20-9.78-1.22-1.28-3.48-1.56-5.27-2.26a2.21,2.21,0,0,0-.88,0,2.93,2.93,0,0,0,.42.85c1.76,1.93,3.42,4,5.35,5.72a34.67,34.67,0,0,0,6.33,4.77c3.94,2.17,8.08,4,12.13,5.93.39.19.76.45,1.14.67-.42.14-.86.47-1.23.39-2.79-.57-6.08-.5-8.2-2-2.31-1.67-5.11-2.47-7.16-4.53-2.23-2.23-4.76-4.15-7-6.37s-4.41-4.73-6.53-7.17a8,8,0,0,1-.87-2.09c.78-.09,1.64-.46,2.31-.23,1.61.54,3.07,1.55,4.7,2a52.24,52.24,0,0,0,5.21.72c4.15.69,8.43,1,12.4,2.26,5.83,1.84,11.44,4.38,17.14,6.62.53.21,1,.47,1.56.7-.13-.54-.25-1.08-.39-1.61-2-7.72-4.4-15.37-6-23.17-1-4.81-.9-9.86-1.1-14.8,0-.28,1.8-.64,2.76-1ZM42.19,323.66l-.88.24c.14.17.24.41.42.52,4.46,2.66,8.11,6.63,13.57,7.72s10.66,2.72,16,4.09a1.91,1.91,0,0,0,.67,0,5.73,5.73,0,0,0-.52-1,18,18,0,0,0-8.7-5.81c-4.59-1.4-8.81-3.89-13.69-4.46C46.81,324.68,44.6,324.12,42.19,323.66Z"/><path d="M313.2,76.08c-5.2-.23-10.22-.92-14.87-3.72-1.42-.85-3.71-.32-5.61-.3-1.38,0-2.77.23-4.15.35,1.29.54,2.6,1,3.89,1.62L312,82.65a1.48,1.48,0,0,0,.21.13l4.17,1.64c-2-.1-4.09.23-5.89-.38-3.42-1.16-6.66-2.88-10-4.32a11.69,11.69,0,0,0-2.06-.5c.19.66.38,1.31.58,2,0,.08.08.14.1.22.21,1,.41,2.07.62,3.1a17.1,17.1,0,0,1-2.29-2.86c-1.3-2.58-2.77-4.57-5.94-5.36-3.63-.9-7-2.76-10.58-3.94-1.42-.47-3.09-.14-4.63-.29a57.38,57.38,0,0,1-5.7-.77,6.71,6.71,0,0,1-1.92-1.14c.82-.41,1.67-1.23,2.44-1.15,2.65.26,5.26,1,7.91,1.24,2.36.24,4.76.17,7.15.18,3.23,0,6.48.12,9.7-.11a15.13,15.13,0,0,0,5-1.38c4.24-1.93,8.28-4.35,12.6-6,5.05-2,10.39-2.43,15.88-2.65,7.58-.3,14.86.94,22.22,2.14,1.45.24,2.67.82,2.36,2.45-.12.65-1.09,1.37-1.83,1.63-5.06,1.79-10.09,3.77-15.27,5.12-7.76,2-15.64,3.54-23.46,5.28Zm31.8-9.7V66l-.79-.07c-1,0-1.94-.12-2.91-.14-12.29-.31-24.07,3.07-36,5.11a4.21,4.21,0,0,0-1.16.65c.37.39.7,1.08,1.11,1.13a38.71,38.71,0,0,0,7.1.52c5.58-.4,11.25-.61,16.66-1.84,5.14-1.16,10.42-2.25,15.2-4.73A4.46,4.46,0,0,1,345,66.38ZM314.79,64.3c-1-.13-1.48-.34-1.73-.19-1.59,1-3.1,2-4.7,3-1.05.62-2.2,1.07-3.31,1.59a25,25,0,0,0,4.25-.11c5.35-1,10.65-2.45,16-3.25,5.06-.76,10.21-.94,15.33-1.35a13.16,13.16,0,0,1,1.77.07,6.41,6.41,0,0,0-1.78-1c-7.38-1.31-14.76-1.56-22.1.29Z"/><path d="M410.35,196.68c-.94,4.14-1.91,8.71-3,13.24a37.41,37.41,0,0,1-2,6c-.47,1.09-1.59,1.9-2.15,3-.44.86-.2,2.13-.74,2.86-2,2.67-4.13,5.18-6.21,7.77a38,38,0,0,0-2.93,3.79c-.93,1.49-2.93,2.25-2.93,4.43,0,.37-1.06.85-1.71,1.05-.16,0-.78-.74-.88-1.21-1.07-5.13-2.28-10.23-3-15.4a50,50,0,0,1-.62-12.07c.3-3.06,2.07-6,3.09-9,1.79-5.31,6.47-8.32,9.89-12.31.69-.8,2.74-.45,4.16-.62-.13.42-.12,1-.4,1.25-1.91,1.68-3.89,3.29-5.82,5-.18.15-.34.67-.25.76a1.77,1.77,0,0,0,1,.51c4.67.6,7-1.23,7.74-5.8.1-.63,1-1.64,1.46-1.61,1.34.08,3.29-1.06,3.86,1.24S409.78,193.89,410.35,196.68Zm-23.61,22.84c.05,0,.93.78,1.08.66,3.16-2.61,8-3.7,8.3-9a12,12,0,0,1,.75-2.54c.14-.51.22-1,.33-1.55-.81-.08-1.75-.45-2.41-.18-2.36,1-4.65,2.16-6.92,3.35a2.14,2.14,0,0,0-1.08,1.39C386.68,214,386.74,216.39,386.74,219.52Zm2.07-11.89c2.94-1.15,5.33-2.13,7.75-3,1.7-.63,4.47-4.75,4.15-6.47,0-.28-.77-.64-1.19-.64-6.63,0-9.76,2.51-11.19,8.82C388.26,206.66,388.6,207.09,388.81,207.63Zm8.31,7.86c.52,1.55,1,3,1.51,4.46a6.17,6.17,0,0,0,.81,1.15,9.21,9.21,0,0,0,.87-1q1.47-2.34,2.86-4.72a1.06,1.06,0,0,0,0-.82c-.9-1.72-1.81-3.43-2.79-5.1-.1-.17-1-.15-1,0C398.55,211.43,397.84,213.48,397.12,215.49Zm9.31-11.12c-1-1.91-1.93-3.84-2.89-5.77-.29.16-.78.25-.85.47-1.19,3.84-2.05,7.69.09,11.51.18.32.37.63.56.95.31-.2.8-.34.9-.62C405,208.79,405.67,206.65,406.43,204.37Zm-17.57,27.35c.32-.34.55-.49.62-.69q1.65-5.22,3.26-10.46a1.8,1.8,0,0,0,0-.61c-1.83,1-3.67,1.94-5.49,2.94a.84.84,0,0,0-.37.66c.56,2.41,1.16,4.8,1.75,7.2C388.66,231,388.74,231.29,388.86,231.72Zm9.07-8.22a42,42,0,0,0-1.38-4c-.15-.34-.89-.41-1.36-.61a4.9,4.9,0,0,1,.13,1.13,12.19,12.19,0,0,1-.43,2.08c-.65,2.07-1.37,4.13-2,6.21-.06.2.29.53.46.8Zm9.47-28.83h-.17a35.6,35.6,0,0,0,0-3.58c-.05-.4-.61-.75-.93-1.12a4.18,4.18,0,0,0-.63,1c-.84,2.59-1.49,5.19.24,7.69a12.77,12.77,0,0,0,1,1.1,5.85,5.85,0,0,0,.51-1.49C407.45,197.06,407.4,195.86,407.4,194.67Z"/><path d="M443.39,240.22c5.29-1.71,8.72,1.51,11.8,4.85A32.69,32.69,0,0,1,464,264.21a50.12,50.12,0,0,1-.7,16.49,7.43,7.43,0,0,1-1.33,2.09c-.68-.51-1.59-.87-2-1.54-2.41-4.06-5.85-7.16-9-10.58-2.79-3-4.61-7-6.86-10.51-.86-1.36-2.07-2.6-2.54-4.09-1.36-4.28-2.45-8.64-3.57-13-.52-2-.56-3.77,2.43-3.2,1,.19,2,.26,3,.38-.1.36-.42.83-.3,1.06A6.84,6.84,0,0,0,449,245.2c.7.05,1.4,0,2.11,0a7.47,7.47,0,0,0-1.39-1.51C447.64,242.48,445.51,241.37,443.39,240.22Zm9.51,12.42c0,.27-.21.69-.08.83,2.14,2.46,4.31,4.9,6.54,7.28.09.1,1.28-.47,1.27-.69C460.47,257,456.38,253,452.9,252.64Zm1.32,9.15-1,0c-.93,1.33-2.74,2.81-2.55,4,.23,1.48,2.08,2.7,3.23,4,.77-.7,2.26-1.52,2.17-2.07A39.35,39.35,0,0,0,454.22,261.79Zm-10.53-6.2c.4.31.77.83,1.2.89a1.65,1.65,0,0,0,1.29-.6c.81-1.1,1.89-2.22,2.1-3.46.19-1.08-.66-2.33-1-3.51-.57.38-1.12.79-1.71,1.14C443.43,251.31,443.27,253.13,443.69,255.59Zm8.87,2a12,12,0,0,0-1.42-1.95,1.09,1.09,0,0,0-1.08,0,25,25,0,0,0-2.81,4.22c-.26.57.4,1.6.72,2.39a1.1,1.1,0,0,0,.68.38C449.94,261,451.2,259.33,452.56,257.56ZM451,247.09l-1.52.41c.25.47.37,1.16.76,1.4,1.94,1.16,3.95,2.21,6,3.26,0,0,.57-.77.48-.89C455.19,249.32,454.16,246.75,451,247.09Zm10.64,19.32c.3-2.73-.91-3.64-2.59-4.11A13.85,13.85,0,0,0,457,262c.66,1.15,1.28,2.32,2,3.44a3.67,3.67,0,0,0,1.07,1c.44.3.94.52,1.41.78C461.52,266.71,461.64,266.21,461.59,266.41Z"/><path d="M433.68,188c3.48.16,7.19-.4,10.38.65,4.05,1.35,7.76,3.85,11.45,6.14a25.7,25.7,0,0,1,6.1,5c3.39,4,6.47,8.31,9.53,12.59.46.64.15,1.83.19,2.77-.87-.1-1.76-.15-2.62-.31-3.17-.59-6.37-1.09-9.48-1.9-1.17-.3-2.05-1.59-3.21-2-1.43-.52-3.11-.37-4.51-.94a88.75,88.75,0,0,1-8.94-4.2c-1-.57-1.6-1.95-2.56-2.74-.7-.58-1.89-.59-2.53-1.2-2.77-2.69-5.39-5.52-8.11-8.26-1.42-1.44-2.93-2.79-4.37-4.21a9,9,0,0,1-.77-1,7.89,7.89,0,0,1,1.17-.18c2.75,0,5.51,0,8.27,0Zm14.13,11.65.35-.09c-.1-.38-.09-1-.3-1.08-1.31-.54-2.67-1-4-1.42.19,1.29.37,2.58.57,3.87,0,.16.14.35.08.47-1.17,2.31.77,2.93,2.09,3.9.37.27.7.62,1.06.91s.56.43.84.65c.31-.48.95-1,.87-1.42C448.94,203.47,448.34,201.56,447.81,199.63Zm9.57,10.13c.18-2.94-2.28-6.89-4.63-7.69-.35-.12-1.24.21-1.26.41a6.42,6.42,0,0,0,4.74,7.2A5,5,0,0,0,457.38,209.76Zm-1.82-12-2.58.58-1.29.31a5.74,5.74,0,0,0,1.05,1c1.66,1,3.32,1.94,5.06,2.74a16.41,16.41,0,0,0,3.14.79c-.72-.86-1.44-1.72-2.17-2.57a13.26,13.26,0,0,0-1.16-1.21C456.87,198.75,456.1,198.15,455.56,197.71Zm-7-.63c1.44-.18,2.4-.27,3.36-.45a6.13,6.13,0,0,0,1.27-.48,5.48,5.48,0,0,0-.76-1.44,5.54,5.54,0,0,0-6.54-.56,1.39,1.39,0,0,0-.37,1C446.61,195.88,447.76,196.58,448.56,197.08Zm16.12,15.09,1-.25A5,5,0,0,0,465,211c-1.5-1.4-3-2.79-4.57-4.14-.17-.14-.55,0-.84,0,.39,1.51.42,3.3,1.3,4.44C461.52,212,463.31,211.88,464.68,212.17Zm-22-21.9a9.51,9.51,0,0,0-2.51.25A6.8,6.8,0,0,0,438.4,192c.53.32,1.06.87,1.61.9a28.86,28.86,0,0,0,4.25-.25,4.14,4.14,0,0,0,1.26-.63,4.63,4.63,0,0,0-1-1.2A7.65,7.65,0,0,0,442.68,190.27Zm-3.27,3.9-1.22-.65c-.12.58-.51,1.27-.32,1.72.84,2,1.83,4,2.82,6,.12.23.55.3.83.45a2.72,2.72,0,0,0,.05-.63c-.38-1.9-.72-3.81-1.18-5.69C440.28,194.92,439.75,194.57,439.41,194.17Z"/><path d="M68.89,188.17c2-.45,2.75.3,2.62,2.38a22.88,22.88,0,0,0,.34,4.11,7.26,7.26,0,0,0,.4,1.25,4.67,4.67,0,0,0,.91-1.32c.44-1.63.74-3.29,1.14-4.93.3-1.21,3.89-2.26,4.78-1.39a1,1,0,0,1-.17.9c-3.84,2.08-3,6.27-4.29,9.48A27.17,27.17,0,0,0,72.31,209a21.62,21.62,0,0,0,.27,2.27,5.2,5.2,0,0,1,.79-1.54c1.52-1.38,3.14-2.63,4.67-4,3.77-3.37,7.44-6.84,11.29-10.11a10.34,10.34,0,0,1,4.11-1.94c1.06-.27,2.84-.33,3.32.29,1,1.25,2.6,2.32,1.56,4.74-1.53,3.61-4.25,5.36-7.62,6.57-4.66,1.67-9.38,3.18-14,5-3.77,1.48-5.16,4.92-6.24,8.5a9.33,9.33,0,0,1-.84,1.63c-.26-.42-.47-1.16-.8-1.22-3.38-.6-3-4.18-4.77-6-1.58-1.57-3.12-3.2-4.83-4.6a17.22,17.22,0,0,1-6.5-11,3,3,0,0,1,1.5-2.35c2.12-.89,4.53,1.81,6.1,3.13,2.19,1.86,2.51,4.1,3.31,6.34,1.18,3.33,2.21,6.72,3.4,10.05.21.61.87,1.06,1.32,1.58a15.68,15.68,0,0,0,.6-2c.45-3,.65-6,1.31-8.88,1.24-5.49-1.06-10.31-2.89-15.09C66.46,188,66.77,187.87,68.89,188.17ZM88.2,202.53l.28.58c2.24-1.24,4.56-2.37,6.68-3.8.72-.48.92-1.74,1.36-2.64-1-.12-2.33-.67-3.1-.27A56.71,56.71,0,0,0,87,200.62a25.87,25.87,0,0,0-2.69,2.55l3.22-.52Zm-32.39-6.07c-.67,1.41-1,1.78-1,2.07.67,3.48,2.85,6.06,5.24,8.49.1.1.41,0,.62,0a1.61,1.61,0,0,0-.06-.44c-1-2.42-2.08-4.85-3.17-7.26C57.13,198.53,56.61,197.8,55.81,196.46Z"/><path d="M293.8,103.89c1-2.1-.41-5.57,3.27-6.7.13,0,.14-.41.25-.6.52-1,.85-2.44,1.64-2.75,1.91-.77,2.78-1.54,1.57-3.55-.1-.16.35-1,.57-1,.39,0,1.07.25,1.16.54,1.64,5.28,6.61,8,9.38,12.43,2.31,3.69,5.51,7,5.69,11.67.14,3.7.1,7.4.29,11.1.15,3,.52,5.89.8,8.84.15,1.67.38,3.34.44,5,0,.66-.14,1.8-.5,1.92a2.46,2.46,0,0,1-2.14-.4c-1.17-1.15-2.09-2.56-3.15-3.83-4.57-5.44-9.58-10.57-13.59-16.4A32.15,32.15,0,0,1,293.8,103.89Zm19.31,26.54.49-.19a21.86,21.86,0,0,1-2-3.73c-1.16-3.7-1.76-7.62-3.23-11.19-2.51-6.12-6.66-11.61-6.81-18.61,0-.19-.89-.56-.91-.53-1.22,1.69-3.15,3.31-3.4,5.15-.48,3.58-.57,7.31,1.2,10.79,2.25,4.43,3.94,9.19,6.6,13.34,2,3.21,5.19,5.72,7.88,8.51a8.61,8.61,0,0,0,1.4.95,11.64,11.64,0,0,0-.23-1.57C313.83,132.36,313.45,131.4,313.11,130.43Zm1.87-8.06h.09a39.43,39.43,0,0,0,0-5.1c-.37-2.86-.35-6-1.64-8.46-1.82-3.45-4.67-6.35-7.08-9.48A16.12,16.12,0,0,1,305.25,98a8.69,8.69,0,0,1-.56-1.33c-.35.65-1.06,1.32-1,1.94a23.86,23.86,0,0,0,2.79,8.65c2.34,4.82,3.87,10,5.72,15.1.79,2.18,1.53,4.39,2.34,6.57.09.25.46.38.7.57a4.24,4.24,0,0,0,.12-.85C315.24,126.56,315.11,124.47,315,122.37Z"/><path d="M221.88,84.64c7.34-.37,12.52,3.6,17.44,8.17,3.36,3.12,6.86,6.1,10.17,9.28a39.28,39.28,0,0,1,4.51,5.28c.38.52,0,1.59,0,2.41a5.06,5.06,0,0,0-1.5-.66,28.65,28.65,0,0,0-3.82,0c-1.84.09-3.67.35-5.5.39a29.34,29.34,0,0,1-5.39-.19c-5.45-.9-11-1.57-16.27-3.14-2.17-.64-4.45-.92-6.59-1.75-4.8-1.86-8.86-4.61-11.1-9.28-1.46-3.05-2.22-6.43-3.27-9.66-.06-.17,0-.51.08-.57,1.23-.62,4,.7,4.23,2.07.93,6.6,5.17,10.86,10.45,14.09,2.2,1.34,5,1.66,7.61,2.34a126.72,126.72,0,0,0,24.09,4,10.69,10.69,0,0,0,2.27-.35,9.65,9.65,0,0,0-1.21-2.3,95,95,0,0,0-7.88-7.8,65.6,65.6,0,0,0-9.44-6.41,99.41,99.41,0,0,0-9.2-4c-.66-.29-1.26-.69-1.89-1Z"/><path d="M104.05,341.57l-1.87-.52a3.77,3.77,0,0,1,.52-1.3,31.36,31.36,0,0,0,2.29-2.16c.38-.49.28-1.32.52-1.95,1.19-3.08,2.71-6.07,3.55-9.24,1.12-4.17,1.71-8.48,2.51-12.74,0-.24-.14-.51-.22-.77a4.26,4.26,0,0,0-.86.77c-2.25,3.46-4.45,7-6.74,10.4a13.28,13.28,0,0,1-2,1.95c0-1.07-.36-2.32.07-3.16,1.61-3.05,3.48-6,5.24-9a5.14,5.14,0,0,0,.33-1,3.14,3.14,0,0,0-.63.23,66.38,66.38,0,0,0-5.64,3.82c-.79.65-.86,2.18-1.66,2.81-4.6,3.62-7.3,8.71-10.44,13.41-1.19,1.79-1.24,4.31-2,6.42-.22.62-1.15,1-1.75,1.46-.23-.71-.78-1.5-.63-2.13a49,49,0,0,1,2.1-6.8c.4-1,1.55-1.68,2.13-2.64.33-.53,0-1.53.3-2,2.27-3,4.33-6.34,7.07-8.9,4.35-4.07,9.19-7.61,13.81-11.39,1.36-1.12,3.11-1.39,3.58.34a18.08,18.08,0,0,1,.38,7.29,134.31,134.31,0,0,1-3.12,15.15,48.61,48.61,0,0,1-4,9.37C106.31,340.33,104.87,340.93,104.05,341.57Z"/><path d="M380.62,337.32c9.37,1,16.72-1.51,23.65-5.89,3.46-2.18,7.47-3.6,10.63-6.13,1.85-1.49,4.72-2.64,4.88-5.88a13.07,13.07,0,0,1,1.17-4.18,3.07,3.07,0,0,1,1.65-1.48,1.7,1.7,0,0,1,1.51.79c.13.61-.34,1.34-.45,2a14.83,14.83,0,0,1-.36,2.88c-1.27,3.23-2.89,6.33-4,9.61a50.69,50.69,0,0,0-2.33,9.75c-.33,2.64-2,2.39-3.65,2.42-.21,0-.75-1.15-.6-1.56.74-2,1.79-3.9,2.49-5.92.65-1.85,1-3.81,1.46-5.72-.38-.08-.87-.36-1.12-.21-3,1.74-5.92,3.64-9,5.32-3.51,1.94-7.12,3.69-10.68,5.54-1.06.55-2.08,1.17-3.15,1.71-.53.26-1.31.72-1.67.53-4.31-2.32-8.58.35-12.88.05a95.75,95.75,0,0,0-10,.34,3.13,3.13,0,0,1-1-.38c.32-.29.61-.76,1-.85C372.63,339.06,377.11,338.09,380.62,337.32Z"/><path d="M424.24,231.58c-.2-.76-.81-1.79-.52-2.23,2.85-4.27,2.71-8.75,1.31-13.42-.64-2.15-1.23-4.32-1.71-6.52a7,7,0,0,1,.28-2.17c0-.2.1-.53,0-.6-3.66-2.48-3.12-6.83-4.2-10.32-.63-2-2.16-3.74-2-6,0-.72.05-1.45.07-2.18,1.08.42,2.73.53,3.13,1.3A42.71,42.71,0,0,1,423,196.3c1.21,3.84,2.41,7.7,3.52,11.57,1.77,6.19,4.18,12.2,4.14,18.83,0,2.83,8.47,10.84,11.29,11.3a42,42,0,0,1,4.36,1.2c-1.3.1-2.61.23-3.91.28-2.69.12-5-.28-6.29-3.23-.65-1.44-2.31-2.43-3.54-3.6,0,0-.61.29-.6.43.08,1.24.25,2.49.35,3.73.05.72.26,1.9,0,2.06a4.8,4.8,0,0,1-2.74.5c-.36,0-.82-1-.88-1.64-.36-3.38-.62-6.77-.92-10.16a1.73,1.73,0,0,0-.14-.42c-.26.17-.6.27-.77.5-.91,1.28-1.78,2.58-2.66,3.88Z"/><path d="M429.75,255.11c-.3-5.35-.56-9.3-.69-13.25,0-.68.59-2,.86-2,1.09.06,2.58-.5,2.83,1.56a105,105,0,0,1-.28,29c-.58,3.77-1.8,7.45-2.28,11.23-.29,2.25.36,4.62.4,6.94,0,.66-.64,1.34-1,2a10.74,10.74,0,0,1-.94-2c-.36-1.43-.57-2.91-.84-4.37a26.13,26.13,0,0,1-1.75,3c-1.27,1.63-2,4-4.95,3.43-1.29-.24-1.62-.61-.88-1.65,1.52-2.13,3.28-4.11,4.62-6.35,1.23-2,2.65-4.27,2.94-6.56C428.75,268.72,429.22,261.23,429.75,255.11Z"/><path d="M396.93,399c.61,3.94.87,8,1.93,11.8.85,3.06,3,5.73,4,8.78,1.78,5.68,2.75,11.57,1.28,17.5a14.35,14.35,0,0,1-2.73,6c-1,1.14-3.16,1.32-4.85,1.78-.24.07-.7-.68-1.06-1.06.46-.2,1-.64,1.36-.56,1.62.33,2.61.18,3-1.8.6-2.82,1.7-5.53,2.39-8.34.48-2,1.33-4.22.82-6-1.67-5.85-3.88-11.55-5.91-17.3-.3-.86-.74-1.68-1.12-2.52a15.17,15.17,0,0,0-1.07,2.55c-2.15,9.4-4.3,18.8-1.89,28.48a35.87,35.87,0,0,0,1.41,3.34c.12.35-.09.82-.15,1.23-.34-.13-.84-.16-1-.4-.88-1.6-2.13-3.18-2.41-4.9-.66-3.92-1.46-8-1.07-11.87.89-8.76,1.93-17.53,4.89-25.94.59-1.68.4-3.63.66-5.44a5.15,5.15,0,0,1,.77-1.46c.36.5,1,1,1,1.5.14,1.52.05,3.07.05,4.61Z"/><path d="M86.06,343.12c0,1.84,0,3.69,0,5.54a7.63,7.63,0,0,0,.18,1.15,4.46,4.46,0,0,0,1-.83c1.17-1.74,2.27-3.52,3.43-5.27A3.9,3.9,0,0,1,92,342.25a8,8,0,0,1,2.24-.45,5.83,5.83,0,0,1-.56,1.71c-1.42,1.95-2.94,3.84-4.42,5.76-.11.14-.24.45-.19.49s.45.37.62.31a7.37,7.37,0,0,0,2.21-.86c2.38-1.73,4.7-3.54,7-5.33.45-.34.8-.92,1.29-1.07,1.39-.43,2.84-.69,4.26-1a24.61,24.61,0,0,1-2.46,3.3,38.47,38.47,0,0,1-5.6,4.78,67.62,67.62,0,0,1-7,3.51c-1.22.6-2.53,1.17-1.45,2.95,1.29,2.14,2.48,4.33,3.79,6.46,1,1.64,1.26,3.72,3.22,4.84.53.3.43,1.7.62,2.6-.76-.28-1.82-.33-2.24-.87a112.41,112.41,0,0,1-6.85-9.6c-3.12-5.16-6-10.49-8.82-15.79-.33-.59-.11-1.47-.15-2.22.93.38,2.26.51,2.68,1.19.87,1.43,1,3.31,2.63,4.29.24.15.47.33.7.49a7.9,7.9,0,0,0,.13-1,21.41,21.41,0,0,1,.25-3.86c.12-.5,1.1-.9,1.76-1.09.21-.06.65.7,1,1.09Z"/><path d="M148.5,373.38c1.43,5.81,2.88,11.63,4.26,17.45a4.51,4.51,0,0,1-.28,1.65c-.66-.41-1.79-.72-1.89-1.24-1.2-5.86-2.35-11.74-3.26-17.66a21.85,21.85,0,0,1,.23-6c.39-2.87,2.35-3.78,4.66-2a26.54,26.54,0,0,1,5.05,4.88c4.24,5.5,8.36,11.12,12.38,16.79a18.69,18.69,0,0,1,1.82,4.51c.06.18-.36.76-.48.74-.66-.13-1.75-.25-1.86-.62-2-6.54-6.92-11.18-10.84-16.45a25.14,25.14,0,0,0-2-2.35c-.56-.59-1.22-1.08-1.83-1.61,1,.88-1.23,2.28.56,3.18.52.27.68,1.41.86,2.18.77,3.18,1.34,6.43,2.3,9.55.51,1.66,1.73,3.09,2.54,4.68.19.37,0,.94,0,1.42-.54-.32-1.39-.52-1.57-1-2.25-5.9-4.46-11.8-6.54-17.76-.38-1.11-.08-2.45-.14-3.69,0-.49,0-1.15-.32-1.42a14.28,14.28,0,0,0-2.19-1.44,16.06,16.06,0,0,0-.58,2.42c-.1,1.21,0,2.43,0,3.64Z"/><path d="M405.17,187.74c-1-1-2.6-.81-4.24.08-.4.21-1.08-.1-1.63-.17.31-.43.53-1,.95-1.27,3.15-1.93,3.69-5.08,4-8.36.28-2.89.66-5.77.91-8.67a9.78,9.78,0,0,0-3.26-8.11,28.07,28.07,0,0,1-3.29-4.46c-.21-.31,0-.9,0-1.36.45,0,1.06-.12,1.31.12a31.86,31.86,0,0,1,4.6,4.77c3.24,4.82,6.47,9.68,9.24,14.78,2.1,3.86,3.85,7.77,8.08,9.83a16.57,16.57,0,0,1,2.77,2.08,2,2,0,0,1,.34.55c-.21.1-.46.32-.61.27-1.24-.47-2.45-1-3.72-1.44a1.9,1.9,0,0,0-1.47.24c-.27.19-.31,1.17-.35,1.17-.82-.13-2.1-.13-2.33-.6a20.05,20.05,0,0,1-1.07-4.2c-.05-.2.16-.5.06-.64-2.27-3.37-4.57-6.72-6.87-10.07-.22-.33-.47-.63-.71-.95a4,4,0,0,0-.49,1c-.61,3.65-1.3,7.29-1.71,11a4.93,4.93,0,0,0,1.13,2.82C407.88,187.73,407.32,188.07,405.17,187.74Z"/><path d="M167.49,463.43c-2.12.21-4.23.47-6.35.61a33.64,33.64,0,0,1-4.49,0c-2.47-.17-4.94-.44-7.39-.76-.38-.05-.75-.54-1-.91-.08-.11.19-.58.41-.75,3.36-2.75,6.63-5.63,10.16-8.16,3-2.18,6.37-4,9.61-5.87.42-.24,1.08-.05,1.63-.07-.25.47-.39,1.13-.78,1.37-3.54,2.09-7.19,4-10.65,6.19a39.54,39.54,0,0,0-4.93,4.15,4.75,4.75,0,0,0-.7,1.23,11.35,11.35,0,0,0,1.54-.08c2.92-.5,5.4-2.17,8.13-3.18,3-1.12,6-2.41,9-3.4s6.35-1.79,9.55-2.59c.34-.08.8.38,1.21.59-.3.36-.53.95-.91,1.06-2.86.82-5.81,1.42-8.64,2.35-3.78,1.26-7.49,2.73-11.21,4.17-1.42.55-2.79,1.26-4.17,1.95-.3.15-.51.5-.76.75.36.11.73.36,1.07.31,7.52-1,15-2,22.55-3a6.16,6.16,0,0,1,1.84.35c-.34.33-.63.88-1,1-4.55,1.07-9.11,2.07-13.66,3.08Z"/><path d="M76.16,239.65a13.23,13.23,0,0,1-1.88-2.47c-1.7-3.81-3.3-4.28-6.65-1.82-4.31,3.15-5.64,3.27-10.06.54a3.25,3.25,0,0,0-4.92,1.3c-1.68,3-4.38,1.93-6.75,2.25-.08,0-.44-.76-.33-.9a47.47,47.47,0,0,1,4.67-5.41,6.3,6.3,0,0,1,7.9-.47c2.79,1.81,4.82.77,6.74-.86,4.67-4,9.4-2.06,11.57,3.29.35.87,1.07,1.59,1.48,2.45.5,1,1.22,2.41-1.12,1.58Z"/><path d="M135.54,392.66a7.8,7.8,0,0,1-2.12-1,59.93,59.93,0,0,0-15.53-9.51c-3.83-1.74-8-2.74-12-4a2.1,2.1,0,0,0-.66,0,3.33,3.33,0,0,0,.42.94,20.24,20.24,0,0,1,2.41,2.6c.3.48-.07,1.38-.15,2.08a15.68,15.68,0,0,1-1.73-.89,11,11,0,0,1-1.3-1.17c0,.66,0,1.31,0,2,.06,2.8,2.3,4.62,3.16,7.05a14.47,14.47,0,0,1,.38,1.76c-.86-.26-2.3-.32-2.47-.81-1.54-4.5-2.87-9.07-4.24-13.63-.77-2.55.73-2.91,2.62-2.43,2.25.57,4.43,1.42,6.64,2.14,2.68.88,5.5,1.45,8,2.67,3.58,1.73,7,3.89,10.37,5.94,2.38,1.42,4.7,2.94,7,4.48a5.54,5.54,0,0,1,1.08,1.45Z"/><path d="M364.38,353.21c5-1.82,10-3.41,14.85-5.53,3-1.31,5.59-3.49,8.44-5.17a9.19,9.19,0,0,1,2.63-.6,7.08,7.08,0,0,1-1.33,2q-3.78,2.76-7.73,5.24c-.58.37-1.5.19-2.26.26-.22,0-.55-.05-.62.06-2.49,3.7-6.93,3.13-10.43,4.41-1.46.53-3.48,1.61-5.5.88s-3.95-.95-5.8-1.73-2.26-3.77-.55-5.71a16.49,16.49,0,0,1,5.51-4.51c2.25-1,5-.84,7.48-1.13.28,0,.6.35.91.54a4.7,4.7,0,0,1-1,.59,43.71,43.71,0,0,0-5.24,1.8,31.8,31.8,0,0,0-5.47,3.47c-1.67,1.33-1.28,3,.8,3.61a50.15,50.15,0,0,0,4.93,1.05Z"/><path d="M182.92,387.91c-.2-2.41-.56-4.82-.52-7.22,0-1.09.85-2.16,1.32-3.24a10.44,10.44,0,0,1,2.42,1.33c3.93,3.83,7.8,7.73,11.64,11.65a7.34,7.34,0,0,1,1,1.92c-1-.33-2.17-.4-2.87-1-2.21-2-4.22-4.2-6.34-6.3-.21-.2-.67-.16-1-.24a4.44,4.44,0,0,0,.13.91c.57,1.69,1.22,3.35,1.71,5.05a4.35,4.35,0,0,1-.23,1.71c-.7-.23-1.89-.3-2-.72-.56-1.67-.66-3.49-1.19-5.18a44.94,44.94,0,0,0-2-4.69c0-.08-.16-.13-.24-.2a4.34,4.34,0,0,0,0,.72c.39,2.71.86,5.42,1.13,8.15.07.61-.42,1.74-.88,1.87-1.19.34-2-.07-1.7-1.68a7.8,7.8,0,0,0-.61-2.78Z"/><path d="M71.22,179.05c0,1.7,0,3.07,0,4.44s-.27,2.86-.41,4.29c-2.14-.23-4.31.91-6.17-1.77A17,17,0,0,1,62,172.24c.4-2,1.72-4.2,3.82-3.55A8.71,8.71,0,0,1,70.3,173C71.21,174.82,71,177.21,71.22,179.05Zm-7.94-1.83-.5.4c1.18,2.61,2.34,5.24,3.56,7.83.14.29.61.42.93.63.11-.35.23-.69.34-1a11.44,11.44,0,0,0,.5-5.45c-.35-2.12-.45-4.29-.85-6.39a2.1,2.1,0,0,0-1.42-1.4c-.47,0-1.26.71-1.48,1.28A35.93,35.93,0,0,0,63.28,177.22Z"/><path d="M421,290.77c2.19-.11,2.25.56,1.5,2.13-1.54,3.19-2.37,6.55-1.31,10.11.13.42.32.82.48,1.23.34-.31.82-.55,1-.93,1.83-3.68,3.58-7.39,5.43-11.06.28-.54,1-.86,1.5-1.28.21.61.76,1.39.56,1.82-1.95,4.4-3.86,8.84-6.16,13.07-1.22,2.24-3.11,1.7-4.41-.48a13.25,13.25,0,0,1-1.7-10.08C418.37,293.34,419.17,291.6,421,290.77Z"/><path d="M337,80.07c7.81-3.2,15.79-3.06,23.71-.69,3.48,1,6.74,2.77,10.1,4.21a4.15,4.15,0,0,1,.78.56,2.83,2.83,0,0,1-1,.08c-2.45-.63-4.95-1.12-7.32-2a39.27,39.27,0,0,0-23.19-1.51,6.81,6.81,0,0,1-2.25-.24Z"/><path d="M424.47,396.23a8.82,8.82,0,0,1-.07-2.11,4.59,4.59,0,0,1,.85-1.31c.41.39,1.22.82,1.18,1.15a64.28,64.28,0,0,1-1.49,9.93c-.6,2.16-3.42,2.28-4.9.3-1.69-2.27-2.93-4.89-4.69-7.1-.91-1.15.81-2.95-1.2-3.53a6.57,6.57,0,0,1,.4-.69c.63.29,1.52.47,1.8,1,1.38,2.53,2.56,5.16,3.89,7.71.29.55.88,1.28,1.34,1.3.71,0,2-.39,2.07-.83A58.14,58.14,0,0,0,424.47,396.23Z"/><path d="M202.41,438.61c-.3.51-.54,1.42-.91,1.48-6.15.92-12.37,1.46-18.44,2.71-3.16.65-6.06,2.52-9.08,3.84a4.23,4.23,0,0,1-1.1.48,14.12,14.12,0,0,1-1.84,0c.42-.49.74-1.17,1.26-1.42a25.12,25.12,0,0,1,4.73-1.86q9.78-2.35,19.61-4.49a56.38,56.38,0,0,1,5.84-.66Z"/><path d="M173.53,85.05c-.56.35-.81.55-1.09.68-3.67,1.66-7.33,3.33-11,4.93a4.43,4.43,0,0,1-1.76-.08c.16-.72.09-1.9.49-2.09,2.87-1.33,5.79-2.55,8.77-3.6a10.1,10.1,0,0,1,3.3,0A10.69,10.69,0,0,1,173.53,85.05Z"/><path d="M200.24,452.24a27.08,27.08,0,0,1-3.59,2.52c-3.55,1.61-7.16,3.09-10.75,4.61a2.1,2.1,0,0,1-.92.26,15.25,15.25,0,0,1-1.76-.36,7.45,7.45,0,0,1,1.48-1.13c3.24-1.37,6.54-2.62,9.77-4,1.17-.51,2.15-1.44,3.31-2C198.24,451.89,199,452.15,200.24,452.24Z"/><path d="M100.41,328.53c-.33,1-.55,2-.92,2.82-1.26,2.95-2.52,5.9-3.92,8.77-.24.51-1.18.68-1.79,1,0-.65-.2-1.43.08-1.92a48.46,48.46,0,0,0,4.57-10.86c.14-.49.84-.81,1.28-1.21Z"/><path d="M117.5,392.65a5.94,5.94,0,0,1-1.61-.81c-2-1.92-4-3.86-5.85-5.89-.42-.45-.45-1.26-.65-1.9.72.14,1.68,0,2.14.47,2.42,2.28,4.71,4.69,7,7.07a2.65,2.65,0,0,1,.35.56Z"/><path d="M345.43,83.65c2.8-.28,5.6-.77,8.4-.78a43.48,43.48,0,0,1,6.65.89,2.81,2.81,0,0,1,.81.44,2.94,2.94,0,0,1-1,.34q-10,0-20,0c-.26,0-.51-.22-.77-.33.28-.16.54-.44.83-.47,1.68-.16,3.36-.27,5-.4Z"/><path d="M337,80.07l.84.42c-2.23,1.35-4.45,2.71-6.69,4-.17.1-.56-.17-.85-.28.13-.34.17-.86.42-1C332.81,82.14,334.92,81.12,337,80.07Z"/><path d="M64.36,343.28c-2-.31-4.09-.6-6.14-.94a3.07,3.07,0,0,1-.81-.44,3,3,0,0,1,.84-.27q6.33,0,12.66,0a4.29,4.29,0,0,1,.9.24,3.68,3.68,0,0,1-1,.51C68.7,342.69,66.57,343,64.36,343.28Z"/><path d="M424.19,231.53c-1.15,2.27-2.25,4.56-3.5,6.78-.2.37-1,.39-1.55.57a6.53,6.53,0,0,1,.32-1.47,16.14,16.14,0,0,1,1.86-3.63,14.42,14.42,0,0,1,2.92-2.2Z"/></g><path d="M74,186.85a5,5,0,0,1,0,1.09l.09-.67a2.64,2.64,0,0,1-.15.55l.25-.6a1.51,1.51,0,0,1-.2.35l.39-.5a1.88,1.88,0,0,1-.24.25l.5-.39-.07,0,3.42,3.42c.15-.31.3-.62.46-.93a5.61,5.61,0,0,1,.49-.86l-.39.5a1.14,1.14,0,0,1,.22-.22l-.51.39a1.57,1.57,0,0,1,.25-.14l-.59.25a1.69,1.69,0,0,1,.44-.12l-.66.09a4.6,4.6,0,0,1,.91,0l-.67-.09.07,0-1.1-.64,0,0-.39-.5v0l-.25-.59v0l-.09-.67v0l.08-.66a2.58,2.58,0,0,1-.08.26l.25-.6a2.6,2.6,0,0,1-.21.36l.39-.51a1.8,1.8,0,0,1-.19.2,1.92,1.92,0,0,0-.52.8,2.32,2.32,0,0,0,0,1.93,2,2,0,0,0,.52.81,2.55,2.55,0,0,0,1.77.73l.66-.09A2.53,2.53,0,0,0,80,189.6a4.81,4.81,0,0,0,.6-.75,1.29,1.29,0,0,0,.19-.32,4.57,4.57,0,0,0,.34-.85,2.68,2.68,0,0,0-.7-2.57,2.64,2.64,0,0,0-1.17-.67,4.6,4.6,0,0,0-.79-.1h-.3a6.15,6.15,0,0,0-1.29.15,3.75,3.75,0,0,0-2.43,1.86c-.29.5-.54,1-.79,1.53l-.25.6a2,2,0,0,0-.05,1,1.31,1.31,0,0,0,.18.63,1.83,1.83,0,0,0,.51.8,3,3,0,0,0,1.11.65,1.85,1.85,0,0,0,1,0,1.74,1.74,0,0,0,.93-.3A4.05,4.05,0,0,0,78.31,190a1.43,1.43,0,0,0,.15-.27,8.51,8.51,0,0,0,.34-.83,6,6,0,0,0,.15-2.07,2.43,2.43,0,0,0-1.53-2.28,1.9,1.9,0,0,0-1-.22,2.49,2.49,0,0,0-1.76.74,2.45,2.45,0,0,0-.74,1.76Z"/><path d="M68.08,190.27c3.22,0,3.22-5,0-5s-3.22,5,0,5Z"/><path d="M69.28,185.63a4,4,0,0,1-.56-.34l.51.39a3.59,3.59,0,0,1-.59-.58l.39.51-.17-.24a2.59,2.59,0,0,0-1.49-1.15,1.89,1.89,0,0,0-1-.05,2,2,0,0,0-.93.3A2.53,2.53,0,0,0,64.29,186a2.69,2.69,0,0,0,.25,1.93,6,6,0,0,0,.39.59,9.12,9.12,0,0,0,.83,1,7.68,7.68,0,0,0,1.58,1.26,2,2,0,0,0,.93.3,1.89,1.89,0,0,0,1,0,2.63,2.63,0,0,0,1.49-1.15l1.29-2-4.57-.6.46,3a1.78,1.78,0,0,0,.44.85,1.9,1.9,0,0,0,.7.65,2,2,0,0,0,.93.3,2,2,0,0,0,1,0,2.55,2.55,0,0,0,1.5-1.15l.25-.6a2.46,2.46,0,0,0,0-1.32l-.46-3-.25-.6-.39-.5-.51-.39a1.71,1.71,0,0,0-.93-.3,2.5,2.5,0,0,0-1.29.17,1.27,1.27,0,0,0-.55.32,1.9,1.9,0,0,0-.65.7l-1.28,2,3.42-.9a5.25,5.25,0,0,1-.49-.33l.51.39a5.45,5.45,0,0,1-1-1l.39.51a6.36,6.36,0,0,1-.46-.69l-4.32,2.52A6,6,0,0,0,66.75,190a1.85,1.85,0,0,0,.93.29,1.89,1.89,0,0,0,1,0,2.52,2.52,0,0,0,1.75-3.08,2.5,2.5,0,0,0-1.15-1.49Z"/><path d="M110.85,138.94a18,18,0,0,0-3.66.37,17.72,17.72,0,0,0-3.47,1.17,2.53,2.53,0,0,0-1.15,1.49,2.5,2.5,0,0,0,1.75,3.08l.66.09a2.53,2.53,0,0,0,1.26-.34l.2-.09-.59.25a14.73,14.73,0,0,1,3.62-1l-.66.09a14,14,0,0,1,2-.12,2.59,2.59,0,0,0,1.77-.73,2.57,2.57,0,0,0,.73-1.77,2.54,2.54,0,0,0-2.5-2.5Z"/><path d="M110.18,133.45a3.62,3.62,0,0,1,.25-.91l-.25.6a17.19,17.19,0,0,1,2.27-3.58l-.39.51a25.11,25.11,0,0,1,2.1-2.39,2.5,2.5,0,1,0-3.53-3.54,28.35,28.35,0,0,0-3.11,3.73,21.32,21.32,0,0,0-1.17,1.8,6.88,6.88,0,0,0-1,2.45,2.75,2.75,0,0,0,.25,1.93,2.48,2.48,0,0,0,3.42.89,2.33,2.33,0,0,0,1.15-1.49Z"/><path d="M117.33,124.1l.33-.26-.51.39a19.2,19.2,0,0,1,2.53-1.64,5.37,5.37,0,0,0,2.61-2.34,1.79,1.79,0,0,0,.29-.93,1.85,1.85,0,0,0,0-1,2.58,2.58,0,0,0-1.15-1.5,2.55,2.55,0,0,0-1.93-.25,2.44,2.44,0,0,0-1.49,1.15,2.3,2.3,0,0,1-.23.4l.39-.51a3.33,3.33,0,0,1-.42.42l.5-.4a20.54,20.54,0,0,1-1.92,1.13,24.67,24.67,0,0,0-2.5,1.79,2.51,2.51,0,0,0,0,3.54,2.51,2.51,0,0,0,1.77.73l.66-.09a2.48,2.48,0,0,0,1.11-.64Z"/><path d="M125.37,109.1q-2.52,3.87-4.9,7.83a2.5,2.5,0,0,0,4.32,2.52q2.38-4,4.9-7.83a2.52,2.52,0,0,0-.89-3.42,2.57,2.57,0,0,0-3.43.9Z"/><path d="M147.88,92.24a1.11,1.11,0,0,1,0,.17l-.08-.66a4,4,0,0,1,0,1l.09-.67a3.56,3.56,0,0,1-.14.63,1.85,1.85,0,0,0,0,1,1.79,1.79,0,0,0,.29.93,1.9,1.9,0,0,0,.65.7,1.8,1.8,0,0,0,.85.45l.66.09a2.47,2.47,0,0,0,1.27-.34l.5-.39a2.41,2.41,0,0,0,.64-1.1,3.9,3.9,0,0,0,.12-.46,10.38,10.38,0,0,0,.14-1.12,6.94,6.94,0,0,0-.14-1.58,1.89,1.89,0,0,0-.45-.85,1.83,1.83,0,0,0-.7-.65,2,2,0,0,0-.93-.3,2,2,0,0,0-1,0l-.59.25a2.43,2.43,0,0,0-.9.9l-.25.6a2.47,2.47,0,0,0,0,1.32Z"/><path d="M123.29,96.65v1.27a1.9,1.9,0,0,0,.22,1,1.82,1.82,0,0,0,.52.8,1.85,1.85,0,0,0,.8.52,1.88,1.88,0,0,0,1,.21l.67-.09a2.41,2.41,0,0,0,1.1-.64l.39-.5a2.47,2.47,0,0,0,.34-1.27V96.65a1.89,1.89,0,0,0-.21-1,1.82,1.82,0,0,0-.52-.8,1.85,1.85,0,0,0-.8-.52,1.89,1.89,0,0,0-1-.21l-.66.09a2.41,2.41,0,0,0-1.1.64l-.39.5a2.58,2.58,0,0,0-.35,1.27Z"/><path d="M168.68,88.67c2-.94,4.09-2,6.18-2.83l-.6.25a6.65,6.65,0,0,1,1.56-.46l-.67.09.44,0a2.5,2.5,0,0,0,0-5,14,14,0,0,0-5.16,1.7l-4.28,2A2.5,2.5,0,0,0,165,85.85a2.52,2.52,0,0,0,1.75,3.08,2.89,2.89,0,0,0,1.93-.26Z"/><path d="M166.62,89.06a17.58,17.58,0,0,0,3.16-1.16c.88-.39,1.75-.8,2.62-1.2a2.51,2.51,0,0,0,1.15-1.5,2.57,2.57,0,0,0-.25-1.92,2.5,2.5,0,0,0-1.5-1.15l-.66-.09a2.43,2.43,0,0,0-1.26.34c-1,.48-2.1,1-3.16,1.43l.6-.25a12.1,12.1,0,0,1-2,.68,2.49,2.49,0,0,0-1.49,1.15,2.53,2.53,0,0,0-.26,1.92,2.56,2.56,0,0,0,3.08,1.75Z"/><path d="M199.61,86.14a9.22,9.22,0,0,1,2.06.55l-.6-.25a3.64,3.64,0,0,1,.88.5l-.5-.39a2.61,2.61,0,0,1,.53.52l-.39-.51a.61.61,0,0,1,.07.1l-.26-.6a.23.23,0,0,1,0,.11l-.09-.66v.11l.09-.66c-.05.33-.1.66-.16,1a2,2,0,0,0,0,1,1.8,1.8,0,0,0,.3.93A2.67,2.67,0,0,0,203,89a2.5,2.5,0,0,0,1.93-.25l.5-.39a2.52,2.52,0,0,0,.65-1.1l.12-.85a3.6,3.6,0,0,0,0-1.6,3,3,0,0,0-.73-1.31,3.26,3.26,0,0,0-.46-.45,7.49,7.49,0,0,0-1-.74,9.72,9.72,0,0,0-3.11-1,1.86,1.86,0,0,0-1,0,2.31,2.31,0,0,0-1.64.94,1.83,1.83,0,0,0-.44.85,2.5,2.5,0,0,0,.25,1.93,2.46,2.46,0,0,0,1.49,1.15Z"/><path d="M214.14,86.21c1,0,2-.1,3-.08a8.35,8.35,0,0,1,1.5.11c-.44-.1,0,0,.19,0l.73.17c1.86.48,3.55,1.45,5.4,1.94a2.5,2.5,0,1,0,1.33-4.82c-1.92-.51-3.67-1.53-5.61-2a23,23,0,0,0-6.57-.36,2.5,2.5,0,0,0,0,5Z"/><path d="M294.26,78.87a34.61,34.61,0,0,0,3.16,7.84,11.87,11.87,0,0,1,1.79,6.82,2.5,2.5,0,1,0,5,0,16.62,16.62,0,0,0-2.07-8.62c-.31-.57-.63-1.13-.95-1.69-.17-.32-.35-.65-.51-1l-.24-.5c-.13-.28-.15-.34-.08-.18a37.56,37.56,0,0,1-1.28-4,2.5,2.5,0,1,0-4.82,1.33Z"/><path d="M309.72,84.92a4.16,4.16,0,0,0,1.57,1.6,5.85,5.85,0,0,0,2.36.57L313,87c.72.11,1.36.46,2,.63a18.14,18.14,0,0,1,2.09.49l-.6-.25a2.8,2.8,0,0,1,.56.32l-.5-.39a2.81,2.81,0,0,1,.31.29,2.53,2.53,0,0,0,3.54,0,2.55,2.55,0,0,0,0-3.53,6.19,6.19,0,0,0-3.64-1.66,9.72,9.72,0,0,1-1.51-.45,8.1,8.1,0,0,0-2.14-.4l.67.08a1.76,1.76,0,0,1-.41-.1l.59.25a1.79,1.79,0,0,1-.42-.25l.51.39a2.47,2.47,0,0,1-.28-.28l.39.5a1.28,1.28,0,0,1-.15-.25,2.52,2.52,0,0,0-3.42-.9,2.56,2.56,0,0,0-.9,3.43Z"/><path d="M329.88,87.15c1.93-1,3.85-2.06,5.8-3.05.87-.44,1.86-.93,2.68-1.27a11.35,11.35,0,0,1,2.8-.93A1.92,1.92,0,0,0,343,80a1.89,1.89,0,0,0-1.87-1.87c-2.44.22-4.8,1.42-7,2.5s-4.15,2.17-6.21,3.26a1.88,1.88,0,0,0,1.89,3.24Z"/><path d="M332.28,88.18c3.07-.23,6.08-1,9.13-1.43s6.32-.63,9.5-.74c1.55-.05,3.1-.06,4.65-.06a27.62,27.62,0,0,1,4.55.15,26,26,0,0,1,4,1.29L368.77,89c2.28.81,3.27-2.82,1-3.61l-4.66-1.64a27.07,27.07,0,0,0-4.21-1.33,49.41,49.41,0,0,0-9.5-.19c-3.18.09-6.35.3-9.51.69s-6.4,1.25-9.61,1.49c-2.4.17-2.42,3.92,0,3.75Z"/><path d="M365.55,84.12a13.25,13.25,0,0,1,2.89.89l.39.16c.28.11-.24-.11,0,0s.41.18.61.29a8.5,8.5,0,0,1,1.22.75c.22.15-.22-.2,0,0l.23.2.51.45.95.88a11.55,11.55,0,0,0,2.39,1.73,1.88,1.88,0,1,0,1.9-3.24,7.57,7.57,0,0,1-1.15-.71c.32.23-.1-.1-.2-.19s-.34-.3-.51-.45a25.78,25.78,0,0,0-2.32-2,13.49,13.49,0,0,0-2.87-1.43,13.85,13.85,0,0,0-3.05-1,1.94,1.94,0,0,0-2.31,1.31,1.91,1.91,0,0,0,1.31,2.31Z"/><path d="M339.37,114.52a12.06,12.06,0,0,0-.26,1.9c0,.25,0,.5,0,.74a3.32,3.32,0,0,1,0,.63l.07-.5a.45.45,0,0,1,0,.11l.19-.45,0,.06.3-.38,0,0,.38-.3,0,0a1.34,1.34,0,0,0-.52.48,1.37,1.37,0,0,0-.34.64,1.91,1.91,0,0,0,.19,1.44,1.86,1.86,0,0,0,1.12.86,1.81,1.81,0,0,0,1.44-.18,2.42,2.42,0,0,0,.77-.79,2.27,2.27,0,0,0,.29-1.09c0-.2,0-.41,0-.62a9.34,9.34,0,0,1,.08-1.39l-.07.5a6,6,0,0,1,.13-.72,2,2,0,0,0-.19-1.45,1.92,1.92,0,0,0-1.12-.86,1.89,1.89,0,0,0-1.45.19,1.83,1.83,0,0,0-.86,1.12Z"/><path d="M349,119.21c-.35-1.75-1.62-3-2.35-4.6a1.89,1.89,0,0,0-1.12-.86,1.86,1.86,0,0,0-1.44.19,1.88,1.88,0,0,0-.87,1.12l-.06.49a1.85,1.85,0,0,0,.25,1c.54,1.15,1.39,2.12,1.89,3.28l-.18-.44a5.16,5.16,0,0,1,.27.87,1.89,1.89,0,0,0,.86,1.12,1.87,1.87,0,0,0,2.56-.67,2,2,0,0,0,.19-1.45Z"/><path d="M334.26,133.43a19.66,19.66,0,0,1,.87,3.31c.18,1.09.22,2.29.45,3.41.38,1.91,1.53,3.95,1.75,5.7a1.93,1.93,0,0,0,1.87,1.88,1.89,1.89,0,0,0,1.88-1.88,16.16,16.16,0,0,0-.87-3.5,25.91,25.91,0,0,1-1-3c-.25-1.09-.28-2.25-.45-3.38a19,19,0,0,0-.92-3.56,1.93,1.93,0,0,0-2.3-1.31,1.88,1.88,0,0,0-1.31,2.31Z"/><path d="M374.82,136.46c.64,1.32,1.93,2,2.81,3.16l-.29-.38a6.24,6.24,0,0,1,.77,1.32l-.19-.45c.06.14.11.28.16.43a1.88,1.88,0,0,0,2.31,1.31,1.93,1.93,0,0,0,1.12-.86,1.89,1.89,0,0,0,.19-1.45,8,8,0,0,0-1.78-3,24.77,24.77,0,0,1-1.79-1.76l.29.38a3.58,3.58,0,0,1-.36-.59,1.86,1.86,0,0,0-1.12-.86,1.86,1.86,0,0,0-2.31,1.31,2.12,2.12,0,0,0,.19,1.44Z"/><path d="M399.71,190.44c.15-.22.31-.44.48-.65l-.3.38a7.19,7.19,0,0,1,1.17-1.23l-.37.29a3.44,3.44,0,0,1,.78-.47L401,189a1.06,1.06,0,0,1,.25-.09l-.5.06h.05l-.5-.07h0l-.45-.19,0,0-.38-.29,0,0-.3-.38,0,0-.19-.45v0l-.07-.5v.11l.06-.49a2.45,2.45,0,0,1-.08.29l.18-.44a2.4,2.4,0,0,1-.27.46l.3-.38a7,7,0,0,1-.53.57,1.9,1.9,0,0,0-.55,1.32,2,2,0,0,0,.55,1.33,1.9,1.9,0,0,0,1.33.55,2,2,0,0,0,1.32-.55,4.89,4.89,0,0,0,.44-.47,4.62,4.62,0,0,0,.61-.84,3.25,3.25,0,0,0,.39-1.42,2.42,2.42,0,0,0-.07-.54,1.3,1.3,0,0,0-.1-.26,2.18,2.18,0,0,0-.42-.66,2.14,2.14,0,0,0-.86-.5l-.3,0a.7.7,0,0,0-.29,0l-.5.07a4.78,4.78,0,0,0-.48.19,5.11,5.11,0,0,0-.48.22,2.78,2.78,0,0,0-.51.33,7.62,7.62,0,0,0-1.23,1.11c-.39.47-.76,1-1.11,1.46a1.31,1.31,0,0,0-.22.69,1.37,1.37,0,0,0,0,.75,1.88,1.88,0,0,0,2.31,1.31l.44-.19a1.82,1.82,0,0,0,.68-.67Z"/><path d="M407.06,189.12l0-2-1.37,1.81s.05,0,.08,0l-.5.07h.09l-.5-.07.13,0-.45-.19.12.07-.38-.29.16.16-.29-.38c.08.12.15.25.24.37a3.18,3.18,0,0,0,.9.89,6.13,6.13,0,0,0,1.08.48l-.44-.19a1.35,1.35,0,0,1,.33.19l-.38-.3.14.14-.29-.38a1,1,0,0,1,.1.17l-.19-.44a5.12,5.12,0,0,1,.15.56,2.58,2.58,0,0,0,.71,1.24l.38.3a1.44,1.44,0,0,0,.7.22,1,1,0,0,0,.49,0,1.44,1.44,0,0,0,.7-.22,2.17,2.17,0,0,0,.67-.68,1.32,1.32,0,0,0,.23-.69,1.47,1.47,0,0,0,0-.75,12.4,12.4,0,0,0-2.33-3.86,1.88,1.88,0,0,0-1.32-.55,1.9,1.9,0,0,0-1.33.55,1.86,1.86,0,0,0-.55,1.32l.07.5a1.93,1.93,0,0,0,.48.83l.37.45-.29-.38a11.44,11.44,0,0,1,1.42,2.44l-.19-.45.06.15,3.13-1.83a.34.34,0,0,1-.08-.09l.29.38a.56.56,0,0,1-.09-.17l.19.45a5,5,0,0,1-.14-.52,2.85,2.85,0,0,0-.66-1.22,4.06,4.06,0,0,0-1.63-.92l.45.19a1.41,1.41,0,0,1-.34-.19l.38.29a.75.75,0,0,1-.16-.15l.3.38a7.61,7.61,0,0,0-.69-.92,2.37,2.37,0,0,0-2.28-.59l-.45.19a1.42,1.42,0,0,0-.52.48,1.83,1.83,0,0,0-.41,1.14l0,2a1.92,1.92,0,0,0,.54,1.33,2,2,0,0,0,1.33.55,1.88,1.88,0,0,0,1.33-.55,2,2,0,0,0,.55-1.33Z"/><path d="M415.18,186.53a10,10,0,0,0,1.05,3.83c.73,1.43,2.17,3,3.91,2,1.55-.91,1.57-2.81.9-4.26-.23-.52-.56-1-.83-1.46,0,0-.14-.29-.07-.12a2.85,2.85,0,0,1-.14-.5c0-.11,0-.13,0-.05s0,.06,0,0,0-.14,0-.06a.52.52,0,0,1-.1.26l-.67.68.1-.08-.95.26c-.46-.14-.52-.14-.19,0l.42.2.62.3,1.45.69c1,.47,1.95.91,2.9,1.41,1.83,1,3.28,2.37,5.45,2.51a1.9,1.9,0,0,0,1.88-1.88,1.92,1.92,0,0,0-1.88-1.87c-.5,0,.24.11-.23,0,0,0-.54-.2-.24-.06a8,8,0,0,1-.9-.51c-.64-.41-1.25-.86-1.91-1.22-1.5-.83-3.09-1.52-4.63-2.26a6.34,6.34,0,0,0-2.74-1c-1.49.06-2.15,1.46-2.12,2.79a5.72,5.72,0,0,0,.82,2.69c.2.35.42.67.61,1l.09.17c-.07-.15-.07-.13,0,.08,0-.54-.19-1.11,1.11-1.07l.95.26c.07,0,.2.3.1.1s-.19-.29-.27-.43l-.24-.44s-.17-.41-.09-.2a8.57,8.57,0,0,1-.27-.86c0-.16-.07-.33-.1-.49.05.3,0-.28,0-.3a1.88,1.88,0,1,0-3.75,0Z"/><path d="M420.47,204.39a13,13,0,0,0,.58,2.2,7.82,7.82,0,0,0,.63,1.34c.29.45.65.85,1,1.27l-.29-.38a16.6,16.6,0,0,1,1.11,2.08,1.88,1.88,0,0,0,3.24-1.89c-.26-.47-.46-1-.71-1.45a10.75,10.75,0,0,0-1.17-1.6l.3.38a5,5,0,0,1-.6-1.05l.19.45a12.74,12.74,0,0,1-.63-2.35,1.9,1.9,0,0,0-2.31-1.31,1.94,1.94,0,0,0-1.31,2.31Z"/><path d="M448.86,201.27a1.88,1.88,0,0,0,0-3.75,1.88,1.88,0,0,0,0,3.75Z"/><path d="M423.11,228.07c-1.32,2.7-3,5.22-4.39,7.88a76,76,0,0,0-3.75,8.33,1.9,1.9,0,0,0,1.31,2.3,1.92,1.92,0,0,0,2.31-1.31,70,70,0,0,1,3.5-7.69c1.36-2.57,3-5,4.26-7.61a1.92,1.92,0,0,0-.67-2.57,1.9,1.9,0,0,0-2.57.67Z"/><path d="M427.63,238.28a12.68,12.68,0,0,0,.29,3.63l.19.44a1.45,1.45,0,0,0,.48.53,1.82,1.82,0,0,0,1.14.4,2.19,2.19,0,0,0,.94-.25,1.86,1.86,0,0,0,.86-1.12l.43-2,.21-1a4.34,4.34,0,0,1,.21-.88l-.19.44a.41.41,0,0,1,.05-.09l-.29.38.07-.07-.38.29.05,0-2.57-.68.21.48-.19-.44a9.4,9.4,0,0,1,.7,2.26l-.07-.5a4.41,4.41,0,0,1,.05.81h3.75c0-1.15,0-2.3-.1-3.44a2,2,0,0,0-.55-1.33,1.92,1.92,0,0,0-1.32-.55,2,2,0,0,0-1.33.55,1.86,1.86,0,0,0-.55,1.33c.09,1.14.12,2.29.1,3.44a1.88,1.88,0,0,0,1.88,1.88,1.92,1.92,0,0,0,1.87-1.88,10.79,10.79,0,0,0-1.21-4.5,1.89,1.89,0,0,0-1.12-.86,1.93,1.93,0,0,0-1.45.19,2.55,2.55,0,0,0-1.14,1.73l-.24,1.13-.49,2.31h3.61c-.06-.3-.11-.6-.16-.91l.07.5a11.77,11.77,0,0,1-.06-2.22,1.82,1.82,0,0,0-.55-1.32,1.86,1.86,0,0,0-1.32-.55,1.88,1.88,0,0,0-1.33.55,2.07,2.07,0,0,0-.55,1.32Z"/><path d="M438.07,240.87a1.88,1.88,0,0,0,0-3.75,1.88,1.88,0,0,0,0,3.75Z"/><path d="M439.9,238.43a21.58,21.58,0,0,0-.52-2.25,1.88,1.88,0,0,0-3.62,1,29.82,29.82,0,0,0,1.34,5.36,1.88,1.88,0,0,0,3.68-.5l0-2.79-1.88,1.88c1.29.09,2.57.17,3.84.32l.44.06c.22,0-.25,0,.11,0l1,.17c.63.12,1.26.26,1.87.43a1.88,1.88,0,1,0,1-3.62,42.84,42.84,0,0,0-8.29-1.12,1.89,1.89,0,0,0-1.87,1.87l0,2.79,3.68-.49a30.22,30.22,0,0,1-1.33-5.36l-3.62,1a22.42,22.42,0,0,1,.53,2.26,1.88,1.88,0,0,0,2.3,1.31,1.93,1.93,0,0,0,1.31-2.31Z"/><path d="M419.21,289l-1.41,3.46-.06.5.06.5a1.92,1.92,0,0,0,2.76,1.12,10.92,10.92,0,0,0,1.59-1.05,5.26,5.26,0,0,0,1.15-1.33c.46-.72.76-1.53,1.27-2.22l-.29.38a3.3,3.3,0,0,1,.48-.51l-3.13-.83v.07l-.06-.5v.06l.07-.49a11.15,11.15,0,0,1-.52,1.31l.19-.45c-.43,1-.9,2-1.41,3a2,2,0,0,0-.19,1.44,1.89,1.89,0,0,0,2.31,1.31,1.83,1.83,0,0,0,1.12-.86c.4-.76.77-1.54,1.12-2.33.23-.51.44-1,.66-1.54.08-.19.15-.39.23-.59a2.3,2.3,0,0,0,.09-1.42,1.83,1.83,0,0,0-1.31-1.3,1.91,1.91,0,0,0-1.82.48,6,6,0,0,0-1.34,1.81,11.32,11.32,0,0,1-.93,1.62l.29-.38a4.12,4.12,0,0,1-.66.66l.37-.3a9.5,9.5,0,0,1-1.17.73l2.75,2.12,1.41-3.46a1.86,1.86,0,0,0-.19-1.44,2,2,0,0,0-1.12-.87,1.93,1.93,0,0,0-1.45.19l-.38.3a1.9,1.9,0,0,0-.48.82Z"/><path d="M427.51,288.31a15.44,15.44,0,0,1,0,3l.07-.5a6.35,6.35,0,0,1-.42,1.55l.19-.44a4.71,4.71,0,0,1-.33.63,1.88,1.88,0,1,0,3.24,1.89c1.14-1.86,1.14-4.06,1-6.17a2,2,0,0,0-.54-1.33,2,2,0,0,0-1.33-.55,1.92,1.92,0,0,0-1.88,1.88Z"/><path d="M413.82,339.68l0,2.29v1.1a11,11,0,0,1,0,1.15l.07-.5,0,.06.19-.45,0,0,.67-.67,0,0,.94-.25h0l1.33.55-.06-.05.3.38a5.91,5.91,0,0,1-.54-1l.19.45a6,6,0,0,1-.42-1.55l.07.5a8.72,8.72,0,0,0-.24-2.23,2.06,2.06,0,0,0-.67-1,1.74,1.74,0,0,0-1.14-.4,2.19,2.19,0,0,0-.94.25,2,2,0,0,0-.86,1.12l-1.05,2.54,3.69.5a9.31,9.31,0,0,1,0-2.3l-.07.5,0-.18-3.43.45,0,.06-.19-.44,0,.06-.07-.5a.33.33,0,0,1,0,.14l.07-.5-.06.2.19-.45c-.15.29-.36.54-.49.83a4.63,4.63,0,0,0-.47,1.52,4.84,4.84,0,0,0,0,1.37,5.13,5.13,0,0,0,.46,1.52,1.83,1.83,0,0,0,1.12.86,1.86,1.86,0,0,0,2.31-1.3l.06-.5a1.85,1.85,0,0,0-.25-.95l0-.07.19.45a2.53,2.53,0,0,1-.21-.76l.06.5a3.62,3.62,0,0,1,0-.87l-.07.5a3.44,3.44,0,0,1,.21-.76l-.19.45c.13-.29.32-.52.47-.79a2.7,2.7,0,0,0,.34-1,2.47,2.47,0,0,0-.27-1.46l-.29-.38-.38-.3a1.94,1.94,0,0,0-1.2-.22,1.81,1.81,0,0,0-.89.37,1.77,1.77,0,0,0-.67,1,11.44,11.44,0,0,0-.1,3,1.92,1.92,0,0,0,.55,1.32,1.9,1.9,0,0,0,1.07.52,1.86,1.86,0,0,0,1.2-.22l.38-.3a1.9,1.9,0,0,0,.48-.82l1-2.54h-3.61a1.18,1.18,0,0,1,.09.37l-.06-.5c0,.4,0,.8,0,1.2a8,8,0,0,0,.29,1.6,8.26,8.26,0,0,0,.57,1.42,2.41,2.41,0,0,0,2.08,1.61,2,2,0,0,0,1.87-1.45,3.43,3.43,0,0,0,.08-1.06v-1.28l0-2.75a2,2,0,0,0-.55-1.33,1.87,1.87,0,0,0-3.2,1.33Z"/><path d="M413.17,347a16.42,16.42,0,0,0,.78,6.57,2.11,2.11,0,0,0,.87,1.12,2,2,0,0,0,1.44.19,1.91,1.91,0,0,0,1.12-.87,1.78,1.78,0,0,0,.19-1.44,9.9,9.9,0,0,1-.6-2.32l.07.5a24.74,24.74,0,0,1-.12-3.75,1.88,1.88,0,1,0-3.75,0Z"/><path d="M375.9,352.16a7.93,7.93,0,0,0,4-1c1-.5,1.94-1.12,3-1.57a1.84,1.84,0,0,0,.87-1.12,2,2,0,0,0-.19-1.45,1.92,1.92,0,0,0-1.12-.86,2.21,2.21,0,0,0-1.45.19c-1.23.53-2.32,1.32-3.55,1.85l.44-.19a6.39,6.39,0,0,1-1.55.44l.5-.06a6.18,6.18,0,0,1-.86,0,1.89,1.89,0,0,0-1.88,1.87,1.93,1.93,0,0,0,1.88,1.88Z"/><path d="M388.65,344.57a38.43,38.43,0,0,1,6.11-3.79,1.9,1.9,0,0,0,.68-2.57,1.93,1.93,0,0,0-2.57-.67,39.79,39.79,0,0,0-6.12,3.8,2.05,2.05,0,0,0-.86,1.12,1.87,1.87,0,0,0,1.31,2.3,1.8,1.8,0,0,0,1.45-.19Z"/><path d="M362.9,345.32a23,23,0,0,0,6.1-1.62,26.89,26.89,0,0,1,5.79-1.77,1.85,1.85,0,0,0,1.34-2.05,1.87,1.87,0,0,0-1.84-1.63c-4.67,0-8.93,2-13,4.1l2.27,2.95a9.46,9.46,0,0,1,.74-.68c-.18.15.28-.19.27-.18a3.74,3.74,0,0,1,.42-.27,5.91,5.91,0,0,1,1.65-.75,1.88,1.88,0,0,0-1-3.62,11.73,11.73,0,0,0-4.74,2.84,1.88,1.88,0,0,0,2.27,2.95,46.32,46.32,0,0,1,5.41-2.47,16.46,16.46,0,0,1,5.7-1.12l-.5-3.68A26.11,26.11,0,0,0,368.2,340c-.9.35-1.79.69-2.71,1-.46.14-.91.27-1.38.37l-.7.14-.11,0-.4.05a1.88,1.88,0,1,0,0,3.75Z"/><path d="M356,375.17a5.76,5.76,0,0,1,.82.06l-.5-.07a25.59,25.59,0,0,1,4.58,1.36l1-3.61-5.51-1.47a1.88,1.88,0,0,0-2.21,1.09,1.85,1.85,0,0,0,.76,2.34,18,18,0,0,0,3,1.16,7.48,7.48,0,0,0,3.58.09,1.89,1.89,0,0,0,1.31-2.31,1.92,1.92,0,0,0-2.31-1.31,2.57,2.57,0,0,1-.4.08l.5-.07a4.9,4.9,0,0,1-1.43,0l.5.07a9.59,9.59,0,0,1-2.34-.71l.44.19-.93-.42-1.45,3.43,5.52,1.46a1.87,1.87,0,1,0,1-3.61,18.91,18.91,0,0,0-5.89-1.49,1.88,1.88,0,1,0,0,3.75Z"/><path d="M379.81,395.47a8.22,8.22,0,0,0,3.35-2.31,2,2,0,0,0,.55-1.33,2,2,0,0,0-.4-1.14,1.89,1.89,0,0,0-2.42-.48,12,12,0,0,0-1.63,1.2,11.32,11.32,0,0,0-1.33,1.52l3.23,1.89c.13-.21.26-.41.41-.61l-.29.38a12.77,12.77,0,0,1,1.56-1.56l-2.65-2.65a18.5,18.5,0,0,0-2.42,2.81l3.43,1.45c0-.07.05-.14.07-.21l-.18.45a3.37,3.37,0,0,1,.4-.68l-.3.38a8.26,8.26,0,0,1,.92-.95c.32-.3.61-.65.95-.93l-.38.3a.76.76,0,0,1,.19-.12l-.45.19.21-.07-.5.07h.15l-.5-.07.14,0-.45-.19.11.07-.38-.3a.39.39,0,0,1,.08.1l-.29-.38a.46.46,0,0,1,.09.17l-.18-.45a1,1,0,0,1,.06.25l-.07-.5a1.71,1.71,0,0,1,0,.32l.07-.5a1.81,1.81,0,0,1-.09.31l.19-.45a1.24,1.24,0,0,1-.17.27l.3-.38a1.67,1.67,0,0,1-.23.23l.38-.3-.17.1,1.9,3.24a15.41,15.41,0,0,0,2.34-2.08l-2.94-2.27-1.34,2.05a1.88,1.88,0,0,0,.67,2.56,1.91,1.91,0,0,0,2.57-.67l1.33-2.05a1.86,1.86,0,0,0,.19-1.44,1.91,1.91,0,0,0-.67-1,1.86,1.86,0,0,0-2.46.15,12.93,12.93,0,0,1-1.76,1.63l.38-.29-.21.15a2.12,2.12,0,0,0-.86,1.12,2,2,0,0,0,.19,1.45,1.93,1.93,0,0,0,2.57.67,3.07,3.07,0,0,0,1.57-2.84,2.67,2.67,0,0,0-1.22-2.17,2.51,2.51,0,0,0-2.54.05,6.66,6.66,0,0,0-1.05.93c-.24.23-.49.45-.72.69a6,6,0,0,0-1.53,2.33,1.91,1.91,0,0,0,.19,1.44,1.93,1.93,0,0,0,.9.77,1.83,1.83,0,0,0,1.22.1,2.14,2.14,0,0,0,1.12-.87l.4-.54-.29.38a17.15,17.15,0,0,1,1.72-1.89,1.89,1.89,0,0,0,0-2.65,1.86,1.86,0,0,0-1.32-.55,2.12,2.12,0,0,0-1.33.55,10.36,10.36,0,0,0-2.26,2.55,1.88,1.88,0,0,0,.67,2.56,1.86,1.86,0,0,0,1.44.19l.45-.19a1.8,1.8,0,0,0,.67-.67l0-.06-.29.38a8,8,0,0,1,1.45-1.45L382,394c.26-.19.52-.37.79-.53l-2.27-2.94a6.44,6.44,0,0,1-1,1l.38-.29a6.65,6.65,0,0,1-1.39.81l.45-.19-.15.06a2,2,0,0,0-1.12.86,2,2,0,0,0-.19,1.44,1.88,1.88,0,0,0,.87,1.12,1.82,1.82,0,0,0,1.44.19Z"/><path d="M394.14,391.7a16.48,16.48,0,0,0,.34,4,1.87,1.87,0,0,0,.87,1.12,2,2,0,0,0,1.44.19,1.93,1.93,0,0,0,1.12-.86,2,2,0,0,0,.19-1.45c-.07-.33-.13-.67-.17-1l.07.5a14,14,0,0,1-.11-2.51,1.86,1.86,0,0,0-.55-1.33,1.9,1.9,0,0,0-1.32-.55,1.88,1.88,0,0,0-1.33.55,2.09,2.09,0,0,0-.55,1.33Z"/><path d="M396.19,400.87a1.88,1.88,0,0,0,0-3.75,1.88,1.88,0,0,0,0,3.75Z"/><path d="M392.24,443.09a20.27,20.27,0,0,0,2.31,1.71,3.47,3.47,0,0,0,1.49.47l1.3.18a1.47,1.47,0,0,0,.75,0,1.39,1.39,0,0,0,.7-.23,1.87,1.87,0,0,0,.86-1.12,1.91,1.91,0,0,0-.19-1.44,1.79,1.79,0,0,0-1.12-.86l-1.1-.16a4.15,4.15,0,0,1-1.05-.2l.45.19a9.23,9.23,0,0,1-1.56-1.08l.38.3-.57-.46a2,2,0,0,0-1.32-.55,2,2,0,0,0-1.33.55,1.9,1.9,0,0,0-.55,1.33,1.84,1.84,0,0,0,.55,1.33Z"/><path d="M413.57,360.79a32.37,32.37,0,0,0,.57,9.21,1.89,1.89,0,0,0,2.31,1.31,1.92,1.92,0,0,0,1.31-2.31c-.08-.35-.15-.71-.21-1.07l-.09-.58c-.07-.42,0,.28,0-.17-.09-.7-.15-1.4-.19-2.1a30.72,30.72,0,0,1,.07-4.29,1.88,1.88,0,0,0-1.87-1.88,1.93,1.93,0,0,0-1.88,1.88Z"/><path d="M412.55,391.09a4.84,4.84,0,0,0-.09,1.07,5.33,5.33,0,0,0,.17,1.06,8.11,8.11,0,0,0,.66,1.58c.44.83.92,1.64,1.38,2.45a1.88,1.88,0,1,0,3.24-1.89,34.17,34.17,0,0,1-1.66-3l.19.45a4,4,0,0,1-.28-.95l.07.49a2.35,2.35,0,0,1,0-.65l-.07.5v-.08a2,2,0,0,0-.19-1.45,1.87,1.87,0,0,0-1.12-.86,1.9,1.9,0,0,0-1.44.19,1.79,1.79,0,0,0-.86,1.12Z"/><path d="M412.74,391.47a23.39,23.39,0,0,0,.8,3.6,1.88,1.88,0,0,0,2.31,1.31,1.88,1.88,0,0,0,1.31-2.31,22.27,22.27,0,0,1-.8-3.6,1.87,1.87,0,0,0-.87-1.12,1.91,1.91,0,0,0-1.44-.19,1.93,1.93,0,0,0-1.12.86l-.19.45a1.89,1.89,0,0,0,0,1Z"/><path d="M413.26,391.33a11.27,11.27,0,0,0,1.21,4.44,1.87,1.87,0,0,0,2.56.67,1.86,1.86,0,0,0,.86-1.12,2.09,2.09,0,0,0-.18-1.45,5.77,5.77,0,0,1-.27-.56l.19.44a9,9,0,0,1-.63-2.29l.07.5q0-.31-.06-.63a2,2,0,0,0-.55-1.32,1.9,1.9,0,0,0-1.33-.55,1.86,1.86,0,0,0-1.32.55,1.84,1.84,0,0,0-.55,1.32Z"/><path d="M423.49,391.43a11,11,0,0,0,.25,3.24,2.14,2.14,0,0,0,.86,1.12,2.17,2.17,0,0,0,1.45.19,1.93,1.93,0,0,0,1.12-.86,2.08,2.08,0,0,0,.19-1.45,7.09,7.09,0,0,1-.14-.78l.06.5a9.87,9.87,0,0,1,0-2,1.41,1.41,0,0,0-.16-.72,1.49,1.49,0,0,0-.39-.6,1.87,1.87,0,0,0-2.65,0l-.29.38a1.85,1.85,0,0,0-.26.94Z"/><path d="M301.37,453.27a1.88,1.88,0,0,0,0-3.75,1.88,1.88,0,0,0,0,3.75Z"/><path d="M326.12,437.63a1.88,1.88,0,0,0,0-3.75,1.88,1.88,0,0,0,0,3.75Z"/><path d="M281.34,435.27a33.28,33.28,0,0,0-8.45.72,1.89,1.89,0,0,0-1.31,2.31,1.93,1.93,0,0,0,2.31,1.31c.65-.14,1.3-.26,2-.36.08,0,.57-.12.11,0a3.8,3.8,0,0,1,.46-.05l1-.1a32,32,0,0,1,3.92-.06,1.88,1.88,0,0,0,0-3.75Z"/><path d="M291.8,450.15c0,.06,0,.12,0,.18l.07-.5a9.21,9.21,0,0,1-.32,1.28,4.29,4.29,0,0,0-.14.62,4.63,4.63,0,0,0-.09,1.11,1.37,1.37,0,0,0,.17.72,1.4,1.4,0,0,0,.38.61,1.34,1.34,0,0,0,.61.38,1.36,1.36,0,0,0,.72.16,1.89,1.89,0,0,0,1.32-.54,1.82,1.82,0,0,0,.55-1.33,2.33,2.33,0,0,1,0-.59l-.07.5a7,7,0,0,1,.27-1.07,7.93,7.93,0,0,0,.28-1.53,2.1,2.1,0,0,0-.55-1.33,1.49,1.49,0,0,0-.6-.39,1.53,1.53,0,0,0-.73-.16,1.88,1.88,0,0,0-1.32.55l-.3.38a1.85,1.85,0,0,0-.25.95Z"/><path d="M193.51,448.33a1.88,1.88,0,0,0,0-3.75,1.88,1.88,0,0,0,0,3.75Z"/><path d="M181.11,461.78a17.9,17.9,0,0,0,4.91-1,1.93,1.93,0,0,0,1.12-.86,1.88,1.88,0,0,0-.67-2.57,1.91,1.91,0,0,0-1.44-.19,21.45,21.45,0,0,1-3.34.83l.5-.07a7.85,7.85,0,0,1-1.08.08,2,2,0,0,0-1.33.55,1.88,1.88,0,0,0,1.33,3.2Z"/><path d="M204.73,440.6a37.23,37.23,0,0,0-4.41,6.22c-.62,1-1.25,2-1.95,3-.08.13-.17.25-.26.37-.35.47.11-.13-.1.13l-.58.69a15.75,15.75,0,0,1-1.35,1.36,1.89,1.89,0,0,0,0,2.65,1.91,1.91,0,0,0,2.65,0,26,26,0,0,0,4.64-6c.63-1,1.24-2,1.9-3q.49-.76,1-1.5l.1-.13.29-.35c.22-.26.44-.51.67-.75a1.87,1.87,0,1,0-2.65-2.65Z"/><path d="M204,437.8a46.33,46.33,0,0,0-8.65.52,1.83,1.83,0,0,0-1.12.86,1.86,1.86,0,0,0-.19,1.44,1.92,1.92,0,0,0,2.3,1.31l.48-.07c.22,0,.21,0,0,0l.24,0,1-.11c.67-.07,1.33-.12,2-.15,1.33-.08,2.67-.08,4,0a1.88,1.88,0,0,0,0-3.75Z"/><path d="M196.44,438.35a28,28,0,0,0-7.53.62c-2.64.66-5.25,1.54-7.87,2.32-4.61,1.38-9.52,2.48-13.25,5.7-1.83,1.58.83,4.22,2.65,2.65,3.27-2.82,8-3.67,12.06-4.87,2.32-.7,4.62-1.44,7-2.07a24.06,24.06,0,0,1,7-.6c2.42.07,2.41-3.68,0-3.75Z"/><path d="M180,454.69c5-1.77,9.49-4.63,14.4-6.59a1.94,1.94,0,0,0,1.31-2.31,1.89,1.89,0,0,0-2.3-1.31c-4.91,2-9.42,4.83-14.41,6.59a1.93,1.93,0,0,0-1.31,2.31,1.9,1.9,0,0,0,2.31,1.31Z"/><path d="M189.52,432.61a8.6,8.6,0,0,1,1.52.07l-.5-.07a9,9,0,0,1,2.29.63l-.44-.19a9.41,9.41,0,0,1,1.89,1.1A1.87,1.87,0,0,0,197,432a2.22,2.22,0,0,0-.86-1.12,10.52,10.52,0,0,0-6.65-2.05,1.88,1.88,0,1,0,0,3.75Z"/><path d="M161.38,438.46q4.31-4,8.8-7.7a1.88,1.88,0,0,0,0-2.65,1.92,1.92,0,0,0-2.65,0q-4.5,3.75-8.8,7.7a1.88,1.88,0,0,0,0,2.65,1.91,1.91,0,0,0,2.65,0Z"/><path d="M133.88,438.53a27.22,27.22,0,0,0,8.26-1.25,1.88,1.88,0,0,0-1-3.62,25.37,25.37,0,0,1-3.76.89l-.15,0-.43.05-1,.08c-.65.05-1.31.07-2,.07a1.88,1.88,0,0,0-1.87,1.87,1.92,1.92,0,0,0,1.87,1.88Z"/><path d="M155.72,434l4.79-1.61a30.21,30.21,0,0,1,4.68-1.26,1.88,1.88,0,0,0,1.31-2.3,1.93,1.93,0,0,0-2.31-1.31,29.41,29.41,0,0,0-4.68,1.26l-4.79,1.6a1.88,1.88,0,0,0,1,3.62Z"/><path d="M149.57,391.58a8.47,8.47,0,0,0,.46,1.56,11.4,11.4,0,0,0,.9,1.86,2,2,0,0,0,1.13.86,1.87,1.87,0,0,0,2.11-2.75,10.81,10.81,0,0,1-.66-1.26l.19.44a8.42,8.42,0,0,1-.51-1.71,1.91,1.91,0,0,0-.87-1.12,1.86,1.86,0,0,0-1.44-.19,1.93,1.93,0,0,0-1.12.86l-.19.45a1.89,1.89,0,0,0,0,1Z"/><path d="M158.29,392.12a6.42,6.42,0,0,0,.54,1.12,8.31,8.31,0,0,0,.77,1,11.73,11.73,0,0,0,1.19,1.15,1.92,1.92,0,0,0,1.32.55,1.36,1.36,0,0,0,.72-.16,1.28,1.28,0,0,0,.61-.39,1.86,1.86,0,0,0,.55-1.32,1.88,1.88,0,0,0-.55-1.33A11.44,11.44,0,0,1,162,391.3l.29.38a4.38,4.38,0,0,1-.55-.93l.18.45,0-.08A2,2,0,0,0,161,390a2.15,2.15,0,0,0-1.44-.19,1.9,1.9,0,0,0-1.12.86l-.19.45a1.89,1.89,0,0,0,0,1Z"/><path d="M168,392.11a7.45,7.45,0,0,0,1.65,3l.38.3.45.19.5.06a1.36,1.36,0,0,0,.72-.16.82.82,0,0,0,.41-.24.92.92,0,0,0,.34-.34.82.82,0,0,0,.24-.41,1.36,1.36,0,0,0,.16-.72,2.17,2.17,0,0,0,0-.51,5.8,5.8,0,0,0-.14-.93,6.28,6.28,0,0,0-.34-.85,2.43,2.43,0,0,0-.26-.44,1.45,1.45,0,0,0-.48-.53,1.4,1.4,0,0,0-.64-.33,1.47,1.47,0,0,0-.75,0,1.39,1.39,0,0,0-.7.23,1.87,1.87,0,0,0-.86,1.12l-.06.49a1.85,1.85,0,0,0,.25,1,2.82,2.82,0,0,1,.29.5L169,393a2.34,2.34,0,0,1,.19.7l-.07-.5a2.25,2.25,0,0,1,0,.58l3.2-1.33-.23-.28.29.38a6,6,0,0,1-.68-1.18l.19.45a6.44,6.44,0,0,1-.25-.74,1.47,1.47,0,0,0-.34-.64,1.42,1.42,0,0,0-.52-.48,2.17,2.17,0,0,0-1.45-.19,1.93,1.93,0,0,0-1.12.86,2,2,0,0,0-.19,1.45Z"/><path d="M182.46,391.6c0,.45,0,.91,0,1.36a2.61,2.61,0,0,0,.33,1.34,2.19,2.19,0,0,0,1.86,1.05,2.1,2.1,0,0,0,2-1.5,3.81,3.81,0,0,0,.08-.59.91.91,0,0,0,0-.17c0-.11,0-.22,0-.33a7,7,0,0,0-.23-1.75,1.87,1.87,0,0,0-.86-1.12l-.45-.19a1.47,1.47,0,0,0-.75,0,1,1,0,0,0-.47.13,1.49,1.49,0,0,0-.6.39,1.84,1.84,0,0,0-.55,1.33,12.09,12.09,0,0,0,.74,3.41,1.45,1.45,0,0,0,.33.64,1.36,1.36,0,0,0,.53.48,1.88,1.88,0,0,0,2.57-.67,1.82,1.82,0,0,0,.18-1.44,11,11,0,0,1-.61-2.38l.07.5a5,5,0,0,1-.06-.54l-3.68.49a4.21,4.21,0,0,1,.11.6l-.06-.5a4.9,4.9,0,0,1,0,1.21l.07-.5v0l.19-.44,0,.06.3-.38,0,0,.38-.3,0,0,.44-.19-.06,0,.5-.07h-.06l.5.06H185l.45.19-.06,0,.38.3-.05-.05.29.38,0-.07.19.44a.47.47,0,0,1,0-.16l.06.49c0-.24,0-.49,0-.74v-.79a1.92,1.92,0,0,0-.55-1.32,1.87,1.87,0,0,0-2.65,0,1.9,1.9,0,0,0-.55,1.32Z"/><path d="M187.31,391.68a5.68,5.68,0,0,0,.11,1,2.72,2.72,0,0,0,.15.54,5.24,5.24,0,0,0,.42.9l.29.39c.11.14.21.27.33.4a1.87,1.87,0,0,0,1.83.48,1.9,1.9,0,0,0,.82-.48,1.86,1.86,0,0,0,.49-.83,5,5,0,0,0,.1-1.27,4.85,4.85,0,0,0-.24-1.26,1.42,1.42,0,0,0-.34-.64,1.45,1.45,0,0,0-.53-.48,1.31,1.31,0,0,0-.69-.22,1.37,1.37,0,0,0-.75,0l-.45.19a2,2,0,0,0-.67.67l-.19.45a1.89,1.89,0,0,0,0,1,2.78,2.78,0,0,1,.16.63l-.07-.49a2.76,2.76,0,0,1,0,.76l.06-.5a.59.59,0,0,1,0,.13l3.13-.82-.18-.21.29.38a2.91,2.91,0,0,1-.35-.62l.19.45a2.38,2.38,0,0,1-.19-.68l.06.5c0-.14,0-.27,0-.41a1.52,1.52,0,0,0-.16-.72,1.72,1.72,0,0,0-1-1,1.42,1.42,0,0,0-.73-.16l-.5.07a1.9,1.9,0,0,0-.82.48l-.3.38a1.84,1.84,0,0,0-.25.94Z"/><path d="M196.53,392.82h.08l-.49-.07.12,0-.45-.18a.46.46,0,0,1,.15.09l-.38-.29c.23.19.43.41.65.61l.65.64,1.33,1.28a1.92,1.92,0,0,0,1.32.55,1.9,1.9,0,0,0,1.33-.55,1.86,1.86,0,0,0,.55-1.32,2,2,0,0,0-.55-1.33l-1.58-1.53-.78-.76a2.62,2.62,0,0,0-1.95-.92,1.36,1.36,0,0,0-.72.16,1.28,1.28,0,0,0-.61.39,1.92,1.92,0,0,0-.55,1.32,1.88,1.88,0,0,0,1.88,1.88Z"/><path d="M135.7,393.91l.13,0-.5.06h.26l-.5-.06a1.5,1.5,0,0,1,.35.09l-.45-.19a7.86,7.86,0,0,1,.89.51c.3.18.62.35.91.56l-.38-.3s0,0,.05.05l-.29-.38,0,0-.19-.44v0l-.06-.5v0l.07-.49v0l.19-.45,0,0,.3-.38,0,0,.38-.29h0l.45-.18h.94a2,2,0,0,0-1.45.19,1.44,1.44,0,0,0-.52.49,1.39,1.39,0,0,0-.34.63,1.88,1.88,0,0,0,1.31,2.31,2,2,0,0,0,1.52-.2,2.06,2.06,0,0,0,.41-.32,2,2,0,0,0,.4-.63.64.64,0,0,0,.1-.26l.07-.5c0-.09,0-.18,0-.28a.66.66,0,0,0,0-.28,2.07,2.07,0,0,0-.36-.67,2.54,2.54,0,0,0-.2-.24,7.83,7.83,0,0,0-1.24-.82,8.57,8.57,0,0,0-.87-.51,3.85,3.85,0,0,0-.86-.31,2.85,2.85,0,0,0-1.39,0,2,2,0,0,0-1.12.87,1.31,1.31,0,0,0-.22.69,1.37,1.37,0,0,0,0,.75,1.88,1.88,0,0,0,2.31,1.31Z"/><path d="M149.92,391.5a3,3,0,0,0,.12,1,6,6,0,0,0,.37.91c.17.33.37.63.52,1l-.19-.45a3.38,3.38,0,0,1,.13.42,1.45,1.45,0,0,0,.33.64,1.53,1.53,0,0,0,.53.48,1.45,1.45,0,0,0,.7.23,1.43,1.43,0,0,0,.74,0,1.87,1.87,0,0,0,1.12-.86l.19-.45a1.85,1.85,0,0,0,0-1,9.94,9.94,0,0,0-.61-2.08,1.45,1.45,0,0,0-.33-.64,1.53,1.53,0,0,0-.53-.48,2.17,2.17,0,0,0-1.45-.19,1.93,1.93,0,0,0-1.12.86l-.19.45a2.11,2.11,0,0,0,0,1,10.72,10.72,0,0,1,.62,2.07l3.61-1a9.78,9.78,0,0,0-.93-2.06l.19.45a2.23,2.23,0,0,1-.13-.44l.07.5c0-.1,0-.2,0-.3a1.36,1.36,0,0,0-.16-.72,1.72,1.72,0,0,0-1-1,1.36,1.36,0,0,0-.72-.16,1.88,1.88,0,0,0-1.33.55l-.29.38a1.82,1.82,0,0,0-.26.94Z"/><path d="M146.64,372.62c0,1.87.08,3.73.22,5.6a2,2,0,0,0,.55,1.32,1.87,1.87,0,0,0,3.2-1.32c-.14-1.87-.21-3.73-.22-5.6a1.88,1.88,0,1,0-3.75,0Z"/><path d="M152.62,371.82l0,3.92a2,2,0,0,0,.55,1.33,1.87,1.87,0,0,0,1.32.54,1.9,1.9,0,0,0,1.88-1.87l0-3.92a2,2,0,0,0-.55-1.33,1.88,1.88,0,0,0-3.2,1.33Z"/><path d="M105.67,383.23a49.94,49.94,0,0,1,4.16,3.81,1.92,1.92,0,0,0,1.32.55,1.88,1.88,0,0,0,1.33-3.2,48.41,48.41,0,0,0-4.16-3.81A2,2,0,0,0,107,380a2,2,0,0,0-1.33.55,1.9,1.9,0,0,0-.55,1.33,1.82,1.82,0,0,0,.55,1.32Z"/><path d="M116.28,392.9a25.13,25.13,0,0,1,2.41,2.32,1.34,1.34,0,0,0,.61.38,1.61,1.61,0,0,0,1.44,0,1.31,1.31,0,0,0,.6-.38,1.86,1.86,0,0,0,.55-1.33l-.06-.5a1.86,1.86,0,0,0-.49-.83,23.91,23.91,0,0,0-2.41-2.31,1.39,1.39,0,0,0-.6-.39,1.42,1.42,0,0,0-.73-.16,1.41,1.41,0,0,0-.72.16,1.39,1.39,0,0,0-.6.39,1.87,1.87,0,0,0,0,2.65Z"/><path d="M120,395.89a1.88,1.88,0,0,0,0-3.75,1.88,1.88,0,0,0,0,3.75Z"/><path d="M104.79,391.27a5.5,5.5,0,0,0,1.39,2.33,15.31,15.31,0,0,1,1.38,1.41l-.29-.38a7.88,7.88,0,0,1,.73,1.17,1.94,1.94,0,0,0,1.12.87,2,2,0,0,0,1.45-.19,1.92,1.92,0,0,0,.86-1.12,2,2,0,0,0-.19-1.45A9.13,9.13,0,0,0,109.9,392c-.44-.49-1-.88-1.4-1.4l.3.38a3.55,3.55,0,0,1-.45-.75l.19.45c-.05-.13-.1-.25-.14-.38a1.93,1.93,0,0,0-.86-1.12,1.86,1.86,0,0,0-1.44-.19,1.8,1.8,0,0,0-1.12.86,1.87,1.87,0,0,0-.19,1.44Z"/><path d="M101.79,321.7a21.38,21.38,0,0,0-2.6,3.74c-.33.61-.61,1.24-.89,1.88a9.6,9.6,0,0,1-1.13,1.87,1.89,1.89,0,0,0-.19,1.45,1.92,1.92,0,0,0,.86,1.12,1.86,1.86,0,0,0,1.44.18,2,2,0,0,0,1.12-.86,9.07,9.07,0,0,0,1.08-1.75c.29-.64.56-1.27.89-1.88a18.78,18.78,0,0,1,1-1.73c.19-.28.39-.54.59-.82s-.22.28-.07.08.11-.13.16-.19l.36-.44A2,2,0,0,0,105,323a1.88,1.88,0,0,0-3.2-1.33Z"/><path d="M93.07,338.05a16.09,16.09,0,0,1-.72,2.16l.19-.45A14.58,14.58,0,0,1,90.67,343l.3-.38-.12.15a2.06,2.06,0,0,0-.55,1.33,1.88,1.88,0,0,0,1.88,1.87,1.8,1.8,0,0,0,1.32-.55A16.91,16.91,0,0,0,96.69,339a1.88,1.88,0,0,0-3.62-1Z"/><path d="M101.08,340.11a18.69,18.69,0,0,1-1.07,1.56l.29-.38A17.81,17.81,0,0,1,98.84,343a1.89,1.89,0,0,0-.15,2.46,1.78,1.78,0,0,0,1,.67,2.13,2.13,0,0,0,1.44-.19,15.7,15.7,0,0,0,6.54-5.43,1.86,1.86,0,0,0,.19-1.44,1.88,1.88,0,0,0-2.31-1.31,2.16,2.16,0,0,0-1.12.86l-.33.46.29-.38a14.42,14.42,0,0,1-2.53,2.53l.38-.29a14.35,14.35,0,0,1-3,1.77l2.27,2.94a20.11,20.11,0,0,0,2.83-3.61,1.9,1.9,0,0,0-.67-2.57,1.92,1.92,0,0,0-2.57.68Z"/><path d="M84.55,339.24l-.06.52.07-.5c-.24,1.7-.54,3.39-.81,5.08a2.06,2.06,0,0,0,.19,1.44,1.87,1.87,0,0,0,2.57.68,1.86,1.86,0,0,0,.86-1.12l.46-2.88c.17-1.07.37-2.14.47-3.22a1.88,1.88,0,0,0-.55-1.33,2,2,0,0,0-1.33-.55,1.88,1.88,0,0,0-1.32.55,2.12,2.12,0,0,0-.55,1.33Z"/><path d="M84.56,337.43A15.39,15.39,0,0,0,83.14,344a1.88,1.88,0,0,0,3.75,0,12.94,12.94,0,0,1,.11-2l-.07.49a13.4,13.4,0,0,1,.93-3.4l-.19.45c0-.09.08-.19.13-.28a2,2,0,0,0,.18-1.45,1.87,1.87,0,0,0-2.3-1.31,1.81,1.81,0,0,0-1.12.86Z"/><path d="M75.05,340.78a11.67,11.67,0,0,1,1.62,1.6l-.3-.38a14.11,14.11,0,0,1,1.41,2.4l2.12-2.75c-.28-.1-.56-.19-.83-.3l.45.18a3.74,3.74,0,0,1-.87-.49l.38.3a2.51,2.51,0,0,1-.45-.47l.29.38a3.44,3.44,0,0,1-.4-.7l.19.45a20.29,20.29,0,0,0-1.06-2.71,2,2,0,0,0-1.12-.86,1.93,1.93,0,0,0-1.45.19,1.91,1.91,0,0,0-.67,2.57,3,3,0,0,1,.25.51l-.18-.45a13.89,13.89,0,0,0,1.17,2.85,4.67,4.67,0,0,0,1.58,1.45,9.89,9.89,0,0,0,1.72.71l.5.07.5-.07a1.79,1.79,0,0,0,1-.67,1.92,1.92,0,0,0,.15-2.08,15.72,15.72,0,0,0-1.27-2.22A10.81,10.81,0,0,0,78.69,339c-.31-.31-.65-.6-1-.89a2,2,0,0,0-1.32-.55,1.88,1.88,0,0,0-1.88,1.88,1.86,1.86,0,0,0,.55,1.32Z"/><path d="M53.54,341.55a54.55,54.55,0,0,0,5.6,1.67,20.07,20.07,0,0,0,5.17.76,22.53,22.53,0,0,0,5.38-.36c1.59-.4,3.11-1.23,4.77-1.27,2.41-.06,2.42-3.81,0-3.75a16.47,16.47,0,0,0-4.78,1.11,16,16,0,0,1-5,.51c-3.43,0-7-1.11-10.16-2.29a1.88,1.88,0,0,0-1,3.62Z"/><path d="M62.23,290.65c.43.79.89,1.55,1.39,2.3a1.92,1.92,0,0,0,1.62.93,1.87,1.87,0,0,0,1.62-.93,7.89,7.89,0,0,1,.44-.81,3.6,3.6,0,0,1,.28-.4c0,.05-.26.31-.09.13l.18-.21.3-.31c.08-.07.26-.3.36-.32s-.36.25-.13.11l.17-.11c.13-.07.12-.07,0,0l-.09,0,.24-.06-2.11-2.76-1.21,2.21A1.87,1.87,0,0,0,67.72,293l3.55-2.21-2.57-2.56-.12.17.13-.17-.21.24c-.15.17-.31.34-.48.5s-.33.26-.48.41c.35-.36.17-.13,0,0s-.23.16-.35.24a1.88,1.88,0,0,0,1.89,3.24,9.68,9.68,0,0,0,2.82-2.7,1.88,1.88,0,0,0-.29-2.27,1.92,1.92,0,0,0-2.28-.3l-3.54,2.21,2.56,2.57,1.22-2.21a1.89,1.89,0,0,0-2.12-2.76,4.83,4.83,0,0,0-2.4,1.54,8.43,8.43,0,0,0-1.47,2.13h3.24c-.5-.75-1-1.51-1.39-2.3a1.89,1.89,0,0,0-2.56-.67,1.91,1.91,0,0,0-.68,2.56Z"/><path d="M46.68,241.05l.14-.18c-.18.23-.21.26-.08.11s.19-.23.29-.35.35-.39.54-.58.37-.37.57-.55.23-.18.33-.28c-.26.19-.31.23-.15.13-.3.11-.34.15-.14.11l-.5.07a13.28,13.28,0,0,1,1.41,0l-.5-.06.07,0-1.12-.87-.12-.27-.07-.5a1.27,1.27,0,0,1,0,.2l.07-.49a1.94,1.94,0,0,1,0,.2c-.06.18,0,.13.09-.16a2.71,2.71,0,0,0-.21.37c-.13.22-.27.43-.41.64a4.06,4.06,0,0,1-.26.36l.16-.21a1.15,1.15,0,0,1-.14.17,4,4,0,0,1-.63.61l2.65,2.65a35.56,35.56,0,0,0,4.23-4.36l-3.2-1.33a2.6,2.6,0,0,1,0,.56l.07-.5a3.2,3.2,0,0,1-.07.33c0,.07-.14.39,0,.09s0,0-.06.07-.27.26,0,0c-.29.28-.56.59-.87.85a5.63,5.63,0,0,1-.45.38c-.08.08-.19.15-.27.22l.19-.14-.18.14c-.35.25-.7.5-1.06.73l2.75,2.12a2.71,2.71,0,0,0-1.19-3,2.82,2.82,0,0,0-3,.09,2,2,0,0,0-.86,1.12,1.87,1.87,0,0,0,2.75,2.12c.07,0,.32-.17,0,0s0,0,0,0l-.5.07a1.31,1.31,0,0,1,.28,0l-.5-.07c.19,0,.12,0-.19-.1.16.09.11.05-.17-.15s-.24-.33-.15-.17c-.11-.32-.15-.39-.11-.2l-.06-.5a.48.48,0,0,1,0,.17l.07-.5a.42.42,0,0,1,0,.16,1.88,1.88,0,0,0,.68,2,1.84,1.84,0,0,0,2.08.15,22.08,22.08,0,0,0,2.88-2.22,4.77,4.77,0,0,0,1.69-3.72,1.88,1.88,0,0,0-1.15-1.71,1.84,1.84,0,0,0-2.05.39A35.56,35.56,0,0,1,46,239.54a1.88,1.88,0,0,0,1.33,3.2,2.17,2.17,0,0,0,1.32-.55,8.38,8.38,0,0,0,1.87-2.32,4.06,4.06,0,0,0,.61-1.87A2.07,2.07,0,0,0,49,235.77a10.49,10.49,0,0,0-1.77.07,3.51,3.51,0,0,0-1.69,1,14.93,14.93,0,0,0-2,2.31,1.87,1.87,0,0,0,2.11,2.75,2.14,2.14,0,0,0,1.12-.86Z"/><path d="M73.91,238.1a4.58,4.58,0,0,0,.11,1.33,4.09,4.09,0,0,0,.29.83.56.56,0,0,0,0,.08,3.15,3.15,0,0,0,.31.41,2.24,2.24,0,0,0,.42.34,1.36,1.36,0,0,0,.3.13,1.93,1.93,0,0,0,.85.19h.21l.47,0a6.43,6.43,0,0,1,.76,0l-.5-.07a1.56,1.56,0,0,1,.37.1l-.45-.19.17.1-.38-.3.11.12-.29-.38.06.11a2.1,2.1,0,0,0,1.12.86,2.17,2.17,0,0,0,1.45-.19,1.89,1.89,0,0,0,.86-1.12l.07-.5A1.82,1.82,0,0,0,80,239a2.42,2.42,0,0,0-1-1,3.43,3.43,0,0,0-1.41-.37c-.47-.05-1,0-1.42,0l.5.07-.08,0,.45.19-.07,0,.38.29-.06,0,.3.38-.06-.11.19.45a3.27,3.27,0,0,1-.13-.54l.07.5a3,3,0,0,1,0-.67,1.36,1.36,0,0,0-.16-.72,1.49,1.49,0,0,0-.39-.6,1.31,1.31,0,0,0-.6-.39,1.41,1.41,0,0,0-.72-.16,1.88,1.88,0,0,0-1.33.55l-.29.38a1.82,1.82,0,0,0-.26.94Z"/><path d="M86,250.32l0,4.23a1.92,1.92,0,0,0,.55,1.32,1.87,1.87,0,0,0,2.65,0,1.9,1.9,0,0,0,.55-1.32l0-4.23A1.87,1.87,0,0,0,86.5,249a2,2,0,0,0-.55,1.33Z"/></svg>