<svg id="Layer_1" data-name="Layer 1" xmlns="http://www.w3.org/2000/svg" viewBox="0 0 500 500"><path d="M20,90.64a3.9,3.9,0,0,1,.54-.43c.61-.32,1.22-.65,1.85-.92,2.14-.94,4.27-2,6.73-1.57h.09c.68,0,.8-.19.75-.88s-.05-1.52-.1-2.28c-.09-1.3.76-2.17,1.4-3.14.24-.36.54-.38,1.4-.32A6.23,6.23,0,0,1,33,82.35,5.62,5.62,0,0,0,34.6,85.6a8.24,8.24,0,0,0,2.23,2,15.59,15.59,0,0,0,2.9,1.58,9,9,0,0,0,3.24.6,2.51,2.51,0,0,0,2.1-1.07,4.19,4.19,0,0,1,2.73-1.57c1.07-.19,1.85.54,2.63,1.12a7.87,7.87,0,0,1,1.08,1.08,1.16,1.16,0,0,0,1,.42c.32,0,.64,0,1,0H111.9l59.2,0q14.86,0,29.74,0c.69,0,1.39.11,2.08.14a16.26,16.26,0,0,0,1.71,0c1.05,0,2.09-.16,3.14-.16q19.39,0,38.79,0H294c.45,0,.89.09,1.33.11s1.07.06,1.61,0c.95,0,1.9-.16,2.85-.16H419.54q13.63,0,27.26,0a2.3,2.3,0,0,0,1.94-.77,6.56,6.56,0,0,1,2.11-1.6,2.09,2.09,0,0,1,2-.09,4.85,4.85,0,0,1,2.33,1.72,1.93,1.93,0,0,0,1.68.73,8.18,8.18,0,0,0,5-1.44A14,14,0,0,0,464,87c1.41-1.29,2.74-2.6,3-4.64.06-.43.19-.86.29-1.28a1.77,1.77,0,0,1,1.83.93,5.85,5.85,0,0,1,.89,4.71c-.14,1,.19,1.24,1.2,1a3.5,3.5,0,0,1,1.12,0c.78.1,1.57.24,2.34.41a5,5,0,0,1,.95.41c.31.15.61.33.92.49l1.52.74c.29.14.58.25.87.37l1.06.49a3.69,3.69,0,0,1-1.9,1.63c-.55.22-1.08.51-1.62.76-.26.13-.52.24-.78.34a10,10,0,0,1-1.77.67,11.08,11.08,0,0,1-2.62.29c-1.16,0-1.38.16-1.24,1.35a4.91,4.91,0,0,1-.73,3.81,4.87,4.87,0,0,0-.36.68c-.36.67-.58.75-1.3.61a.68.68,0,0,1-.61-.63,2.7,2.7,0,0,1,0-.28c-.2-2.48-1.8-4-3.64-5.4-.88-.66-1.86-1.18-2.8-1.75a2.69,2.69,0,0,0-.7-.3,9.89,9.89,0,0,0-3.87-.12,2,2,0,0,0-.87.49c-.36.3-.65.69-1,1a3.41,3.41,0,0,1-4.53-.17c-1.44-1.42-1.44-1.42-3.48-1.42H360.89q-31.69,0-63.39,0c-.85,0-1.7-.13-2.56-.19a6.26,6.26,0,0,0-.75,0c-1.05.07-2.09.2-3.13.2q-36.75,0-73.5,0c-3.24,0-6.48,0-9.72,0-.67,0-1.33-.12-2-.18a4.82,4.82,0,0,0-.76,0c-.94.06-1.89.2-2.84.2q-31.65,0-63.29,0H70.41c-5.84,0-11.69,0-17.54,0a1.85,1.85,0,0,0-1.81.77A3.58,3.58,0,0,1,49.91,94a5.5,5.5,0,0,1-1.53.43A3.21,3.21,0,0,1,45,92.84a1.53,1.53,0,0,0-1.26-.71,24.46,24.46,0,0,0-2.57,0A3.29,3.29,0,0,0,39,93a1,1,0,0,1-.33.19A9.46,9.46,0,0,0,35,95.75c-1,1.19-2.06,2.43-2,4.17a.67.67,0,0,1-.66.77c-.72.11-.91.06-1.2-.44A12.62,12.62,0,0,1,30.37,99a5.59,5.59,0,0,1-.45-1.53,11.23,11.23,0,0,1,0-2.09c.08-1-.17-1.26-1.15-1.19a4.57,4.57,0,0,1-2.06-.09c-1.21-.53-2.58-.66-3.67-1.48a4.39,4.39,0,0,0-1.14-.46A3.37,3.37,0,0,1,20,90.64Z"/><path d="M355.73,71.63a2.15,2.15,0,0,1-.56-1.53c-.05-1.14-.1-2.28-.18-3.42a13.12,13.12,0,0,0-.27-1.39c-.21-1.15-.45-2.3-.63-3.46a2.86,2.86,0,0,0-.56-1.48,2.82,2.82,0,0,1-.45-.92c-.19-.57-.23-1.14-.91-1.46-.32-.16-.46-.71-.69-1.1a1.21,1.21,0,0,0,0,1.65,2.6,2.6,0,0,1,.48,1.21c.14.6.42,1.18.58,1.78a9.42,9.42,0,0,1,.47,2.11c.07,2.79.06,5.59.08,8.38a12.23,12.23,0,0,0,.48,3.85,3.74,3.74,0,0,1,.08.78l-1.11-.42a.76.76,0,0,1-.31-.2,8.74,8.74,0,0,0-3.06-2.28A7.5,7.5,0,0,0,345,73a2.19,2.19,0,0,0-1.65.62,1.27,1.27,0,0,1-.75.34c-.89.09-1.24-.26-1.17-1.15a3.22,3.22,0,0,1,.24-.91c.13-.32.33-.62.45-1a4.06,4.06,0,0,1,2.57-2.45,3.5,3.5,0,0,1,2.61-.24c.33-1.06.27-1.22-.39-1.73s-1.47-1.21-2.24-1.76a26.36,26.36,0,0,0-2.44-1.61c-1.07-.6-2.18-1.12-3.29-1.66a2.61,2.61,0,0,0-.8-.27A18.38,18.38,0,0,0,332.4,61a9.46,9.46,0,0,0-2.61.79c-1.22.58-2.32,1.46-3.71,1.65-1.83,1.15-3.89.63-5.86.78a1.2,1.2,0,0,1-.56-.09c-.86-.44-1.72-.9-2.56-1.34.09-.56.48-.62.83-.77a5.39,5.39,0,0,0,2.48-1.84,2,2,0,0,0,.22-.31c.41-1.09.85-2.18,1.21-3.28a7,7,0,0,1,.74-1.73A8.41,8.41,0,0,1,323.84,53a11.69,11.69,0,0,1,2.51-1.8,8.85,8.85,0,0,1,4.34-.73,5.25,5.25,0,0,1,2.47.64c.49.27,1.06.39,1.58.63,1,.45,1.95.89,2.87,1.43a15.3,15.3,0,0,1,2.13,1.56c.68.57,1.3,1.22,2,1.91a.45.45,0,0,0,.36-.56,2,2,0,0,0-.2-.73,20.16,20.16,0,0,0-4-5.13,14.43,14.43,0,0,0-3.41-2.13,19.24,19.24,0,0,1-6.87-4.91,10.3,10.3,0,0,1-2.1-4.71,2,2,0,0,1,.05-.83c.15-.55.34-1.09.53-1.63A3.05,3.05,0,0,1,331,34.89c-.26.15-.49.3-.73.42a1.37,1.37,0,0,0-.69,2,2.56,2.56,0,0,0,1.92,1.39,38.92,38.92,0,0,1,5.58,1.16,6.26,6.26,0,0,1,3.8,3.1,2.44,2.44,0,0,1,.2,1.11,20.9,20.9,0,0,0,.85,6.38,10.45,10.45,0,0,1,.27,1.5,4.84,4.84,0,0,0,.14.94c.28.73.7,1.41.91,2.16s.14,1.58.83,2.16a1.26,1.26,0,0,1,.31.69,1.85,1.85,0,0,0,.75,1.15,4.89,4.89,0,0,1,.84,1c.6-.24.56-.66.29-1a4.75,4.75,0,0,1-.91-2.46,1.08,1.08,0,0,0-.21-.53,3.94,3.94,0,0,1-.67-2.53c0-1.42,0-2.85,0-4.27a3.72,3.72,0,0,1,.67-2.25,1.86,1.86,0,0,0,.25-.51,6.17,6.17,0,0,1,2.16-2.67,5.25,5.25,0,0,1,4.38-1,2.66,2.66,0,0,1,2,1.61,3.81,3.81,0,0,1-.09,3.4c0,.08-.14.13-.3.26a14.07,14.07,0,0,1-1.13-1.34,1.76,1.76,0,0,0-1.93-.7,1.16,1.16,0,0,0-.62.38,3.2,3.2,0,0,0-.68,1,2.09,2.09,0,0,0,0,1.19,7.08,7.08,0,0,0,.81,1.6c.5.76,1.1,1.46,1.62,2.21s1,1.69,1.56,2.48a21.77,21.77,0,0,1,1.53,3.24,6.86,6.86,0,0,1,.47,1.54c.16.74.2,1.52.43,2.24.73,2.24.5,4.52.44,6.8,0,.57-.07,1.14-.13,1.71C355.88,70.85,355.81,71.18,355.73,71.63ZM326.26,56.41c.29.14.52.36.73.34a3.49,3.49,0,0,0,1.36-.33,2.72,2.72,0,0,1,1.35-.37,7.45,7.45,0,0,0,.94-.08,9.06,9.06,0,0,1,5,.54c1,.46,2.25.53,3.23,1.25.4.3,1,.25,1.37.74s.9.47,1.36.68l.24.06c-.09-.32-.09-.67-.26-.83a22.77,22.77,0,0,0-3-2.57,8.31,8.31,0,0,0-3.26-1.46,2.9,2.9,0,0,1-.86-.4,4,4,0,0,0-2-.42,10.78,10.78,0,0,0-3.19.77A9.41,9.41,0,0,0,326.26,56.41Z"/><path d="M168.93,34.89a3,3,0,0,1,4.86,1c.19.5.37,1,.54,1.52a1.85,1.85,0,0,1,.11.65A8,8,0,0,1,173.12,42c-.39.5-.75,1-1.13,1.52a12,12,0,0,1-3.3,2.83,13.88,13.88,0,0,1-1.91,1c-1,.44-1.91,1.1-2.9,1.57A11.47,11.47,0,0,0,160.32,52a8,8,0,0,0-1.75,2.56,10.82,10.82,0,0,1-.57,1c-.17.37-.34.78.18,1.08.9-.79,1.74-1.62,2.68-2.33a19.76,19.76,0,0,1,2.84-1.85A31.75,31.75,0,0,1,167.09,51a6.86,6.86,0,0,1,1.84-.44,15.75,15.75,0,0,1,2.57,0A6.42,6.42,0,0,1,173,51c.2.07.38.23.59.3a6.88,6.88,0,0,1,3.7,3.36,10.42,10.42,0,0,1,.93,2.27,19.22,19.22,0,0,0,1.17,3A4.83,4.83,0,0,0,181.93,62c.36.16.68.38,1.13.63-.29.21-.43.34-.59.43a14.72,14.72,0,0,1-1.76.92,4.61,4.61,0,0,1-1.48.26c-.79,0-1.59-.05-2.38,0a4.09,4.09,0,0,1-2.55-.58,5.23,5.23,0,0,0-1-.33c-.52-.21-1-.49-1.54-.69-1.24-.46-2.3-1.3-3.66-1.51a19.06,19.06,0,0,0-6.35.12,4.63,4.63,0,0,0-1,.4c-.41.18-.82.35-1.21.55a25.18,25.18,0,0,0-2.67,1.42c-1.37,1-2.66,2-4,3-.57.43-.38.93-.28,1.42.1.06.17.12.21.11a4.14,4.14,0,0,1,3.26.67,3.49,3.49,0,0,1,1.65,1.75,5.63,5.63,0,0,1,.79,2.22c0,.34.19.8-.22.94s-1.1.27-1.33,0c-1.19-1.13-2.61-.78-4-.8a2.43,2.43,0,0,0-1.68.56,1.35,1.35,0,0,1-.5.27,5.59,5.59,0,0,0-3,2.09,1.75,1.75,0,0,1-.55.33l-1,.43c.07-.35.15-.67.2-1a23.2,23.2,0,0,0,.36-2.34c.06-1.1,0-2.22,0-3.33,0-2.29.07-4.57.16-6.85a6.73,6.73,0,0,1,.42-1.55c.18-.6.41-1.19.58-1.79a3.2,3.2,0,0,1,.58-1.47,1.06,1.06,0,0,0,0-1.54l-.42.65c-.12.18-.19.46-.35.52-.59.25-.71.76-.86,1.29a3,3,0,0,1-.46,1,3.47,3.47,0,0,0-.62,1.77c-.14,1-.36,2-.54,3.08-.15.81-.33,1.62-.41,2.43-.11,1-.12,2.09-.21,3.13a4.46,4.46,0,0,1-.27.83l-.24,0c-.07-.65-.17-1.29-.21-1.93,0-1,0-2.1-.08-3.14a13.66,13.66,0,0,1,.56-4.8c.17-.51.17-1.07.31-1.59.19-.69.44-1.37.67-2a4,4,0,0,0,.22-.53c.21-1.23,1.1-2.13,1.53-3.25a6.81,6.81,0,0,1,1-1.48c.5-.69,1.08-1.33,1.52-2a21.06,21.06,0,0,0,1.2-2.37.89.89,0,0,0-.22-1.05,3.22,3.22,0,0,1-.34-.46,1.59,1.59,0,0,0-2.64-.13l-1.06,1.23c0,.06-.16.07-.32.13a2.67,2.67,0,0,1-.32-.53,5,5,0,0,1-.11-2.72A3.22,3.22,0,0,1,147.79,43c1-.07,2,0,2.94,0a1.52,1.52,0,0,1,.71.25,11.51,11.51,0,0,1,2.65,2.27,2.53,2.53,0,0,1,.33.68,3.39,3.39,0,0,0,.36.87,3.68,3.68,0,0,1,.72,2.42c0,1.74-.07,3.48-.14,5.23a1.46,1.46,0,0,1-.17.73,6.58,6.58,0,0,0-.88,2.49,4.14,4.14,0,0,1-.58,1.07c-.33.55-.31.7.24,1.2.54-1,1.64-1.5,1.77-2.71a3.9,3.9,0,0,0,1-2.41.88.88,0,0,1,.17-.44,5.48,5.48,0,0,0,.94-3,3.36,3.36,0,0,1,.14-.84,13.49,13.49,0,0,0,.76-3.91,12.14,12.14,0,0,0,.08-2.08c-.15-1.76.89-2.84,2.11-3.8a7.47,7.47,0,0,1,1.55-.9,6.21,6.21,0,0,1,1.28-.35c1.71-.34,3.43-.64,5.13-1a2.25,2.25,0,0,0,1.6-1.51,1.36,1.36,0,0,0-.8-1.85C169.44,35.19,169.23,35.06,168.93,34.89Zm4.7,21.46a6.84,6.84,0,0,0-3.89-2.46c-1.61-.41-3.25-.64-4.79.35a8.42,8.42,0,0,1-1.07.38A19.39,19.39,0,0,0,161.1,56a26.55,26.55,0,0,0-2.53,2.12c-.25.22-.45.45-.24.86a1.65,1.65,0,0,0,1.55-.64c.12-.19.41-.26.63-.37l1.43-.71a5.34,5.34,0,0,1,.68-.33c.87-.27,1.75-.54,2.63-.78a5.24,5.24,0,0,1,1.39-.26c1.82,0,3.67-.17,5.38.75A1.23,1.23,0,0,0,173.63,56.35Z"/><path d="M265.82,74.57c.23-.69.43-1.39.69-2.07a2.65,2.65,0,0,0,0-1.94,4.71,4.71,0,0,0-1.35-2.34,3.53,3.53,0,0,0-1.18-.73c-.76-.21-1.51-.46-2.27-.65a1.48,1.48,0,0,0-.75.06,5.65,5.65,0,0,0-3.11,1.88,8.92,8.92,0,0,0-1.34,2.69,12.56,12.56,0,0,0-.05,5.11,4.6,4.6,0,0,0,.52,1.31c.32.62.68,1.21,1,1.79a11.88,11.88,0,0,0,2.77,2.57,2.64,2.64,0,0,0,.67.34,3.65,3.65,0,0,1,.7.28c1.14.88,2.5.85,3.81,1a27.79,27.79,0,0,0,6-.24,1.69,1.69,0,0,0,.56-.12c1.27-.65,2.72-.83,3.94-1.63.76-.49,1.61-.85,2.39-1.33s1.73-1.14,2.57-1.76c.66-.48,1.29-1,1.93-1.54a42.1,42.1,0,0,0,5.11-5.06c1.05-1.22,2.14-2.41,3.17-3.65,1.24-1.5,2.42-3.05,3.67-4.55s2.46-2.83,3.69-4.26c.54-.62,1.06-1.25,1.58-1.89.27-.33.36-.68-.05-1a.66.66,0,0,0-1.07.11c-2.05,2.29-4.62,2.72-7.44,1.93A4.1,4.1,0,0,1,289.68,57a13.07,13.07,0,0,1-.7-1.12c-.4-.79-.12-1.22.75-1.2a13.65,13.65,0,0,0,1.8.09,10.56,10.56,0,0,0,2.82-.77,7.44,7.44,0,0,1,5.2-.43,1.92,1.92,0,0,0,2.25-.49,1.4,1.4,0,0,1,1.83-.25,1.68,1.68,0,0,0,2.17-.27c.71-.62,1.41-1.26,2.16-1.83s1.51-1,2.27-1.52c.26-.17.5-.37.77-.54a2.34,2.34,0,0,1,.81-.45,3.53,3.53,0,0,0,2.3-1.71,1,1,0,0,1,.85-.46c2-.05,3.94-.14,5.9-.15a9.58,9.58,0,0,1,1.65.31l1.79.35c-1.83.21-3.73.4-5.62.66a10.68,10.68,0,0,0-1.82.5c-.39.12-.76.32-1.16.42a2.76,2.76,0,0,0-1.6.76.34.34,0,0,1-.16.1,16.22,16.22,0,0,0-2.45,1.17,27.65,27.65,0,0,0-2.44,1.59c-.81.47-1.45,1.24-2.25,1.73a2.61,2.61,0,0,0-1.18,1.75,3.49,3.49,0,0,1-.74,1.61,1.65,1.65,0,0,0,0,2,3.64,3.64,0,0,1,.16,3.46,7.8,7.8,0,0,0-.24,1.11,24.86,24.86,0,0,1-.67,2.57,3.12,3.12,0,0,0,.05,2.4c.14.31.47.71.11.93a1.47,1.47,0,0,1-1.25.11A7.23,7.23,0,0,1,300.23,67a6.15,6.15,0,0,1-.75-4.27,8.27,8.27,0,0,1,.51-1.46c-.76.26-1.42.43-1.79,1.24A5.35,5.35,0,0,1,297,64a63.32,63.32,0,0,0-4.26,5.3c-1.47,1.78-2.88,3.6-4.42,5.32q-2.52,2.82-5.23,5.47a38.75,38.75,0,0,1-3.3,2.66c-.67.53-1.36,1-2.06,1.51a7.63,7.63,0,0,1-.75.39,19.89,19.89,0,0,1-4,1.68,8.2,8.2,0,0,1-1.44.43,28.6,28.6,0,0,1-8.16-.06,7.84,7.84,0,0,1-1.54-.48,3.09,3.09,0,0,0-.61-.24,8.32,8.32,0,0,1-3.29-1.44,12.5,12.5,0,0,1-2.55-2.12,9.72,9.72,0,0,1-1.81-2.29,11.1,11.1,0,0,1-1.45-3.28c-.13-.82-.4-1.6-.58-2.41a8.73,8.73,0,0,1,.2-5,2.29,2.29,0,0,0,.16-.55,9,9,0,0,1,1.48-4,15.07,15.07,0,0,1,2.28-2.78,24.11,24.11,0,0,1,2.28-1.84.42.42,0,0,1,.16-.09c1.27-.37,2.54-.8,3.83-1.09a4.25,4.25,0,0,1,3,.41,1.51,1.51,0,0,0,.44.18,8.08,8.08,0,0,1,3.24,1.5,4.81,4.81,0,0,1,1.52,1.39,7,7,0,0,1,1.54,4.4,24.53,24.53,0,0,1-.23,3.22A6.17,6.17,0,0,1,269.17,74c-.34.28-.7.54-1.07.79A1.64,1.64,0,0,1,265.82,74.57Z"/><path d="M200,61.16c0,.22,0,.47.08.57.72.71.43,1.61.47,2.43a3.2,3.2,0,0,1-.58,2.35,3.19,3.19,0,0,0-.41.75,3.32,3.32,0,0,1-1.26,1.39c-.35.21-.68.47-1,.66a1.85,1.85,0,0,1-.79.23c-.86,0-1.06-.25-.73-1a3.06,3.06,0,0,0,0-2.75,6.38,6.38,0,0,1-.42-1.45c-.23-1-.41-1.93-.66-2.88a2.76,2.76,0,0,1,.27-2.19,5.68,5.68,0,0,0,.43-1.24,1.41,1.41,0,0,0-.36-1.32c-.2-.24-.47-.52-.48-.79-.1-1.65-1.29-2.44-2.46-3.27-.82-.58-1.62-1.2-2.43-1.79a7,7,0,0,0-.65-.39l-1.27-.78c-.06,0-.1-.08-.15-.11l-3.1-1.34c-.47-.2-.94-.37-1.42-.53a6.24,6.24,0,0,0-1.36-.41c-2-.26-4.09-.46-5.91-.66.46-.15,1.14-.38,1.83-.58a2.7,2.7,0,0,1,.75-.09c1.14,0,2.28.11,3.42.12.95,0,1.9,0,2.85,0a1.21,1.21,0,0,1,1.19.54A4.25,4.25,0,0,0,188,48.23a4.49,4.49,0,0,1,1,.54,3.28,3.28,0,0,0,.53.39,9.35,9.35,0,0,1,2.76,2c.7.63,1.48,1.19,2.24,1.76A1.28,1.28,0,0,0,196,53a1.74,1.74,0,0,1,2.38.36,1.62,1.62,0,0,0,1.87.29c2.08-.75,4-.19,5.88.64a6.71,6.71,0,0,0,3,.51c.44,0,.88-.09,1.32-.08s.84.33.63.79a6.84,6.84,0,0,1-1.58,2.43c-1.91,1.71-4.11,1.5-6.27.9a6.42,6.42,0,0,1-2.48-1.66c-.77-.71-.93-.78-1.7.18.65.81,1.31,1.65,2,2.46s1.2,1.36,1.8,2c.37.43.72.87,1.09,1.3l2.84,3.42c1.09,1.3,2.16,2.63,3.28,3.91s2.11,2.44,3.24,3.58a50.79,50.79,0,0,0,4.08,3.82,20.43,20.43,0,0,0,3.83,2.75c1,.48,1.92,1.09,2.88,1.64a1.15,1.15,0,0,0,.25.12c1.89.52,3.66,1.42,5.68,1.46a30.93,30.93,0,0,0,5.61-.17,5,5,0,0,0,2-.68,15.88,15.88,0,0,0,2.29-1.31,12.59,12.59,0,0,0,2.87-3.25,7.05,7.05,0,0,0,.92-3.53c0-.88,0-1.77-.06-2.66a5.73,5.73,0,0,0-2.46-4.41,4.29,4.29,0,0,0-4.23-.74,5.86,5.86,0,0,0-2.61,1.62,6.73,6.73,0,0,0-.54,1,3.73,3.73,0,0,0-.06,3.54,4.63,4.63,0,0,1,.27.82c.19.6-.06,1-.68,1a3.27,3.27,0,0,1-1.44-.37,7.37,7.37,0,0,1-3-3.44,7.47,7.47,0,0,1-.44-2.33c-.07-.66,0-1.33,0-2a6.54,6.54,0,0,1,2.68-5.41,5.92,5.92,0,0,1,3.06-1.62,3.63,3.63,0,0,0,1-.34,5.26,5.26,0,0,1,4.34-.05,3.68,3.68,0,0,0,.89.33,8.07,8.07,0,0,1,4.52,2.93,10.61,10.61,0,0,1,1.51,1.8,11.14,11.14,0,0,1,1.48,3.16c.15.78.42,1.53.58,2.31a10.16,10.16,0,0,1,0,4.62,4.58,4.58,0,0,0-.3,1,9.27,9.27,0,0,1-1.46,4.16,15.38,15.38,0,0,1-2.24,2.8A13.1,13.1,0,0,1,241.28,85c-3.3,1.9-6.87,2.23-10.55,2-.57,0-1.15,0-1.71-.12a10.3,10.3,0,0,1-1.67-.34c-.82-.24-1.62-.53-2.42-.83a5.35,5.35,0,0,1-.74-.41,4.59,4.59,0,0,0-.74-.43,4.88,4.88,0,0,1-1.56-.86c-1.1-.89-2.32-1.63-3.43-2.52a37.16,37.16,0,0,1-2.8-2.53c-1-1-1.95-2-2.86-3-1.25-1.43-2.43-2.92-3.64-4.38-.54-.65-1.1-1.29-1.63-1.95-.89-1.11-1.76-2.24-2.64-3.35-.5-.64-1-1.27-1.54-1.89a9.32,9.32,0,0,1-1.42-1.62A3.37,3.37,0,0,0,200,61.16Z"/><path d="M375.33,74.54a1.6,1.6,0,0,1-1.31.72,7.52,7.52,0,0,1-1.71,0c-1-.08-1.95-.23-2.93-.34a7.73,7.73,0,0,0-3.4.55v.23a6.09,6.09,0,0,0,.85.17c.88.06,1.77.09,2.66.14a2.57,2.57,0,0,1,2.13.85.61.61,0,0,0,.33.19c1,.21,1.51,1.09,2.23,1.71-.28.6-.83.6-1.31.68-2.12.36-4.25.68-6.38,1.06a10.43,10.43,0,0,0-1.6.55,3.89,3.89,0,0,1-.53.21,10,10,0,0,0-3.15,1.51,8.44,8.44,0,0,0-1.72,1.46c-.56.52-1.1,1.07-1.65,1.61a1.1,1.1,0,0,1-.1-1.51c.42-.74.88-1.46,1.33-2.18a1.58,1.58,0,0,0-.09-1.89c-.27-.37-.37-1.37,0-1.6.48-.34.46-.81.55-1.26a2,2,0,0,1,.67-1.32c.16-.12.23-.36.35-.54.57-.84,1.11-1.69,1.72-2.49a18.21,18.21,0,0,1,1.43-1.62,16.44,16.44,0,0,1,3.54-2.95c.88-.49,1.7-1.08,2.56-1.6a8.53,8.53,0,0,1,.87-.39c.52-.22,1-.46,1.57-.65a8.24,8.24,0,0,1,1.45-.41c1-.17,2-.33,3-.4a19.68,19.68,0,0,1,2.66,0c.92.06,1.83.21,2.74.33a4.27,4.27,0,0,1,2.25.68.91.91,0,0,0,.35.15A11,11,0,0,1,389,68.9a11.42,11.42,0,0,1,1.67,2.16,9.91,9.91,0,0,1,1.25,2.84,9.7,9.7,0,0,1,0,6,7.55,7.55,0,0,1-3.22,4.05c-1.58,1-3.26.92-5,.72a3.87,3.87,0,0,1-2.74-3.25c0-.13,0-.26,0-.38,0-1.06-.08-1.1-1.12-1.19-.24,0-.59-.06-.69-.21-.51-.79-1.27-1.43-1.39-2.45s-.29-2.08-.51-3.1a7.91,7.91,0,0,0-.57-1.7,1.52,1.52,0,0,0-1.76-.57.86.86,0,0,0-.54,1.06A1.78,1.78,0,0,0,375,74.1,3.08,3.08,0,0,1,375.33,74.54Zm4.14-7.3c-.28-.21-.33-.28-.38-.28-1.2,0-2.41,0-3.61,0a.59.59,0,0,0-.43.16,2.17,2.17,0,0,1-1.75.55,4.17,4.17,0,0,0-2.21.63,26.75,26.75,0,0,1-2.56,1.31,19.45,19.45,0,0,0-3.59,2.69,8.76,8.76,0,0,0-1.06,1c-.53.61-1.06,1.22-1.55,1.85s-1.11,1.51-1.65,2.28a.7.7,0,0,0-.12.35,1,1,0,0,1-.7,1c-.23.08-.37.6-.43.95s.14.6.66.59a8,8,0,0,1,.26-.84c.09-.22.19-.53.37-.61a1.8,1.8,0,0,0,.93-1.13,1.77,1.77,0,0,1,.43-.48,5.12,5.12,0,0,0,.49-.44c.6-.72,1.14-1.5,1.79-2.18.85-.89,1.78-1.71,2.69-2.54A5.92,5.92,0,0,1,368.51,71c.94-.39,1.59-1.29,2.66-1.41a.52.52,0,0,0,.33-.18,2.76,2.76,0,0,1,1.87-.81,3.48,3.48,0,0,0,1.52-.46,2.64,2.64,0,0,1,1.84-.6c.6,0,1.2,0,1.8,0A5.2,5.2,0,0,0,379.47,67.24ZM382.6,82c1.53,1.25,3,1.13,4.12-.2a1.89,1.89,0,0,0-.06-2.91,7.68,7.68,0,0,0-1.82-1.35,2.36,2.36,0,0,0-2.12,0,5.63,5.63,0,0,0-1.5,1.26.45.45,0,0,0,.22.77,6.56,6.56,0,0,1,1.75-.16,1.15,1.15,0,0,1,.79.56c.07.18-.2.55-.38.79C383.3,81.13,383,81.53,382.6,82Zm0-13.39c.25-.4.11-.63-.17-.67a20.59,20.59,0,0,0-2.08-.18c-.1,0-.22.21-.48.47Zm2,.62c-.5-.31-.93-.62-1.51-.18C383.67,69.67,383.86,69.7,384.61,69.2Z"/><path d="M142.09,85.88c-.56-.59-1.09-1.21-1.69-1.74a7.46,7.46,0,0,0-2.09-1.6,5.34,5.34,0,0,1-.9-.51,3.06,3.06,0,0,0-.56-.35,24.13,24.13,0,0,0-5.1-1.43,48.6,48.6,0,0,1-5.06-.86,5.2,5.2,0,0,1-1.12-.48c.94-.69,1.41-1.69,2.51-1.88,1.26-1.29,2.92-1,4.47-1.13.49,0,1,.13,1.59-.31a6.26,6.26,0,0,0-3.17-.66c-1.25.15-2.51.39-3.77.46a3.24,3.24,0,0,1-2.59-.79,3.32,3.32,0,0,0,.51-.62,4.52,4.52,0,0,0,.47-1.3.92.92,0,0,0-.94-1,1.32,1.32,0,0,0-1.5,1,24,24,0,0,0-.78,3.61A6.51,6.51,0,0,1,121,79.41a1.06,1.06,0,0,1-1.09.41c-.78-.06-.9.05-.94.79a2.81,2.81,0,0,0,0,.58,2.75,2.75,0,0,1-1.23,2.6,3.6,3.6,0,0,1-2.59,1,10.85,10.85,0,0,1-2.36-.17,6.81,6.81,0,0,1-3.47-2.34c-1.11-1.3-1.32-2.92-1.74-4.46a4.57,4.57,0,0,1,0-2,17.6,17.6,0,0,1,.83-3.21,11.33,11.33,0,0,1,3.42-4.45,9.07,9.07,0,0,1,2.92-1.73.84.84,0,0,0,.27-.08c1.83-1.18,4-1,6-1.28a13.74,13.74,0,0,1,2.93.11c.7,0,1.39.17,2.08.24a4.08,4.08,0,0,1,2,.62,2.25,2.25,0,0,0,.69.31,17,17,0,0,1,3.76,2,19.62,19.62,0,0,1,3.4,2.67c1,.86,1.64,2,2.53,2.93s1,1.92,1.78,2.65a1.06,1.06,0,0,1,.21.52,3.65,3.65,0,0,0,.68,1.72,1.34,1.34,0,0,1-.08,1.6,1.63,1.63,0,0,0,.05,2.07,24.3,24.3,0,0,1,1.32,2.18C142.6,85.07,142.68,85.55,142.09,85.88Zm-2.67-7.44a1.67,1.67,0,0,0-.7-1.68c-.19-.12-.25-.43-.39-.64a16.32,16.32,0,0,0-1.42-2c-.85-.9-1.85-1.67-2.71-2.57a13.24,13.24,0,0,0-2.79-2,5.79,5.79,0,0,0-2.34-1.1.43.43,0,0,1-.24-.16,2.11,2.11,0,0,0-1.7-.66c-.77-.07-1.61.06-2.22-.62-.06-.08-.23-.09-.36-.09-1.17,0-2.35,0-3.52,0-.1,0-.2.1-.3.15v.2a6.1,6.1,0,0,0,.93.18c.73,0,1.47,0,2.19,0,.37,0,.87.09,1.05.33a1.85,1.85,0,0,0,1.51.67c1.41.07,2.35,1.16,3.61,1.57a5.78,5.78,0,0,1,1.69,1c.76.59,1.47,1.26,2.19,1.91a28.32,28.32,0,0,1,3.53,3.81,7.06,7.06,0,0,1,1.23,1.63.3.3,0,0,0,.2.18c.58.14.67.59.75,1.08,0,.31.14.64.56.65C140.8,79.48,140.62,79,139.42,78.44Zm-20.84,1.21c.43-.54.36-.89-.09-1.21-.25-.19-.47-.42-.73-.6a2.77,2.77,0,0,0-.88-.47c-1.56-.35-2.69.5-3.64,1.55s-.84,1.8,0,2.85a2.58,2.58,0,0,0,4,.28,3,3,0,0,0-1-1.53c-.48-.51-.36-.89.3-1.13A2.38,2.38,0,0,1,118.58,79.65Zm-1.41-11.47a2.43,2.43,0,0,0,2.62-.18A2.36,2.36,0,0,0,117.17,68.18Zm-.29.88c-.66-.4-.84-.36-1.28.26C116.33,69.65,116.34,69.65,116.88,69.06Z"/><path d="M232.34,55.31c1.33-2.11,2.94-3.43,5.57-3.2a10.11,10.11,0,0,0-1-1.75c-.94-1.12-.74-2.43-.7-3.71a.69.69,0,0,1,.89-.65c1,.17,2.13.09,3,.9.45.42,1.12.56,1.51,1.11.22.31.7.1.76-.31a6.3,6.3,0,0,0,0-.75c0-1.11,0-2.22.08-3.32.09-.8.38-.92,1.19-.82l2.26.26c.72.08,1.08-.25,1-1s-.07-1.65-.09-2.47a3.29,3.29,0,0,1,.58-2.17,2.06,2.06,0,0,0,.31-.69c.21-.91,1-1.46,1.45-2.19.33-.52,1.35-.35,1.75.16A15.83,15.83,0,0,1,252.84,38a7,7,0,0,1,.25,3.29c0,.16-.05.32-.06.47-.11,1.1.27,1.43,1.38,1.25.75-.12,1.51-.18,2.27-.25.52,0,.72.32.82.75a8.07,8.07,0,0,1,.13,3.21,3.06,3.06,0,0,0-.07.85.76.76,0,0,0,.32.51c.09.06.34-.07.48-.16a11.81,11.81,0,0,1,2.08-1.45A9.71,9.71,0,0,1,263,46c.51-.06.74.38.73.81,0,.89-.12,1.77-.21,2.65a.92.92,0,0,1-.19.43c-.44.68-.9,1.35-1.41,2.11.83.12,1.56.18,2.28.33a3.24,3.24,0,0,1,1.84,1.1c.49.58,1,1.11,1.61,1.75a7.19,7.19,0,0,1-2.59,1.64c-.61.16-1.19.44-1.8.59a15.54,15.54,0,0,1-2.61.47,6.6,6.6,0,0,0-3.12.7,1,1,0,0,1-.44.16,8.12,8.12,0,0,0-3.27,1.45,7.75,7.75,0,0,0-1.56,1.37c-.61.62-1.17,1.3-1.78,1.92a.84.84,0,0,1-1.22-.19,9.84,9.84,0,0,0-.89-.81c-.11-.1-.25-.18-.36-.3-.52-.58-1-1.18-1.55-1.75a2.12,2.12,0,0,0-.56-.35l-1.14-.66c-.08,0-.15-.14-.24-.16-1.67-.31-3.12-1.4-4.9-1.36a8.49,8.49,0,0,1-2.08-.2,21.61,21.61,0,0,1-3.25-1.05A12.28,12.28,0,0,1,232.34,55.31Zm24.41-1.15c.56-.59.9-1.3,1.68-1.66s1.08-1.06,1.6-1.68c-.52-.37-.93-.35-1.19,0a1.8,1.8,0,0,1-1,.7,1.48,1.48,0,0,0-.39.28c-.37.28-.71.6-1.1.85-.67.41-1.37.78-2.06,1.15-.93.5-1.87,1-2.86,1.5a1.56,1.56,0,0,1,.09-1.78,2.91,2.91,0,0,0,.53-1.09c.29-1.46,1.29-2.69,1.32-4.23,0-.21.29-.4.42-.62a1.05,1.05,0,0,0-.11-1.46,7.52,7.52,0,0,1-1.23,1.59c-.55.42-.23,1.43-.94,1.87-.49-.61-.5-.61-.51-1.3,0-1,0-2,0-3s-.2-2.21-.31-3.31a.64.64,0,0,0-.72-.6.6.6,0,0,0-.69.6c-.11.92-.27,1.82-.31,2.74-.06,1.2,0,2.41,0,3.62,0,.48,0,.94-.5,1.2a1.81,1.81,0,0,1-.23-.09c-.07-.07-.17-.15-.17-.22-.09-1.22-1.25-1.83-1.63-2.88,0-.06-.16-.08-.27-.13a1.14,1.14,0,0,0,.08,1.56,2.84,2.84,0,0,1,.51,1.39,8.53,8.53,0,0,0,.42,1.45c.2.59.43,1.17.68,1.75a6.89,6.89,0,0,0,.61,1.25c.42.59.45.87,0,1.61-.34-.15-.68-.3-1-.47-1-.52-2.11-1-3.1-1.59a9.76,9.76,0,0,1-2.07-1.47c-.34-.36-.88-.53-1.24-1s-.68-.2-1,.29a13.21,13.21,0,0,0,1.67,1.53,8.31,8.31,0,0,1,1.56,1.63,2.59,2.59,0,0,1-1.75.52c-1.11.06-2.22.12-3.33.21a7.17,7.17,0,0,0-1,.22,10.61,10.61,0,0,0,5.27.83,19,19,0,0,1,2.38-.13,2.17,2.17,0,0,1,1.24.35A5.23,5.23,0,0,1,248,58.49a6.45,6.45,0,0,0,.31.58c.23.52.47,1,.65,1.56a6.72,6.72,0,0,1,.21,1.12.63.63,0,0,0,.63.58c.77.09,1-.06,1.15-.87a5,5,0,0,0,.1-.56c.11-1.36,1-2.37,1.64-3.47a6.41,6.41,0,0,1,1.06-1.09,1.78,1.78,0,0,1,1.38-.52,23.43,23.43,0,0,1,2.38.1,13.48,13.48,0,0,0,4.9-.45,3.07,3.07,0,0,0,.5-.2,3.2,3.2,0,0,0-1.27-.38c-1.07-.09-2.15-.14-3.23-.19A2.26,2.26,0,0,1,256.75,54.16ZM244,49.74c-.38.61-.19,1.18.56,1.56.33.17.66.3.87-.13s-.09-.56-.37-.73Zm12,0c-.47.3-.89.53-1.27.83-.15.11-.33.42-.27.51a.79.79,0,0,0,.56.36A1.21,1.21,0,0,0,256,49.72Z"/><path d="M200.08,37a2.69,2.69,0,0,0,2.27.55.56.56,0,0,0,.38-.24,7.71,7.71,0,0,1,2.59-2A12.75,12.75,0,0,0,207,33.93c.65-.58,1.26-1.22,1.89-1.83a1.38,1.38,0,0,0,.24-.3c.43-.92,1.24-.95,2.08-.87.35,0,.69.12,1,.17a1.32,1.32,0,0,1,1.11,2.07,12.11,12.11,0,0,1-1.29,2.09c-.4.52-.93.94-1.36,1.44a.68.68,0,0,0-.19.56.66.66,0,0,0,.53.27c.63-.05,1.25-.16,1.88-.25.53.69.53.73,0,1.32-.19.21-.35.45-.53.66a7,7,0,0,1-4.2,2.71,17,17,0,0,0-2.21.56.57.57,0,0,0-.21,1,1.73,1.73,0,0,0,.86.36c1.09.08,1.66.82,2.33,1.67a2.48,2.48,0,0,1-.64.36c-1.53.27-3.06.55-4.6.76a11.6,11.6,0,0,1-4.66-.77,3.4,3.4,0,0,1-1.45-1A8.74,8.74,0,0,1,196,42.83a4.79,4.79,0,0,1-.58-2.61,4.92,4.92,0,0,0-.3-1.68,2.17,2.17,0,0,1,.52-2.27,4.17,4.17,0,0,0,.56-.87c.42-.82.77-1.67,1.24-2.45a6.49,6.49,0,0,1,1.16-1.36c.63-.6,1.38-1.09,2-1.71.78-.82,1.91-1,2.79-1.59a2.45,2.45,0,0,1,1-.31,18.42,18.42,0,0,1,5-.17c.94.1,1.16.55.62,1.34a14.73,14.73,0,0,1-2.75,3c-.68.56-1.33,1.16-2,1.7-1,.81-2.09,1.59-3.16,2.35a4.06,4.06,0,0,1-.89.31C200.87,36.62,200.57,36.77,200.08,37Zm4.17,2.59.28,0c.08-.28.17-.56.24-.85s.24-.63-.14-.85a.65.65,0,0,0-.93.2Zm-3.91,1.69c.88.58,1.39.58,2,0A1.78,1.78,0,0,0,200.34,41.25Zm6.37-.87v-.29c-.31-.3-.58-.12-.86.24Zm-3.77-.19.07.26c.31.16.52.06.74-.47Zm-3.74-3.08,0-.26-1,.17,0,.09Z"/><path d="M291,45.65c.62-.84,1.11-1.56,2.17-1.69s1.27-.52,1.2-1.47c-.92-.18-1.84-.44-2.77-.53a5.69,5.69,0,0,1-2.89-1.51,15.32,15.32,0,0,1-1.94-2.08c-.36-.41-.09-.75.16-1.11.63.1,1.25.22,1.88.26.21,0,.43-.17.65-.27-.1-.21-.14-.48-.3-.62a12.53,12.53,0,0,1-2.56-3.37,1.34,1.34,0,0,1,1-2.13,3.59,3.59,0,0,1,2.42,0,1.8,1.8,0,0,1,.5.25A26,26,0,0,0,293,33.93a9.92,9.92,0,0,0,2.08,1.58A6.62,6.62,0,0,1,297,37a1.77,1.77,0,0,0,2.66,0,3.14,3.14,0,0,0-.64-.35,6,6,0,0,1-1.78-.88,11.51,11.51,0,0,1-1.46-1.17A19,19,0,0,0,294,33.23a20.2,20.2,0,0,1-3.93-4,1.4,1.4,0,0,1-.27-1c.1-.4.57-.44,1-.44,1.26,0,2.53,0,3.8.05a5.51,5.51,0,0,1,2.7.78,13.16,13.16,0,0,1,2.21,1.27c.64.58,1.37,1.1,1.95,1.74a7,7,0,0,1,1.68,2.27,10.82,10.82,0,0,0,.59,1.18,4,4,0,0,0,.61,1.16,2.25,2.25,0,0,1,.61,1.92,13.75,13.75,0,0,1-.22,1.41c-.05.46-.06.93-.08,1.39,0,.19.07.42,0,.57A15.89,15.89,0,0,1,303.19,44a12.39,12.39,0,0,1-1.8,1.66,1.34,1.34,0,0,1-.48.3c-2,.56-4,1.15-6.17.54a15.68,15.68,0,0,0-2.16-.35A3.41,3.41,0,0,1,291,45.65Zm4.69-6,.5-1.64c-.68-.35-1.07-.28-1.06.16A1.74,1.74,0,0,0,295.72,39.69Zm4.06,1.56a3.25,3.25,0,0,0-1.81-.37c-.13,0-.29.22-.34.37s.15.27.28.31A1.88,1.88,0,0,0,299.78,41.25ZM293.2,40v.22c.64.28.64.28,1.21-.15Zm7.47-3.12v.27h1.23V37ZM296.29,40c.45.52.45.52.83.12Z"/><path d="M354.66,84.58,354.2,84a6.65,6.65,0,0,0-4.84-2.65,30.22,30.22,0,0,0-6.92.37,7.11,7.11,0,0,0-1.08.34l-.17.08-5.57,1.53-1.55.45c-.64.19-1.26.42-1.9.57a41.4,41.4,0,0,1-4.37.92,22.13,22.13,0,0,1-4,.08,7.74,7.74,0,0,1-1.89-.57,4.89,4.89,0,0,0-.8-.31,5.08,5.08,0,0,1-2.26-1.51,8.6,8.6,0,0,1-2.06-3,10.5,10.5,0,0,1-.73-2.84,7.62,7.62,0,0,1,1.21-5.24,8.31,8.31,0,0,1,4.05-3.66c.45-.14.84-.49,1.29-.6a5.56,5.56,0,0,1,4.51.34c.57.34,1.15.65,1.72,1a5.82,5.82,0,0,1,2.26,3.41,3.37,3.37,0,0,1,.21,1.4,6.28,6.28,0,0,1-1.47,3.52c-.77.92-1.85.9-2.87,1-.2,0-.5-.31-.67-.55s0-.55.2-.75a3.3,3.3,0,0,0,.87-3.56,2.53,2.53,0,0,0-1.74-1.86,6.26,6.26,0,0,0-2.44-.25,4,4,0,0,0-3.54,3c-.11.36-.27.72-.35,1.09a4.49,4.49,0,0,0-.18,1.4,6.92,6.92,0,0,0,2.45,5A5.83,5.83,0,0,0,325,83.54a9.68,9.68,0,0,0,4.4-.55,4.35,4.35,0,0,1,1-.25,8.14,8.14,0,0,0,3-.89,5.29,5.29,0,0,1,1.09-.3c.57-.2,1.12-.42,1.68-.63a6.76,6.76,0,0,1,.89-.33,6,6,0,0,0,2.39-.87l.09,0c3.49-1.08,7-2,10.72-1.4A5.12,5.12,0,0,1,353,79.84a16.17,16.17,0,0,1,1.95,2.65A1.62,1.62,0,0,1,354.66,84.58Z"/><path d="M145.33,84.55c-.47-.1-.63-.33-.59-.7a3.06,3.06,0,0,1,.55-1.69c.5-.61.89-1.3,1.37-1.92a5,5,0,0,1,4.08-2.06c1.77,0,3.55.11,5.32.24a6.84,6.84,0,0,1,1.61.51,7.31,7.31,0,0,0,1,.33,6.69,6.69,0,0,1,2.69.89,4,4,0,0,0,.9.28l2,.71s.11.07.17.09c1.6.48,3.2,1,4.81,1.44.51.16,1.06.21,1.56.4a8.83,8.83,0,0,0,4.79.37,6.19,6.19,0,0,0,3.69-2.16,10,10,0,0,0,1.61-3.71,1.37,1.37,0,0,0,0-.57,6.2,6.2,0,0,0-2.4-4.76,4.09,4.09,0,0,0-3.29-.55,3.29,3.29,0,0,0-1.84,5.56.74.74,0,0,1,.23,1,.72.72,0,0,1-.86.42c-1.07-.18-2.17-.33-2.83-1.34-.9-1.38-1.59-2.85-1.08-4.55a6.2,6.2,0,0,1,2.12-3.41c1.75-1.3,3.66-2.13,5.84-1.55a7.77,7.77,0,0,1,3.31,1.56,14.77,14.77,0,0,0,1.36,1.15A5.18,5.18,0,0,1,183,72.76a7.69,7.69,0,0,1,.72,5.53c-.07.25-.13.49-.19.74a8.34,8.34,0,0,1-3.11,4.82A8.61,8.61,0,0,1,175,85.78a13.52,13.52,0,0,1-5.35-.71,4.83,4.83,0,0,0-1.2-.25,13.37,13.37,0,0,1-2.84-.75,43.28,43.28,0,0,0-4.91-1.45,10,10,0,0,1-2.45-.7,2.35,2.35,0,0,0-.73-.21,26.71,26.71,0,0,0-7.78-.25,6.86,6.86,0,0,0-4,2.55C145.61,84.17,145.49,84.35,145.33,84.55Z"/><path d="M393.46,85.19c.28-.12.56-.22.84-.35s.82-.45,1.25-.63a5.84,5.84,0,0,1,1.43-.47,3.49,3.49,0,0,0,1.84-.69,1.92,1.92,0,0,1,.5-.29,14.21,14.21,0,0,0,4.44-3.13,20.07,20.07,0,0,0,2.63-3.33,2.84,2.84,0,0,0,.32-.78,7.21,7.21,0,0,1,.22-.83,4.25,4.25,0,0,0-.19-4.09,6.42,6.42,0,0,0-1.1-1.52A4.55,4.55,0,0,0,401,67.77,4.48,4.48,0,0,0,398.32,70a2,2,0,0,0,1.2,2.76,3.85,3.85,0,0,0,1.43-.3A.84.84,0,0,1,401,74a2.55,2.55,0,0,1-2.45.68,5.25,5.25,0,0,1-3.56-4,14.73,14.73,0,0,1-.09-2,5.22,5.22,0,0,1,1.67-3.41,18.25,18.25,0,0,1,2-1.62,1.09,1.09,0,0,1,.41-.22,9.32,9.32,0,0,1,4.22-.44,14.67,14.67,0,0,1,1.5.26,7.71,7.71,0,0,1,1.3.53c.23.1.41.3.64.4a9.54,9.54,0,0,1,2.38,2c.86.76,1.08,1.85,1.68,2.73a2.06,2.06,0,0,1,.25,1c.14,1.71.29,3.43-.63,5a1.17,1.17,0,0,0-.14.35,11.26,11.26,0,0,1-3,4.76,18.41,18.41,0,0,1-3.51,2.87c-1,.66-2.18.87-3.11,1.59-1.94.26-3.78,1.11-5.78,1.08a10.92,10.92,0,0,1-1.26-.18Z"/><path d="M106.76,85.28a6.69,6.69,0,0,1-3.73.07c-.83-.21-1.67-.36-2.49-.59a17.9,17.9,0,0,1-1.68-.62,6.54,6.54,0,0,0-.59-.3,14,14,0,0,1-4.65-3,20.63,20.63,0,0,1-3.31-4.13A3.1,3.1,0,0,1,90,76a5.23,5.23,0,0,0-.33-1c-1-1.61-.74-3.37-.65-5.1a4,4,0,0,1,.5-1.42,6.91,6.91,0,0,1,1.5-2.38,8.77,8.77,0,0,1,2.24-1.83.64.64,0,0,0,.26-.13c.94-.9,2.18-1,3.35-1.15a7.17,7.17,0,0,1,4.11.52,6.87,6.87,0,0,1,3.15,2.76,6.44,6.44,0,0,1,.93,2.92,5.58,5.58,0,0,1-1.46,4.09,3.79,3.79,0,0,1-2.94,1.49,3.23,3.23,0,0,1-1.92-.93.82.82,0,0,1,0-1.2.67.67,0,0,1,.64-.08c.48.29.91.46,1.4.06a2.23,2.23,0,0,0,1-1.62,2.53,2.53,0,0,0-1.15-2.17A4.32,4.32,0,0,0,97.5,67.6,5.35,5.35,0,0,0,94.38,69a5.16,5.16,0,0,0-1.62,2.84,3.34,3.34,0,0,0,0,2,8.38,8.38,0,0,1,.35,1.18,6.84,6.84,0,0,0,1.72,3,21.35,21.35,0,0,0,2.92,2.94,19.54,19.54,0,0,0,2.56,1.58A8.69,8.69,0,0,0,104,84a.72.72,0,0,1,.42.2,3.62,3.62,0,0,0,1.69.82A7.16,7.16,0,0,1,106.76,85.28Z"/><path d="M220.5,42.3c.57-.15,1-.3,1.46-.38a3,3,0,0,0,1.8-.77,1.41,1.41,0,0,1,.41-.25,8.92,8.92,0,0,0,3.4-3.28,6.5,6.5,0,0,0,1-4.44,4.18,4.18,0,0,0-.8-2.08,6.56,6.56,0,0,0-2-1.69,3.45,3.45,0,0,0-3.5.16,5.59,5.59,0,0,0-1.77,1.65,1.66,1.66,0,0,0-.07,1.93c1.07,1.58,2.43,1.7,3.85.36a4.46,4.46,0,0,1,.43-.33,1.6,1.6,0,0,1,.29,2.07,2.6,2.6,0,0,1-.72.88c-1.06.64-2.07,1.36-3.51.74a6.32,6.32,0,0,1-2.57-2c-.67-.85-.74-3.49.17-4.2.72-.57,1.37-1.22,2.08-1.79.34-.27.56-.5.39-.95a5.79,5.79,0,0,1-.18-.63A1.33,1.33,0,0,1,222,27c1.42.33,2.84.64,4.27.94a5,5,0,0,1,2.31,1.57,3.16,3.16,0,0,1,1.12,2c0,.18.21.35.39.63a13.09,13.09,0,0,0,1.64-2,11.34,11.34,0,0,1,1.68-2c.83-.76,1.79-1.38,2.7-2.06a.54.54,0,0,1,.24-.14c1.76-.3,3.35-1.46,5.24-1.09.71.14,1.41.33,2.11.51.21.05.4.19.62.23a5.51,5.51,0,0,1,3.05,2,4.61,4.61,0,0,1,1.42,4.21c-.45,2.09-2.1,3.44-4.34,2.51a1.23,1.23,0,0,1-.79-1,1.8,1.8,0,0,1,1.16-2.37c.26-.12.53-.21.79-.33.51-.24.59-.35.79-1a5,5,0,0,0-3.09-2.39,8.51,8.51,0,0,0-8.48,1.92,12.23,12.23,0,0,0-2.16,3c-.88,1.69-1.26,3.57-2.2,5.22a11,11,0,0,1-1.22,1.81,9.08,9.08,0,0,1-3.86,3,2,2,0,0,0-.84.71,1.79,1.79,0,0,1-2.38.78A3,3,0,0,1,220.5,42.3Z"/><path d="M279.51,42.3a3.49,3.49,0,0,1-2.3,1.35,1.52,1.52,0,0,1-1.63-.74A3.39,3.39,0,0,0,274,41.77a8.32,8.32,0,0,1-2.23-1.57,11.52,11.52,0,0,1-2.13-2.76,9.92,9.92,0,0,1-1.45-3.39,2.14,2.14,0,0,0-.26-.81,18.63,18.63,0,0,0-2-3.33,7.18,7.18,0,0,0-2.75-2.13c-.2-.08-.39-.22-.59-.31a3.48,3.48,0,0,0-1.2-.51,19.36,19.36,0,0,0-4.17,0,5.4,5.4,0,0,0-3.57,2.32c-.26.39,0,.95.53,1.23s.92.42,1.39.61c.7.28.77.89.77,1.5a1.53,1.53,0,0,1-.77,1.52,3.38,3.38,0,0,1-2.85.07.45.45,0,0,1-.24-.15c-.58-.88-1.48-1.6-1.41-2.81,0-.41,0-.83,0-1.24a1.34,1.34,0,0,1,.13-.64A9.72,9.72,0,0,1,254.35,26a7.68,7.68,0,0,1,.79-.32c.47-.18.94-.39,1.42-.55a6.9,6.9,0,0,1,5,.12,1.39,1.39,0,0,0,.43.2,6,6,0,0,1,3,1.35A13,13,0,0,1,267,28.59c.83.94,1.53,2,2.29,3,.15.19.32.36.59.64a5.3,5.3,0,0,0,.42-1.05A3.72,3.72,0,0,1,271.81,29a4.9,4.9,0,0,1,3-1.32,20.71,20.71,0,0,0,3.14-.74,1.86,1.86,0,0,1,.47-.09c.62,0,.94.34.77.94a.87.87,0,0,0,.44,1.11,11.18,11.18,0,0,1,1.68,1.39,3.81,3.81,0,0,1,.1,5.06c-.78,1-1.91,1.18-2.88,1.72a1,1,0,0,1-.56,0A4.37,4.37,0,0,1,275,35.32a1.65,1.65,0,0,1,.27-2.17,5.21,5.21,0,0,0,.62.54,6.18,6.18,0,0,0,1.51.73c1.14.25,1.75-.52,2.22-1.39a1.84,1.84,0,0,0-.24-2,4.74,4.74,0,0,0-2.06-1.75,3.49,3.49,0,0,0-2.12-.24,5,5,0,0,0-2.81,1.76c-1.3,1.52-1.2,3.21-.88,4.94a6.69,6.69,0,0,0,1.59,2.87c.33.41.78.73,1.11,1.16.69.89,1.83,1.1,2.65,1.8.28.24.78.21,1.18.31Z"/><path d="M414.52,75.55c.11-.06.2-.17.31-.19a7.64,7.64,0,0,0,2.2-.84,4.6,4.6,0,0,1,3.62,0c.42.13.83.34,1.26.43a10.17,10.17,0,0,1,4.22,2.43l3.37,2.77s.05.05.08.05c1.56.31,2.93,1.49,4.64,1a13.24,13.24,0,0,0,3.06-1,6.19,6.19,0,0,0,2.47-2.15,6.11,6.11,0,0,0,.55-2.27c.05-.42-.6-.68-1.22-.56a1.56,1.56,0,0,1-1.18,0c-.83-.46-1.22-1-1.1-1.79a1.91,1.91,0,0,1,1.5-1.54,3.06,3.06,0,0,1,2.84.88A4.21,4.21,0,0,1,442.25,76a5.51,5.51,0,0,1-1.73,3.78,11.3,11.3,0,0,1-2.64,2c-1.69,1-3.45.86-5.24.84-.35,0-.7,0-1-.06a1.73,1.73,0,0,1-.57,0A17.6,17.6,0,0,1,428,81a1.4,1.4,0,0,0-.73-.36c-.84-.11-1,.12-.83,1a2.59,2.59,0,0,1,0,1,4.64,4.64,0,0,1-.45,1.55,9.17,9.17,0,0,1-1.46,1.71c-.64.6-1.35,1.12-2.05,1.66a4.78,4.78,0,0,1-.74.4.63.63,0,0,1-1-.29,1.25,1.25,0,0,0-1.31-.74,3.08,3.08,0,0,1-1.67-.59,5.77,5.77,0,0,1-1.94-1.61,3.6,3.6,0,0,1-.23-3.34,5.77,5.77,0,0,1,1.41-1.65,3.72,3.72,0,0,1,4.4.73.78.78,0,0,1,.16,1c-.23.37-.53.34-.91.27-2-.42-2.44,1.1-2.21,2.43a1.07,1.07,0,0,0,.19.42,3.53,3.53,0,0,0,3.51,1.17,6.58,6.58,0,0,0,2.4-2c.43-.52.3-1.14.38-1.73a4.31,4.31,0,0,0-1.71-4.09,6.11,6.11,0,0,0-4-1.81c-1.17,0-2.35,0-3.52-.06-.42,0-.84-.13-1.26-.19Z"/><path d="M85.44,75.74a4.69,4.69,0,0,1-1.82.28c-1.36,0-2.73.09-4.08.22a4.47,4.47,0,0,0-1.28.55c-.19.09-.37.23-.56.34a5,5,0,0,0-2.77,4.8,3.85,3.85,0,0,0,1.68,3,3.16,3.16,0,0,0,2.89.73,2.52,2.52,0,0,0,2-2.47,1.64,1.64,0,0,0-2-1.61c-.19,0-.38.15-.55.12a1,1,0,0,1-.62-.3.72.72,0,0,1,0-.68,4.69,4.69,0,0,1,1-1.1,4.05,4.05,0,0,1,3.74.19,3.86,3.86,0,0,1,1.56,3.29,3.47,3.47,0,0,1-1.93,2.83,3.53,3.53,0,0,0-.57.33,2.72,2.72,0,0,1-1.76.62,1.18,1.18,0,0,0-1.07.48c-.53.74-1,.84-1.69.28-1.14-1-2.24-1.94-3.33-2.93a1.54,1.54,0,0,1-.4-.73c-.2-.91-.74-1.77-.35-2.77.12-.31-.09-.55-.45-.58s-.9-.1-1.19.38a.47.47,0,0,1-.18.21,12.29,12.29,0,0,1-3,1.25,37.15,37.15,0,0,1-4.84.08.67.67,0,0,1-.37-.07c-1-.6-2-.93-3-1.64A15.09,15.09,0,0,1,58.12,78a1,1,0,0,1-.2-.52,16.21,16.21,0,0,1-.09-3,3.23,3.23,0,0,1,3.68-2.65,1.89,1.89,0,0,1,1.56,2.3,1.72,1.72,0,0,1-1.89,1.18,3.9,3.9,0,0,0-.46-.12.89.89,0,0,0-1.07,1,4.48,4.48,0,0,0,1.81,3.19c1.16,1,2.67,1.24,4,1.82a2.83,2.83,0,0,0,2.31-.15,3.12,3.12,0,0,1,.87-.37c1.62-.17,2.73-1.22,3.89-2.17.81-.67,1.54-1.44,2.39-2A7.65,7.65,0,0,1,78,75c.84-.15,1.63-.53,2.46-.69a3.86,3.86,0,0,1,3.09.56,4.81,4.81,0,0,0,1.15.44l.79.26Z"/><path d="M319.57,87.45a3,3,0,0,1-.48,0c-1.19-.21-2.37-.4-3.55-.65a8.49,8.49,0,0,1-1.32-.5c-.2-.09-.39-.22-.59-.3a11,11,0,0,1-4.8-3.86,13.25,13.25,0,0,1-1.38-3,11,11,0,0,1-.71-5.12,10.86,10.86,0,0,1,.25-1.79,1.9,1.9,0,0,1,1-1.42.62.62,0,0,1,.9.21c.06.08.1.16.15.24.53.82.9.83,1.47,0a2,2,0,0,0,.37-.66,4.46,4.46,0,0,1,1.44-2.39,9.86,9.86,0,0,1,.79-.66c.23-.16.52-.25.74-.42,1.31-1,2.78-.87,4.27-.63a.73.73,0,0,1,.32.18c.08,0,.12.14.22.26a2.12,2.12,0,0,1-.36.51c-1,.79-2.13,1.5-3.08,2.36a19.11,19.11,0,0,0-2,2.39,3.18,3.18,0,0,0-.47.82,5,5,0,0,0-.51,1.49,22.37,22.37,0,0,0,0,3,5.07,5.07,0,0,0,.6,2.08,14.83,14.83,0,0,0,1.31,2.49,13.85,13.85,0,0,0,2.59,2.76A5.83,5.83,0,0,0,318.72,86C319.37,86.22,319.3,86.88,319.57,87.45Z"/><path d="M190.45,72l.93-1.34A2,2,0,0,1,193,72.35a12.75,12.75,0,0,1,0,5.29,12.12,12.12,0,0,1-1.17,3.4,12.9,12.9,0,0,1-3.46,3.84c-1,.72-2.09,1-3.06,1.66a3.28,3.28,0,0,1-1.09.32c-1,.21-2.11.4-3.18.58a3.43,3.43,0,0,1-.56,0,1.72,1.72,0,0,1,1.28-1.67,6.81,6.81,0,0,0,2-1.51,33.85,33.85,0,0,0,2.5-3c.26-.33.27-.85.5-1.22,1-1.5.89-3.2.93-4.87a3.41,3.41,0,0,0-.69-2.31c-.59-.73-1-1.61-1.64-2.3a23,23,0,0,0-2.35-2c-.58-.47-1.21-.89-2-1.45.39-.25.61-.5.87-.54a5.72,5.72,0,0,1,4.2.65,10,10,0,0,1,2.17,1.92,4.65,4.65,0,0,1,.6,1.27C189.26,71.08,189.55,71.75,190.45,72Z"/><path d="M241.88,15.45a3.39,3.39,0,0,1,4.35.33,2.31,2.31,0,0,0,1.41-1.26c.47-.78,1-1.54,1.53-2.27a1.21,1.21,0,0,1,1.69.07c.5.69,1,1.39,1.41,2.12a3.22,3.22,0,0,0,1.32,1.34,6.47,6.47,0,0,1,1.5-.83,5.21,5.21,0,0,1,1.89,0,4.83,4.83,0,0,1,1.15.45c-.27.71-.47,1.34-.74,1.92-.62,1.3-1,2.78-2.23,3.68-1.36,1-2.77,2.09-4.65,1.07a1.49,1.49,0,0,0-1.1,0,3.46,3.46,0,0,1-3.56-.35A23.66,23.66,0,0,1,244,20.16a.76.76,0,0,1-.18-.22c-.42-.88-.85-1.76-1.24-2.65C242.31,16.71,242.13,16.11,241.88,15.45Zm9.23,2.19c0-.48,0-.92-.07-1.36a2.43,2.43,0,0,0,0-.38c-.13-.74-.4-1-1-1s-.87.23-1,1a11.14,11.14,0,0,0,0,3.21c.09.76.19.88.81.91.87.05,1.18-.14,1.28-.89C251.09,18.62,251.09,18.11,251.11,17.64Zm-5.24.48a2.23,2.23,0,0,0-.66.2c-.11.08-.23.39-.18.46a11,11,0,0,0,1.4,1.49,12.79,12.79,0,0,0,1.52.92c.23.14.51.26.65,0a.82.82,0,0,0,0-.75c-.64-.71-1.34-1.38-2-2A2.42,2.42,0,0,0,245.87,18.12Zm9.15.58c-.63-.62-1.23-.68-1.73-.19s-1.24,1.23-1.86,1.85c-.25.25-.38.52-.12.83s.51.09.75-.05c.52-.29,1-.57,1.55-.88a2.2,2.2,0,0,0,.51-.4C254.42,19.51,254.7,19.12,255,18.7Z"/><path d="M297.59,66.44c.55.16.62.55.7.92.19.9.38,1.8.56,2.7a1.64,1.64,0,0,1,0,.66c-.27,1.26-.48,2.55-.87,3.78a8.06,8.06,0,0,1-1.12,2,24.43,24.43,0,0,0-1.49,2.06c-.58,1.09-1.55,2-1.47,3.42a3.91,3.91,0,0,1-.37,1.28c-.44-.28-.79-.49-1.13-.72-.15-.1-.34-.23-.39-.39-.46-1.33-1.19-2.63-.57-4.12a3.35,3.35,0,0,0,.2-.83,8,8,0,0,1,1.8-3.49c.59-.78,1.09-1.63,1.71-2.37a27,27,0,0,0,1.6-3,5.9,5.9,0,0,0,.37-1C297.3,67,297.45,66.73,297.59,66.44Z"/><path d="M206.48,83.22a3.6,3.6,0,0,1-.58-1.79,4.34,4.34,0,0,0-.52-1.49c-1.09-1.76-2.25-3.48-3.37-5.23a3,3,0,0,1-.31-.89c-.18-.74-.31-1.49-.48-2.23a4.92,4.92,0,0,1,.06-2.44c.16-.58.25-1.18.4-1.76.09-.32.24-.63.45-1.17a4.63,4.63,0,0,1,.62,1,3.87,3.87,0,0,0,.78,1.71.75.75,0,0,1,.13.25c.59,1.81,1.87,3.18,3,4.69A6.49,6.49,0,0,1,208.2,77a1.92,1.92,0,0,0,.11.46,5,5,0,0,1-.16,4.13,1.81,1.81,0,0,1-.85,1.08A4.84,4.84,0,0,0,206.48,83.22Z"/><path d="M308.64,30a2.76,2.76,0,0,1,.32.94,17.64,17.64,0,0,1-.33,2.91c-.27,1.1-.71,2.15-1.08,3.22a1.27,1.27,0,0,0,1.36.29c.43-.08.85-.26,1.28-.37.61-.17.85,0,1,.51s0,1-.52,1a5.37,5.37,0,0,1-3.1,0,2.78,2.78,0,0,0-.83-.15l-1.21-.17c0-.56.05-1.06.12-1.56a3.2,3.2,0,0,0-.48-2.44,5.42,5.42,0,0,1-.47-1c-.31-.74-.26-1.62-1-2.22-.19-.17-.14-.6-.24-.9-.17-.5-.36-1-.55-1.49-.06-.18-.2-.34-.21-.52q-.09-1.71-.15-3.42c0-.37.08-.78.46-.85s.57.18.84.32a.89.89,0,0,1,.4.39c.43,1.05,1.28,1.88,1.54,3s.56,2.14.88,3.2c.07.22.28.54.43.54a1,1,0,0,0,.67-.37,4.91,4.91,0,0,0,.54-.85Z"/><path d="M192.4,37.27c-.34-1.13-.57-2.06-.91-2.94a7.83,7.83,0,0,1-.48-3.45,3.9,3.9,0,0,1,.33-.92l.23,0c.18.28.36.55.53.83s.36.61.72.44a1,1,0,0,0,.48-.61c.32-1.13.58-2.27.89-3.39a5.38,5.38,0,0,1,.49-1,6.3,6.3,0,0,1,.55-1,7.9,7.9,0,0,1,1.14-1.36c.45-.38.82-.17.94.42a1.83,1.83,0,0,1,0,.47c0,.86,0,1.72,0,2.57a6,6,0,0,1-.42,1.33c-.12.36-.27.71-.36,1.07a2.84,2.84,0,0,1-.76,1.8c-.14.11-.13.4-.2.61a12.55,12.55,0,0,1-.81,2.12,3.48,3.48,0,0,0-.46,2.28c0,.06,0,.12,0,.19.24,1.44.17,1.68-1.29,1.63a1.42,1.42,0,0,0-.65.12,5,5,0,0,1-2.9.11.76.76,0,0,1-.75-.82c0-.68.38-1,1-.79a11.1,11.1,0,0,0,1.37.37A8.19,8.19,0,0,0,192.4,37.27Z"/><path d="M293.31,63.4c0,.58-.32.69-.63.86s-.73.48-1.11.68a7.9,7.9,0,0,1-1,.44c-.62.22-1.24.46-1.87.65a7.58,7.58,0,0,1-1.84.44c-1.71.08-3.42.07-5.13.06a4.24,4.24,0,0,1-2.4-.78,7.46,7.46,0,0,1-1.8-1.61,3.19,3.19,0,0,1-.61-2.59,1.73,1.73,0,0,1,1.4-1.51,1.83,1.83,0,0,1,2.07.78,2.87,2.87,0,0,1,.43.62A4.59,4.59,0,0,0,283.37,64a3.7,3.7,0,0,0,1.64.39c1.42,0,2.85,0,4.28-.11a3.88,3.88,0,0,0,1.32-.47A4,4,0,0,1,293.31,63.4Z"/><path d="M217.14,66.67c-1.39-.07-2.79-.07-4.17-.21a10.45,10.45,0,0,1-2-.6c-.39-.12-.77-.29-1.17-.39a3.27,3.27,0,0,1-1.77-.83c-.24-.26-.69-.3-1-.51s-.24-.38-.36-.58c.19-.09.39-.26.57-.24a4.43,4.43,0,0,1,1.74.34,6.34,6.34,0,0,0,3,.72c.69,0,1.39,0,2.09,0A5.74,5.74,0,0,0,218.05,63a5.08,5.08,0,0,0,.83-1c.25-.36.44-.77.69-1.13a1.91,1.91,0,0,1,2.38-.78,1.81,1.81,0,0,1,1.16,2.06,4.15,4.15,0,0,1-2.18,3.41A6.84,6.84,0,0,1,217.14,66.67Z"/><path d="M275.34,44.4c0,.12,0,.22-.09.23a4.52,4.52,0,0,0-2,1.56,4.59,4.59,0,0,0-.8,1.25c-.19.53-.49,1-.64,1.58-.35,1.27.38,2.16,1.07,3a13.87,13.87,0,0,1,1.78-.87,1.79,1.79,0,0,1,2.13,1.21,5,5,0,0,1,.15,1.21,2.18,2.18,0,0,1-2.18,2.28,3.63,3.63,0,0,1-3.56-1.69,4.69,4.69,0,0,1-.92-3c0-.63,0-1.27,0-1.9a3.28,3.28,0,0,1,.71-1.91,9.71,9.71,0,0,1,1.35-1.78c.53-.44,1-1,1.55-1.34S274.91,44.13,275.34,44.4Z"/><path d="M226.93,52.08a3.49,3.49,0,0,0,1.26-2.74,4.12,4.12,0,0,0-.29-.88c-.05-.14-.21-.26-.23-.41-.13-1.16-1.06-1.82-1.68-2.67a1.72,1.72,0,0,0-.62-.41c-.25-.15-.52-.29-.84-.46.91-.58,1.21-.56,1.77,0a16.51,16.51,0,0,1,1.25,1.11,20,20,0,0,1,1.61,2.06,2.15,2.15,0,0,1,.37,1.07,24.54,24.54,0,0,1,.08,3.32,4.49,4.49,0,0,1-2.29,3.43,3.16,3.16,0,0,1-3.19.05,2.77,2.77,0,0,1-.75-3.77,2.24,2.24,0,0,1,2.79-.28C226.4,51.64,226.61,51.83,226.93,52.08Z"/><path d="M138.59,70a5.47,5.47,0,0,1-2-.72,2.83,2.83,0,0,1-1.14-2.32c.32-1.71,1-2.91,3.12-2.92a3,3,0,0,1,3,3A3.19,3.19,0,0,1,138.59,70Z"/><path d="M361.36,69.82a2.77,2.77,0,0,1-3-2.94A3,3,0,0,1,361.33,64a2.82,2.82,0,0,1,2.11.69,4.8,4.8,0,0,1,1,2.28c.12.85-.55,1.6-1.09,2.25A2.43,2.43,0,0,1,361.36,69.82Z"/><path d="M253.31,83.68a.86.86,0,0,1-.59,1,2.63,2.63,0,0,0-1.8,2,.88.88,0,0,1-.92.79c-.44,0-.75-.11-.87-.55,0-.19-.12-.36-.18-.55a2.31,2.31,0,0,0-1.46-1.63c-.47-.17-.84-.39-.83-1a1.1,1.1,0,0,1,.82-1.13A2.25,2.25,0,0,0,249,80.9a3.56,3.56,0,0,1,.25-.61c.17-.4.53-.39.88-.4a.67.67,0,0,1,.71.51c.06.18.13.36.18.54a2.32,2.32,0,0,0,1.53,1.69A1,1,0,0,1,253.31,83.68Z"/><path d="M367.17,58.93a3,3,0,0,1,2.77,2.61,3.66,3.66,0,0,1-2.66,2.66,2.8,2.8,0,0,1-2.55-2.76A2.47,2.47,0,0,1,367.17,58.93Z"/><path d="M132.68,58.82a2.7,2.7,0,0,1,2.57,2.73,2.94,2.94,0,0,1-2.5,2.65,3.42,3.42,0,0,1-2.68-2.61,3,3,0,0,1,1.1-2.14C131.49,59.08,132.16,59,132.68,58.82Z"/><path d="M239.21,44.5c-.39.15-.61,0-.73-.38a6.28,6.28,0,0,1-.31-4,2.23,2.23,0,0,1,2.7-1.53A2.1,2.1,0,0,1,242.41,41c0,.21-.11.49-.26.58-.64.4-1.05,1.21-2,1-.48-.11-.83.32-.9.9A8.81,8.81,0,0,0,239.21,44.5Z"/><path d="M261,44.67c-.09-.45-.16-.73-.2-1-.14-.81-.41-1-1.26-1a2,2,0,0,1-.75-.28c-.17-.09-.28-.28-.44-.36a1.48,1.48,0,0,1-.76-1.85,2,2,0,0,1,1.54-1.53,2.19,2.19,0,0,1,2.64,1.47,6.18,6.18,0,0,1-.37,4.25A3,3,0,0,1,261,44.67Z"/><path d="M308.42,40.88a7.14,7.14,0,0,0,.62,1.63,3.92,3.92,0,0,0,1.54,1.64,1,1,0,0,1,.43.35.35.35,0,0,1-.33.57,3.06,3.06,0,0,1-1.39-.52,2.82,2.82,0,0,0-2.34-.74l-1.43.11a.67.67,0,0,1-.77-.55.87.87,0,0,1,.34-.68,1.4,1.4,0,0,0,.61-1,3.33,3.33,0,0,1,1.15-1.82.92.92,0,0,1,1.21-.12A.76.76,0,0,1,308.42,40.88Z"/><path d="M188.93,45.19a1,1,0,0,1,.51-1.09c1.18-.88,2.18-1.93,2-3.59a.75.75,0,0,1,.53-.81.78.78,0,0,1,1,0,3.51,3.51,0,0,1,1.33,1.91,1.35,1.35,0,0,0,.65,1.1.68.68,0,0,1,.27.62.9.9,0,0,1-.59.49A14.51,14.51,0,0,1,193,43.8a3,3,0,0,0-2.33.75c-.41.39-1.15.42-1.75.62Z"/><path d="M373.56,61.2a2,2,0,0,1-2-1.87,2.13,2.13,0,0,1,2-1.93c1,.11,2.07.67,2,2A1.9,1.9,0,0,1,373.56,61.2Z"/><path d="M126.45,61.2a1.86,1.86,0,0,1-2-1.91,2.06,2.06,0,0,1,1.83-1.92,2.35,2.35,0,0,1,2.16,2A2.17,2.17,0,0,1,126.45,61.2Z"/><path d="M120,61.2a1.68,1.68,0,0,1-1.58-1.59,2.76,2.76,0,0,1,1.47-1.44,1.63,1.63,0,0,1,1.5,1.55C121.27,60.82,121,61.23,120,61.2Z"/><path d="M381.62,59.57a9.16,9.16,0,0,1-.37.89,1.41,1.41,0,0,1-1.77.71,1.17,1.17,0,0,1-.84-1.41,2.75,2.75,0,0,1,.63-1.32,1.06,1.06,0,0,1,1.58.15C381.09,58.88,381.31,59.18,381.62,59.57Z"/><path d="M384.15,62a.73.73,0,0,1,.79-.84c.72,0,1.17.24,1.19.67a1.26,1.26,0,0,1-1.22,1.3C384.45,63.08,384.17,62.67,384.15,62Z"/><path d="M115.8,61.94c0,.82-.27,1.17-.8,1.14a1.21,1.21,0,0,1-1.17-1.24c0-.45.56-.76,1.26-.72A.73.73,0,0,1,115.8,61.94Z"/><path d="M250,24.62c-.66,0-1-.21-1-.6a.89.89,0,0,1,1-.8c.57,0,1,.32,1,.78S250.62,24.61,250,24.62Z"/><path d="M313.79,45.69a2.2,2.2,0,0,1-2.59-.28A2.51,2.51,0,0,1,313.79,45.69Z"/><path d="M188.9,45.17c-.12.21-.2.54-.38.6a3.21,3.21,0,0,1-2.32-.08,4.23,4.23,0,0,1,2.73-.5Z"/><path d="M392.35,68.28a7.73,7.73,0,0,1-1,.42.59.59,0,0,1-.66-.6c.06-.34.26-.61.64-.52a8.68,8.68,0,0,1,1,.4Z"/><path d="M107.36,68.12a7.92,7.92,0,0,1,1.22-.51.84.84,0,0,1,.61.29.51.51,0,0,1,0,.49c-.16.15-.43.34-.61.3A6.7,6.7,0,0,1,107.36,68.12Z"/><path d="M111,64l.63.83c-.65.74-.72.73-1.29,0Z"/><path d="M389,64l.73.93-.67.61-.8-.65Z"/><path d="M250.63,26.29c-.43.3-.76.19-1.27.09A1.22,1.22,0,0,1,250.63,26.29Z"/><path d="M20,409.36a3.9,3.9,0,0,0,.54.43c.61.32,1.22.65,1.85.92,2.14.94,4.27,2,6.73,1.57h.09c.68,0,.8.19.75.88s-.05,1.52-.1,2.28c-.09,1.3.76,2.17,1.4,3.14.24.36.54.38,1.4.32a6.23,6.23,0,0,0,.29-1.24,5.62,5.62,0,0,1,1.63-3.25,8.24,8.24,0,0,1,2.23-2,15.59,15.59,0,0,1,2.9-1.58,9,9,0,0,1,3.24-.6,2.51,2.51,0,0,1,2.1,1.07,4.19,4.19,0,0,0,2.73,1.57c1.07.19,1.85-.54,2.63-1.12a7.87,7.87,0,0,0,1.08-1.08,1.16,1.16,0,0,1,1-.42c.32,0,.64,0,1,0H111.9l59.2,0q14.86,0,29.74,0c.69,0,1.39-.11,2.08-.14a16.26,16.26,0,0,1,1.71,0c1.05,0,2.09.16,3.14.16H294c.45,0,.89-.09,1.33-.11s1.07-.06,1.61,0c.95,0,1.9.16,2.85.16H419.54q13.63,0,27.26,0a2.3,2.3,0,0,1,1.94.77,6.56,6.56,0,0,0,2.11,1.6,2.09,2.09,0,0,0,2,.09,4.85,4.85,0,0,0,2.33-1.72,1.93,1.93,0,0,1,1.68-.73,8.18,8.18,0,0,1,5,1.44,14,14,0,0,1,2.13,1.4c1.41,1.29,2.74,2.6,3,4.64.06.43.19.86.29,1.28a1.77,1.77,0,0,0,1.83-.93,5.85,5.85,0,0,0,.89-4.71c-.14-1,.19-1.24,1.2-1a3.5,3.5,0,0,0,1.12.05c.78-.1,1.57-.24,2.34-.41a5,5,0,0,0,.95-.41c.31-.15.61-.33.92-.49l1.52-.74c.29-.14.58-.25.87-.37l1.06-.49a3.69,3.69,0,0,0-1.9-1.63c-.55-.22-1.08-.51-1.62-.76-.26-.13-.52-.24-.78-.34a10,10,0,0,0-1.77-.67,11.08,11.08,0,0,0-2.62-.29c-1.16,0-1.38-.16-1.24-1.35a4.91,4.91,0,0,0-.73-3.81,4.87,4.87,0,0,1-.36-.68c-.36-.67-.58-.75-1.3-.61a.68.68,0,0,0-.61.63,2.7,2.7,0,0,0,0,.28c-.2,2.48-1.8,4-3.64,5.4-.88.66-1.86,1.18-2.8,1.75a2.69,2.69,0,0,1-.7.3,9.89,9.89,0,0,1-3.87.12,2,2,0,0,1-.87-.49c-.36-.3-.65-.69-1-1a3.41,3.41,0,0,0-4.53.17c-1.44,1.42-1.44,1.42-3.48,1.42H297.5c-.85,0-1.7.13-2.56.19a6.26,6.26,0,0,1-.75,0c-1.05-.07-2.09-.2-3.13-.2q-36.75,0-73.5,0c-3.24,0-6.48,0-9.72,0-.67,0-1.33.12-2,.18a4.82,4.82,0,0,1-.76,0c-.94-.06-1.89-.2-2.84-.2H52.87a1.85,1.85,0,0,1-1.81-.77A3.58,3.58,0,0,0,49.91,406a5.5,5.5,0,0,0-1.53-.43,3.21,3.21,0,0,0-3.4,1.57,1.53,1.53,0,0,1-1.26.71,24.46,24.46,0,0,1-2.57,0,3.29,3.29,0,0,1-2.19-.8,1,1,0,0,0-.33-.19A9.46,9.46,0,0,1,35,404.25c-1-1.19-2.06-2.43-2-4.17a.67.67,0,0,0-.66-.77c-.72-.11-.91-.06-1.2.44a12.62,12.62,0,0,0-.71,1.23,5.59,5.59,0,0,0-.45,1.53,11.23,11.23,0,0,0,0,2.09c.08,1-.17,1.26-1.15,1.19a4.57,4.57,0,0,0-2.06.09c-1.21.53-2.58.66-3.67,1.48a4.39,4.39,0,0,1-1.14.46A3.37,3.37,0,0,0,20,409.36Z"/><path d="M355.92,429.48c.06.57.12,1.14.13,1.71.06,2.28.29,4.56-.44,6.8-.23.72-.27,1.5-.43,2.24a6.86,6.86,0,0,1-.47,1.54,21.77,21.77,0,0,1-1.53,3.24c-.57.79-1,1.67-1.56,2.48s-1.12,1.45-1.62,2.21a7.08,7.08,0,0,0-.81,1.6,2.09,2.09,0,0,0,0,1.19,3.2,3.2,0,0,0,.68,1,1.16,1.16,0,0,0,.62.38,1.76,1.76,0,0,0,1.93-.7,14.07,14.07,0,0,1,1.13-1.34c.16.13.26.18.3.26a3.81,3.81,0,0,1,.09,3.4,2.66,2.66,0,0,1-2,1.61,5.25,5.25,0,0,1-4.38-1,6.17,6.17,0,0,1-2.16-2.67,1.86,1.86,0,0,0-.25-.51,3.72,3.72,0,0,1-.67-2.25c0-1.42,0-2.85,0-4.27a3.94,3.94,0,0,1,.67-2.53,1.08,1.08,0,0,0,.21-.53,4.75,4.75,0,0,1,.91-2.46c.27-.34.31-.76-.29-1a4.89,4.89,0,0,1-.84,1,1.85,1.85,0,0,0-.75,1.15,1.26,1.26,0,0,1-.31.69c-.69.58-.63,1.4-.83,2.16s-.63,1.43-.91,2.16a4.84,4.84,0,0,0-.14.94,10.45,10.45,0,0,1-.27,1.5,20.9,20.9,0,0,0-.85,6.38,2.44,2.44,0,0,1-.2,1.11,6.26,6.26,0,0,1-3.8,3.1,38.92,38.92,0,0,1-5.58,1.16,2.56,2.56,0,0,0-1.92,1.39,1.37,1.37,0,0,0,.69,2c.24.12.47.27.73.42a3.05,3.05,0,0,1-4.88-1.15c-.19-.54-.38-1.08-.53-1.63a2,2,0,0,1-.05-.83,10.3,10.3,0,0,1,2.1-4.71,19.24,19.24,0,0,1,6.87-4.91,14.43,14.43,0,0,0,3.41-2.13,20.16,20.16,0,0,0,4-5.13,2,2,0,0,0,.2-.73.45.45,0,0,0-.36-.56c-.72.69-1.34,1.34-2,1.91a15.3,15.3,0,0,1-2.13,1.56c-.92.54-1.9,1-2.87,1.43-.52.24-1.09.36-1.58.63a5.25,5.25,0,0,1-2.47.64,8.85,8.85,0,0,1-4.34-.73,11.69,11.69,0,0,1-2.51-1.8,8.41,8.41,0,0,1-1.26-1.87,7,7,0,0,1-.74-1.73c-.36-1.1-.8-2.19-1.21-3.28a2,2,0,0,0-.22-.31,5.39,5.39,0,0,0-2.48-1.84c-.35-.15-.74-.21-.83-.77.84-.44,1.7-.9,2.56-1.34a1.2,1.2,0,0,1,.56-.09c2,.15,4-.37,5.86.78,1.39.19,2.49,1.07,3.71,1.65a9.46,9.46,0,0,0,2.61.79,18.38,18.38,0,0,0,5.78-.18,2.61,2.61,0,0,0,.8-.27c1.11-.54,2.22-1.06,3.29-1.66a26.36,26.36,0,0,0,2.44-1.61c.77-.55,1.48-1.19,2.24-1.76s.72-.67.39-1.73a3.5,3.5,0,0,1-2.61-.24,4.06,4.06,0,0,1-2.57-2.45c-.12-.33-.32-.63-.45-.95a3.22,3.22,0,0,1-.24-.91c-.07-.89.28-1.24,1.17-1.15a1.27,1.27,0,0,1,.75.34A2.19,2.19,0,0,0,345,427a7.5,7.5,0,0,0,4.13-.74,8.74,8.74,0,0,0,3.06-2.28.76.76,0,0,1,.31-.2l1.11-.42a3.74,3.74,0,0,1-.08.78,12.23,12.23,0,0,0-.48,3.85c0,2.79,0,5.59-.08,8.38a9.42,9.42,0,0,1-.47,2.11c-.16.6-.44,1.18-.58,1.78a2.6,2.6,0,0,1-.48,1.21,1.21,1.21,0,0,0,0,1.65c.23-.39.37-.94.69-1.1.68-.32.72-.89.91-1.46a2.82,2.82,0,0,1,.45-.92,2.86,2.86,0,0,0,.56-1.48c.18-1.16.42-2.31.63-3.46a13.12,13.12,0,0,0,.27-1.39c.08-1.14.13-2.28.18-3.42a2.15,2.15,0,0,1,.56-1.53C355.81,428.82,355.88,429.15,355.92,429.48Zm-26.64,16.19a10.78,10.78,0,0,0,3.19.77,4,4,0,0,0,2-.42,2.9,2.9,0,0,1,.86-.4,8.31,8.31,0,0,0,3.26-1.46,22.77,22.77,0,0,0,3-2.57c.17-.16.17-.51.26-.83l-.24.06c-.46.21-1.07.32-1.36.68s-1,.44-1.37.74c-1,.72-2.19.79-3.23,1.25a9.06,9.06,0,0,1-5,.54,7.45,7.45,0,0,0-.94-.08,2.72,2.72,0,0,1-1.35-.37,3.49,3.49,0,0,0-1.36-.33c-.21,0-.44.2-.73.34A9.41,9.41,0,0,0,329.28,445.67Z"/><path d="M169.66,464.71a1.36,1.36,0,0,0,.8-1.85,2.25,2.25,0,0,0-1.6-1.51c-1.7-.37-3.42-.67-5.13-1a6.21,6.21,0,0,1-1.28-.35,7.47,7.47,0,0,1-1.55-.9c-1.22-1-2.26-2-2.11-3.8a12.14,12.14,0,0,0-.08-2.08,13.49,13.49,0,0,0-.76-3.91,3.36,3.36,0,0,1-.14-.84,5.48,5.48,0,0,0-.94-3,.88.88,0,0,1-.17-.44,3.9,3.9,0,0,0-1-2.41c-.13-1.21-1.23-1.76-1.77-2.71-.55.5-.57.65-.24,1.2a4.14,4.14,0,0,1,.58,1.07,6.58,6.58,0,0,0,.88,2.49,1.46,1.46,0,0,1,.17.73c.07,1.75.16,3.49.14,5.23a3.68,3.68,0,0,1-.72,2.42,3.39,3.39,0,0,0-.36.87,2.53,2.53,0,0,1-.33.68,11.51,11.51,0,0,1-2.65,2.27,1.52,1.52,0,0,1-.71.25c-1,0-2,.05-2.94,0a3.22,3.22,0,0,1-1.91-1.83,5,5,0,0,1,.11-2.72,2.67,2.67,0,0,1,.32-.53c.16.06.27.07.32.13l1.06,1.23a1.59,1.59,0,0,0,2.64-.13,3.22,3.22,0,0,1,.34-.46.89.89,0,0,0,.22-1.05,21.06,21.06,0,0,0-1.2-2.37c-.44-.72-1-1.36-1.52-2.05a6.81,6.81,0,0,1-1-1.48c-.43-1.12-1.32-2-1.53-3.25a4,4,0,0,0-.22-.53c-.23-.68-.48-1.36-.67-2.05-.14-.52-.14-1.08-.31-1.59a13.66,13.66,0,0,1-.56-4.8c0-1,0-2.09.08-3.14,0-.64.14-1.28.21-1.93l.24,0a4.46,4.46,0,0,1,.27.83c.09,1,.1,2.09.21,3.13.08.81.26,1.62.41,2.43.18,1,.4,2.05.54,3.08a3.47,3.47,0,0,0,.62,1.77,3,3,0,0,1,.46,1c.15.53.27,1,.86,1.29.16.06.23.34.35.52l.42.65a1.06,1.06,0,0,0,0-1.54,3.2,3.2,0,0,1-.58-1.47c-.17-.6-.4-1.19-.58-1.79a6.73,6.73,0,0,1-.42-1.55c-.09-2.28-.12-4.56-.16-6.85,0-1.11,0-2.23,0-3.33a23.2,23.2,0,0,0-.36-2.34c-.05-.32-.13-.64-.2-1l1,.43a1.75,1.75,0,0,1,.55.33,5.59,5.59,0,0,0,3,2.09,1.35,1.35,0,0,1,.5.27,2.43,2.43,0,0,0,1.68.56c1.37,0,2.79.33,4-.8.23-.22.92-.09,1.33.05s.2.6.22.94a5.63,5.63,0,0,1-.79,2.22,3.49,3.49,0,0,1-1.65,1.75,4.14,4.14,0,0,1-3.26.67s-.11.05-.21.11c-.1.49-.29,1,.28,1.42,1.34,1,2.63,2.08,4,3a25.18,25.18,0,0,0,2.67,1.42c.39.2.8.37,1.21.55a4.63,4.63,0,0,0,1,.4,19.06,19.06,0,0,0,6.35.12c1.36-.21,2.42-1.05,3.66-1.51.53-.2,1-.48,1.54-.69a5.23,5.23,0,0,0,1-.33,4.09,4.09,0,0,1,2.55-.58c.79,0,1.59-.07,2.38,0a4.61,4.61,0,0,1,1.48.26,14.72,14.72,0,0,1,1.76.92c.16.09.3.22.59.43-.45.25-.77.47-1.13.63a4.83,4.83,0,0,0-2.59,2.13,19.22,19.22,0,0,0-1.17,3,10.42,10.42,0,0,1-.93,2.27,6.88,6.88,0,0,1-3.7,3.36c-.21.07-.39.23-.59.3a6.42,6.42,0,0,1-1.45.41,15.75,15.75,0,0,1-2.57,0,6.86,6.86,0,0,1-1.84-.44,31.75,31.75,0,0,1-3.39-1.46,19.76,19.76,0,0,1-2.84-1.85c-.94-.71-1.78-1.54-2.68-2.33-.52.3-.35.71-.18,1.08a10.82,10.82,0,0,1,.57,1,8,8,0,0,0,1.75,2.56,11.47,11.47,0,0,0,3.56,3.08c1,.47,1.89,1.13,2.9,1.57a13.88,13.88,0,0,1,1.91,1,12,12,0,0,1,3.3,2.83c.38.5.74,1,1.13,1.52a8,8,0,0,1,1.32,3.89,1.85,1.85,0,0,1-.11.65c-.17.51-.35,1-.54,1.52a3,3,0,0,1-4.86,1.05C169.23,464.94,169.44,464.81,169.66,464.71ZM172,443.37c-1.71.92-3.56.74-5.38.75a5.24,5.24,0,0,1-1.39-.26c-.88-.24-1.76-.51-2.63-.78a5.34,5.34,0,0,1-.68-.33l-1.43-.71c-.22-.11-.51-.18-.63-.37a1.65,1.65,0,0,0-1.55-.64c-.21.41,0,.64.24.86A26.55,26.55,0,0,0,161.1,444a19.39,19.39,0,0,0,2.78,1.37,8.42,8.42,0,0,1,1.07.38c1.54,1,3.18.76,4.79.35a6.84,6.84,0,0,0,3.89-2.46A1.23,1.23,0,0,0,172,443.37Z"/><path d="M265.82,425.43c.23.69.43,1.39.69,2.07a2.65,2.65,0,0,1,0,1.94,4.71,4.71,0,0,1-1.35,2.34,3.53,3.53,0,0,1-1.18.73c-.76.21-1.51.46-2.27.65a1.48,1.48,0,0,1-.75-.06,5.65,5.65,0,0,1-3.11-1.88,8.92,8.92,0,0,1-1.34-2.69,12.56,12.56,0,0,1-.05-5.11,4.6,4.6,0,0,1,.52-1.31c.32-.62.68-1.21,1-1.79a11.88,11.88,0,0,1,2.77-2.57,2.64,2.64,0,0,1,.67-.34,3.65,3.65,0,0,0,.7-.28c1.14-.88,2.5-.85,3.81-1a27.79,27.79,0,0,1,6,.24,1.69,1.69,0,0,1,.56.12c1.27.65,2.72.83,3.94,1.63.76.49,1.61.85,2.39,1.33s1.73,1.14,2.57,1.76c.66.48,1.29,1,1.93,1.54a42.1,42.1,0,0,1,5.11,5.06c1.05,1.22,2.14,2.41,3.17,3.65,1.24,1.5,2.42,3.05,3.67,4.55s2.46,2.83,3.69,4.26c.54.62,1.06,1.25,1.58,1.89.27.33.36.68-.05,1a.66.66,0,0,1-1.07-.11c-2.05-2.29-4.62-2.72-7.44-1.93a4.1,4.1,0,0,0-2.32,1.85,13.07,13.07,0,0,0-.7,1.12c-.4.79-.12,1.22.75,1.2a13.65,13.65,0,0,1,1.8-.09,10.56,10.56,0,0,1,2.82.77,7.44,7.44,0,0,0,5.2.43,1.92,1.92,0,0,1,2.25.49,1.4,1.4,0,0,0,1.83.25,1.68,1.68,0,0,1,2.17.27c.71.62,1.41,1.26,2.16,1.83s1.51,1,2.27,1.52c.26.17.5.37.77.54a2.34,2.34,0,0,0,.81.45,3.53,3.53,0,0,1,2.3,1.71,1,1,0,0,0,.85.46c2,0,3.94.14,5.9.15a9.58,9.58,0,0,0,1.65-.31l1.79-.35c-1.83-.21-3.73-.4-5.62-.66a10.68,10.68,0,0,1-1.82-.5c-.39-.12-.76-.32-1.16-.42a2.76,2.76,0,0,1-1.6-.76.34.34,0,0,0-.16-.1,16.22,16.22,0,0,1-2.45-1.17,27.65,27.65,0,0,1-2.44-1.59c-.81-.47-1.45-1.24-2.25-1.73a2.61,2.61,0,0,1-1.18-1.75,3.49,3.49,0,0,0-.74-1.61,1.65,1.65,0,0,1,0-2,3.64,3.64,0,0,0,.16-3.46,7.8,7.8,0,0,1-.24-1.11,24.86,24.86,0,0,0-.67-2.57,3.12,3.12,0,0,1,.05-2.4c.14-.31.47-.71.11-.93a1.47,1.47,0,0,0-1.25-.11,7.23,7.23,0,0,0-2.81,2.45,6.15,6.15,0,0,0-.75,4.27,8.27,8.27,0,0,0,.51,1.46c-.76-.26-1.42-.43-1.79-1.24A5.35,5.35,0,0,0,297,436a63.32,63.32,0,0,1-4.26-5.3c-1.47-1.78-2.88-3.6-4.42-5.32q-2.52-2.82-5.23-5.47a38.75,38.75,0,0,0-3.3-2.66c-.67-.53-1.36-1-2.06-1.51a7.63,7.63,0,0,0-.75-.39,19.89,19.89,0,0,0-4-1.68,8.2,8.2,0,0,0-1.44-.43,28.6,28.6,0,0,0-8.16.06,7.84,7.84,0,0,0-1.54.48,3.09,3.09,0,0,1-.61.24,8.32,8.32,0,0,0-3.29,1.44,12.5,12.5,0,0,0-2.55,2.12,9.72,9.72,0,0,0-1.81,2.29,11.1,11.1,0,0,0-1.45,3.28c-.13.82-.4,1.6-.58,2.41a8.73,8.73,0,0,0,.2,5,2.29,2.29,0,0,1,.16.55,9,9,0,0,0,1.48,4,15.07,15.07,0,0,0,2.28,2.78,24.11,24.11,0,0,0,2.28,1.84.42.42,0,0,0,.16.09c1.27.37,2.54.8,3.83,1.09a4.25,4.25,0,0,0,3-.41,1.51,1.51,0,0,1,.44-.18,8.08,8.08,0,0,0,3.24-1.5,4.81,4.81,0,0,0,1.52-1.39,7,7,0,0,0,1.54-4.4,24.53,24.53,0,0,0-.23-3.22,6.17,6.17,0,0,0-2.22-3.65c-.34-.28-.7-.54-1.07-.79A1.64,1.64,0,0,0,265.82,425.43Z"/><path d="M200,438.84c0-.22,0-.47.08-.57.72-.71.43-1.61.47-2.43a3.2,3.2,0,0,0-.58-2.35,3.19,3.19,0,0,1-.41-.75,3.32,3.32,0,0,0-1.26-1.39c-.35-.21-.68-.47-1-.66a1.85,1.85,0,0,0-.79-.23c-.86,0-1.06.25-.73,1a3.06,3.06,0,0,1,0,2.75,6.38,6.38,0,0,0-.42,1.45c-.23,1-.41,1.93-.66,2.88a2.76,2.76,0,0,0,.27,2.19,5.68,5.68,0,0,1,.43,1.24,1.41,1.41,0,0,1-.36,1.32c-.2.24-.47.52-.48.79-.1,1.65-1.29,2.44-2.46,3.27-.82.58-1.62,1.2-2.43,1.79a7,7,0,0,1-.65.39l-1.27.78c-.06,0-.1.08-.15.11l-3.1,1.34c-.47.2-.94.37-1.42.53a6.24,6.24,0,0,1-1.36.41c-2,.26-4.09.46-5.91.66.46.15,1.14.38,1.83.58a2.7,2.7,0,0,0,.75.09c1.14,0,2.28-.11,3.42-.12.95,0,1.9,0,2.85.05a1.21,1.21,0,0,0,1.19-.54,4.25,4.25,0,0,1,2.24-1.67,4.49,4.49,0,0,0,1-.54,3.28,3.28,0,0,1,.53-.39,9.35,9.35,0,0,0,2.76-1.95c.7-.63,1.48-1.19,2.24-1.76A1.28,1.28,0,0,1,196,447a1.74,1.74,0,0,0,2.38-.36,1.62,1.62,0,0,1,1.87-.29c2.08.75,4,.19,5.88-.64a6.71,6.71,0,0,1,3-.51c.44,0,.88.09,1.32.08s.84-.33.63-.79a6.84,6.84,0,0,0-1.58-2.43c-1.91-1.71-4.11-1.5-6.27-.9a6.42,6.42,0,0,0-2.48,1.66c-.77.71-.93.78-1.7-.18.65-.81,1.31-1.65,2-2.46s1.2-1.36,1.8-2c.37-.43.72-.87,1.09-1.3l2.84-3.42c1.09-1.3,2.16-2.63,3.28-3.91s2.11-2.44,3.24-3.58a50.79,50.79,0,0,1,4.08-3.82,20.43,20.43,0,0,1,3.83-2.75c1-.48,1.92-1.09,2.88-1.64a1.15,1.15,0,0,1,.25-.12c1.89-.52,3.66-1.42,5.68-1.46a30.93,30.93,0,0,1,5.61.17,5,5,0,0,1,2,.68,15.88,15.88,0,0,1,2.29,1.31,12.59,12.59,0,0,1,2.87,3.25,7.05,7.05,0,0,1,.92,3.53c0,.88,0,1.77-.06,2.66a5.73,5.73,0,0,1-2.46,4.41,4.29,4.29,0,0,1-4.23.74,5.86,5.86,0,0,1-2.61-1.62,6.73,6.73,0,0,1-.54-1,3.73,3.73,0,0,1-.06-3.54,4.63,4.63,0,0,0,.27-.82c.19-.6-.06-1-.68-1a3.27,3.27,0,0,0-1.44.37,7.37,7.37,0,0,0-3,3.44,7.47,7.47,0,0,0-.44,2.33c-.07.66,0,1.33,0,2a6.54,6.54,0,0,0,2.68,5.41,5.92,5.92,0,0,0,3.06,1.62,3.63,3.63,0,0,1,1,.34,5.26,5.26,0,0,0,4.34.05,3.68,3.68,0,0,1,.89-.33,8.07,8.07,0,0,0,4.52-2.93,10.61,10.61,0,0,0,1.51-1.8,11.14,11.14,0,0,0,1.48-3.16c.15-.78.42-1.53.58-2.31a10.16,10.16,0,0,0,0-4.62,4.58,4.58,0,0,1-.3-1,9.27,9.27,0,0,0-1.46-4.16,15.38,15.38,0,0,0-2.24-2.8,13.1,13.1,0,0,0-3.09-2.32c-3.3-1.9-6.87-2.23-10.55-2-.57,0-1.15,0-1.71.12a10.3,10.3,0,0,0-1.67.34c-.82.24-1.62.53-2.42.83a5.35,5.35,0,0,0-.74.41,4.59,4.59,0,0,1-.74.43,4.88,4.88,0,0,0-1.56.86c-1.1.89-2.32,1.63-3.43,2.52a37.16,37.16,0,0,0-2.8,2.53c-1,1-1.95,2-2.86,3-1.25,1.43-2.43,2.92-3.64,4.38-.54.65-1.1,1.29-1.63,1.95-.89,1.11-1.76,2.24-2.64,3.35-.5.64-1,1.27-1.54,1.89a9.32,9.32,0,0,0-1.42,1.62A3.37,3.37,0,0,1,200,438.84Z"/><path d="M375,425.9a1.78,1.78,0,0,0-.61,1.24.86.86,0,0,0,.54,1.06,1.52,1.52,0,0,0,1.76-.57,7.91,7.91,0,0,0,.57-1.7c.22-1,.39-2.06.51-3.1s.88-1.66,1.39-2.45c.1-.15.45-.2.69-.21,1-.09,1.1-.13,1.12-1.19,0-.12,0-.25,0-.38a3.87,3.87,0,0,1,2.74-3.25c1.7-.2,3.38-.33,5,.72a7.55,7.55,0,0,1,3.22,4.05,9.7,9.7,0,0,1,0,6,9.91,9.91,0,0,1-1.25,2.84A11.42,11.42,0,0,1,389,431.1a11,11,0,0,1-4.31,2.66.91.91,0,0,0-.35.15,4.27,4.27,0,0,1-2.25.68c-.91.12-1.82.27-2.74.33a19.68,19.68,0,0,1-2.66,0c-1-.07-2-.23-3-.4a8.24,8.24,0,0,1-1.45-.41c-.53-.19-1.05-.43-1.57-.65a8.53,8.53,0,0,1-.87-.39c-.86-.52-1.68-1.11-2.56-1.6a16.44,16.44,0,0,1-3.54-2.95,18.21,18.21,0,0,1-1.43-1.62c-.61-.8-1.15-1.65-1.72-2.49-.12-.18-.19-.42-.35-.54a2,2,0,0,1-.67-1.32c-.09-.45-.07-.92-.55-1.26-.33-.23-.23-1.23,0-1.6a1.58,1.58,0,0,0,.09-1.89c-.45-.72-.91-1.44-1.33-2.18a1.1,1.1,0,0,1,.1-1.51c.55.54,1.09,1.09,1.65,1.61a8.44,8.44,0,0,0,1.72,1.46,10,10,0,0,0,3.15,1.51,3.89,3.89,0,0,1,.53.21,10.43,10.43,0,0,0,1.6.55c2.13.38,4.26.7,6.38,1.06.48.08,1,.08,1.31.68-.72.62-1.21,1.5-2.23,1.71a.61.61,0,0,0-.33.19,2.57,2.57,0,0,1-2.13.85c-.89.05-1.78.08-2.66.14a6.09,6.09,0,0,0-.85.17v.23a7.73,7.73,0,0,0,3.4.55c1-.11,1.95-.26,2.93-.34a7.52,7.52,0,0,1,1.71,0,1.6,1.6,0,0,1,1.31.72A3.08,3.08,0,0,1,375,425.9Zm3.55,6.64c-.6,0-1.2,0-1.8,0a2.64,2.64,0,0,1-1.84-.6,3.48,3.48,0,0,0-1.52-.46,2.76,2.76,0,0,1-1.87-.81.52.52,0,0,0-.33-.18c-1.07-.12-1.72-1-2.66-1.41a5.92,5.92,0,0,1-1.46-1.16c-.91-.83-1.84-1.65-2.69-2.54-.65-.68-1.19-1.46-1.79-2.18a5.12,5.12,0,0,0-.49-.44,1.77,1.77,0,0,1-.43-.48,1.8,1.8,0,0,0-.93-1.13c-.18-.08-.28-.39-.37-.61a8,8,0,0,1-.26-.84c-.52,0-.72.25-.66.59s.2.87.43.95a1,1,0,0,1,.7,1,.7.7,0,0,0,.12.35c.54.77,1.08,1.54,1.65,2.28s1,1.24,1.55,1.85a8.76,8.76,0,0,0,1.06,1.05,19.45,19.45,0,0,0,3.59,2.69,26.75,26.75,0,0,1,2.56,1.31,4.17,4.17,0,0,0,2.21.63,2.17,2.17,0,0,1,1.75.55.59.59,0,0,0,.43.16c1.2,0,2.41,0,3.61,0,.05,0,.1-.07.38-.28A5.2,5.2,0,0,0,378.53,432.54Zm5.07-13.24c.18.24.45.61.38.79a1.15,1.15,0,0,1-.79.56,6.56,6.56,0,0,1-1.75-.16.45.45,0,0,0-.22.77,5.63,5.63,0,0,0,1.5,1.26,2.36,2.36,0,0,0,2.12,0,7.68,7.68,0,0,0,1.82-1.35,1.89,1.89,0,0,0,.06-2.91c-1.14-1.33-2.59-1.45-4.12-.2C383,418.47,383.3,418.87,383.6,419.3Zm-3.71,12.5c.26.26.38.48.48.47a20.59,20.59,0,0,0,2.08-.18c.28,0,.42-.27.17-.67Zm3.21-.82c.58.44,1,.13,1.51-.18C383.86,430.3,383.67,430.33,383.1,431Z"/><path d="M142.37,415.37a24.3,24.3,0,0,1-1.32,2.18,1.63,1.63,0,0,0-.05,2.07,1.34,1.34,0,0,1,.08,1.6,3.65,3.65,0,0,0-.68,1.72,1.06,1.06,0,0,1-.21.52c-.83.73-1,1.86-1.78,2.65s-1.58,2.07-2.53,2.93a19.62,19.62,0,0,1-3.4,2.67,17,17,0,0,1-3.76,2,2.25,2.25,0,0,0-.69.31,4.08,4.08,0,0,1-2,.62c-.69.07-1.38.19-2.08.24a13.74,13.74,0,0,1-2.93.11c-2-.29-4.15-.1-6-1.28a.84.84,0,0,0-.27-.08,9.07,9.07,0,0,1-2.92-1.73,11.33,11.33,0,0,1-3.42-4.45,17.6,17.6,0,0,1-.83-3.21,4.57,4.57,0,0,1,0-2c.42-1.54.63-3.16,1.74-4.46a6.81,6.81,0,0,1,3.47-2.34,10.85,10.85,0,0,1,2.36-.17,3.6,3.6,0,0,1,2.59,1,2.75,2.75,0,0,1,1.23,2.6,2.81,2.81,0,0,0,0,.58c0,.74.16.85.94.79a1.06,1.06,0,0,1,1.09.41,6.51,6.51,0,0,1,1.37,3.07,24,24,0,0,0,.78,3.61,1.32,1.32,0,0,0,1.5,1,.92.92,0,0,0,.94-1,4.52,4.52,0,0,0-.47-1.3,3.32,3.32,0,0,0-.51-.62,3.24,3.24,0,0,1,2.59-.79c1.26.07,2.52.31,3.77.46a6.26,6.26,0,0,0,3.17-.66c-.58-.44-1.1-.27-1.59-.31-1.55-.15-3.21.16-4.47-1.13-1.1-.19-1.57-1.19-2.51-1.88a5.2,5.2,0,0,1,1.12-.48,48.6,48.6,0,0,1,5.06-.86,24.13,24.13,0,0,0,5.1-1.43,3.06,3.06,0,0,0,.56-.35,5.34,5.34,0,0,1,.9-.51,7.46,7.46,0,0,0,2.09-1.6c.6-.53,1.13-1.15,1.69-1.74C142.68,414.45,142.6,414.93,142.37,415.37Zm-2.2,4.27c-.42,0-.52.34-.56.65-.08.49-.17.94-.75,1.08a.3.3,0,0,0-.2.18,7.06,7.06,0,0,1-1.23,1.63A28.32,28.32,0,0,1,133.9,427c-.72.65-1.43,1.32-2.19,1.91a5.78,5.78,0,0,1-1.69,1c-1.26.41-2.2,1.5-3.61,1.57a1.85,1.85,0,0,0-1.51.67c-.18.24-.68.3-1.05.33-.72.05-1.46,0-2.19,0a6.1,6.1,0,0,0-.93.18v.2c.1,0,.2.15.3.15,1.17,0,2.35,0,3.52,0,.13,0,.3,0,.36-.09.61-.68,1.45-.55,2.22-.62a2.11,2.11,0,0,0,1.7-.66.43.43,0,0,1,.24-.16,5.79,5.79,0,0,0,2.34-1.1,13.24,13.24,0,0,0,2.79-2c.86-.9,1.86-1.67,2.71-2.57a16.32,16.32,0,0,0,1.42-2c.14-.21.2-.52.39-.64a1.67,1.67,0,0,0,.7-1.68C140.62,421.05,140.8,420.52,140.17,419.64Zm-23.64,1c-.66-.24-.78-.62-.3-1.13a3,3,0,0,0,1-1.53,2.58,2.58,0,0,0-4,.28c-.86,1-.92,1.85,0,2.85s2.08,1.9,3.64,1.55a2.77,2.77,0,0,0,.88-.47c.26-.18.48-.41.73-.6.45-.32.52-.67.09-1.21A2.38,2.38,0,0,1,116.53,420.61ZM119.79,432a2.43,2.43,0,0,0-2.62-.18A2.36,2.36,0,0,0,119.79,432Zm-4.19-1.32c.44.62.62.66,1.28.26C116.34,430.35,116.33,430.35,115.6,430.68Z"/><path d="M234.33,443.34a21.61,21.61,0,0,1,3.25-1,8.49,8.49,0,0,1,2.08-.2c1.78,0,3.23-1,4.9-1.36.09,0,.16-.11.24-.16l1.14-.66a2.12,2.12,0,0,0,.56-.35c.53-.57,1-1.17,1.55-1.75.11-.12.25-.2.36-.3a9.84,9.84,0,0,0,.89-.81.84.84,0,0,1,1.22-.19c.61.62,1.17,1.3,1.78,1.92a7.75,7.75,0,0,0,1.56,1.37,8.12,8.12,0,0,0,3.27,1.45,1,1,0,0,1,.44.16,6.6,6.6,0,0,0,3.12.7,15.54,15.54,0,0,1,2.61.47c.61.15,1.19.43,1.8.59a7.19,7.19,0,0,1,2.59,1.64c-.59.64-1.12,1.17-1.61,1.75a3.24,3.24,0,0,1-1.84,1.1c-.72.15-1.45.21-2.28.33.51.76,1,1.43,1.41,2.11a.92.92,0,0,1,.19.43c.09.88.19,1.76.21,2.65,0,.43-.22.87-.73.81a9.71,9.71,0,0,1-2.6-.46,11.81,11.81,0,0,1-2.08-1.45c-.14-.09-.39-.22-.48-.16a.76.76,0,0,0-.32.51,3.06,3.06,0,0,0,.07.85,8.07,8.07,0,0,1-.13,3.21c-.1.43-.3.8-.82.75-.76-.07-1.52-.13-2.27-.25-1.11-.18-1.49.15-1.38,1.25,0,.15.06.31.06.47a7,7,0,0,1-.25,3.29,15.83,15.83,0,0,1-1.89,3.26c-.4.51-1.42.68-1.75.16-.48-.73-1.24-1.28-1.45-2.19a2.06,2.06,0,0,0-.31-.69,3.29,3.29,0,0,1-.58-2.17c0-.82.06-1.65.09-2.47s-.33-1-1-1l-2.26.26c-.81.1-1.1,0-1.19-.82-.11-1.1-.07-2.21-.08-3.32a6.3,6.3,0,0,0,0-.75c-.06-.41-.54-.62-.76-.31-.39.55-1.06.69-1.51,1.11-.88.81-2,.73-3,.9a.69.69,0,0,1-.89-.65c0-1.28-.24-2.59.7-3.71a10.11,10.11,0,0,0,1-1.75c-2.63.23-4.24-1.09-5.57-3.2A12.28,12.28,0,0,1,234.33,443.34Zm24,2c1.08-.05,2.16-.1,3.23-.19a3.2,3.2,0,0,0,1.27-.38,3.07,3.07,0,0,0-.5-.2,13.48,13.48,0,0,0-4.9-.45,23.43,23.43,0,0,1-2.38.1,1.78,1.78,0,0,1-1.38-.52,6.41,6.41,0,0,1-1.06-1.09c-.65-1.1-1.53-2.11-1.64-3.47a5,5,0,0,0-.1-.56c-.16-.81-.38-1-1.15-.87a.63.63,0,0,0-.63.58,6.72,6.72,0,0,1-.21,1.12c-.18.53-.42,1-.65,1.56a6.45,6.45,0,0,0-.31.58,5.23,5.23,0,0,1-1.92,2.31,2.17,2.17,0,0,1-1.24.35,19,19,0,0,1-2.38-.13,10.61,10.61,0,0,0-5.27.83,7.17,7.17,0,0,0,1,.22c1.11.09,2.22.15,3.33.21a2.59,2.59,0,0,1,1.75.52,8.31,8.31,0,0,1-1.56,1.63A13.21,13.21,0,0,0,240,449c.3.49.71.62,1,.29s.9-.6,1.24-1a9.76,9.76,0,0,1,2.07-1.47c1-.6,2.06-1.07,3.1-1.59.34-.17.68-.32,1-.47.48.74.45,1,0,1.61a6.89,6.89,0,0,0-.61,1.25c-.25.58-.48,1.16-.68,1.75a8.53,8.53,0,0,0-.42,1.45,2.84,2.84,0,0,1-.51,1.39,1.14,1.14,0,0,0-.08,1.56c.11-.05.24-.07.27-.13.38-1.05,1.54-1.66,1.63-2.88,0-.07.1-.15.17-.22a1.81,1.81,0,0,1,.23-.09c.46.26.5.72.5,1.2,0,1.21,0,2.42,0,3.62,0,.92.2,1.82.31,2.74a.6.6,0,0,0,.69.6.64.64,0,0,0,.72-.6c.11-1.1.25-2.2.31-3.31s0-2,0-3.05c0-.69,0-.69.51-1.3.71.44.39,1.45.94,1.87a7.52,7.52,0,0,1,1.23,1.59,1.05,1.05,0,0,0,.11-1.46c-.13-.22-.41-.41-.42-.62,0-1.54-1-2.77-1.32-4.23a2.91,2.91,0,0,0-.53-1.09,1.56,1.56,0,0,1-.09-1.78c1,.52,1.93,1,2.86,1.5.69.37,1.39.74,2.06,1.15.39.25.73.57,1.1.85a1.48,1.48,0,0,0,.39.28,1.8,1.8,0,0,1,1,.7c.26.4.67.42,1.19.05-.52-.62-.87-1.34-1.6-1.68s-1.12-1.07-1.68-1.66A2.26,2.26,0,0,1,258.37,445.3Zm-13.27,4.26c.28-.17.56-.35.37-.73s-.54-.3-.87-.13c-.75.38-.94.95-.56,1.56Zm9.92-1a.79.79,0,0,0-.56.36c-.06.09.12.4.27.51.38.3.8.53,1.27.83A1.21,1.21,0,0,0,255,448.58Z"/><path d="M201.18,463.5a4.06,4.06,0,0,1,.89.31c1.07.76,2.12,1.54,3.16,2.35.7.54,1.35,1.14,2,1.7a14.73,14.73,0,0,1,2.75,3c.54.79.32,1.24-.62,1.34a18.42,18.42,0,0,1-5-.17,2.45,2.45,0,0,1-1-.31c-.88-.62-2-.77-2.79-1.59-.61-.62-1.36-1.11-2-1.71a6.49,6.49,0,0,1-1.16-1.36c-.47-.78-.82-1.63-1.24-2.45a4.17,4.17,0,0,0-.56-.87,2.17,2.17,0,0,1-.52-2.27,4.92,4.92,0,0,0,.3-1.68,4.79,4.79,0,0,1,.58-2.61,8.74,8.74,0,0,1,1.62-2.08,3.4,3.4,0,0,1,1.45-1,11.6,11.6,0,0,1,4.66-.77c1.54.21,3.07.49,4.6.76a2.48,2.48,0,0,1,.64.36c-.67.85-1.24,1.59-2.33,1.67a1.73,1.73,0,0,0-.86.36.57.57,0,0,0,.21,1,17,17,0,0,0,2.21.56,7,7,0,0,1,4.2,2.71c.18.21.34.45.53.66.54.59.54.63,0,1.32-.63-.09-1.25-.2-1.88-.25a.66.66,0,0,0-.53.27.68.68,0,0,0,.19.56c.43.5,1,.92,1.36,1.44a12.11,12.11,0,0,1,1.29,2.09,1.32,1.32,0,0,1-1.11,2.07c-.34.05-.68.14-1,.17-.84.08-1.65.05-2.08-.87a1.38,1.38,0,0,0-.24-.3c-.63-.61-1.24-1.25-1.89-1.83a12.75,12.75,0,0,0-1.69-1.34,7.71,7.71,0,0,1-2.59-2,.56.56,0,0,0-.38-.24,2.69,2.69,0,0,0-2.27.55C200.57,463.23,200.87,463.38,201.18,463.5Zm2.52-1.58a.65.65,0,0,0,.93.2c.38-.22.2-.55.14-.85s-.16-.57-.24-.85l-.28,0Zm-1.31-3.17c-.66-.58-1.17-.58-2,0A1.78,1.78,0,0,0,202.39,458.75Zm3.47.92c.28.36.55.54.86.24v-.29Zm-2.11.35c-.22-.53-.43-.63-.74-.47l-.07.26Zm-5.59,2.87,0,.09,1,.17,0-.26Z"/><path d="M292.58,453.86a15.68,15.68,0,0,0,2.16-.35c2.14-.61,4.15,0,6.17.54a1.34,1.34,0,0,1,.48.3,12.39,12.39,0,0,1,1.8,1.66,15.89,15.89,0,0,1,1.38,2.45c.08.15,0,.38,0,.57,0,.46,0,.93.08,1.39a13.75,13.75,0,0,1,.22,1.41,2.25,2.25,0,0,1-.61,1.92,4,4,0,0,0-.61,1.16,10.82,10.82,0,0,0-.59,1.18,7,7,0,0,1-1.68,2.27c-.58.64-1.31,1.16-1.95,1.74a13.16,13.16,0,0,1-2.21,1.27,5.51,5.51,0,0,1-2.7.78c-1.27.06-2.54,0-3.8.05-.4,0-.87,0-1-.44a1.4,1.4,0,0,1,.27-1,20.2,20.2,0,0,1,3.93-4,19,19,0,0,0,1.83-1.32,11.51,11.51,0,0,1,1.46-1.17,6,6,0,0,1,1.78-.88,3.14,3.14,0,0,0,.64-.35A1.77,1.77,0,0,0,297,463a6.62,6.62,0,0,1-1.94,1.49,9.92,9.92,0,0,0-2.08,1.58,26,26,0,0,0-2.43,2.59,1.8,1.8,0,0,1-.5.25,3.59,3.59,0,0,1-2.42,0,1.34,1.34,0,0,1-1-2.13,12.53,12.53,0,0,1,2.56-3.37c.16-.14.2-.41.3-.62-.22-.1-.44-.29-.65-.27-.63,0-1.25.16-1.88.26-.25-.36-.52-.7-.16-1.11a15.32,15.32,0,0,1,1.94-2.08,5.69,5.69,0,0,1,2.89-1.51c.93-.09,1.85-.35,2.77-.53.07-.95-.17-1.34-1.2-1.47s-1.55-.85-2.17-1.69A3.41,3.41,0,0,1,292.58,453.86Zm2.58,7.93c0,.44.38.51,1.06.16l-.5-1.64A1.74,1.74,0,0,0,295.16,461.79Zm2.75-3.35c-.13,0-.31.25-.28.31s.21.36.34.37a3.25,3.25,0,0,0,1.81-.37A1.88,1.88,0,0,0,297.91,458.44ZM294.4,460c-.57-.43-.57-.43-1.21-.15V460Zm7.5,3.05v-.13h-1.23v.27Zm-4.78-3.14c-.38-.4-.38-.4-.83.12Z"/><path d="M354.66,415.42l-.46.56a6.65,6.65,0,0,1-4.84,2.65,30.22,30.22,0,0,1-6.92-.37,7.11,7.11,0,0,1-1.08-.34l-.17-.08-5.57-1.53-1.55-.45c-.64-.19-1.26-.42-1.9-.57a41.4,41.4,0,0,0-4.37-.92,22.13,22.13,0,0,0-4-.08,7.74,7.74,0,0,0-1.89.57,4.89,4.89,0,0,1-.8.31,5.08,5.08,0,0,0-2.26,1.51,8.6,8.6,0,0,0-2.06,3,10.5,10.5,0,0,0-.73,2.84,7.62,7.62,0,0,0,1.21,5.24,8.31,8.31,0,0,0,4.05,3.66c.45.14.84.49,1.29.6a5.56,5.56,0,0,0,4.51-.34c.57-.34,1.15-.65,1.72-1a5.82,5.82,0,0,0,2.26-3.41,3.37,3.37,0,0,0,.21-1.4,6.28,6.28,0,0,0-1.47-3.52c-.77-.92-1.85-.9-2.87-1-.2,0-.5.31-.67.55s0,.55.2.75a3.3,3.3,0,0,1,.87,3.56,2.53,2.53,0,0,1-1.74,1.86,6.26,6.26,0,0,1-2.44.25,4,4,0,0,1-3.54-3c-.11-.36-.27-.72-.35-1.09a4.49,4.49,0,0,1-.18-1.4,6.92,6.92,0,0,1,2.45-5,5.83,5.83,0,0,1,3.37-1.41,9.68,9.68,0,0,1,4.4.55,4.35,4.35,0,0,0,1,.25,8.14,8.14,0,0,1,3,.89,5.29,5.29,0,0,0,1.09.3c.57.2,1.12.42,1.68.63a6.76,6.76,0,0,0,.89.33,6,6,0,0,1,2.39.87l.09,0c3.49,1.08,7,2,10.72,1.4a5.12,5.12,0,0,0,2.75-1.56,16.17,16.17,0,0,0,1.95-2.65A1.62,1.62,0,0,0,354.66,415.42Z"/><path d="M145.33,415.45c-.47.1-.63.33-.59.7a3.06,3.06,0,0,0,.55,1.69c.5.61.89,1.3,1.37,1.92a5,5,0,0,0,4.08,2.06c1.77,0,3.55-.11,5.32-.24a6.84,6.84,0,0,0,1.61-.51,7.31,7.31,0,0,1,1-.33,6.69,6.69,0,0,0,2.69-.89,4,4,0,0,1,.9-.28l2-.71s.11-.07.17-.09c1.6-.48,3.2-1,4.81-1.44.51-.16,1.06-.21,1.56-.4a8.83,8.83,0,0,1,4.79-.37,6.19,6.19,0,0,1,3.69,2.16,10,10,0,0,1,1.61,3.71,1.37,1.37,0,0,1,0,.57,6.2,6.2,0,0,1-2.4,4.76,4.09,4.09,0,0,1-3.29.55,3.29,3.29,0,0,1-1.84-5.56.74.74,0,0,0,.23-1,.72.72,0,0,0-.86-.42c-1.07.18-2.17.33-2.83,1.34-.9,1.38-1.59,2.85-1.08,4.55a6.2,6.2,0,0,0,2.12,3.41c1.75,1.3,3.66,2.13,5.84,1.55a7.77,7.77,0,0,0,3.31-1.56,14.77,14.77,0,0,1,1.36-1.15,5.18,5.18,0,0,0,1.57-2.22,7.69,7.69,0,0,0,.72-5.53c-.07-.25-.13-.49-.19-.74a8.34,8.34,0,0,0-3.11-4.82,8.61,8.61,0,0,0-5.42-1.93,13.52,13.52,0,0,0-5.35.71,4.83,4.83,0,0,1-1.2.25,13.37,13.37,0,0,0-2.84.75,43.28,43.28,0,0,1-4.91,1.45,10,10,0,0,0-2.45.7,2.35,2.35,0,0,1-.73.21,26.71,26.71,0,0,1-7.78.25,6.86,6.86,0,0,1-4-2.55C145.61,415.83,145.49,415.65,145.33,415.45Z"/><path d="M393.46,414.81c.28.12.56.22.84.35s.82.45,1.25.63a5.84,5.84,0,0,0,1.43.47,3.49,3.49,0,0,1,1.84.69,1.92,1.92,0,0,0,.5.29,14.21,14.21,0,0,1,4.44,3.13,20.07,20.07,0,0,1,2.63,3.33,2.84,2.84,0,0,1,.32.78,7.21,7.21,0,0,0,.22.83,4.25,4.25,0,0,1-.19,4.09,6.42,6.42,0,0,1-1.1,1.52,4.55,4.55,0,0,1-4.69,1.31,4.48,4.48,0,0,1-2.63-2.23,2,2,0,0,1,1.2-2.76,3.85,3.85,0,0,1,1.43.3.84.84,0,0,0,0-1.54,2.55,2.55,0,0,0-2.45-.68,5.25,5.25,0,0,0-3.56,4,14.73,14.73,0,0,0-.09,2,5.22,5.22,0,0,0,1.67,3.41,18.25,18.25,0,0,0,2,1.62,1.09,1.09,0,0,0,.41.22,9.32,9.32,0,0,0,4.22.44,14.67,14.67,0,0,0,1.5-.26,7.71,7.71,0,0,0,1.3-.53c.23-.1.41-.3.64-.4a9.54,9.54,0,0,0,2.38-2c.86-.76,1.08-1.85,1.68-2.73a2.06,2.06,0,0,0,.25-1c.14-1.71.29-3.43-.63-5a1.17,1.17,0,0,1-.14-.35,11.26,11.26,0,0,0-3-4.76,18.41,18.41,0,0,0-3.51-2.87c-1-.66-2.18-.87-3.11-1.59-1.94-.26-3.78-1.11-5.78-1.08a10.92,10.92,0,0,0-1.26.18Z"/><path d="M106.76,414.72a6.69,6.69,0,0,0-3.73-.07c-.83.21-1.67.36-2.49.59a17.9,17.9,0,0,0-1.68.62,6.54,6.54,0,0,1-.59.3,14,14,0,0,0-4.65,3,20.63,20.63,0,0,0-3.31,4.13,3.1,3.1,0,0,0-.28.7,5.23,5.23,0,0,1-.33,1c-1,1.61-.74,3.37-.65,5.1a4,4,0,0,0,.5,1.42,6.91,6.91,0,0,0,1.5,2.38,8.77,8.77,0,0,0,2.24,1.83.64.64,0,0,1,.26.13c.94.9,2.18.95,3.35,1.15a7.17,7.17,0,0,0,4.11-.52,6.87,6.87,0,0,0,3.15-2.76,6.44,6.44,0,0,0,.93-2.92,5.58,5.58,0,0,0-1.46-4.09,3.79,3.79,0,0,0-2.94-1.49,3.23,3.23,0,0,0-1.92.93.82.82,0,0,0,0,1.2.67.67,0,0,0,.64.08c.48-.29.91-.46,1.4-.06a2.23,2.23,0,0,1,1,1.62,2.53,2.53,0,0,1-1.15,2.17,4.32,4.32,0,0,1-3.18,1.23A5.35,5.35,0,0,1,94.38,431a5.16,5.16,0,0,1-1.62-2.84,3.34,3.34,0,0,1,0-2.05,8.38,8.38,0,0,0,.35-1.18,6.84,6.84,0,0,1,1.72-3,21.35,21.35,0,0,1,2.92-2.94,19.54,19.54,0,0,1,2.56-1.58A8.69,8.69,0,0,1,104,416a.72.72,0,0,0,.42-.2,3.62,3.62,0,0,1,1.69-.82A7.16,7.16,0,0,0,106.76,414.72Z"/><path d="M220.5,457.7c.57.15,1,.3,1.46.38a3,3,0,0,1,1.8.77,1.41,1.41,0,0,0,.41.25,8.92,8.92,0,0,1,3.4,3.28,6.5,6.5,0,0,1,1,4.44,4.18,4.18,0,0,1-.8,2.08,6.56,6.56,0,0,1-2,1.69,3.45,3.45,0,0,1-3.5-.16,5.59,5.59,0,0,1-1.77-1.65,1.66,1.66,0,0,1-.07-1.93c1.07-1.58,2.43-1.7,3.85-.36a4.46,4.46,0,0,0,.43.33,1.6,1.6,0,0,0,.29-2.07,2.6,2.6,0,0,0-.72-.88c-1.06-.64-2.07-1.36-3.51-.74a6.32,6.32,0,0,0-2.57,2c-.67.85-.74,3.49.17,4.2.72.57,1.37,1.22,2.08,1.79.34.27.56.5.39.95a5.79,5.79,0,0,0-.18.63A1.33,1.33,0,0,0,222,473c1.42-.33,2.84-.64,4.27-.94a5,5,0,0,0,2.31-1.57,3.16,3.16,0,0,0,1.12-2c0-.18.21-.35.39-.63a13.09,13.09,0,0,1,1.64,2,11.34,11.34,0,0,0,1.68,2c.83.76,1.79,1.38,2.7,2.06a.54.54,0,0,0,.24.14c1.76.3,3.35,1.46,5.24,1.09.71-.14,1.41-.33,2.11-.51.21-.05.4-.19.62-.23a5.51,5.51,0,0,0,3.05-2,4.61,4.61,0,0,0,1.42-4.21c-.45-2.09-2.1-3.44-4.34-2.51a1.23,1.23,0,0,0-.79,1,1.8,1.8,0,0,0,1.16,2.37c.26.12.53.21.79.33.51.24.59.35.79,1a5,5,0,0,1-3.09,2.39,8.51,8.51,0,0,1-8.48-1.92,12.23,12.23,0,0,1-2.16-3c-.88-1.69-1.26-3.57-2.2-5.22a11,11,0,0,0-1.22-1.81,9.08,9.08,0,0,0-3.86-3,2,2,0,0,1-.84-.71,1.79,1.79,0,0,0-2.38-.78A3,3,0,0,0,220.5,457.7Z"/><path d="M279.51,457.7a3.49,3.49,0,0,0-2.3-1.35,1.52,1.52,0,0,0-1.63.74,3.39,3.39,0,0,1-1.57,1.14,8.32,8.32,0,0,0-2.23,1.57,11.52,11.52,0,0,0-2.13,2.76A9.92,9.92,0,0,0,268.2,466a2.14,2.14,0,0,1-.26.81,18.63,18.63,0,0,1-2,3.33,7.18,7.18,0,0,1-2.75,2.13c-.2.08-.39.22-.59.31a3.48,3.48,0,0,1-1.2.51,19.36,19.36,0,0,1-4.17,0,5.4,5.4,0,0,1-3.57-2.32c-.26-.39,0-.95.53-1.23s.92-.42,1.39-.61c.7-.28.77-.89.77-1.5a1.53,1.53,0,0,0-.77-1.52,3.38,3.38,0,0,0-2.85-.07.45.45,0,0,0-.24.15c-.58.88-1.48,1.6-1.41,2.81,0,.41,0,.83,0,1.24a1.34,1.34,0,0,0,.13.64,9.72,9.72,0,0,0,3.12,3.38,7.68,7.68,0,0,0,.79.32c.47.18.94.39,1.42.55a6.9,6.9,0,0,0,5-.12,1.39,1.39,0,0,1,.43-.2,6,6,0,0,0,3-1.35,13,13,0,0,0,2.07-1.78c.83-.94,1.53-2,2.29-3,.15-.19.32-.36.59-.64a5.3,5.3,0,0,1,.42,1.05,3.72,3.72,0,0,0,1.47,2.15,4.9,4.9,0,0,0,3,1.32,20.71,20.71,0,0,1,3.14.74,1.86,1.86,0,0,0,.47.09c.62,0,.94-.34.77-.94a.87.87,0,0,1,.44-1.11,11.18,11.18,0,0,0,1.68-1.39,3.81,3.81,0,0,0,.1-5.06c-.78-1-1.91-1.18-2.88-1.72a1,1,0,0,0-.56,0,4.37,4.37,0,0,0-2.92,1.79,1.65,1.65,0,0,0,.27,2.17,5.21,5.21,0,0,1,.62-.54,6.18,6.18,0,0,1,1.51-.73c1.14-.25,1.75.52,2.22,1.39a1.84,1.84,0,0,1-.24,1.95,4.74,4.74,0,0,1-2.06,1.75,3.49,3.49,0,0,1-2.12.24,5,5,0,0,1-2.81-1.76c-1.3-1.52-1.2-3.21-.88-4.94a6.69,6.69,0,0,1,1.59-2.87c.33-.41.78-.73,1.11-1.16.69-.89,1.83-1.1,2.65-1.8.28-.24.78-.21,1.18-.31Z"/><path d="M414.52,424.45c.11.06.2.17.31.19a7.64,7.64,0,0,1,2.2.84,4.6,4.6,0,0,0,3.62,0c.42-.13.83-.34,1.26-.43a10.17,10.17,0,0,0,4.22-2.43l3.37-2.77s.05-.05.08-.05c1.56-.31,2.93-1.49,4.64-1.05a13.24,13.24,0,0,1,3.06,1,6.19,6.19,0,0,1,2.47,2.15,6.11,6.11,0,0,1,.55,2.27c.05.42-.6.68-1.22.56a1.56,1.56,0,0,0-1.18,0c-.83.46-1.22,1-1.1,1.79a1.91,1.91,0,0,0,1.5,1.54,3.06,3.06,0,0,0,2.84-.88,4.21,4.21,0,0,0,1.11-3.27,5.51,5.51,0,0,0-1.73-3.78,11.3,11.3,0,0,0-2.64-2c-1.69-1-3.45-.86-5.24-.84-.35,0-.7,0-1,.06a1.73,1.73,0,0,0-.57.05,17.6,17.6,0,0,0-3,1.52,1.4,1.4,0,0,1-.73.36c-.84.11-1-.12-.83-.95a2.59,2.59,0,0,0,0-1,4.64,4.64,0,0,0-.45-1.55,9.17,9.17,0,0,0-1.46-1.71c-.64-.6-1.35-1.12-2.05-1.66a4.78,4.78,0,0,0-.74-.4.63.63,0,0,0-1,.29,1.25,1.25,0,0,1-1.31.74,3.08,3.08,0,0,0-1.67.59,5.77,5.77,0,0,0-1.94,1.61,3.6,3.6,0,0,0-.23,3.34,5.77,5.77,0,0,0,1.41,1.65,3.72,3.72,0,0,0,4.4-.73.78.78,0,0,0,.16-1c-.23-.37-.53-.34-.91-.27-2,.42-2.44-1.1-2.21-2.43a1.07,1.07,0,0,1,.19-.42,3.53,3.53,0,0,1,3.51-1.17,6.58,6.58,0,0,1,2.4,2c.43.52.3,1.14.38,1.73a4.31,4.31,0,0,1-1.71,4.09,6.11,6.11,0,0,1-4,1.81c-1.17,0-2.35,0-3.52.06-.42,0-.84.13-1.26.19Z"/><path d="M85.44,424.26a4.69,4.69,0,0,0-1.82-.28c-1.36-.05-2.73-.09-4.08-.22a4.47,4.47,0,0,1-1.28-.55c-.19-.09-.37-.23-.56-.34a5,5,0,0,1-2.77-4.8,3.85,3.85,0,0,1,1.68-3,3.16,3.16,0,0,1,2.89-.73,2.52,2.52,0,0,1,2,2.47,1.64,1.64,0,0,1-2,1.61c-.19,0-.38-.15-.55-.12a1,1,0,0,0-.62.3.72.72,0,0,0,0,.68,4.69,4.69,0,0,0,1,1.1,4.05,4.05,0,0,0,3.74-.19,3.86,3.86,0,0,0,1.56-3.29,3.47,3.47,0,0,0-1.93-2.83,3.53,3.53,0,0,1-.57-.33,2.72,2.72,0,0,0-1.76-.62,1.18,1.18,0,0,1-1.07-.48c-.53-.74-1-.84-1.69-.28-1.14.95-2.24,1.94-3.33,2.93a1.54,1.54,0,0,0-.4.73c-.2.91-.74,1.77-.35,2.77.12.31-.09.55-.45.58s-.9.1-1.19-.38a.47.47,0,0,0-.18-.21,12.29,12.29,0,0,0-3-1.25,37.15,37.15,0,0,0-4.84-.08.67.67,0,0,0-.37.07c-1,.6-2,.93-3,1.64a15.09,15.09,0,0,0-2.38,2.8,1,1,0,0,0-.2.52,16.21,16.21,0,0,0-.09,3,3.23,3.23,0,0,0,3.68,2.65,1.89,1.89,0,0,0,1.56-2.3,1.72,1.72,0,0,0-1.89-1.18,3.9,3.9,0,0,1-.46.12.89.89,0,0,1-1.07-1,4.48,4.48,0,0,1,1.81-3.19c1.16-1,2.67-1.24,4-1.82a2.83,2.83,0,0,1,2.31.15,3.12,3.12,0,0,0,.87.37c1.62.17,2.73,1.22,3.89,2.17.81.67,1.54,1.44,2.39,2a7.65,7.65,0,0,0,3,1.53c.84.15,1.63.53,2.46.69a3.86,3.86,0,0,0,3.09-.56,4.81,4.81,0,0,1,1.15-.44l.79-.26Z"/><path d="M319.57,412.55a3,3,0,0,0-.48,0c-1.19.21-2.37.4-3.55.65a8.49,8.49,0,0,0-1.32.5c-.2.09-.39.22-.59.3a11,11,0,0,0-4.8,3.86,13.25,13.25,0,0,0-1.38,3,11,11,0,0,0-.71,5.12,10.86,10.86,0,0,0,.25,1.79,1.9,1.9,0,0,0,1,1.42.62.62,0,0,0,.9-.21c.06-.08.1-.16.15-.24.53-.82.9-.83,1.47,0a2,2,0,0,1,.37.66,4.46,4.46,0,0,0,1.44,2.39,9.86,9.86,0,0,0,.79.66c.23.16.52.25.74.42,1.31,1,2.78.87,4.27.63a.73.73,0,0,0,.32-.18c.08-.05.12-.14.22-.26a2.12,2.12,0,0,0-.36-.51c-1-.79-2.13-1.5-3.08-2.36a19.11,19.11,0,0,1-2-2.39,3.18,3.18,0,0,1-.47-.82,5,5,0,0,1-.51-1.49,22.37,22.37,0,0,1,0-3,5.07,5.07,0,0,1,.6-2.08,14.83,14.83,0,0,1,1.31-2.49,13.85,13.85,0,0,1,2.59-2.76,5.83,5.83,0,0,1,1.92-1.17C319.37,413.78,319.3,413.12,319.57,412.55Z"/><path d="M190.45,428l.93,1.34a2,2,0,0,0,1.63-1.71,12.75,12.75,0,0,0,0-5.29,12.12,12.12,0,0,0-1.17-3.4,12.9,12.9,0,0,0-3.46-3.84c-1-.72-2.09-1-3.06-1.66a3.28,3.28,0,0,0-1.09-.32c-1-.21-2.11-.4-3.18-.58a3.43,3.43,0,0,0-.56,0,1.72,1.72,0,0,0,1.28,1.67,6.81,6.81,0,0,1,2,1.51,33.85,33.85,0,0,1,2.5,3c.26.33.27.85.5,1.22,1,1.5.89,3.2.93,4.87a3.41,3.41,0,0,1-.69,2.31c-.59.73-1,1.61-1.64,2.3a23,23,0,0,1-2.35,2.05c-.58.47-1.21.89-2,1.45.39.25.61.5.87.54a5.72,5.72,0,0,0,4.2-.65,10,10,0,0,0,2.17-1.92,4.65,4.65,0,0,0,.6-1.27C189.26,428.92,189.55,428.25,190.45,428Z"/><path d="M242.56,482.71c.39-.89.82-1.77,1.24-2.65a.76.76,0,0,1,.18-.22,23.66,23.66,0,0,1,1.87-1.55,3.46,3.46,0,0,1,3.56-.35,1.49,1.49,0,0,0,1.1,0c1.88-1,3.29,0,4.65,1.07,1.19.9,1.61,2.38,2.23,3.68.27.58.47,1.21.74,1.92a4.83,4.83,0,0,1-1.15.45,5.21,5.21,0,0,1-1.89,0,6.47,6.47,0,0,1-1.5-.83,3.22,3.22,0,0,0-1.32,1.34c-.43.73-.91,1.43-1.41,2.12a1.21,1.21,0,0,1-1.69.07c-.54-.73-1.06-1.49-1.53-2.27a2.31,2.31,0,0,0-1.41-1.26,3.39,3.39,0,0,1-4.35.33C242.13,483.89,242.31,483.29,242.56,482.71Zm8.47-1.84c-.1-.75-.41-.94-1.28-.89-.62,0-.72.15-.81.91a11.14,11.14,0,0,0,0,3.21c.14.77.37,1,1,1s.9-.26,1-1a2.43,2.43,0,0,0,0-.38c0-.44.05-.88.07-1.36S251.09,481.38,251,480.87Zm-4.48.74c.71-.66,1.41-1.33,2-2a.82.82,0,0,0,0-.75c-.14-.27-.42-.15-.65,0a12.79,12.79,0,0,0-1.52.92,11,11,0,0,0-1.4,1.49c-.05.07.07.38.18.46a2.23,2.23,0,0,0,.66.2A2.42,2.42,0,0,0,246.55,481.61Zm7.57-1.47a2.2,2.2,0,0,0-.51-.4c-.51-.31-1-.59-1.55-.88-.24-.14-.5-.35-.75-.05s-.13.58.12.83c.62.62,1.23,1.24,1.86,1.85s1.1.43,1.73-.19C254.7,480.88,254.42,480.49,254.12,480.14Z"/><path d="M297.59,433.56c.55-.16.62-.55.7-.92.19-.9.38-1.8.56-2.7a1.64,1.64,0,0,0,0-.66c-.27-1.26-.48-2.55-.87-3.78a8.06,8.06,0,0,0-1.12-2,24.43,24.43,0,0,1-1.49-2.06c-.58-1.09-1.55-2-1.47-3.42a3.91,3.91,0,0,0-.37-1.28c-.44.28-.79.49-1.13.72-.15.1-.34.23-.39.39-.46,1.33-1.19,2.63-.57,4.12a3.35,3.35,0,0,1,.2.83,8,8,0,0,0,1.8,3.49c.59.78,1.09,1.63,1.71,2.37a27,27,0,0,1,1.6,3,5.9,5.9,0,0,1,.37,1C297.3,433,297.45,433.27,297.59,433.56Z"/><path d="M206.48,416.78a3.6,3.6,0,0,0-.58,1.79,4.34,4.34,0,0,1-.52,1.49c-1.09,1.76-2.25,3.48-3.37,5.23a3,3,0,0,0-.31.89c-.18.74-.31,1.49-.48,2.23a4.92,4.92,0,0,0,.06,2.44c.16.58.25,1.18.4,1.76.09.32.24.63.45,1.17a4.63,4.63,0,0,0,.62-1,3.87,3.87,0,0,1,.78-1.71.75.75,0,0,0,.13-.25c.59-1.81,1.87-3.18,3-4.69a6.49,6.49,0,0,0,1.58-3.08,1.92,1.92,0,0,1,.11-.46,5,5,0,0,0-.16-4.13,1.81,1.81,0,0,0-.85-1.08A4.84,4.84,0,0,1,206.48,416.78Z"/><path d="M308.64,470a2.76,2.76,0,0,0,.32-.94,17.64,17.64,0,0,0-.33-2.91c-.27-1.1-.71-2.15-1.08-3.22a1.27,1.27,0,0,1,1.36-.29c.43.08.85.26,1.28.37.61.17.85,0,1-.51s0-1-.52-1a5.37,5.37,0,0,0-3.1,0,2.78,2.78,0,0,1-.83.15l-1.21.17c0,.56.05,1.06.12,1.56a3.2,3.2,0,0,1-.48,2.44,5.42,5.42,0,0,0-.47,1c-.31.74-.26,1.62-1,2.22-.19.17-.14.6-.24.9-.17.5-.36,1-.55,1.49-.06.18-.2.34-.21.52q-.09,1.71-.15,3.42c0,.37.08.78.46.85s.57-.18.84-.32a.89.89,0,0,0,.4-.39c.43-1,1.28-1.88,1.54-3s.56-2.14.88-3.2c.07-.22.28-.54.43-.54a1,1,0,0,1,.67.37,4.91,4.91,0,0,1,.54.85Z"/><path d="M192.4,462.73c-.34,1.13-.57,2.06-.91,2.94a7.83,7.83,0,0,0-.48,3.45,3.9,3.9,0,0,0,.33.92l.23,0c.18-.28.36-.55.53-.83s.36-.61.72-.44a1,1,0,0,1,.48.61c.32,1.13.58,2.27.89,3.39a5.38,5.38,0,0,0,.49,1,6.3,6.3,0,0,0,.55,1,7.9,7.9,0,0,0,1.14,1.36c.45.38.82.17.94-.42a1.83,1.83,0,0,0,0-.47c0-.86,0-1.72,0-2.57a6,6,0,0,0-.42-1.33c-.12-.36-.27-.71-.36-1.07a2.84,2.84,0,0,0-.76-1.8c-.14-.11-.13-.4-.2-.61a12.55,12.55,0,0,0-.81-2.12,3.48,3.48,0,0,1-.46-2.28c0-.06,0-.12,0-.19.24-1.44.17-1.68-1.29-1.63a1.42,1.42,0,0,1-.65-.12,5,5,0,0,0-2.9-.11.76.76,0,0,0-.75.82c0,.68.38,1,1,.79a11.1,11.1,0,0,1,1.37-.37A8.19,8.19,0,0,1,192.4,462.73Z"/><path d="M293.31,436.6c0-.58-.32-.69-.63-.86s-.73-.48-1.11-.68a7.9,7.9,0,0,0-1-.44c-.62-.22-1.24-.46-1.87-.65a7.58,7.58,0,0,0-1.84-.44c-1.71-.08-3.42-.07-5.13-.06a4.24,4.24,0,0,0-2.4.78,7.46,7.46,0,0,0-1.8,1.61,3.19,3.19,0,0,0-.61,2.59,1.73,1.73,0,0,0,1.4,1.51,1.83,1.83,0,0,0,2.07-.78,2.87,2.87,0,0,0,.43-.62,4.59,4.59,0,0,1,2.59-2.51,3.7,3.7,0,0,1,1.64-.39c1.42,0,2.85,0,4.28.11a3.88,3.88,0,0,1,1.32.47A4,4,0,0,0,293.31,436.6Z"/><path d="M217.14,433.33c-1.39.07-2.79.07-4.17.21a10.45,10.45,0,0,0-2,.6c-.39.12-.77.29-1.17.39a3.27,3.27,0,0,0-1.77.83c-.24.26-.69.3-1,.51s-.24.38-.36.58c.19.09.39.26.57.24a4.43,4.43,0,0,0,1.74-.34,6.34,6.34,0,0,1,3-.72c.69-.05,1.39,0,2.09,0a5.74,5.74,0,0,1,3.94,1.36,5.08,5.08,0,0,1,.83,1c.25.36.44.77.69,1.13a1.91,1.91,0,0,0,2.38.78,1.81,1.81,0,0,0,1.16-2.06,4.15,4.15,0,0,0-2.18-3.41A6.84,6.84,0,0,0,217.14,433.33Z"/><path d="M275.34,455.6c0-.12,0-.22-.09-.23a4.52,4.52,0,0,1-2-1.56,4.59,4.59,0,0,1-.8-1.25c-.19-.53-.49-1-.64-1.58-.35-1.27.38-2.16,1.07-3a13.87,13.87,0,0,0,1.78.87,1.79,1.79,0,0,0,2.13-1.21,5,5,0,0,0,.15-1.21,2.18,2.18,0,0,0-2.18-2.28,3.63,3.63,0,0,0-3.56,1.69,4.69,4.69,0,0,0-.92,3c0,.63,0,1.27,0,1.9a3.28,3.28,0,0,0,.71,1.91,9.71,9.71,0,0,0,1.35,1.78c.53.44,1,1,1.55,1.34S274.91,455.87,275.34,455.6Z"/><path d="M226.93,447.92a3.49,3.49,0,0,1,1.26,2.74,4.12,4.12,0,0,1-.29.88c-.05.14-.21.26-.23.41-.13,1.16-1.06,1.82-1.68,2.67a1.72,1.72,0,0,1-.62.41c-.25.15-.52.29-.84.46.91.58,1.21.56,1.77,0a16.51,16.51,0,0,0,1.25-1.11,20,20,0,0,0,1.61-2.06,2.15,2.15,0,0,0,.37-1.07,24.54,24.54,0,0,0,.08-3.32,4.49,4.49,0,0,0-2.29-3.43,3.16,3.16,0,0,0-3.19,0,2.77,2.77,0,0,0-.75,3.77,2.24,2.24,0,0,0,2.79.28C226.4,448.36,226.61,448.17,226.93,447.92Z"/><path d="M138.59,430a5.47,5.47,0,0,0-2,.72,2.83,2.83,0,0,0-1.14,2.32c.32,1.71,1,2.91,3.12,2.92a3,3,0,0,0,3-3A3.19,3.19,0,0,0,138.59,430Z"/><path d="M361.36,430.18a2.77,2.77,0,0,0-3,2.94,3,3,0,0,0,2.94,2.87,2.82,2.82,0,0,0,2.11-.69,4.8,4.8,0,0,0,1-2.28c.12-.85-.55-1.6-1.09-2.25A2.43,2.43,0,0,0,361.36,430.18Z"/><path d="M253.31,416.32a.86.86,0,0,0-.59-1,2.63,2.63,0,0,1-1.8-2,.88.88,0,0,0-.92-.79c-.44,0-.75.11-.87.55,0,.19-.12.36-.18.55a2.31,2.31,0,0,1-1.46,1.63c-.47.17-.84.39-.83,1a1.1,1.1,0,0,0,.82,1.13,2.25,2.25,0,0,1,1.5,1.71,3.56,3.56,0,0,0,.25.61c.17.4.53.39.88.4a.67.67,0,0,0,.71-.51c.06-.18.13-.36.18-.54a2.32,2.32,0,0,1,1.53-1.69A1,1,0,0,0,253.31,416.32Z"/><path d="M367.17,441.07a3,3,0,0,0,2.77-2.61,3.66,3.66,0,0,0-2.66-2.66,2.8,2.8,0,0,0-2.55,2.76A2.47,2.47,0,0,0,367.17,441.07Z"/><path d="M132.68,441.18a2.7,2.7,0,0,0,2.57-2.73,2.94,2.94,0,0,0-2.5-2.65,3.42,3.42,0,0,0-2.68,2.61,3,3,0,0,0,1.1,2.14C131.49,440.92,132.16,441,132.68,441.18Z"/><path d="M239.21,455.5c-.39-.15-.61.05-.73.38a6.28,6.28,0,0,0-.31,4,2.23,2.23,0,0,0,2.7,1.53,2.1,2.1,0,0,0,1.54-2.41c0-.21-.11-.49-.26-.58-.64-.4-1.05-1.21-2-1-.48.11-.83-.32-.9-.9A8.81,8.81,0,0,1,239.21,455.5Z"/><path d="M261,455.33c-.09.45-.16.73-.2,1-.14.81-.41,1-1.26,1a2,2,0,0,0-.75.28c-.17.09-.28.28-.44.36a1.48,1.48,0,0,0-.76,1.85,2,2,0,0,0,1.54,1.53,2.19,2.19,0,0,0,2.64-1.47,6.18,6.18,0,0,0-.37-4.25A3,3,0,0,0,261,455.33Z"/><path d="M308.42,459.12a7.14,7.14,0,0,1,.62-1.63,3.92,3.92,0,0,1,1.54-1.64,1,1,0,0,0,.43-.35.35.35,0,0,0-.33-.57,3.06,3.06,0,0,0-1.39.52,2.82,2.82,0,0,1-2.34.74l-1.43-.11a.67.67,0,0,0-.77.55.87.87,0,0,0,.34.68,1.4,1.4,0,0,1,.61,1,3.33,3.33,0,0,0,1.15,1.82.92.92,0,0,0,1.21.12A.76.76,0,0,0,308.42,459.12Z"/><path d="M188.93,454.81a1,1,0,0,0,.51,1.09c1.18.88,2.18,1.93,2,3.59a.75.75,0,0,0,.53.81.78.78,0,0,0,1,0,3.51,3.51,0,0,0,1.33-1.91,1.35,1.35,0,0,1,.65-1.1.68.68,0,0,0,.27-.62.9.9,0,0,0-.59-.49,14.51,14.51,0,0,0-1.61.05,3,3,0,0,1-2.33-.75c-.41-.39-1.15-.42-1.75-.62Z"/><path d="M373.56,438.8a2,2,0,0,0-2,1.87,2.13,2.13,0,0,0,2,1.93c1-.11,2.07-.67,2-2A1.9,1.9,0,0,0,373.56,438.8Z"/><path d="M126.45,438.8a1.86,1.86,0,0,0-2,1.91,2.06,2.06,0,0,0,1.83,1.92,2.35,2.35,0,0,0,2.16-2A2.17,2.17,0,0,0,126.45,438.8Z"/><path d="M120,438.8a1.68,1.68,0,0,0-1.58,1.59,2.76,2.76,0,0,0,1.47,1.44,1.63,1.63,0,0,0,1.5-1.55C121.27,439.18,121,438.77,120,438.8Z"/><path d="M381.62,440.43a9.16,9.16,0,0,0-.37-.89,1.41,1.41,0,0,0-1.77-.71,1.17,1.17,0,0,0-.84,1.41,2.75,2.75,0,0,0,.63,1.32,1.06,1.06,0,0,0,1.58-.15C381.09,441.12,381.31,440.82,381.62,440.43Z"/><path d="M384.15,438a.73.73,0,0,0,.79.84c.72,0,1.17-.24,1.19-.67a1.26,1.26,0,0,0-1.22-1.3C384.45,436.92,384.17,437.33,384.15,438Z"/><path d="M115.8,438.06c0-.82-.27-1.17-.8-1.14a1.21,1.21,0,0,0-1.17,1.24c0,.45.56.76,1.26.72A.73.73,0,0,0,115.8,438.06Z"/><path d="M250,475.38c-.66,0-1,.21-1,.6a.89.89,0,0,0,1,.8c.57,0,1-.32,1-.78S250.62,475.39,250,475.38Z"/><path d="M313.79,454.31a2.2,2.2,0,0,0-2.59.28A2.51,2.51,0,0,0,313.79,454.31Z"/><path d="M188.9,454.83c-.12-.21-.2-.54-.38-.6a3.21,3.21,0,0,0-2.32.08,4.23,4.23,0,0,0,2.73.5Z"/><path d="M392.35,431.72a7.73,7.73,0,0,0-1-.42.59.59,0,0,0-.66.6c.06.34.26.61.64.52a8.68,8.68,0,0,0,1-.4Z"/><path d="M107.36,431.88a7.92,7.92,0,0,0,1.22.51.84.84,0,0,0,.61-.29.51.51,0,0,0,0-.49c-.16-.15-.43-.34-.61-.3A6.7,6.7,0,0,0,107.36,431.88Z"/><path d="M111,436l.63-.83c-.65-.74-.72-.73-1.29,0Z"/><path d="M389,436l.73-.93-.67-.61-.8.65Z"/><path d="M250.63,473.71c-.43-.3-.76-.19-1.27-.09A1.22,1.22,0,0,0,250.63,473.71Z"/></svg>