<svg width="40" height="40" viewBox="0 0 40 40" fill="none" xmlns="http://www.w3.org/2000/svg">
<path fill-rule="evenodd" clip-rule="evenodd" d="M40 20C40 31.04 31.04 40 20 40C8.96 40 0 31.04 0 20C0 8.96 8.96 0 20 0C31.04 0 40 8.96 40 20ZM14 24.5C15.38 24.5 16.5 23.38 16.5 22C16.5 20.62 15.38 19.5 14 19.5C12.62 19.5 11.5 20.62 11.5 22C11.5 23.38 12.62 24.5 14 24.5ZM23.5 22C23.5 20.62 24.62 19.5 26 19.5C27.38 19.5 28.5 20.62 28.5 22C28.5 23.38 27.38 24.5 26 24.5C24.62 24.5 23.5 23.38 23.5 22ZM30.9999 12C25.1999 12 20.1199 8.88 17.3199 4.24C18.1799 4.1 19.0799 4 19.9999 4C25.7999 4 30.8799 7.12 33.6799 11.76C32.8199 11.9 31.9199 12 30.9999 12ZM4.83997 14.94C8.25997 13 10.9 9.84 12.16 6.06C8.73997 8 6.09997 11.16 4.83997 14.94ZM35.34 15.52C35.76 16.94 36 18.44 36 20C36 28.82 28.82 36 20 36C11.18 36 4 28.82 4 20C4 19.9659 4.00233 19.9318 4.0046 19.8985C4.00899 19.8341 4.01318 19.7727 4 19.72C9.2 17.76 13.38 13.74 15.48 8.62C19.16 13.12 24.74 16 31 16C32.5 16 33.94 15.82 35.34 15.52Z" fill="#626262"/>
</svg>
